<svg viewBox="0 0 330 200" xmlns="http://www.w3.org/2000/svg"><g><g><g><g><g><line x1="48.875" y1="177.828125" x2="43.875" y2="177.828125" style="visibility: inherit;" fill="rgb(0, 0, 0)" stroke="rgb(204, 204, 204)" stroke-width="1px"></line><line x1="48.875" y1="155.59960937499997" x2="43.875" y2="155.59960937499997" style="visibility: inherit;" fill="rgb(0, 0, 0)" stroke="rgb(204, 204, 204)" stroke-width="1px"></line><line x1="48.875" y1="133.37109375" x2="43.875" y2="133.37109375" style="visibility: inherit;" fill="rgb(0, 0, 0)" stroke="rgb(204, 204, 204)" stroke-width="1px"></line><line x1="48.875" y1="111.14257812499999" x2="43.875" y2="111.14257812499999" style="visibility: inherit;" fill="rgb(0, 0, 0)" stroke="rgb(204, 204, 204)" stroke-width="1px"></line><line x1="48.875" y1="88.91406249999999" x2="43.875" y2="88.91406249999999" style="visibility: inherit;" fill="rgb(0, 0, 0)" stroke="rgb(204, 204, 204)" stroke-width="1px"></line><line x1="48.875" y1="66.685546875" x2="43.875" y2="66.685546875" style="visibility: inherit;" fill="rgb(0, 0, 0)" stroke="rgb(204, 204, 204)" stroke-width="1px"></line><line x1="48.875" y1="44.45703124999997" x2="43.875" y2="44.45703124999997" style="visibility: inherit;" fill="rgb(0, 0, 0)" stroke="rgb(204, 204, 204)" stroke-width="1px"></line><line x1="48.875" y1="22.22851562500003" x2="43.875" y2="22.22851562500003" style="visibility: inherit;" fill="rgb(0, 0, 0)" stroke="rgb(204, 204, 204)" stroke-width="1px"></line><line x1="48.875" y1="0" x2="43.875" y2="0" style="visibility: inherit;" fill="rgb(0, 0, 0)" stroke="rgb(204, 204, 204)" stroke-width="1px"></line></g><g transform="translate(38.875, 0)"><text style="text-anchor: end; visibility: hidden; font-family: &quot;Helvetica Neue&quot;, sans-serif; font-size: 12px; font-weight: 200;" x="0" y="177.828125" dx="0em" dy="0.3em" fill="rgb(50, 49, 63)" stroke="none" stroke-width="1px">0.6</text><text style="text-anchor: end; visibility: inherit; font-family: &quot;Helvetica Neue&quot;, sans-serif; font-size: 12px; font-weight: 200;" x="0" y="155.59960937499997" dx="0em" dy="0.3em" fill="rgb(50, 49, 63)" stroke="none" stroke-width="1px">0.65</text><text style="text-anchor: end; visibility: hidden; font-family: &quot;Helvetica Neue&quot;, sans-serif; font-size: 12px; font-weight: 200;" x="0" y="133.37109375" dx="0em" dy="0.3em" fill="rgb(50, 49, 63)" stroke="none" stroke-width="1px">0.7</text><text style="text-anchor: end; visibility: inherit; font-family: &quot;Helvetica Neue&quot;, sans-serif; font-size: 12px; font-weight: 200;" x="0" y="111.14257812499999" dx="0em" dy="0.3em" fill="rgb(50, 49, 63)" stroke="none" stroke-width="1px">0.75</text><text style="text-anchor: end; visibility: hidden; font-family: &quot;Helvetica Neue&quot;, sans-serif; font-size: 12px; font-weight: 200;" x="0" y="88.91406249999999" dx="0em" dy="0.3em" fill="rgb(50, 49, 63)" stroke="none" stroke-width="1px">0.8</text><text style="text-anchor: end; visibility: inherit; font-family: &quot;Helvetica Neue&quot;, sans-serif; font-size: 12px; font-weight: 200;" x="0" y="66.685546875" dx="0em" dy="0.3em" fill="rgb(50, 49, 63)" stroke="none" stroke-width="1px">0.85</text><text style="text-anchor: end; visibility: hidden; font-family: &quot;Helvetica Neue&quot;, sans-serif; font-size: 12px; font-weight: 200;" x="0" y="44.45703124999997" dx="0em" dy="0.3em" fill="rgb(50, 49, 63)" stroke="none" stroke-width="1px">0.9</text><text style="text-anchor: end; visibility: inherit; font-family: &quot;Helvetica Neue&quot;, sans-serif; font-size: 12px; font-weight: 200;" x="0" y="22.22851562500003" dx="0em" dy="0.3em" fill="rgb(50, 49, 63)" stroke="none" stroke-width="1px">0.95</text><text style="text-anchor: end; visibility: hidden; font-family: &quot;Helvetica Neue&quot;, sans-serif; font-size: 12px; font-weight: 200;" x="0" y="0" dx="0em" dy="0.3em" fill="rgb(50, 49, 63)" stroke="none" stroke-width="1px">1</text></g><line x1="48.875" y1="0" x2="48.875" y2="177.828125" fill="rgb(0, 0, 0)" stroke="rgb(204, 204, 204)" stroke-width="1px"></line></g></g><g transform="translate(48, 0)" clip-path="url(#clip_0)"><clipPath id="clip_0"><rect width="281" height="177"></rect></clipPath><g><g><g><line x1="0" y1="0" x2="0" y2="177.828125" fill="rgb(0, 0, 0)" stroke="rgb(60, 60, 60)" stroke-width="1px" opacity="0.25"></line><line x1="31.23611111111111" y1="0" x2="31.23611111111111" y2="177.828125" fill="rgb(0, 0, 0)" stroke="rgb(60, 60, 60)" stroke-width="1px" opacity="0.25"></line><line x1="62.47222222222222" y1="0" x2="62.47222222222222" y2="177.828125" fill="rgb(0, 0, 0)" stroke="rgb(60, 60, 60)" stroke-width="1px" opacity="0.25"></line><line x1="93.70833333333333" y1="0" x2="93.70833333333333" y2="177.828125" fill="rgb(0, 0, 0)" stroke="rgb(60, 60, 60)" stroke-width="1px" opacity="0.25"></line><line x1="124.94444444444444" y1="0" x2="124.94444444444444" y2="177.828125" fill="rgb(0, 0, 0)" stroke="rgb(60, 60, 60)" stroke-width="1px" opacity="0.25"></line><line x1="156.18055555555557" y1="0" x2="156.18055555555557" y2="177.828125" fill="rgb(0, 0, 0)" stroke="rgb(60, 60, 60)" stroke-width="1px" opacity="0.25"></line><line x1="187.41666666666666" y1="0" x2="187.41666666666666" y2="177.828125" fill="rgb(0, 0, 0)" stroke="rgb(60, 60, 60)" stroke-width="1px" opacity="0.25"></line><line x1="218.65277777777777" y1="0" x2="218.65277777777777" y2="177.828125" fill="rgb(0, 0, 0)" stroke="rgb(60, 60, 60)" stroke-width="1px" opacity="0.25"></line><line x1="249.88888888888889" y1="0" x2="249.88888888888889" y2="177.828125" fill="rgb(0, 0, 0)" stroke="rgb(60, 60, 60)" stroke-width="1px" opacity="0.25"></line><line x1="281.125" y1="0" x2="281.125" y2="177.828125" fill="rgb(0, 0, 0)" stroke="rgb(60, 60, 60)" stroke-width="1px" opacity="0.25"></line></g><g><line x1="0" y1="177.828125" x2="281.125" y2="177.828125" fill="rgb(0, 0, 0)" stroke="rgb(60, 60, 60)" stroke-width="1px" opacity="0.25"></line><line x1="0" y1="155.59960937499997" x2="281.125" y2="155.59960937499997" fill="rgb(0, 0, 0)" stroke="rgb(60, 60, 60)" stroke-width="1px" opacity="0.25"></line><line x1="0" y1="133.37109375" x2="281.125" y2="133.37109375" fill="rgb(0, 0, 0)" stroke="rgb(60, 60, 60)" stroke-width="1px" opacity="0.25"></line><line x1="0" y1="111.14257812499999" x2="281.125" y2="111.14257812499999" fill="rgb(0, 0, 0)" stroke="rgb(60, 60, 60)" stroke-width="1px" opacity="0.25"></line><line x1="0" y1="88.91406249999999" x2="281.125" y2="88.91406249999999" fill="rgb(0, 0, 0)" stroke="rgb(60, 60, 60)" stroke-width="1px" opacity="0.25"></line><line x1="0" y1="66.685546875" x2="281.125" y2="66.685546875" fill="rgb(0, 0, 0)" stroke="rgb(60, 60, 60)" stroke-width="1px" opacity="0.25"></line><line x1="0" y1="44.45703124999997" x2="281.125" y2="44.45703124999997" fill="rgb(0, 0, 0)" stroke="rgb(60, 60, 60)" stroke-width="1px" opacity="0.25"></line><line x1="0" y1="22.22851562500003" x2="281.125" y2="22.22851562500003" fill="rgb(0, 0, 0)" stroke="rgb(60, 60, 60)" stroke-width="1px" opacity="0.25"></line><line x1="0" y1="0" x2="281.125" y2="0" fill="rgb(0, 0, 0)" stroke="rgb(60, 60, 60)" stroke-width="1px" opacity="0.25"></line></g></g></g><g><g><line x1="0" y1="444.57031249999994" x2="281.125" y2="444.57031249999994" fill="rgb(0, 0, 0)" stroke="rgb(153, 153, 153)" stroke-width="1.5px"></line></g></g><g><g><line x1="31.23611111111111" y1="0" x2="31.23611111111111" y2="177.828125" fill="rgb(0, 0, 0)" stroke="rgb(153, 153, 153)" stroke-width="1.5px"></line></g></g><g><g><g><g><g><path style="fill: none;" stroke="rgb(204, 51, 17)" stroke-width="2px" d="M37.483333333333334,179.60200847831356L39.04513888888889,160.65790045384708L40.60694444444444,146.26069705398444L42.168749999999996,134.97145483151408L43.730555555555554,126.99064641038419L45.29236111111111,119.41190550958974L46.854166666666664,112.9349829210075L48.41597222222222,107.55887770345697L49.97777777777778,103.99893777771901L51.53958333333333,98.6825920916917L53.101388888888884,94.6878590860579L54.66319444444444,91.73236293094746L56.225,87.81053214228908L57.78680555555555,85.05237473597076L59.34861111111111,82.0044485226778L60.91041666666667,80.14929926836854L62.47222222222222,78.5602641454823L64.03402777777778,75.8699333564517L65.59583333333333,73.4759586534995L67.1576388888889,71.88542666418677L68.71944444444445,70.3716804152223L70.28125,68.5339560352317L71.84305555555555,66.38928623976255L73.40486111111112,65.56811338285908L74.96666666666667,64.16030384877291L76.52847222222222,63.54213744326444L78.09027777777779,61.9005857460899L79.65208333333334,64.38110662090635L81.21388888888887,64.43767040428534L82.77569444444444,67.98880906047614L84.33749999999999,69.54992362472548L85.89930555555556,64.91217365418495L87.46111111111111,61.876821856200436L89.02291666666666,65.34392479367544L90.58472222222223,63.67313568071641L92.14652777777778,60.30186627548636L93.70833333333333,59.665780090352456L95.2701388888889,57.454455872382184L96.83194444444445,53.21264606214656L98.39375,55.983132469518324L99.95555555555556,58.52535985076956L101.51736111111111,52.27729643654885L103.07916666666667,52.54524118809728L104.64097222222223,51.62505276811406L106.20277777777777,50.342732986279216L107.76458333333333,46.160648728006464L109.32638888888889,44.72936964583877L110.88819444444444,46.08927908302962L112.45,47.43434946591307L114.01180555555555,46.29984280170237L115.5736111111111,43.201181589928694L117.13541666666667,42.69860735603618L118.69722222222222,41.25924653782698L120.25902777777777,40.417478915543114L121.82083333333334,38.6956604969713L123.38263888888889,37.93966415027259L124.94444444444444,38.11426960971616L126.50625000000001,37.7743767746405L128.06805555555556,38.289693381531464L129.62986111111113,40.565847574038884L131.19166666666666,38.210750882049865L132.75347222222223,35.95393833601915L134.3152777777778,36.824627755265965L135.87708333333333,35.44534201279666L137.4388888888889,34.27292789290624L139.00069444444446,34.57142641378553L140.5625,34.81925853651754L142.12430555555554,34.016389258234966L143.6861111111111,33.25493261005033L145.24791666666667,31.99942637475675L146.80972222222223,31.115026056798172L148.37152777777777,31.281054334075804L149.93333333333334,30.580001476151352L151.49513888888887,31.602127814823973L153.05694444444444,32.06907356425009L154.61875,33.38412960306482L156.18055555555557,30.95034872885688L157.7423611111111,29.71082898324687L159.30416666666667,29.398480492187133L160.8659722222222,28.952491107959077L162.42777777777775,29.095145342072044L163.98958333333334,27.678426534083258L165.55138888888888,28.0657152089874L167.11319444444445,26.936430727732414L168.67499999999998,26.607012607304398L170.23680555555555,27.123466477974517L171.79861111111111,26.434167042100114L173.36041666666668,26.31438537899598L174.92222222222222,25.49288740168592L176.48402777777778,25.381390057117784L178.04583333333332,25.17167924273207L179.60763888888889,24.326435992302038L181.16944444444445,24.422526485768543L182.73125000000002,23.63233477920943L184.29305555555555,25.967237785908168L185.85486111111112,24.89233517394692L187.41666666666666,24.621364862487866L188.97847222222225,24.430412850088288L190.5402777777778,23.791427436182943L192.10208333333333,22.025373606808785L193.6638888888889,22.92420201407981L195.22569444444443,22.378678627532906L196.7875,22.142121742288396L198.34930555555556,21.322835124766357L199.91111111111113,20.943146407033424L201.47291666666666,20.944156409106057L203.03472222222223,20.620441900977795L204.59652777777777,21.013813023340646L206.15833333333333,21.62369679655012L207.7201388888889,20.730198801476774L209.28194444444446,24.641271518256616L210.84375,22.692466471602074L212.40555555555554,20.793856378282214L213.9673611111111,19.578824394610052L215.52916666666667,18.704492634067066L217.09097222222223,18.914311916715548L218.65277777777777,19.368211066223353L220.21458333333334,21.295679766820257L221.77638888888887,20.880294294057563L223.33819444444444,21.90356568003378L224.9,20.325410572489034L226.46180555555557,19.434246377704028L228.0236111111111,18.964658793028946L229.58541666666667,18.10108134437897L231.1472222222222,18.993997388644488L232.70902777777775,18.923081256871797L234.27083333333334,17.656383679510583L235.83263888888888,18.550095027696955L237.39444444444445,18.479512916565938L238.95624999999998,19.27683945490611L240.51805555555555,18.93837518608791L242.07986111111111,18.26485354347392L243.64166666666668,17.57043085810264L245.20347222222222,17.616764393838167L246.76527777777778,18.07560674500388L248.32708333333332,20.439240519902597L249.88888888888889,20.40624915790366L251.45069444444445,18.359720124604536L253.01250000000002,17.100815473486648L254.57430555555555,16.43214173648093L256.1361111111111,15.598999111579957L257.69791666666663,15.83752043587802L259.25972222222225,16.131683281327412L260.82152777777776,16.91591706897421L262.3833333333333,16.300087160718846L263.9451388888889,16.093502880748076" fill="none"></path></g><g><path style="fill: none;" stroke="rgb(0, 119, 187)" stroke-width="2px" d="M35.921527777777776,186.30827180502172L37.483333333333334,177.28653092136713L39.04513888888889,156.92946574827243L40.60694444444444,147.34092726322444L42.168749999999996,134.4048643995106L43.730555555555554,127.31093236344552L45.29236111111111,123.6493394483947L46.854166666666664,126.58780597388119L48.41597222222222,121.35171196557317L49.97777777777778,114.00171520352978L51.53958333333333,109.32822961574567L53.101388888888884,107.89910763106788L54.66319444444444,105.59393571897333L56.225,104.67186778578917L57.78680555555555,103.80775277908853L59.34861111111111,103.02184557453538L60.91041666666667,98.46998214431132L62.47222222222222,99.37333635382177L64.03402777777778,96.10255062415162L65.59583333333333,97.9585971065741L67.1576388888889,95.78429889662235L68.71944444444445,95.24477156816326L70.28125,92.46995708662176L71.84305555555555,92.59825112527129L73.40486111111112,91.85159425016285L74.96666666666667,90.47980764646724L76.52847222222222,89.27070909505075L78.09027777777779,86.09047554377067L79.65208333333334,83.13988515339581L81.21388888888887,83.3905020008824L82.77569444444444,95.46030250199284L84.33749999999999,88.5112703146716L85.89930555555556,87.82289435331985L87.46111111111111,102.07610128098841L89.02291666666666,90.49720591632914L90.58472222222223,88.86491256021071L92.14652777777778,89.23010827768631L93.70833333333333,82.74477847211084L95.2701388888889,82.02174489409485L96.83194444444445,81.51239289352597L98.39375,86.56424977410559L99.95555555555556,85.61324903253083L101.51736111111111,81.46313075153378L103.07916666666667,77.62929853681561L104.64097222222223,80.77352741053735L106.20277777777777,77.10581323418926L107.76458333333333,75.94139822268177L109.32638888888889,77.09908659606525L110.88819444444444,81.60704519195221L112.45,79.69555323781714L114.01180555555555,76.17931973357236L115.5736111111111,74.66277294626653L117.13541666666667,76.83528045172696L118.69722222222222,75.9432543943781L120.25902777777777,75.2012094245909L121.82083333333334,74.16145953799268L123.38263888888889,74.57103947077933L124.94444444444444,71.29534541449718L126.50625000000001,70.48037162351321L128.06805555555556,86.05874983108747L129.62986111111113,77.84409179065062L131.19166666666666,72.87973160461208L132.75347222222223,70.81143954145408L134.3152777777778,70.1767399896147L135.87708333333333,72.28924644554877L137.4388888888889,70.9604800246764L139.00069444444446,73.92352617852823L140.5625,74.36581274138562L142.12430555555554,72.0112292133003L143.6861111111111,71.2895343714286L145.24791666666667,69.54249803417862L146.80972222222223,67.52289978032387L148.37152777777777,68.25596686802587L149.93333333333334,72.37395427935111L151.49513888888887,71.10441654380523L153.05694444444444,72.16502913476943L154.61875,69.12222684581965L156.18055555555557,69.14334166045194L157.7423611111111,69.78466609938023L159.30416666666667,67.39962843704204L160.8659722222222,69.74756471995705L162.42777777777775,68.0176663983482L163.98958333333334,67.1606110922195L165.55138888888888,68.49627004055844L167.11319444444445,67.57217521939269L168.67499999999998,69.48639147792692L170.23680555555555,68.51855431867291L171.79861111111111,68.48913270588028L173.36041666666668,67.56932028552144L174.92222222222222,66.26584614527077L176.48402777777778,66.62497896847364L178.04583333333332,65.25524700444959L179.60763888888889,68.17438564510203L181.16944444444445,65.7649403904197L182.73125000000002,64.38842234483378L184.29305555555555,67.11224517851109L185.85486111111112,67.65144378764916L187.41666666666666,66.62888750109224L188.97847222222225,69.43926834557712L190.5402777777778,68.08696512202002L192.10208333333333,65.26218964559665L193.6638888888889,67.70939606504402L195.22569444444443,69.04599188373194L196.7875,66.52632282958457L198.34930555555556,66.45400438003279L199.91111111111113,65.40697983936235L201.47291666666666,65.92371919520131L203.03472222222223,65.49755232353482L204.59652777777777,67.50085457811416L206.15833333333333,67.06395564880708L207.7201388888889,65.48586436938689L209.28194444444446,69.80753898032091L210.84375,68.50943863808395L212.40555555555554,67.05463343000869L213.9673611111111,63.390898568290794L215.52916666666667,63.10861366101189L217.09097222222223,62.36282118502493L218.65277777777777,65.09129028031398L220.21458333333334,66.01758194094441L221.77638888888887,65.56260281869737L223.33819444444444,65.0779405107668L224.9,64.55388363262423L226.46180555555557,65.0596714841119L228.0236111111111,65.53715188687333L229.58541666666667,62.233591325777155L231.1472222222222,63.58123993611356L232.70902777777775,63.29480359374887L234.27083333333334,65.57413662941148L235.83263888888888,63.18393439489958L237.39444444444445,62.310401489837375L238.95624999999998,63.309277443632595L240.51805555555555,64.31418504228743L242.07986111111111,66.03693180070412L243.64166666666668,63.42407915622056L245.20347222222222,65.46075087691497L246.76527777777778,64.43184251691706L248.32708333333332,67.73497046448117L249.88888888888889,63.69055467801846L251.45069444444445,63.64121604861592L253.01250000000002,63.75905527840142L254.57430555555555,63.9437815509355L256.1361111111111,63.13714958064594L257.69791666666663,68.18014785894509L259.25972222222225,63.34581640740983L260.82152777777776,64.35632192373699L262.3833333333333,63.687384377540866L263.9451388888889,64.30033183836557" fill="none"></path></g></g></g></g><g opacity="0.20000000298023224"><g><g><g><path style="fill: none;" stroke="rgb(204, 51, 17)" stroke-width="2px" d="M35.921527777777776,180.2884959988296L37.483333333333334,161.09163687564433L39.04513888888889,148.15782021498308L40.60694444444444,136.70187541749328L42.168749999999996,127.45762421283871L43.730555555555554,121.6735943313688L45.29236111111111,114.36073605669662L46.854166666666664,108.61748729832469L48.41597222222222,103.97495788522063L49.97777777777778,101.62568431114777L51.53958333333333,95.13838541926815L53.101388888888884,92.02471089782192L54.66319444444444,89.76203427650033L56.225,85.19597940612584L57.78680555555555,83.21360344765708L59.34861111111111,79.97249785345048L60.91041666666667,78.91253313282505L62.47222222222222,77.5009074085392L64.03402777777778,74.07637950498611L65.59583333333333,71.87997552100569L67.1576388888889,70.82507200539112L68.71944444444445,69.36251624953002L70.28125,67.30880644870922L71.84305555555555,64.9595063761808L73.40486111111112,65.0206648116L74.96666666666667,63.22176415938884L76.52847222222222,63.13002650626004L78.09027777777779,60.8062179479748L79.65208333333334,66.03478720411658L81.21388888888887,64.4753795932047L82.77569444444444,70.35623483126983L84.33749999999999,70.59066666755825L85.89930555555556,61.820340340491384L87.46111111111111,59.85325399087742L89.02291666666666,67.6553267519921L90.58472222222223,62.55927627207711L92.14652777777778,58.05435333866626L93.70833333333333,59.24172263359651L95.2701388888889,55.98023972706869L96.83194444444445,50.38477285532281L98.39375,57.83012340776622L99.95555555555556,60.22017810493708L101.51736111111111,48.11192082706839L103.07916666666667,52.723871022462845L104.64097222222223,51.01159382145852L106.20277777777777,49.48785313172266L107.76458333333333,43.37259255582467L109.32638888888889,43.77518359106034L110.88819444444444,46.99588537449017L112.45,48.33106305450201L114.01180555555555,45.5435050255619L115.5736111111111,41.135407448746264L117.13541666666667,42.3635578667745L118.69722222222222,40.29967265902087L120.25902777777777,39.85630050068721L121.82083333333334,37.547781551256776L123.38263888888889,37.43566658580676L124.94444444444444,38.23067324934527L126.50625000000001,37.547781551256776L128.06805555555556,38.63323778612539L129.62986111111113,42.08328370237723L131.19166666666666,36.640686420723796L132.75347222222223,34.44939663866535L134.3152777777778,37.405087368097156L135.87708333333333,34.525818184483796L137.4388888888889,33.491318479646L139.00069444444446,34.77042542770505L140.5625,34.984479951672256L142.12430555555554,33.48114307271317L143.6861111111111,32.74729484459385L145.24791666666667,31.162422217894346L146.80972222222223,30.525425844825804L148.37152777777777,31.391739852260798L149.93333333333334,30.112632904201746L151.49513888888887,32.28354537393898L153.05694444444444,32.380370730534196L154.61875,34.26083362894133L156.18055555555557,29.327828146051615L157.7423611111111,28.88448248617351L159.30416666666667,29.190248164813966L160.8659722222222,28.655164851807058L162.42777777777775,29.190248164813966L163.98958333333334,26.733947328757495L165.55138888888888,28.323907658923417L167.11319444444445,26.183574406895787L168.67499999999998,26.387400527019054L170.23680555555555,27.467769058421254L171.79861111111111,25.97463408485055L173.36041666666668,26.234530936926603L174.92222222222222,24.945222083479166L176.48402777777778,25.307058494072407L178.04583333333332,25.031872033141553L179.60763888888889,23.762940492015332L181.16944444444445,24.48658681474626L182.73125000000002,23.10554030817002L184.29305555555555,27.52383979037404L185.85486111111112,24.17573343263939L187.41666666666666,24.44071798818186L188.97847222222225,24.303111508488655L190.5402777777778,23.365437160246074L192.10208333333333,20.848004387225956L193.6638888888889,23.523420952260494L195.22569444444443,22.01499636983499L196.7875,21.98441715212539L198.34930555555556,20.77664404641837L199.91111111111113,20.690020595211536L201.47291666666666,20.944829743821174L203.03472222222223,20.404632228892297L204.59652777777777,21.27606043824926L206.15833333333333,22.03028597868979L207.7201388888889,20.134533471427858L209.28194444444446,27.248653329443187L210.84375,21.393263107165694L212.40555555555554,19.528116316068918L213.9673611111111,18.768803072161973L215.52916666666667,18.121604793705046L217.09097222222223,19.05419143848121L218.65277777777777,19.670810499228537L220.21458333333334,22.580658900551498L221.77638888888887,20.60337064554915L223.33819444444444,22.585746604017913L224.9,19.27330716745928L226.46180555555557,18.840136914514005L228.0236111111111,18.65160040324554L229.58541666666667,17.525363045278937L231.1472222222222,19.58927475148812L232.70902777777775,18.87580383569002L234.27083333333334,16.811918627936393L235.83263888888888,19.14590259315446L237.39444444444445,18.432458175811917L238.95624999999998,19.808390480466187L240.51805555555555,18.712732340209186L242.07986111111111,17.81583911506459L243.64166666666668,17.107482401188463L245.20347222222222,17.647653417661786L246.76527777777778,18.3815016457811L248.32708333333332,22.01499636983499L249.88888888888889,20.38425491657108L251.45069444444445,16.995367435738444L253.01250000000002,16.261545706074685L254.57430555555555,15.98635924514383L256.1361111111111,15.04357069497928L257.69791666666663,15.996534652076662L259.25972222222225,16.327791844960302L260.82152777777776,17.438739594072104L262.3833333333333,15.889533888548613L263.9451388888889,15.95578002743423" fill="none"></path></g><g><path style="fill: none;" stroke="rgb(0, 119, 187)" stroke-width="2px" d="M34.359722222222224,185.82616973901168L35.921527777777776,168.49095961079001L37.483333333333334,171.42600804334506L39.04513888888889,143.4970598644577L40.60694444444444,140.9747513756156L42.168749999999996,125.79495212063193L43.730555555555554,122.58474372560158L45.29236111111111,121.20891741476953L46.854166666666664,128.5465782438405L48.41597222222222,117.86112903850153L49.97777777777778,109.10179957048966L51.53958333333333,106.21259346604346L53.101388888888884,106.94636219879611L54.66319444444444,104.0571560943499L56.225,104.0571560943499L57.78680555555555,103.231676206924L59.34861111111111,102.49790747417136L60.91041666666667,95.4354066075757L62.47222222222222,99.9755724868737L64.03402777777778,93.92202681396155L65.59583333333333,99.1959614260122L67.1576388888889,94.3347667576745L68.71944444444445,94.8850866826251L70.28125,90.6200807658024L71.84305555555555,92.68378048436715L73.40486111111112,91.3538230000995L74.96666666666667,89.56528324401005L76.52847222222222,88.46464339410886L78.09027777777779,83.97031984291971L79.65208333333334,81.17282489314675L81.21388888888887,83.55757989920676L82.77569444444444,103.5068361693993L84.33749999999999,83.8785821897909L85.89930555555556,87.36397704575211L87.46111111111111,111.57823923276736L89.02291666666666,82.7779423398897L90.58472222222223,87.77671698946506L92.14652777777778,89.4735720893368L93.70833333333333,78.42122526839375L95.2701388888889,81.53972250875086L96.83194444444445,81.17282489314675L98.39375,89.9321543611586L99.95555555555556,84.97924853814766L101.51736111111111,78.69638523086905L103.07916666666667,75.0734103936702L104.64097222222223,82.86967999301851L106.20277777777777,74.66067044995725L107.76458333333333,75.16512154834345L109.32638888888889,77.8708788449876L110.88819444444444,84.61235092254356L112.45,78.42122526839375L114.01180555555555,73.8351640640758L115.5736111111111,73.6517417547293L117.13541666666667,78.28361878870055L118.69722222222222,75.3485703561455L120.25902777777777,74.7065127780661L121.82083333333334,73.46829294692725L123.38263888888889,74.84409275930375L124.94444444444444,69.11154937697574L126.50625000000001,69.9370557628572L128.06805555555556,96.44433530280365L129.62986111111113,72.36765309702605L131.19166666666666,69.5701581472531L132.75347222222223,69.43257816601545L134.3152777777778,69.75360695505515L135.87708333333333,73.69758408283815L137.4388888888889,70.07463574409485L139.00069444444446,75.8988902810961L140.5625,74.66067044995725L142.12430555555554,70.4415068612434L143.6861111111111,70.8084044768475L145.24791666666667,68.37780714267865L146.80972222222223,66.1765009444207L148.37152777777777,68.7446782598272L149.93333333333334,75.1192792202346L151.49513888888887,70.25805805344135L153.05694444444444,72.87210419541225L154.61875,67.09369198651984L156.18055555555557,69.15741820354015L157.7423611111111,70.2122157253325L159.30416666666667,65.80960332881659L160.8659722222222,71.3128555752337L162.42777777777775,66.86440085060894L163.98958333333334,66.58924088813365L165.55138888888888,69.38670933945104L167.11319444444445,66.9561120052822L168.67499999999998,70.7625356502831L170.23680555555555,67.8733295458369L171.79861111111111,68.4695182973519L173.36041666666668,66.9561120052822L174.92222222222222,65.39686338510364L176.48402777777778,66.86440085060894L178.04583333333332,64.34209236176684L179.60763888888889,70.1204780722037L181.16944444444445,64.1586435539648L182.73125000000002,63.470743647776544L184.29305555555555,68.92812706762925L185.85486111111112,68.01090952707455L187.41666666666666,65.94718331005424L188.97847222222225,71.3128555752337L190.5402777777778,67.18542963964865L192.10208333333333,63.37900599464774L193.6638888888889,69.3408670113422L195.22569444444443,69.9370557628572L196.7875,64.84654346015304L198.34930555555556,66.4057920803316L199.91111111111113,64.7089634789154L201.47291666666666,66.26821209909394L203.03472222222223,65.21344107575715L204.59652777777777,68.83638941450045L206.15833333333333,66.7726896959357L207.7201388888889,64.4338035164401L209.28194444444446,72.6886553876102L210.84375,67.644038409926L212.40555555555554,66.08476329129189L213.9673611111111,60.94840866047889L215.52916666666667,62.920423722825944L217.09097222222223,61.86562620103359L218.65277777777777,66.91026967717335L220.21458333333334,66.63510971469805L221.77638888888887,65.259283403866L223.33819444444444,64.7548323054798L224.9,64.2045123805292L226.46180555555557,65.39686338510364L228.0236111111111,65.855472155381L229.58541666666667,60.03121761837974L231.1472222222222,64.4796723430045L232.70902777777775,63.10384603217244L234.27083333333334,67.09369198651984L235.83263888888888,61.59046623855829L237.39444444444445,61.72804621979594L238.95624999999998,63.97519474616274L240.51805555555555,64.9841234413907L242.07986111111111,67.18542963964865L243.64166666666668,61.68217739323154L245.20347222222222,66.81853202404454L246.76527777777778,63.745903610251844L248.32708333333332,69.9370557628572L249.88888888888889,60.99427748704329L251.45069444444445,63.608323629014194L253.01250000000002,63.83761476492509L254.57430555555555,64.06693239929155L256.1361111111111,62.59939493378624L257.69791666666663,71.5421467111446L259.25972222222225,60.12292877305299L260.82152777777776,65.0299922679551L262.3833333333333,63.24142601341009L263.9451388888889,64.7089634789154" fill="none"></path></g></g></g></g></g></g><g transform="translate(48, 177)" clip-path="url(#clip_1)"><clipPath id="clip_1"><rect width="281" height="22"></rect></clipPath><g><g><line x1="0" y1="0" x2="0" y2="5" style="visibility: inherit;" fill="rgb(0, 0, 0)" stroke="rgb(204, 204, 204)" stroke-width="1px"></line><line x1="31.23611111111111" y1="0" x2="31.23611111111111" y2="5" style="visibility: inherit;" fill="rgb(0, 0, 0)" stroke="rgb(204, 204, 204)" stroke-width="1px"></line><line x1="62.47222222222222" y1="0" x2="62.47222222222222" y2="5" style="visibility: inherit;" fill="rgb(0, 0, 0)" stroke="rgb(204, 204, 204)" stroke-width="1px"></line><line x1="93.70833333333333" y1="0" x2="93.70833333333333" y2="5" style="visibility: inherit;" fill="rgb(0, 0, 0)" stroke="rgb(204, 204, 204)" stroke-width="1px"></line><line x1="124.94444444444444" y1="0" x2="124.94444444444444" y2="5" style="visibility: inherit;" fill="rgb(0, 0, 0)" stroke="rgb(204, 204, 204)" stroke-width="1px"></line><line x1="156.18055555555557" y1="0" x2="156.18055555555557" y2="5" style="visibility: inherit;" fill="rgb(0, 0, 0)" stroke="rgb(204, 204, 204)" stroke-width="1px"></line><line x1="187.41666666666666" y1="0" x2="187.41666666666666" y2="5" style="visibility: inherit;" fill="rgb(0, 0, 0)" stroke="rgb(204, 204, 204)" stroke-width="1px"></line><line x1="218.65277777777777" y1="0" x2="218.65277777777777" y2="5" style="visibility: inherit;" fill="rgb(0, 0, 0)" stroke="rgb(204, 204, 204)" stroke-width="1px"></line><line x1="249.88888888888889" y1="0" x2="249.88888888888889" y2="5" style="visibility: inherit;" fill="rgb(0, 0, 0)" stroke="rgb(204, 204, 204)" stroke-width="1px"></line><line x1="281.125" y1="0" x2="281.125" y2="5" style="visibility: inherit;" fill="rgb(0, 0, 0)" stroke="rgb(204, 204, 204)" stroke-width="1px"></line></g><g transform="translate(0, 8)"><text style="text-anchor: middle; visibility: hidden; font-family: &quot;Helvetica Neue&quot;, sans-serif; font-size: 12px; font-weight: 200;" x="0" y="0" dx="0em" dy="0.95em" fill="rgb(50, 49, 63)" stroke="none" stroke-width="1px">-20</text><text style="text-anchor: middle; visibility: inherit; font-family: &quot;Helvetica Neue&quot;, sans-serif; font-size: 12px; font-weight: 200;" x="31.23611111111111" y="0" dx="0em" dy="0.95em" fill="rgb(50, 49, 63)" stroke="none" stroke-width="1px">0</text><text style="text-anchor: middle; visibility: inherit; font-family: &quot;Helvetica Neue&quot;, sans-serif; font-size: 12px; font-weight: 200;" x="62.47222222222222" y="0" dx="0em" dy="0.95em" fill="rgb(50, 49, 63)" stroke="none" stroke-width="1px">20</text><text style="text-anchor: middle; visibility: inherit; font-family: &quot;Helvetica Neue&quot;, sans-serif; font-size: 12px; font-weight: 200;" x="93.70833333333333" y="0" dx="0em" dy="0.95em" fill="rgb(50, 49, 63)" stroke="none" stroke-width="1px">40</text><text style="text-anchor: middle; visibility: inherit; font-family: &quot;Helvetica Neue&quot;, sans-serif; font-size: 12px; font-weight: 200;" x="124.94444444444444" y="0" dx="0em" dy="0.95em" fill="rgb(50, 49, 63)" stroke="none" stroke-width="1px">60</text><text style="text-anchor: middle; visibility: inherit; font-family: &quot;Helvetica Neue&quot;, sans-serif; font-size: 12px; font-weight: 200;" x="156.18055555555557" y="0" dx="0em" dy="0.95em" fill="rgb(50, 49, 63)" stroke="none" stroke-width="1px">80</text><text style="text-anchor: middle; visibility: inherit; font-family: &quot;Helvetica Neue&quot;, sans-serif; font-size: 12px; font-weight: 200;" x="187.41666666666666" y="0" dx="0em" dy="0.95em" fill="rgb(50, 49, 63)" stroke="none" stroke-width="1px">100</text><text style="text-anchor: middle; visibility: inherit; font-family: &quot;Helvetica Neue&quot;, sans-serif; font-size: 12px; font-weight: 200;" x="218.65277777777777" y="0" dx="0em" dy="0.95em" fill="rgb(50, 49, 63)" stroke="none" stroke-width="1px">120</text><text style="text-anchor: middle; visibility: inherit; font-family: &quot;Helvetica Neue&quot;, sans-serif; font-size: 12px; font-weight: 200;" x="249.88888888888889" y="0" dx="0em" dy="0.95em" fill="rgb(50, 49, 63)" stroke="none" stroke-width="1px">140</text><text style="text-anchor: middle; visibility: hidden; font-family: &quot;Helvetica Neue&quot;, sans-serif; font-size: 12px; font-weight: 200;" x="281.125" y="0" dx="0em" dy="0.95em" fill="rgb(50, 49, 63)" stroke="none" stroke-width="1px">160</text></g><line x1="0" y1="0" x2="281.125" y2="0" fill="rgb(0, 0, 0)" stroke="rgb(204, 204, 204)" stroke-width="1px"></line></g></g></g></g></svg>