<svg viewBox="0 0 330 200" xmlns="http://www.w3.org/2000/svg"><g><g><g><g><g><line x1="48.875" y1="177.828125" x2="43.875" y2="177.828125" style="visibility: inherit;" fill="rgb(0, 0, 0)" stroke="rgb(204, 204, 204)" stroke-width="1px"></line><line x1="48.875" y1="165.97291666666672" x2="43.875" y2="165.97291666666672" style="visibility: inherit;" fill="rgb(0, 0, 0)" stroke="rgb(204, 204, 204)" stroke-width="1px"></line><line x1="48.875" y1="154.11770833333338" x2="43.875" y2="154.11770833333338" style="visibility: inherit;" fill="rgb(0, 0, 0)" stroke="rgb(204, 204, 204)" stroke-width="1px"></line><line x1="48.875" y1="142.26250000000002" x2="43.875" y2="142.26250000000002" style="visibility: inherit;" fill="rgb(0, 0, 0)" stroke="rgb(204, 204, 204)" stroke-width="1px"></line><line x1="48.875" y1="130.40729166666668" x2="43.875" y2="130.40729166666668" style="visibility: inherit;" fill="rgb(0, 0, 0)" stroke="rgb(204, 204, 204)" stroke-width="1px"></line><line x1="48.875" y1="118.55208333333334" x2="43.875" y2="118.55208333333334" style="visibility: inherit;" fill="rgb(0, 0, 0)" stroke="rgb(204, 204, 204)" stroke-width="1px"></line><line x1="48.875" y1="106.69687499999999" x2="43.875" y2="106.69687499999999" style="visibility: inherit;" fill="rgb(0, 0, 0)" stroke="rgb(204, 204, 204)" stroke-width="1px"></line><line x1="48.875" y1="94.84166666666671" x2="43.875" y2="94.84166666666671" style="visibility: inherit;" fill="rgb(0, 0, 0)" stroke="rgb(204, 204, 204)" stroke-width="1px"></line><line x1="48.875" y1="82.98645833333336" x2="43.875" y2="82.98645833333336" style="visibility: inherit;" fill="rgb(0, 0, 0)" stroke="rgb(204, 204, 204)" stroke-width="1px"></line><line x1="48.875" y1="71.13125000000001" x2="43.875" y2="71.13125000000001" style="visibility: inherit;" fill="rgb(0, 0, 0)" stroke="rgb(204, 204, 204)" stroke-width="1px"></line><line x1="48.875" y1="59.27604166666667" x2="43.875" y2="59.27604166666667" style="visibility: inherit;" fill="rgb(0, 0, 0)" stroke="rgb(204, 204, 204)" stroke-width="1px"></line><line x1="48.875" y1="47.42083333333332" x2="43.875" y2="47.42083333333332" style="visibility: inherit;" fill="rgb(0, 0, 0)" stroke="rgb(204, 204, 204)" stroke-width="1px"></line><line x1="48.875" y1="35.56562499999998" x2="43.875" y2="35.56562499999998" style="visibility: inherit;" fill="rgb(0, 0, 0)" stroke="rgb(204, 204, 204)" stroke-width="1px"></line><line x1="48.875" y1="23.710416666666703" x2="43.875" y2="23.710416666666703" style="visibility: inherit;" fill="rgb(0, 0, 0)" stroke="rgb(204, 204, 204)" stroke-width="1px"></line><line x1="48.875" y1="11.855208333333337" x2="43.875" y2="11.855208333333337" style="visibility: inherit;" fill="rgb(0, 0, 0)" stroke="rgb(204, 204, 204)" stroke-width="1px"></line><line x1="48.875" y1="0" x2="43.875" y2="0" style="visibility: inherit;" fill="rgb(0, 0, 0)" stroke="rgb(204, 204, 204)" stroke-width="1px"></line></g><g transform="translate(38.875, 0)"><text style="text-anchor: end; visibility: hidden; font-family: &quot;Helvetica Neue&quot;, sans-serif; font-size: 12px; font-weight: 200;" x="0" y="177.828125" dx="0em" dy="0.3em" fill="rgb(50, 49, 63)" stroke="none" stroke-width="1px">0.68</text><text style="text-anchor: end; visibility: inherit; font-family: &quot;Helvetica Neue&quot;, sans-serif; font-size: 12px; font-weight: 200;" x="0" y="165.97291666666672" dx="0em" dy="0.3em" fill="rgb(50, 49, 63)" stroke="none" stroke-width="1px">0.7</text><text style="text-anchor: end; visibility: hidden; font-family: &quot;Helvetica Neue&quot;, sans-serif; font-size: 12px; font-weight: 200;" x="0" y="154.11770833333338" dx="0em" dy="0.3em" fill="rgb(50, 49, 63)" stroke="none" stroke-width="1px">0.72</text><text style="text-anchor: end; visibility: inherit; font-family: &quot;Helvetica Neue&quot;, sans-serif; font-size: 12px; font-weight: 200;" x="0" y="142.26250000000002" dx="0em" dy="0.3em" fill="rgb(50, 49, 63)" stroke="none" stroke-width="1px">0.74</text><text style="text-anchor: end; visibility: hidden; font-family: &quot;Helvetica Neue&quot;, sans-serif; font-size: 12px; font-weight: 200;" x="0" y="130.40729166666668" dx="0em" dy="0.3em" fill="rgb(50, 49, 63)" stroke="none" stroke-width="1px">0.76</text><text style="text-anchor: end; visibility: inherit; font-family: &quot;Helvetica Neue&quot;, sans-serif; font-size: 12px; font-weight: 200;" x="0" y="118.55208333333334" dx="0em" dy="0.3em" fill="rgb(50, 49, 63)" stroke="none" stroke-width="1px">0.78</text><text style="text-anchor: end; visibility: hidden; font-family: &quot;Helvetica Neue&quot;, sans-serif; font-size: 12px; font-weight: 200;" x="0" y="106.69687499999999" dx="0em" dy="0.3em" fill="rgb(50, 49, 63)" stroke="none" stroke-width="1px">0.8</text><text style="text-anchor: end; visibility: inherit; font-family: &quot;Helvetica Neue&quot;, sans-serif; font-size: 12px; font-weight: 200;" x="0" y="94.84166666666671" dx="0em" dy="0.3em" fill="rgb(50, 49, 63)" stroke="none" stroke-width="1px">0.82</text><text style="text-anchor: end; visibility: hidden; font-family: &quot;Helvetica Neue&quot;, sans-serif; font-size: 12px; font-weight: 200;" x="0" y="82.98645833333336" dx="0em" dy="0.3em" fill="rgb(50, 49, 63)" stroke="none" stroke-width="1px">0.84</text><text style="text-anchor: end; visibility: inherit; font-family: &quot;Helvetica Neue&quot;, sans-serif; font-size: 12px; font-weight: 200;" x="0" y="71.13125000000001" dx="0em" dy="0.3em" fill="rgb(50, 49, 63)" stroke="none" stroke-width="1px">0.86</text><text style="text-anchor: end; visibility: hidden; font-family: &quot;Helvetica Neue&quot;, sans-serif; font-size: 12px; font-weight: 200;" x="0" y="59.27604166666667" dx="0em" dy="0.3em" fill="rgb(50, 49, 63)" stroke="none" stroke-width="1px">0.88</text><text style="text-anchor: end; visibility: inherit; font-family: &quot;Helvetica Neue&quot;, sans-serif; font-size: 12px; font-weight: 200;" x="0" y="47.42083333333332" dx="0em" dy="0.3em" fill="rgb(50, 49, 63)" stroke="none" stroke-width="1px">0.9</text><text style="text-anchor: end; visibility: hidden; font-family: &quot;Helvetica Neue&quot;, sans-serif; font-size: 12px; font-weight: 200;" x="0" y="35.56562499999998" dx="0em" dy="0.3em" fill="rgb(50, 49, 63)" stroke="none" stroke-width="1px">0.92</text><text style="text-anchor: end; visibility: inherit; font-family: &quot;Helvetica Neue&quot;, sans-serif; font-size: 12px; font-weight: 200;" x="0" y="23.710416666666703" dx="0em" dy="0.3em" fill="rgb(50, 49, 63)" stroke="none" stroke-width="1px">0.94</text><text style="text-anchor: end; visibility: hidden; font-family: &quot;Helvetica Neue&quot;, sans-serif; font-size: 12px; font-weight: 200;" x="0" y="11.855208333333337" dx="0em" dy="0.3em" fill="rgb(50, 49, 63)" stroke="none" stroke-width="1px">0.96</text><text style="text-anchor: end; visibility: hidden; font-family: &quot;Helvetica Neue&quot;, sans-serif; font-size: 12px; font-weight: 200;" x="0" y="0" dx="0em" dy="0.3em" fill="rgb(50, 49, 63)" stroke="none" stroke-width="1px">0.98</text></g><line x1="48.875" y1="0" x2="48.875" y2="177.828125" fill="rgb(0, 0, 0)" stroke="rgb(204, 204, 204)" stroke-width="1px"></line></g></g><g transform="translate(48, 0)" clip-path="url(#clip_0)"><clipPath id="clip_0"><rect width="281" height="177"></rect></clipPath><g><g><g><line x1="0" y1="0" x2="0" y2="177.828125" fill="rgb(0, 0, 0)" stroke="rgb(60, 60, 60)" stroke-width="1px" opacity="0.25"></line><line x1="31.23611111111111" y1="0" x2="31.23611111111111" y2="177.828125" fill="rgb(0, 0, 0)" stroke="rgb(60, 60, 60)" stroke-width="1px" opacity="0.25"></line><line x1="62.47222222222222" y1="0" x2="62.47222222222222" y2="177.828125" fill="rgb(0, 0, 0)" stroke="rgb(60, 60, 60)" stroke-width="1px" opacity="0.25"></line><line x1="93.70833333333333" y1="0" x2="93.70833333333333" y2="177.828125" fill="rgb(0, 0, 0)" stroke="rgb(60, 60, 60)" stroke-width="1px" opacity="0.25"></line><line x1="124.94444444444444" y1="0" x2="124.94444444444444" y2="177.828125" fill="rgb(0, 0, 0)" stroke="rgb(60, 60, 60)" stroke-width="1px" opacity="0.25"></line><line x1="156.18055555555557" y1="0" x2="156.18055555555557" y2="177.828125" fill="rgb(0, 0, 0)" stroke="rgb(60, 60, 60)" stroke-width="1px" opacity="0.25"></line><line x1="187.41666666666666" y1="0" x2="187.41666666666666" y2="177.828125" fill="rgb(0, 0, 0)" stroke="rgb(60, 60, 60)" stroke-width="1px" opacity="0.25"></line><line x1="218.65277777777777" y1="0" x2="218.65277777777777" y2="177.828125" fill="rgb(0, 0, 0)" stroke="rgb(60, 60, 60)" stroke-width="1px" opacity="0.25"></line><line x1="249.88888888888889" y1="0" x2="249.88888888888889" y2="177.828125" fill="rgb(0, 0, 0)" stroke="rgb(60, 60, 60)" stroke-width="1px" opacity="0.25"></line><line x1="281.125" y1="0" x2="281.125" y2="177.828125" fill="rgb(0, 0, 0)" stroke="rgb(60, 60, 60)" stroke-width="1px" opacity="0.25"></line></g><g><line x1="0" y1="177.828125" x2="281.125" y2="177.828125" fill="rgb(0, 0, 0)" stroke="rgb(60, 60, 60)" stroke-width="1px" opacity="0.25"></line><line x1="0" y1="165.97291666666672" x2="281.125" y2="165.97291666666672" fill="rgb(0, 0, 0)" stroke="rgb(60, 60, 60)" stroke-width="1px" opacity="0.25"></line><line x1="0" y1="154.11770833333338" x2="281.125" y2="154.11770833333338" fill="rgb(0, 0, 0)" stroke="rgb(60, 60, 60)" stroke-width="1px" opacity="0.25"></line><line x1="0" y1="142.26250000000002" x2="281.125" y2="142.26250000000002" fill="rgb(0, 0, 0)" stroke="rgb(60, 60, 60)" stroke-width="1px" opacity="0.25"></line><line x1="0" y1="130.40729166666668" x2="281.125" y2="130.40729166666668" fill="rgb(0, 0, 0)" stroke="rgb(60, 60, 60)" stroke-width="1px" opacity="0.25"></line><line x1="0" y1="118.55208333333334" x2="281.125" y2="118.55208333333334" fill="rgb(0, 0, 0)" stroke="rgb(60, 60, 60)" stroke-width="1px" opacity="0.25"></line><line x1="0" y1="106.69687499999999" x2="281.125" y2="106.69687499999999" fill="rgb(0, 0, 0)" stroke="rgb(60, 60, 60)" stroke-width="1px" opacity="0.25"></line><line x1="0" y1="94.84166666666671" x2="281.125" y2="94.84166666666671" fill="rgb(0, 0, 0)" stroke="rgb(60, 60, 60)" stroke-width="1px" opacity="0.25"></line><line x1="0" y1="82.98645833333336" x2="281.125" y2="82.98645833333336" fill="rgb(0, 0, 0)" stroke="rgb(60, 60, 60)" stroke-width="1px" opacity="0.25"></line><line x1="0" y1="71.13125000000001" x2="281.125" y2="71.13125000000001" fill="rgb(0, 0, 0)" stroke="rgb(60, 60, 60)" stroke-width="1px" opacity="0.25"></line><line x1="0" y1="59.27604166666667" x2="281.125" y2="59.27604166666667" fill="rgb(0, 0, 0)" stroke="rgb(60, 60, 60)" stroke-width="1px" opacity="0.25"></line><line x1="0" y1="47.42083333333332" x2="281.125" y2="47.42083333333332" fill="rgb(0, 0, 0)" stroke="rgb(60, 60, 60)" stroke-width="1px" opacity="0.25"></line><line x1="0" y1="35.56562499999998" x2="281.125" y2="35.56562499999998" fill="rgb(0, 0, 0)" stroke="rgb(60, 60, 60)" stroke-width="1px" opacity="0.25"></line><line x1="0" y1="23.710416666666703" x2="281.125" y2="23.710416666666703" fill="rgb(0, 0, 0)" stroke="rgb(60, 60, 60)" stroke-width="1px" opacity="0.25"></line><line x1="0" y1="11.855208333333337" x2="281.125" y2="11.855208333333337" fill="rgb(0, 0, 0)" stroke="rgb(60, 60, 60)" stroke-width="1px" opacity="0.25"></line><line x1="0" y1="0" x2="281.125" y2="0" fill="rgb(0, 0, 0)" stroke="rgb(60, 60, 60)" stroke-width="1px" opacity="0.25"></line></g></g></g><g><g><line x1="0" y1="580.9052083333335" x2="281.125" y2="580.9052083333335" fill="rgb(0, 0, 0)" stroke="rgb(153, 153, 153)" stroke-width="1.5px"></line></g></g><g><g><line x1="31.23611111111111" y1="0" x2="31.23611111111111" y2="177.828125" fill="rgb(0, 0, 0)" stroke="rgb(153, 153, 153)" stroke-width="1.5px"></line></g></g><g><g><g><g><g><path style="fill: none;" stroke="rgb(0, 119, 187)" stroke-width="2px" d="M39.04513888888889,182.3660754724585L40.60694444444444,165.28328188809672L42.168749999999996,152.75329575499634L43.730555555555554,142.24765153394242L45.29236111111111,134.4426440689659L46.854166666666664,128.5164602204262L48.41597222222222,122.50104005737724L49.97777777777778,117.616726741918L51.53958333333333,112.92738137086974L53.101388888888884,108.4286610571168L54.66319444444444,105.06520841429968L56.225,101.68063060080596L57.78680555555555,99.61929726365815L59.34861111111111,97.06983896717642L60.91041666666667,94.44929271590277L62.47222222222222,91.61328368456199L64.03402777777778,88.8878325486985L65.59583333333333,86.70842237781952L67.1576388888889,84.34337377730444L68.71944444444445,82.83151506948725L70.28125,81.02690190821954L71.84305555555555,78.68815030036708L73.40486111111112,77.36486265620262L74.96666666666667,75.4619121505903L76.52847222222222,73.50001844837746L78.09027777777779,72.27902932143742L79.65208333333334,79.12358158951716L81.21388888888887,79.83117535597819L82.77569444444444,79.93076865851174L84.33749999999999,80.73070071023541L85.89930555555556,78.35828135213114L87.46111111111111,76.66918096779041L89.02291666666666,74.09542101250022L90.58472222222223,74.03151716735195L92.14652777777778,72.83778566660588L93.70833333333333,71.88168981356493L95.2701388888889,69.45371984543625L96.83194444444445,67.67456118806822L98.39375,67.79599163173528L99.95555555555556,66.68766887552279L101.51736111111111,65.60228959042065L103.07916666666667,64.6957441004368L104.64097222222223,62.48577764380498L106.20277777777777,61.63948341168927L107.76458333333333,60.09237384928788L109.32638888888889,58.831414702678785L110.88819444444444,58.2527957759652L112.45,57.00296689742696L114.01180555555555,55.37877599462041L115.5736111111111,55.845932892695444L117.13541666666667,55.32157846330698L118.69722222222222,55.01469628844117L120.25902777777777,53.902131763448935L121.82083333333334,52.48925862313342L123.38263888888889,50.60475970005601L124.94444444444444,50.6346220369376L126.50625000000001,49.99231098673167L128.06805555555556,48.740375396200534L129.62986111111113,49.833209765755214L131.19166666666666,48.730020636600074L132.75347222222223,48.024268114238026L134.3152777777778,47.31454848577724L135.87708333333333,46.850021897336745L137.4388888888889,46.18188464144717L139.00069444444446,45.20072144254948L140.5625,44.60429304044382L142.12430555555554,44.38053938304944L143.6861111111111,44.17665631367103L145.24791666666667,43.020137682418095L146.80972222222223,42.17922013850614L148.37152777777777,40.9344935528533L149.93333333333334,41.87433022814565L151.49513888888887,41.6542171291465L153.05694444444444,40.95477140567425L154.61875,41.40422504875096L156.18055555555557,39.749953903752754L157.7423611111111,39.74256846298667L159.30416666666667,38.943805362323275L160.8659722222222,38.32012738602717L162.42777777777775,38.81504167740957L163.98958333333334,38.75093289623908L165.55138888888888,38.09091985405635L167.11319444444445,37.34674352152834L168.67499999999998,38.47344042888497L170.23680555555555,37.07335051127998L171.79861111111111,37.11790686843037L173.36041666666668,35.917020233803385L174.92222222222222,35.34092250143493L176.48402777777778,34.81473518401384L178.04583333333332,34.640856660197215L179.60763888888889,35.08070182916927L181.16944444444445,35.666985607698024L182.73125000000002,35.92849153581528L184.29305555555555,35.912611029962335L185.85486111111112,35.29185168499927L187.41666666666666,34.14311145661381L188.97847222222225,33.35585836530589L190.5402777777778,34.14723552154024L192.10208333333333,34.76905404793135L193.6638888888889,34.55413383563507L195.22569444444443,34.70887770654849L196.7875,33.35232210657253L198.34930555555556,33.214078164455856L199.91111111111113,32.87324176347707L201.47291666666666,31.928563863584117L203.03472222222223,32.24119493283746L204.59652777777777,32.57062157353508L206.15833333333333,32.43299789951692L207.7201388888889,32.32979023104778L209.28194444444446,32.26272139646133L210.84375,32.02389007040375L212.40555555555554,32.23133189873994L213.9673611111111,31.404142062348683L215.52916666666667,30.54418455525189L217.09097222222223,30.667805039270434L218.65277777777777,30.334494679550573L220.21458333333334,29.337604510762418L221.77638888888887,30.212077912824185L223.33819444444444,29.98111079671196L224.9,29.73421897324846L226.46180555555557,29.916191039082975L228.0236111111111,30.695919462947614L229.58541666666667,32.00451364760116L231.1472222222222,30.117820285476313L232.70902777777775,29.762074757099356L234.27083333333334,29.97674355426244L235.83263888888888,29.566530915312853L237.39444444444445,29.018660118855763L238.95624999999998,28.942683443185302L240.51805555555555,28.977045044753908L242.07986111111111,29.399986289811523L243.64166666666668,28.32814989867154L245.20347222222222,28.861070720249444L246.76527777777778,28.897127214905083L248.32708333333332,29.318513279062387L249.88888888888889,29.071011679163632L251.45069444444445,29.244887396370018L253.01250000000002,28.062292367373715L254.57430555555555,27.35789371599043L256.1361111111111,29.38789504122309L257.69791666666663,29.31123076176587L259.25972222222225,29.058911686018718L260.82152777777776,28.861094946439437L262.3833333333333,28.855888955012205L263.9451388888889,28.43237972873365" fill="none"></path></g><g><path style="fill: none;" stroke="rgb(255, 112, 67)" stroke-width="2px" d="M39.04513888888889,187.17414411019936L40.60694444444444,171.05216081635163L42.168749999999996,161.71996340483327L43.730555555555554,152.65828386858885L45.29236111111111,148.21408921034393L46.854166666666664,144.84272749477537L48.41597222222222,139.75746912606334L49.97777777777778,137.3641129063687L51.53958333333333,131.7956461667347L53.101388888888884,128.5502403200224L54.66319444444444,125.81463406835226L56.225,124.54517300759952L57.78680555555555,123.80684184442813L59.34861111111111,124.9190000688319L60.91041666666667,122.38328386602275L62.47222222222222,118.30884787399077L64.03402777777778,118.37086078101336L65.59583333333333,117.20118454693393L67.1576388888889,118.84352693294915L68.71944444444445,116.97419472043308L70.28125,113.06750037080856L71.84305555555555,111.99999413228173L73.40486111111112,109.36349899775911L74.96666666666667,109.12773912390013L76.52847222222222,109.56650769877764L78.09027777777779,110.71170816200176L79.65208333333334,111.02748249015343L81.21388888888887,109.36021786724875L82.77569444444444,110.07734069134274L84.33749999999999,107.79215152833692L85.89930555555556,109.69351962157548L87.46111111111111,106.05327003038228L89.02291666666666,103.03359218520997L90.58472222222223,104.30859411280147L92.14652777777778,104.42374007640252L93.70833333333333,107.18508487344508L95.2701388888889,105.12843351836798L96.83194444444445,104.01048474255195L98.39375,101.59902839848138L99.95555555555556,105.25815965922203L101.51736111111111,101.09434826223834L103.07916666666667,100.03501942217632L104.64097222222223,103.04324947340258L106.20277777777777,100.32242088548435L107.76458333333333,99.98963411330162L109.32638888888889,98.81517219833357L110.88819444444444,99.94401858359996L112.45,97.00070464040573L114.01180555555555,98.20548285857413L115.5736111111111,96.44497106496722L117.13541666666667,99.3806315861607L118.69722222222222,102.53457473516325L120.25902777777777,100.08684691751877L121.82083333333334,96.39013528887331L123.38263888888889,100.6242349202271L124.94444444444444,96.29479697335765L126.50625000000001,92.74556406690084L128.06805555555556,92.72805722452249L129.62986111111113,91.99806705388654L131.19166666666666,92.65090483972372L132.75347222222223,92.04461207875968L134.3152777777778,91.79687845874444L135.87708333333333,91.25368688291482L137.4388888888889,91.7168747450581L139.00069444444446,90.74150237594073L140.5625,92.94137262704386L142.12430555555554,93.33293022018128L143.6861111111111,90.96844401499497L145.24791666666667,89.71221962257746L146.80972222222223,89.02811586206867L148.37152777777777,89.847733111356L149.93333333333334,89.41113890340388L151.49513888888887,89.31164970932677L153.05694444444444,88.74134861998725L154.61875,89.86134567761201L156.18055555555557,87.4929464531667L157.7423611111111,87.23236968165997L159.30416666666667,86.54221046505192L160.8659722222222,86.15132051589778L162.42777777777775,87.10045489037651L163.98958333333334,86.30059425958763L165.55138888888888,87.83987432685757L167.11319444444445,86.58177859078206L168.67499999999998,85.68767353176287L170.23680555555555,87.91309858811418L171.79861111111111,87.78617591069649L173.36041666666668,85.34268561630358L174.92222222222222,85.19952153352247L176.48402777777778,85.55458564929575L178.04583333333332,87.8332458586339L179.60763888888889,87.50616606737238L181.16944444444445,86.45118451003273L182.73125000000002,85.74856470068714L184.29305555555555,85.48946014577396L185.85486111111112,86.03027789722434L187.41666666666666,83.50004400057924L188.97847222222225,85.88103480419515L190.5402777777778,86.79902171347146L192.10208333333333,86.32861284576022L193.6638888888889,85.53577408474976L195.22569444444443,84.47984651281814L196.7875,86.37607985578606L198.34930555555556,88.23330592677566L199.91111111111113,87.42128157937869L201.47291666666666,86.21458090573162L203.03472222222223,85.93153719949487L204.59652777777777,86.29552412945688L206.15833333333333,85.09814973782694L207.7201388888889,85.88832810820853L209.28194444444446,85.57331819028681L210.84375,84.78088234339768L212.40555555555554,84.86243956977889L213.9673611111111,85.65406555162727L215.52916666666667,87.01098040412978L217.09097222222223,88.75349387315582L218.65277777777777,85.45889411501689L220.21458333333334,84.57296614835225L221.77638888888887,85.17865241819361L223.33819444444444,86.14550820874412L224.9,84.1494065028165L226.46180555555557,84.43712877129916L228.0236111111111,85.14357528609278L229.58541666666667,83.91959257223554L231.1472222222222,84.99552089734881L232.70902777777775,83.9235963947416L234.27083333333334,84.51052119876985L235.83263888888888,84.58416671392949L237.39444444444445,82.86446136372862L238.95624999999998,84.43205891467679L240.51805555555555,86.16173438539634L242.07986111111111,85.71415637578883L243.64166666666668,85.7473245180924L245.20347222222222,84.4675150229402L246.76527777777778,81.81969462998917L248.32708333333332,82.27340442077247L249.88888888888889,82.15107889142195L251.45069444444445,81.61350129504935L253.01250000000002,79.80557144518657L254.57430555555555,82.06292594235724L256.1361111111111,85.04196955007264L257.69791666666663,83.48728330761365L259.25972222222225,82.97224267927908L260.82152777777776,90.46146645297472L262.3833333333333,86.97107965499083L263.9451388888889,84.38944558411787" fill="none"></path></g></g></g></g><g opacity="0.20000000298023224"><g><g><g><path style="fill: none;" stroke="rgb(0, 119, 187)" stroke-width="2px" d="M35.921527777777776,184.07889443784956L37.483333333333334,163.5692664952328L39.04513888888889,151.7251634879659L40.60694444444444,140.854613737762L42.168749999999996,134.48445568506918L43.730555555555554,126.75386692422134L45.29236111111111,122.85311761026583L46.854166666666664,119.68093449895582L48.41597222222222,113.51064546369018L49.97777777777778,110.30620489915214L51.53958333333333,105.90255023005109L53.101388888888884,101.68586866334083L54.66319444444444,100.02240161746742L56.225,96.6051961204658L57.78680555555555,96.5278206302474L59.34861111111111,93.24603990676503L60.91041666666667,90.51871286729973L62.47222222222222,87.35942567102613L64.03402777777778,84.79974552703402L65.59583333333333,83.43935015015306L67.1576388888889,80.79582889278731L68.71944444444445,80.56373775340619L70.28125,78.31998986216882L71.84305555555555,75.18002887281278L73.40486111111112,75.37993322151402L74.96666666666667,72.60748814505837L76.52847222222222,70.55717897936701L78.09027777777779,70.4475460359206L79.65208333333334,89.3904086297999L81.21388888888887,80.89256592119733L82.77569444444444,80.08015860517821L84.33749999999999,81.93059875344238L85.89930555555556,74.7996523761501L87.46111111111111,74.13553041741254L89.02291666666666,70.23478110345701L90.58472222222223,73.93566139998535L92.14652777777778,71.04718841947614L93.70833333333333,70.4475460359206L95.2701388888889,65.81176489616433L96.83194444444445,65.00582320330045L98.39375,67.97813729718327L99.95555555555556,65.02518474149207L101.51736111111111,63.97422066293656L103.07916666666667,63.33592586554586L104.64097222222223,59.17082795898119L106.20277777777777,60.37004206354419L107.76458333333333,57.771709505716956L109.32638888888889,56.939975982780254L110.88819444444444,57.38486738589904L112.45,55.128223579625285L114.01180555555555,52.942489640414706L115.5736111111111,56.546668239807104L117.13541666666667,54.535046819224945L118.69722222222222,54.554373026142514L120.25902777777777,52.23328497596084L121.82083333333334,50.36994891266028L123.38263888888889,47.77801131544015L124.94444444444444,50.679415542259804L126.50625000000001,49.028844411422824L128.06805555555556,46.86247201040388L129.62986111111113,51.472461320087305L131.19166666666666,47.075236942867434L132.75347222222223,46.96563933069507L134.3152777777778,46.24996904308597L135.87708333333333,46.15323201467595L137.4388888888889,45.17967875761292L139.00069444444446,43.72897664420307L140.5625,43.70965043728549L142.12430555555554,44.04490889695782L143.6861111111111,43.870831709603465L145.24791666666667,41.28535973553855L146.80972222222223,40.91784382263819L148.37152777777777,39.06740367437402L149.93333333333334,43.284085241084284L151.49513888888887,41.32404748064775L153.05694444444444,39.90560282046596L154.61875,42.07840551336605L156.18055555555557,37.26854718625546L157.7423611111111,39.73149030183751L159.30416666666667,37.745660711328185L160.8659722222222,37.38461042158306L162.42777777777775,39.557413114483154L163.98958333333334,38.65476972448329L165.55138888888888,37.10090029078225L167.11319444444445,36.23047902273635L168.67499999999998,40.16348578991989L170.23680555555555,34.9732156348725L171.79861111111111,37.184741404155886L173.36041666666668,34.11569028186301L174.92222222222222,34.476775902882224L176.48402777777778,34.02545420788229L178.04583333333332,34.38003887447218L179.60763888888889,35.74046958262721L181.16944444444445,36.546411275491124L182.73125000000002,36.32075042799116L184.29305555555555,35.88879027118284L185.85486111111112,34.36071266755462L187.41666666666666,32.42000111403564L188.97847222222225,32.17497872834403L190.5402777777778,35.33430125589172L192.10208333333333,35.70178183751801L193.6638888888889,34.23175351719061L195.22569444444443,34.94099351291854L196.7875,31.3174887066086L198.34930555555556,33.00671225128073L199.91111111111113,32.36198716200889L201.47291666666666,30.511547013744718L203.03472222222223,32.7101415367176L204.59652777777777,33.06476153458158L206.15833333333333,32.22656238848964L207.7201388888889,32.17497872834403L209.28194444444446,32.16211814458171L210.84375,31.66564308131734L212.40555555555554,32.54249464124442L213.9673611111111,30.163357307761913L215.52916666666667,29.25424829460681L217.09097222222223,30.853235765298194L218.65277777777777,29.834529139970726L220.21458333333334,27.842269257580227L221.77638888888887,31.52378801591695L223.33819444444444,29.63466012254358L224.9,29.36388123805324L226.46180555555557,30.189149137834704L228.0236111111111,31.865512098744517L229.58541666666667,33.967404924581444L231.1472222222222,27.287780242289102L232.70902777777775,29.22845646453399L234.27083333333334,30.29874675000707L235.83263888888888,28.951211956888443L237.39444444444445,28.196853924170142L238.95624999999998,28.828718429679668L240.51805555555555,29.028587447106844L242.07986111111111,30.034398157397902L243.64166666666668,26.720395311961568L245.20347222222222,29.66045195261637L246.76527777777778,28.951211956888443L248.32708333333332,29.950592375298328L249.88888888888889,28.699759279315657L251.45069444444445,29.505700972179568L253.01250000000002,26.28839982387919L254.57430555555555,26.3012957389156L256.1361111111111,32.43289702907205L257.69791666666663,29.196234342580027L259.25972222222225,28.680433072398102L260.82152777777776,28.5643698370705L262.3833333333333,28.848079967871314L263.9451388888889,27.79711588931579" fill="none"></path></g><g><path style="fill: none;" stroke="rgb(255, 112, 67)" stroke-width="2px" d="M35.921527777777776,188.55536686281366L37.483333333333334,170.56832122641308L39.04513888888889,171.96086806269986L40.60694444444444,147.99746675441665L42.168749999999996,148.11352998974425L43.730555555555554,139.2940666932613L45.29236111111111,141.6149780870726L46.854166666666664,139.8162629240503L48.41597222222222,132.157255324473L49.97777777777778,133.78189330014092L51.53958333333333,123.45385526331764L53.101388888888884,123.68594640269876L54.66319444444444,121.71315405232212L56.225,122.64151860984664L57.78680555555555,122.69953256187341L59.34861111111111,126.58706797932587L60.91041666666667,118.5799413363139L62.47222222222222,112.19741733769577L64.03402777777778,118.46387810098629L65.59583333333333,115.4466932890316L67.1576388888889,121.30702105686069L68.71944444444445,114.17020968807242L70.28125,107.2074755066385L71.84305555555555,110.39873750594757L73.40486111111112,105.40876034361622L74.96666666666667,108.77409953027966L76.52847222222222,110.2246603185932L78.09027777777779,112.42950847707691L79.65208333333334,111.50114391955238L81.21388888888887,106.85932113192978L82.77569444444444,111.15302487611773L84.33749999999999,104.36436788203817L85.89930555555556,112.54557171240451L87.46111111111111,100.59289569991331L89.02291666666666,98.50407544548314L90.58472222222223,106.22109699708722L92.14652777777778,104.5964590214193L93.70833333333333,111.32710206347208L95.2701388888889,102.04345648822687L96.83194444444445,102.33356157963476L98.39375,97.98184388342004L99.95555555555556,110.74685654938223L101.51736111111111,94.84863116741181L103.07916666666667,98.4460261621823L104.64097222222223,107.55559455007317L106.20277777777777,96.2411780036986L107.76458333333333,99.49045395503443L109.32638888888889,97.05347932589552L110.88819444444444,101.63728816149137L112.45,92.58573372562728L114.01180555555555,100.01265018582346L115.5736111111111,93.80420337455969L117.13541666666667,103.78412236794831L118.69722222222222,107.26548945866527L120.25902777777777,96.41525519105296L121.82083333333334,90.84506784590583L123.38263888888889,106.97538436725738L124.94444444444444,89.80064005305371L126.50625000000001,87.42171470721564L128.06805555555556,92.70179696095488L129.62986111111113,90.9030817979326L131.19166666666666,93.6301615184794L132.75347222222223,91.13517293731373L134.3152777777778,91.42527802872162L135.87708333333333,90.43889951917033L137.4388888888889,92.41165653827291L139.00069444444446,89.27844382226468L140.5625,96.2411780036986L142.12430555555554,93.92026660988729L143.6861111111111,87.42171470721564L145.24791666666667,87.82788303395114L146.80972222222223,88.00196022130551L148.37152777777777,91.07715898528696L149.93333333333334,88.75624759147564L151.49513888888887,89.16241591821115L153.05694444444444,87.88589698597791L154.61875,91.54134126404922L156.18055555555557,83.94034761649868L157.7423611111111,86.84150452439985L159.30416666666667,85.50697164013984L160.8659722222222,85.56498559216658L162.42777777777775,88.52415645209453L163.98958333333334,85.10080331340434L165.55138888888888,90.14879442776244L167.11319444444445,84.69463498666885L168.67499999999998,84.34651594323418L170.23680555555555,91.25123617264133L171.79861111111111,87.59579189457001L173.36041666666668,81.67745017471412L174.92222222222222,84.98477540935079L176.48402777777778,86.08718182295563L178.04583333333332,91.25123617264133L179.60763888888889,87.01554638048015L181.16944444444445,84.86871217402319L182.73125000000002,84.69463498666885L184.29305555555555,85.10080331340434L185.85486111111112,86.84150452439985L187.41666666666666,79.70469315561155L188.97847222222225,89.45252100961905L190.5402777777778,88.1760020773858L192.10208333333333,85.62299954419336L193.6638888888889,84.34651594323418L195.22569444444443,82.89595515492061L196.7875,89.22042987023792L198.34930555555556,91.0191450332602L199.91111111111113,86.20324505828323L201.47291666666666,84.40452989526095L203.03472222222223,85.50697164013984L204.59652777777777,86.84150452439985L206.15833333333333,83.30208815038206L207.7201388888889,87.07359566378096L209.28194444444446,85.10080331340434L210.84375,83.592228573064L212.40555555555554,84.98477540935079L213.9673611111111,86.84150452439985L215.52916666666667,89.04635268288355L217.09097222222223,91.36726407669485L218.65277777777777,80.5169944778085L220.21458333333334,83.24407419835529L221.77638888888887,86.08718182295563L223.33819444444444,87.59579189457001L224.9,81.15525394392512L226.46180555555557,84.86871217402319L228.0236111111111,86.20324505828323L229.58541666666667,82.08361850144962L231.1472222222222,86.60941338501873L232.70902777777775,82.31570964083078L234.27083333333334,85.39090840481224L235.83263888888888,84.69463498666885L237.39444444444445,80.28490333842734L238.95624999999998,86.78345524109902L240.51805555555555,88.75624759147564L242.07986111111111,85.04278936137757L243.64166666666668,85.79707673154773L245.20347222222222,82.5478007802119L246.76527777777778,77.84796404056253L248.32708333333332,82.9539691069474L249.88888888888889,81.96759059739611L251.45069444444445,80.80713490049044L253.01250000000002,77.09367667039237L254.57430555555555,85.44895768811307L256.1361111111111,89.51053496164582L257.69791666666663,81.15525394392512L259.25972222222225,82.19968173677722L260.82152777777776,101.69530211351814L262.3833333333333,81.73549945801498L263.9451388888889,80.5169944778085" fill="none"></path></g></g></g></g></g></g><g transform="translate(48, 177)" clip-path="url(#clip_1)"><clipPath id="clip_1"><rect width="281" height="22"></rect></clipPath><g><g><line x1="0" y1="0" x2="0" y2="5" style="visibility: inherit;" fill="rgb(0, 0, 0)" stroke="rgb(204, 204, 204)" stroke-width="1px"></line><line x1="31.23611111111111" y1="0" x2="31.23611111111111" y2="5" style="visibility: inherit;" fill="rgb(0, 0, 0)" stroke="rgb(204, 204, 204)" stroke-width="1px"></line><line x1="62.47222222222222" y1="0" x2="62.47222222222222" y2="5" style="visibility: inherit;" fill="rgb(0, 0, 0)" stroke="rgb(204, 204, 204)" stroke-width="1px"></line><line x1="93.70833333333333" y1="0" x2="93.70833333333333" y2="5" style="visibility: inherit;" fill="rgb(0, 0, 0)" stroke="rgb(204, 204, 204)" stroke-width="1px"></line><line x1="124.94444444444444" y1="0" x2="124.94444444444444" y2="5" style="visibility: inherit;" fill="rgb(0, 0, 0)" stroke="rgb(204, 204, 204)" stroke-width="1px"></line><line x1="156.18055555555557" y1="0" x2="156.18055555555557" y2="5" style="visibility: inherit;" fill="rgb(0, 0, 0)" stroke="rgb(204, 204, 204)" stroke-width="1px"></line><line x1="187.41666666666666" y1="0" x2="187.41666666666666" y2="5" style="visibility: inherit;" fill="rgb(0, 0, 0)" stroke="rgb(204, 204, 204)" stroke-width="1px"></line><line x1="218.65277777777777" y1="0" x2="218.65277777777777" y2="5" style="visibility: inherit;" fill="rgb(0, 0, 0)" stroke="rgb(204, 204, 204)" stroke-width="1px"></line><line x1="249.88888888888889" y1="0" x2="249.88888888888889" y2="5" style="visibility: inherit;" fill="rgb(0, 0, 0)" stroke="rgb(204, 204, 204)" stroke-width="1px"></line><line x1="281.125" y1="0" x2="281.125" y2="5" style="visibility: inherit;" fill="rgb(0, 0, 0)" stroke="rgb(204, 204, 204)" stroke-width="1px"></line></g><g transform="translate(0, 8)"><text style="text-anchor: middle; visibility: hidden; font-family: &quot;Helvetica Neue&quot;, sans-serif; font-size: 12px; font-weight: 200;" x="0" y="0" dx="0em" dy="0.95em" fill="rgb(50, 49, 63)" stroke="none" stroke-width="1px">-20</text><text style="text-anchor: middle; visibility: inherit; font-family: &quot;Helvetica Neue&quot;, sans-serif; font-size: 12px; font-weight: 200;" x="31.23611111111111" y="0" dx="0em" dy="0.95em" fill="rgb(50, 49, 63)" stroke="none" stroke-width="1px">0</text><text style="text-anchor: middle; visibility: inherit; font-family: &quot;Helvetica Neue&quot;, sans-serif; font-size: 12px; font-weight: 200;" x="62.47222222222222" y="0" dx="0em" dy="0.95em" fill="rgb(50, 49, 63)" stroke="none" stroke-width="1px">20</text><text style="text-anchor: middle; visibility: inherit; font-family: &quot;Helvetica Neue&quot;, sans-serif; font-size: 12px; font-weight: 200;" x="93.70833333333333" y="0" dx="0em" dy="0.95em" fill="rgb(50, 49, 63)" stroke="none" stroke-width="1px">40</text><text style="text-anchor: middle; visibility: inherit; font-family: &quot;Helvetica Neue&quot;, sans-serif; font-size: 12px; font-weight: 200;" x="124.94444444444444" y="0" dx="0em" dy="0.95em" fill="rgb(50, 49, 63)" stroke="none" stroke-width="1px">60</text><text style="text-anchor: middle; visibility: inherit; font-family: &quot;Helvetica Neue&quot;, sans-serif; font-size: 12px; font-weight: 200;" x="156.18055555555557" y="0" dx="0em" dy="0.95em" fill="rgb(50, 49, 63)" stroke="none" stroke-width="1px">80</text><text style="text-anchor: middle; visibility: inherit; font-family: &quot;Helvetica Neue&quot;, sans-serif; font-size: 12px; font-weight: 200;" x="187.41666666666666" y="0" dx="0em" dy="0.95em" fill="rgb(50, 49, 63)" stroke="none" stroke-width="1px">100</text><text style="text-anchor: middle; visibility: inherit; font-family: &quot;Helvetica Neue&quot;, sans-serif; font-size: 12px; font-weight: 200;" x="218.65277777777777" y="0" dx="0em" dy="0.95em" fill="rgb(50, 49, 63)" stroke="none" stroke-width="1px">120</text><text style="text-anchor: middle; visibility: inherit; font-family: &quot;Helvetica Neue&quot;, sans-serif; font-size: 12px; font-weight: 200;" x="249.88888888888889" y="0" dx="0em" dy="0.95em" fill="rgb(50, 49, 63)" stroke="none" stroke-width="1px">140</text><text style="text-anchor: middle; visibility: hidden; font-family: &quot;Helvetica Neue&quot;, sans-serif; font-size: 12px; font-weight: 200;" x="281.125" y="0" dx="0em" dy="0.95em" fill="rgb(50, 49, 63)" stroke="none" stroke-width="1px">160</text></g><line x1="0" y1="0" x2="281.125" y2="0" fill="rgb(0, 0, 0)" stroke="rgb(204, 204, 204)" stroke-width="1px"></line></g></g></g></g></svg>