<svg viewBox="0 0 330 200" xmlns="http://www.w3.org/2000/svg"><g><g><g><g><g><line x1="48.875" y1="177.828125" x2="43.875" y2="177.828125" style="visibility: inherit;" fill="rgb(0, 0, 0)" stroke="rgb(204, 204, 204)" stroke-width="1px"></line><line x1="48.875" y1="165.97291666666666" x2="43.875" y2="165.97291666666666" style="visibility: inherit;" fill="rgb(0, 0, 0)" stroke="rgb(204, 204, 204)" stroke-width="1px"></line><line x1="48.875" y1="154.11770833333333" x2="43.875" y2="154.11770833333333" style="visibility: inherit;" fill="rgb(0, 0, 0)" stroke="rgb(204, 204, 204)" stroke-width="1px"></line><line x1="48.875" y1="142.2625" x2="43.875" y2="142.2625" style="visibility: inherit;" fill="rgb(0, 0, 0)" stroke="rgb(204, 204, 204)" stroke-width="1px"></line><line x1="48.875" y1="130.40729166666662" x2="43.875" y2="130.40729166666662" style="visibility: inherit;" fill="rgb(0, 0, 0)" stroke="rgb(204, 204, 204)" stroke-width="1px"></line><line x1="48.875" y1="118.55208333333336" x2="43.875" y2="118.55208333333336" style="visibility: inherit;" fill="rgb(0, 0, 0)" stroke="rgb(204, 204, 204)" stroke-width="1px"></line><line x1="48.875" y1="106.69687500000002" x2="43.875" y2="106.69687500000002" style="visibility: inherit;" fill="rgb(0, 0, 0)" stroke="rgb(204, 204, 204)" stroke-width="1px"></line><line x1="48.875" y1="94.84166666666667" x2="43.875" y2="94.84166666666667" style="visibility: inherit;" fill="rgb(0, 0, 0)" stroke="rgb(204, 204, 204)" stroke-width="1px"></line><line x1="48.875" y1="82.98645833333333" x2="43.875" y2="82.98645833333333" style="visibility: inherit;" fill="rgb(0, 0, 0)" stroke="rgb(204, 204, 204)" stroke-width="1px"></line><line x1="48.875" y1="71.13124999999998" x2="43.875" y2="71.13124999999998" style="visibility: inherit;" fill="rgb(0, 0, 0)" stroke="rgb(204, 204, 204)" stroke-width="1px"></line><line x1="48.875" y1="59.27604166666666" x2="43.875" y2="59.27604166666666" style="visibility: inherit;" fill="rgb(0, 0, 0)" stroke="rgb(204, 204, 204)" stroke-width="1px"></line><line x1="48.875" y1="47.42083333333335" x2="43.875" y2="47.42083333333335" style="visibility: inherit;" fill="rgb(0, 0, 0)" stroke="rgb(204, 204, 204)" stroke-width="1px"></line><line x1="48.875" y1="35.56562500000004" x2="43.875" y2="35.56562500000004" style="visibility: inherit;" fill="rgb(0, 0, 0)" stroke="rgb(204, 204, 204)" stroke-width="1px"></line><line x1="48.875" y1="23.710416666666674" x2="43.875" y2="23.710416666666674" style="visibility: inherit;" fill="rgb(0, 0, 0)" stroke="rgb(204, 204, 204)" stroke-width="1px"></line><line x1="48.875" y1="11.855208333333337" x2="43.875" y2="11.855208333333337" style="visibility: inherit;" fill="rgb(0, 0, 0)" stroke="rgb(204, 204, 204)" stroke-width="1px"></line><line x1="48.875" y1="0" x2="43.875" y2="0" style="visibility: inherit;" fill="rgb(0, 0, 0)" stroke="rgb(204, 204, 204)" stroke-width="1px"></line></g><g transform="translate(38.875, 0)"><text style="text-anchor: end; visibility: hidden; font-family: &quot;Helvetica Neue&quot;, sans-serif; font-size: 12px; font-weight: 200;" x="0" y="177.828125" dx="0em" dy="0.3em" fill="rgb(50, 49, 63)" stroke="none" stroke-width="1px">0.72</text><text style="text-anchor: end; visibility: inherit; font-family: &quot;Helvetica Neue&quot;, sans-serif; font-size: 12px; font-weight: 200;" x="0" y="165.97291666666666" dx="0em" dy="0.3em" fill="rgb(50, 49, 63)" stroke="none" stroke-width="1px">0.74</text><text style="text-anchor: end; visibility: hidden; font-family: &quot;Helvetica Neue&quot;, sans-serif; font-size: 12px; font-weight: 200;" x="0" y="154.11770833333333" dx="0em" dy="0.3em" fill="rgb(50, 49, 63)" stroke="none" stroke-width="1px">0.76</text><text style="text-anchor: end; visibility: inherit; font-family: &quot;Helvetica Neue&quot;, sans-serif; font-size: 12px; font-weight: 200;" x="0" y="142.2625" dx="0em" dy="0.3em" fill="rgb(50, 49, 63)" stroke="none" stroke-width="1px">0.78</text><text style="text-anchor: end; visibility: hidden; font-family: &quot;Helvetica Neue&quot;, sans-serif; font-size: 12px; font-weight: 200;" x="0" y="130.40729166666662" dx="0em" dy="0.3em" fill="rgb(50, 49, 63)" stroke="none" stroke-width="1px">0.8</text><text style="text-anchor: end; visibility: inherit; font-family: &quot;Helvetica Neue&quot;, sans-serif; font-size: 12px; font-weight: 200;" x="0" y="118.55208333333336" dx="0em" dy="0.3em" fill="rgb(50, 49, 63)" stroke="none" stroke-width="1px">0.82</text><text style="text-anchor: end; visibility: hidden; font-family: &quot;Helvetica Neue&quot;, sans-serif; font-size: 12px; font-weight: 200;" x="0" y="106.69687500000002" dx="0em" dy="0.3em" fill="rgb(50, 49, 63)" stroke="none" stroke-width="1px">0.84</text><text style="text-anchor: end; visibility: inherit; font-family: &quot;Helvetica Neue&quot;, sans-serif; font-size: 12px; font-weight: 200;" x="0" y="94.84166666666667" dx="0em" dy="0.3em" fill="rgb(50, 49, 63)" stroke="none" stroke-width="1px">0.86</text><text style="text-anchor: end; visibility: hidden; font-family: &quot;Helvetica Neue&quot;, sans-serif; font-size: 12px; font-weight: 200;" x="0" y="82.98645833333333" dx="0em" dy="0.3em" fill="rgb(50, 49, 63)" stroke="none" stroke-width="1px">0.88</text><text style="text-anchor: end; visibility: inherit; font-family: &quot;Helvetica Neue&quot;, sans-serif; font-size: 12px; font-weight: 200;" x="0" y="71.13124999999998" dx="0em" dy="0.3em" fill="rgb(50, 49, 63)" stroke="none" stroke-width="1px">0.9</text><text style="text-anchor: end; visibility: hidden; font-family: &quot;Helvetica Neue&quot;, sans-serif; font-size: 12px; font-weight: 200;" x="0" y="59.27604166666666" dx="0em" dy="0.3em" fill="rgb(50, 49, 63)" stroke="none" stroke-width="1px">0.92</text><text style="text-anchor: end; visibility: inherit; font-family: &quot;Helvetica Neue&quot;, sans-serif; font-size: 12px; font-weight: 200;" x="0" y="47.42083333333335" dx="0em" dy="0.3em" fill="rgb(50, 49, 63)" stroke="none" stroke-width="1px">0.94</text><text style="text-anchor: end; visibility: hidden; font-family: &quot;Helvetica Neue&quot;, sans-serif; font-size: 12px; font-weight: 200;" x="0" y="35.56562500000004" dx="0em" dy="0.3em" fill="rgb(50, 49, 63)" stroke="none" stroke-width="1px">0.96</text><text style="text-anchor: end; visibility: inherit; font-family: &quot;Helvetica Neue&quot;, sans-serif; font-size: 12px; font-weight: 200;" x="0" y="23.710416666666674" dx="0em" dy="0.3em" fill="rgb(50, 49, 63)" stroke="none" stroke-width="1px">0.98</text><text style="text-anchor: end; visibility: hidden; font-family: &quot;Helvetica Neue&quot;, sans-serif; font-size: 12px; font-weight: 200;" x="0" y="11.855208333333337" dx="0em" dy="0.3em" fill="rgb(50, 49, 63)" stroke="none" stroke-width="1px">1</text><text style="text-anchor: end; visibility: hidden; font-family: &quot;Helvetica Neue&quot;, sans-serif; font-size: 12px; font-weight: 200;" x="0" y="0" dx="0em" dy="0.3em" fill="rgb(50, 49, 63)" stroke="none" stroke-width="1px">1.02</text></g><line x1="48.875" y1="0" x2="48.875" y2="177.828125" fill="rgb(0, 0, 0)" stroke="rgb(204, 204, 204)" stroke-width="1px"></line></g></g><g transform="translate(48, 0)" clip-path="url(#clip_0)"><clipPath id="clip_0"><rect width="281" height="177"></rect></clipPath><g><g><g><line x1="0" y1="0" x2="0" y2="177.828125" fill="rgb(0, 0, 0)" stroke="rgb(60, 60, 60)" stroke-width="1px" opacity="0.25"></line><line x1="31.23611111111111" y1="0" x2="31.23611111111111" y2="177.828125" fill="rgb(0, 0, 0)" stroke="rgb(60, 60, 60)" stroke-width="1px" opacity="0.25"></line><line x1="62.47222222222222" y1="0" x2="62.47222222222222" y2="177.828125" fill="rgb(0, 0, 0)" stroke="rgb(60, 60, 60)" stroke-width="1px" opacity="0.25"></line><line x1="93.70833333333333" y1="0" x2="93.70833333333333" y2="177.828125" fill="rgb(0, 0, 0)" stroke="rgb(60, 60, 60)" stroke-width="1px" opacity="0.25"></line><line x1="124.94444444444444" y1="0" x2="124.94444444444444" y2="177.828125" fill="rgb(0, 0, 0)" stroke="rgb(60, 60, 60)" stroke-width="1px" opacity="0.25"></line><line x1="156.18055555555557" y1="0" x2="156.18055555555557" y2="177.828125" fill="rgb(0, 0, 0)" stroke="rgb(60, 60, 60)" stroke-width="1px" opacity="0.25"></line><line x1="187.41666666666666" y1="0" x2="187.41666666666666" y2="177.828125" fill="rgb(0, 0, 0)" stroke="rgb(60, 60, 60)" stroke-width="1px" opacity="0.25"></line><line x1="218.65277777777777" y1="0" x2="218.65277777777777" y2="177.828125" fill="rgb(0, 0, 0)" stroke="rgb(60, 60, 60)" stroke-width="1px" opacity="0.25"></line><line x1="249.88888888888889" y1="0" x2="249.88888888888889" y2="177.828125" fill="rgb(0, 0, 0)" stroke="rgb(60, 60, 60)" stroke-width="1px" opacity="0.25"></line><line x1="281.125" y1="0" x2="281.125" y2="177.828125" fill="rgb(0, 0, 0)" stroke="rgb(60, 60, 60)" stroke-width="1px" opacity="0.25"></line></g><g><line x1="0" y1="177.828125" x2="281.125" y2="177.828125" fill="rgb(0, 0, 0)" stroke="rgb(60, 60, 60)" stroke-width="1px" opacity="0.25"></line><line x1="0" y1="165.97291666666666" x2="281.125" y2="165.97291666666666" fill="rgb(0, 0, 0)" stroke="rgb(60, 60, 60)" stroke-width="1px" opacity="0.25"></line><line x1="0" y1="154.11770833333333" x2="281.125" y2="154.11770833333333" fill="rgb(0, 0, 0)" stroke="rgb(60, 60, 60)" stroke-width="1px" opacity="0.25"></line><line x1="0" y1="142.2625" x2="281.125" y2="142.2625" fill="rgb(0, 0, 0)" stroke="rgb(60, 60, 60)" stroke-width="1px" opacity="0.25"></line><line x1="0" y1="130.40729166666662" x2="281.125" y2="130.40729166666662" fill="rgb(0, 0, 0)" stroke="rgb(60, 60, 60)" stroke-width="1px" opacity="0.25"></line><line x1="0" y1="118.55208333333336" x2="281.125" y2="118.55208333333336" fill="rgb(0, 0, 0)" stroke="rgb(60, 60, 60)" stroke-width="1px" opacity="0.25"></line><line x1="0" y1="106.69687500000002" x2="281.125" y2="106.69687500000002" fill="rgb(0, 0, 0)" stroke="rgb(60, 60, 60)" stroke-width="1px" opacity="0.25"></line><line x1="0" y1="94.84166666666667" x2="281.125" y2="94.84166666666667" fill="rgb(0, 0, 0)" stroke="rgb(60, 60, 60)" stroke-width="1px" opacity="0.25"></line><line x1="0" y1="82.98645833333333" x2="281.125" y2="82.98645833333333" fill="rgb(0, 0, 0)" stroke="rgb(60, 60, 60)" stroke-width="1px" opacity="0.25"></line><line x1="0" y1="71.13124999999998" x2="281.125" y2="71.13124999999998" fill="rgb(0, 0, 0)" stroke="rgb(60, 60, 60)" stroke-width="1px" opacity="0.25"></line><line x1="0" y1="59.27604166666666" x2="281.125" y2="59.27604166666666" fill="rgb(0, 0, 0)" stroke="rgb(60, 60, 60)" stroke-width="1px" opacity="0.25"></line><line x1="0" y1="47.42083333333335" x2="281.125" y2="47.42083333333335" fill="rgb(0, 0, 0)" stroke="rgb(60, 60, 60)" stroke-width="1px" opacity="0.25"></line><line x1="0" y1="35.56562500000004" x2="281.125" y2="35.56562500000004" fill="rgb(0, 0, 0)" stroke="rgb(60, 60, 60)" stroke-width="1px" opacity="0.25"></line><line x1="0" y1="23.710416666666674" x2="281.125" y2="23.710416666666674" fill="rgb(0, 0, 0)" stroke="rgb(60, 60, 60)" stroke-width="1px" opacity="0.25"></line><line x1="0" y1="11.855208333333337" x2="281.125" y2="11.855208333333337" fill="rgb(0, 0, 0)" stroke="rgb(60, 60, 60)" stroke-width="1px" opacity="0.25"></line><line x1="0" y1="0" x2="281.125" y2="0" fill="rgb(0, 0, 0)" stroke="rgb(60, 60, 60)" stroke-width="1px" opacity="0.25"></line></g></g></g><g><g><line x1="0" y1="604.6156249999999" x2="281.125" y2="604.6156249999999" fill="rgb(0, 0, 0)" stroke="rgb(153, 153, 153)" stroke-width="1.5px"></line></g></g><g><g><line x1="31.23611111111111" y1="0" x2="31.23611111111111" y2="177.828125" fill="rgb(0, 0, 0)" stroke="rgb(153, 153, 153)" stroke-width="1.5px"></line></g></g><g><g><g><g><g><path style="fill: none;" stroke="rgb(0, 153, 136)" stroke-width="2px" d="M34.359722222222224,199.10624671525193L35.921527777777776,170.54846869781886L37.483333333333334,150.34726623953028L39.04513888888889,134.48737319405723L40.60694444444444,122.31712436868096L42.168749999999996,112.78939133556088L43.730555555555554,104.48233091009766L45.29236111111111,97.93807302405808L46.854166666666664,92.19656577371894L48.41597222222222,87.45200927085187L49.97777777777778,82.73448176512251L51.53958333333333,79.03293241612123L53.101388888888884,75.65532582104613L54.66319444444444,72.14124773745844L56.225,69.189949311525L57.78680555555555,66.91651943510384L59.34861111111111,64.98002403386052L60.91041666666667,62.41000170434248L62.47222222222222,60.66429558393071L64.03402777777778,59.17845780408423L65.59583333333333,57.92847958232311L67.1576388888889,55.90701931597694L68.71944444444445,54.567776026009525L70.28125,53.003421667669926L71.84305555555555,51.77595610056382L73.40486111111112,50.71451443836655L74.96666666666667,49.81458722705645L76.52847222222222,48.94193762975959L78.09027777777779,47.750374838636134L79.65208333333334,48.60090961381351L81.21388888888887,50.970729611328736L82.77569444444444,52.42873010054967L84.33749999999999,50.01524863290766L85.89930555555556,49.988211901741366L87.46111111111111,49.533542881778686L89.02291666666666,48.11049650863214L90.58472222222223,47.31341071441253L92.14652777777778,46.468929384003644L93.70833333333333,47.20017776841999L95.2701388888889,47.29334454057181L96.83194444444445,46.12419627131575L98.39375,45.16737525846807L99.95555555555556,46.07366303465005L101.51736111111111,44.218922695965546L103.07916666666667,43.25308485799451L104.64097222222223,42.02365630240513L106.20277777777777,41.86370789768844L107.76458333333333,41.46083727575535L109.32638888888889,41.13658104636434L110.88819444444444,40.3333825165397L112.45,40.59163945795336L114.01180555555555,40.71564342671397L115.5736111111111,41.01442766334884L117.13541666666667,39.530217026946104L118.69722222222222,39.2509216865561L120.25902777777777,38.94149648317659L121.82083333333334,38.10077127482859L123.38263888888889,37.524119025616045L124.94444444444444,37.771311502743714L126.50625000000001,36.86737685208854L128.06805555555556,36.76087679116134L129.62986111111113,36.42359748834289L131.19166666666666,37.159995991263315L132.75347222222223,36.31488636867613L134.3152777777778,36.78528149109931L135.87708333333333,36.01526842762138L137.4388888888889,35.622891464476425L139.00069444444446,34.86649858413816L140.5625,34.53389152353216L142.12430555555554,34.01452272677548L143.6861111111111,33.8318464665758L145.24791666666667,33.58555107732499L146.80972222222223,33.13087226467263L148.37152777777777,32.66463331779005L149.93333333333334,32.784642117024475L151.49513888888887,33.66905471258417L153.05694444444444,33.000445767828126L154.61875,32.76433398093087L156.18055555555557,31.637475530050068L157.7423611111111,31.799545473103876L159.30416666666667,31.989638027198254L160.8659722222222,31.755525052436496L162.42777777777775,31.24625529630279L163.98958333333334,30.96131277417126L165.55138888888888,30.73877773325634L167.11319444444445,31.038531188911122L168.67499999999998,31.138435655333183L170.23680555555555,30.930157434938934L171.79861111111111,31.496369151124554L173.36041666666668,30.41247195587505L174.92222222222222,30.084510315870972L176.48402777777778,29.227490747024063L178.04583333333332,29.342571394472998L179.60763888888889,29.63857375507331L181.16944444444445,29.62532976140446L182.73125000000002,29.331115250159513L184.29305555555555,29.42795167716497L185.85486111111112,29.33906130071773L187.41666666666666,28.92465558633978L188.97847222222225,29.269195984368167L190.5402777777778,28.929161690661118L192.10208333333333,28.64519350746602L193.6638888888889,28.209163814053852L195.22569444444443,28.336981433341464L196.7875,28.184131783520883L198.34930555555556,28.355484527861506L199.91111111111113,28.37834856749504L201.47291666666666,27.445556291387078L203.03472222222223,27.226318950173578L204.59652777777777,28.1109181202753L206.15833333333333,29.29933395791869L207.7201388888889,27.889835971845145L209.28194444444446,27.29172461639027L210.84375,26.574372563869844L212.40555555555554,26.86093181085252L213.9673611111111,26.87813051111499L215.52916666666667,26.764648946923046L217.09097222222223,26.59082057136419L218.65277777777777,26.790853008378292L220.21458333333334,26.565276080120896L221.77638888888887,26.29066817328294L223.33819444444444,26.721659372587766L224.9,26.170433025413615L226.46180555555557,26.373552768341995L228.0236111111111,26.39227142631745L229.58541666666667,26.43186656792807L231.1472222222222,26.12293024371968L232.70902777777775,26.285736956413103L234.27083333333334,26.099724985737936L235.83263888888888,25.412995323983466L237.39444444444445,25.276908909945234L238.95624999999998,25.46090584501735L240.51805555555555,25.274719158987864L242.07986111111111,25.255843603122656L243.64166666666668,25.3863662687491L245.20347222222222,25.379573895139515L246.76527777777778,24.83905667047881L248.32708333333332,25.172402671264706L249.88888888888889,25.320826611590633L251.45069444444445,25.345408466859027L253.01250000000002,25.42205797219475L254.57430555555555,25.215301873192374L256.1361111111111,25.02676157235416L257.69791666666663,24.13219440442907L259.25972222222225,24.237635341212666L260.82152777777776,24.51496502663224L262.3833333333333,24.529198106709316L263.9451388888889,24.47840967933334" fill="none"></path></g><g><path style="fill: none;" stroke="rgb(238, 51, 119)" stroke-width="2px" d="M37.483333333333334,178.77288832736753L39.04513888888889,170.70221433474325L40.60694444444444,161.47504020520876L42.168749999999996,164.22798900037657L43.730555555555554,157.690083344876L45.29236111111111,154.67380718638262L46.854166666666664,154.366690165418L48.41597222222222,145.90185795209348L49.97777777777778,142.55466414171175L51.53958333333333,139.94517405912504L53.101388888888884,136.5230030235536L54.66319444444444,140.39130776717104L56.225,132.9843764246722L57.78680555555555,132.44092889207172L59.34861111111111,139.70547691871997L60.91041666666667,134.7326058963631L62.47222222222222,137.2734340559062L64.03402777777778,131.2540884661882L65.59583333333333,128.61742829673037L67.1576388888889,135.02019583905266L68.71944444444445,127.3953785281732L70.28125,127.7413230695463L71.84305555555555,125.67417486871132L73.40486111111112,127.7763268096457L74.96666666666667,127.15749803679063L76.52847222222222,135.4440467493953L78.09027777777779,134.6595484839219L79.65208333333334,130.7303556921035L81.21388888888887,125.8660155394618L82.77569444444444,121.0440734101991L84.33749999999999,134.35244580320264L85.89930555555556,137.69519401677215L87.46111111111111,134.5014925981866L89.02291666666666,127.64125350030861L90.58472222222223,124.7320970454328L92.14652777777778,129.60184722017604L93.70833333333333,126.44232296504305L95.2701388888889,121.57554504537464L96.83194444444445,123.04243540531355L98.39375,119.48918721713238L99.95555555555556,117.07871480482162L101.51736111111111,115.1914122620876L103.07916666666667,115.56776093452524L104.64097222222223,119.20565260031651L106.20277777777777,115.9569249690363L107.76458333333333,117.72149993316496L109.32638888888889,111.60793974487697L110.88819444444444,112.51243365241591L112.45,112.26594239423723L114.01180555555555,111.5145612131551L115.5736111111111,112.40999537175921L117.13541666666667,122.4871238417426L118.69722222222222,117.0437695229736L120.25902777777777,114.3812574903973L121.82083333333334,115.12809336562806L123.38263888888889,113.78892706054356L124.94444444444444,111.29099590302242L126.50625000000001,109.37442369384009L128.06805555555556,113.93448063123694L129.62986111111113,109.52141520776433L131.19166666666666,110.79629425385455L132.75347222222223,109.19365887341203L134.3152777777778,108.02318502032149L135.87708333333333,109.92057585470911L137.4388888888889,106.53279149648372L139.00069444444446,106.49629546910607L140.5625,105.54594850009725L142.12430555555554,104.46509034826983L143.6861111111111,105.48778711832341L145.24791666666667,105.4050681659189L146.80972222222223,104.7983615299229L148.37152777777777,102.11320003435993L149.93333333333334,104.23913439318132L151.49513888888887,102.84538898729038L153.05694444444444,116.93404705507211L154.61875,110.88013596658503L156.18055555555557,109.77783358479299L157.7423611111111,105.86685115666046L159.30416666666667,110.6461557048809L160.8659722222222,116.69369442541908L162.42777777777775,111.10731260933186L163.98958333333334,107.8715396887523L165.55138888888888,122.34051999736599L167.11319444444445,116.56121341499951L168.67499999999998,111.60810484844404L170.23680555555555,108.49697795862727L171.79861111111111,112.87415763887623L173.36041666666668,123.25306559162055L174.92222222222222,112.48968545694176L176.48402777777778,109.93115596298784L178.04583333333332,109.41735233996955L179.60763888888889,106.18443209350895L181.16944444444445,105.35883047473897L182.73125000000002,104.21354365066172L184.29305555555555,103.29425921806983L185.85486111111112,102.97480089666024L187.41666666666666,104.38470669002281L188.97847222222225,104.48788785747253L190.5402777777778,101.32341527220542L192.10208333333333,100.56208783096235L193.6638888888889,107.81146621668039L195.22569444444443,103.20150611865736L196.7875,103.84759838959505L198.34930555555556,105.07086664898756L199.91111111111113,102.57844631888601L201.47291666666666,100.06169417998075L203.03472222222223,98.71412435984148L204.59652777777777,97.13961457837937L206.15833333333333,100.0944072963555L207.7201388888889,98.22310225924406L209.28194444444446,97.935932133807L210.84375,99.48126701382591L212.40555555555554,101.66188022082721L213.9673611111111,99.95277361662586L215.52916666666667,100.80742807259006L217.09097222222223,99.27762086447981L218.65277777777777,102.23604367816596L220.21458333333334,99.53130380165068L221.77638888888887,98.09414691975607L223.33819444444444,98.2763583122744L224.9,102.19234727888625L226.46180555555557,101.01381616002911L228.0236111111111,103.99730345074292L229.58541666666667,103.3269965613224L231.1472222222222,102.13562482497126L232.70902777777775,103.23128932670367L234.27083333333334,100.77836291107899L235.83263888888888,98.33173241499087L237.39444444444445,101.66851060847252L238.95624999999998,101.3958511722176L240.51805555555555,100.00206294479499L242.07986111111111,101.99757749272896L243.64166666666668,100.03813581069417L245.20347222222222,98.67678375745878L246.76527777777778,98.50988424582326L248.32708333333332,98.50259512710404L249.88888888888889,99.19455867030915L251.45069444444445,99.23836270820323L253.01250000000002,99.75207538804142L254.57430555555555,101.56904732640021L256.1361111111111,98.57403072603805L257.69791666666663,98.56428859604353L259.25972222222225,99.53331796476022L260.82152777777776,106.31218023850786L262.3833333333333,103.02149125951095L263.9451388888889,102.83435983484524" fill="none"></path></g></g></g></g><g opacity="0.20000000298023224"><g><g><g><path style="fill: none;" stroke="rgb(0, 153, 136)" stroke-width="2px" d="M32.797916666666666,190.51185877658426L34.359722222222224,156.0365201499313L35.921527777777776,136.96452174931764L37.483333333333334,123.97257630998888L39.04513888888889,112.54743155067166L40.60694444444444,104.91347382441162L42.168749999999996,98.89786510703465L43.730555555555554,92.23103034595648L45.29236111111111,88.22061275728048L46.854166666666664,83.63637994639576L48.41597222222222,80.36099418352046L49.97777777777778,75.67359405234457L51.53958333333333,73.48786011313399L53.101388888888884,70.59288617819549L54.66319444444444,66.87260901220144L56.225,64.76425056320926L57.78680555555555,63.50695184407135L59.34861111111111,62.07557593757909L60.91041666666667,58.55520312028628L62.47222222222222,58.0458321419855L64.03402777777778,56.94975002643963L65.59583333333333,56.05353692832094L67.1576388888889,52.87485286258162L68.71944444444445,52.558920609826856L70.28125,50.656896801417076L71.84305555555555,49.93476089065274L73.40486111111112,49.12235357463359L74.96666666666667,48.464697239051276L76.52847222222222,47.632963716114574L78.09027777777779,45.963031047085934L79.65208333333334,49.87671160735191L81.21388888888887,54.52545932469269L82.77569444444444,54.6157307299475L84.33749999999999,46.395026535168284L85.89930555555556,49.94765680568915L87.46111111111111,48.85153935886919L89.02291666666666,45.975926962122315L90.58472222222223,46.117782027522736L92.14652777777778,45.2022073912124L93.70833333333333,48.297050343578064L95.2701388888889,47.4330946986874L96.83194444444445,44.370473868275695L98.39375,43.732143739610905L99.95555555555556,47.4330946986874L101.51736111111111,41.436812188227975L103.07916666666667,41.804328101128334L104.64097222222223,40.17951346909007L106.20277777777777,41.62378529061874L107.76458333333333,40.85653134286403L109.32638888888889,40.65019670228165L110.88819444444444,39.128584721808636L112.45,40.979024870072806L114.01180555555555,40.901649379854405L115.5736111111111,41.462604018300766L117.13541666666667,37.303901072343194L118.69722222222222,38.83197867597144L120.25902777777777,38.477358678107464L121.82083333333334,36.83968346230685L123.38263888888889,36.65914065179726L124.94444444444444,38.14210021843513L126.50625000000001,35.51147487610578L128.06805555555556,36.601126699770504L129.62986111111113,35.91767853411537L131.19166666666666,38.26459374564391L132.75347222222223,35.047221934795374L134.3152777777778,37.49087417473396L135.87708333333333,34.86024883240461L137.4388888888889,35.03432601975899L139.00069444444446,33.73190926363071L140.5625,34.03498093262314L142.12430555555554,33.235469531640405L143.6861111111111,33.557832076276355L145.24791666666667,33.21610799344879L146.80972222222223,32.44885404569408L148.37152777777777,31.965274897466116L149.93333333333334,32.964655315876L151.49513888888887,34.995673605923855L153.05694444444444,31.997532350694144L154.61875,32.410166300584876L156.18055555555557,29.947187853728735L157.7423611111111,32.04265038768452L159.30416666666667,32.27477685833972L160.8659722222222,31.404355590293818L162.42777777777775,30.482350662102306L163.98958333333334,30.533898990973825L165.55138888888888,30.404975171883905L167.11319444444445,31.488161372393364L168.67499999999998,31.288292354966217L170.23680555555555,30.61774010434746L171.79861111111111,32.345686725402885L173.36041666666668,28.786626163000875L174.92222222222222,29.592567855864758L176.48402777777778,27.9419613937537L178.04583333333332,29.515192365646357L179.60763888888889,30.08257729597389L181.16944444444445,29.605463770901167L182.73125000000002,28.889793483292067L184.29305555555555,29.57320631767314L185.85486111111112,29.205725736046844L187.41666666666666,28.303047014772886L188.97847222222225,29.78600658141076L190.5402777777778,28.419110250100488L192.10208333333333,28.21924123267334L193.6638888888889,27.55511927393576L195.22569444444443,28.528707862272853L196.7875,27.954857308790082L198.34930555555556,28.612513644372427L199.91111111111113,28.41264462694525L201.47291666666666,26.046367877225094L203.03472222222223,26.897462938353414L204.59652777777777,29.437816875427956L206.15833333333333,31.081957714383805L207.7201388888889,25.775588992734754L209.28194444444446,26.3945575832079L210.84375,25.498344485089177L212.40555555555554,27.290770681326592L213.9673611111111,26.90392856150865L215.52916666666667,26.594426600635046L217.09097222222223,26.33007800802588L218.65277777777777,27.090901663899416L220.21458333333334,26.226910687734687L221.77638888888887,25.878756313025946L223.33819444444444,27.368146171544993L224.9,25.343593504652375L226.46180555555557,26.67823238273462L228.0236111111111,26.42034941328069L229.58541666666667,26.491259280343854L231.1472222222222,25.659525757407152L232.70902777777775,26.529947025453055L234.27083333333334,25.820707029725128L235.83263888888888,24.38290083135169L237.39444444444445,25.072779288887972L238.95624999999998,25.736901247625553L240.51805555555555,24.995439129943662L242.07986111111111,25.227530269324774L243.64166666666668,25.58215026718875L245.20347222222222,25.369385334725195L246.76527777777778,24.028280833487713L248.32708333333332,25.672421672443562L249.88888888888889,25.54346252207955L251.45069444444445,25.382281249761576L253.01250000000002,25.537032230198378L254.57430555555555,24.90516772468885L256.1361111111111,24.743951121096813L257.69791666666663,22.790343652541452L259.25972222222225,24.395796746388072L260.82152777777776,24.930959554761642L262.3833333333333,24.550547726824874L263.9451388888889,24.402227038269245" fill="none"></path></g><g><path style="fill: none;" stroke="rgb(238, 51, 119)" stroke-width="2px" d="M34.359722222222224,187.10108357146382L35.921527777777776,171.14325433013337L37.483333333333334,167.42944278729456L39.04513888888889,159.53756676030653L40.60694444444444,148.28003356518843L42.168749999999996,168.24181477203965L43.730555555555554,148.0479424258073L45.29236111111111,150.19498861990868L46.854166666666664,153.9088001627475L48.41597222222222,133.25067487520477L49.97777777777778,137.54480259468158L51.53958333333333,136.0360511979709L53.101388888888884,131.39376910378536L54.66319444444444,146.1910366543879L56.225,121.87711377603313L57.78680555555555,131.62589557444056L59.34861111111111,150.60119227791824L60.91041666666667,127.27375390293696L62.47222222222222,141.084536950166L64.03402777777778,122.22526815074184L65.59583333333333,124.66249009879925L67.1576388888889,144.62427130565047L68.71944444444445,115.9582067557921L70.28125,128.26023840631046L71.84305555555555,122.57345785672464L73.40486111111112,130.92955149374902L74.96666666666667,126.2292554475367L76.52847222222222,147.87386523845294L78.09027777777779,133.48280134585997L79.65208333333334,124.83656728615362L81.21388888888887,118.56950589120387L82.77569444444444,113.81116056169071L84.33749999999999,154.31500382075706L85.89930555555556,142.70931625093021L87.46111111111111,129.7109405197203L89.02291666666666,117.35089491717517L90.58472222222223,120.36836237932243L92.14652777777778,136.9064724660168L93.70833333333333,121.70303658867874L95.2701388888889,114.27537817172706L96.83194444444445,125.2427709441632L98.39375,114.15931493639945L99.95555555555556,113.463006186982L101.51736111111111,112.3604584482809L103.07916666666667,116.13228394314646L104.64097222222223,124.66249009879925L106.20277777777777,111.0838335222254L107.76458333333333,120.36836237932243L109.32638888888889,102.43759946251907L110.88819444444444,113.8691745137175L112.45,111.89620550697049L114.01180555555555,110.38748944153389L115.5736111111111,113.75314660966396L117.13541666666667,137.60281654670834L118.69722222222222,108.8787380448232L120.25902777777777,110.38748944153389L121.82083333333334,116.24834717847406L123.38263888888889,111.78017760291695L124.94444444444444,107.54409916674098L126.50625000000001,106.49956538006663L128.06805555555556,120.77456603733202L129.62986111111113,102.90181707255542L131.19166666666666,112.70861282298961L132.75347222222223,106.78970580274859L134.3152777777778,106.26747424068549L135.87708333333333,112.76666210629045L137.4388888888889,101.45111495914557L139.00069444444446,106.44155142803987L140.5625,104.12042804658412L142.12430555555554,102.84380312052866L143.6861111111111,107.02183227340379L145.24791666666667,105.28098973731198L146.80972222222223,103.88830157592892L148.37152777777777,98.0854577910155L149.93333333333334,107.42803593141338L151.49513888888887,100.75477087845405L153.05694444444444,138.06703415674468L154.61875,101.79926933385431L156.18055555555557,108.1243800121049L157.7423611111111,100.00037751446168L159.30416666666667,117.81511252721151L160.8659722222222,125.7650025062263L162.42777777777775,102.72773988520106L163.98958333333334,103.01788030788302L165.55138888888888,144.04399046028652L167.11319444444445,107.89225354144969L168.67499999999998,104.17844199861088L170.23680555555555,103.83028762390217L171.79861111111111,119.43992715924978L173.36041666666668,138.82142752073705L174.92222222222222,96.3446152549237L176.48402777777778,106.09336172205707L178.04583333333332,108.64664690544208L179.60763888888889,101.33505172381797L181.16944444444445,104.12042804658412L182.73125000000002,102.49561341454586L184.29305555555555,101.91533256918191L185.85486111111112,102.49561341454586L187.41666666666666,106.49956538006663L188.97847222222225,104.64265960864722L190.5402777777778,96.57670639430484L192.10208333333333,99.42009666909775L193.6638888888889,118.68553379525741L195.22569444444443,96.28656597162286L196.7875,104.81673679600158L198.34930555555556,106.90576903807619L199.91111111111113,98.8398158237338L201.47291666666666,96.28656597162286L203.03472222222223,96.69276962963244L204.59652777777777,94.77784990618626L206.15833333333333,104.52659637331962L207.7201388888889,95.41614470357696L209.28194444444446,97.50517694565157L210.84375,101.79926933385431L212.40555555555554,104.93280003132918L213.9673611111111,97.38911371032397L215.52916666666667,102.08940975653627L217.09097222222223,96.9829100523144L218.65277777777777,106.67367789869508L220.21458333333334,95.4741939868778L221.77638888888887,95.93841159691414L223.33819444444444,98.54967540105184L224.9,108.06633072880408L226.46180555555557,99.24601948174337L228.0236111111111,108.47253438681363L229.58541666666667,102.32153622719147L231.1472222222222,100.34856722044447L232.70902777777775,104.87478607930242L234.27083333333334,97.098973287642L235.83263888888888,94.66178667085866L237.39444444444445,106.67367789869508L238.95624999999998,100.98686201783516L240.51805555555555,97.91138060366114L242.07986111111111,104.99084931463003L243.64166666666668,97.098973287642L245.20347222222222,96.63475567760567L246.76527777777778,98.25953497836987L248.32708333333332,98.49166144902507L249.88888888888889,100.23250398511686L251.45069444444445,99.3040687650442L253.01250000000002,100.52264440779885L254.57430555555555,104.29450523393848L256.1361111111111,94.08150582549473L257.69791666666663,98.54967540105184L259.25972222222225,100.98686201783516L260.82152777777776,116.48047364912927L262.3833333333333,98.0854577910155L263.9451388888889,102.55366269784668" fill="none"></path></g></g></g></g></g></g><g transform="translate(48, 177)" clip-path="url(#clip_1)"><clipPath id="clip_1"><rect width="281" height="22"></rect></clipPath><g><g><line x1="0" y1="0" x2="0" y2="5" style="visibility: inherit;" fill="rgb(0, 0, 0)" stroke="rgb(204, 204, 204)" stroke-width="1px"></line><line x1="31.23611111111111" y1="0" x2="31.23611111111111" y2="5" style="visibility: inherit;" fill="rgb(0, 0, 0)" stroke="rgb(204, 204, 204)" stroke-width="1px"></line><line x1="62.47222222222222" y1="0" x2="62.47222222222222" y2="5" style="visibility: inherit;" fill="rgb(0, 0, 0)" stroke="rgb(204, 204, 204)" stroke-width="1px"></line><line x1="93.70833333333333" y1="0" x2="93.70833333333333" y2="5" style="visibility: inherit;" fill="rgb(0, 0, 0)" stroke="rgb(204, 204, 204)" stroke-width="1px"></line><line x1="124.94444444444444" y1="0" x2="124.94444444444444" y2="5" style="visibility: inherit;" fill="rgb(0, 0, 0)" stroke="rgb(204, 204, 204)" stroke-width="1px"></line><line x1="156.18055555555557" y1="0" x2="156.18055555555557" y2="5" style="visibility: inherit;" fill="rgb(0, 0, 0)" stroke="rgb(204, 204, 204)" stroke-width="1px"></line><line x1="187.41666666666666" y1="0" x2="187.41666666666666" y2="5" style="visibility: inherit;" fill="rgb(0, 0, 0)" stroke="rgb(204, 204, 204)" stroke-width="1px"></line><line x1="218.65277777777777" y1="0" x2="218.65277777777777" y2="5" style="visibility: inherit;" fill="rgb(0, 0, 0)" stroke="rgb(204, 204, 204)" stroke-width="1px"></line><line x1="249.88888888888889" y1="0" x2="249.88888888888889" y2="5" style="visibility: inherit;" fill="rgb(0, 0, 0)" stroke="rgb(204, 204, 204)" stroke-width="1px"></line><line x1="281.125" y1="0" x2="281.125" y2="5" style="visibility: inherit;" fill="rgb(0, 0, 0)" stroke="rgb(204, 204, 204)" stroke-width="1px"></line></g><g transform="translate(0, 8)"><text style="text-anchor: middle; visibility: hidden; font-family: &quot;Helvetica Neue&quot;, sans-serif; font-size: 12px; font-weight: 200;" x="0" y="0" dx="0em" dy="0.95em" fill="rgb(50, 49, 63)" stroke="none" stroke-width="1px">-20</text><text style="text-anchor: middle; visibility: inherit; font-family: &quot;Helvetica Neue&quot;, sans-serif; font-size: 12px; font-weight: 200;" x="31.23611111111111" y="0" dx="0em" dy="0.95em" fill="rgb(50, 49, 63)" stroke="none" stroke-width="1px">0</text><text style="text-anchor: middle; visibility: inherit; font-family: &quot;Helvetica Neue&quot;, sans-serif; font-size: 12px; font-weight: 200;" x="62.47222222222222" y="0" dx="0em" dy="0.95em" fill="rgb(50, 49, 63)" stroke="none" stroke-width="1px">20</text><text style="text-anchor: middle; visibility: inherit; font-family: &quot;Helvetica Neue&quot;, sans-serif; font-size: 12px; font-weight: 200;" x="93.70833333333333" y="0" dx="0em" dy="0.95em" fill="rgb(50, 49, 63)" stroke="none" stroke-width="1px">40</text><text style="text-anchor: middle; visibility: inherit; font-family: &quot;Helvetica Neue&quot;, sans-serif; font-size: 12px; font-weight: 200;" x="124.94444444444444" y="0" dx="0em" dy="0.95em" fill="rgb(50, 49, 63)" stroke="none" stroke-width="1px">60</text><text style="text-anchor: middle; visibility: inherit; font-family: &quot;Helvetica Neue&quot;, sans-serif; font-size: 12px; font-weight: 200;" x="156.18055555555557" y="0" dx="0em" dy="0.95em" fill="rgb(50, 49, 63)" stroke="none" stroke-width="1px">80</text><text style="text-anchor: middle; visibility: inherit; font-family: &quot;Helvetica Neue&quot;, sans-serif; font-size: 12px; font-weight: 200;" x="187.41666666666666" y="0" dx="0em" dy="0.95em" fill="rgb(50, 49, 63)" stroke="none" stroke-width="1px">100</text><text style="text-anchor: middle; visibility: inherit; font-family: &quot;Helvetica Neue&quot;, sans-serif; font-size: 12px; font-weight: 200;" x="218.65277777777777" y="0" dx="0em" dy="0.95em" fill="rgb(50, 49, 63)" stroke="none" stroke-width="1px">120</text><text style="text-anchor: middle; visibility: inherit; font-family: &quot;Helvetica Neue&quot;, sans-serif; font-size: 12px; font-weight: 200;" x="249.88888888888889" y="0" dx="0em" dy="0.95em" fill="rgb(50, 49, 63)" stroke="none" stroke-width="1px">140</text><text style="text-anchor: middle; visibility: hidden; font-family: &quot;Helvetica Neue&quot;, sans-serif; font-size: 12px; font-weight: 200;" x="281.125" y="0" dx="0em" dy="0.95em" fill="rgb(50, 49, 63)" stroke="none" stroke-width="1px">160</text></g><line x1="0" y1="0" x2="281.125" y2="0" fill="rgb(0, 0, 0)" stroke="rgb(204, 204, 204)" stroke-width="1px"></line></g></g></g></g></svg>