<svg viewBox="0 0 330 200" xmlns="http://www.w3.org/2000/svg"><g><g><g><g><g><line x1="48.875" y1="165.65625" x2="43.875" y2="165.65625" style="visibility: inherit;" fill="rgb(0, 0, 0)" stroke="rgb(204, 204, 204)" stroke-width="1px"></line><line x1="48.875" y1="144.94921874999997" x2="43.875" y2="144.94921874999997" style="visibility: inherit;" fill="rgb(0, 0, 0)" stroke="rgb(204, 204, 204)" stroke-width="1px"></line><line x1="48.875" y1="124.2421875" x2="43.875" y2="124.2421875" style="visibility: inherit;" fill="rgb(0, 0, 0)" stroke="rgb(204, 204, 204)" stroke-width="1px"></line><line x1="48.875" y1="103.53515625" x2="43.875" y2="103.53515625" style="visibility: inherit;" fill="rgb(0, 0, 0)" stroke="rgb(204, 204, 204)" stroke-width="1px"></line><line x1="48.875" y1="82.82812499999999" x2="43.875" y2="82.82812499999999" style="visibility: inherit;" fill="rgb(0, 0, 0)" stroke="rgb(204, 204, 204)" stroke-width="1px"></line><line x1="48.875" y1="62.12109375" x2="43.875" y2="62.12109375" style="visibility: inherit;" fill="rgb(0, 0, 0)" stroke="rgb(204, 204, 204)" stroke-width="1px"></line><line x1="48.875" y1="41.414062499999986" x2="43.875" y2="41.414062499999986" style="visibility: inherit;" fill="rgb(0, 0, 0)" stroke="rgb(204, 204, 204)" stroke-width="1px"></line><line x1="48.875" y1="20.70703125000003" x2="43.875" y2="20.70703125000003" style="visibility: inherit;" fill="rgb(0, 0, 0)" stroke="rgb(204, 204, 204)" stroke-width="1px"></line><line x1="48.875" y1="0" x2="43.875" y2="0" style="visibility: inherit;" fill="rgb(0, 0, 0)" stroke="rgb(204, 204, 204)" stroke-width="1px"></line></g><g transform="translate(38.875, 0)"><text style="text-anchor: end; visibility: hidden; font-family: &quot;Helvetica Neue&quot;, sans-serif; font-size: 12px; font-weight: 200;" x="0" y="165.65625" dx="0em" dy="0.3em" fill="rgb(50, 49, 63)" stroke="none" stroke-width="1px">0.6</text><text style="text-anchor: end; visibility: inherit; font-family: &quot;Helvetica Neue&quot;, sans-serif; font-size: 12px; font-weight: 200;" x="0" y="144.94921874999997" dx="0em" dy="0.3em" fill="rgb(50, 49, 63)" stroke="none" stroke-width="1px">0.65</text><text style="text-anchor: end; visibility: hidden; font-family: &quot;Helvetica Neue&quot;, sans-serif; font-size: 12px; font-weight: 200;" x="0" y="124.2421875" dx="0em" dy="0.3em" fill="rgb(50, 49, 63)" stroke="none" stroke-width="1px">0.7</text><text style="text-anchor: end; visibility: inherit; font-family: &quot;Helvetica Neue&quot;, sans-serif; font-size: 12px; font-weight: 200;" x="0" y="103.53515625" dx="0em" dy="0.3em" fill="rgb(50, 49, 63)" stroke="none" stroke-width="1px">0.75</text><text style="text-anchor: end; visibility: hidden; font-family: &quot;Helvetica Neue&quot;, sans-serif; font-size: 12px; font-weight: 200;" x="0" y="82.82812499999999" dx="0em" dy="0.3em" fill="rgb(50, 49, 63)" stroke="none" stroke-width="1px">0.8</text><text style="text-anchor: end; visibility: inherit; font-family: &quot;Helvetica Neue&quot;, sans-serif; font-size: 12px; font-weight: 200;" x="0" y="62.12109375" dx="0em" dy="0.3em" fill="rgb(50, 49, 63)" stroke="none" stroke-width="1px">0.85</text><text style="text-anchor: end; visibility: hidden; font-family: &quot;Helvetica Neue&quot;, sans-serif; font-size: 12px; font-weight: 200;" x="0" y="41.414062499999986" dx="0em" dy="0.3em" fill="rgb(50, 49, 63)" stroke="none" stroke-width="1px">0.9</text><text style="text-anchor: end; visibility: inherit; font-family: &quot;Helvetica Neue&quot;, sans-serif; font-size: 12px; font-weight: 200;" x="0" y="20.70703125000003" dx="0em" dy="0.3em" fill="rgb(50, 49, 63)" stroke="none" stroke-width="1px">0.95</text><text style="text-anchor: end; visibility: hidden; font-family: &quot;Helvetica Neue&quot;, sans-serif; font-size: 12px; font-weight: 200;" x="0" y="0" dx="0em" dy="0.3em" fill="rgb(50, 49, 63)" stroke="none" stroke-width="1px">1</text></g><line x1="48.875" y1="0" x2="48.875" y2="165.65625" fill="rgb(0, 0, 0)" stroke="rgb(204, 204, 204)" stroke-width="1px"></line></g></g><g transform="translate(48, 0)" clip-path="url(#clip_0)"><clipPath id="clip_0"><rect width="281" height="165"></rect></clipPath><g><g><g><line x1="0" y1="0" x2="0" y2="165.65625" fill="rgb(0, 0, 0)" stroke="rgb(60, 60, 60)" stroke-width="1px" opacity="0.25"></line><line x1="28.1125" y1="0" x2="28.1125" y2="165.65625" fill="rgb(0, 0, 0)" stroke="rgb(60, 60, 60)" stroke-width="1px" opacity="0.25"></line><line x1="56.225" y1="0" x2="56.225" y2="165.65625" fill="rgb(0, 0, 0)" stroke="rgb(60, 60, 60)" stroke-width="1px" opacity="0.25"></line><line x1="84.33749999999999" y1="0" x2="84.33749999999999" y2="165.65625" fill="rgb(0, 0, 0)" stroke="rgb(60, 60, 60)" stroke-width="1px" opacity="0.25"></line><line x1="112.45" y1="0" x2="112.45" y2="165.65625" fill="rgb(0, 0, 0)" stroke="rgb(60, 60, 60)" stroke-width="1px" opacity="0.25"></line><line x1="140.5625" y1="0" x2="140.5625" y2="165.65625" fill="rgb(0, 0, 0)" stroke="rgb(60, 60, 60)" stroke-width="1px" opacity="0.25"></line><line x1="168.67499999999998" y1="0" x2="168.67499999999998" y2="165.65625" fill="rgb(0, 0, 0)" stroke="rgb(60, 60, 60)" stroke-width="1px" opacity="0.25"></line><line x1="196.7875" y1="0" x2="196.7875" y2="165.65625" fill="rgb(0, 0, 0)" stroke="rgb(60, 60, 60)" stroke-width="1px" opacity="0.25"></line><line x1="224.9" y1="0" x2="224.9" y2="165.65625" fill="rgb(0, 0, 0)" stroke="rgb(60, 60, 60)" stroke-width="1px" opacity="0.25"></line><line x1="253.01250000000002" y1="0" x2="253.01250000000002" y2="165.65625" fill="rgb(0, 0, 0)" stroke="rgb(60, 60, 60)" stroke-width="1px" opacity="0.25"></line><line x1="281.125" y1="0" x2="281.125" y2="165.65625" fill="rgb(0, 0, 0)" stroke="rgb(60, 60, 60)" stroke-width="1px" opacity="0.25"></line></g><g><line x1="0" y1="165.65625" x2="281.125" y2="165.65625" fill="rgb(0, 0, 0)" stroke="rgb(60, 60, 60)" stroke-width="1px" opacity="0.25"></line><line x1="0" y1="144.94921874999997" x2="281.125" y2="144.94921874999997" fill="rgb(0, 0, 0)" stroke="rgb(60, 60, 60)" stroke-width="1px" opacity="0.25"></line><line x1="0" y1="124.2421875" x2="281.125" y2="124.2421875" fill="rgb(0, 0, 0)" stroke="rgb(60, 60, 60)" stroke-width="1px" opacity="0.25"></line><line x1="0" y1="103.53515625" x2="281.125" y2="103.53515625" fill="rgb(0, 0, 0)" stroke="rgb(60, 60, 60)" stroke-width="1px" opacity="0.25"></line><line x1="0" y1="82.82812499999999" x2="281.125" y2="82.82812499999999" fill="rgb(0, 0, 0)" stroke="rgb(60, 60, 60)" stroke-width="1px" opacity="0.25"></line><line x1="0" y1="62.12109375" x2="281.125" y2="62.12109375" fill="rgb(0, 0, 0)" stroke="rgb(60, 60, 60)" stroke-width="1px" opacity="0.25"></line><line x1="0" y1="41.414062499999986" x2="281.125" y2="41.414062499999986" fill="rgb(0, 0, 0)" stroke="rgb(60, 60, 60)" stroke-width="1px" opacity="0.25"></line><line x1="0" y1="20.70703125000003" x2="281.125" y2="20.70703125000003" fill="rgb(0, 0, 0)" stroke="rgb(60, 60, 60)" stroke-width="1px" opacity="0.25"></line><line x1="0" y1="0" x2="281.125" y2="0" fill="rgb(0, 0, 0)" stroke="rgb(60, 60, 60)" stroke-width="1px" opacity="0.25"></line></g></g></g><g><g><line x1="0" y1="414.140625" x2="281.125" y2="414.140625" fill="rgb(0, 0, 0)" stroke="rgb(153, 153, 153)" stroke-width="1.5px"></line></g></g><g><g><line x1="-12333403.549999999" y1="0" x2="-12333403.549999999" y2="165.65625" fill="rgb(0, 0, 0)" stroke="rgb(153, 153, 153)" stroke-width="1.5px"></line></g></g><g><g><g><g><g><path style="fill: none;" stroke="rgb(0, 153, 136)" stroke-width="2px" d="M181.31352100694443,168.03495845799674L182.00310501388887,152.57856636918422L182.6982100034722,140.45590171079323L183.39265122569444,131.38740913729816L184.08259444791668,123.24487405390954L184.7764734201389,116.12759000836587L185.46990727777776,110.17995483465589L186.16438754513888,105.6545717226104L186.8581728090278,101.29488613223447L187.55256717708335,97.76742637739771L188.24626654166667,94.66614214873155L188.94015332291664,91.00321067545063L189.62934687847223,88.21034085570646L190.32645878819443,86.01211552041175L191.01869786458334,83.86681905324376L191.7104137361111,81.52253901859463L192.40446450694444,79.88277989798873L193.09406413194446,78.10405986762422L193.78543640625,76.19222430206665L194.47955745833332,74.07998571487813L195.1688837673611,73.02428635519101L195.85969379166667,71.2413493644001L196.55376018055557,69.42526111252135L197.24321924305556,68.65646134154008L197.93628607638888,67.17629552870673L198.63071948958336,65.87247624698853L199.32523880208333,63.87106637195731L200.01648613194445,63.389187387238394L200.71040414930553,62.50435882142057L201.4015031076389,61.250891008187025L202.09580376736113,60.27673686078961L202.7890892534722,59.25810953762573L203.47891534027775,58.49406570937123L204.16897569791666,57.68139415190882L204.86178483333333,56.79986282476351L205.55569504166667,55.96827005246017L206.24871502083334,55.318984537192364L206.94141482986112,55.05564093509646L207.63486430555557,53.935494096145405L208.3277827673611,52.87425655804984L209.01982661805556,52.00281186166535L209.71360407291667,51.34417916726315L210.40458589583335,51.002920819903L211.09784014583335,50.153421068818915L211.7916956909722,49.732734263835596L212.4810532361111,49.5492023812358L213.17135567361112,48.4063245705683L213.8640554826389,47.73476690474966L214.55721602430555,46.976747763074L215.25079044444445,46.53440699095475L215.93968725694444,45.879527254714844L216.62934154513889,45.637324220725375L217.32357192361113,45.06698115239341L218.01671684722223,44.24559582103656L218.71101750694444,43.60808263021319L219.40592727083336,43.084131356985026L220.10007955902776,42.691934655627946L220.7935758888889,42.3276341150828L221.48757980555555,41.79753281567264L222.17707791319444,41.726042615734144L222.87091003125002,40.75627732454991L223.5652575451389,40.330050276915784L224.25446671875002,40.099907150313584L224.9477678229167,39.35448867034637L225.64095960069446,39.1631093588574L226.33023124652777,38.60208104727283L227.01883131597222,38.28767042079639L227.71313978472224,37.78224029075544L228.40716712847222,37.900024286248865L229.09633725694445,37.05484276456457L229.78445316666668,36.91733300018498L230.47618465625,36.28989747138735L231.17048531597223,35.47699082477047L231.86432524305556,35.359507535521146L232.55793089930557,34.811516631543014L233.24952963541668,34.712161483704676L233.9426277048611,34.23635439751425L234.6368268472222,33.78873113052771L235.3310962708333,33.72226565968526L236.02188286805554,33.293078960204355L236.7155119513889,33.116582141801246L237.4103748611111,33.11704550697476L238.10411327083332,32.538536314750104L238.79795319791666,32.076182849457524L239.49109812152778,31.631684940159687L240.18525821875,31.540079742953424L240.87790336458332,31.292704287341365L241.5699706423611,30.911235652518968L242.25896116319444,30.531372942941005L242.95226226736114,30.27406077067056L243.64162762152776,29.903553939491502L244.33523327777777,29.681871895346063L245.0285812361111,29.54800364113035L245.72204632986112,29.824238439194488L246.41169280902778,29.298698969806537L247.10130024305556,28.540334205702152L247.78977536805556,27.88102472998213L248.48378709374998,28.024049430280996L249.17628386805555,27.806637336203494L249.8702253125,27.735196398207023L250.5651975486111,27.259658328970374L251.25428958680558,26.969872492793257L251.94325668055555,26.87532775856144L252.6368779548611,26.764018098679713L253.33003849652778,26.67314003082666L254.02419078472224,26.4864512804005L254.71877256944447,26.671947966760598L255.41204243750002,26.12707715451492L256.1046094930556,25.90293190424009L256.7982229583333,25.86464598577834L257.4927500798611,25.752029460603694L258.1827323472222,25.336573063245226L258.8751041770833,24.916658797210943L259.56434458680553,25.07560196047811L260.2584187847222,25.176230637510372L260.9530083784722,24.65147172631606" fill="none"></path></g><g><path style="fill: none;" stroke="rgb(238, 51, 119)" stroke-width="2px" d="M179.93407967708333,179.3897567690844L180.62398385416665,159.70426804279077L181.31355224305557,146.1957714524482L182.0031284409722,134.96769218093223L182.69823343055555,128.24278157717265L183.39268246180555,120.21213400032693L184.0826256840278,111.99157546662869L184.77649684722223,109.26019367693837L185.46993851388888,105.3286302495553L186.1644109722222,103.42294735392045L186.85819623611113,100.13143252410921L187.55259841319446,98.39840256755865L188.24628996875,93.90585209626852L188.94017674999998,92.30564349171891L189.62937811458335,89.23543113294072L190.32649002430554,86.78983651659955L191.01872910069446,85.95819998162925L191.71043716319443,85.00403802042133L192.40448793402777,83.31495073720446L193.0940875590278,81.50883640648614L193.7854676423611,81.18584327237467L194.47958088541665,80.86123921669525L195.16891500347222,79.255051701596L195.85971721874998,78.11421424486242L196.55379141666666,75.72736516324893L197.2432426701389,78.11058684411088L197.93630950347222,75.43083001006299L198.63075072569444,75.1428087578471L199.32527003819442,73.4984319838497L200.01651736805556,75.69530383071113L200.71042757638887,74.49698890430074L201.40152653472222,73.20972844172803L202.09582719444447,71.51340392197298L202.78912048958333,72.49503084593299L203.47895438541667,71.13115061242692L204.168999125,72.1264867401235L204.86180826041667,72.45815998075965L205.55572627777778,70.2027834668919L206.24873844791668,70.92213474995458L206.94143825694445,69.75313988740551L207.63488773263887,69.95821470163906L208.32780619444443,69.52528104598858L209.01985785416667,68.19230887713906L209.71363530902778,67.61125180857952L210.4046249409722,66.1780605016862L211.09787138194443,69.60615541711482L211.79172692708335,66.7862823302666L212.48107666319444,65.40030070997362L213.1713869097222,66.80754534964706L213.86408671875,66.17394973748709L214.55724726041666,65.10014229029991L215.25081387152775,64.109027845102L215.93971849305558,65.5835002548629L216.62936497222222,64.7165570452588L217.32360315972224,64.96886439888348L218.01674027430556,64.28988496188016L218.71104093402778,63.19674632533594L219.40595069791664,62.966753292958174L220.10011079513887,63.33002483778016L220.793607125,63.568910520495905L221.48761885069445,63.154594700021676L222.17710914930558,62.34092294453569L222.8709412673611,60.21466262581342L223.56528878125,60.63558493706519L224.2544979548611,60.954895639586056L224.94779905902777,61.65071158992802L225.64098302777776,59.919999910593376L226.33025467361114,59.93930263151242L227.0188703611111,59.31856086487774L227.71317102083333,59.02198671369379L228.40719836458334,58.949208939484464L229.0963606840278,60.57563041339024L229.7844844027778,59.38260613941972L230.4762158923611,58.247289827101355L231.17050874305556,59.53078531958636L231.8643486701389,59.213363384756306L232.5579621354167,59.139668877752314L233.24955306249998,60.28470200945837L233.94265113194444,60.10613790243805L234.63685027430554,59.47136880920792L235.33111969791665,58.703036478334454L236.02191410416668,59.395829805686375L236.71553537847223,58.307456862303184L237.41040609722222,57.01915740638823L238.10414450694446,57.068158656253516L238.797976625,57.21407121301837L239.49112154861112,57.11786580424693L240.18528164583333,57.65205215940584L240.87792679166665,57.69273815843293L241.57000187847223,56.42320715177257L242.25898459027778,56.247009746585505L242.95228569444444,56.948984719725956L243.6416510486111,57.53915131906419L244.3352645138889,58.015430693744094L245.02860466319444,57.30455829757061L245.72206975694445,55.99129114483358L246.41171623611112,55.54472032113112L247.10133147916667,55.160502993230466L247.78980660416664,55.17162598299349L248.48381832986112,54.805363256125815L249.1763072951389,54.80705704406746L249.87024873958333,54.88121903421491L250.5652287847222,53.94608890589777L251.25431301388886,54.373021077076785L251.94328010763888,54.71367118751124L252.63692480902776,54.705239602521715L253.3300697326389,56.18970511099441L254.02422202083335,58.27259641656724L254.7187959965278,56.40065405641168L255.41206586458333,56.11720305568977L256.1046329201389,56.544709663909714L256.79825419444444,56.35513139073373L257.49278131597225,54.62648141453754L258.1827557743056,53.633131464615985L258.87512760416666,55.58166036511689L259.5643680138889,54.95259569662946L260.2584422118056,54.2542063632049L260.9530396145833,54.74755894957113" fill="none"></path></g><g><path style="fill: none;" stroke="rgb(51, 187, 238)" stroke-width="2px" d="M13.069290406250001,165.69962603015315L13.746637666666667,154.53040605959146L14.427522416666667,145.94302687635627L15.105580298611113,139.1159081395714L15.782638625,133.8853537952296L16.459704760416667,129.2428987083021L17.13773921527778,125.50386670208161L17.814165010416666,122.11175973886435L18.493113121527777,119.31342882780136L19.172779663194444,116.66350024763145L19.849119559027777,114.1164482089672L20.528832954861112,112.44746087746054L21.208772812499998,109.94512772042036L21.889954305555555,108.47043399972046L22.569722364583335,107.2543654525626L23.249615368055554,105.93489435165617L23.928946121527776,103.89493928055035L24.60947165625,101.94313209134413L25.289880055555557,100.41167455667146L25.968937493055556,99.21027517984368L26.64867431597222,98.1654663358092L27.328957770833334,97.19687691541193L28.009272461805555,96.14964699455193L28.686955510416666,95.139772821816L29.36727801041667,93.6406274043794L30.04411768402778,93.36137841224904L30.723182930555556,92.35958466104441L31.39920265625,91.9276579802752L32.076549916666664,91.0062113313262L32.75677089930556,90.39964919861066L33.435039625,89.65295089027194L34.10981771527778,88.79822671234204L34.78885172569444,88.03420065321806L35.46794820833333,87.17441171857806L36.146771375,86.6335574384834L36.82578195833333,86.26234140957772L37.505143947916665,85.2385931198455L38.18520094097222,84.73935512337839L38.864625402777776,84.11732146764471L39.54480734027777,83.09106247071828L40.223302527777776,82.71682222485765L40.89765893055556,82.28824418102651L41.57685693055556,81.68954003079944L42.25750740972222,81.40434203355393L42.93774401041667,81.60604126935804L43.618402298611116,80.67370521200797L44.29500770138888,79.9305111392438L44.97137883333333,79.53624497199536L45.65335684722222,78.62275167387256L46.333288895833334,78.42042916651961L47.01029255902778,77.87754926390254L47.68810055208333,77.48669319708218L48.36917271875,77.14010112313363L49.04850347222222,77.71502622971204L49.72471842361111,77.72265986507692L50.40369777083334,76.70371344480245L51.084363868055554,75.71999163094651L51.76560783333333,75.08892016694546L52.44675809027778,74.17882546721752L53.12646367708333,73.82672131025109L53.80139794791667,73.25765895635377L54.476074520833336,73.18329030262224L55.155631736111104,73.12368055760439L55.83536075000001,72.45219469602155L56.51351234027778,72.09373564778419L57.19390512152778,72.10409081732425L57.87507099652778,71.8336969904911L58.554940572916664,71.52765747787423L59.23505222916667,70.92956770215548L59.91418775694444,70.62019185910594L60.59034804513889,70.61684808769807L61.27039722916667,69.94405965552619L61.94931410416667,69.72309290756814L62.62331910069444,69.44463612706978L63.301986086805556,69.33252008562695L63.98043442013889,69.16525765839467L64.6598745,68.75424812858255L65.33968160416667,68.16479160822898L66.01837201736112,67.9720718454568L66.69664855208333,67.59464388214043L67.37351946180556,67.02645205034312L68.05349836458333,67.42885265729424L68.73308681597221,67.87732857790053L69.4102154236111,66.81393376299117L70.08546986458333,66.8576785478495L70.76505831597223,66.32271371728196L71.44014876736111,66.76003907774995L72.12048688541667,66.06447026859291L72.79813088888889,65.78963872108201L73.4783440625,64.84209641479454L74.15862751736111,64.72232909113474L74.83330409027778,64.67309963433627L75.51304091319444,64.61014874378554L76.18971659722223,64.03611780762499L76.8693128576389,63.56540242208435L77.5493151875,64.028224177649L78.22721688888889,63.796266940975386L78.90637584375,63.321469478082165L79.58494912152777,62.975896248085235L80.26549808333334,63.955373171039184L80.94302495138889,63.126394240151484L81.62167631944445,62.71846425195969L82.30167084027778,62.0399762472387L82.98066580555556,61.52524825742101L83.6602386388889,61.68627000934035L84.33504015625,62.01721990048081L85.01140347916666,62.20456323140374L85.69075765972222,62.01878786937003L86.36890925,61.74705967444544L87.04442138888889,61.67198917165915L87.72278382291665,61.37759185557374L88.3992252361111,61.09249874673668L89.07325365972223,60.59473587593365L89.75426335416667,60.52974356946902L90.43531209375001,60.606391090825554L91.11462722916667,60.19988921615503" fill="none"></path></g><g><path style="fill: none;" stroke="rgb(204, 51, 17)" stroke-width="2px" d="M11.705154770833333,168.15994223294666L12.387796552083334,156.8600164434482L13.069313833333334,148.75741493731465L13.74666109375,142.7959377971853L14.42754584375,136.4179476189337L15.105611534722222,134.33808363842135L15.782662052083333,128.72283706038962L16.459735996527776,125.4310243005101L17.13777045138889,123.50038372316138L17.814188437499997,120.90357114590826L18.493144357638887,118.59314195383601L19.172803090277778,117.60570281511849L19.849142986111108,115.68394680655318L20.52886419097222,116.13524504720661L21.208796239583332,115.53724930407722L21.889985541666668,114.00935003205143L22.56974579166667,114.49782905990446L23.249646604166664,112.97739396477566L23.92897735763889,111.01580853713752L24.609502892361114,108.21852984614313L25.289903482638888,108.18097173616066L25.96896092013889,105.7274560606609L26.64870555208333,106.22571258571881L27.328981197916665,106.29163170906868L28.009303697916668,107.03961511733576L28.68698674652778,107.44183941653534L29.367309246527775,104.8233608635833L30.044148920138888,104.76494352241755L30.72321416666667,106.77291805613591L31.399226083333335,106.89633471796789L32.07658115277778,105.97990594283016L32.75680213541667,106.16188110806053L33.435070861111114,104.95274496062223L34.10984895138889,103.41191760229928L34.78887515277778,102.23371179955926L35.467979444444445,102.90003795346814L36.14680261111111,102.58525093304235L36.82581319444444,101.39064485364683L37.505167375,100.63003129731824L38.18522436805556,101.21143777753797L38.86465663888889,101.1173788172384L39.544838576388884,99.84213120243986L40.22333376388889,100.25490712715232L40.89769016666667,100.52844225262648L41.57688816666667,101.42438583538333L42.25753083680555,101.46978833990136L42.9377674375,100.24325418823403L43.61842572569444,102.30581893723452L44.295031128472225,101.5784256596902L44.97140226041667,101.0954442137191L45.65339589236111,100.08612582169054L46.33332013194445,100.1475945023125L47.010323795138895,98.89594399190919L47.68813178819445,98.67874561701389L48.36920395486111,97.88901913473993L49.04852689930556,97.78860358631603L49.72474185069445,97.23028603076027L50.40372119791667,98.3205311116075L51.08439510416667,97.6625182418671L51.76563126041667,97.40515495657309L52.446789326388895,95.9885685313903L53.12649491319444,96.27219756583347L53.801429184027775,96.75743081131567L54.476097947916664,98.30457791028316L55.155662972222224,98.3293467292213L55.835384177083334,97.30668025450548L56.513543576388884,95.20948023937129L57.19393635763889,94.95170043463693L57.875110041666666,95.25398593391586L58.554964,96.4674543644971L59.235075656250004,96.55410830451464L59.91421118402778,96.54796325168563L60.59037928125,95.58165172227653L61.27042846527778,96.22338248670658L61.94933753125,96.85327346961537L62.62334252777778,97.87534062134227L63.30201732291667,96.78919696624281L63.98045784722222,96.90455341750504L64.65989792708334,97.82409612671505L65.33970503125,96.89589470601658L66.01839544444444,96.90995082431483L66.69667197916667,96.65925433776349L67.37355069791667,95.26120234603624L68.05352960069445,96.74249643281064L68.73311024305556,98.08327945214491L69.41023885069444,96.81788739348639L70.08549329166667,95.71477447210364L70.76508955208332,94.76398705994255L71.44017219444444,95.68352289232709L72.1205103125,95.50070656676948L72.79815431597223,95.57748503179761L73.47836748958333,95.1508597608889L74.15865875347222,96.68467380748598L74.83333532638889,96.50068702747765L75.51307214930556,96.3641785417518L76.18974002430555,95.32308506351833L76.86934409375,96.19362104427593L77.54933861458333,95.59640240329072L78.22724031597222,94.88038984556538L78.90640707986111,93.77685037326542L79.5849803576389,95.28066143138246L80.26552151041668,95.66098504546602L80.94304837847221,96.00569102076184L81.62169974652778,95.9706242462694L82.30170988541667,94.97906057831341L82.98068923263888,94.15406092842936L83.660269875,93.50731932090534L84.33507139236112,94.18563385772295L85.01143471527777,94.38299019242872L85.69078889583334,94.81053548890681L86.3689404861111,94.42587252162888L87.04444481597223,94.97937693120832L87.72281505902778,97.30498671820341L88.39924866319444,95.85851113485145L89.07327708680556,94.73420107096042L89.75429459027778,94.60423861245576L90.43534332986111,93.93458851009763L91.11465065625,94.0865356215397" fill="none"></path></g></g></g></g><g opacity="0.20000000298023224"><g><g><g><path style="fill: none;" stroke="rgb(0, 153, 136)" stroke-width="2px" d="M179.93405625,173.38507058098912L180.62396042708332,154.0313733369112L181.31352100694443,140.86840258911252L182.00310501388887,131.19681180920452L182.6982100034722,123.12029728665948L183.39265122569444,118.1654599076137L184.08259444791668,111.23621641192585L184.7764734201389,105.55925267748535L185.46990727777776,101.31244668737052L186.16438754513888,98.89112398959695L186.8581728090278,94.76959287654607L187.55256717708335,92.48314740601926L188.24626654166667,90.01786124892531L188.94015332291664,85.51139684859662L189.62934687847223,84.02221797499804L190.32645878819443,82.71533564664423L191.01869786458334,80.64920116681606L191.7104137361111,78.00633324310184L192.40446450694444,77.42323114536703L193.09406413194446,75.43603835161775L193.78543640625,73.32450869958848L194.47955745833332,70.91165285557508L195.1688837673611,71.44074481911957L195.85969379166667,68.56695148162544L196.55376018055557,66.70113338157535L197.24321924305556,67.5032628653571L197.93628607638888,64.95604817289859L198.63071948958336,63.916748045012355L199.32523880208333,60.86895222309977L200.01648613194445,62.66636900603771L200.71040414930553,61.177116078324616L201.4015031076389,59.370689378120005L202.09580376736113,58.81550568155944L202.7890892534722,57.730168579146266L203.47891534027775,57.34799997881055L204.16897569791666,56.462386823259294L204.86178483333333,55.47756583895534L205.55569504166667,54.720880896784365L206.24871502083334,54.345056265592575L206.94141482986112,54.66062553226948L207.63486430555557,52.2552738385275L208.3277827673611,51.2824002513662L209.01982661805556,50.69564481731504L209.71360407291667,50.35623012576252L210.40458589583335,50.49103329889476L211.09784014583335,48.87917144224048L211.7916956909722,49.10170405637473L212.4810532361111,49.27390455733985L213.17135567361112,46.69200785458088L213.8640554826389,46.72743040602654L214.55721602430555,45.83971905056387L215.25079044444445,45.87089583277702L215.93968725694444,44.897207650355995L216.62934154513889,45.27401966974139L217.32357192361113,44.211466549895704L218.01671684722223,43.01351782400161L218.71101750694444,42.651812843978405L219.40592727083336,42.29820444714278L220.10007955902776,42.103639603592455L220.7935758888889,41.78118330426514L221.48757980555555,41.00238086655736L222.17707791319444,41.618807315826416L222.87091003125002,39.30162938777357L223.5652575451389,39.69070970546454L224.25446671875002,39.7546924604103L224.9477678229167,38.236360950395465L225.64095960069446,38.876040391623974L226.33023124652777,37.76053857989609L227.01883131597222,37.816054481081665L227.71313978472224,37.024095095694065L228.40716712847222,38.07670027948916L229.09633725694445,35.78707048203796L229.78445316666668,36.7110683536157L230.47618465625,35.34874417819083L231.17048531597223,34.25763085484505L231.86432524305556,35.18328260164708L232.55793089930557,33.98953027557582L233.24952963541668,34.563128761947155L233.9426277048611,33.52264376822859L234.6368268472222,33.11729623004794L235.3310962708333,33.62256745342165L236.02188286805554,32.64929891098291L236.7155119513889,32.85183691419661L237.4103748611111,33.117740554735065L238.10411327083332,31.670772526413202L238.79795319791666,31.382652651518583L239.49109812152778,30.964938076213002L240.18525821875,31.402671947143972L240.87790336458332,30.92164110392332L241.5699706423611,30.339032700285316L242.25896116319444,29.961578878574073L242.95226226736114,29.888092512264848L243.64162762152776,29.347793692722917L244.33523327777777,29.349348829127848L245.0285812361111,29.347201259806752L245.72204632986112,30.23859063629061L246.41169280902778,28.51038976572454L247.10130024305556,27.402787059545517L247.78977536805556,26.892060516402125L248.48378709374998,28.238586480729282L249.17628386805555,27.480519195087254L249.8702253125,27.62803499121219L250.5651975486111,26.54635122511536L251.25428958680558,26.535193738527596L251.94325668055555,26.73351065721363L252.6368779548611,26.597053608857095L253.33003849652778,26.536822929047048L254.02419078472224,26.206418154761195L254.71877256944447,26.950192996300757L255.41204243750002,25.30977093614638L256.1046094930556,25.566714028827846L256.7982229583333,25.80721710808575L257.4927500798611,25.583104672841728L258.1827323472222,24.71338846720755L258.8751041770833,24.286787398159504L259.56434458680553,25.31401670537889L260.2584187847222,25.327173653058708L260.9530083784722,23.864333359524608" fill="none"></path></g><g><path style="fill: none;" stroke="rgb(238, 51, 119)" stroke-width="2px" d="M179.24442538888889,176.0805662954226L179.93407967708333,154.12263269070536L180.62398385416665,136.5541333006695L181.31355224305557,128.55907830409706L182.0031284409722,119.43521643988788L182.69823343055555,118.62605181522667L183.39268246180555,108.50337273906916L184.0826256840278,99.86784839071332L184.77649684722223,105.20441004540771L185.46993851388888,99.4669440994039L186.1644109722222,100.57479365263133L186.85819623611113,95.2049076464027L187.55259841319446,95.8022528188303L188.24628996875,87.17230721376835L188.94017674999998,89.90645917598157L189.62937811458335,84.63141180574893L190.32649002430554,83.12206552829592L191.01872910069446,84.71087187062948L191.71043716319443,83.57288229279219L192.40448793402777,80.78141244594008L193.0940875590278,78.79972434137017L193.7854676423611,80.70135994814336L194.47958088541665,80.37433697842062L195.16891500347222,76.84578184504062L195.85971721874998,76.40296292491257L196.55379141666666,72.14709764812142L197.2432426701389,81.68541570659727L197.93630950347222,71.41119722742587L198.63075072569444,74.71077703870833L199.32527003819442,71.03186736814678L200.01651736805556,78.9906111638993L200.71042757638887,72.69951665773988L201.40152653472222,71.27883784007281L202.09582719444447,68.96891721524298L202.78912048958333,73.96747120656073L203.47895438541667,69.08533028326929L204.168999125,73.61949092242867L204.86180826041667,72.95566983986646L205.55572627777778,66.81971870362759L206.24873844791668,72.00116167310625L206.94143825694445,67.99964759498835L207.63488773263887,70.26582692284137L208.32780619444443,68.87588056270033L209.01985785416667,66.19285062421113L209.71363530902778,66.73966620583087L210.4046249409722,64.0282735414803L211.09787138194443,74.74829779006541L211.79172692708335,62.556472700089216L212.48107666319444,63.321328279562294L213.1713869097222,68.91841230913997L213.86408671875,65.22355631925166L214.55724726041666,63.48943111952394L215.25081387152775,62.622356177307665L215.93971849305558,67.79520886950195L216.62936497222222,63.41614223085344L217.32360315972224,65.34732542932034L218.01674027430556,63.271415806375444L218.71104093402778,61.55703837051988L219.40595069791664,62.6217637443915L220.10011079513887,63.874932155013084L220.793607125,63.92723904456943L221.48761885069445,62.5331209693104L222.17710914930558,61.120415311306715L222.8709412673611,57.02527214772999L223.56528878125,61.26696840394288L224.2544979548611,61.43386169336736L224.94779905902777,62.694435515441L225.64098302777776,57.32393239159137L226.33025467361114,59.96825671289116L227.0188703611111,58.387448214925826L227.71317102083333,58.577125486917794L228.40719836458334,58.840042278170586L229.0963606840278,63.01526262424886L229.7844844027778,57.59306972846389L230.4762158923611,56.54431535862386L231.17050874305556,61.45602855831385L231.8643486701389,58.73723048251122L232.5579621354167,59.02912711724639L233.24955306249998,62.00225170701742L233.94265113194444,59.8382917419076L234.63685027430554,58.519215169362724L235.33111969791665,57.55053798202425L236.02191410416668,60.43501979671419L236.71553537847223,56.67489744722843L237.41040609722222,55.08670822251588L238.10414450694446,57.14166053105146L238.797976625,57.43294004816562L239.49112154861112,56.97355769108981L240.18528164583333,58.453331692144275L240.87792679166665,57.75376715697348L241.57000187847223,54.518910641781986L242.25898459027778,55.98271363880485L242.95228569444444,58.001947179436684L243.6416510486111,58.42440121807158L244.3352645138889,58.72984975576401L245.02860466319444,56.23824970331043L245.72206975694445,54.02139041572809L246.41171623611112,54.87486408557743L247.10133147916667,54.58417700137943L247.78980660416664,55.188310467638075L248.48381832986112,54.255969165824354L249.1763072951389,54.809597725979984L249.87024873958333,54.99246201943606L250.5652287847222,52.54339371342212L251.25431301388886,55.01341933384538L251.94328010763888,55.224646353162825L252.63692480902776,54.692592225037515L253.3300697326389,58.41640337370336L254.02422202083335,61.39693337492645L254.7187959965278,53.59274051617831L255.41206586458333,55.692026554606855L256.1046329201389,57.185969576239586L256.79825419444444,56.07076398096979L257.49278131597225,52.033506450243294L258.1827557743056,52.14310653973371L258.87512760416666,58.504453715868294L259.5643680138889,54.00899869389832L260.2584422118056,53.20662236306816L260.9530396145833,55.48758782912046" fill="none"></path></g><g><path style="fill: none;" stroke="rgb(51, 187, 238)" stroke-width="2px" d="M11.705115725694444,167.2507486352697L12.387765315972223,154.53938456252217L13.069290406250001,145.10834623128176L13.746637666666667,139.0793539211154L14.427522416666667,133.66293724626303L15.105580298611113,129.16190348099917L15.782638625,126.17130212020129L16.459704760416667,122.34939395450056L17.13773921527778,119.92923143785447L17.814165010416666,117.04205899033695L18.493113121527777,115.12506949715316L19.172779663194444,112.693798863329L19.849119559027777,110.29886411502957L20.528832954861112,109.94515697937459L21.208772812499998,106.19268688838929L21.889954305555555,106.25876784324646L22.569722364583335,105.43044788762927L23.249615368055554,103.95580830518156L23.928946121527776,100.8351185498759L24.60947165625,99.01548553258179L25.289880055555557,98.11451849061994L25.968937493055556,97.40819034632294L26.64867431597222,96.59826049581169L27.328957770833334,95.74399691540746L28.009272461805555,94.5788047928363L28.686955510416666,93.62496311310677L29.36727801041667,91.39191065914927L30.04411768402778,92.94250507839023L30.723182930555556,90.85689436644314L31.39920265625,91.27976804506032L32.076549916666664,89.62404146790503L32.75677089930556,89.48980604298411L33.435039625,88.53290345985441L34.10981771527778,87.51614046748726L34.78885172569444,86.888161576353L35.46794820833333,85.88472832459955L36.146771375,85.82227602135389L36.82578195833333,85.70551736745982L37.505143947916665,83.70297068729995L38.18520094097222,83.99049812927841L38.864625402777776,83.18427098449318L39.54480734027777,81.55167397577316L40.223302527777776,82.15546185616404L40.89765893055556,81.64537711534649L41.57685693055556,80.79148380551487L42.25750740972222,80.97654503770173L42.93774401041667,81.90859012305737L43.618402298611116,79.27520112600178L44.29500770138888,78.8157200301066L44.97137883333333,78.9448457211256L45.65335684722222,77.25251172669232L46.333288895833334,78.1169454054907L47.01029255902778,77.0632294099778L47.68810055208333,76.90040909685194L48.36917271875,76.62021301221102L49.04850347222222,78.57741388957947L49.72471842361111,77.7341103181243L50.40369777083334,75.1752938143909L51.084363868055554,74.24440891016275L51.76560783333333,74.14231297094375L52.44675809027778,72.81368341762573L53.12646367708333,73.29856507480145L53.80139794791667,72.40406542550772L54.476074520833336,73.071737322025L55.155631736111104,73.0342659400776L55.83536075000001,71.44496590364724L56.51351234027778,71.55604707542807L57.19390512152778,72.11962357163429L57.87507099652778,71.4281062502414L58.554940572916664,71.06859820894897L59.23505222916667,70.03243303857744L59.91418775694444,70.1561280945316L60.59034804513889,70.61183243058622L61.27039722916667,68.93487700726837L61.94931410416667,69.39164278563112L62.62331910069444,69.02695095632225L63.301986086805556,69.16434602346271L63.98043442013889,68.91436401754618L64.6598745,68.13773383386433L65.33968160416667,67.28060682769865L66.01837201736112,67.68299220129848L66.69664855208333,67.02850193716586L67.37351946180556,66.17416430264711L68.05349836458333,68.03245356772095L68.73308681597221,68.55004245880991L69.4102154236111,65.21884154062718L70.08546986458333,66.923295725137L70.76505831597223,65.52026647143066L71.44014876736111,67.4160271184519L72.12048688541667,65.02111705485731L72.79813088888889,65.37739139981568L73.4783440625,63.42078295536339L74.15862751736111,64.54267810564488L74.83330409027778,64.59925544913858L75.51304091319444,64.5157224079594L76.18971659722223,63.17507140338421L76.8693128576389,62.859329343773425L77.5493151875,64.72245681099594L78.22721688888889,63.44833108596504L78.90637584375,62.60927328374237L79.58494912152777,62.45753640308976L80.26549808333334,65.42458855547011L80.94302495138889,61.882925843819976L81.62167631944445,62.106569269672036L82.30167084027778,61.022244240157306L82.98066580555556,60.75315627269447L83.6602386388889,61.92780263721943L84.33504015625,62.5136447371915L85.01140347916666,62.48557822778821L85.69075765972222,61.740124826319516L86.36890925,61.3394673820585L87.04442138888889,61.559383417479694L87.72278382291665,60.935995881445706L88.3992252361111,60.66485908348113L89.07325365972223,59.84809156972915L89.75426335416667,60.432255109772086L90.43531209375001,60.72136237286031L91.11462722916667,59.590136404149234" fill="none"></path></g><g><path style="fill: none;" stroke="rgb(204, 51, 17)" stroke-width="2px" d="M11.022200628472222,175.35883489530534L11.705154770833333,152.3890999238938L12.387796552083334,143.57130371499807L13.069313833333334,138.1786584109068L13.74666109375,134.54906878061593L14.42754584375,127.29731961619109L15.105611534722222,131.30562198814005L15.782662052083333,120.44143906328827L16.459735996527776,120.5430659931153L17.13777045138889,120.62193362507969L17.814188437499997,117.02248401939869L18.493144357638887,115.1350421179086L19.172803090277778,116.12647860310972L19.849142986111108,112.80357174575329L20.52886419097222,116.81187411770225L21.208796239583332,114.64050874114037L21.889985541666668,111.71788905747235L22.56974579166667,115.23047318682075L23.249646604166664,110.69688029587269L23.92897735763889,108.07353797368705L24.609502892361114,104.02270385529846L25.289903482638888,108.12463531270623L25.96896092013889,102.04721161164343L26.64870555208333,106.97309383191168L27.328981197916665,106.39051011297852L28.009303697916668,108.16158831585199L28.68698674652778,108.04517524782568L29.367309246527775,100.89564544614403L30.044148920138888,104.67731754295528L30.72321416666667,109.78487919084728L31.399226083333335,107.08145968616009L32.07658115277778,104.60526288952678L32.75680213541667,106.43484384287149L33.435070861111114,103.13904079142958L34.10984895138889,101.10067660454659L34.78887515277778,100.46640311367808L35.467979444444445,103.89952717814595L36.14680261111111,102.11307040415704L36.82581319444444,99.59873573854564L37.505167375,99.48911096435039L38.18522436805556,102.08354749716818L38.86465663888889,100.97629037685691L39.544838576388884,97.92925978079437L40.22333376388889,100.87407101411371L40.89769016666667,100.93874494079499L41.57688816666667,102.76830120943487L42.25753083680555,101.53789209667592L42.9377674375,98.40345296077429L43.61842572569444,105.39966606069356L44.295031128472225,100.48733574338256L44.97140226041667,100.37097204476594L45.65339589236111,98.5721482336521L46.33332013194445,100.2397975232452L47.010323795138895,97.01846822630613L47.68813178819445,98.35294805467127L48.36920395486111,96.70442941132931L49.04852689930556,97.6379802636802L49.72474185069445,96.39280969742684L50.40372119791667,99.95589873287825L51.08439510416667,96.67549893725662L51.76563126041667,97.01911002863197L52.446789326388895,93.86368889361619L53.12649491319444,96.69764111749826L53.801429184027775,97.48528067953883L54.476097947916664,100.62529855873434L55.155662972222224,98.36649995762853L55.835384177083334,95.77268054243176L56.513543576388884,92.06368021667002L57.19393635763889,94.56503072753547L57.875110041666666,95.70741418283431L58.554964,98.28765701036899L59.235075656250004,96.684089214541L59.91421118402778,96.538745672442L60.59037928125,94.13218442816286L61.27042846527778,97.18597863335161L61.94933753125,97.79810994397847L62.62334252777778,99.40844134893267L63.30201732291667,95.15998148359357L63.98045784722222,97.07758809439837L64.65989792708334,99.20341019053011L65.33970503125,95.50359257496892L66.01839544444444,96.9310350017622L66.69667197916667,96.28320960793643L67.37355069791667,93.16412435844539L68.05352960069445,98.9644375629723L68.73311024305556,100.0944539811462L69.41023885069444,94.91979930549859L70.08549329166667,94.06010509002952L70.76508955208332,93.33780594170092L71.44017219444444,97.06282664090394L72.1205103125,95.22648207843302L72.79815431597223,95.69265272933988L73.47836748958333,94.51092185452579L74.15865875347222,98.98539487738161L74.83333532638889,96.2247068574652L75.51307214930556,96.15941581316291L76.18974002430555,93.76144484616815L76.86934409375,97.49942501541226L77.54933861458333,94.70057444181292L78.22724031597222,93.80637100897728L78.90640707986111,92.12154116481541L79.5849803576389,97.53637801855801L80.26552151041668,96.2314704665914L80.94304837847221,96.52274998370557L81.62169974652778,95.91802408453076L82.30170988541667,93.49171507637946L82.98068923263888,92.9165614536032L83.660269875,92.53720690961926L84.33507139236112,95.20310566294937L85.01143471527777,94.67902469448744L85.69078889583334,95.4518534336239L86.3689404861111,93.84887807071208L87.04444481597223,95.80963354557751L87.72281505902778,100.79340139869599L88.39924866319444,93.68879775982349L89.07327708680556,93.04773597512393L89.75429459027778,94.40929492469876L90.43534332986111,92.93011335656045L91.11465065625,94.31445628870277" fill="none"></path></g></g></g></g></g></g><g transform="translate(48, 165)" clip-path="url(#clip_1)"><clipPath id="clip_1"><rect width="281" height="34"></rect></clipPath><g><g visibility="inherit"><g><g transform="translate(0,0)" style="visibility: hidden;"><text transform="translate(3,14.171875)" style="text-anchor: start; font-family: &quot;Helvetica Neue&quot;, sans-serif; font-size: 12px; font-weight: 200;" fill="rgb(50, 49, 63)" stroke="none" stroke-width="1px">03 PM</text></g><g transform="translate(28.1125,0)" style="visibility: hidden;"><text transform="translate(3,14.171875)" style="text-anchor: start; font-family: &quot;Helvetica Neue&quot;, sans-serif; font-size: 12px; font-weight: 200;" fill="rgb(50, 49, 63)" stroke="none" stroke-width="1px">04 PM</text></g><g transform="translate(56.225,0)" style="visibility: hidden;"><text transform="translate(3,14.171875)" style="text-anchor: start; font-family: &quot;Helvetica Neue&quot;, sans-serif; font-size: 12px; font-weight: 200;" fill="rgb(50, 49, 63)" stroke="none" stroke-width="1px">05 PM</text></g><g transform="translate(84.33749999999999,0)" style="visibility: hidden;"><text transform="translate(3,14.171875)" style="text-anchor: start; font-family: &quot;Helvetica Neue&quot;, sans-serif; font-size: 12px; font-weight: 200;" fill="rgb(50, 49, 63)" stroke="none" stroke-width="1px">06 PM</text></g><g transform="translate(112.45,0)" style="visibility: hidden;"><text transform="translate(3,14.171875)" style="text-anchor: start; font-family: &quot;Helvetica Neue&quot;, sans-serif; font-size: 12px; font-weight: 200;" fill="rgb(50, 49, 63)" stroke="none" stroke-width="1px">07 PM</text></g><g transform="translate(140.5625,0)" style="visibility: hidden;"><text transform="translate(3,14.171875)" style="text-anchor: start; font-family: &quot;Helvetica Neue&quot;, sans-serif; font-size: 12px; font-weight: 200;" fill="rgb(50, 49, 63)" stroke="none" stroke-width="1px">08 PM</text></g><g transform="translate(168.67499999999998,0)" style="visibility: hidden;"><text transform="translate(3,14.171875)" style="text-anchor: start; font-family: &quot;Helvetica Neue&quot;, sans-serif; font-size: 12px; font-weight: 200;" fill="rgb(50, 49, 63)" stroke="none" stroke-width="1px">09 PM</text></g><g transform="translate(196.7875,0)" style="visibility: hidden;"><text transform="translate(3,14.171875)" style="text-anchor: start; font-family: &quot;Helvetica Neue&quot;, sans-serif; font-size: 12px; font-weight: 200;" fill="rgb(50, 49, 63)" stroke="none" stroke-width="1px">10 PM</text></g><g transform="translate(224.9,0)" style="visibility: hidden;"><text transform="translate(3,14.171875)" style="text-anchor: start; font-family: &quot;Helvetica Neue&quot;, sans-serif; font-size: 12px; font-weight: 200;" fill="rgb(50, 49, 63)" stroke="none" stroke-width="1px">11 PM</text></g><g transform="translate(253.01250000000002,0)" style="visibility: hidden;"><text transform="translate(3,14.171875)" style="text-anchor: start; font-family: &quot;Helvetica Neue&quot;, sans-serif; font-size: 12px; font-weight: 200;" fill="rgb(50, 49, 63)" stroke="none" stroke-width="1px">12 AM</text></g><g transform="translate(281.125,0)" style="visibility: hidden;"><text transform="translate(3,14.171875)" style="text-anchor: start; font-family: &quot;Helvetica Neue&quot;, sans-serif; font-size: 12px; font-weight: 200;" fill="rgb(50, 49, 63)" stroke="none" stroke-width="1px">01 AM</text></g></g><g><line x1="0" y1="0" x2="0" y2="17.171875" fill="rgb(0, 0, 0)" stroke="rgb(204, 204, 204)" stroke-width="1px"></line><line x1="28.1125" y1="0" x2="28.1125" y2="17.171875" fill="rgb(0, 0, 0)" stroke="rgb(204, 204, 204)" stroke-width="1px"></line><line x1="56.225" y1="0" x2="56.225" y2="17.171875" fill="rgb(0, 0, 0)" stroke="rgb(204, 204, 204)" stroke-width="1px"></line><line x1="84.33749999999999" y1="0" x2="84.33749999999999" y2="17.171875" fill="rgb(0, 0, 0)" stroke="rgb(204, 204, 204)" stroke-width="1px"></line><line x1="112.45" y1="0" x2="112.45" y2="17.171875" fill="rgb(0, 0, 0)" stroke="rgb(204, 204, 204)" stroke-width="1px"></line><line x1="140.5625" y1="0" x2="140.5625" y2="17.171875" fill="rgb(0, 0, 0)" stroke="rgb(204, 204, 204)" stroke-width="1px"></line><line x1="168.67499999999998" y1="0" x2="168.67499999999998" y2="17.171875" fill="rgb(0, 0, 0)" stroke="rgb(204, 204, 204)" stroke-width="1px"></line><line x1="196.7875" y1="0" x2="196.7875" y2="17.171875" fill="rgb(0, 0, 0)" stroke="rgb(204, 204, 204)" stroke-width="1px"></line><line x1="224.9" y1="0" x2="224.9" y2="17.171875" fill="rgb(0, 0, 0)" stroke="rgb(204, 204, 204)" stroke-width="1px"></line><line x1="253.01250000000002" y1="0" x2="253.01250000000002" y2="17.171875" fill="rgb(0, 0, 0)" stroke="rgb(204, 204, 204)" stroke-width="1px"></line><line x1="281.125" y1="0" x2="281.125" y2="17.171875" fill="rgb(0, 0, 0)" stroke="rgb(204, 204, 204)" stroke-width="1px"></line></g><line style="visibility: inherit;" x1="0" y1="0" x2="281.125" y2="0" fill="rgb(0, 0, 0)" stroke="rgb(204, 204, 204)" stroke-width="1px"></line></g><g visibility="inherit"><g><g transform="translate(14.05625,0)" style="visibility: hidden;"><text transform="translate(0,31.34375)" style="text-anchor: middle; font-family: &quot;Helvetica Neue&quot;, sans-serif; font-size: 12px; font-weight: 200;" fill="rgb(50, 49, 63)" stroke="none" stroke-width="1px">January 18, 2020</text></g><g transform="translate(42.168749999999996,0)" style="visibility: hidden;"><text transform="translate(0,31.34375)" style="text-anchor: middle; font-family: &quot;Helvetica Neue&quot;, sans-serif; font-size: 12px; font-weight: 200;" fill="rgb(50, 49, 63)" stroke="none" stroke-width="1px">January 18, 2020</text></g><g transform="translate(70.28125,0)" style="visibility: hidden;"><text transform="translate(0,31.34375)" style="text-anchor: middle; font-family: &quot;Helvetica Neue&quot;, sans-serif; font-size: 12px; font-weight: 200;" fill="rgb(50, 49, 63)" stroke="none" stroke-width="1px">January 18, 2020</text></g><g transform="translate(98.39375,0)" style="visibility: hidden;"><text transform="translate(0,31.34375)" style="text-anchor: middle; font-family: &quot;Helvetica Neue&quot;, sans-serif; font-size: 12px; font-weight: 200;" fill="rgb(50, 49, 63)" stroke="none" stroke-width="1px">January 18, 2020</text></g><g transform="translate(126.50625000000001,0)" style="visibility: hidden;"><text transform="translate(0,31.34375)" style="text-anchor: middle; font-family: &quot;Helvetica Neue&quot;, sans-serif; font-size: 12px; font-weight: 200;" fill="rgb(50, 49, 63)" stroke="none" stroke-width="1px">January 18, 2020</text></g><g transform="translate(154.61875,0)" style="visibility: hidden;"><text transform="translate(0,31.34375)" style="text-anchor: middle; font-family: &quot;Helvetica Neue&quot;, sans-serif; font-size: 12px; font-weight: 200;" fill="rgb(50, 49, 63)" stroke="none" stroke-width="1px">January 18, 2020</text></g><g transform="translate(182.73125000000002,0)" style="visibility: hidden;"><text transform="translate(0,31.34375)" style="text-anchor: middle; font-family: &quot;Helvetica Neue&quot;, sans-serif; font-size: 12px; font-weight: 200;" fill="rgb(50, 49, 63)" stroke="none" stroke-width="1px">January 18, 2020</text></g><g transform="translate(210.84375,0)" style="visibility: hidden;"><text transform="translate(0,31.34375)" style="text-anchor: middle; font-family: &quot;Helvetica Neue&quot;, sans-serif; font-size: 12px; font-weight: 200;" fill="rgb(50, 49, 63)" stroke="none" stroke-width="1px">January 18, 2020</text></g><g transform="translate(238.95624999999998,0)" style="visibility: hidden;"><text transform="translate(0,31.34375)" style="text-anchor: middle; font-family: &quot;Helvetica Neue&quot;, sans-serif; font-size: 12px; font-weight: 200;" fill="rgb(50, 49, 63)" stroke="none" stroke-width="1px">January 18, 2020</text></g><g transform="translate(267.06874999999997,0)" style="visibility: hidden;"><text transform="translate(0,31.34375)" style="text-anchor: middle; font-family: &quot;Helvetica Neue&quot;, sans-serif; font-size: 12px; font-weight: 200;" fill="rgb(50, 49, 63)" stroke="none" stroke-width="1px">January 19, 2020</text></g></g><g><line x1="0" y1="17.171875" x2="0" y2="34.34375" fill="rgb(0, 0, 0)" stroke="rgb(204, 204, 204)" stroke-width="1px"></line><line x1="28.1125" y1="17.171875" x2="28.1125" y2="34.34375" fill="rgb(0, 0, 0)" stroke="rgb(204, 204, 204)" stroke-width="1px"></line><line x1="56.225" y1="17.171875" x2="56.225" y2="34.34375" fill="rgb(0, 0, 0)" stroke="rgb(204, 204, 204)" stroke-width="1px"></line><line x1="84.33749999999999" y1="17.171875" x2="84.33749999999999" y2="34.34375" fill="rgb(0, 0, 0)" stroke="rgb(204, 204, 204)" stroke-width="1px"></line><line x1="112.45" y1="17.171875" x2="112.45" y2="34.34375" fill="rgb(0, 0, 0)" stroke="rgb(204, 204, 204)" stroke-width="1px"></line><line x1="140.5625" y1="17.171875" x2="140.5625" y2="34.34375" fill="rgb(0, 0, 0)" stroke="rgb(204, 204, 204)" stroke-width="1px"></line><line x1="168.67499999999998" y1="17.171875" x2="168.67499999999998" y2="34.34375" fill="rgb(0, 0, 0)" stroke="rgb(204, 204, 204)" stroke-width="1px"></line><line x1="196.7875" y1="17.171875" x2="196.7875" y2="34.34375" fill="rgb(0, 0, 0)" stroke="rgb(204, 204, 204)" stroke-width="1px"></line><line x1="224.9" y1="17.171875" x2="224.9" y2="34.34375" fill="rgb(0, 0, 0)" stroke="rgb(204, 204, 204)" stroke-width="1px"></line><line x1="253.01250000000002" y1="17.171875" x2="253.01250000000002" y2="34.34375" fill="rgb(0, 0, 0)" stroke="rgb(204, 204, 204)" stroke-width="1px"></line><line x1="281.125" y1="17.171875" x2="281.125" y2="34.34375" fill="rgb(0, 0, 0)" stroke="rgb(204, 204, 204)" stroke-width="1px"></line></g><line style="visibility: inherit;" x1="0" y1="17.171875" x2="281.125" y2="17.171875" fill="rgb(0, 0, 0)" stroke="rgb(204, 204, 204)" stroke-width="1px"></line></g></g></g></g></g></svg>