<svg viewBox="0 0 330 200" xmlns="http://www.w3.org/2000/svg"><g><g><g><g><g><line x1="48.875" y1="177.828125" x2="43.875" y2="177.828125" style="visibility: inherit;" fill="rgb(0, 0, 0)" stroke="rgb(204, 204, 204)" stroke-width="1px"></line><line x1="48.875" y1="152.4241071428571" x2="43.875" y2="152.4241071428571" style="visibility: inherit;" fill="rgb(0, 0, 0)" stroke="rgb(204, 204, 204)" stroke-width="1px"></line><line x1="48.875" y1="127.02008928571425" x2="43.875" y2="127.02008928571425" style="visibility: inherit;" fill="rgb(0, 0, 0)" stroke="rgb(204, 204, 204)" stroke-width="1px"></line><line x1="48.875" y1="101.61607142857143" x2="43.875" y2="101.61607142857143" style="visibility: inherit;" fill="rgb(0, 0, 0)" stroke="rgb(204, 204, 204)" stroke-width="1px"></line><line x1="48.875" y1="76.21205357142856" x2="43.875" y2="76.21205357142856" style="visibility: inherit;" fill="rgb(0, 0, 0)" stroke="rgb(204, 204, 204)" stroke-width="1px"></line><line x1="48.875" y1="50.80803571428575" x2="43.875" y2="50.80803571428575" style="visibility: inherit;" fill="rgb(0, 0, 0)" stroke="rgb(204, 204, 204)" stroke-width="1px"></line><line x1="48.875" y1="25.40401785714286" x2="43.875" y2="25.40401785714286" style="visibility: inherit;" fill="rgb(0, 0, 0)" stroke="rgb(204, 204, 204)" stroke-width="1px"></line><line x1="48.875" y1="0" x2="43.875" y2="0" style="visibility: inherit;" fill="rgb(0, 0, 0)" stroke="rgb(204, 204, 204)" stroke-width="1px"></line></g><g transform="translate(38.875, 0)"><text style="text-anchor: end; visibility: hidden; font-family: &quot;Helvetica Neue&quot;, sans-serif; font-size: 12px; font-weight: 200;" x="0" y="177.828125" dx="0em" dy="0.3em" fill="rgb(50, 49, 63)" stroke="none" stroke-width="1px">0.7</text><text style="text-anchor: end; visibility: inherit; font-family: &quot;Helvetica Neue&quot;, sans-serif; font-size: 12px; font-weight: 200;" x="0" y="152.4241071428571" dx="0em" dy="0.3em" fill="rgb(50, 49, 63)" stroke="none" stroke-width="1px">0.75</text><text style="text-anchor: end; visibility: inherit; font-family: &quot;Helvetica Neue&quot;, sans-serif; font-size: 12px; font-weight: 200;" x="0" y="127.02008928571425" dx="0em" dy="0.3em" fill="rgb(50, 49, 63)" stroke="none" stroke-width="1px">0.8</text><text style="text-anchor: end; visibility: inherit; font-family: &quot;Helvetica Neue&quot;, sans-serif; font-size: 12px; font-weight: 200;" x="0" y="101.61607142857143" dx="0em" dy="0.3em" fill="rgb(50, 49, 63)" stroke="none" stroke-width="1px">0.85</text><text style="text-anchor: end; visibility: inherit; font-family: &quot;Helvetica Neue&quot;, sans-serif; font-size: 12px; font-weight: 200;" x="0" y="76.21205357142856" dx="0em" dy="0.3em" fill="rgb(50, 49, 63)" stroke="none" stroke-width="1px">0.9</text><text style="text-anchor: end; visibility: inherit; font-family: &quot;Helvetica Neue&quot;, sans-serif; font-size: 12px; font-weight: 200;" x="0" y="50.80803571428575" dx="0em" dy="0.3em" fill="rgb(50, 49, 63)" stroke="none" stroke-width="1px">0.95</text><text style="text-anchor: end; visibility: inherit; font-family: &quot;Helvetica Neue&quot;, sans-serif; font-size: 12px; font-weight: 200;" x="0" y="25.40401785714286" dx="0em" dy="0.3em" fill="rgb(50, 49, 63)" stroke="none" stroke-width="1px">1</text><text style="text-anchor: end; visibility: hidden; font-family: &quot;Helvetica Neue&quot;, sans-serif; font-size: 12px; font-weight: 200;" x="0" y="0" dx="0em" dy="0.3em" fill="rgb(50, 49, 63)" stroke="none" stroke-width="1px">1.05</text></g><line x1="48.875" y1="0" x2="48.875" y2="177.828125" fill="rgb(0, 0, 0)" stroke="rgb(204, 204, 204)" stroke-width="1px"></line></g></g><g transform="translate(48, 0)" clip-path="url(#clip_0)"><clipPath id="clip_0"><rect width="281" height="177"></rect></clipPath><g><g><g><line x1="0" y1="0" x2="0" y2="177.828125" fill="rgb(0, 0, 0)" stroke="rgb(60, 60, 60)" stroke-width="1px" opacity="0.25"></line><line x1="31.23611111111111" y1="0" x2="31.23611111111111" y2="177.828125" fill="rgb(0, 0, 0)" stroke="rgb(60, 60, 60)" stroke-width="1px" opacity="0.25"></line><line x1="62.47222222222222" y1="0" x2="62.47222222222222" y2="177.828125" fill="rgb(0, 0, 0)" stroke="rgb(60, 60, 60)" stroke-width="1px" opacity="0.25"></line><line x1="93.70833333333333" y1="0" x2="93.70833333333333" y2="177.828125" fill="rgb(0, 0, 0)" stroke="rgb(60, 60, 60)" stroke-width="1px" opacity="0.25"></line><line x1="124.94444444444444" y1="0" x2="124.94444444444444" y2="177.828125" fill="rgb(0, 0, 0)" stroke="rgb(60, 60, 60)" stroke-width="1px" opacity="0.25"></line><line x1="156.18055555555557" y1="0" x2="156.18055555555557" y2="177.828125" fill="rgb(0, 0, 0)" stroke="rgb(60, 60, 60)" stroke-width="1px" opacity="0.25"></line><line x1="187.41666666666666" y1="0" x2="187.41666666666666" y2="177.828125" fill="rgb(0, 0, 0)" stroke="rgb(60, 60, 60)" stroke-width="1px" opacity="0.25"></line><line x1="218.65277777777777" y1="0" x2="218.65277777777777" y2="177.828125" fill="rgb(0, 0, 0)" stroke="rgb(60, 60, 60)" stroke-width="1px" opacity="0.25"></line><line x1="249.88888888888889" y1="0" x2="249.88888888888889" y2="177.828125" fill="rgb(0, 0, 0)" stroke="rgb(60, 60, 60)" stroke-width="1px" opacity="0.25"></line><line x1="281.125" y1="0" x2="281.125" y2="177.828125" fill="rgb(0, 0, 0)" stroke="rgb(60, 60, 60)" stroke-width="1px" opacity="0.25"></line></g><g><line x1="0" y1="177.828125" x2="281.125" y2="177.828125" fill="rgb(0, 0, 0)" stroke="rgb(60, 60, 60)" stroke-width="1px" opacity="0.25"></line><line x1="0" y1="152.4241071428571" x2="281.125" y2="152.4241071428571" fill="rgb(0, 0, 0)" stroke="rgb(60, 60, 60)" stroke-width="1px" opacity="0.25"></line><line x1="0" y1="127.02008928571425" x2="281.125" y2="127.02008928571425" fill="rgb(0, 0, 0)" stroke="rgb(60, 60, 60)" stroke-width="1px" opacity="0.25"></line><line x1="0" y1="101.61607142857143" x2="281.125" y2="101.61607142857143" fill="rgb(0, 0, 0)" stroke="rgb(60, 60, 60)" stroke-width="1px" opacity="0.25"></line><line x1="0" y1="76.21205357142856" x2="281.125" y2="76.21205357142856" fill="rgb(0, 0, 0)" stroke="rgb(60, 60, 60)" stroke-width="1px" opacity="0.25"></line><line x1="0" y1="50.80803571428575" x2="281.125" y2="50.80803571428575" fill="rgb(0, 0, 0)" stroke="rgb(60, 60, 60)" stroke-width="1px" opacity="0.25"></line><line x1="0" y1="25.40401785714286" x2="281.125" y2="25.40401785714286" fill="rgb(0, 0, 0)" stroke="rgb(60, 60, 60)" stroke-width="1px" opacity="0.25"></line><line x1="0" y1="0" x2="281.125" y2="0" fill="rgb(0, 0, 0)" stroke="rgb(60, 60, 60)" stroke-width="1px" opacity="0.25"></line></g></g></g><g><g><line x1="0" y1="533.4843749999999" x2="281.125" y2="533.4843749999999" fill="rgb(0, 0, 0)" stroke="rgb(153, 153, 153)" stroke-width="1.5px"></line></g></g><g><g><line x1="31.23611111111111" y1="0" x2="31.23611111111111" y2="177.828125" fill="rgb(0, 0, 0)" stroke="rgb(153, 153, 153)" stroke-width="1.5px"></line></g></g><g><g><g><g><g><path style="fill: none;" stroke="rgb(0, 153, 136)" stroke-width="2px" d="M34.359722222222224,201.71762036978L35.921527777777776,175.47122208635466L37.483333333333334,156.85607678607178L39.04513888888889,142.53128762616305L40.60694444444444,131.10832872886238L42.168749999999996,122.4436650715777L43.730555555555554,115.25546504227191L45.29236111111111,108.88968772640708L46.854166666666664,103.55076119361861L48.41597222222222,99.26761673219735L49.97777777777778,94.92627157747042L51.53958333333333,91.41581671362835L53.101388888888884,87.95335224534855L54.66319444444444,84.47720863432608L56.225,81.68685088407256L57.78680555555555,79.47349028338982L59.34861111111111,76.89876374313327L60.91041666666667,74.58691986799458L62.47222222222222,72.21834331451011L64.03402777777778,70.40152323458062L65.59583333333333,69.12575596185418L67.1576388888889,67.30361737011513L68.71944444444445,65.92517315080995L70.28125,64.45261170575115L71.84305555555555,62.786526284381026L73.40486111111112,61.652027671073014L74.96666666666667,60.62868410783625L76.52847222222222,59.68308100769018L78.09027777777779,58.93666843636447L79.65208333333334,63.89595994989784L81.21388888888887,61.9352506493058L82.77569444444444,61.04178624477005L84.33749999999999,61.51816062565324L85.89930555555556,61.30438487696668L87.46111111111111,60.170304674790216L89.02291666666666,58.74487140477062L90.58472222222223,58.30742092388692L92.14652777777778,58.57107974300955L93.70833333333333,58.21641029727215L95.2701388888889,58.67121223376424L96.83194444444445,56.50578728137636L98.39375,55.82329521995672L99.95555555555556,55.01589311774684L101.51736111111111,54.35681037818915L103.07916666666667,54.78149853329781L104.64097222222223,54.08354204360761L106.20277777777777,53.622770369045696L107.76458333333333,52.72954445480151L109.32638888888889,52.41245283679463L110.88819444444444,52.11829969305916L112.45,51.84012641896791L114.01180555555555,51.10509556743L115.5736111111111,52.242452261906266L117.13541666666667,50.813735838781355L118.69722222222222,49.79512887638393L120.25902777777777,50.26273953752106L121.82083333333334,49.674544226573715L123.38263888888889,50.25228913980969L124.94444444444444,49.58647098435483L126.50625000000001,48.49064307664517L128.06805555555556,47.81103904909983L129.62986111111113,47.66855191402749L131.19166666666666,47.605166915903595L132.75347222222223,47.35712278608344L134.3152777777778,47.031450158414714L135.87708333333333,47.10132186326828L137.4388888888889,47.05261108300013L139.00069444444446,46.13914175237625L140.5625,45.816542326201585L142.12430555555554,45.78214299393787L143.6861111111111,45.85435398284167L145.24791666666667,45.43565653353505L146.80972222222223,44.93464393732978L148.37152777777777,44.6627697906122L149.93333333333334,44.85113293063279L151.49513888888887,44.37833810122646L153.05694444444444,44.373200854789246L154.61875,44.64644137305169L156.18055555555557,44.20026101616884L157.7423611111111,43.36000445837212L159.30416666666667,43.36649847518632L160.8659722222222,43.57598655963676L162.42777777777775,42.95891104494942L163.98958333333334,42.473719978535115L165.55138888888888,42.664519879173184L167.11319444444445,42.72152088396521L168.67499999999998,42.315804727111015L170.23680555555555,42.82178164002184L171.79861111111111,42.698715397790664L173.36041666666668,42.22033054539381L174.92222222222222,41.827196789521594L176.48402777777778,41.30615075670568L178.04583333333332,41.20574093946408L179.60763888888889,41.14549504911912L181.16944444444445,40.84849369004118L182.73125000000002,40.497868181401714L184.29305555555555,40.9086651287283L185.85486111111112,40.940720823174246L187.41666666666666,40.1442378976395L188.97847222222225,39.84541107717712L190.5402777777778,40.38455928225591L192.10208333333333,40.162028601139724L193.6638888888889,40.17440614615933L195.22569444444443,39.82592358853597L196.7875,39.397990123427974L198.34930555555556,39.21638269270997L199.91111111111113,39.55175645059245L201.47291666666666,39.507608035284534L203.03472222222223,39.14952185588632L204.59652777777777,38.53234182627102L206.15833333333333,38.898163932193825L207.7201388888889,39.83831827818554L209.28194444444446,39.4827963706463L210.84375,38.85831199097862L212.40555555555554,38.82847074956351L213.9673611111111,39.1067914822566L215.52916666666667,38.62164935969511L217.09097222222223,38.58699645444534L218.65277777777777,38.568421496377226L220.21458333333334,38.590431389125825L221.77638888888887,38.42679117499833L223.33819444444444,38.39713356678257L224.9,38.06542769797525L226.46180555555557,37.74924163400715L228.0236111111111,37.67006641022405L229.58541666666667,38.07130883527162L231.1472222222222,38.06447694876073L232.70902777777775,37.97415335667816L234.27083333333334,37.92880211459632L235.83263888888888,38.1823478056356L237.39444444444445,37.684557443163726L238.95624999999998,37.72188969889825L240.51805555555555,37.26901275351801L242.07986111111111,37.543306190453364L243.64166666666668,37.31660151530815L245.20347222222222,36.85561982167329L246.76527777777778,37.394747147694574L248.32708333333332,36.92019302744072L249.88888888888889,36.967045571922284L251.45069444444445,37.25380625198002L253.01250000000002,36.9483695761119L254.57430555555555,37.19616930357287L256.1361111111111,36.92263032023541L257.69791666666663,36.930931623425664L259.25972222222225,36.72148993138984L260.82152777777776,37.0335248908159L262.3833333333333,36.60840441354938L263.9451388888889,36.49038516771097" fill="none"></path></g><g><path style="fill: none;" stroke="rgb(238, 51, 119)" stroke-width="2px" d="M37.483333333333334,181.67231510603517L39.04513888888889,173.7255992186799L40.60694444444444,166.41799146137612L42.168749999999996,160.1632820121418L43.730555555555554,156.55877251079065L45.29236111111111,152.35775999712612L46.854166666666664,149.69371689817604L48.41597222222222,145.50944111249004L49.97777777777778,143.6222820474929L51.53958333333333,139.16641058688018L53.101388888888884,140.19741751078743L54.66319444444444,135.1638103040775L56.225,135.1492797718742L57.78680555555555,134.105897673509L59.34861111111111,133.38045345833262L60.91041666666667,127.03604345866262L62.47222222222222,125.09975405703352L64.03402777777778,122.36624994976235L65.59583333333333,125.97861168793003L67.1576388888889,123.68940339079L68.71944444444445,124.30543745159221L70.28125,122.14832932550125L71.84305555555555,118.24776690082271L73.40486111111112,118.49384032794632L74.96666666666667,122.54099238688099L76.52847222222222,124.92948954982143L78.09027777777779,122.2243337562031L79.65208333333334,122.4117362730334L81.21388888888887,123.61842170566766L82.77569444444444,120.42302354208414L84.33749999999999,120.35606134927323L85.89930555555556,123.49916321745579L87.46111111111111,116.13362907209128L89.02291666666666,114.22114125705355L90.58472222222223,119.51978099246529L92.14652777777778,132.9053340822984L93.70833333333333,153.5702815925666L95.2701388888889,143.52717204252758L96.83194444444445,131.95047646917914L98.39375,121.34368689247377L99.95555555555556,122.38073172172943L101.51736111111111,117.15368651140963L103.07916666666667,114.27610853880485L104.64097222222223,116.01136844331424L106.20277777777777,115.00329433833261L107.76458333333333,109.88218030323664L109.32638888888889,109.87341170475358L110.88819444444444,112.75298743334683L112.45,110.87965635696229L114.01180555555555,109.33784823432342L115.5736111111111,132.30722325867447L117.13541666666667,119.94620489501673L118.69722222222222,111.35576377848537L120.25902777777777,108.37010848396828L121.82083333333334,108.80700828975155L123.38263888888889,110.64088513695354L124.94444444444444,107.82180197128395L126.50625000000001,114.78487484848617L128.06805555555556,110.94484920554736L129.62986111111113,111.80421035866539L131.19166666666666,106.92815752916182L132.75347222222223,107.38475841445452L134.3152777777778,107.6388284477925L135.87708333333333,110.11904016663645L137.4388888888889,107.07099501444624L139.00069444444446,104.06833782479251L140.5625,119.2574684173257L142.12430555555554,119.31851713084947L143.6861111111111,113.42628803301399L145.24791666666667,109.8909505743128L146.80972222222223,106.81477404486616L148.37152777777777,114.39951413674896L149.93333333333334,111.25080946950078L151.49513888888887,107.53121266563085L153.05694444444444,106.85130104920303L154.61875,105.01087482763806L156.18055555555557,103.98620531320937L157.7423611111111,109.08139377280861L159.30416666666667,110.22854662653678L160.8659722222222,105.88328257353656L162.42777777777775,103.99236376759056L163.98958333333334,105.02642185942317L165.55138888888888,102.30441724078308L167.11319444444445,103.57595396869111L168.67499999999998,105.37343627817212L170.23680555555555,111.28652799640165L171.79861111111111,105.04581114807165L173.36041666666668,104.00716710546958L174.92222222222222,120.09616593502713L176.48402777777778,110.29180080199178L178.04583333333332,104.68772137337712L179.60763888888889,103.11586672405389L181.16944444444445,101.89421428325333L182.73125000000002,104.54345540176797L184.29305555555555,101.45755806377679L185.85486111111112,100.20289207265044L187.41666666666666,97.85845290282528L188.97847222222225,100.7889960381509L190.5402777777778,103.99969166889234L192.10208333333333,105.0706117094594L193.6638888888889,102.54977508133875L195.22569444444443,98.88856634048359L196.7875,99.73585042066588L198.34930555555556,96.62324174382898L199.91111111111113,96.54626954557241L201.47291666666666,95.44562334246483L203.03472222222223,98.12767509433999L204.59652777777777,105.72544807850772L206.15833333333333,102.10707006272777L207.7201388888889,99.18002263173011L209.28194444444446,98.7766872063295L210.84375,102.85198997689234L212.40555555555554,102.17358820960406L213.9673611111111,99.7770007086893L215.52916666666667,98.99560422690168L217.09097222222223,99.72048693400632L218.65277777777777,102.52297936636553L220.21458333333334,102.6327378620492L221.77638888888887,102.55932313385608L223.33819444444444,99.88907444905468L224.9,100.33615528580856L226.46180555555557,99.53005040586947L228.0236111111111,98.82753143379242L229.58541666666667,103.45946631362105L231.1472222222222,102.31923008110728L232.70902777777775,98.57117640548628L234.27083333333334,96.87942350252678L235.83263888888888,96.85913892423208L237.39444444444445,97.12550782846186L238.95624999999998,96.90731280344502L240.51805555555555,97.97012849819191L242.07986111111111,99.04551788968757L243.64166666666668,96.50747237428635L245.20347222222222,102.94283082721255L246.76527777777778,99.70136958825873L248.32708333333332,100.84029527883706L249.88888888888889,98.101625000934L251.45069444444445,98.5673486024994L253.01250000000002,97.23524057687192L254.57430555555555,97.05273867100144L256.1361111111111,103.01135356545244L257.69791666666663,99.26499014729993L259.25972222222225,96.8779022708051L260.82152777777776,97.6938451388188L262.3833333333333,99.23786163020095L263.9451388888889,99.5077276198487" fill="none"></path></g></g></g></g><g opacity="0.20000000298023224"><g><g><g><path style="fill: none;" stroke="rgb(0, 153, 136)" stroke-width="2px" d="M32.797916666666666,194.819395017411L34.359722222222224,162.9424495164837L35.921527777777776,144.60545770504643L37.483333333333334,132.55214308202267L39.04513888888889,122.71494729391165L40.60694444444444,114.77331473838005L42.168749999999996,109.81050227848547L43.730555555555554,104.65426623501948L45.29236111111111,99.43725030549935L46.854166666666664,95.59079506514328L48.41597222222222,92.86620872308102L49.97777777777778,88.42842909055096L51.53958333333333,86.15701176439013L53.101388888888884,82.76372553993549L54.66319444444444,79.26544486358762L56.225,77.50249504457626L57.78680555555555,76.15401135438256L59.34861111111111,73.0370661664222L60.91041666666667,71.11936536697405L62.47222222222222,68.66560838265079L64.03402777777778,67.67635289792504L65.59583333333333,67.21213024056385L67.1576388888889,64.57043106747525L68.71944444444445,63.857516619243796L70.28125,62.243775817964774L71.84305555555555,60.28740241538203L73.40486111111112,59.9502814928336L74.96666666666667,59.0936697056251L76.52847222222222,58.26467688009143L78.09027777777779,57.817049826894504L79.65208333333334,71.334896233465L81.21388888888887,58.99418693248715L82.77569444444444,59.70158970196333L84.33749999999999,62.23272217650499L85.89930555555556,60.983721259449226L87.46111111111111,58.46918438907183L89.02291666666666,56.60672151297331L90.58472222222223,57.65124520499792L92.14652777777778,58.96656797081232L93.70833333333333,57.68440612937725L95.2701388888889,59.353415137955125L96.83194444444445,53.257649854357766L98.39375,54.799557128122885L99.95555555555556,53.804789964641856L101.51736111111111,53.36818626895547L103.07916666666667,55.41853076592088L104.64097222222223,53.03660730911153L106.20277777777777,52.93161285721831L107.76458333333333,51.38970558345318L109.32638888888889,51.93681540978807L110.88819444444444,51.677069977458046L112.45,51.42286650783251L114.01180555555555,50.002549290124875L115.5736111111111,53.94848730361889L117.13541666666667,48.67066120409541L118.69722222222222,48.267218432788354L120.25902777777777,50.96415552922659L121.82083333333334,48.79225126015291L123.38263888888889,51.11890650966339L124.94444444444444,48.587743751172525L126.50625000000001,46.84690121508072L128.06805555555556,46.791633007781854L129.62986111111113,47.45482121141896L131.19166666666666,47.5100894187178L132.75347222222223,46.98505659135327L134.3152777777778,46.5429412169116L135.87708333333333,47.206129420548706L137.4388888888889,46.97954491259799L139.00069444444446,44.768937756440494L140.5625,45.332643186939606L142.12430555555554,45.73054399554218L143.6861111111111,45.96267046619738L145.24791666666667,44.80761035957508L146.80972222222223,44.18312504302179L148.37152777777777,44.254958570535706L149.93333333333334,45.133677640663734L151.49513888888887,43.66914585711703L153.05694444444444,44.36549498513344L154.61875,45.05630215044533L156.18055555555557,43.53099048084448L157.7423611111111,42.09961962167705L159.30416666666667,43.37623950040768L160.8659722222222,43.890218686312465L162.42777777777775,42.033297772918445L163.98958333333334,41.74593337891358L165.55138888888888,42.95071973013029L167.11319444444445,42.807022391153225L168.67499999999998,41.70723049182976L170.23680555555555,43.58074700938806L171.79861111111111,42.5141160344439L173.36041666666668,41.50275326679861L174.92222222222222,41.2374961557133L176.48402777777778,40.52458170748184L178.04583333333332,41.05512621360168L179.60763888888889,41.05512621360168L181.16944444444445,40.402991651424344L182.73125000000002,39.97192991844247L184.29305555555555,41.52486054971817L185.85486111111112,40.98880436484302L187.41666666666666,38.94951350933741L188.97847222222225,39.39717084648356L190.5402777777778,41.1932815898742L192.10208333333333,39.828232579465435L193.6638888888889,40.192972463688704L195.22569444444443,39.30319975210088L196.7875,38.75608992576602L198.34930555555556,38.943971546632895L199.91111111111113,40.054817087416154L201.47291666666666,39.44138541232263L203.03472222222223,38.612392586788985L204.59652777777777,37.606571781848174L206.15833333333333,39.446897091077915L207.7201388888889,41.24854979717307L209.28194444444446,38.94951350933741L210.84375,37.92158542147706L212.40555555555554,38.78370888744084L213.9673611111111,39.524272581296316L215.52916666666667,37.89393617585304L217.09097222222223,38.535017096570584L218.65277777777777,38.54055905927507L220.21458333333334,38.62344622824875L221.77638888888887,38.18133085380708L223.33819444444444,38.352647154458936L224.9,37.56786889476436L226.46180555555557,37.274962538055036L228.0236111111111,37.55130357454931L229.58541666666667,38.673172472843106L231.1472222222222,38.05422911899433L232.70902777777775,37.83866796855418L234.27083333333334,37.86077525147371L235.83263888888888,38.5626663421946L237.39444444444445,36.937871899455814L238.95624999999998,37.77788808250003L240.51805555555555,36.589697335447596L242.07986111111111,37.954746345856364L243.64166666666668,36.9765445025904L245.20347222222222,36.164147281221005L246.76527777777778,38.203438136726646L248.32708333333332,36.208361847060075L249.88888888888889,37.03732438864455L251.45069444444445,37.683947272066575L253.01250000000002,36.49021456230966L254.57430555555555,37.56786889476436L256.1361111111111,36.512321845229195L257.69791666666663,36.9433835782111L259.25972222222225,36.407327393335976L260.82152777777776,37.501577329954955L262.3833333333333,35.97072369764959L263.9451388888889,36.31335629895332" fill="none"></path></g><g><path style="fill: none;" stroke="rgb(238, 51, 119)" stroke-width="2px" d="M35.921527777777776,187.5023083463311L37.483333333333334,166.91049481289724L39.04513888888889,162.73243032874802L40.60694444444444,155.9679954467075L42.168749999999996,151.04385558994753L43.730555555555554,151.2428211362234L45.29236111111111,146.11974601713672L46.854166666666664,145.72181492458495L48.41597222222222,139.25579807800904L49.97777777777778,140.79770535177417L51.53958333333333,132.49133291201932L53.101388888888884,141.74271598671163L54.66319444444444,127.61694958380289L56.225,135.1274901224034L57.78680555555555,132.54108944056287L59.34861111111111,132.29239764969262L60.91041666666667,117.52000836336187L62.47222222222222,122.19542614530238L64.03402777777778,118.26608373597264L65.59583333333333,131.39708297540034L67.1576388888889,120.2556180629347L68.71944444444445,125.22948416428906L70.28125,118.91267633544547L71.84305555555555,112.39693324427519L73.40486111111112,118.8629500908511L74.96666666666667,128.61171674728394L76.52847222222222,128.51223397414597L78.09027777777779,118.16660096283469L79.65208333333334,122.69284001099211L81.21388888888887,125.42844971056493L82.77569444444444,115.62992652558854L84.33749999999999,120.2556180629347L85.89930555555556,128.21381593868136L87.46111111111111,105.08532796800137L89.02291666666666,111.35240955225058L90.58472222222223,127.46774056607057L92.14652777777778,152.9836636723152L93.70833333333333,184.56770281653317L95.2701388888889,128.46250772955162L96.83194444444445,114.58543311751313L98.39375,105.43350253200956L99.95555555555556,123.9362989653434L101.51736111111111,109.31311869674495L103.07916666666667,109.95974158016699L104.64097222222223,118.61425829998083L106.20277777777777,113.49118318089417L107.76458333333333,102.20050925069621L109.32638888888889,109.86025880702904L110.88819444444444,117.07235102621571L112.45,108.06965974239367L114.01180555555555,107.02513605036906L115.5736111111111,166.76128579516495L117.13541666666667,101.40467734954186L118.69722222222222,98.47010210369314L120.25902777777777,103.89162554219365L121.82083333333334,109.46235799842647L123.38263888888889,113.39170040775622L124.94444444444444,103.59317722277981L126.50625000000001,125.22948416428906L128.06805555555556,105.1848107411393L129.62986111111113,113.09325208834238L131.19166666666666,99.61407828490648L132.75347222222223,108.06965974239367L134.3152777777778,108.01993349779929L135.87708333333333,113.83935774490237L137.4388888888889,102.49892728616084L139.00069444444446,99.56435204031212L140.5625,142.04116430612547L142.12430555555554,119.41009020113519L143.6861111111111,104.58794438626084L145.24791666666667,104.58794438626084L146.80972222222223,102.20050925069621L148.37152777777777,125.77662427457315L149.93333333333334,106.52775246862853L151.49513888888887,101.95181745982595L153.05694444444444,105.83143362456134L154.61875,102.25023549529058L156.18055555555557,102.44920104156647L157.7423611111111,116.72417646220751L159.30416666666667,111.94927590712904L160.8659722222222,99.36538649403623L162.42777777777775,101.1559855586716L163.98958333333334,106.57750899717212L165.55138888888888,98.22141031282288L167.11319444444445,105.48325906055314L168.67499999999998,108.06965974239367L170.23680555555555,120.15616557374597L171.79861111111111,95.68473587557673L173.36041666666668,102.44920104156647L174.92222222222222,144.2296641793634L176.48402777777778,95.58525310243878L178.04583333333332,96.28160223045519L179.60763888888889,100.75808475006903L181.16944444444445,100.06173562205262L182.73125000000002,108.51731707953981L184.29305555555555,96.82871205679007L185.85486111111112,98.32089308596082L187.41666666666666,94.3417941480875L188.97847222222225,105.1848107411393L190.5402777777778,108.81573511500443L192.10208333333333,106.67699177031005L193.6638888888889,98.76852013915777L195.22569444444443,93.39675322920084L196.7875,101.00677654093928L198.34930555555556,91.95432872857366L199.91111111111113,96.4308112481875L201.47291666666666,93.79465403780341L203.03472222222223,102.15075272215265L204.59652777777777,117.1221075547593L206.15833333333333,96.67950303905776L207.7201388888889,94.78945148523364L209.28194444444446,98.17168406822852L210.84375,108.96494413273675L212.40555555555554,101.1559855586716L213.9673611111111,96.18211945731726L215.52916666666667,97.82350950422031L217.09097222222223,100.80781099466341L218.65277777777777,106.72671801490443L220.21458333333334,102.79737560557467L221.77638888888887,102.44920104156647L223.33819444444444,95.88370142185262L224.9,101.00677654093928L226.46180555555557,98.32089308596082L228.0236111111111,97.77375297567673L229.58541666666667,110.40736863336392L231.1472222222222,100.60887573233671L232.70902777777775,92.9490958920547L234.27083333333334,94.3417941480875L235.83263888888888,96.82871205679007L237.39444444444445,97.52506118480648L238.95624999999998,96.58002026591983L240.51805555555555,99.56435204031212L242.07986111111111,100.6586019769311L243.64166666666668,92.70040410118443L245.20347222222222,112.59586850660187L246.76527777777778,94.83917772982802L248.32708333333332,102.54868381470442L249.88888888888889,93.9936195840793L251.45069444444445,99.26593400484748L253.01250000000002,95.2370785384306L254.57430555555555,96.77898581219571L256.1361111111111,111.94927590712904L257.69791666666663,93.6454450200711L259.25972222222225,93.29727045606289L260.82152777777776,98.91775944083929L262.3833333333333,101.55388636727417L263.9451388888889,99.91252660432032" fill="none"></path></g></g></g></g></g></g><g transform="translate(48, 177)" clip-path="url(#clip_1)"><clipPath id="clip_1"><rect width="281" height="22"></rect></clipPath><g><g><line x1="0" y1="0" x2="0" y2="5" style="visibility: inherit;" fill="rgb(0, 0, 0)" stroke="rgb(204, 204, 204)" stroke-width="1px"></line><line x1="31.23611111111111" y1="0" x2="31.23611111111111" y2="5" style="visibility: inherit;" fill="rgb(0, 0, 0)" stroke="rgb(204, 204, 204)" stroke-width="1px"></line><line x1="62.47222222222222" y1="0" x2="62.47222222222222" y2="5" style="visibility: inherit;" fill="rgb(0, 0, 0)" stroke="rgb(204, 204, 204)" stroke-width="1px"></line><line x1="93.70833333333333" y1="0" x2="93.70833333333333" y2="5" style="visibility: inherit;" fill="rgb(0, 0, 0)" stroke="rgb(204, 204, 204)" stroke-width="1px"></line><line x1="124.94444444444444" y1="0" x2="124.94444444444444" y2="5" style="visibility: inherit;" fill="rgb(0, 0, 0)" stroke="rgb(204, 204, 204)" stroke-width="1px"></line><line x1="156.18055555555557" y1="0" x2="156.18055555555557" y2="5" style="visibility: inherit;" fill="rgb(0, 0, 0)" stroke="rgb(204, 204, 204)" stroke-width="1px"></line><line x1="187.41666666666666" y1="0" x2="187.41666666666666" y2="5" style="visibility: inherit;" fill="rgb(0, 0, 0)" stroke="rgb(204, 204, 204)" stroke-width="1px"></line><line x1="218.65277777777777" y1="0" x2="218.65277777777777" y2="5" style="visibility: inherit;" fill="rgb(0, 0, 0)" stroke="rgb(204, 204, 204)" stroke-width="1px"></line><line x1="249.88888888888889" y1="0" x2="249.88888888888889" y2="5" style="visibility: inherit;" fill="rgb(0, 0, 0)" stroke="rgb(204, 204, 204)" stroke-width="1px"></line><line x1="281.125" y1="0" x2="281.125" y2="5" style="visibility: inherit;" fill="rgb(0, 0, 0)" stroke="rgb(204, 204, 204)" stroke-width="1px"></line></g><g transform="translate(0, 8)"><text style="text-anchor: middle; visibility: hidden; font-family: &quot;Helvetica Neue&quot;, sans-serif; font-size: 12px; font-weight: 200;" x="0" y="0" dx="0em" dy="0.95em" fill="rgb(50, 49, 63)" stroke="none" stroke-width="1px">-20</text><text style="text-anchor: middle; visibility: inherit; font-family: &quot;Helvetica Neue&quot;, sans-serif; font-size: 12px; font-weight: 200;" x="31.23611111111111" y="0" dx="0em" dy="0.95em" fill="rgb(50, 49, 63)" stroke="none" stroke-width="1px">0</text><text style="text-anchor: middle; visibility: inherit; font-family: &quot;Helvetica Neue&quot;, sans-serif; font-size: 12px; font-weight: 200;" x="62.47222222222222" y="0" dx="0em" dy="0.95em" fill="rgb(50, 49, 63)" stroke="none" stroke-width="1px">20</text><text style="text-anchor: middle; visibility: inherit; font-family: &quot;Helvetica Neue&quot;, sans-serif; font-size: 12px; font-weight: 200;" x="93.70833333333333" y="0" dx="0em" dy="0.95em" fill="rgb(50, 49, 63)" stroke="none" stroke-width="1px">40</text><text style="text-anchor: middle; visibility: inherit; font-family: &quot;Helvetica Neue&quot;, sans-serif; font-size: 12px; font-weight: 200;" x="124.94444444444444" y="0" dx="0em" dy="0.95em" fill="rgb(50, 49, 63)" stroke="none" stroke-width="1px">60</text><text style="text-anchor: middle; visibility: inherit; font-family: &quot;Helvetica Neue&quot;, sans-serif; font-size: 12px; font-weight: 200;" x="156.18055555555557" y="0" dx="0em" dy="0.95em" fill="rgb(50, 49, 63)" stroke="none" stroke-width="1px">80</text><text style="text-anchor: middle; visibility: inherit; font-family: &quot;Helvetica Neue&quot;, sans-serif; font-size: 12px; font-weight: 200;" x="187.41666666666666" y="0" dx="0em" dy="0.95em" fill="rgb(50, 49, 63)" stroke="none" stroke-width="1px">100</text><text style="text-anchor: middle; visibility: inherit; font-family: &quot;Helvetica Neue&quot;, sans-serif; font-size: 12px; font-weight: 200;" x="218.65277777777777" y="0" dx="0em" dy="0.95em" fill="rgb(50, 49, 63)" stroke="none" stroke-width="1px">120</text><text style="text-anchor: middle; visibility: inherit; font-family: &quot;Helvetica Neue&quot;, sans-serif; font-size: 12px; font-weight: 200;" x="249.88888888888889" y="0" dx="0em" dy="0.95em" fill="rgb(50, 49, 63)" stroke="none" stroke-width="1px">140</text><text style="text-anchor: middle; visibility: hidden; font-family: &quot;Helvetica Neue&quot;, sans-serif; font-size: 12px; font-weight: 200;" x="281.125" y="0" dx="0em" dy="0.95em" fill="rgb(50, 49, 63)" stroke="none" stroke-width="1px">160</text></g><line x1="0" y1="0" x2="281.125" y2="0" fill="rgb(0, 0, 0)" stroke="rgb(204, 204, 204)" stroke-width="1px"></line></g></g></g></g></svg>