<svg viewBox="0 0 330 200" xmlns="http://www.w3.org/2000/svg"><g><g><g><g><g><line x1="51.5625" y1="177.921875" x2="46.5625" y2="177.921875" style="visibility: inherit;" fill="rgb(0, 0, 0)" stroke="rgb(204, 204, 204)" stroke-width="1px"></line><line x1="51.5625" y1="166.06041666666664" x2="46.5625" y2="166.06041666666664" style="visibility: inherit;" fill="rgb(0, 0, 0)" stroke="rgb(204, 204, 204)" stroke-width="1px"></line><line x1="51.5625" y1="154.1989583333333" x2="46.5625" y2="154.1989583333333" style="visibility: inherit;" fill="rgb(0, 0, 0)" stroke="rgb(204, 204, 204)" stroke-width="1px"></line><line x1="51.5625" y1="142.33749999999998" x2="46.5625" y2="142.33749999999998" style="visibility: inherit;" fill="rgb(0, 0, 0)" stroke="rgb(204, 204, 204)" stroke-width="1px"></line><line x1="51.5625" y1="130.47604166666665" x2="46.5625" y2="130.47604166666665" style="visibility: inherit;" fill="rgb(0, 0, 0)" stroke="rgb(204, 204, 204)" stroke-width="1px"></line><line x1="51.5625" y1="118.61458333333329" x2="46.5625" y2="118.61458333333329" style="visibility: inherit;" fill="rgb(0, 0, 0)" stroke="rgb(204, 204, 204)" stroke-width="1px"></line><line x1="51.5625" y1="106.75312500000001" x2="46.5625" y2="106.75312500000001" style="visibility: inherit;" fill="rgb(0, 0, 0)" stroke="rgb(204, 204, 204)" stroke-width="1px"></line><line x1="51.5625" y1="94.89166666666668" x2="46.5625" y2="94.89166666666668" style="visibility: inherit;" fill="rgb(0, 0, 0)" stroke="rgb(204, 204, 204)" stroke-width="1px"></line><line x1="51.5625" y1="83.03020833333333" x2="46.5625" y2="83.03020833333333" style="visibility: inherit;" fill="rgb(0, 0, 0)" stroke="rgb(204, 204, 204)" stroke-width="1px"></line><line x1="51.5625" y1="71.16874999999999" x2="46.5625" y2="71.16874999999999" style="visibility: inherit;" fill="rgb(0, 0, 0)" stroke="rgb(204, 204, 204)" stroke-width="1px"></line><line x1="51.5625" y1="59.30729166666665" x2="46.5625" y2="59.30729166666665" style="visibility: inherit;" fill="rgb(0, 0, 0)" stroke="rgb(204, 204, 204)" stroke-width="1px"></line><line x1="51.5625" y1="47.445833333333304" x2="46.5625" y2="47.445833333333304" style="visibility: inherit;" fill="rgb(0, 0, 0)" stroke="rgb(204, 204, 204)" stroke-width="1px"></line><line x1="51.5625" y1="35.58437500000003" x2="46.5625" y2="35.58437500000003" style="visibility: inherit;" fill="rgb(0, 0, 0)" stroke="rgb(204, 204, 204)" stroke-width="1px"></line><line x1="51.5625" y1="23.72291666666668" x2="46.5625" y2="23.72291666666668" style="visibility: inherit;" fill="rgb(0, 0, 0)" stroke="rgb(204, 204, 204)" stroke-width="1px"></line><line x1="51.5625" y1="11.861458333333351" x2="46.5625" y2="11.861458333333351" style="visibility: inherit;" fill="rgb(0, 0, 0)" stroke="rgb(204, 204, 204)" stroke-width="1px"></line><line x1="51.5625" y1="0" x2="46.5625" y2="0" style="visibility: inherit;" fill="rgb(0, 0, 0)" stroke="rgb(204, 204, 204)" stroke-width="1px"></line></g><g transform="translate(41.5625, 0)"><text style="text-anchor: end; visibility: hidden; font-family: Roboto, sans-serif; font-size: 12px; font-weight: 200;" x="0" y="177.921875" dx="0em" dy="0.3em" fill="rgb(50, 49, 63)" stroke="none" stroke-width="1px">0.7</text><text style="text-anchor: end; visibility: inherit; font-family: Roboto, sans-serif; font-size: 12px; font-weight: 200;" x="0" y="166.06041666666664" dx="0em" dy="0.3em" fill="rgb(50, 49, 63)" stroke="none" stroke-width="1px">0.72</text><text style="text-anchor: end; visibility: hidden; font-family: Roboto, sans-serif; font-size: 12px; font-weight: 200;" x="0" y="154.1989583333333" dx="0em" dy="0.3em" fill="rgb(50, 49, 63)" stroke="none" stroke-width="1px">0.74</text><text style="text-anchor: end; visibility: inherit; font-family: Roboto, sans-serif; font-size: 12px; font-weight: 200;" x="0" y="142.33749999999998" dx="0em" dy="0.3em" fill="rgb(50, 49, 63)" stroke="none" stroke-width="1px">0.76</text><text style="text-anchor: end; visibility: hidden; font-family: Roboto, sans-serif; font-size: 12px; font-weight: 200;" x="0" y="130.47604166666665" dx="0em" dy="0.3em" fill="rgb(50, 49, 63)" stroke="none" stroke-width="1px">0.78</text><text style="text-anchor: end; visibility: inherit; font-family: Roboto, sans-serif; font-size: 12px; font-weight: 200;" x="0" y="118.61458333333329" dx="0em" dy="0.3em" fill="rgb(50, 49, 63)" stroke="none" stroke-width="1px">0.8</text><text style="text-anchor: end; visibility: hidden; font-family: Roboto, sans-serif; font-size: 12px; font-weight: 200;" x="0" y="106.75312500000001" dx="0em" dy="0.3em" fill="rgb(50, 49, 63)" stroke="none" stroke-width="1px">0.82</text><text style="text-anchor: end; visibility: inherit; font-family: Roboto, sans-serif; font-size: 12px; font-weight: 200;" x="0" y="94.89166666666668" dx="0em" dy="0.3em" fill="rgb(50, 49, 63)" stroke="none" stroke-width="1px">0.84</text><text style="text-anchor: end; visibility: hidden; font-family: Roboto, sans-serif; font-size: 12px; font-weight: 200;" x="0" y="83.03020833333333" dx="0em" dy="0.3em" fill="rgb(50, 49, 63)" stroke="none" stroke-width="1px">0.86</text><text style="text-anchor: end; visibility: inherit; font-family: Roboto, sans-serif; font-size: 12px; font-weight: 200;" x="0" y="71.16874999999999" dx="0em" dy="0.3em" fill="rgb(50, 49, 63)" stroke="none" stroke-width="1px">0.88</text><text style="text-anchor: end; visibility: hidden; font-family: Roboto, sans-serif; font-size: 12px; font-weight: 200;" x="0" y="59.30729166666665" dx="0em" dy="0.3em" fill="rgb(50, 49, 63)" stroke="none" stroke-width="1px">0.9</text><text style="text-anchor: end; visibility: inherit; font-family: Roboto, sans-serif; font-size: 12px; font-weight: 200;" x="0" y="47.445833333333304" dx="0em" dy="0.3em" fill="rgb(50, 49, 63)" stroke="none" stroke-width="1px">0.92</text><text style="text-anchor: end; visibility: hidden; font-family: Roboto, sans-serif; font-size: 12px; font-weight: 200;" x="0" y="35.58437500000003" dx="0em" dy="0.3em" fill="rgb(50, 49, 63)" stroke="none" stroke-width="1px">0.94</text><text style="text-anchor: end; visibility: inherit; font-family: Roboto, sans-serif; font-size: 12px; font-weight: 200;" x="0" y="23.72291666666668" dx="0em" dy="0.3em" fill="rgb(50, 49, 63)" stroke="none" stroke-width="1px">0.96</text><text style="text-anchor: end; visibility: hidden; font-family: Roboto, sans-serif; font-size: 12px; font-weight: 200;" x="0" y="11.861458333333351" dx="0em" dy="0.3em" fill="rgb(50, 49, 63)" stroke="none" stroke-width="1px">0.98</text><text style="text-anchor: end; visibility: hidden; font-family: Roboto, sans-serif; font-size: 12px; font-weight: 200;" x="0" y="0" dx="0em" dy="0.3em" fill="rgb(50, 49, 63)" stroke="none" stroke-width="1px">1</text></g><line x1="51.5625" y1="0" x2="51.5625" y2="177.921875" fill="rgb(0, 0, 0)" stroke="rgb(204, 204, 204)" stroke-width="1px"></line></g></g><g transform="translate(51, 0)" clip-path="url(#clip_0)"><clipPath id="clip_0"><rect width="278" height="177"></rect></clipPath><g><g><g><line x1="0" y1="0" x2="0" y2="177.921875" fill="rgb(0, 0, 0)" stroke="rgb(60, 60, 60)" stroke-width="1px" opacity="0.25"></line><line x1="30.9375" y1="0" x2="30.9375" y2="177.921875" fill="rgb(0, 0, 0)" stroke="rgb(60, 60, 60)" stroke-width="1px" opacity="0.25"></line><line x1="61.875" y1="0" x2="61.875" y2="177.921875" fill="rgb(0, 0, 0)" stroke="rgb(60, 60, 60)" stroke-width="1px" opacity="0.25"></line><line x1="92.8125" y1="0" x2="92.8125" y2="177.921875" fill="rgb(0, 0, 0)" stroke="rgb(60, 60, 60)" stroke-width="1px" opacity="0.25"></line><line x1="123.75" y1="0" x2="123.75" y2="177.921875" fill="rgb(0, 0, 0)" stroke="rgb(60, 60, 60)" stroke-width="1px" opacity="0.25"></line><line x1="154.6875" y1="0" x2="154.6875" y2="177.921875" fill="rgb(0, 0, 0)" stroke="rgb(60, 60, 60)" stroke-width="1px" opacity="0.25"></line><line x1="185.625" y1="0" x2="185.625" y2="177.921875" fill="rgb(0, 0, 0)" stroke="rgb(60, 60, 60)" stroke-width="1px" opacity="0.25"></line><line x1="216.5625" y1="0" x2="216.5625" y2="177.921875" fill="rgb(0, 0, 0)" stroke="rgb(60, 60, 60)" stroke-width="1px" opacity="0.25"></line><line x1="247.5" y1="0" x2="247.5" y2="177.921875" fill="rgb(0, 0, 0)" stroke="rgb(60, 60, 60)" stroke-width="1px" opacity="0.25"></line><line x1="278.4375" y1="0" x2="278.4375" y2="177.921875" fill="rgb(0, 0, 0)" stroke="rgb(60, 60, 60)" stroke-width="1px" opacity="0.25"></line></g><g><line x1="0" y1="177.921875" x2="278.4375" y2="177.921875" fill="rgb(0, 0, 0)" stroke="rgb(60, 60, 60)" stroke-width="1px" opacity="0.25"></line><line x1="0" y1="166.06041666666664" x2="278.4375" y2="166.06041666666664" fill="rgb(0, 0, 0)" stroke="rgb(60, 60, 60)" stroke-width="1px" opacity="0.25"></line><line x1="0" y1="154.1989583333333" x2="278.4375" y2="154.1989583333333" fill="rgb(0, 0, 0)" stroke="rgb(60, 60, 60)" stroke-width="1px" opacity="0.25"></line><line x1="0" y1="142.33749999999998" x2="278.4375" y2="142.33749999999998" fill="rgb(0, 0, 0)" stroke="rgb(60, 60, 60)" stroke-width="1px" opacity="0.25"></line><line x1="0" y1="130.47604166666665" x2="278.4375" y2="130.47604166666665" fill="rgb(0, 0, 0)" stroke="rgb(60, 60, 60)" stroke-width="1px" opacity="0.25"></line><line x1="0" y1="118.61458333333329" x2="278.4375" y2="118.61458333333329" fill="rgb(0, 0, 0)" stroke="rgb(60, 60, 60)" stroke-width="1px" opacity="0.25"></line><line x1="0" y1="106.75312500000001" x2="278.4375" y2="106.75312500000001" fill="rgb(0, 0, 0)" stroke="rgb(60, 60, 60)" stroke-width="1px" opacity="0.25"></line><line x1="0" y1="94.89166666666668" x2="278.4375" y2="94.89166666666668" fill="rgb(0, 0, 0)" stroke="rgb(60, 60, 60)" stroke-width="1px" opacity="0.25"></line><line x1="0" y1="83.03020833333333" x2="278.4375" y2="83.03020833333333" fill="rgb(0, 0, 0)" stroke="rgb(60, 60, 60)" stroke-width="1px" opacity="0.25"></line><line x1="0" y1="71.16874999999999" x2="278.4375" y2="71.16874999999999" fill="rgb(0, 0, 0)" stroke="rgb(60, 60, 60)" stroke-width="1px" opacity="0.25"></line><line x1="0" y1="59.30729166666665" x2="278.4375" y2="59.30729166666665" fill="rgb(0, 0, 0)" stroke="rgb(60, 60, 60)" stroke-width="1px" opacity="0.25"></line><line x1="0" y1="47.445833333333304" x2="278.4375" y2="47.445833333333304" fill="rgb(0, 0, 0)" stroke="rgb(60, 60, 60)" stroke-width="1px" opacity="0.25"></line><line x1="0" y1="35.58437500000003" x2="278.4375" y2="35.58437500000003" fill="rgb(0, 0, 0)" stroke="rgb(60, 60, 60)" stroke-width="1px" opacity="0.25"></line><line x1="0" y1="23.72291666666668" x2="278.4375" y2="23.72291666666668" fill="rgb(0, 0, 0)" stroke="rgb(60, 60, 60)" stroke-width="1px" opacity="0.25"></line><line x1="0" y1="11.861458333333351" x2="278.4375" y2="11.861458333333351" fill="rgb(0, 0, 0)" stroke="rgb(60, 60, 60)" stroke-width="1px" opacity="0.25"></line><line x1="0" y1="0" x2="278.4375" y2="0" fill="rgb(0, 0, 0)" stroke="rgb(60, 60, 60)" stroke-width="1px" opacity="0.25"></line></g></g></g><g><g><line x1="0" y1="593.0729166666666" x2="278.4375" y2="593.0729166666666" fill="rgb(0, 0, 0)" stroke="rgb(153, 153, 153)" stroke-width="1.5px"></line></g></g><g><g><line x1="30.9375" y1="0" x2="30.9375" y2="177.921875" fill="rgb(0, 0, 0)" stroke="rgb(153, 153, 153)" stroke-width="1.5px"></line></g></g><g><g><g><g><g><path style="fill: none;" stroke="rgb(0, 153, 136)" stroke-width="2px" d="M37.125,185.37068755058246L38.671875,166.5259798838735L40.21874999999999,151.60302434123182L41.765625,139.6784804903904L43.3125,129.5717749287848L44.859375,120.93193005371643L46.40625,113.30699136632104L47.953125,106.85939950406525L49.5,101.64111572903668L51.04687499999999,96.50021357272642L52.59375,92.26016386131973L54.140625,88.10491165265734L55.6875,84.27234171124024L57.234375,80.63532608414647L58.78125,77.63152586118228L60.328125,74.86329023461742L61.875,72.29628450087709L63.421875,69.87932190962994L64.96875,68.17345929340665L66.515625,66.2864416595633L68.0625,64.40557681775125L69.609375,62.63246729609415L71.15625,61.327280425202424L72.703125,59.262904022669886L74.25,58.095611553054475L75.796875,56.66214829863214L77.34375,55.39360507646165L78.890625,59.1697179069476L80.43749999999999,61.22907698468248L81.984375,64.39765647362924L83.53125,64.9644276872478L85.078125,63.26221236187228L86.625,63.15161880313766L88.171875,61.34139474209057L89.71875,59.87084059703203L91.265625,59.19854392132249L92.8125,58.82979505056569L94.359375,57.28883221986444L95.90625,57.400740208944036L97.453125,55.428413761474026L99,54.18302065908901L100.546875,52.147463423247565L102.09374999999999,50.47403294382139L103.640625,50.417235526474514L105.1875,49.444086004437786L106.73437500000001,49.04483431627521L108.28125,47.65195206164082L109.828125,48.458724584266584L111.375,48.521925109203835L112.921875,47.12430084123225L114.46875,46.17284427803252L116.015625,46.36562345236131L117.5625,44.80713786337724L119.109375,43.81245153041378L120.65625,45.10979370465565L122.203125,44.12976243235106L123.75,42.55288109068566L125.296875,42.07337382234608L126.84375,41.35410231956183L128.390625,40.30663527115333L129.9375,40.248385710678896L131.484375,39.88698247027954L133.03125,39.21919810560971L134.578125,38.99735892412615L136.125,38.4632787096691L137.671875,38.90295917392079L139.21875,37.869945504834696L140.765625,37.74511968784122L142.3125,37.59344695097205L143.85937500000003,37.47162378357127L145.40625,37.53185445651201L146.953125,38.53339250775867L148.5,38.13788364753726L150.046875,36.81069635225636L151.59375,35.49114729305291L153.140625,35.54976912391794L154.6875,36.21464766233692L156.234375,35.07959323837759L157.78125,34.60890596191738L159.328125,33.54466818096924L160.87499999999997,34.29957004987417L162.421875,33.7658519716767L163.96875,33.77681531825728L165.515625,33.778586471347005L167.0625,33.31866933412602L168.609375,35.20738564562322L170.15625,34.661208027399155L171.703125,33.71453028749737L173.25,33.175474101506055L174.796875,33.409830939827714L176.34375,32.806636998100075L177.890625,32.36069289865025L179.4375,31.398880139466346L180.984375,31.532272327270064L182.53125,31.27590109609126L184.078125,31.814199066833268L185.625,31.450255267639093L187.17187500000003,31.862714314450276L188.71875,30.902820421250684L190.265625,29.894223876198254L191.8125,29.660309859476996L193.359375,29.915471485216887L194.90625,29.985893019879445L196.453125,31.025704905926897L198,30.879847137969968L199.546875,29.875376655788852L201.09375,30.221918274001553L202.640625,30.312489626676793L204.18749999999997,29.891758791292123L205.734375,28.816603164822673L207.28125,28.665013814898188L208.828125,29.488323940689458L210.375,29.55102519621213L211.921875,30.365718415104574L213.46875000000003,30.546132353518065L215.015625,30.33147879214231L216.5625,29.69149746901278L218.109375,28.977663047225416L219.65625,29.784098754968127L221.203125,29.261608370595297L222.75,29.540646344357306L224.296875,28.729055047451393L225.84375,29.94115541347784L227.390625,29.206840325070573L228.9375,28.880275402936938L230.48437499999997,27.959611850398453L232.03125,27.94162836851012L233.578125,27.852341732895578L235.125,28.669168456655875L236.671875,28.32219777480675L238.21875,28.1522887592582L239.765625,27.645853039130674L241.3125,27.633735914283825L242.859375,27.313392196536434L244.40625,28.176254566497157L245.953125,28.039605674603248L247.5,27.427488327306044L249.046875,27.087741581001488L250.59375,28.05216726529001L252.140625,27.293371249244064L253.6875,26.950062889330432L255.234375,26.869985095173977L256.78125,27.480823674123126L258.328125,27.24225025638615L259.875,26.402091466310182L261.421875,26.647695459429812" fill="none"></path></g><g><path style="fill: none;" stroke="rgb(238, 51, 119)" stroke-width="2px" d="M35.578125,191.22950362174637L37.125,176.33387745367588L38.671875,166.0899683314113L40.21874999999999,158.30576660742554L41.765625,149.0533000695315L43.3125,145.1257616892891L44.859375,136.8258431374997L46.40625,134.07269371189687L47.953125,131.34087487614573L49.5,128.1116128993874L51.04687499999999,127.40854222561333L52.59375,125.0920093584589L54.140625,122.47392649762293L55.6875,119.08871322283707L57.234375,116.35663818466745L58.78125,113.89163287359743L60.328125,114.12967009242637L61.875,112.1836588930141L63.421875,110.43536690582727L64.96875,107.35234164766473L66.515625,105.66663492766695L68.0625,105.41989630788464L69.609375,104.08760483344037L71.15625,102.37719183187843L72.703125,100.36873500710838L74.25,99.99509232816247L75.796875,98.65513207560355L77.34375,97.4905785395926L78.890625,99.5059621858653L80.43749999999999,98.43358966151808L81.984375,104.23393745870226L83.53125,100.78929245384442L85.078125,100.80410213803911L86.625,99.14597361397965L88.171875,104.25996684933614L89.71875,103.45063885181922L91.265625,101.13089234677486L92.8125,101.10384362298615L94.359375,100.02397325721478L95.90625,101.44935406122781L97.453125,99.47027912201864L99,97.88437097865123L100.546875,97.07232890293423L102.09374999999999,97.98734912665952L103.640625,96.88830058356702L105.1875,96.23818375174369L106.73437500000001,95.80865858713744L108.28125,94.22372746228446L109.828125,92.51250469211718L111.375,91.7951636202653L112.921875,89.47183735791945L114.46875,88.65829416652925L116.015625,87.5981767291743L117.5625,87.18046658947583L119.109375,86.9397661858825L120.65625,87.63012107549457L122.203125,89.62839413586467L123.75,88.83376521444967L125.296875,87.68623786141133L126.84375,87.27554357050997L128.390625,88.17224747675981L129.9375,88.43836643056551L131.484375,87.33162657619154L133.03125,87.70629630313964L134.578125,88.23404974157228L136.125,89.18142931885342L137.671875,88.78883500309428L139.21875,87.85574028790953L140.765625,86.41566582192887L142.3125,86.45325010383795L143.85937500000003,86.82979391016727L145.40625,91.96013131209929L146.953125,89.61008351399549L148.5,88.15235218308607L150.046875,86.08656908399644L151.59375,84.45013844241453L153.140625,85.0952201549846L154.6875,83.93886675475488L156.234375,84.53758859185267L157.78125,84.30443875184815L159.328125,85.4504165674889L160.87499999999997,85.33741532829463L162.421875,86.09452227989007L163.96875,86.03821464992363L165.515625,86.75074849101604L167.0625,86.10945536777659L168.609375,87.44282800721976L170.15625,84.77063028309237L171.703125,87.54183818945424L173.25,85.75931914652558L174.796875,84.9304432847597L176.34375,83.97494192788854L177.890625,83.43249370759187L179.4375,83.21435531136595L180.984375,83.6603693862053L182.53125,82.9062709182281L184.078125,82.47133262463115L185.625,82.97246681376832L187.17187500000003,83.71118418449825L188.71875,82.63957749968135L190.265625,81.32785022816563L191.8125,80.98270375234259L193.359375,80.44806164653876L194.90625,80.26480894198718L196.453125,83.01580094789999L198,81.63904892013494L199.546875,83.03045409065504L201.09375,82.92733673282852L202.640625,83.31446989491619L204.18749999999997,81.93562397617255L205.734375,81.5836807548987L207.28125,81.52293224210439L208.828125,83.46589113672505L210.375,85.05374586507628L211.921875,84.19805442051305L213.46875000000003,89.49282440640937L215.015625,87.30964328918664L216.5625,87.89301773945219L218.109375,88.05476632821487L219.65625,86.73911315096856L221.203125,85.8539777196144L222.75,84.58050827409043L224.296875,83.78507285313835L225.84375,83.42072745891562L227.390625,82.62493502118053L228.9375,81.20075278354459L230.48437499999997,81.58409185830082L232.03125,81.20391608074931L233.578125,81.51389098542899L235.125,81.99312330707016L236.671875,80.82849844954238L238.21875,81.2323277620238L239.765625,80.76591521118542L241.3125,80.5902835954127L242.859375,81.0101243814563L244.40625,81.60077838245044L245.953125,80.59229313021285L247.5,80.79391149523019L249.046875,81.74343207252268L250.59375,83.05067924333544L252.140625,82.57963886846177L253.6875,81.80542964681912L255.234375,82.11017285153214L256.78125,84.06598825698678L258.328125,82.3250849503695L259.875,81.57097196827968L261.421875,87.30479252990814" fill="none"></path></g></g></g></g><g opacity="0.20000000298023224"><g><g><g><path style="fill: none;" stroke="rgb(0, 153, 136)" stroke-width="2px" d="M32.484375,218.59222542184088L34.03125,175.60275184611476L35.578125,149.69551675021646L37.125,134.63242923840878L38.671875,123.40766927537815L40.21874999999999,114.80205414195852L41.765625,108.68005231954156L43.3125,102.28709350960949L44.859375,96.95855555435018L46.40625,91.72033659492926L47.953125,88.33356867544352L49.5,86.48215298540889L51.04687499999999,81.44390841325124L52.59375,79.76666168309747L54.140625,75.8057406793038L55.6875,72.88986878469585L57.234375,69.8062969620029L58.78125,68.6709288569788L60.328125,66.59369800239801L61.875,64.61968885734677L63.421875,62.64567971229553L64.96875,63.0650002323091L66.515625,60.63296242617071L68.0625,58.76864402244487L69.609375,57.31714175703623L71.15625,57.41392978467047L72.703125,53.07239640193679L74.25,54.59484591769674L75.796875,52.362782498821616L77.34375,51.58865502725043L78.890625,70.49653911963104L80.43749999999999,67.40653361504276L81.984375,73.90267878460386L83.53125,66.66464525274932L85.078125,58.155782797063374L86.625,62.819848672176384L88.171875,55.91085201439758L89.71875,55.459257035205745L91.265625,57.181680938228965L92.8125,57.72355956335862L94.359375,52.66597859561443L95.90625,57.7364622770498L97.453125,49.511459522570156L99,50.44685324033101L100.546875,46.04080628914137L102.09374999999999,45.45375049114227L103.640625,50.24684350316723L105.1875,46.52464037761092L106.73437500000001,47.847080156207085L108.28125,43.47330766419568L109.828125,50.879041124135256L111.375,48.7115266236166L112.921875,42.93142903906603L114.46875,43.31847509990134L116.015625,46.94396089762449L117.5625,40.13168156767883L119.109375,40.82839275710285L120.65625,49.00182000671823L122.203125,41.1896687404563L123.75,37.82223721655705L125.296875,40.634852051734924L126.84375,39.19628784991801L128.390625,37.16423416820665L129.9375,40.073637031018734L131.484375,38.80277275728681L133.03125,37.215845022971415L134.578125,38.33184138250847L136.125,36.86103807141383L137.671875,40.22200056351721L139.21875,34.770904503141836L140.765625,37.370642237365246L142.3125,37.138428740824246L143.85937500000003,37.10615428164601L145.40625,37.71254647523165L146.953125,41.538006660218024L148.5,36.95135706725218L150.046875,32.82913446736832L151.59375,31.53250011615455L153.140625,35.725634616489195L154.6875,38.20928327739239L156.234375,31.674429966757682L157.78125,33.196844132617116L159.328125,30.35195483826101L160.87499999999997,36.56427565651634L162.421875,32.16469773712256L163.96875,33.80970535799861L165.515625,33.783899930616215L167.0625,31.938917922476914L168.609375,40.87353458007176L170.15625,33.02267517273624L171.703125,30.874497067804125L173.25,31.558305543536928L174.796875,34.11290145479143L176.34375,30.997055172920227L177.890625,31.022860600302604L179.4375,28.513441861917567L180.984375,31.932448890681055L182.53125,30.506787402555346L184.078125,33.42909297905862L185.625,30.358423870056868L187.17187500000003,33.10009145488341L188.71875,28.023138741652158L190.265625,26.86843424104154L191.8125,28.958567809313536L193.359375,30.680956362436202L194.90625,30.19715762386718L196.453125,34.14514056406915L198,30.442273834099364L199.546875,26.86196520924568L201.09375,31.26154312863946L202.640625,30.584203684702516L204.18749999999997,28.62956628513832L205.734375,25.59113628541429L207.28125,28.21024576512475L208.828125,31.95825431806345L210.375,29.739128962780025L211.921875,32.80979807178178L213.46875000000003,31.087374168758583L215.015625,29.68751810801525L216.5625,27.771553499624133L218.109375,26.836159781863284L219.65625,32.20340587819614L221.203125,27.694137217476964L222.75,30.377760265643385L224.296875,26.294281156733632L225.84375,33.5774565115571L227.390625,27.003895059848812L228.9375,27.900580636536073L230.48437499999997,25.197621192783117L232.03125,27.887677922844887L233.578125,27.58448182605207L235.125,31.11964862793684L236.671875,27.281285729259253L238.21875,27.6425617126127L239.765625,26.126545878748086L241.3125,27.597384539743256L242.859375,26.352361043294263L244.40625,30.76484167637923L245.953125,27.629658998921514L247.5,25.59113628541429L249.046875,26.068501342087984L250.59375,30.945444318155435L252.140625,25.01698320110638L253.6875,25.920137809589505L255.234375,26.629751712704685L256.78125,29.313339410970595L258.328125,26.52653000317514L259.875,23.88161509608228L261.421875,27.3845074387888" fill="none"></path></g><g><path style="fill: none;" stroke="rgb(238, 51, 119)" stroke-width="2px" d="M32.484375,232.46833397385973L34.03125,176.55748195946214L35.578125,155.540127903223L37.125,145.78620660118756L38.671875,142.65102392372984L40.21874999999999,139.10942343994972L41.765625,125.00106604148941L43.3125,134.52273849708337L44.859375,113.79567782394587L46.40625,126.27836399711667L47.953125,123.49155458932118L49.5,118.73070068657397L51.04687499999999,125.34943931115167L52.59375,118.26623834359148L54.140625,114.72463785981135L55.6875,109.03485927109914L57.234375,108.2220236584544L58.78125,106.53830789650479L60.328125,114.8407622830321L61.875,106.36413893662392L63.421875,105.20296540421741L64.96875,98.11976443665722L66.515625,100.61628046135107L68.0625,104.6804231746743L69.609375,100.09373823180793L71.15625,97.24884893745184L72.703125,94.34591510643558L74.25,98.87452016274133L75.796875,94.63620848953724L77.34375,93.99754183677332L78.890625,105.55130332397917L80.43749999999999,95.21679525574045L81.984375,121.6336698674907L83.53125,90.45594135299325L85.078125,100.84852930779257L86.625,94.17174614655474L88.171875,119.60158083587883L89.71875,101.02269826767342L91.265625,94.17174614655474L92.8125,101.02269826767342L94.359375,96.78438659446934L95.90625,105.72547228386001L97.453125,93.53307949379086L99,93.12666168746846L100.546875,94.63620848953724L102.09374999999999,100.73240488457182L103.640625,93.59115938035147L105.1875,94.28783521987498L106.73437500000001,94.52008406631649L108.28125,89.46893678046763L109.828125,87.37883856209615L111.375,89.64314109024899L112.921875,82.50186023612817L114.46875,86.21766502968966L116.015625,84.41782484451929L117.5625,85.92733629668751L119.109375,86.21766502968966L120.65625,89.70118562690914L122.203125,95.62321306206286L123.75,86.44987852623065L125.296875,84.24365588463841L126.84375,86.04346071990827L128.390625,90.86235915931562L129.9375,89.23672328392664L131.484375,84.01140703819691L133.03125,88.83030547760426L134.578125,89.81731005012989L136.125,92.02356804162264L137.671875,87.61105205863713L139.21875,85.05645614738265L140.765625,82.09544242980579L142.3125,86.5660029494514L143.85937500000003,87.95942532829939L145.40625,107.35114350914954L146.953125,82.5599401226888L148.5,83.7791581917554L150.046875,79.88921978821357L151.59375,79.5408465185513L153.140625,87.03046529243389L154.6875,80.4698065544168L156.234375,86.3337541030099L157.78125,83.60498923187454L159.328125,88.88835001426438L160.87499999999997,84.99841161072253L162.421875,88.36584313462177L163.96875,85.8692917600274L165.515625,88.88835001426438L167.0625,84.18557599807778L168.609375,91.44294592551887L170.15625,76.75403711075583L171.703125,95.85546190850437L173.25,80.41176201775669L174.796875,82.44381569946805L176.34375,81.10843785728017L177.890625,81.80514904670416L179.4375,82.5599401226888L180.984375,84.99841161072253L182.53125,80.64397551429768L184.078125,81.1665177438408L185.625,84.47586938117941L187.17187500000003,85.92733629668751L188.71875,79.42475744523107L190.265625,77.39266841361919L191.8125,79.94726432487367L193.359375,78.8441353291273L194.90625,79.71505082833269L196.453125,91.26877696563797L198,77.50879283683994L199.546875,87.20466960221528L201.09375,82.61798465934892L202.640625,84.47586938117941L204.18749999999997,77.79908621994157L205.734375,80.52785109107693L207.28125,81.34068670372167L208.828125,89.29476782058673L210.375,89.81731005012989L211.921875,81.6309800868233L213.46875000000003,105.3771343640983L215.015625,80.76009993751843L216.5625,89.64314109024899L218.109375,88.54001209450264L219.65625,82.79215361922978L221.203125,83.19857142555216L222.75,80.76009993751843L224.296875,81.3987665902823L225.84375,82.3276912762473L227.390625,80.2375577079753L228.9375,76.9282060706367L230.48437499999997,82.73410908256967L232.03125,80.06338874809443L233.578125,82.44381569946805L235.125,83.43082027199367L236.671875,77.33462387695907L238.21875,82.44381569946805L239.765625,79.36667755867043L241.3125,80.06338874809443L242.859375,82.26964673958717L244.40625,83.37274038543303L245.953125,77.56683737350006L247.5,81.3987665902823L249.046875,84.59199380440016L250.59375,86.97242075577377L252.140625,81.1665177438408L253.6875,79.48280198189119L255.234375,83.02440246567129L256.78125,89.93343447335064L258.328125,77.10237503051756L259.875,79.30863302201031L261.421875,104.50625421479343" fill="none"></path></g></g></g></g></g></g><g transform="translate(51, 177)" clip-path="url(#clip_1)"><clipPath id="clip_1"><rect width="278" height="22"></rect></clipPath><g><g><line x1="0" y1="0" x2="0" y2="5" style="visibility: inherit;" fill="rgb(0, 0, 0)" stroke="rgb(204, 204, 204)" stroke-width="1px"></line><line x1="30.9375" y1="0" x2="30.9375" y2="5" style="visibility: inherit;" fill="rgb(0, 0, 0)" stroke="rgb(204, 204, 204)" stroke-width="1px"></line><line x1="61.875" y1="0" x2="61.875" y2="5" style="visibility: inherit;" fill="rgb(0, 0, 0)" stroke="rgb(204, 204, 204)" stroke-width="1px"></line><line x1="92.8125" y1="0" x2="92.8125" y2="5" style="visibility: inherit;" fill="rgb(0, 0, 0)" stroke="rgb(204, 204, 204)" stroke-width="1px"></line><line x1="123.75" y1="0" x2="123.75" y2="5" style="visibility: inherit;" fill="rgb(0, 0, 0)" stroke="rgb(204, 204, 204)" stroke-width="1px"></line><line x1="154.6875" y1="0" x2="154.6875" y2="5" style="visibility: inherit;" fill="rgb(0, 0, 0)" stroke="rgb(204, 204, 204)" stroke-width="1px"></line><line x1="185.625" y1="0" x2="185.625" y2="5" style="visibility: inherit;" fill="rgb(0, 0, 0)" stroke="rgb(204, 204, 204)" stroke-width="1px"></line><line x1="216.5625" y1="0" x2="216.5625" y2="5" style="visibility: inherit;" fill="rgb(0, 0, 0)" stroke="rgb(204, 204, 204)" stroke-width="1px"></line><line x1="247.5" y1="0" x2="247.5" y2="5" style="visibility: inherit;" fill="rgb(0, 0, 0)" stroke="rgb(204, 204, 204)" stroke-width="1px"></line><line x1="278.4375" y1="0" x2="278.4375" y2="5" style="visibility: inherit;" fill="rgb(0, 0, 0)" stroke="rgb(204, 204, 204)" stroke-width="1px"></line></g><g transform="translate(0, 8)"><text style="text-anchor: middle; visibility: hidden; font-family: Roboto, sans-serif; font-size: 12px; font-weight: 200;" x="0" y="0" dx="0em" dy="0.95em" fill="rgb(50, 49, 63)" stroke="none" stroke-width="1px">-20</text><text style="text-anchor: middle; visibility: inherit; font-family: Roboto, sans-serif; font-size: 12px; font-weight: 200;" x="30.9375" y="0" dx="0em" dy="0.95em" fill="rgb(50, 49, 63)" stroke="none" stroke-width="1px">0</text><text style="text-anchor: middle; visibility: inherit; font-family: Roboto, sans-serif; font-size: 12px; font-weight: 200;" x="61.875" y="0" dx="0em" dy="0.95em" fill="rgb(50, 49, 63)" stroke="none" stroke-width="1px">20</text><text style="text-anchor: middle; visibility: inherit; font-family: Roboto, sans-serif; font-size: 12px; font-weight: 200;" x="92.8125" y="0" dx="0em" dy="0.95em" fill="rgb(50, 49, 63)" stroke="none" stroke-width="1px">40</text><text style="text-anchor: middle; visibility: inherit; font-family: Roboto, sans-serif; font-size: 12px; font-weight: 200;" x="123.75" y="0" dx="0em" dy="0.95em" fill="rgb(50, 49, 63)" stroke="none" stroke-width="1px">60</text><text style="text-anchor: middle; visibility: inherit; font-family: Roboto, sans-serif; font-size: 12px; font-weight: 200;" x="154.6875" y="0" dx="0em" dy="0.95em" fill="rgb(50, 49, 63)" stroke="none" stroke-width="1px">80</text><text style="text-anchor: middle; visibility: inherit; font-family: Roboto, sans-serif; font-size: 12px; font-weight: 200;" x="185.625" y="0" dx="0em" dy="0.95em" fill="rgb(50, 49, 63)" stroke="none" stroke-width="1px">100</text><text style="text-anchor: middle; visibility: inherit; font-family: Roboto, sans-serif; font-size: 12px; font-weight: 200;" x="216.5625" y="0" dx="0em" dy="0.95em" fill="rgb(50, 49, 63)" stroke="none" stroke-width="1px">120</text><text style="text-anchor: middle; visibility: inherit; font-family: Roboto, sans-serif; font-size: 12px; font-weight: 200;" x="247.5" y="0" dx="0em" dy="0.95em" fill="rgb(50, 49, 63)" stroke="none" stroke-width="1px">140</text><text style="text-anchor: middle; visibility: hidden; font-family: Roboto, sans-serif; font-size: 12px; font-weight: 200;" x="278.4375" y="0" dx="0em" dy="0.95em" fill="rgb(50, 49, 63)" stroke="none" stroke-width="1px">160</text></g><line x1="0" y1="0" x2="278.4375" y2="0" fill="rgb(0, 0, 0)" stroke="rgb(204, 204, 204)" stroke-width="1px"></line></g></g></g></g></svg>