<svg viewBox="0 0 330 200" xmlns="http://www.w3.org/2000/svg"><g><g><g><g><g><line x1="48.875" y1="177.828125" x2="43.875" y2="177.828125" style="visibility: inherit;" fill="rgb(0, 0, 0)" stroke="rgb(204, 204, 204)" stroke-width="1px"></line><line x1="48.875" y1="155.59960937499997" x2="43.875" y2="155.59960937499997" style="visibility: inherit;" fill="rgb(0, 0, 0)" stroke="rgb(204, 204, 204)" stroke-width="1px"></line><line x1="48.875" y1="133.37109375" x2="43.875" y2="133.37109375" style="visibility: inherit;" fill="rgb(0, 0, 0)" stroke="rgb(204, 204, 204)" stroke-width="1px"></line><line x1="48.875" y1="111.14257812499999" x2="43.875" y2="111.14257812499999" style="visibility: inherit;" fill="rgb(0, 0, 0)" stroke="rgb(204, 204, 204)" stroke-width="1px"></line><line x1="48.875" y1="88.91406249999999" x2="43.875" y2="88.91406249999999" style="visibility: inherit;" fill="rgb(0, 0, 0)" stroke="rgb(204, 204, 204)" stroke-width="1px"></line><line x1="48.875" y1="66.685546875" x2="43.875" y2="66.685546875" style="visibility: inherit;" fill="rgb(0, 0, 0)" stroke="rgb(204, 204, 204)" stroke-width="1px"></line><line x1="48.875" y1="44.45703124999997" x2="43.875" y2="44.45703124999997" style="visibility: inherit;" fill="rgb(0, 0, 0)" stroke="rgb(204, 204, 204)" stroke-width="1px"></line><line x1="48.875" y1="22.22851562500003" x2="43.875" y2="22.22851562500003" style="visibility: inherit;" fill="rgb(0, 0, 0)" stroke="rgb(204, 204, 204)" stroke-width="1px"></line><line x1="48.875" y1="0" x2="43.875" y2="0" style="visibility: inherit;" fill="rgb(0, 0, 0)" stroke="rgb(204, 204, 204)" stroke-width="1px"></line></g><g transform="translate(38.875, 0)"><text style="text-anchor: end; visibility: hidden; font-family: &quot;Helvetica Neue&quot;, sans-serif; font-size: 12px; font-weight: 200;" x="0" y="177.828125" dx="0em" dy="0.3em" fill="rgb(50, 49, 63)" stroke="none" stroke-width="1px">0.6</text><text style="text-anchor: end; visibility: inherit; font-family: &quot;Helvetica Neue&quot;, sans-serif; font-size: 12px; font-weight: 200;" x="0" y="155.59960937499997" dx="0em" dy="0.3em" fill="rgb(50, 49, 63)" stroke="none" stroke-width="1px">0.65</text><text style="text-anchor: end; visibility: hidden; font-family: &quot;Helvetica Neue&quot;, sans-serif; font-size: 12px; font-weight: 200;" x="0" y="133.37109375" dx="0em" dy="0.3em" fill="rgb(50, 49, 63)" stroke="none" stroke-width="1px">0.7</text><text style="text-anchor: end; visibility: inherit; font-family: &quot;Helvetica Neue&quot;, sans-serif; font-size: 12px; font-weight: 200;" x="0" y="111.14257812499999" dx="0em" dy="0.3em" fill="rgb(50, 49, 63)" stroke="none" stroke-width="1px">0.75</text><text style="text-anchor: end; visibility: hidden; font-family: &quot;Helvetica Neue&quot;, sans-serif; font-size: 12px; font-weight: 200;" x="0" y="88.91406249999999" dx="0em" dy="0.3em" fill="rgb(50, 49, 63)" stroke="none" stroke-width="1px">0.8</text><text style="text-anchor: end; visibility: inherit; font-family: &quot;Helvetica Neue&quot;, sans-serif; font-size: 12px; font-weight: 200;" x="0" y="66.685546875" dx="0em" dy="0.3em" fill="rgb(50, 49, 63)" stroke="none" stroke-width="1px">0.85</text><text style="text-anchor: end; visibility: hidden; font-family: &quot;Helvetica Neue&quot;, sans-serif; font-size: 12px; font-weight: 200;" x="0" y="44.45703124999997" dx="0em" dy="0.3em" fill="rgb(50, 49, 63)" stroke="none" stroke-width="1px">0.9</text><text style="text-anchor: end; visibility: inherit; font-family: &quot;Helvetica Neue&quot;, sans-serif; font-size: 12px; font-weight: 200;" x="0" y="22.22851562500003" dx="0em" dy="0.3em" fill="rgb(50, 49, 63)" stroke="none" stroke-width="1px">0.95</text><text style="text-anchor: end; visibility: hidden; font-family: &quot;Helvetica Neue&quot;, sans-serif; font-size: 12px; font-weight: 200;" x="0" y="0" dx="0em" dy="0.3em" fill="rgb(50, 49, 63)" stroke="none" stroke-width="1px">1</text></g><line x1="48.875" y1="0" x2="48.875" y2="177.828125" fill="rgb(0, 0, 0)" stroke="rgb(204, 204, 204)" stroke-width="1px"></line></g></g><g transform="translate(48, 0)" clip-path="url(#clip_0)"><clipPath id="clip_0"><rect width="281" height="177"></rect></clipPath><g><g><g><line x1="0" y1="0" x2="0" y2="177.828125" fill="rgb(0, 0, 0)" stroke="rgb(60, 60, 60)" stroke-width="1px" opacity="0.25"></line><line x1="20.080357142857142" y1="0" x2="20.080357142857142" y2="177.828125" fill="rgb(0, 0, 0)" stroke="rgb(60, 60, 60)" stroke-width="1px" opacity="0.25"></line><line x1="40.160714285714285" y1="0" x2="40.160714285714285" y2="177.828125" fill="rgb(0, 0, 0)" stroke="rgb(60, 60, 60)" stroke-width="1px" opacity="0.25"></line><line x1="60.24107142857142" y1="0" x2="60.24107142857142" y2="177.828125" fill="rgb(0, 0, 0)" stroke="rgb(60, 60, 60)" stroke-width="1px" opacity="0.25"></line><line x1="80.32142857142857" y1="0" x2="80.32142857142857" y2="177.828125" fill="rgb(0, 0, 0)" stroke="rgb(60, 60, 60)" stroke-width="1px" opacity="0.25"></line><line x1="100.40178571428572" y1="0" x2="100.40178571428572" y2="177.828125" fill="rgb(0, 0, 0)" stroke="rgb(60, 60, 60)" stroke-width="1px" opacity="0.25"></line><line x1="120.48214285714285" y1="0" x2="120.48214285714285" y2="177.828125" fill="rgb(0, 0, 0)" stroke="rgb(60, 60, 60)" stroke-width="1px" opacity="0.25"></line><line x1="140.5625" y1="0" x2="140.5625" y2="177.828125" fill="rgb(0, 0, 0)" stroke="rgb(60, 60, 60)" stroke-width="1px" opacity="0.25"></line><line x1="160.64285714285714" y1="0" x2="160.64285714285714" y2="177.828125" fill="rgb(0, 0, 0)" stroke="rgb(60, 60, 60)" stroke-width="1px" opacity="0.25"></line><line x1="180.7232142857143" y1="0" x2="180.7232142857143" y2="177.828125" fill="rgb(0, 0, 0)" stroke="rgb(60, 60, 60)" stroke-width="1px" opacity="0.25"></line><line x1="200.80357142857144" y1="0" x2="200.80357142857144" y2="177.828125" fill="rgb(0, 0, 0)" stroke="rgb(60, 60, 60)" stroke-width="1px" opacity="0.25"></line><line x1="220.88392857142856" y1="0" x2="220.88392857142856" y2="177.828125" fill="rgb(0, 0, 0)" stroke="rgb(60, 60, 60)" stroke-width="1px" opacity="0.25"></line><line x1="240.9642857142857" y1="0" x2="240.9642857142857" y2="177.828125" fill="rgb(0, 0, 0)" stroke="rgb(60, 60, 60)" stroke-width="1px" opacity="0.25"></line><line x1="261.0446428571429" y1="0" x2="261.0446428571429" y2="177.828125" fill="rgb(0, 0, 0)" stroke="rgb(60, 60, 60)" stroke-width="1px" opacity="0.25"></line><line x1="281.125" y1="0" x2="281.125" y2="177.828125" fill="rgb(0, 0, 0)" stroke="rgb(60, 60, 60)" stroke-width="1px" opacity="0.25"></line></g><g><line x1="0" y1="177.828125" x2="281.125" y2="177.828125" fill="rgb(0, 0, 0)" stroke="rgb(60, 60, 60)" stroke-width="1px" opacity="0.25"></line><line x1="0" y1="155.59960937499997" x2="281.125" y2="155.59960937499997" fill="rgb(0, 0, 0)" stroke="rgb(60, 60, 60)" stroke-width="1px" opacity="0.25"></line><line x1="0" y1="133.37109375" x2="281.125" y2="133.37109375" fill="rgb(0, 0, 0)" stroke="rgb(60, 60, 60)" stroke-width="1px" opacity="0.25"></line><line x1="0" y1="111.14257812499999" x2="281.125" y2="111.14257812499999" fill="rgb(0, 0, 0)" stroke="rgb(60, 60, 60)" stroke-width="1px" opacity="0.25"></line><line x1="0" y1="88.91406249999999" x2="281.125" y2="88.91406249999999" fill="rgb(0, 0, 0)" stroke="rgb(60, 60, 60)" stroke-width="1px" opacity="0.25"></line><line x1="0" y1="66.685546875" x2="281.125" y2="66.685546875" fill="rgb(0, 0, 0)" stroke="rgb(60, 60, 60)" stroke-width="1px" opacity="0.25"></line><line x1="0" y1="44.45703124999997" x2="281.125" y2="44.45703124999997" fill="rgb(0, 0, 0)" stroke="rgb(60, 60, 60)" stroke-width="1px" opacity="0.25"></line><line x1="0" y1="22.22851562500003" x2="281.125" y2="22.22851562500003" fill="rgb(0, 0, 0)" stroke="rgb(60, 60, 60)" stroke-width="1px" opacity="0.25"></line><line x1="0" y1="0" x2="281.125" y2="0" fill="rgb(0, 0, 0)" stroke="rgb(60, 60, 60)" stroke-width="1px" opacity="0.25"></line></g></g></g><g><g><line x1="0" y1="444.57031249999994" x2="281.125" y2="444.57031249999994" fill="rgb(0, 0, 0)" stroke="rgb(153, 153, 153)" stroke-width="1.5px"></line></g></g><g><g><line x1="20.080357142857142" y1="0" x2="20.080357142857142" y2="177.828125" fill="rgb(0, 0, 0)" stroke="rgb(153, 153, 153)" stroke-width="1.5px"></line></g></g><g><g><g><g><g><path style="fill: none;" stroke="rgb(51, 187, 238)" stroke-width="2px" d="M26.104464285714286,192.28765786871116L28.1125,170.91255557959082L30.12053571428571,155.05145830380823L32.128571428571426,143.28496258178274L34.136607142857144,133.35228641768546L36.144642857142856,125.76023051651677L38.15267857142857,118.74768865882803L40.160714285714285,113.00855321556548L42.168749999999996,107.4399358654264L44.176785714285714,103.13568698673947L46.184821428571425,99.24975364518653L48.19285714285714,95.7457415026335L50.20089285714286,92.54857004488346L52.20892857142857,89.54188105423984L54.21696428571429,87.15609041512562L56.225,85.25071665492624L58.23303571428572,82.9786170307639L60.24107142857142,80.7246505989135L62.24910714285714,78.48651095329306L64.25714285714285,76.81541235826616L66.26517857142856,74.88495092776407L68.27321428571429,73.40481816812098L70.28125,72.33030835358042L72.28928571428571,71.10261582028413L74.29732142857144,69.63487646861927L76.30535714285713,67.78034063834058L78.31339285714286,66.43428472568291L80.32142857142857,64.88822410935086L82.3294642857143,64.019806623986L84.33749999999999,63.13370283647086L86.34553571428572,62.0079663992595L88.35357142857143,61.39678861308987L90.36160714285715,60.33064990685267L92.36964285714285,59.04671503596184L94.37767857142856,58.256395481715074L96.38571428571429,57.074419402232124L98.39375,56.46239829318391L100.40178571428572,55.763912536055884L102.40982142857142,54.90782975169114L104.41785714285714,54.301795865864946L106.42589285714286,53.763179733970674L108.43392857142858,52.936062427110784L110.44196428571428,52.056571378800385L112.45,51.67418368073206L114.45803571428571,50.899709629283734L116.46607142857144,49.77827687657833L118.47410714285715,49.628009166027596L120.48214285714285,48.564210487572495L122.49017857142857,48.25282682760306L124.49821428571428,47.556357135637285L126.50625000000001,46.821776379056246L128.5142857142857,46.573332516756494L130.52232142857144,45.674667289275675L132.53035714285713,44.72390474050101L134.53839285714287,43.90240084331538L136.54642857142858,43.62943568610433L138.5544642857143,43.46679072567545L140.5625,42.816700351729764L142.5705357142857,42.32604739069626L144.57857142857142,42.10225809905489L146.58660714285716,41.47541003346325L148.59464285714287,41.064545819803385L150.60267857142856,40.50112696194307L152.61071428571427,39.80510271145354L154.61875,39.348641425317254L156.62678571428572,38.66002142668256L158.63482142857143,38.742179757486184L160.64285714285714,38.4843152585658L162.65089285714288,38.07038866698193L164.6589285714286,37.52804824673052L166.6669642857143,36.91753121219827L168.67499999999998,36.393904960544404L170.6830357142857,35.89903094143662L172.69107142857143,35.767329700043746L174.69910714285714,35.57415360868029L176.70714285714286,35.11862254871457L178.71517857142857,34.8546101703258L180.7232142857143,34.883737612941104L182.73125000000002,33.859029821561705L184.7392857142857,33.383820209358305L186.7473214285714,32.79540371914456L188.75535714285712,32.5828698351294L190.76339285714286,32.308929638709714L192.77142857142857,31.73460261528706L194.77946428571428,31.795411572448984L196.7875,31.416030185277805L198.79553571428573,31.217920632462494L200.80357142857144,30.848443107523508L202.81160714285713,30.378158681932405L204.81964285714284,30.130065040420504L206.82767857142858,29.957339046750064L208.8357142857143,29.940904568085728L210.84375,29.250446949049604L212.8517857142857,28.7842248053594L214.85982142857142,28.604602684229206L216.86785714285716,28.032141895569566L218.87589285714287,28.059113831022245L220.88392857142856,27.67532930415797L222.89196428571427,27.59485965697874L224.9,27.27825450772886L226.90803571428572,27.01794331837351L228.91607142857143,26.68991942018212L230.92410714285714,26.762530777960706L232.93214285714288,26.429957315726398L234.9401785714286,26.44200870567758L236.9482142857143,26.462372174220974L238.95624999999998,26.29820593579575L240.9642857142857,25.803829866142365L242.97232142857143,25.67587219364424L244.98035714285714,25.387957896289095L246.98839285714286,25.083798177091438L248.99642857142857,24.989807187123972L251.0044642857143,24.824906717339985L253.01250000000002,24.78929774424421L255.0205357142857,25.25262091062058L257.0285714285714,24.41280396134613L259.0366071428571,23.93025034819368" fill="none"></path></g><g><path style="fill: none;" stroke="rgb(204, 51, 17)" stroke-width="2px" d="M24.09642857142857,178.18406409819193L26.104464285714286,163.4151712431091L28.1125,151.69515981315567L30.12053571428571,139.51411218779478L32.128571428571426,129.61853818732754L34.136607142857144,124.05541856818614L36.144642857142856,118.19894589384973L38.15267857142857,110.96670847947944L40.160714285714285,107.29317028250891L42.168749999999996,107.42429596976585L44.176785714285714,103.90272308493849L46.184821428571425,99.39437852268668L48.19285714285714,97.37072705942978L50.20089285714286,93.01095465429914L52.20892857142857,92.37752465294984L54.21696428571429,92.26939464545812L56.225,88.90326150429686L58.23303571428572,87.81001618039244L60.24107142857142,85.78938356988726L62.24910714285714,83.76339188555217L64.25714285714285,85.45490826299579L66.26517857142856,84.4704915949364L68.27321428571429,82.16479606371936L70.28125,82.29651421651583L72.28928571428571,80.298222913555L74.29732142857144,78.89487202722192L76.30535714285713,78.12212903530839L78.31339285714286,77.18570847324759L80.32142857142857,78.99281850928199L82.3294642857143,78.02753467107719L84.33749999999999,76.41896296617628L86.34553571428572,73.84824672621576L88.35357142857143,72.58451719030641L90.36160714285715,73.25576518073812L92.36964285714285,73.27403197747677L94.37767857142856,72.93437508963413L96.38571428571429,72.44922035603389L98.39375,72.81179141905143L100.40178571428572,72.03430645030959L102.40982142857142,70.22851992881408L104.41785714285714,70.6096812516723L106.42589285714286,70.03718134242204L108.43392857142858,70.61043256476768L110.44196428571428,70.49138108389971L112.45,70.76182266957512L114.45803571428571,69.27145314369405L116.46607142857144,68.72150996213443L118.47410714285715,67.12416532156234L120.48214285714285,66.28157798676457L122.49017857142857,66.14832888642668L124.49821428571428,65.24232717215688L126.50625000000001,65.78444206333023L128.5142857142857,65.35849038245269L130.52232142857144,64.86837624412449L132.53035714285713,63.65729160883505L134.53839285714287,64.71761187518234L136.54642857142858,65.26285073614628L138.5544642857143,63.656518344135606L140.5625,63.555805404477766L142.5705357142857,65.75830334748683L144.57857142857142,64.56064694066114L146.58660714285716,63.469993581819594L148.59464285714287,64.17977385659404L150.60267857142856,63.256563251663025L152.61071428571427,64.2487157764726L154.61875,62.58477016956765L156.62678571428572,62.19986325026997L158.63482142857143,61.01434933518729L160.64285714285714,60.769223015012514L162.65089285714288,63.34756637357306L164.6589285714286,62.98569784625694L166.6669642857143,62.73128810321141L168.67499999999998,63.10723344878015L170.6830357142857,63.29233221479896L172.69107142857143,62.50197761274809L174.69910714285714,62.44739439367467L176.70714285714286,62.33929345401653L178.71517857142857,60.28437767933325L180.7232142857143,60.8317958469198L182.73125000000002,59.87726572521068L184.7392857142857,59.56447630240788L186.7473214285714,59.38580152423246L188.75535714285712,58.79440627805775L190.76339285714286,58.15085255801608L192.77142857142857,58.51911015685603L194.77946428571428,58.88416331746403L196.7875,59.84147398371681L198.79553571428573,57.92790979209802L200.80357142857144,58.5762499705002L202.81160714285713,57.754200463036895L204.81964285714284,58.137264084355635L206.82767857142858,57.453000934965345L208.8357142857143,56.9673570216727L210.84375,58.13134004841193L212.8517857142857,60.381638412445454L214.85982142857142,57.92359719057808L216.86785714285716,58.486143310583685L218.87589285714287,57.281026294658815L220.88392857142856,56.429449175048006L222.89196428571427,58.347213547414896L224.9,56.82535453683815L226.90803571428572,57.101097638624495L228.91607142857143,56.869363449084815L230.92410714285714,57.1838175037164L232.93214285714288,57.16015251244808L234.9401785714286,56.231852195505525L236.9482142857143,58.48831902535659L238.95624999999998,58.236636502470986L240.9642857142857,58.43573518290455L242.97232142857143,58.03585646044809L244.98035714285714,57.746207524972306L246.98839285714286,58.558192508451455L248.99642857142857,57.32082161353961L251.0044642857143,56.60694321291557L253.01250000000002,56.53849699711449L255.0205357142857,56.249944292139375L257.0285714285714,55.78593382284423L259.0366071428571,57.81992056489965" fill="none"></path></g><g><path style="fill: none;" stroke="rgb(0, 119, 187)" stroke-width="2px" d="M28.1125,177.87468815781673L30.12053571428571,165.88479073422096L32.128571428571426,156.66643924540756L34.136607142857144,149.33768633620656L36.144642857142856,143.72280810634862L38.15267857142857,138.73924072808776L40.160714285714285,134.7254769794747L42.168749999999996,131.08412918204255L44.176785714285714,128.08018614310575L46.184821428571425,125.23554954898071L48.19285714285714,122.50134852539671L50.20089285714286,120.7097295082417L52.20892857142857,118.02353316224335L54.21696428571429,116.44048380973575L56.225,115.13506255570788L58.23303571428572,113.71864106925096L60.24107142857142,111.52879682625387L62.24910714285714,109.4335772808515L64.25714285714285,107.78959329649857L66.26517857142856,106.49991905506516L68.27321428571429,105.37834110241884L70.28125,104.33858292532571L72.28928571428571,103.2144060031122L74.29732142857144,102.13032960621466L76.30535714285713,100.52103192692341L78.31339285714286,100.22126463967236L80.32142857142857,99.14586238703512L82.3294642857143,98.68219915803735L84.33749999999999,97.69304764778566L86.34553571428572,97.04191732969137L88.35357142857143,96.2403540918869L90.36160714285715,95.32282759980804L92.36964285714285,94.50266342522872L94.37767857142856,93.57970003481766L96.38571428571429,92.99910556568379L98.39375,92.60061380705565L100.40178571428572,91.50164386879473L102.40982142857142,90.96572351058003L104.41785714285714,90.29798487297344L106.42589285714286,89.19631974903271L108.43392857142858,88.7945815639601L110.44196428571428,88.3345130187005L112.45,87.69181806173631L114.45803571428571,87.38566465609105L116.46607142857144,87.60218408664062L118.47410714285715,86.60134305016628L120.48214285714285,85.80354152761119L122.49017857142857,85.38030598248248L124.49821428571428,84.39969220904958L126.50625000000001,84.18250371101298L128.5142857142857,83.59973478329323L130.52232142857144,83.18015990152728L132.53035714285713,82.80810138486926L134.53839285714287,83.42527009246866L136.54642857142858,83.43346462218831L138.5544642857143,82.33964937891876L140.5625,81.28364692999456L142.5705357142857,80.6062064157712L144.57857142857142,79.62924095853637L146.58660714285716,79.25126534917635L148.59464285714287,78.64039016999266L150.60267857142856,78.56055715281491L152.61071428571427,78.49656748029574L154.61875,77.77574305182242L156.62678571428572,77.39094561473608L158.63482142857143,77.40206164798786L160.64285714285714,77.11180017438024L162.65089285714288,76.78327388753883L164.6589285714286,76.14123844729593L166.6669642857143,75.80913068746318L168.67499999999998,75.80554122675832L170.6830357142857,75.08331851910428L172.69107142857143,74.84611586314215L174.69910714285714,74.5471989966215L176.70714285714286,74.42684503815511L178.71517857142857,74.24729271931614L180.7232142857143,73.80608356455366L182.73125000000002,73.17331572281212L184.7392857142857,72.96643554736312L186.7473214285714,72.5612754218676L188.75535714285712,71.9513347278773L190.76339285714286,72.3833024045148L192.77142857142857,72.8647308569219L194.77946428571428,71.72320129754787L196.7875,71.77016030494956L198.79553571428573,71.19588802267364L200.80357142857144,71.66534660855237L202.81160714285713,70.91866969693038L204.81964285714284,70.62364443356294L206.82767857142858,69.60647984312175L208.8357142857143,69.47791241145109L210.84375,69.42506573650077L212.8517857142857,69.35748942209237L214.85982142857142,68.7412805856046L216.86785714285716,68.2359785857142L218.87589285714287,68.73280695772715L220.88392857142856,68.48380626817968L222.89196428571427,67.97412225335343L224.9,67.60315744194097L226.90803571428572,68.65460309937718L228.91607142857143,67.76471353019845L230.92410714285714,67.3268101916198L232.93214285714288,66.59846912562003L234.9401785714286,66.04592062042147L236.9482142857143,66.21877371970407L238.95624999999998,66.57404071754122L240.9642857142857,66.7751494186574L242.97232142857143,66.57572389561406L244.98035714285714,66.2840300089477L246.98839285714286,66.203443573161L248.99642857142857,65.88741491306213L251.0044642857143,65.58137410267969L253.01250000000002,65.04703725749866L255.0205357142857,64.97726953066656L257.0285714285714,65.05954885914785L259.0366071428571,64.62317856716282" fill="none"></path></g><g><path style="fill: none;" stroke="rgb(255, 112, 67)" stroke-width="2px" d="M24.09642857142857,180.51578028232086L26.104464285714286,168.3855732072141L28.1125,159.68761926066574L30.12053571428571,153.28811243819712L32.128571428571426,146.4414885730131L34.136607142857144,144.2088030455455L36.144642857142856,138.18096666518528L38.15267857142857,134.6472823584329L40.160714285714285,132.57478467773058L42.168749999999996,129.7871668752671L44.176785714285714,127.30697496478095L46.184821428571425,126.24698205422217L48.19285714285714,124.18402175112071L50.20089285714286,124.66847989834545L52.20892857142857,124.02654539989652L54.21696428571429,122.38638112759642L56.225,122.91075198366087L58.23303571428572,121.27860033136312L60.24107142857142,119.17288407481249L62.24910714285714,116.17007056960526L64.25714285714285,116.1297528135488L66.26517857142856,113.49596089665928L68.27321428571429,114.03082766818203L70.28125,114.10159031134792L72.28928571428571,114.90453307398587L74.29732142857144,115.33631148835963L76.30535714285713,112.52543576574624L78.31339285714286,112.46272611098229L80.32142857142857,114.61823999216023L82.3294642857143,114.7507249033383L84.33749999999999,113.76695996371912L86.34553571428572,113.96230606402912L88.35357142857143,112.66432657959267L90.36160714285715,111.01028430784457L92.36964285714285,109.74550782784229L94.37767857142856,110.46079343033587L96.38571428571429,110.12287689765657L98.39375,108.84049510274991L100.40178571428572,108.02399417041869L102.40982142857142,108.6481204816223L104.41785714285714,108.5471503790785L106.42589285714286,107.17820177466214L108.43392857142858,107.62130711319757L110.44196428571428,107.91494069771193L112.45,108.87671526056383L114.45803571428571,108.92545379139948L116.46607142857144,107.60879795475302L118.47410714285715,109.82291316022129L120.48214285714285,109.04207342321583L122.49017857142857,108.52360409322176L124.49821428571428,107.4401243139653L126.50625000000001,107.50610951054693L128.5142857142857,106.16249184794553L130.52232142857144,105.92933445267262L132.53035714285713,105.08158147259716L134.53839285714287,104.97378772079445L136.54642857142858,104.37444683230358L138.5544642857143,105.54479952661808L140.5625,104.83843804100071L142.5705357142857,104.56216455015641L144.57857142857142,103.04149202563224L146.58660714285716,103.34596118626209L148.59464285714287,103.86684777057005L150.60267857142856,105.52767413666598L152.61071428571427,105.55426288674474L154.61875,104.45645425170034L156.62678571428572,102.20515889495233L158.63482142857143,101.9284382801927L160.64285714285714,102.2529347211749L162.65089285714288,103.55556481063398L164.6589285714286,103.64858579642343L166.6669642857143,103.6419892253758L168.67499999999998,102.60467631118932L170.6830357142857,103.29355933608825L172.69107142857143,103.96973263136131L174.69910714285714,105.06689790713983L176.70714285714286,103.90094799781262L178.71517857142857,104.02478046072673L180.7232142857143,105.01188813602565L182.73125000000002,104.01548553567012L184.7392857142857,104.03057445119101L186.7473214285714,103.76145761347729L188.75535714285712,102.26068137146184L190.76339285714286,103.85081606317846L192.77142857142857,105.29011539755341L194.77946428571428,103.93174650304363L196.7875,102.74758048170266L198.79553571428573,101.72693234570893L200.80357142857144,102.71403263889593L202.81160714285713,102.51778357257153L204.81964285714284,102.60020346603363L206.82767857142858,102.14223117701157L208.8357142857143,103.78874482201452L210.84375,103.59123930010594L212.8517857142857,103.44470062098445L214.85982142857142,102.3271110269668L216.86785714285716,103.26161112100588L218.87589285714287,102.6205108236042L220.88392857142856,101.85188802418217L222.89196428571427,100.66726411036916L224.9,102.28157024623314L226.90803571428572,102.68983878536585L228.91607142857143,103.05987261906155L230.92410714285714,103.02222925361177L232.93214285714288,101.95780875700669L234.9401785714286,101.0721908532781L236.9482142857143,100.37792880505788L238.95624999999998,101.10608365730474L240.9642857142857,101.31794108470395L242.97232142857143,101.77690099974046L244.98035714285714,101.36397426604964L246.98839285714286,101.95814835446915L248.99642857142857,104.4546362799352L251.0044642857143,102.90187844045883L253.01250000000002,101.69495778047545L255.0205357142857,101.55544610906989L257.0285714285714,100.8365923253557L259.0366071428571,100.9997040095023" fill="none"></path></g></g></g></g><g opacity="0.20000000298023224"><g><g><g><path style="fill: none;" stroke="rgb(51, 187, 238)" stroke-width="2px" d="M22.088392857142857,212.61942061129957L24.09642857142857,176.0381437279284L26.104464285714286,157.36974330386147L28.1125,143.00522203091532L30.12053571428571,133.1098507763818L32.128571428571426,126.45868543535471L34.136607142857144,118.87034921674058L36.144642857142856,114.56342274323106L38.15267857142857,108.33488126983865L40.160714285714285,104.45190358674152L42.168749999999996,99.1173140099272L44.176785714285714,96.69336778810246L46.184821428571425,93.42846658080815L48.19285714285714,90.49384212354197L50.20089285714286,87.75506775127724L52.20892857142857,85.03311989828944L54.21696428571429,83.57801020843908L56.225,82.39294627914205L58.23303571428572,79.57067527342588L60.24107142857142,77.34382456401363L62.24910714285714,75.12937513180077L64.25714285714285,74.3087974586524L66.26517857142856,71.98928165016696L68.27321428571429,71.1846295488067L70.28125,70.71854821406305L72.28928571428571,69.26108016166836L74.29732142857144,67.43326969444752L76.30535714285713,64.9985386012122L78.31339285714286,64.41520160064101L80.32142857142857,62.56913369754329L82.3294642857143,62.71718056872487L84.33749999999999,61.80454726098105L86.34553571428572,60.31936182407662L88.35357142857143,60.48002196010202L90.36160714285715,58.73144187498838L92.36964285714285,57.12081274949014L94.37767857142856,57.070916157681495L96.38571428571429,55.301455289591104L98.39375,55.544366631656885L100.40178571428572,54.71618390176445L102.40982142857142,53.62370557617396L104.41785714285714,53.392745037563145L106.42589285714286,52.95525553636253L108.43392857142858,51.69538646703586L110.44196428571428,50.73733480647206L112.45,51.100602133665234L114.45803571428571,49.73799855215475L116.46607142857144,48.09612774755806L118.47410714285715,49.40260760020465L120.48214285714285,46.968512469902635L122.49017857142857,47.78575133765116L124.49821428571428,46.511652597691864L126.50625000000001,45.71990524418652L128.5142857142857,46.20066672330722L130.52232142857144,44.32666944805533L132.53035714285713,43.297760917339474L134.53839285714287,42.670144997537136L136.54642857142858,43.21998795028776L138.5544642857143,43.222823285032064L140.5625,41.84156479081139L142.5705357142857,41.59006794914603L144.57857142857142,41.76657416159287L146.58660714285716,40.53513793507591L148.59464285714287,40.44824949931353L150.60267857142856,39.65599867515266L152.61071428571427,38.76106633571908L154.61875,38.663949496112764L156.62678571428572,37.62709142873064L158.63482142857143,38.8654172536917L160.64285714285714,38.09751851018518L162.65089285714288,37.449498779606074L164.6589285714286,36.71453761635348L166.6669642857143,36.001755660399795L168.67499999999998,35.60846558306366L170.6830357142857,35.15671991277486L172.69107142857143,35.56977783795446L174.69910714285714,35.28438947163522L176.70714285714286,34.43532595876604L178.71517857142857,34.45859160274267L180.7232142857143,34.92742877686396L182.73125000000002,32.321968134492636L184.7392857142857,32.671005791053176L186.7473214285714,31.912778983823955L188.75535714285712,32.264069009106606L190.76339285714286,31.89801934408024L192.77142857142857,30.873112080153078L194.77946428571428,31.886625008191913L196.7875,30.846958104521036L198.79553571428573,30.920756303239614L200.80357142857144,30.294226820115L202.81160714285713,29.672732043545693L204.81964285714284,29.757924578152597L206.82767857142858,29.698250056244433L208.8357142857143,29.916252850089222L210.84375,28.214760520495474L212.8517857142857,28.08489158982411L214.85982142857142,28.335169502533972L216.86785714285716,27.173450712580234L218.87589285714287,28.099571734201163L220.88392857142856,27.099652513861656L222.89196428571427,27.474155186209828L224.9,26.803346783854067L226.90803571428572,26.62747653434053L228.91607142857143,26.19788357289508L230.92410714285714,26.871447814628482L232.93214285714288,25.931097122374922L234.9401785714286,26.460085790604353L236.9482142857143,26.492917377036065L238.95624999999998,26.051956578157842L240.9642857142857,25.062265761662275L242.97232142857143,25.483935684897006L244.98035714285714,24.956086450256407L246.98839285714286,24.627558598294854L248.99642857142857,24.848820702172816L251.0044642857143,24.57755601266399L253.01250000000002,24.735884284600616L255.0205357142857,25.947605660185218L257.0285714285714,23.15307853743434L259.0366071428571,23.20641992846504" fill="none"></path></g><g><path style="fill: none;" stroke="rgb(204, 51, 17)" stroke-width="2px" d="M22.088392857142857,180.2560618892312L24.09642857142857,156.46656994475052L26.104464285714286,146.04695324553177L28.1125,136.3935128902085L30.12053571428571,122.66333814477548L32.128571428571426,115.46770903747529L34.136607142857144,115.94433675752953L36.144642857142856,109.56178626045583L38.15267857142857,100.2276787930168L40.160714285714285,101.81618170812725L42.168749999999996,107.62027092045172L44.176785714285714,98.6318623041734L46.184821428571425,92.64069399563594L48.19285714285714,94.33762859087436L50.20089285714286,86.47437089588493L52.20892857142857,91.42764769727363L54.21696428571429,92.10722708841784L56.225,83.85457458905876L58.23303571428572,86.17024812148884L60.24107142857142,82.758545470424L62.24910714285714,80.7244710251689L64.25714285714285,87.99214943312109L66.26517857142856,82.99387825420126L68.27321428571429,78.70626915479079L70.28125,82.49409088399261L72.28928571428571,77.30079107219353L74.29732142857144,76.78984785219654L76.30535714285713,76.96301525924355L78.31339285714286,75.78107814770192L80.32142857142857,81.7034829640761L82.3294642857143,76.57960910582915L84.33749999999999,74.00610560085624L86.34553571428572,69.99217255041003L88.35357142857143,70.6889229407534L90.36160714285715,74.26263714907691L92.36964285714285,73.30143217230216L94.37767857142856,72.42488976102322L96.38571428571429,71.72148825833574L98.39375,73.35564801236615L100.40178571428572,70.86807899875566L102.40982142857142,67.51984014874324L104.41785714285714,71.18142323568463L106.42589285714286,69.17843147879466L108.43392857142858,71.47030939813703L110.44196428571428,70.31280386261642L112.45,71.1674850480631L114.45803571428571,67.03589885495603L116.46607142857144,67.89659518981352L118.47410714285715,64.72814836073667L120.48214285714285,65.01769698457792L122.49017857142857,65.94845523592085L124.49821428571428,63.88332460075617L126.50625000000001,66.59761440008879L128.5142857142857,64.71956286113709L130.52232142857144,64.13320503663272L132.53035714285713,61.84066465590149L134.53839285714287,66.30809227470309L136.54642857142858,66.08070902759209L138.5544642857143,61.2470197561197L140.5625,63.404735994990915L142.5705357142857,69.06205026200041L144.57857142857142,62.76416233042255L146.58660714285716,61.834013543557376L148.59464285714287,65.24444426875561L150.60267857142856,61.87174734426662L152.61071428571427,65.73694456368685L154.61875,60.08885175921023L156.62678571428572,61.62250287132338L158.63482142857143,59.236078462563455L160.64285714285714,60.40153353475034L162.65089285714288,67.21508141141385L164.6589285714286,62.44289505528286L166.6669642857143,62.34967348864302L168.67499999999998,63.67115146713331L170.6830357142857,63.5699803638272L172.69107142857143,61.316445709671825L174.69910714285714,62.36551956506446L176.70714285714286,62.17714204452932L178.71517857142857,57.202004017308354L180.7232142857143,61.65292309829965L182.73125000000002,58.445470542646945L184.7392857142857,59.09529216820374L186.7473214285714,59.1177893569693L188.75535714285712,57.907313408795744L190.76339285714286,57.18552197795361L192.77142857142857,59.07149655511603L194.77946428571428,59.431743058376014L196.7875,61.277439983095974L198.79553571428573,55.057563504669815L200.80357142857144,59.54876023810357L202.81160714285713,56.52112620184198L204.81964285714284,58.71185951633379L206.82767857142858,56.42660621087998L208.8357142857143,56.2388911517337L210.84375,59.877314588520676L212.8517857142857,63.757085958495736L214.85982142857142,54.23653535777703L216.86785714285716,59.32996249059215L218.87589285714287,55.4733507707715L220.88392857142856,55.152083495631814L222.89196428571427,61.22386010596529L224.9,54.54256602097303L226.90803571428572,57.51471229130402L228.91607142857143,56.52176216477528L230.92410714285714,57.655498585663736L232.93214285714288,57.12465502554551L234.9401785714286,54.8394017200917L236.9482142857143,61.87301927013323L238.95624999999998,57.85911271814257L240.9642857142857,58.7343832035549L242.97232142857143,57.43603837676346L244.98035714285714,57.31173412175849L246.98839285714286,59.776169983670115L248.99642857142857,55.46476527117193L251.0044642857143,55.536125611979514L253.01250000000002,56.43582767341286L255.0205357142857,55.81711523467675L257.0285714285714,55.08991811890155L259.0366071428571,60.87090067798272" fill="none"></path></g><g><path style="fill: none;" stroke="rgb(0, 119, 187)" stroke-width="2px" d="M24.09642857142857,179.53978213714436L26.104464285714286,165.89442894794047L28.1125,155.7704290188849L30.12053571428571,149.29844623431563L32.128571428571426,143.48404912278056L34.136607142857144,138.65229423856363L36.144642857142856,135.4419533512555L38.15267857142857,131.339223976247L40.160714285714285,128.74123589834198L42.168749999999996,125.64192353980616L44.176785714285714,123.5840799799189L46.184821428571425,120.97416759701446L48.19285714285714,118.40326094068587L50.20089285714286,118.02356457104906L52.20892857142857,113.99537535151467L54.21696428571429,114.06631171703339L56.225,113.17712954245506L58.23303571428572,111.59413830609991L60.24107142857142,108.2441505580209L62.24910714285714,106.2908169068396L64.25714285714285,105.32364977756514L66.26517857142856,104.56542297033592L68.27321428571429,103.69598214514552L70.28125,102.7789500937797L72.28928571428571,101.52814349625258L74.29732142857144,100.50421667518093L76.30535714285713,98.10708689037709L78.31339285714286,99.77161387447266L80.32142857142857,97.53275936469434L82.3294642857143,97.98670440679415L84.33749999999999,96.20932050049304L86.34553571428572,96.06522189918904L88.35357142857143,95.03800926962866L90.36160714285715,93.94653788534923L92.36964285714285,93.27241717604919L94.37767857142856,92.19525495776905L96.38571428571429,92.12821386521681L98.39375,92.00287617044522L100.40178571428572,89.85318896360694L102.40982142857142,90.16184297390281L104.41785714285714,89.29637691704555L106.42589285714286,87.54382206359878L108.43392857142858,88.19197428645566L110.44196428571428,87.6444102008827L112.45,86.7277756263502L114.45803571428571,86.92643454764038L116.46607142857144,87.92696323245764L118.47410714285715,85.10008149547502L120.48214285714285,84.60683924378827L122.49017857142857,84.74545266479254L124.49821428571428,82.92877154890448L126.50625000000001,83.85672096395865L128.5142857142857,82.72558139171451L130.52232142857144,82.5507975788787L132.53035714285713,82.25001360988244L134.53839285714287,84.35102315386757L136.54642857142858,83.44575641676784L138.5544642857143,80.6989265140146L140.5625,79.6996432566084L142.5705357142857,79.59004564443603L144.57857142857142,78.16379277268425L146.58660714285716,78.68430193513632L148.59464285714287,77.72407740121707L150.60267857142856,78.44080762704834L152.61071428571427,78.400582971517L154.61875,76.69450640911236L156.62678571428572,76.81374945910648L158.63482142857143,77.41873569786549L160.64285714285714,76.67640796396881L162.65089285714288,76.29048445727676L164.6589285714286,75.1781852869317L166.6669642857143,75.31096904771402L168.67499999999998,75.80015703570098L170.6830357142857,73.99998445762321L172.69107142857143,74.490311879199L174.69910714285714,74.09882369684055L176.70714285714286,74.24631410045549L178.71517857142857,73.97796424105763L180.7232142857143,73.14426983240992L182.73125000000002,72.2241639601998L184.7392857142857,72.65611528418958L186.7473214285714,71.95353523362428L188.75535714285712,71.0364236868918L190.76339285714286,73.03125391947106L192.77142857142857,73.5868735355325L194.77946428571428,70.01090695848688L196.7875,71.84059881605208L198.79553571428573,70.3344795992598L200.80357142857144,72.3695344873704L202.81160714285713,69.79865432949737L204.81964285714284,70.18110653851181L206.82767857142858,68.08073295745999L208.8357142857143,69.28506126394495L210.84375,69.34579572407529L212.8517857142857,69.25612495047972L214.85982142857142,67.81696733087301L216.86785714285716,67.47802558587864L218.87589285714287,69.47804951574653L220.88392857142856,68.11030523385853L222.89196428571427,67.20959623111412L224.9,67.04671022482216L226.90803571428572,70.23177158553153L228.91607142857143,66.4298791764304L230.92410714285714,66.66995518375188L232.93214285714288,65.50595752662048L234.9401785714286,65.21709786262363L236.9482142857143,66.47805336862803L238.95624999999998,67.10694121429697L240.9642857142857,67.07681247033179L242.97232142857143,66.27658561104909L244.98035714285714,65.8464891789481L246.98839285714286,66.08256391948089L248.99642857142857,65.41337192291394L251.0044642857143,65.12231288710609L253.01250000000002,64.24553198972717L255.0205357142857,64.87261794041842L257.0285714285714,65.18296785186976L259.0366071428571,63.96862312918529" fill="none"></path></g><g><path style="fill: none;" stroke="rgb(255, 112, 67)" stroke-width="2px" d="M22.088392857142857,188.24362383922562L24.09642857142857,163.58614848461002L26.104464285714286,154.1204496868886L28.1125,148.33157058805227L30.12053571428571,144.43529068026692L32.128571428571426,136.65070689981803L34.136607142857144,140.95352611271665L36.144642857142856,129.2910788510926L38.15267857142857,129.40017299260944L40.160714285714285,129.48483555810526L42.168749999999996,125.62091026455164L44.176785714285714,123.59478535596281L46.184821428571425,124.65906932484359L48.19285714285714,121.0920062288642L50.20089285714286,125.3948254417628L52.20892857142857,123.06391529738903L54.21696428571429,119.9265511566773L56.225,123.69722838513553L58.23303571428572,118.83052203804255L60.24107142857142,116.01442517247051L62.24910714285714,111.66594912065192L64.25714285714285,116.0692769754678L66.26517857142856,109.54530422110109L68.27321428571429,114.83312402386218L70.28125,114.2077339743264L72.28928571428571,116.10894516343251L74.29732142857144,115.98397844703868L76.30535714285713,108.30912477103992L78.31339285714286,112.36866166349499L80.32142857142857,117.85151009913534L82.3294642857143,114.94945224374533L84.33749999999999,112.29131267173214L86.34553571428572,114.25532520050183L88.35357142857143,110.71735740872099L90.36160714285715,108.5292209428735L92.36964285714285,107.84834312740712L94.37767857142856,111.53372182743622L96.38571428571429,109.61600210051982L98.39375,106.91692241467534L100.40178571428572,106.79924277355893L102.40982142857142,109.58430994767694L104.41785714285714,108.39569522533564L106.42589285714286,105.12477886863051L108.43392857142858,108.2859651208855L110.44196428571428,108.35539107443763L112.45,110.31937710475175L114.45803571428571,108.99856158765031L116.46607142857144,105.6338141998276L118.47410714285715,113.14408596837892L120.48214285714285,107.87081381771712L122.49017857142857,107.7459000982344L124.49821428571428,105.81490464508532L126.50625000000001,107.60508730541913L128.5142857142857,104.14706535404547L130.52232142857144,105.57959835976361L132.53035714285713,103.80995200248434L134.53839285714287,104.8120970930904L136.54642857142858,103.47543549956752L138.5544642857143,107.30032856808974L140.5625,103.77889581257476L142.5705357142857,104.14775431388988L144.57857142857142,100.76048323884605L146.58660714285716,103.80266492720692L148.59464285714287,104.64817764703183L150.60267857142856,108.0189136858098L152.61071428571427,105.59414601186289L154.61875,102.80974129913373L156.62678571428572,98.82821585983037L158.63482142857143,101.51335735805331L160.64285714285714,102.7396793826483L162.65089285714288,105.50950994482263L164.6589285714286,103.78811727510764L166.6669642857143,103.63209436880423L168.67499999999998,101.0487069399096L170.6830357142857,104.32688387343659L172.69107142857143,104.9839925742708L174.69910714285714,106.71264582080765L176.70714285714286,102.15202313382177L178.71517857142857,104.21052915509789L180.7232142857143,106.49254964897408L182.73125000000002,102.52088163513689L184.7392857142857,104.05320782447232L186.7473214285714,103.35778235690667L188.75535714285712,100.00951700843869L190.76339285714286,106.23601810075341L192.77142857142857,107.44906439911573L194.77946428571428,101.89419316127895L196.7875,100.97133144969119L198.79553571428573,100.19596014171837L200.80357142857144,104.19468307867645L202.81160714285713,102.22340997308491L204.81964285714284,102.72383330622687L206.82767857142858,101.4552727434784L208.8357142857143,106.25851528951897L210.84375,103.2949810172431L212.8517857142857,103.22489260230212L214.85982142857142,100.65072663594036L216.86785714285716,104.66336126206441L218.87589285714287,101.65886037750168L220.88392857142856,100.69895382504909L222.89196428571427,98.89032823964952L224.9,104.70302945002912L226.90803571428572,103.30224159406497L228.91607142857143,103.61492336960508L230.92410714285714,102.96576420543714L232.93214285714288,100.3611780120991L234.9401785714286,99.74376399768515L236.9482142857143,99.33653573272748L238.95624999999998,102.19831593567504L240.9642857142857,101.63572722580282L242.97232142857143,102.46534087229519L244.98035714285714,100.7445841655135L246.98839285714286,102.84940948709844L248.99642857142857,108.19936816813423L251.0044642857143,100.57274168124421L253.01250000000002,99.88457679050042L255.0205357142857,101.34617860196157L257.0285714285714,99.75831164978443L259.0366071428571,101.24437153572215" fill="none"></path></g></g></g></g></g></g><g transform="translate(48, 177)" clip-path="url(#clip_1)"><clipPath id="clip_1"><rect width="281" height="22"></rect></clipPath><g><g><line x1="0" y1="0" x2="0" y2="5" style="visibility: inherit;" fill="rgb(0, 0, 0)" stroke="rgb(204, 204, 204)" stroke-width="1px"></line><line x1="20.080357142857142" y1="0" x2="20.080357142857142" y2="5" style="visibility: inherit;" fill="rgb(0, 0, 0)" stroke="rgb(204, 204, 204)" stroke-width="1px"></line><line x1="40.160714285714285" y1="0" x2="40.160714285714285" y2="5" style="visibility: inherit;" fill="rgb(0, 0, 0)" stroke="rgb(204, 204, 204)" stroke-width="1px"></line><line x1="60.24107142857142" y1="0" x2="60.24107142857142" y2="5" style="visibility: inherit;" fill="rgb(0, 0, 0)" stroke="rgb(204, 204, 204)" stroke-width="1px"></line><line x1="80.32142857142857" y1="0" x2="80.32142857142857" y2="5" style="visibility: inherit;" fill="rgb(0, 0, 0)" stroke="rgb(204, 204, 204)" stroke-width="1px"></line><line x1="100.40178571428572" y1="0" x2="100.40178571428572" y2="5" style="visibility: inherit;" fill="rgb(0, 0, 0)" stroke="rgb(204, 204, 204)" stroke-width="1px"></line><line x1="120.48214285714285" y1="0" x2="120.48214285714285" y2="5" style="visibility: inherit;" fill="rgb(0, 0, 0)" stroke="rgb(204, 204, 204)" stroke-width="1px"></line><line x1="140.5625" y1="0" x2="140.5625" y2="5" style="visibility: inherit;" fill="rgb(0, 0, 0)" stroke="rgb(204, 204, 204)" stroke-width="1px"></line><line x1="160.64285714285714" y1="0" x2="160.64285714285714" y2="5" style="visibility: inherit;" fill="rgb(0, 0, 0)" stroke="rgb(204, 204, 204)" stroke-width="1px"></line><line x1="180.7232142857143" y1="0" x2="180.7232142857143" y2="5" style="visibility: inherit;" fill="rgb(0, 0, 0)" stroke="rgb(204, 204, 204)" stroke-width="1px"></line><line x1="200.80357142857144" y1="0" x2="200.80357142857144" y2="5" style="visibility: inherit;" fill="rgb(0, 0, 0)" stroke="rgb(204, 204, 204)" stroke-width="1px"></line><line x1="220.88392857142856" y1="0" x2="220.88392857142856" y2="5" style="visibility: inherit;" fill="rgb(0, 0, 0)" stroke="rgb(204, 204, 204)" stroke-width="1px"></line><line x1="240.9642857142857" y1="0" x2="240.9642857142857" y2="5" style="visibility: inherit;" fill="rgb(0, 0, 0)" stroke="rgb(204, 204, 204)" stroke-width="1px"></line><line x1="261.0446428571429" y1="0" x2="261.0446428571429" y2="5" style="visibility: inherit;" fill="rgb(0, 0, 0)" stroke="rgb(204, 204, 204)" stroke-width="1px"></line><line x1="281.125" y1="0" x2="281.125" y2="5" style="visibility: inherit;" fill="rgb(0, 0, 0)" stroke="rgb(204, 204, 204)" stroke-width="1px"></line></g><g transform="translate(0, 8)"><text style="text-anchor: middle; visibility: hidden; font-family: &quot;Helvetica Neue&quot;, sans-serif; font-size: 12px; font-weight: 200;" x="0" y="0" dx="0em" dy="0.95em" fill="rgb(50, 49, 63)" stroke="none" stroke-width="1px">-10</text><text style="text-anchor: middle; visibility: inherit; font-family: &quot;Helvetica Neue&quot;, sans-serif; font-size: 12px; font-weight: 200;" x="20.080357142857142" y="0" dx="0em" dy="0.95em" fill="rgb(50, 49, 63)" stroke="none" stroke-width="1px">0</text><text style="text-anchor: middle; visibility: hidden; font-family: &quot;Helvetica Neue&quot;, sans-serif; font-size: 12px; font-weight: 200;" x="40.160714285714285" y="0" dx="0em" dy="0.95em" fill="rgb(50, 49, 63)" stroke="none" stroke-width="1px">10</text><text style="text-anchor: middle; visibility: inherit; font-family: &quot;Helvetica Neue&quot;, sans-serif; font-size: 12px; font-weight: 200;" x="60.24107142857142" y="0" dx="0em" dy="0.95em" fill="rgb(50, 49, 63)" stroke="none" stroke-width="1px">20</text><text style="text-anchor: middle; visibility: hidden; font-family: &quot;Helvetica Neue&quot;, sans-serif; font-size: 12px; font-weight: 200;" x="80.32142857142857" y="0" dx="0em" dy="0.95em" fill="rgb(50, 49, 63)" stroke="none" stroke-width="1px">30</text><text style="text-anchor: middle; visibility: inherit; font-family: &quot;Helvetica Neue&quot;, sans-serif; font-size: 12px; font-weight: 200;" x="100.40178571428572" y="0" dx="0em" dy="0.95em" fill="rgb(50, 49, 63)" stroke="none" stroke-width="1px">40</text><text style="text-anchor: middle; visibility: hidden; font-family: &quot;Helvetica Neue&quot;, sans-serif; font-size: 12px; font-weight: 200;" x="120.48214285714285" y="0" dx="0em" dy="0.95em" fill="rgb(50, 49, 63)" stroke="none" stroke-width="1px">50</text><text style="text-anchor: middle; visibility: inherit; font-family: &quot;Helvetica Neue&quot;, sans-serif; font-size: 12px; font-weight: 200;" x="140.5625" y="0" dx="0em" dy="0.95em" fill="rgb(50, 49, 63)" stroke="none" stroke-width="1px">60</text><text style="text-anchor: middle; visibility: hidden; font-family: &quot;Helvetica Neue&quot;, sans-serif; font-size: 12px; font-weight: 200;" x="160.64285714285714" y="0" dx="0em" dy="0.95em" fill="rgb(50, 49, 63)" stroke="none" stroke-width="1px">70</text><text style="text-anchor: middle; visibility: inherit; font-family: &quot;Helvetica Neue&quot;, sans-serif; font-size: 12px; font-weight: 200;" x="180.7232142857143" y="0" dx="0em" dy="0.95em" fill="rgb(50, 49, 63)" stroke="none" stroke-width="1px">80</text><text style="text-anchor: middle; visibility: hidden; font-family: &quot;Helvetica Neue&quot;, sans-serif; font-size: 12px; font-weight: 200;" x="200.80357142857144" y="0" dx="0em" dy="0.95em" fill="rgb(50, 49, 63)" stroke="none" stroke-width="1px">90</text><text style="text-anchor: middle; visibility: inherit; font-family: &quot;Helvetica Neue&quot;, sans-serif; font-size: 12px; font-weight: 200;" x="220.88392857142856" y="0" dx="0em" dy="0.95em" fill="rgb(50, 49, 63)" stroke="none" stroke-width="1px">100</text><text style="text-anchor: middle; visibility: hidden; font-family: &quot;Helvetica Neue&quot;, sans-serif; font-size: 12px; font-weight: 200;" x="240.9642857142857" y="0" dx="0em" dy="0.95em" fill="rgb(50, 49, 63)" stroke="none" stroke-width="1px">110</text><text style="text-anchor: middle; visibility: inherit; font-family: &quot;Helvetica Neue&quot;, sans-serif; font-size: 12px; font-weight: 200;" x="261.0446428571429" y="0" dx="0em" dy="0.95em" fill="rgb(50, 49, 63)" stroke="none" stroke-width="1px">120</text><text style="text-anchor: middle; visibility: hidden; font-family: &quot;Helvetica Neue&quot;, sans-serif; font-size: 12px; font-weight: 200;" x="281.125" y="0" dx="0em" dy="0.95em" fill="rgb(50, 49, 63)" stroke="none" stroke-width="1px">130</text></g><line x1="0" y1="0" x2="281.125" y2="0" fill="rgb(0, 0, 0)" stroke="rgb(204, 204, 204)" stroke-width="1px"></line></g></g></g></g></svg>