<svg viewBox="0 0 330 200" xmlns="http://www.w3.org/2000/svg"><g><g><g><g><g><line x1="48.875" y1="177.828125" x2="43.875" y2="177.828125" style="visibility: inherit;" fill="rgb(0, 0, 0)" stroke="rgb(204, 204, 204)" stroke-width="1px"></line><line x1="48.875" y1="158.06944444444443" x2="43.875" y2="158.06944444444443" style="visibility: inherit;" fill="rgb(0, 0, 0)" stroke="rgb(204, 204, 204)" stroke-width="1px"></line><line x1="48.875" y1="138.3107638888889" x2="43.875" y2="138.3107638888889" style="visibility: inherit;" fill="rgb(0, 0, 0)" stroke="rgb(204, 204, 204)" stroke-width="1px"></line><line x1="48.875" y1="118.55208333333334" x2="43.875" y2="118.55208333333334" style="visibility: inherit;" fill="rgb(0, 0, 0)" stroke="rgb(204, 204, 204)" stroke-width="1px"></line><line x1="48.875" y1="98.79340277777776" x2="43.875" y2="98.79340277777776" style="visibility: inherit;" fill="rgb(0, 0, 0)" stroke="rgb(204, 204, 204)" stroke-width="1px"></line><line x1="48.875" y1="79.03472222222224" x2="43.875" y2="79.03472222222224" style="visibility: inherit;" fill="rgb(0, 0, 0)" stroke="rgb(204, 204, 204)" stroke-width="1px"></line><line x1="48.875" y1="59.27604166666667" x2="43.875" y2="59.27604166666667" style="visibility: inherit;" fill="rgb(0, 0, 0)" stroke="rgb(204, 204, 204)" stroke-width="1px"></line><line x1="48.875" y1="39.51736111111114" x2="43.875" y2="39.51736111111114" style="visibility: inherit;" fill="rgb(0, 0, 0)" stroke="rgb(204, 204, 204)" stroke-width="1px"></line><line x1="48.875" y1="19.75868055555557" x2="43.875" y2="19.75868055555557" style="visibility: inherit;" fill="rgb(0, 0, 0)" stroke="rgb(204, 204, 204)" stroke-width="1px"></line><line x1="48.875" y1="0" x2="43.875" y2="0" style="visibility: inherit;" fill="rgb(0, 0, 0)" stroke="rgb(204, 204, 204)" stroke-width="1px"></line></g><g transform="translate(38.875, 0)"><text style="text-anchor: end; visibility: hidden; font-family: &quot;Helvetica Neue&quot;, sans-serif; font-size: 12px; font-weight: 200;" x="0" y="177.828125" dx="0em" dy="0.3em" fill="rgb(50, 49, 63)" stroke="none" stroke-width="1px">0.6</text><text style="text-anchor: end; visibility: inherit; font-family: &quot;Helvetica Neue&quot;, sans-serif; font-size: 12px; font-weight: 200;" x="0" y="158.06944444444443" dx="0em" dy="0.3em" fill="rgb(50, 49, 63)" stroke="none" stroke-width="1px">0.65</text><text style="text-anchor: end; visibility: hidden; font-family: &quot;Helvetica Neue&quot;, sans-serif; font-size: 12px; font-weight: 200;" x="0" y="138.3107638888889" dx="0em" dy="0.3em" fill="rgb(50, 49, 63)" stroke="none" stroke-width="1px">0.7</text><text style="text-anchor: end; visibility: inherit; font-family: &quot;Helvetica Neue&quot;, sans-serif; font-size: 12px; font-weight: 200;" x="0" y="118.55208333333334" dx="0em" dy="0.3em" fill="rgb(50, 49, 63)" stroke="none" stroke-width="1px">0.75</text><text style="text-anchor: end; visibility: hidden; font-family: &quot;Helvetica Neue&quot;, sans-serif; font-size: 12px; font-weight: 200;" x="0" y="98.79340277777776" dx="0em" dy="0.3em" fill="rgb(50, 49, 63)" stroke="none" stroke-width="1px">0.8</text><text style="text-anchor: end; visibility: inherit; font-family: &quot;Helvetica Neue&quot;, sans-serif; font-size: 12px; font-weight: 200;" x="0" y="79.03472222222224" dx="0em" dy="0.3em" fill="rgb(50, 49, 63)" stroke="none" stroke-width="1px">0.85</text><text style="text-anchor: end; visibility: hidden; font-family: &quot;Helvetica Neue&quot;, sans-serif; font-size: 12px; font-weight: 200;" x="0" y="59.27604166666667" dx="0em" dy="0.3em" fill="rgb(50, 49, 63)" stroke="none" stroke-width="1px">0.9</text><text style="text-anchor: end; visibility: inherit; font-family: &quot;Helvetica Neue&quot;, sans-serif; font-size: 12px; font-weight: 200;" x="0" y="39.51736111111114" dx="0em" dy="0.3em" fill="rgb(50, 49, 63)" stroke="none" stroke-width="1px">0.95</text><text style="text-anchor: end; visibility: hidden; font-family: &quot;Helvetica Neue&quot;, sans-serif; font-size: 12px; font-weight: 200;" x="0" y="19.75868055555557" dx="0em" dy="0.3em" fill="rgb(50, 49, 63)" stroke="none" stroke-width="1px">1</text><text style="text-anchor: end; visibility: hidden; font-family: &quot;Helvetica Neue&quot;, sans-serif; font-size: 12px; font-weight: 200;" x="0" y="0" dx="0em" dy="0.3em" fill="rgb(50, 49, 63)" stroke="none" stroke-width="1px">1.05</text></g><line x1="48.875" y1="0" x2="48.875" y2="177.828125" fill="rgb(0, 0, 0)" stroke="rgb(204, 204, 204)" stroke-width="1px"></line></g></g><g transform="translate(48, 0)" clip-path="url(#clip_0)"><clipPath id="clip_0"><rect width="281" height="177"></rect></clipPath><g><g><g><line x1="0" y1="0" x2="0" y2="177.828125" fill="rgb(0, 0, 0)" stroke="rgb(60, 60, 60)" stroke-width="1px" opacity="0.25"></line><line x1="31.23611111111111" y1="0" x2="31.23611111111111" y2="177.828125" fill="rgb(0, 0, 0)" stroke="rgb(60, 60, 60)" stroke-width="1px" opacity="0.25"></line><line x1="62.47222222222222" y1="0" x2="62.47222222222222" y2="177.828125" fill="rgb(0, 0, 0)" stroke="rgb(60, 60, 60)" stroke-width="1px" opacity="0.25"></line><line x1="93.70833333333333" y1="0" x2="93.70833333333333" y2="177.828125" fill="rgb(0, 0, 0)" stroke="rgb(60, 60, 60)" stroke-width="1px" opacity="0.25"></line><line x1="124.94444444444444" y1="0" x2="124.94444444444444" y2="177.828125" fill="rgb(0, 0, 0)" stroke="rgb(60, 60, 60)" stroke-width="1px" opacity="0.25"></line><line x1="156.18055555555557" y1="0" x2="156.18055555555557" y2="177.828125" fill="rgb(0, 0, 0)" stroke="rgb(60, 60, 60)" stroke-width="1px" opacity="0.25"></line><line x1="187.41666666666666" y1="0" x2="187.41666666666666" y2="177.828125" fill="rgb(0, 0, 0)" stroke="rgb(60, 60, 60)" stroke-width="1px" opacity="0.25"></line><line x1="218.65277777777777" y1="0" x2="218.65277777777777" y2="177.828125" fill="rgb(0, 0, 0)" stroke="rgb(60, 60, 60)" stroke-width="1px" opacity="0.25"></line><line x1="249.88888888888889" y1="0" x2="249.88888888888889" y2="177.828125" fill="rgb(0, 0, 0)" stroke="rgb(60, 60, 60)" stroke-width="1px" opacity="0.25"></line><line x1="281.125" y1="0" x2="281.125" y2="177.828125" fill="rgb(0, 0, 0)" stroke="rgb(60, 60, 60)" stroke-width="1px" opacity="0.25"></line></g><g><line x1="0" y1="177.828125" x2="281.125" y2="177.828125" fill="rgb(0, 0, 0)" stroke="rgb(60, 60, 60)" stroke-width="1px" opacity="0.25"></line><line x1="0" y1="158.06944444444443" x2="281.125" y2="158.06944444444443" fill="rgb(0, 0, 0)" stroke="rgb(60, 60, 60)" stroke-width="1px" opacity="0.25"></line><line x1="0" y1="138.3107638888889" x2="281.125" y2="138.3107638888889" fill="rgb(0, 0, 0)" stroke="rgb(60, 60, 60)" stroke-width="1px" opacity="0.25"></line><line x1="0" y1="118.55208333333334" x2="281.125" y2="118.55208333333334" fill="rgb(0, 0, 0)" stroke="rgb(60, 60, 60)" stroke-width="1px" opacity="0.25"></line><line x1="0" y1="98.79340277777776" x2="281.125" y2="98.79340277777776" fill="rgb(0, 0, 0)" stroke="rgb(60, 60, 60)" stroke-width="1px" opacity="0.25"></line><line x1="0" y1="79.03472222222224" x2="281.125" y2="79.03472222222224" fill="rgb(0, 0, 0)" stroke="rgb(60, 60, 60)" stroke-width="1px" opacity="0.25"></line><line x1="0" y1="59.27604166666667" x2="281.125" y2="59.27604166666667" fill="rgb(0, 0, 0)" stroke="rgb(60, 60, 60)" stroke-width="1px" opacity="0.25"></line><line x1="0" y1="39.51736111111114" x2="281.125" y2="39.51736111111114" fill="rgb(0, 0, 0)" stroke="rgb(60, 60, 60)" stroke-width="1px" opacity="0.25"></line><line x1="0" y1="19.75868055555557" x2="281.125" y2="19.75868055555557" fill="rgb(0, 0, 0)" stroke="rgb(60, 60, 60)" stroke-width="1px" opacity="0.25"></line><line x1="0" y1="0" x2="281.125" y2="0" fill="rgb(0, 0, 0)" stroke="rgb(60, 60, 60)" stroke-width="1px" opacity="0.25"></line></g></g></g><g><g><line x1="0" y1="414.93229166666663" x2="281.125" y2="414.93229166666663" fill="rgb(0, 0, 0)" stroke="rgb(153, 153, 153)" stroke-width="1.5px"></line></g></g><g><g><line x1="31.23611111111111" y1="0" x2="31.23611111111111" y2="177.828125" fill="rgb(0, 0, 0)" stroke="rgb(153, 153, 153)" stroke-width="1.5px"></line></g></g><g><g><g><g><g><path style="fill: none;" stroke="rgb(51, 187, 238)" stroke-width="2px" d="M35.921527777777776,187.58234943396468L37.483333333333334,164.9419643064165L39.04513888888889,148.12259299897636L40.60694444444444,135.9751800545852L42.168749999999996,126.32066800625323L43.730555555555554,118.47843563954237L45.29236111111111,112.22889782773207L46.854166666666664,107.54689994947742L48.41597222222222,103.37579072614304L49.97777777777778,99.54906182558838L51.53958333333333,96.38036954828372L53.101388888888884,93.6414248755385L54.66319444444444,91.66177415503944L56.225,88.83788704443187L57.78680555555555,86.73975238771948L59.34861111111111,84.86310642560348L60.91041666666667,83.42009403705637L62.47222222222222,81.81684157482039L64.03402777777778,80.24791332888533L65.59583333333333,78.83364498237121L67.1576388888889,77.34728794088713L68.71944444444445,76.26522583796468L70.28125,75.27715833789226L71.84305555555555,74.10630810280713L73.40486111111112,72.51414727955896L74.96666666666667,71.17833816023682L76.52847222222222,70.34061724094425L78.09027777777779,69.13857623526032L79.65208333333334,74.64134715651463L81.21388888888887,77.04610379506167L82.77569444444444,77.05934125469386L84.33749999999999,74.26784080142252L85.89930555555556,71.55108251790789L87.46111111111111,72.82193246183182L89.02291666666666,71.14557638408577L90.58472222222223,69.52370780197816L92.14652777777778,68.76439268265143L93.70833333333333,67.096620573167L95.2701388888889,66.33150855726771L96.83194444444445,64.89580955893796L98.39375,63.72093109658141L99.95555555555556,63.77701139787558L101.51736111111111,63.214540900789714L103.07916666666667,62.05262452081651L104.64097222222223,61.9552207148333L106.20277777777777,61.36951334032851L107.76458333333333,60.990907388777345L109.32638888888889,61.64434049283173L110.88819444444444,59.47069976216075L112.45,57.72622169710863L114.01180555555555,57.16150996646493L115.5736111111111,56.32077155944381L117.13541666666667,55.96672668270253L118.69722222222222,55.43176762190639L120.25902777777777,54.839005181918196L121.82083333333334,55.4201164078426L123.38263888888889,54.92261326187452L124.94444444444444,54.39217804793677L126.50625000000001,53.43249883755543L128.06805555555556,52.546850170221944L129.62986111111113,51.55341270001355L131.19166666666666,50.83595196017599L132.75347222222223,50.64102676509539L134.3152777777778,51.642037954753306L135.87708333333333,50.98516222678499L137.4388888888889,49.85720151668515L139.00069444444446,49.535565635927185L140.5625,49.04361557710894L142.12430555555554,48.739381892309325L143.6861111111111,47.80851587490449L145.24791666666667,47.404012354397764L146.80972222222223,47.13956502061126L148.37152777777777,46.59132928158135L149.93333333333334,46.28051513718077L151.49513888888887,46.942005493295596L153.05694444444444,46.46917564272695L154.61875,45.752419950662926L156.18055555555557,45.456455786783806L157.7423611111111,45.008899246178345L159.30416666666667,45.08644221760835L160.8659722222222,44.91916197312676L162.42777777777775,44.951064694891585L163.98958333333334,44.30341568031125L165.55138888888888,44.471081850557795L167.11319444444445,43.821546784948225L168.67499999999998,43.34847220379103L170.23680555555555,43.109926859294006L171.79861111111111,42.10794819909944L173.36041666666668,41.56655094038615L174.92222222222222,41.33412035478523L176.48402777777778,41.65489189032738L178.04583333333332,41.30921711000218L179.60763888888889,41.51493376328L181.16944444444445,41.69090842604706L182.73125000000002,41.0227948515618L184.29305555555555,40.56757307483775L185.85486111111112,40.901431297365946L187.41666666666666,40.779223517804525L188.97847222222225,40.05178977440215L190.5402777777778,40.057441537919175L192.10208333333333,39.256334774565914L193.6638888888889,39.1797285885182L195.22569444444443,39.10115646633906L196.7875,39.242456076423764L198.34930555555556,39.367098941301236L199.91111111111113,38.945409596963344L201.47291666666666,38.63441501418964L203.03472222222223,38.27387533601251L204.59652777777777,39.280607177413316L206.15833333333333,38.91163241597485L207.7201388888889,38.364097501895316L209.28194444444446,38.70962188936295L210.84375,38.09432082303579L212.40555555555554,37.94075517181156L213.9673611111111,37.421003726397885L215.52916666666667,37.69621730913548L217.09097222222223,37.64572104853289L218.65277777777777,36.99031412626445L220.21458333333334,36.67316882641862L221.77638888888887,37.03914664717897L223.33819444444444,36.820239252541796L224.9,36.99149069026106L226.46180555555557,36.24444432723189L228.0236111111111,36.261882701687654L229.58541666666667,36.71083039178146L231.1472222222222,36.9548358618903L232.70902777777775,37.07949392247329L234.27083333333334,36.893374366053735L235.83263888888888,36.18557453270748L237.39444444444445,35.938464905350685L238.95624999999998,35.52565739202922L240.51805555555555,36.044416567905614L242.07986111111111,35.6906998086979L243.64166666666668,35.53101442397363L245.20347222222222,35.33916807937396L246.76527777777778,38.03980264773628L248.32708333333332,36.81364156431357L249.88888888888889,35.191902512237476L251.45069444444445,35.277035450294676L253.01250000000002,34.980219934430124L254.57430555555555,35.432685517861955L256.1361111111111,34.81994084880421L257.69791666666663,34.68060002958845L259.25972222222225,34.82711048151032L260.82152777777776,34.63416609964423L262.3833333333333,34.77206859669084L263.9451388888889,34.945408903313336" fill="none"></path></g><g><path style="fill: none;" stroke="rgb(204, 51, 17)" stroke-width="2px" d="M34.359722222222224,187.58304622016695L35.921527777777776,170.6121325396957L37.483333333333334,161.90286475478507L39.04513888888889,148.88786215738276L40.60694444444444,140.15341099712194L42.168749999999996,132.45155925853265L43.730555555555554,125.34445728488772L45.29236111111111,120.99507721185844L46.854166666666664,117.7804599170615L48.41597222222222,115.69575322829607L49.97777777777778,112.55387799356178L51.53958333333333,110.81825765712036L53.101388888888884,107.9343212356213L54.66319444444444,106.7267563761781L56.225,105.48056551217415L57.78680555555555,108.1901866631912L59.34861111111111,107.77742136548925L60.91041666666667,106.01327629098087L62.47222222222222,104.46563710743472L64.03402777777778,103.03158648983825L65.59583333333333,102.10594144162617L67.1576388888889,100.47436338351551L68.71944444444445,99.33236955854122L70.28125,100.40821152698283L71.84305555555555,98.46107572353644L73.40486111111112,97.9776385107392L74.96666666666667,96.72552897978218L76.52847222222222,96.65911570281855L78.09027777777779,97.51608866102794L79.65208333333334,98.04658128061288L81.21388888888887,97.56589064448164L82.77569444444444,99.57660953983937L84.33749999999999,97.61969520384851L85.89930555555556,94.048578749263L87.46111111111111,96.53678373224099L89.02291666666666,95.94255173071046L90.58472222222223,94.42828676149608L92.14652777777778,94.35133175816989L93.70833333333333,92.54412557331264L95.2701388888889,92.97624841225931L96.83194444444445,93.59425231834553L98.39375,91.81267344502392L99.95555555555556,90.85786969067671L101.51736111111111,90.3991310075753L103.07916666666667,92.06429079153078L104.64097222222223,92.67203862688413L106.20277777777777,90.70494572103235L107.76458333333333,89.76927661085159L109.32638888888889,88.2621370220484L110.88819444444444,86.52624929383695L112.45,86.74026765569599L114.01180555555555,87.84703462773078L115.5736111111111,88.576321053725L117.13541666666667,87.57897209832987L118.69722222222222,86.98056272509304L120.25902777777777,85.82253095844268L121.82083333333334,85.40490694231448L123.38263888888889,85.20324985929985L124.94444444444444,84.5604739323178L126.50625000000001,83.88129499448188L128.06805555555556,83.86513566675158L129.62986111111113,84.3283044206244L131.19166666666666,83.02453288197039L132.75347222222223,84.67185564079921L134.3152777777778,84.50252352896759L135.87708333333333,85.26513664735079L137.4388888888889,83.94536242075397L139.00069444444446,84.24599740915072L140.5625,83.18712689784707L142.12430555555554,82.24199171497945L143.6861111111111,82.22931011465566L145.24791666666667,82.58043135720919L146.80972222222223,81.68230508394765L148.37152777777777,81.68152933494882L149.93333333333334,81.02882030115508L151.49513888888887,81.74600332134554L153.05694444444444,82.30675619733483L154.61875,81.42026533469843L156.18055555555557,81.08404012376572L157.7423611111111,80.18115350782246L159.30416666666667,80.40579927041422L160.8659722222222,80.44275207464472L162.42777777777775,79.87790641556259L163.98958333333334,79.66945150566144L165.55138888888888,79.44654390639623L167.11319444444445,79.36171667349936L168.67499999999998,78.51182476937994L170.23680555555555,79.24114113125009L171.79861111111111,80.05377006723167L173.36041666666668,79.59559988445253L174.92222222222222,79.94032352695594L176.48402777777778,79.80473642582201L178.04583333333332,79.75599257569216L179.60763888888889,80.57465915665782L181.16944444444445,78.66889125543956L182.73125000000002,79.41691618177171L184.29305555555555,77.89271031162198L185.85486111111112,77.64672986836536L187.41666666666666,78.29812774511952L188.97847222222225,76.87901596299474L190.5402777777778,77.77228258079622L192.10208333333333,77.96581184316808L193.6638888888889,77.05466554068339L195.22569444444443,76.14924755644486L196.7875,77.48117351685309L198.34930555555556,77.72592958370122L199.91111111111113,77.43251786217655L201.47291666666666,77.84348817088213L203.03472222222223,77.50305301448506L204.59652777777777,77.836891935605L206.15833333333333,77.40126061999426L207.7201388888889,76.04739172794596L209.28194444444446,76.52322980204792L210.84375,76.4989197704237L212.40555555555554,75.88101691539006L213.9673611111111,76.96150492947247L215.52916666666667,77.13692396573794L217.09097222222223,77.30740163027124L218.65277777777777,76.13782831409901L220.21458333333334,75.5013011454966L221.77638888888887,74.95633336990967L223.33819444444444,75.44464776337746L224.9,75.23215421672361L226.46180555555557,74.02846748048813L228.0236111111111,75.03468020971135L229.58541666666667,75.76885091112038L231.1472222222222,76.94312265357298L232.70902777777775,76.76716439745044L234.27083333333334,75.69954240497013L235.83263888888888,75.17311277891834L237.39444444444445,74.82463717106364L238.95624999999998,74.50141765858761L240.51805555555555,76.34572359815193L242.07986111111111,74.87596949988243L243.64166666666668,75.52687250523611L245.20347222222222,75.78697124457335L246.76527777777778,76.5626562403466L248.32708333333332,75.15288106518604L249.88888888888889,74.5516120150742L251.45069444444445,75.05506297048936L253.01250000000002,75.69955483037441L254.57430555555555,76.29822816906626L256.1361111111111,75.25511977184107L257.69791666666663,75.67283693119856L259.25972222222225,75.30384147464216L260.82152777777776,75.68576103676745L262.3833333333333,76.25733406067856L263.9451388888889,75.8502090589793" fill="none"></path></g><g><path style="fill: none;" stroke="rgb(0, 119, 187)" stroke-width="2px" d="M39.04513888888889,178.56413386024934L40.60694444444444,163.21745500882994L42.168749999999996,150.94609997168664L43.730555555555554,141.6390611260185L45.29236111111111,133.49928583165945L46.854166666666664,126.59755548611557L48.41597222222222,120.81829924573735L49.97777777777778,116.52241769418092L51.53958333333333,111.64007831669574L53.101388888888884,107.60551943134688L54.66319444444444,104.3812642481841L56.225,100.82353235481585L57.78680555555555,97.98436229273464L59.34861111111111,95.12858148152684L60.91041666666667,93.0383342467254L62.47222222222222,91.28231243819657L64.03402777777778,89.011098059469L65.59583333333333,86.8674387584692L67.1576388888889,85.20617542974367L68.71944444444445,83.68940116766842L70.28125,82.04913019547284L71.84305555555555,80.2296618554952L73.40486111111112,79.15972727815871L74.96666666666667,77.87815759580856L76.52847222222222,77.07659824917371L78.09027777777779,75.76941960206095L79.65208333333334,76.84415951934628L81.21388888888887,76.93454734906338L82.77569444444444,79.07975085535219L84.33749999999999,80.4502264630137L85.89930555555556,78.15417353074496L87.46111111111111,76.07713330234928L89.02291666666666,77.60497949890214L90.58472222222223,76.7097581496409L92.14652777777778,74.57087496289557L93.70833333333333,73.70972080232546L95.2701388888889,72.03338993910188L96.83194444444445,69.0380920889333L98.39375,69.88814913182411L99.95555555555556,71.24798058321345L101.51736111111111,67.75872131044589L103.07916666666667,67.304970260904L104.64097222222223,66.42390995970784L106.20277777777777,65.35349931153394L107.76458333333333,62.536938051190816L109.32638888888889,60.990144774195144L110.88819444444444,61.207207219892055L112.45,61.812174529092545L114.01180555555555,61.18402317098804L115.5736111111111,59.239808773256954L117.13541666666667,58.50995583880699L118.69722222222222,57.33821822649138L120.25902777777777,56.47753222502794L121.82083333333334,55.14031388657462L123.38263888888889,54.29811978467602L124.94444444444444,54.07547235946173L126.50625000000001,53.69907796723503L128.06805555555556,53.85918132651891L129.62986111111113,55.181926334534396L131.19166666666666,54.040427639200274L132.75347222222223,52.57640316615671L134.3152777777778,52.74890074168417L135.87708333333333,51.82865913282703L137.4388888888889,50.908692050237036L139.00069444444446,50.811505382215074L140.5625,50.829301656590275L142.12430555555554,50.305459642030016L143.6861111111111,49.73023061885135L145.24791666666667,48.8215829376733L146.80972222222223,48.04990672965317L148.37152777777777,47.89492376304017L149.93333333333334,47.34714040154029L151.49513888888887,47.790350373880216L153.05694444444444,48.09070315074027L154.61875,48.93952384740109L156.18055555555557,47.694858760370124L157.7423611111111,46.79042569575043L159.30416666666667,46.35648254271746L160.8659722222222,45.90586480627297L162.42777777777775,45.82574600903098L163.98958333333334,44.90432332231015L165.55138888888888,44.91678893878105L167.11319444444445,44.16326093016491L168.67499999999998,43.78361563437238L170.23680555555555,43.93995949028434L171.79861111111111,43.50287336878418L173.36041666666668,43.33302946551109L174.92222222222222,42.77270219787701L176.48402777777778,42.565158783285256L178.04583333333332,42.34278865953257L179.60763888888889,41.75819092621384L181.16944444444445,41.66472875652698L182.73125000000002,41.11761269682111L184.29305555555555,42.360293988003434L185.85486111111112,41.91546494662941L187.41666666666666,41.742784252664535L188.97847222222225,41.59024908795027L190.5402777777778,41.16533266530209L192.10208333333333,40.01529560352827L193.6638888888889,40.27653258958739L195.22569444444443,39.89694604080492L196.7875,39.65832150079419L198.34930555555556,39.08571633920303L199.91111111111113,38.711353792930396L201.47291666666666,38.57733507356136L203.03472222222223,38.30485361440964L204.59652777777777,38.45120588002331L206.15833333333333,38.80718632043704L207.7201388888889,38.34672924876995L209.28194444444446,40.599919844175105L210.84375,39.86991767794177L212.40555555555554,38.768753074700726L213.9673611111111,37.83807627047801L215.52916666666667,37.049555244493035L217.09097222222223,36.90802899148915L218.65277777777777,37.042355572397014L220.21458333333334,38.15756428585652L221.77638888888887,38.12365368993139L223.33819444444444,38.808152117609666L224.9,38.04109493010694L226.46180555555557,37.42684452766912L228.0236111111111,36.99125908219989L229.58541666666667,36.32946786541913L231.1472222222222,36.6662284086695L232.70902777777775,36.61460618678038L234.27083333333334,35.84980700200117L235.83263888888888,36.22078845654451L237.39444444444445,36.18970820310429L238.95624999999998,36.66028042602835L240.51805555555555,36.553056421024706L242.07986111111111,36.16982664908221L243.64166666666668,35.688028620983005L245.20347222222222,35.591010609980714L246.76527777777778,35.79372361782171L248.32708333333332,37.20726065774545L249.88888888888889,37.47556369831696L251.45069444444445,36.431607751697214L253.01250000000002,35.54431979095597L254.57430555555555,34.91410293951361L256.1361111111111,34.20075912192303L257.69791666666663,34.1115844605589L259.25972222222225,34.1758599989879L260.82152777777776,34.60942896617391L262.3833333333333,34.318741651188304L263.9451388888889,34.16788344491181" fill="none"></path></g><g><path style="fill: none;" stroke="rgb(255, 112, 67)" stroke-width="2px" d="M37.483333333333334,187.63792815207924L39.04513888888889,170.7179892864511L40.60694444444444,160.16315400172982L42.168749999999996,148.53311877817546L43.730555555555554,140.52836062792744L45.29236111111111,135.28528972386798L46.854166666666664,134.77825659754217L48.41597222222222,130.66765751496362L49.97777777777778,125.0885309631197L51.53958333333333,120.71764326730312L53.101388888888884,118.35832209145204L54.66319444444444,115.91587638097195L56.225,114.45085001543947L57.78680555555555,113.27845914820436L59.34861111111111,112.31418938768867L60.91041666666667,109.22446190553019L62.47222222222222,108.98501433034585L64.03402777777778,106.6889490219688L65.59583333333333,107.18652073857099L67.1576388888889,105.75662829271782L68.71944444444445,105.09436702440287L70.28125,103.18056233343702L71.84305555555555,102.76604225913545L73.40486111111112,102.04445642350606L74.96666666666667,100.97557972480595L76.52847222222222,99.94291525782717L78.09027777777779,97.72533480469599L79.65208333333334,95.40012177088062L81.21388888888887,94.85290700056017L82.77569444444444,101.61764725438478L84.33749999999999,98.69755641435812L85.89930555555556,98.184753459593L87.46111111111111,106.48658718767248L89.02291666666666,101.22758179170322L90.58472222222223,99.849520668206L92.14652777777778,99.62601025461122L93.70833333333333,95.5621806893807L95.2701388888889,94.23268197165561L96.83194444444445,93.30453025584421L98.39375,95.86206748236152L99.95555555555556,95.63555663629037L101.51736111111111,93.26574317482434L103.07916666666667,90.55568626698702L104.64097222222223,91.70165909106896L106.20277777777777,89.47048383681833L107.76458333333333,88.31113907482599L109.32638888888889,88.57757925644803L110.88819444444444,91.13441121522513L112.45,90.46722126900723L114.01180555555555,88.43630776196252L115.5736111111111,87.15254283663599L117.13541666666667,88.0291734935199L118.69722222222222,87.5115791116302L120.25902777777777,86.9727353436238L121.82083333333334,86.20917314285943L123.38263888888889,86.24020908902367L124.94444444444444,84.22059300967219L126.50625000000001,83.30233674370811L128.06805555555556,92.17619348722182L129.62986111111113,88.9399094157201L131.19166666666666,86.00347410178873L132.75347222222223,84.19269558676756L134.3152777777778,83.22037204719129L135.87708333333333,84.0392809022128L137.4388888888889,83.24246680589476L139.00069444444446,84.83522440570432L140.5625,85.35062302562959L142.12430555555554,84.15971514381988L143.6861111111111,83.57562290028213L145.24791666666667,82.36095516867726L146.80972222222223,80.84946788144485L148.37152777777777,80.85570522124993L149.93333333333334,83.12597241105559L151.49513888888887,82.75969853230141L153.05694444444444,83.4693728333052L154.61875,81.84063085074574L156.18055555555557,81.59715498281729L157.7423611111111,81.82610858091968L159.30416666666667,80.39810744324217L160.8659722222222,81.49801867047285L162.42777777777775,80.57629261583355L163.98958333333334,79.92542232972548L165.55138888888888,80.52955560741789L167.11319444444445,80.02782318855105L168.67499999999998,81.08017881100906L170.23680555555555,80.68431890290302L171.79861111111111,80.65878118080029L173.36041666666668,80.1053585325805L174.92222222222222,79.21890543425181L176.48402777777778,79.20882467410092L178.04583333333332,78.30595542197764L179.60763888888889,79.81877101219234L181.16944444444445,78.60669698205842L182.73125000000002,77.63486593066668L184.29305555555555,78.99217029355705L185.85486111111112,79.48043111909405L187.41666666666666,79.03961829280907L188.97847222222225,80.68292518021299L190.5402777777778,80.20138009111395L192.10208333333333,78.55905796387647L193.6638888888889,79.69343749346979L195.22569444444443,80.58604343398667L196.7875,79.3116470684464L198.34930555555556,79.10140875851906L199.91111111111113,78.3719489365036L201.47291666666666,78.4886725526911L203.03472222222223,78.18367702521721L204.59652777777777,79.28883911806383L206.15833333333333,79.21817647383769L207.7201388888889,78.34417491237019L209.28194444444446,80.7548324185724L210.84375,80.40758533022826L212.40555555555554,79.64482814615185L213.9673611111111,77.36091441141694L215.52916666666667,76.69172708163272L217.09097222222223,75.9151755649027L218.65277777777777,77.24289566860324L220.21458333333334,77.94169307749901L221.77638888888887,77.8717888345407L223.33819444444444,77.65048589822837L224.9,77.32203482979182L226.46180555555557,77.5489112125786L228.0236111111111,77.84809793834926L229.58541666666667,75.95676391621126L231.1472222222222,76.4036362939061L232.70902777777775,76.18257703222721L234.27083333333334,77.46855337009896L235.83263888888888,76.28343668465789L237.39444444444445,75.6212840000555L238.95624999999998,76.02297853200227L240.51805555555555,76.62272545391804L242.07986111111111,77.76526025533698L243.64166666666668,76.49406922635119L245.20347222222222,77.55761403324878L246.76527777777778,77.10325081470549L248.32708333333332,79.0319314267281L249.88888888888889,77.00948529587446L251.45069444444445,76.7254562456186L253.01250000000002,76.63656455267783L254.57430555555555,76.66476469579928L256.1361111111111,76.15989368282577L257.69791666666663,79.03661615143578L259.25972222222225,76.70248325461365L260.82152777777776,77.04673720359668L262.3833333333333,76.61735490470384L263.9451388888889,76.88151662421447" fill="none"></path></g></g></g></g><g opacity="0.20000000298023224"><g><g><g><path style="fill: none;" stroke="rgb(51, 187, 238)" stroke-width="2px" d="M32.797916666666666,216.33079547393652L34.359722222222224,172.5907252807584L35.921527777777776,150.19524347616567L37.483333333333334,135.38267748388978L39.04513888888889,124.85534750711587L40.60694444444444,118.60418518549866L42.168749999999996,112.24429675646954L43.730555555555554,106.91266617385878L45.29236111111111,102.94906252332859L46.854166666666664,100.56636850825615L48.41597222222222,97.14182588333885L49.97777777777778,93.8214634085695L51.53958333333333,91.63353893036644L53.101388888888884,89.53622739306755L54.66319444444444,88.69369427735607L56.225,84.60325135290623L57.78680555555555,83.59308311881291L59.34861111111111,82.04842337055338L60.91041666666667,81.2557073512839L62.47222222222222,79.41205080764162L64.03402777777778,77.89457258623509L65.59583333333333,76.71227038486138L67.1576388888889,75.11776998597716L68.71944444444445,74.64214037441545L70.28125,73.79506130144L71.84305555555555,72.35003574606446L73.40486111111112,70.12590848902862L74.96666666666667,69.17462571172253L76.52847222222222,69.08403632500105L78.09027777777779,67.3355151253442L79.65208333333334,82.89550244352884L81.21388888888887,80.65323846580254L82.77569444444444,77.07919744319386L84.33749999999999,70.08059024148517L85.89930555555556,67.47594516269035L87.46111111111111,74.72820735805564L89.02291666666666,68.63104228302836L90.58472222222223,67.09090493785011L92.14652777777778,67.62542000619904L93.70833333333333,64.59496241228449L95.2701388888889,65.18384053433935L96.83194444444445,62.7422610624797L98.39375,61.95861340355543L99.95555555555556,63.86113184980222L101.51736111111111,62.37083515524864L103.07916666666667,60.309749950965255L104.64097222222223,61.80911500586406L106.20277777777777,60.49095227859088L107.76458333333333,60.422998461458434L109.32638888888889,62.62449014890527L110.88819444444444,56.21023866617017L112.45,55.10950459953813L114.01180555555555,56.31444237050084L115.5736111111111,55.059663948913425L117.13541666666667,55.43565936759114L118.69722222222222,54.629329030712455L120.25902777777777,53.94986152193614L121.82083333333334,56.291783246729125L123.38263888888889,54.176358542922486L124.94444444444444,53.59652522703013L126.50625000000001,51.992980021983385L128.06805555555556,51.218377169221654L129.62986111111113,50.06325649470092L131.19166666666666,49.75976085041961L132.75347222222223,50.34863897247449L134.3152777777778,53.14355473924016L135.87708333333333,49.99984863483243L137.4388888888889,48.1652604515354L139.00069444444446,49.0531118147903L140.5625,48.30569048888157L142.12430555555554,48.28303136510982L143.6861111111111,46.4122168487973L145.24791666666667,46.797257073637525L146.80972222222223,46.74289401993158L148.37152777777777,45.76897567303644L149.93333333333334,45.8142939205799L151.49513888888887,47.93424102746778L153.05694444444444,45.75993086687396L154.61875,44.67728641256693L156.18055555555557,45.01250954096517L157.7423611111111,44.33756443527011L159.30416666666667,45.20275667475329L160.8659722222222,44.66824160640439L162.42777777777775,44.99891877753868L163.98958333333334,43.33194215844077L165.55138888888888,44.722581105927645L167.11319444444445,42.84724418653383L168.67499999999998,42.63886033205523L170.23680555555555,42.75210884254841L171.79861111111111,40.60498020880752L173.36041666666668,40.75445505231622L174.92222222222222,40.985474476383786L176.48402777777778,42.13604919364056L178.04583333333332,40.79070493951443L179.60763888888889,41.823508743196754L181.16944444444445,41.954870420197665L182.73125000000002,40.02062448983392L184.29305555555555,39.88474040975174L185.85486111111112,41.40221863115829L187.41666666666666,40.59591184846232L188.97847222222225,38.96063915929864L190.5402777777778,40.065919183194666L192.10208333333333,38.05467462953595L193.6638888888889,39.06481930944656L195.22569444444443,38.983298283070354L196.7875,39.45440549155077L198.34930555555556,39.55406323861746L199.91111111111113,38.312875580456534L201.47291666666666,38.16792314002913L203.03472222222223,37.733065818746894L204.59652777777777,40.79070493951443L206.15833333333333,38.35817027381728L207.7201388888889,37.54279513077603L209.28194444444446,39.227908470564415L210.84375,37.171369223545014L212.40555555555554,37.71040669497518L213.9673611111111,36.64137655827736L215.52916666666667,38.109037683241894L217.09097222222223,37.56997665762904L218.65277777777777,36.007203742861776L220.21458333333334,36.197450876649896L221.77638888888887,37.58811337831949L223.33819444444444,36.49187816058597L224.9,37.248367846839955L226.46180555555557,35.12387478268812L228.0236111111111,36.28804026337133L229.58541666666667,37.38425192692213L231.1472222222222,37.320844067053656L232.70902777777775,37.266481013347715L234.27083333333334,36.61419503142437L235.83263888888888,35.12387478268812L237.39444444444445,35.56780046431555L238.95624999999998,34.90644612204699L240.51805555555555,36.82255533172025L242.07986111111111,35.16012466988633L243.64166666666668,35.29148634688721L245.20347222222222,35.05139856247439L246.76527777777778,42.09075450027984L248.32708333333332,34.97439993917945L249.88888888888889,32.75929393412338L251.45069444444445,35.40473485738042L253.01250000000002,34.534996660633226L254.57430555555555,36.1113838930097L256.1361111111111,33.900823845217644L257.69791666666663,34.47158880076478L259.25972222222225,35.04687615939315L260.82152777777776,34.34474952684508L262.3833333333333,34.97892234226069L263.9451388888889,35.20541936324702" fill="none"></path></g><g><path style="fill: none;" stroke="rgb(204, 51, 17)" stroke-width="2px" d="M32.797916666666666,190.76685211890273L34.359722222222224,158.15504976610342L35.921527777777776,150.6543380514615L37.483333333333334,150.53204473480582L39.04513888888889,130.8834281642404L40.60694444444444,127.66300608673029L42.168749999999996,121.22218548589282L43.730555555555554,114.86286235724887L45.29236111111111,114.53675469756126L46.854166666666664,112.98769031713405L48.41597222222222,112.58003807688752L49.97777777777778,107.8513239092297L51.53958333333333,108.21822741337948L53.101388888888884,103.61180656237735L54.66319444444444,104.91626075531046L56.225,103.61180656237735L57.78680555555555,112.25393041719994L59.34861111111111,107.15833629957504L60.91041666666667,103.36721992906597L62.47222222222222,102.14426320832636L64.03402777777778,100.88055775149002L65.59583333333333,100.71749214455485L67.1576388888889,98.027015623947L68.71944444444445,97.61938693788316L70.28125,102.02196989167068L71.84305555555555,95.54037700055375L73.40486111111112,97.25248343373339L74.96666666666667,94.84736583671636L76.52847222222222,96.55949582407872L78.09027777777779,98.80154781416059L79.65208333333334,98.84232010444006L81.21388888888887,96.84485474766957L82.77569444444444,102.59268773885238L84.33749999999999,94.68432378396392L85.89930555555556,88.69190415946973L87.46111111111111,100.26909116821157L89.02291666666666,95.05120373393099L90.58472222222223,92.15688931610849L92.14652777777778,94.23589925343792L93.70833333333333,89.83331629965042L95.2701388888889,93.62443267015948L96.83194444444445,94.52125817702877L98.39375,89.14030513581302L99.95555555555556,89.42566405940389L101.51736111111111,89.71102298299472L103.07916666666667,94.56203046730823L104.64097222222223,93.58366037988L106.20277777777777,87.75430636232099L107.76458333333333,88.36577294559943L109.32638888888889,86.00142763886188L110.88819444444444,83.92241770153245L112.45,87.06129519848359L114.01180555555555,89.5071850857801L115.5736111111111,89.67025069271526L117.13541666666667,86.08294866523809L118.69722222222222,86.08294866523809L120.25902777777777,84.08548330846762L121.82083333333334,84.77847091812228L123.38263888888889,84.90076423477797L124.94444444444444,83.59631004184484L126.50625000000001,82.86252658772801L128.06805555555556,83.84089667515623L129.62986111111113,85.02305755143365L131.19166666666666,81.06887557398943L132.75347222222223,87.14283977904253L134.3152777777778,84.24852536122005L135.87708333333333,86.4090563249257L137.4388888888889,81.96570108085871L139.00069444444446,84.69694989174604L140.5625,81.59882113089165L142.12430555555554,80.82428894067804L143.6861111111111,82.2102877141701L145.24791666666667,83.10711322103938L146.80972222222223,80.33511567405529L148.37152777777777,81.68036571145058L149.93333333333334,80.04975675046444L151.49513888888887,82.82177785163125L153.05694444444444,83.14788551131885L154.61875,80.09052904074392L156.18055555555557,80.57970230736666L157.7423611111111,78.82682358390755L159.30416666666667,80.74276791430182L160.8659722222222,80.49818128099045L162.42777777777775,79.03063792693948L163.98958333333334,79.35676914080977L165.55138888888888,79.11218250749842L167.11319444444445,79.23447582415409L168.67499999999998,77.2369869132009L170.23680555555555,80.33511567405529L171.79861111111111,81.27271347120404L173.36041666666668,78.90834461028378L174.92222222222222,80.45740899071097L176.48402777777778,79.60135577412116L178.04583333333332,79.68287680049738L179.60763888888889,81.80265902810626L181.16944444444445,75.81023940361209L182.73125000000002,80.53895357126991L184.29305555555555,75.60640150639748L185.85486111111112,77.27775920348036L187.41666666666666,79.27522456025085L188.97847222222225,74.75034828980765L190.5402777777778,79.11218250749842L192.10208333333333,78.25610573672586L193.6638888888889,75.68794608695642L195.22569444444443,74.79112058008711L196.7875,79.47906245746546L198.34930555555556,78.09306368397343L199.91111111111113,76.99240027988951L201.47291666666666,78.4599436339405L203.03472222222223,76.99240027988951L204.59652777777777,78.33765031728481L206.15833333333333,76.74781364657812L207.7201388888889,74.0165883898735L209.28194444444446,77.2369869132009L210.84375,76.46245472298729L212.40555555555554,74.95416263283956L213.9673611111111,78.58223695059618L215.52916666666667,77.40005252013604L217.09097222222223,77.56311812707119L218.65277777777777,74.38346833984058L220.21458333333334,74.54651039259302L221.77638888888887,74.13888170652919L223.33819444444444,76.17711935357916L224.9,74.91341389674281L226.46180555555557,72.22293737613492L228.0236111111111,76.54399930354623L229.58541666666667,76.87010696323382L231.1472222222222,78.70453026725188L232.70902777777775,76.50322701326675L234.27083333333334,74.09810941624974L235.83263888888888,74.38346833984058L237.39444444444445,74.30192375928164L238.95624999999998,74.0165883898735L240.51805555555555,79.11218250749842L242.07986111111111,72.67133835247822L243.64166666666668,76.50322701326675L245.20347222222222,76.17711935357916L246.76527777777778,77.72618373400636L248.32708333333332,73.03821830244529L249.88888888888889,73.64970843990645L251.45069444444445,75.81023940361209L253.01250000000002,76.66629262020192L254.57430555555555,77.19623817710415L256.1361111111111,73.6904571760032L257.69791666666663,76.29941267023484L259.25972222222225,74.75034828980765L260.82152777777776,76.25864037995538L262.3833333333333,77.11469359654521L263.9451388888889,75.23952155643039" fill="none"></path></g><g><path style="fill: none;" stroke="rgb(0, 119, 187)" stroke-width="2px" d="M35.921527777777776,180.01512144340407L37.483333333333334,162.9512466672394L39.04513888888889,151.4545207466516L40.60694444444444,141.2714587044385L42.168749999999996,133.0543465225233L43.730555555555554,127.91298662788338L45.29236111111111,121.41266816150811L46.854166666666664,116.30755815406641L48.41597222222222,112.18086534241834L49.97777777777778,110.09262216546469L51.53958333333333,104.3261342615717L53.101388888888884,101.55842357584172L54.66319444444444,99.54715546800031L56.225,95.48844002766742L57.78680555555555,93.72632806458407L59.34861111111111,90.84534531417822L60.91041666666667,89.90315445140004L62.47222222222222,88.64837602981262L64.03402777777778,85.60435122665433L65.59583333333333,83.65199212978284L67.1576388888889,82.71430011590323L68.71944444444445,81.4142505551378L70.28125,79.588730732186L71.84305555555555,77.50046400104961L73.40486111111112,77.55482705475556L74.96666666666667,75.95580425279009L76.52847222222222,75.87425967223115L78.09027777777779,73.8086520648665L79.65208333333334,78.45626918143697L81.21388888888887,77.07012908284864L82.77569444444444,82.29755596112875L84.33749999999999,82.50593981560735L85.89930555555556,74.71009419154791L87.46111111111111,72.96157299189106L89.02291666666666,79.89674877954856L90.58472222222223,75.36692613073521L92.14652777777778,71.36255018992559L93.70833333333333,72.4179895631969L95.2701388888889,69.5188936462833L96.83194444444445,64.5451453158425L98.39375,71.1632346957922L99.95555555555556,73.28772775994408L101.51736111111111,62.52483240183858L103.07916666666667,66.62434368663364L104.64097222222223,65.10231950796314L106.20277777777777,63.74788333930903L107.76458333333333,58.312096160733034L109.32638888888889,58.6699548587203L110.88819444444444,61.532800888435716L112.45,62.719625492890685L114.01180555555555,60.24179613383281L115.5736111111111,56.32348717666336L117.13541666666667,57.415176437132885L118.69722222222222,55.58061180801856L120.25902777777777,55.18650322283308L121.82083333333334,53.13448637889492L123.38263888888889,53.03482863182823L124.94444444444444,53.74150122164026L126.50625000000001,53.13448637889492L128.06805555555556,54.09933636544481L129.62986111111113,57.16604384655754L131.19166666666666,52.32817959619895L132.75347222222223,50.38036645659142L134.3152777777778,53.00764710497526L135.87708333333333,50.44829671954116L137.4388888888889,49.52874142635201L139.00069444444446,50.66572538018228L140.5625,50.85599606815313L142.12430555555554,49.51969662018948L143.6861111111111,48.86738708408342L145.24791666666667,47.45861141590609L146.80972222222223,46.89239241762294L148.37152777777777,47.6624493131207L149.93333333333334,46.52546535929045L151.49513888888887,48.45516533239021L153.05694444444444,48.5412323160304L154.61875,50.21275489239231L156.18055555555557,45.827861129823674L157.7423611111111,45.433776098820914L159.30416666666667,45.70556781316799L160.8659722222222,45.2299382016063L162.42777777777775,45.70556781316799L163.98958333333334,43.522189292228916L165.55138888888888,44.93548736348751L167.11319444444445,43.03296891724071L168.67499999999998,43.21414769068363L170.23680555555555,44.17447527415226L171.79861111111111,42.84724418653383L173.36041666666668,43.078263610601454L174.92222222222222,41.93221129642592L176.48402777777778,42.253843661397724L178.04583333333332,42.009233473903635L179.60763888888889,40.88129432623586L181.16944444444445,41.524535501996695L182.73125000000002,40.296938607262234L184.29305555555555,44.22431592477693L185.85486111111112,41.24822138456835L187.41666666666666,41.48376321171722L188.97847222222225,41.361446340878814L190.5402777777778,40.52795803132986L192.10208333333333,38.290240010867535L193.6638888888889,40.66838806867602L195.22569444444443,39.32756621763113L196.7875,39.30038469077812L198.34930555555556,38.22680859681634L199.91111111111113,38.14980997352137L201.47291666666666,38.37630699450773L203.03472222222223,37.89613142568206L204.59652777777777,38.6707342784438L206.15833333333333,39.34115698105762L207.7201388888889,37.656043641269235L209.28194444444446,43.97970573728284L210.84375,38.77491442859176L212.40555555555554,37.117006169839044L213.9673611111111,36.442061064143985L215.52916666666667,35.86677370551561L217.09097222222223,36.69573961198333L218.65277777777777,37.243845443758715L220.21458333333334,39.83037735604577L221.77638888888887,38.072787796043684L223.33819444444444,39.83489975912704L224.9,36.890509148852686L226.46180555555557,36.50546892401246L228.0236111111111,36.33788091399606L229.58541666666667,35.336781040247956L231.1472222222222,37.171369223545014L232.70902777777775,36.537172853946714L234.27083333333334,34.702608224832375L235.83263888888888,36.777260638359536L237.39444444444445,36.143087822943954L238.95624999999998,37.3661387604144L240.51805555555555,36.39222041351928L242.07986111111111,35.59498199116854L243.64166666666668,34.965331578834196L245.20347222222222,35.44548359347715L246.76527777777778,36.09779312958321L248.32708333333332,39.32756621763113L249.88888888888889,37.878018259174326L251.45069444444445,34.86567383176754L253.01250000000002,34.213387849844196L254.57430555555555,33.96877766235008L256.1361111111111,33.130743395537166L257.69791666666663,33.97782246851261L259.25972222222225,34.272273306631405L260.82152777777776,35.25978241695299L262.3833333333333,33.882710678709884L263.9451388888889,33.94159613549712" fill="none"></path></g><g><path style="fill: none;" stroke="rgb(255, 112, 67)" stroke-width="2px" d="M34.359722222222224,184.9374981013437L35.921527777777776,169.52842243181334L37.483333333333334,172.13735437186227L39.04513888888889,147.31162265729571L40.60694444444444,145.06957066721387L42.168749999999996,131.57641577389506L43.730555555555554,128.72289720053473L45.29236111111111,127.49994047979513L46.854166666666664,134.02230566119152L48.41597222222222,124.52412858977914L49.97777777777778,116.73805795154638L51.53958333333333,114.1698747475942L53.101388888888884,114.82211362115211L54.66319444444444,112.25393041719994L56.225,112.25393041719994L57.78680555555555,111.5201705172658L59.34861111111111,110.86793164370789L60.91041666666667,104.59015309562287L62.47222222222222,108.62585609944331L64.03402777777778,103.24492661241028L65.59583333333333,107.93286848978865L67.1576388888889,103.61180656237735L68.71944444444445,104.10097982900011L70.28125,100.30986345849104L71.84305555555555,102.14426320832636L73.40486111111112,100.96207877786624L74.96666666666667,99.37226566134228L76.52847222222222,98.39391912809677L78.09027777777779,94.39896486037307L79.65208333333334,91.91230268279712L81.21388888888887,94.03208491040601L82.77569444444444,111.76475715057718L84.33749999999999,94.31742027981414L85.89930555555556,97.41554904066854L87.46111111111111,118.93933765134878L89.02291666666666,93.33907374656863L90.58472222222223,97.78242899063561L92.14652777777778,99.29074463496606L93.70833333333333,89.46643634968333L95.2701388888889,92.23843389666743L96.83194444444445,91.91230268279712L98.39375,99.69837332102988L99.95555555555556,95.29579036724236L101.51736111111111,89.71102298299472L103.07916666666667,86.49060090548463L104.64097222222223,93.42061832712757L106.20277777777777,86.12372095551757L107.76458333333333,86.57212193186085L109.32638888888889,88.97723952887787L110.88819444444444,94.96965915337205L112.45,89.46643634968333L114.01180555555555,85.38993750140071L115.5736111111111,85.22689544864826L117.13541666666667,89.34411947884493L118.69722222222222,86.735187538796L120.25902777777777,86.16446969161431L121.82083333333334,85.06382984171312L123.38263888888889,86.28676300827001L124.94444444444444,81.19116889064512L126.50625000000001,81.92495234476196L128.06805555555556,105.48697860249214L129.62986111111113,84.08548330846762L131.19166666666666,81.59882113089165L132.75347222222223,81.47652781423596L134.3152777777778,81.76188673782681L135.87708333333333,85.26764418474502L137.4388888888889,82.04724566141765L139.00069444444446,87.22436080541877L140.5625,86.12372095551757L142.12430555555554,82.37335332110524L143.6861111111111,82.69948453497557L145.24791666666667,80.53895357126991L146.80972222222223,78.58223695059618L148.37152777777777,80.86506123095751L149.93333333333334,86.5313731957641L151.49513888888887,82.2102877141701L153.05694444444444,84.5338842848109L154.61875,79.39751787690655L156.18055555555557,81.23194118092458L157.7423611111111,82.16953897807335L159.30416666666667,78.25610573672586L160.8659722222222,83.14788551131885L162.42777777777775,79.19370353387463L163.98958333333334,78.94911690056324L165.55138888888888,81.43575552395649L167.11319444444445,79.27522456025085L168.67499999999998,82.65871224469609L170.23680555555555,80.09052904074392L171.79861111111111,80.62047459764615L173.36041666666668,79.27522456025085L174.92222222222222,77.88922578675881L176.48402777777778,79.19370353387463L178.04583333333332,76.95165154379276L179.60763888888889,82.0879943975144L181.16944444444445,76.78858593685761L182.73125000000002,76.17711935357916L184.29305555555555,81.02812683789269L185.85486111111112,80.21282235739962L187.41666666666666,78.37839905338156L188.97847222222225,83.14788551131885L190.5402777777778,79.47906245746546L192.10208333333333,76.09557477302022L193.6638888888889,81.39500678785973L195.22569444444443,81.92495234476196L196.7875,77.40005252013604L198.34930555555556,78.78605129362809L199.91111111111113,77.27775920348036L201.47291666666666,78.66375797697239L203.03472222222223,77.72618373400636L204.59652777777777,80.94658225733374L206.15833333333333,79.11218250749842L207.7201388888889,77.03317257016897L209.28194444444446,84.37081867787575L210.84375,79.886714697712L212.40555555555554,78.50069237003724L213.9673611111111,73.93504380931458L215.52916666666667,75.68794608695642L217.09097222222223,74.75034828980765L218.65277777777777,79.23447582415409L220.21458333333334,78.98988919084272L221.77638888888887,77.76693247010311L223.33819444444444,77.31853149375982L224.9,76.82935822713708L226.46180555555557,77.88922578675881L228.0236111111111,78.29687802700535L229.58541666666667,73.11976288300423L231.1472222222222,77.07394486044845L232.70902777777775,75.85098813970885L234.27083333333334,79.39751787690655L235.83263888888888,74.50576165649628L237.39444444444445,74.62805497315196L238.95624999999998,76.62552032992244L240.51805555555555,77.52234583679174L242.07986111111111,79.47906245746546L243.64166666666668,74.58728268287248L245.20347222222222,79.15293124359516L246.76527777777778,76.42170598689054L248.32708333333332,81.92495234476196L249.88888888888889,73.97581609959404L251.45069444444445,76.29941267023484L253.01250000000002,76.50322701326675L254.57430555555555,76.70706491048138L256.1361111111111,75.40258716336555L257.69791666666663,83.35169985435076L259.25972222222225,73.20128390938044L260.82152777777776,77.56311812707119L262.3833333333333,75.97328145636455L263.9451388888889,77.27775920348036" fill="none"></path></g></g></g></g></g></g><g transform="translate(48, 177)" clip-path="url(#clip_1)"><clipPath id="clip_1"><rect width="281" height="22"></rect></clipPath><g><g><line x1="0" y1="0" x2="0" y2="5" style="visibility: inherit;" fill="rgb(0, 0, 0)" stroke="rgb(204, 204, 204)" stroke-width="1px"></line><line x1="31.23611111111111" y1="0" x2="31.23611111111111" y2="5" style="visibility: inherit;" fill="rgb(0, 0, 0)" stroke="rgb(204, 204, 204)" stroke-width="1px"></line><line x1="62.47222222222222" y1="0" x2="62.47222222222222" y2="5" style="visibility: inherit;" fill="rgb(0, 0, 0)" stroke="rgb(204, 204, 204)" stroke-width="1px"></line><line x1="93.70833333333333" y1="0" x2="93.70833333333333" y2="5" style="visibility: inherit;" fill="rgb(0, 0, 0)" stroke="rgb(204, 204, 204)" stroke-width="1px"></line><line x1="124.94444444444444" y1="0" x2="124.94444444444444" y2="5" style="visibility: inherit;" fill="rgb(0, 0, 0)" stroke="rgb(204, 204, 204)" stroke-width="1px"></line><line x1="156.18055555555557" y1="0" x2="156.18055555555557" y2="5" style="visibility: inherit;" fill="rgb(0, 0, 0)" stroke="rgb(204, 204, 204)" stroke-width="1px"></line><line x1="187.41666666666666" y1="0" x2="187.41666666666666" y2="5" style="visibility: inherit;" fill="rgb(0, 0, 0)" stroke="rgb(204, 204, 204)" stroke-width="1px"></line><line x1="218.65277777777777" y1="0" x2="218.65277777777777" y2="5" style="visibility: inherit;" fill="rgb(0, 0, 0)" stroke="rgb(204, 204, 204)" stroke-width="1px"></line><line x1="249.88888888888889" y1="0" x2="249.88888888888889" y2="5" style="visibility: inherit;" fill="rgb(0, 0, 0)" stroke="rgb(204, 204, 204)" stroke-width="1px"></line><line x1="281.125" y1="0" x2="281.125" y2="5" style="visibility: inherit;" fill="rgb(0, 0, 0)" stroke="rgb(204, 204, 204)" stroke-width="1px"></line></g><g transform="translate(0, 8)"><text style="text-anchor: middle; visibility: hidden; font-family: &quot;Helvetica Neue&quot;, sans-serif; font-size: 12px; font-weight: 200;" x="0" y="0" dx="0em" dy="0.95em" fill="rgb(50, 49, 63)" stroke="none" stroke-width="1px">-20</text><text style="text-anchor: middle; visibility: inherit; font-family: &quot;Helvetica Neue&quot;, sans-serif; font-size: 12px; font-weight: 200;" x="31.23611111111111" y="0" dx="0em" dy="0.95em" fill="rgb(50, 49, 63)" stroke="none" stroke-width="1px">0</text><text style="text-anchor: middle; visibility: inherit; font-family: &quot;Helvetica Neue&quot;, sans-serif; font-size: 12px; font-weight: 200;" x="62.47222222222222" y="0" dx="0em" dy="0.95em" fill="rgb(50, 49, 63)" stroke="none" stroke-width="1px">20</text><text style="text-anchor: middle; visibility: inherit; font-family: &quot;Helvetica Neue&quot;, sans-serif; font-size: 12px; font-weight: 200;" x="93.70833333333333" y="0" dx="0em" dy="0.95em" fill="rgb(50, 49, 63)" stroke="none" stroke-width="1px">40</text><text style="text-anchor: middle; visibility: inherit; font-family: &quot;Helvetica Neue&quot;, sans-serif; font-size: 12px; font-weight: 200;" x="124.94444444444444" y="0" dx="0em" dy="0.95em" fill="rgb(50, 49, 63)" stroke="none" stroke-width="1px">60</text><text style="text-anchor: middle; visibility: inherit; font-family: &quot;Helvetica Neue&quot;, sans-serif; font-size: 12px; font-weight: 200;" x="156.18055555555557" y="0" dx="0em" dy="0.95em" fill="rgb(50, 49, 63)" stroke="none" stroke-width="1px">80</text><text style="text-anchor: middle; visibility: inherit; font-family: &quot;Helvetica Neue&quot;, sans-serif; font-size: 12px; font-weight: 200;" x="187.41666666666666" y="0" dx="0em" dy="0.95em" fill="rgb(50, 49, 63)" stroke="none" stroke-width="1px">100</text><text style="text-anchor: middle; visibility: inherit; font-family: &quot;Helvetica Neue&quot;, sans-serif; font-size: 12px; font-weight: 200;" x="218.65277777777777" y="0" dx="0em" dy="0.95em" fill="rgb(50, 49, 63)" stroke="none" stroke-width="1px">120</text><text style="text-anchor: middle; visibility: inherit; font-family: &quot;Helvetica Neue&quot;, sans-serif; font-size: 12px; font-weight: 200;" x="249.88888888888889" y="0" dx="0em" dy="0.95em" fill="rgb(50, 49, 63)" stroke="none" stroke-width="1px">140</text><text style="text-anchor: middle; visibility: hidden; font-family: &quot;Helvetica Neue&quot;, sans-serif; font-size: 12px; font-weight: 200;" x="281.125" y="0" dx="0em" dy="0.95em" fill="rgb(50, 49, 63)" stroke="none" stroke-width="1px">160</text></g><line x1="0" y1="0" x2="281.125" y2="0" fill="rgb(0, 0, 0)" stroke="rgb(204, 204, 204)" stroke-width="1px"></line></g></g></g></g></svg>