<svg viewBox="0 0 330 200" xmlns="http://www.w3.org/2000/svg"><g><g><g><g><g><line x1="48.875" y1="177.828125" x2="43.875" y2="177.828125" style="visibility: inherit;" fill="rgb(0, 0, 0)" stroke="rgb(204, 204, 204)" stroke-width="1px"></line><line x1="48.875" y1="155.59960937499997" x2="43.875" y2="155.59960937499997" style="visibility: inherit;" fill="rgb(0, 0, 0)" stroke="rgb(204, 204, 204)" stroke-width="1px"></line><line x1="48.875" y1="133.37109375" x2="43.875" y2="133.37109375" style="visibility: inherit;" fill="rgb(0, 0, 0)" stroke="rgb(204, 204, 204)" stroke-width="1px"></line><line x1="48.875" y1="111.14257812499999" x2="43.875" y2="111.14257812499999" style="visibility: inherit;" fill="rgb(0, 0, 0)" stroke="rgb(204, 204, 204)" stroke-width="1px"></line><line x1="48.875" y1="88.91406249999999" x2="43.875" y2="88.91406249999999" style="visibility: inherit;" fill="rgb(0, 0, 0)" stroke="rgb(204, 204, 204)" stroke-width="1px"></line><line x1="48.875" y1="66.685546875" x2="43.875" y2="66.685546875" style="visibility: inherit;" fill="rgb(0, 0, 0)" stroke="rgb(204, 204, 204)" stroke-width="1px"></line><line x1="48.875" y1="44.45703124999997" x2="43.875" y2="44.45703124999997" style="visibility: inherit;" fill="rgb(0, 0, 0)" stroke="rgb(204, 204, 204)" stroke-width="1px"></line><line x1="48.875" y1="22.22851562500003" x2="43.875" y2="22.22851562500003" style="visibility: inherit;" fill="rgb(0, 0, 0)" stroke="rgb(204, 204, 204)" stroke-width="1px"></line><line x1="48.875" y1="0" x2="43.875" y2="0" style="visibility: inherit;" fill="rgb(0, 0, 0)" stroke="rgb(204, 204, 204)" stroke-width="1px"></line></g><g transform="translate(38.875, 0)"><text style="text-anchor: end; visibility: hidden; font-family: &quot;Helvetica Neue&quot;, sans-serif; font-size: 12px; font-weight: 200;" x="0" y="177.828125" dx="0em" dy="0.3em" fill="rgb(50, 49, 63)" stroke="none" stroke-width="1px">0.6</text><text style="text-anchor: end; visibility: inherit; font-family: &quot;Helvetica Neue&quot;, sans-serif; font-size: 12px; font-weight: 200;" x="0" y="155.59960937499997" dx="0em" dy="0.3em" fill="rgb(50, 49, 63)" stroke="none" stroke-width="1px">0.65</text><text style="text-anchor: end; visibility: hidden; font-family: &quot;Helvetica Neue&quot;, sans-serif; font-size: 12px; font-weight: 200;" x="0" y="133.37109375" dx="0em" dy="0.3em" fill="rgb(50, 49, 63)" stroke="none" stroke-width="1px">0.7</text><text style="text-anchor: end; visibility: inherit; font-family: &quot;Helvetica Neue&quot;, sans-serif; font-size: 12px; font-weight: 200;" x="0" y="111.14257812499999" dx="0em" dy="0.3em" fill="rgb(50, 49, 63)" stroke="none" stroke-width="1px">0.75</text><text style="text-anchor: end; visibility: hidden; font-family: &quot;Helvetica Neue&quot;, sans-serif; font-size: 12px; font-weight: 200;" x="0" y="88.91406249999999" dx="0em" dy="0.3em" fill="rgb(50, 49, 63)" stroke="none" stroke-width="1px">0.8</text><text style="text-anchor: end; visibility: inherit; font-family: &quot;Helvetica Neue&quot;, sans-serif; font-size: 12px; font-weight: 200;" x="0" y="66.685546875" dx="0em" dy="0.3em" fill="rgb(50, 49, 63)" stroke="none" stroke-width="1px">0.85</text><text style="text-anchor: end; visibility: hidden; font-family: &quot;Helvetica Neue&quot;, sans-serif; font-size: 12px; font-weight: 200;" x="0" y="44.45703124999997" dx="0em" dy="0.3em" fill="rgb(50, 49, 63)" stroke="none" stroke-width="1px">0.9</text><text style="text-anchor: end; visibility: inherit; font-family: &quot;Helvetica Neue&quot;, sans-serif; font-size: 12px; font-weight: 200;" x="0" y="22.22851562500003" dx="0em" dy="0.3em" fill="rgb(50, 49, 63)" stroke="none" stroke-width="1px">0.95</text><text style="text-anchor: end; visibility: hidden; font-family: &quot;Helvetica Neue&quot;, sans-serif; font-size: 12px; font-weight: 200;" x="0" y="0" dx="0em" dy="0.3em" fill="rgb(50, 49, 63)" stroke="none" stroke-width="1px">1</text></g><line x1="48.875" y1="0" x2="48.875" y2="177.828125" fill="rgb(0, 0, 0)" stroke="rgb(204, 204, 204)" stroke-width="1px"></line></g></g><g transform="translate(48, 0)" clip-path="url(#clip_0)"><clipPath id="clip_0"><rect width="281" height="177"></rect></clipPath><g><g><g><line x1="0" y1="0" x2="0" y2="177.828125" fill="rgb(0, 0, 0)" stroke="rgb(60, 60, 60)" stroke-width="1px" opacity="0.25"></line><line x1="20.080357142857142" y1="0" x2="20.080357142857142" y2="177.828125" fill="rgb(0, 0, 0)" stroke="rgb(60, 60, 60)" stroke-width="1px" opacity="0.25"></line><line x1="40.160714285714285" y1="0" x2="40.160714285714285" y2="177.828125" fill="rgb(0, 0, 0)" stroke="rgb(60, 60, 60)" stroke-width="1px" opacity="0.25"></line><line x1="60.24107142857142" y1="0" x2="60.24107142857142" y2="177.828125" fill="rgb(0, 0, 0)" stroke="rgb(60, 60, 60)" stroke-width="1px" opacity="0.25"></line><line x1="80.32142857142857" y1="0" x2="80.32142857142857" y2="177.828125" fill="rgb(0, 0, 0)" stroke="rgb(60, 60, 60)" stroke-width="1px" opacity="0.25"></line><line x1="100.40178571428572" y1="0" x2="100.40178571428572" y2="177.828125" fill="rgb(0, 0, 0)" stroke="rgb(60, 60, 60)" stroke-width="1px" opacity="0.25"></line><line x1="120.48214285714285" y1="0" x2="120.48214285714285" y2="177.828125" fill="rgb(0, 0, 0)" stroke="rgb(60, 60, 60)" stroke-width="1px" opacity="0.25"></line><line x1="140.5625" y1="0" x2="140.5625" y2="177.828125" fill="rgb(0, 0, 0)" stroke="rgb(60, 60, 60)" stroke-width="1px" opacity="0.25"></line><line x1="160.64285714285714" y1="0" x2="160.64285714285714" y2="177.828125" fill="rgb(0, 0, 0)" stroke="rgb(60, 60, 60)" stroke-width="1px" opacity="0.25"></line><line x1="180.7232142857143" y1="0" x2="180.7232142857143" y2="177.828125" fill="rgb(0, 0, 0)" stroke="rgb(60, 60, 60)" stroke-width="1px" opacity="0.25"></line><line x1="200.80357142857144" y1="0" x2="200.80357142857144" y2="177.828125" fill="rgb(0, 0, 0)" stroke="rgb(60, 60, 60)" stroke-width="1px" opacity="0.25"></line><line x1="220.88392857142856" y1="0" x2="220.88392857142856" y2="177.828125" fill="rgb(0, 0, 0)" stroke="rgb(60, 60, 60)" stroke-width="1px" opacity="0.25"></line><line x1="240.9642857142857" y1="0" x2="240.9642857142857" y2="177.828125" fill="rgb(0, 0, 0)" stroke="rgb(60, 60, 60)" stroke-width="1px" opacity="0.25"></line><line x1="261.0446428571429" y1="0" x2="261.0446428571429" y2="177.828125" fill="rgb(0, 0, 0)" stroke="rgb(60, 60, 60)" stroke-width="1px" opacity="0.25"></line><line x1="281.125" y1="0" x2="281.125" y2="177.828125" fill="rgb(0, 0, 0)" stroke="rgb(60, 60, 60)" stroke-width="1px" opacity="0.25"></line></g><g><line x1="0" y1="177.828125" x2="281.125" y2="177.828125" fill="rgb(0, 0, 0)" stroke="rgb(60, 60, 60)" stroke-width="1px" opacity="0.25"></line><line x1="0" y1="155.59960937499997" x2="281.125" y2="155.59960937499997" fill="rgb(0, 0, 0)" stroke="rgb(60, 60, 60)" stroke-width="1px" opacity="0.25"></line><line x1="0" y1="133.37109375" x2="281.125" y2="133.37109375" fill="rgb(0, 0, 0)" stroke="rgb(60, 60, 60)" stroke-width="1px" opacity="0.25"></line><line x1="0" y1="111.14257812499999" x2="281.125" y2="111.14257812499999" fill="rgb(0, 0, 0)" stroke="rgb(60, 60, 60)" stroke-width="1px" opacity="0.25"></line><line x1="0" y1="88.91406249999999" x2="281.125" y2="88.91406249999999" fill="rgb(0, 0, 0)" stroke="rgb(60, 60, 60)" stroke-width="1px" opacity="0.25"></line><line x1="0" y1="66.685546875" x2="281.125" y2="66.685546875" fill="rgb(0, 0, 0)" stroke="rgb(60, 60, 60)" stroke-width="1px" opacity="0.25"></line><line x1="0" y1="44.45703124999997" x2="281.125" y2="44.45703124999997" fill="rgb(0, 0, 0)" stroke="rgb(60, 60, 60)" stroke-width="1px" opacity="0.25"></line><line x1="0" y1="22.22851562500003" x2="281.125" y2="22.22851562500003" fill="rgb(0, 0, 0)" stroke="rgb(60, 60, 60)" stroke-width="1px" opacity="0.25"></line><line x1="0" y1="0" x2="281.125" y2="0" fill="rgb(0, 0, 0)" stroke="rgb(60, 60, 60)" stroke-width="1px" opacity="0.25"></line></g></g></g><g><g><line x1="0" y1="444.57031249999994" x2="281.125" y2="444.57031249999994" fill="rgb(0, 0, 0)" stroke="rgb(153, 153, 153)" stroke-width="1.5px"></line></g></g><g><g><line x1="20.080357142857142" y1="0" x2="20.080357142857142" y2="177.828125" fill="rgb(0, 0, 0)" stroke="rgb(153, 153, 153)" stroke-width="1.5px"></line></g></g><g><g><g><g><g><path style="fill: none;" stroke="rgb(51, 187, 238)" stroke-width="2px" d="M26.104464285714286,185.69661969094935L28.1125,166.21681803547187L30.12053571428571,151.31281170700476L32.128571428571426,139.8227620445386L34.136607142857144,130.79553275578888L36.144642857142856,123.49613799118472L38.15267857142857,117.30250008646587L40.160714285714285,112.34518779353296L42.168749999999996,107.6533744965875L44.176785714285714,103.74576634193436L46.184821428571425,99.63719653391868L48.19285714285714,96.16414555689872L50.20089285714286,93.3610881425714L52.20892857142857,91.34310890897456L54.21696428571429,88.76913018953131L56.225,86.40423489346595L58.23303571428572,84.45239112488838L60.24107142857142,82.5460352618889L62.24910714285714,81.0312864473466L64.25714285714285,78.70955170979211L66.26517857142856,77.27951998332871L68.27321428571429,76.0485013639011L70.28125,74.9017625234926L72.28928571428571,73.01732457777817L74.29732142857144,71.54164234214723L76.30535714285713,70.1850060723028L78.31339285714286,69.40841925905265L80.32142857142857,67.94888105972413L82.3294642857143,66.79851764942663L84.33749999999999,65.75937858182456L86.34553571428572,64.70884605107304L88.35357142857143,63.63793142411977L90.36160714285715,62.536598994913945L92.36964285714285,61.54664632711096L94.37767857142856,60.604887799600306L96.38571428571429,59.822566548067584L98.39375,58.9153027187175L100.40178571428572,58.24589291033172L102.40982142857142,57.19841606718268L104.41785714285714,56.18078424261617L106.42589285714286,55.59432934200498L108.43392857142858,54.57999501277831L110.44196428571428,54.38343479982173L112.45,53.995331018596715L114.45803571428571,52.79590048567027L116.46607142857144,51.73434849298401L118.47410714285715,51.143270224872836L120.48214285714285,50.1859211921161L122.49017857142857,49.27624271340943L124.49821428571428,49.068852701762125L126.50625000000001,48.61755494582087L128.5142857142857,48.21238672506746L130.52232142857144,47.62267539458361L132.53035714285713,47.10946568582577L134.53839285714287,46.60176270445649L136.54642857142858,45.95119827868314L138.5544642857143,45.18016161196243L140.5625,63.130606217967795L142.5705357142857,60.995022790901245L144.57857142857142,56.61956467279627L146.58660714285716,53.223799509473665L148.59464285714287,50.433582885477236L150.60267857142856,49.29408575034182L152.61071428571427,47.26670378501589L154.61875,45.78262960534025L156.62678571428572,45.495374741007254L158.63482142857143,44.61090232784261L160.64285714285714,43.85999551552362L162.65089285714288,43.17271422621056L164.6589285714286,42.13399615899587L166.6669642857143,42.20792908491714L168.67499999999998,41.829384089206286L170.6830357142857,40.641762273613864L172.69107142857143,41.23587042516721L174.69910714285714,41.29787387859824L176.70714285714286,41.69691766094118L178.71517857142857,41.37928279830342L180.7232142857143,40.12335797361777L182.73125000000002,38.81952555138466L184.7392857142857,37.22520742604044L186.7473214285714,36.381203188792796L188.75535714285712,35.623987464932156L190.76339285714286,35.910152071388154L192.77142857142857,36.468420904269266L194.77946428571428,36.279454740779386L196.7875,35.8925579844545L198.79553571428573,35.53011112562601L200.80357142857144,34.842295424241L202.81160714285713,34.074335910103144L204.81964285714284,33.68846603578112L206.82767857142858,33.24314397239405L208.8357142857143,33.151391708895346L210.84375,33.27814095466272L212.8517857142857,32.93650064691266L214.85982142857142,33.29090945839502L216.86785714285716,32.906936718789495L218.87589285714287,32.131978015239696L220.88392857142856,32.11785811529202L222.89196428571427,31.72616551109786L224.9,31.728141535676315L226.90803571428572,31.572011119488963L228.91607142857143,31.49107332720706L230.92410714285714,30.82776768174378L232.93214285714288,30.193259080188625L234.9401785714286,29.657018584534313L236.9482142857143,29.441999466732028L238.95624999999998,29.19423251763874L240.9642857142857,29.596507037302217L242.97232142857143,29.452679599781533L244.98035714285714,30.967663607647836L246.98839285714286,30.090106940135854L248.99642857142857,29.865263155804854L251.0044642857143,29.114511579361135L253.01250000000002,29.94277010472061L255.0205357142857,29.078616151319125L257.0285714285714,28.742157569553655L259.0366071428571,28.742115856759938" fill="none"></path></g><g><path style="fill: none;" stroke="rgb(204, 51, 17)" stroke-width="2px" d="M22.088392857142857,185.37559000076726L24.09642857142857,169.5289187160397L26.104464285714286,153.54632469903348L28.1125,139.89350986629495L30.12053571428571,130.98387942398776L32.128571428571426,122.42534911991366L34.136607142857144,117.65648922597401L36.144642857142856,113.43712974410228L38.15267857142857,108.94909497240968L40.160714285714285,107.21264502317321L42.168749999999996,103.95438285019789L44.176785714285714,100.78918942195672L46.184821428571425,96.56873434891894L48.19285714285714,93.51557154695618L50.20089285714286,90.74880620852102L52.20892857142857,88.31885912545252L54.21696428571429,86.53613347263924L56.225,85.7009169843896L58.23303571428572,84.23939572629347L60.24107142857142,82.52057917212291L62.24910714285714,82.48194798242406L64.25714285714285,82.05816277924617L66.26517857142856,81.07119743202394L68.27321428571429,81.19243586418901L70.28125,81.68163974016888L72.28928571428571,81.45531429855923L74.29732142857144,79.338980999954L76.30535714285713,79.53698484343559L78.31339285714286,78.57957859103102L80.32142857142857,76.70946632040551L82.3294642857143,75.13339574195395L84.33749999999999,77.195031541469L86.34553571428572,74.9336867556691L88.35357142857143,74.06449391376431L90.36160714285715,73.67148512956565L92.36964285714285,73.1204648317989L94.37767857142856,73.72512094727246L96.38571428571429,72.21317007924432L98.39375,71.80655538667216L100.40178571428572,71.13104332335638L102.40982142857142,74.09555527955105L104.41785714285714,71.88489876874671L106.42589285714286,70.15739244118733L108.43392857142858,69.46833639410663L110.44196428571428,68.43903626125612L112.45,69.43260467687428L114.45803571428571,67.95407564701053L116.46607142857144,68.80077337481575L118.47410714285715,66.91763497855037L120.48214285714285,67.46258152442402L122.49017857142857,67.12902775003501L124.49821428571428,66.60313407219999L126.50625000000001,66.228622902818L128.5142857142857,65.72838526033577L130.52232142857144,64.52340521272649L132.53035714285713,65.77855868943293L134.53839285714287,65.19234463606921L136.54642857142858,66.74605654666378L138.5544642857143,63.92981217031648L140.5625,68.0700543472915L142.5705357142857,69.39047228059178L144.57857142857142,67.53797578799573L146.58660714285716,65.43411073193163L148.59464285714287,64.9946747370747L150.60267857142856,63.419996751923065L152.61071428571427,62.947721019657706L154.61875,63.527961445575784L156.62678571428572,60.92857649600553L158.63482142857143,61.593543866953496L160.64285714285714,60.50671348906684L162.65089285714288,60.08281996156799L164.6589285714286,60.097665755970894L166.6669642857143,58.92354438470224L168.67499999999998,61.229009929583455L170.6830357142857,59.2332168036169L172.69107142857143,60.33543589176779L174.69910714285714,58.8697257179367L176.70714285714286,59.89547497169511L178.71517857142857,58.53013317312352L180.7232142857143,58.09884428453029L182.73125000000002,56.310368109138835L184.7392857142857,55.24336644929922L186.7473214285714,55.51066336045278L188.75535714285712,56.86015440045068L190.76339285714286,58.695826825980916L192.77142857142857,57.622862412957616L194.77946428571428,58.280836293319325L196.7875,56.960841966327706L198.79553571428573,55.56781800063352L200.80357142857144,54.93191856930048L202.81160714285713,54.12834330857929L204.81964285714284,54.174534958369335L206.82767857142858,55.360147660906165L208.8357142857143,55.08626030739251L210.84375,53.96445390105163L212.8517857142857,54.38343500693091L214.85982142857142,54.944474022683195L216.86785714285716,55.149675691967715L218.87589285714287,55.26910810852526L220.88392857142856,55.381744770128904L222.89196428571427,54.05712971041757L224.9,54.226183698774335L226.90803571428572,54.02089116905684L228.91607142857143,53.594159943779104L230.92410714285714,54.43018615829632L232.93214285714288,55.43896112755051L234.9401785714286,55.24645300680464L236.9482142857143,54.69229270111211L238.95624999999998,53.2521186780002L240.9642857142857,52.26268716874371L242.97232142857143,51.043654112727324L244.98035714285714,51.59521530137857L246.98839285714286,52.60836005250451L248.99642857142857,52.89708890510255L251.0044642857143,52.88207058902175L253.01250000000002,52.61048110359519L255.0205357142857,51.768742974861624L257.0285714285714,51.33537312020461L259.0366071428571,50.92807279143989" fill="none"></path></g><g><path style="fill: none;" stroke="rgb(0, 119, 187)" stroke-width="2px" d="M26.104464285714286,192.28765786871116L28.1125,170.91255557959082L30.12053571428571,155.05145830380823L32.128571428571426,143.28496258178274L34.136607142857144,133.35228641768546L36.144642857142856,125.76023051651677L38.15267857142857,118.74768865882803L40.160714285714285,113.00855321556548L42.168749999999996,107.4399358654264L44.176785714285714,103.13568698673947L46.184821428571425,99.24975364518653L48.19285714285714,95.7457415026335L50.20089285714286,92.54857004488346L52.20892857142857,89.54188105423984L54.21696428571429,87.15609041512562L56.225,85.25071665492624L58.23303571428572,82.9786170307639L60.24107142857142,80.7246505989135L62.24910714285714,78.48651095329306L64.25714285714285,76.81541235826616L66.26517857142856,74.88495092776407L68.27321428571429,73.40481816812098L70.28125,72.33030835358042L72.28928571428571,71.10261582028413L74.29732142857144,69.63487646861927L76.30535714285713,67.78034063834058L78.31339285714286,66.43428472568291L80.32142857142857,64.88822410935086L82.3294642857143,64.019806623986L84.33749999999999,63.13370283647086L86.34553571428572,62.0079663992595L88.35357142857143,61.39678861308987L90.36160714285715,60.33064990685267L92.36964285714285,59.04671503596184L94.37767857142856,58.256395481715074L96.38571428571429,57.074419402232124L98.39375,56.46239829318391L100.40178571428572,55.763912536055884L102.40982142857142,54.90782975169114L104.41785714285714,54.301795865864946L106.42589285714286,53.763179733970674L108.43392857142858,52.936062427110784L110.44196428571428,52.056571378800385L112.45,51.67418368073206L114.45803571428571,50.899709629283734L116.46607142857144,49.77827687657833L118.47410714285715,49.628009166027596L120.48214285714285,48.564210487572495L122.49017857142857,48.25282682760306L124.49821428571428,47.556357135637285L126.50625000000001,46.821776379056246L128.5142857142857,46.573332516756494L130.52232142857144,45.674667289275675L132.53035714285713,44.72390474050101L134.53839285714287,43.90240084331538L136.54642857142858,43.62943568610433L138.5544642857143,43.46679072567545L140.5625,42.816700351729764L142.5705357142857,42.32604739069626L144.57857142857142,42.10225809905489L146.58660714285716,41.47541003346325L148.59464285714287,41.064545819803385L150.60267857142856,40.50112696194307L152.61071428571427,39.80510271145354L154.61875,39.348641425317254L156.62678571428572,38.66002142668256L158.63482142857143,38.742179757486184L160.64285714285714,38.4843152585658L162.65089285714288,38.07038866698193L164.6589285714286,37.52804824673052L166.6669642857143,36.91753121219827L168.67499999999998,36.393904960544404L170.6830357142857,35.89903094143662L172.69107142857143,35.767329700043746L174.69910714285714,35.57415360868029L176.70714285714286,35.11862254871457L178.71517857142857,34.8546101703258L180.7232142857143,34.883737612941104L182.73125000000002,33.859029821561705L184.7392857142857,33.383820209358305L186.7473214285714,32.79540371914456L188.75535714285712,32.5828698351294L190.76339285714286,32.308929638709714L192.77142857142857,31.73460261528706L194.77946428571428,31.795411572448984L196.7875,31.416030185277805L198.79553571428573,31.217920632462494L200.80357142857144,30.848443107523508L202.81160714285713,30.378158681932405L204.81964285714284,30.130065040420504L206.82767857142858,29.957339046750064L208.8357142857143,29.940904568085728L210.84375,29.250446949049604L212.8517857142857,28.7842248053594L214.85982142857142,28.604602684229206L216.86785714285716,28.032141895569566L218.87589285714287,28.059113831022245L220.88392857142856,27.67532930415797L222.89196428571427,27.59485965697874L224.9,27.27825450772886L226.90803571428572,27.01794331837351L228.91607142857143,26.68991942018212L230.92410714285714,26.762530777960706L232.93214285714288,26.429957315726398L234.9401785714286,26.44200870567758L236.9482142857143,26.462372174220974L238.95624999999998,26.29820593579575L240.9642857142857,25.803829866142365L242.97232142857143,25.67587219364424L244.98035714285714,25.387957896289095L246.98839285714286,25.083798177091438L248.99642857142857,24.989807187123972L251.0044642857143,24.824906717339985L253.01250000000002,24.78929774424421L255.0205357142857,25.25262091062058L257.0285714285714,24.41280396134613L259.0366071428571,23.93025034819368" fill="none"></path></g><g><path style="fill: none;" stroke="rgb(255, 112, 67)" stroke-width="2px" d="M24.09642857142857,178.18406409819193L26.104464285714286,163.4151712431091L28.1125,151.69515981315567L30.12053571428571,139.51411218779478L32.128571428571426,129.61853818732754L34.136607142857144,124.05541856818614L36.144642857142856,118.19894589384973L38.15267857142857,110.96670847947944L40.160714285714285,107.29317028250891L42.168749999999996,107.42429596976585L44.176785714285714,103.90272308493849L46.184821428571425,99.39437852268668L48.19285714285714,97.37072705942978L50.20089285714286,93.01095465429914L52.20892857142857,92.37752465294984L54.21696428571429,92.26939464545812L56.225,88.90326150429686L58.23303571428572,87.81001618039244L60.24107142857142,85.78938356988726L62.24910714285714,83.76339188555217L64.25714285714285,85.45490826299579L66.26517857142856,84.4704915949364L68.27321428571429,82.16479606371936L70.28125,82.29651421651583L72.28928571428571,80.298222913555L74.29732142857144,78.89487202722192L76.30535714285713,78.12212903530839L78.31339285714286,77.18570847324759L80.32142857142857,78.99281850928199L82.3294642857143,78.02753467107719L84.33749999999999,76.41896296617628L86.34553571428572,73.84824672621576L88.35357142857143,72.58451719030641L90.36160714285715,73.25576518073812L92.36964285714285,73.27403197747677L94.37767857142856,72.93437508963413L96.38571428571429,72.44922035603389L98.39375,72.81179141905143L100.40178571428572,72.03430645030959L102.40982142857142,70.22851992881408L104.41785714285714,70.6096812516723L106.42589285714286,70.03718134242204L108.43392857142858,70.61043256476768L110.44196428571428,70.49138108389971L112.45,70.76182266957512L114.45803571428571,69.27145314369405L116.46607142857144,68.72150996213443L118.47410714285715,67.12416532156234L120.48214285714285,66.28157798676457L122.49017857142857,66.14832888642668L124.49821428571428,65.24232717215688L126.50625000000001,65.78444206333023L128.5142857142857,65.35849038245269L130.52232142857144,64.86837624412449L132.53035714285713,63.65729160883505L134.53839285714287,64.71761187518234L136.54642857142858,65.26285073614628L138.5544642857143,63.656518344135606L140.5625,63.555805404477766L142.5705357142857,65.75830334748683L144.57857142857142,64.56064694066114L146.58660714285716,63.469993581819594L148.59464285714287,64.17977385659404L150.60267857142856,63.256563251663025L152.61071428571427,64.2487157764726L154.61875,62.58477016956765L156.62678571428572,62.19986325026997L158.63482142857143,61.01434933518729L160.64285714285714,60.769223015012514L162.65089285714288,63.34756637357306L164.6589285714286,62.98569784625694L166.6669642857143,62.73128810321141L168.67499999999998,63.10723344878015L170.6830357142857,63.29233221479896L172.69107142857143,62.50197761274809L174.69910714285714,62.44739439367467L176.70714285714286,62.33929345401653L178.71517857142857,60.28437767933325L180.7232142857143,60.8317958469198L182.73125000000002,59.87726572521068L184.7392857142857,59.56447630240788L186.7473214285714,59.38580152423246L188.75535714285712,58.79440627805775L190.76339285714286,58.15085255801608L192.77142857142857,58.51911015685603L194.77946428571428,58.88416331746403L196.7875,59.84147398371681L198.79553571428573,57.92790979209802L200.80357142857144,58.5762499705002L202.81160714285713,57.754200463036895L204.81964285714284,58.137264084355635L206.82767857142858,57.453000934965345L208.8357142857143,56.9673570216727L210.84375,58.13134004841193L212.8517857142857,60.381638412445454L214.85982142857142,57.92359719057808L216.86785714285716,58.486143310583685L218.87589285714287,57.281026294658815L220.88392857142856,56.429449175048006L222.89196428571427,58.347213547414896L224.9,56.82535453683815L226.90803571428572,57.101097638624495L228.91607142857143,56.869363449084815L230.92410714285714,57.1838175037164L232.93214285714288,57.16015251244808L234.9401785714286,56.231852195505525L236.9482142857143,58.48831902535659L238.95624999999998,58.236636502470986L240.9642857142857,58.43573518290455L242.97232142857143,58.03585646044809L244.98035714285714,57.746207524972306L246.98839285714286,58.558192508451455L248.99642857142857,57.32082161353961L251.0044642857143,56.60694321291557L253.01250000000002,56.53849699711449L255.0205357142857,56.249944292139375L257.0285714285714,55.78593382284423L259.0366071428571,57.81992056489965" fill="none"></path></g></g></g></g><g opacity="0.20000000298023224"><g><g><g><path style="fill: none;" stroke="rgb(51, 187, 238)" stroke-width="2px" d="M22.088392857142857,203.43073666794226L24.09642857142857,170.39998784428462L26.104464285714286,153.02749438909814L28.1125,140.78398899408057L30.12053571428571,130.6952055124566L32.128571428571426,123.39180718641728L34.136607142857144,117.63374579139054L36.144642857142856,112.73094854783265L38.15267857142857,108.10566962929441L40.160714285714285,104.95418181177227L42.168749999999996,100.64118719194083L44.176785714285714,97.89711312856524L46.184821428571425,93.48239093786104L48.19285714285714,90.95865153241901L50.20089285714286,89.15847895434125L52.20892857142857,88.3169939997606L54.21696428571429,84.90881564328447L56.225,82.85725221736357L58.23303571428572,81.52480387827381L60.24107142857142,79.68660601647571L62.24910714285714,78.75921306898817L64.25714285714285,75.22699544206262L66.26517857142856,75.13448933372274L68.27321428571429,74.20198218431324L70.28125,73.18165915319696L72.28928571428571,70.1906724809669L74.29732142857144,69.3281212542206L76.30535714285713,68.1500529171899L78.31339285714286,68.24353946838528L80.32142857142857,65.75957424473017L82.3294642857143,65.07297276286408L84.33749999999999,64.20067010447383L86.34553571428572,63.13304733019322L88.35357142857143,62.031559529714286L90.36160714285715,60.88460037950426L92.36964285714285,60.06171734072268L94.37767857142856,59.19225001707673L96.38571428571429,58.64908467512578L98.39375,57.554406977724284L100.40178571428572,57.24177819909528L102.40982142857142,55.62720080371946L104.41785714285714,54.65433650650084L106.42589285714286,54.714646991342306L108.43392857142858,53.058493519201875L110.44196428571428,54.08859448041767L112.45,53.41317534679547L114.45803571428571,50.99675468634814L116.46607142857144,50.14202050399035L118.47410714285715,50.256652822718024L120.48214285714285,48.74989764299244L122.49017857142857,47.91172499535605L124.49821428571428,48.75776768429205L126.50625000000001,47.94060831191018L128.5142857142857,47.604634393937886L130.52232142857144,46.73810839885846L132.53035714285713,46.33965112268925L134.53839285714287,45.8402082324028L136.54642857142858,44.97535164002329L138.5544642857143,44.023606611881405L140.5625,90.05627312697469L142.5705357142857,57.79164765030146L144.57857142857142,50.056377495639026L146.58660714285716,48.13015176448971L148.59464285714287,46.24825794948265L150.60267857142856,47.58484004763886L152.61071428571427,44.22563083702698L154.61875,43.556518335826695L156.62678571428572,45.06449244450778L158.63482142857143,43.2841937080957L160.64285714285714,42.73363529704511L162.65089285714288,42.14179229224101L164.6589285714286,40.575919058173895L166.6669642857143,42.31882847379893L168.67499999999998,41.26156659564003L170.6830357142857,38.86032955022529L172.69107142857143,42.12703265249729L174.69910714285714,41.39087905874476L176.70714285714286,42.29548333445564L178.71517857142857,40.90283050434664L180.7232142857143,38.23947073658928L182.73125000000002,36.863776918035L184.7392857142857,34.833730238024145L186.7473214285714,35.115196832921356L188.75535714285712,34.48816387914121L190.76339285714286,36.33939898107201L192.77142857142857,37.30582415359095L194.77946428571428,35.99600549554452L196.7875,35.31221284996718L198.79553571428573,34.98644083738327L200.80357142857144,33.810571872163564L202.81160714285713,32.922396638896316L204.81964285714284,33.10966122429818L206.82767857142858,32.575160877313465L208.8357142857143,33.01376331364736L210.84375,33.4682648233138L212.8517857142857,32.424040185287595L214.85982142857142,33.82252267561853L216.86785714285716,32.33097760938108L218.87589285714287,30.969539959914982L220.88392857142856,32.09667826537043L222.89196428571427,31.138626604806632L224.9,31.73110557254404L226.90803571428572,31.337815495207906L228.91607142857143,31.36966663878411L230.92410714285714,29.8328092135489L232.93214285714288,29.24149617785588L234.9401785714286,28.85265784105286L236.9482142857143,29.119470790028572L238.95624999999998,28.82258209399879L240.9642857142857,30.199918816797435L242.97232142857143,29.23693844350055L244.98035714285714,33.24013961944729L246.98839285714286,28.773771938867867L248.99642857142857,29.527997479308397L251.0044642857143,27.988384214695543L253.01250000000002,31.18515789275989L255.0205357142857,27.782385221216828L257.0285714285714,28.237469696905464L259.0366071428571,28.742053287569433" fill="none"></path></g><g><path style="fill: none;" stroke="rgb(204, 51, 17)" stroke-width="2px" d="M20.080357142857142,213.25408512027934L22.088392857142857,168.64849292906L24.09642857142857,154.31611428270116L26.104464285714286,134.75079413503408L28.1125,122.06839482067153L30.12053571428571,118.6586530553177L32.128571428571426,110.18651384860276L34.136607142857144,110.703445719555L36.144642857142856,107.21439407672732L38.15267857142857,102.28488638997077L40.160714285714285,104.62371957255526L42.168749999999996,99.08472090959548L44.176785714285714,96.05173418531193L46.184821428571425,90.24632005020975L48.19285714285714,88.93941622227429L50.20089285714286,86.60060953814536L52.20892857142857,84.67496677301824L54.21696428571429,83.86249762726948L56.225,84.44821948884055L58.23303571428572,82.04724742798135L60.24107142857142,79.94244860485196L62.24910714285714,82.42400246905163L64.25714285714285,81.42249334137887L66.26517857142856,79.590761102736L68.27321428571429,81.37429265072569L70.28125,82.41544346790761L72.28928571428571,81.11582671524957L74.29732142857144,76.16448430111632L76.30535714285713,79.83399042626843L78.31339285714286,77.14346974156797L80.32142857142857,73.90429853461683L82.3294642857143,72.76929018786177L84.33749999999999,80.28748499462381L86.34553571428572,71.54166973894462L88.35357142857143,72.7607046882622L90.36160714285715,73.08197196340188L92.36964285714285,72.29393439367414L94.37767857142856,74.63210511486977L96.38571428571429,69.94524378562346L98.39375,71.19663334917277L100.40178571428572,70.11777522973716L102.40982142857142,78.54232321027666L104.41785714285714,68.56891400413588L106.42589285714286,67.56613295059651L108.43392857142858,68.43475232366472L110.44196428571428,66.89508606214076L112.45,70.92295730020851L114.45803571428571,65.73628210229799L116.46607142857144,70.07081996649504L118.47410714285715,64.09292738419026L120.48214285714285,68.28000134322792L122.49017857142857,66.62869708845392L124.49821428571428,65.8142935554497L126.50625000000001,65.66685614874586L128.5142857142857,64.97802879661322L130.52232142857144,62.71593514131382L132.53035714285713,67.66128890449181L134.53839285714287,64.31302355602384L136.54642857142858,69.07662441255525L138.5544642857143,59.70544560579583L140.5625,74.28041761275381L142.5705357142857,71.37109918054193L144.57857142857142,64.7592310491018L146.58660714285716,62.27831314783543L148.59464285714287,64.33552074478939L150.60267857142856,61.0579797741957L152.61071428571427,62.23930742125958L154.61875,64.39832208445296L156.62678571428572,57.02949907165021L158.63482142857143,62.59099492337555L160.64285714285714,58.87646792223677L162.65089285714288,59.446979670319706L164.6589285714286,60.11993444757536L166.6669642857143,57.1623623277992L168.67499999999998,64.68720824690536L170.6830357142857,56.239527114667L172.69107142857143,61.98876452399418L174.69910714285714,56.671160457190126L176.70714285714286,61.43409885233268L178.71517857142857,56.48212047526613L180.7232142857143,57.45191095164046L182.73125000000002,53.627653846051544L184.7392857142857,53.64286395953968L186.7473214285714,55.91160872718319L188.75535714285712,58.88439096044749L190.76339285714286,61.44933546427637L192.77142857142857,56.01341579342261L194.77946428571428,59.26779711386189L196.7875,54.98085047584027L198.79553571428573,53.478282052092254L200.80357142857144,53.978069422300905L202.81160714285713,52.922980417497456L204.81964285714284,54.24382243305445L206.82767857142858,57.13856671471149L208.8357142857143,54.67542927712202L210.84375,52.281744291540235L212.8517857142857,55.01190666574985L214.85982142857142,55.78603254631162L216.86785714285716,55.45747819589451L218.87589285714287,55.44825673336163L220.88392857142856,55.55069976253435L222.89196428571427,52.07020712085068L224.9,54.47976468130946L226.90803571428572,53.712952374480665L228.91607142857143,52.95406310586259L230.92410714285714,55.6842254800722L232.93214285714288,56.952123581431806L234.9401785714286,54.95769082568586L236.9482142857143,53.86105224257335L238.95624999999998,51.09185764333233L240.9642857142857,50.77853990485892L242.97232142857143,49.215104528702796L244.98035714285714,52.4225570843555L246.98839285714286,54.1280771791935L248.99642857142857,53.33018218399957L251.0044642857143,52.85954311490059L253.01250000000002,52.20309687545523L255.0205357142857,50.50613578176126L257.0285714285714,50.685318338219076L259.0366071428571,50.317122298292816" fill="none"></path></g><g><path style="fill: none;" stroke="rgb(0, 119, 187)" stroke-width="2px" d="M22.088392857142857,212.61942061129957L24.09642857142857,176.0381437279284L26.104464285714286,157.36974330386147L28.1125,143.00522203091532L30.12053571428571,133.1098507763818L32.128571428571426,126.45868543535471L34.136607142857144,118.87034921674058L36.144642857142856,114.56342274323106L38.15267857142857,108.33488126983865L40.160714285714285,104.45190358674152L42.168749999999996,99.1173140099272L44.176785714285714,96.69336778810246L46.184821428571425,93.42846658080815L48.19285714285714,90.49384212354197L50.20089285714286,87.75506775127724L52.20892857142857,85.03311989828944L54.21696428571429,83.57801020843908L56.225,82.39294627914205L58.23303571428572,79.57067527342588L60.24107142857142,77.34382456401363L62.24910714285714,75.12937513180077L64.25714285714285,74.3087974586524L66.26517857142856,71.98928165016696L68.27321428571429,71.1846295488067L70.28125,70.71854821406305L72.28928571428571,69.26108016166836L74.29732142857144,67.43326969444752L76.30535714285713,64.9985386012122L78.31339285714286,64.41520160064101L80.32142857142857,62.56913369754329L82.3294642857143,62.71718056872487L84.33749999999999,61.80454726098105L86.34553571428572,60.31936182407662L88.35357142857143,60.48002196010202L90.36160714285715,58.73144187498838L92.36964285714285,57.12081274949014L94.37767857142856,57.070916157681495L96.38571428571429,55.301455289591104L98.39375,55.544366631656885L100.40178571428572,54.71618390176445L102.40982142857142,53.62370557617396L104.41785714285714,53.392745037563145L106.42589285714286,52.95525553636253L108.43392857142858,51.69538646703586L110.44196428571428,50.73733480647206L112.45,51.100602133665234L114.45803571428571,49.73799855215475L116.46607142857144,48.09612774755806L118.47410714285715,49.40260760020465L120.48214285714285,46.968512469902635L122.49017857142857,47.78575133765116L124.49821428571428,46.511652597691864L126.50625000000001,45.71990524418652L128.5142857142857,46.20066672330722L130.52232142857144,44.32666944805533L132.53035714285713,43.297760917339474L134.53839285714287,42.670144997537136L136.54642857142858,43.21998795028776L138.5544642857143,43.222823285032064L140.5625,41.84156479081139L142.5705357142857,41.59006794914603L144.57857142857142,41.76657416159287L146.58660714285716,40.53513793507591L148.59464285714287,40.44824949931353L150.60267857142856,39.65599867515266L152.61071428571427,38.76106633571908L154.61875,38.663949496112764L156.62678571428572,37.62709142873064L158.63482142857143,38.8654172536917L160.64285714285714,38.09751851018518L162.65089285714288,37.449498779606074L164.6589285714286,36.71453761635348L166.6669642857143,36.001755660399795L168.67499999999998,35.60846558306366L170.6830357142857,35.15671991277486L172.69107142857143,35.56977783795446L174.69910714285714,35.28438947163522L176.70714285714286,34.43532595876604L178.71517857142857,34.45859160274267L180.7232142857143,34.92742877686396L182.73125000000002,32.321968134492636L184.7392857142857,32.671005791053176L186.7473214285714,31.912778983823955L188.75535714285712,32.264069009106606L190.76339285714286,31.89801934408024L192.77142857142857,30.873112080153078L194.77946428571428,31.886625008191913L196.7875,30.846958104521036L198.79553571428573,30.920756303239614L200.80357142857144,30.294226820115L202.81160714285713,29.672732043545693L204.81964285714284,29.757924578152597L206.82767857142858,29.698250056244433L208.8357142857143,29.916252850089222L210.84375,28.214760520495474L212.8517857142857,28.08489158982411L214.85982142857142,28.335169502533972L216.86785714285716,27.173450712580234L218.87589285714287,28.099571734201163L220.88392857142856,27.099652513861656L222.89196428571427,27.474155186209828L224.9,26.803346783854067L226.90803571428572,26.62747653434053L228.91607142857143,26.19788357289508L230.92410714285714,26.871447814628482L232.93214285714288,25.931097122374922L234.9401785714286,26.460085790604353L236.9482142857143,26.492917377036065L238.95624999999998,26.051956578157842L240.9642857142857,25.062265761662275L242.97232142857143,25.483935684897006L244.98035714285714,24.956086450256407L246.98839285714286,24.627558598294854L248.99642857142857,24.848820702172816L251.0044642857143,24.57755601266399L253.01250000000002,24.735884284600616L255.0205357142857,25.947605660185218L257.0285714285714,23.15307853743434L259.0366071428571,23.20641992846504" fill="none"></path></g><g><path style="fill: none;" stroke="rgb(255, 112, 67)" stroke-width="2px" d="M22.088392857142857,180.2560618892312L24.09642857142857,156.46656994475052L26.104464285714286,146.04695324553177L28.1125,136.3935128902085L30.12053571428571,122.66333814477548L32.128571428571426,115.46770903747529L34.136607142857144,115.94433675752953L36.144642857142856,109.56178626045583L38.15267857142857,100.2276787930168L40.160714285714285,101.81618170812725L42.168749999999996,107.62027092045172L44.176785714285714,98.6318623041734L46.184821428571425,92.64069399563594L48.19285714285714,94.33762859087436L50.20089285714286,86.47437089588493L52.20892857142857,91.42764769727363L54.21696428571429,92.10722708841784L56.225,83.85457458905876L58.23303571428572,86.17024812148884L60.24107142857142,82.758545470424L62.24910714285714,80.7244710251689L64.25714285714285,87.99214943312109L66.26517857142856,82.99387825420126L68.27321428571429,78.70626915479079L70.28125,82.49409088399261L72.28928571428571,77.30079107219353L74.29732142857144,76.78984785219654L76.30535714285713,76.96301525924355L78.31339285714286,75.78107814770192L80.32142857142857,81.7034829640761L82.3294642857143,76.57960910582915L84.33749999999999,74.00610560085624L86.34553571428572,69.99217255041003L88.35357142857143,70.6889229407534L90.36160714285715,74.26263714907691L92.36964285714285,73.30143217230216L94.37767857142856,72.42488976102322L96.38571428571429,71.72148825833574L98.39375,73.35564801236615L100.40178571428572,70.86807899875566L102.40982142857142,67.51984014874324L104.41785714285714,71.18142323568463L106.42589285714286,69.17843147879466L108.43392857142858,71.47030939813703L110.44196428571428,70.31280386261642L112.45,71.1674850480631L114.45803571428571,67.03589885495603L116.46607142857144,67.89659518981352L118.47410714285715,64.72814836073667L120.48214285714285,65.01769698457792L122.49017857142857,65.94845523592085L124.49821428571428,63.88332460075617L126.50625000000001,66.59761440008879L128.5142857142857,64.71956286113709L130.52232142857144,64.13320503663272L132.53035714285713,61.84066465590149L134.53839285714287,66.30809227470309L136.54642857142858,66.08070902759209L138.5544642857143,61.2470197561197L140.5625,63.404735994990915L142.5705357142857,69.06205026200041L144.57857142857142,62.76416233042255L146.58660714285716,61.834013543557376L148.59464285714287,65.24444426875561L150.60267857142856,61.87174734426662L152.61071428571427,65.73694456368685L154.61875,60.08885175921023L156.62678571428572,61.62250287132338L158.63482142857143,59.236078462563455L160.64285714285714,60.40153353475034L162.65089285714288,67.21508141141385L164.6589285714286,62.44289505528286L166.6669642857143,62.34967348864302L168.67499999999998,63.67115146713331L170.6830357142857,63.5699803638272L172.69107142857143,61.316445709671825L174.69910714285714,62.36551956506446L176.70714285714286,62.17714204452932L178.71517857142857,57.202004017308354L180.7232142857143,61.65292309829965L182.73125000000002,58.445470542646945L184.7392857142857,59.09529216820374L186.7473214285714,59.1177893569693L188.75535714285712,57.907313408795744L190.76339285714286,57.18552197795361L192.77142857142857,59.07149655511603L194.77946428571428,59.431743058376014L196.7875,61.277439983095974L198.79553571428573,55.057563504669815L200.80357142857144,59.54876023810357L202.81160714285713,56.52112620184198L204.81964285714284,58.71185951633379L206.82767857142858,56.42660621087998L208.8357142857143,56.2388911517337L210.84375,59.877314588520676L212.8517857142857,63.757085958495736L214.85982142857142,54.23653535777703L216.86785714285716,59.32996249059215L218.87589285714287,55.4733507707715L220.88392857142856,55.152083495631814L222.89196428571427,61.22386010596529L224.9,54.54256602097303L226.90803571428572,57.51471229130402L228.91607142857143,56.52176216477528L230.92410714285714,57.655498585663736L232.93214285714288,57.12465502554551L234.9401785714286,54.8394017200917L236.9482142857143,61.87301927013323L238.95624999999998,57.85911271814257L240.9642857142857,58.7343832035549L242.97232142857143,57.43603837676346L244.98035714285714,57.31173412175849L246.98839285714286,59.776169983670115L248.99642857142857,55.46476527117193L251.0044642857143,55.536125611979514L253.01250000000002,56.43582767341286L255.0205357142857,55.81711523467675L257.0285714285714,55.08991811890155L259.0366071428571,60.87090067798272" fill="none"></path></g></g></g></g></g></g><g transform="translate(48, 177)" clip-path="url(#clip_1)"><clipPath id="clip_1"><rect width="281" height="22"></rect></clipPath><g><g><line x1="0" y1="0" x2="0" y2="5" style="visibility: inherit;" fill="rgb(0, 0, 0)" stroke="rgb(204, 204, 204)" stroke-width="1px"></line><line x1="20.080357142857142" y1="0" x2="20.080357142857142" y2="5" style="visibility: inherit;" fill="rgb(0, 0, 0)" stroke="rgb(204, 204, 204)" stroke-width="1px"></line><line x1="40.160714285714285" y1="0" x2="40.160714285714285" y2="5" style="visibility: inherit;" fill="rgb(0, 0, 0)" stroke="rgb(204, 204, 204)" stroke-width="1px"></line><line x1="60.24107142857142" y1="0" x2="60.24107142857142" y2="5" style="visibility: inherit;" fill="rgb(0, 0, 0)" stroke="rgb(204, 204, 204)" stroke-width="1px"></line><line x1="80.32142857142857" y1="0" x2="80.32142857142857" y2="5" style="visibility: inherit;" fill="rgb(0, 0, 0)" stroke="rgb(204, 204, 204)" stroke-width="1px"></line><line x1="100.40178571428572" y1="0" x2="100.40178571428572" y2="5" style="visibility: inherit;" fill="rgb(0, 0, 0)" stroke="rgb(204, 204, 204)" stroke-width="1px"></line><line x1="120.48214285714285" y1="0" x2="120.48214285714285" y2="5" style="visibility: inherit;" fill="rgb(0, 0, 0)" stroke="rgb(204, 204, 204)" stroke-width="1px"></line><line x1="140.5625" y1="0" x2="140.5625" y2="5" style="visibility: inherit;" fill="rgb(0, 0, 0)" stroke="rgb(204, 204, 204)" stroke-width="1px"></line><line x1="160.64285714285714" y1="0" x2="160.64285714285714" y2="5" style="visibility: inherit;" fill="rgb(0, 0, 0)" stroke="rgb(204, 204, 204)" stroke-width="1px"></line><line x1="180.7232142857143" y1="0" x2="180.7232142857143" y2="5" style="visibility: inherit;" fill="rgb(0, 0, 0)" stroke="rgb(204, 204, 204)" stroke-width="1px"></line><line x1="200.80357142857144" y1="0" x2="200.80357142857144" y2="5" style="visibility: inherit;" fill="rgb(0, 0, 0)" stroke="rgb(204, 204, 204)" stroke-width="1px"></line><line x1="220.88392857142856" y1="0" x2="220.88392857142856" y2="5" style="visibility: inherit;" fill="rgb(0, 0, 0)" stroke="rgb(204, 204, 204)" stroke-width="1px"></line><line x1="240.9642857142857" y1="0" x2="240.9642857142857" y2="5" style="visibility: inherit;" fill="rgb(0, 0, 0)" stroke="rgb(204, 204, 204)" stroke-width="1px"></line><line x1="261.0446428571429" y1="0" x2="261.0446428571429" y2="5" style="visibility: inherit;" fill="rgb(0, 0, 0)" stroke="rgb(204, 204, 204)" stroke-width="1px"></line><line x1="281.125" y1="0" x2="281.125" y2="5" style="visibility: inherit;" fill="rgb(0, 0, 0)" stroke="rgb(204, 204, 204)" stroke-width="1px"></line></g><g transform="translate(0, 8)"><text style="text-anchor: middle; visibility: hidden; font-family: &quot;Helvetica Neue&quot;, sans-serif; font-size: 12px; font-weight: 200;" x="0" y="0" dx="0em" dy="0.95em" fill="rgb(50, 49, 63)" stroke="none" stroke-width="1px">-10</text><text style="text-anchor: middle; visibility: inherit; font-family: &quot;Helvetica Neue&quot;, sans-serif; font-size: 12px; font-weight: 200;" x="20.080357142857142" y="0" dx="0em" dy="0.95em" fill="rgb(50, 49, 63)" stroke="none" stroke-width="1px">0</text><text style="text-anchor: middle; visibility: hidden; font-family: &quot;Helvetica Neue&quot;, sans-serif; font-size: 12px; font-weight: 200;" x="40.160714285714285" y="0" dx="0em" dy="0.95em" fill="rgb(50, 49, 63)" stroke="none" stroke-width="1px">10</text><text style="text-anchor: middle; visibility: inherit; font-family: &quot;Helvetica Neue&quot;, sans-serif; font-size: 12px; font-weight: 200;" x="60.24107142857142" y="0" dx="0em" dy="0.95em" fill="rgb(50, 49, 63)" stroke="none" stroke-width="1px">20</text><text style="text-anchor: middle; visibility: hidden; font-family: &quot;Helvetica Neue&quot;, sans-serif; font-size: 12px; font-weight: 200;" x="80.32142857142857" y="0" dx="0em" dy="0.95em" fill="rgb(50, 49, 63)" stroke="none" stroke-width="1px">30</text><text style="text-anchor: middle; visibility: inherit; font-family: &quot;Helvetica Neue&quot;, sans-serif; font-size: 12px; font-weight: 200;" x="100.40178571428572" y="0" dx="0em" dy="0.95em" fill="rgb(50, 49, 63)" stroke="none" stroke-width="1px">40</text><text style="text-anchor: middle; visibility: hidden; font-family: &quot;Helvetica Neue&quot;, sans-serif; font-size: 12px; font-weight: 200;" x="120.48214285714285" y="0" dx="0em" dy="0.95em" fill="rgb(50, 49, 63)" stroke="none" stroke-width="1px">50</text><text style="text-anchor: middle; visibility: inherit; font-family: &quot;Helvetica Neue&quot;, sans-serif; font-size: 12px; font-weight: 200;" x="140.5625" y="0" dx="0em" dy="0.95em" fill="rgb(50, 49, 63)" stroke="none" stroke-width="1px">60</text><text style="text-anchor: middle; visibility: hidden; font-family: &quot;Helvetica Neue&quot;, sans-serif; font-size: 12px; font-weight: 200;" x="160.64285714285714" y="0" dx="0em" dy="0.95em" fill="rgb(50, 49, 63)" stroke="none" stroke-width="1px">70</text><text style="text-anchor: middle; visibility: inherit; font-family: &quot;Helvetica Neue&quot;, sans-serif; font-size: 12px; font-weight: 200;" x="180.7232142857143" y="0" dx="0em" dy="0.95em" fill="rgb(50, 49, 63)" stroke="none" stroke-width="1px">80</text><text style="text-anchor: middle; visibility: hidden; font-family: &quot;Helvetica Neue&quot;, sans-serif; font-size: 12px; font-weight: 200;" x="200.80357142857144" y="0" dx="0em" dy="0.95em" fill="rgb(50, 49, 63)" stroke="none" stroke-width="1px">90</text><text style="text-anchor: middle; visibility: inherit; font-family: &quot;Helvetica Neue&quot;, sans-serif; font-size: 12px; font-weight: 200;" x="220.88392857142856" y="0" dx="0em" dy="0.95em" fill="rgb(50, 49, 63)" stroke="none" stroke-width="1px">100</text><text style="text-anchor: middle; visibility: hidden; font-family: &quot;Helvetica Neue&quot;, sans-serif; font-size: 12px; font-weight: 200;" x="240.9642857142857" y="0" dx="0em" dy="0.95em" fill="rgb(50, 49, 63)" stroke="none" stroke-width="1px">110</text><text style="text-anchor: middle; visibility: inherit; font-family: &quot;Helvetica Neue&quot;, sans-serif; font-size: 12px; font-weight: 200;" x="261.0446428571429" y="0" dx="0em" dy="0.95em" fill="rgb(50, 49, 63)" stroke="none" stroke-width="1px">120</text><text style="text-anchor: middle; visibility: hidden; font-family: &quot;Helvetica Neue&quot;, sans-serif; font-size: 12px; font-weight: 200;" x="281.125" y="0" dx="0em" dy="0.95em" fill="rgb(50, 49, 63)" stroke="none" stroke-width="1px">130</text></g><line x1="0" y1="0" x2="281.125" y2="0" fill="rgb(0, 0, 0)" stroke="rgb(204, 204, 204)" stroke-width="1px"></line></g></g></g></g></svg>