<svg xmlns="http://www.w3.org/2000/svg" viewBox="0 0 1005.52 957.21"><defs><style>.cls-1{fill:#777;opacity:0.1;}.cls-2{fill:#f2e13c;}.cls-10,.cls-11,.cls-12,.cls-13,.cls-14,.cls-15,.cls-16,.cls-17,.cls-18,.cls-19,.cls-2,.cls-3,.cls-5,.cls-6,.cls-7,.cls-8,.cls-9{stroke:#1d1d1b;stroke-miterlimit:10;}.cls-10,.cls-12,.cls-14,.cls-2,.cls-5,.cls-6,.cls-7,.cls-8,.cls-9{stroke-width:2px;}.cls-13,.cls-15,.cls-16,.cls-17,.cls-18,.cls-19,.cls-3{fill:none;}.cls-11,.cls-13,.cls-3{stroke-width:1.5px;}.cls-4{fill:#1d1d1b;}.cls-5{fill:#f28f63;}.cls-6{fill:#cd3d49;}.cls-7{fill:#187aba;}.cls-8{fill:#59bfc6;}.cls-9{fill:#9d63a6;}.cls-10{fill:#bde2e9;}.cls-11,.cls-20{fill:#fff;}.cls-12{fill:#f8f2ab;}.cls-13{stroke-dasharray:4.98 4.98;}.cls-14{fill:#c8e3ce;}.cls-15{stroke-dasharray:5.02 5.02;}.cls-16{stroke-dasharray:5 5;}.cls-17{stroke-dasharray:4.98 4.98;}.cls-18{stroke-dasharray:5.02 5.02;}.cls-19{stroke-dasharray:4.99 4.99;}</style></defs><title>graph</title><g id="Layer_1" data-name="Layer 1"><rect class="cls-1" x="486.51" y="569.55" width="261.93" height="343.42" rx="37.17"/><rect class="cls-1" x="777.88" y="161.06" width="227.14" height="472.1" rx="37.17"/><rect class="cls-1" x="486.51" y="161.06" width="261.93" height="392.51" rx="37.17"/><rect class="cls-1" x="37.31" y="0.5" width="321.37" height="282.94" rx="37.17"/><rect class="cls-1" x="37.31" y="381.14" width="321.37" height="575.57" rx="37.17"/><circle class="cls-2" cx="195.06" cy="95.43" r="23.17"/><line class="cls-3" x1="171.89" y1="95.43" x2="138.75" y2="95.43"/><path class="cls-4" d="M207.83,159.15c4.26-1.58,9.54-4.27,12.82-7.13l-2.58,7.13,2.58,7.14A45.29,45.29,0,0,0,207.83,159.15Z" transform="translate(-78.14 -63.72)"/><circle class="cls-5" cx="195.06" cy="168.77" r="23.17"/><line class="cls-3" x1="218.24" y1="168.77" x2="246.52" y2="168.56"/><path class="cls-4" d="M333.71,232.22a45.33,45.33,0,0,0-12.77,7.22l2.53-7.15-2.63-7.11A45.45,45.45,0,0,0,333.71,232.22Z" transform="translate(-78.14 -63.72)"/><line class="cls-3" x1="195.06" y1="265.27" x2="195.06" y2="383.25"/><path class="cls-4" d="M273.2,456c-1.58-4.26-4.28-9.55-7.14-12.82l7.14,2.58,7.13-2.58C277.47,446.47,274.78,451.76,273.2,456Z" transform="translate(-78.14 -63.72)"/><circle class="cls-6" cx="195.06" cy="415.47" r="23.17"/><line class="cls-3" x1="195.06" y1="438.65" x2="195.57" y2="500.87"/><path class="cls-4" d="M273.78,573.64c-1.61-4.25-4.35-9.51-7.24-12.76l7.16,2.52,7.11-2.64C278,564.06,275.33,569.36,273.78,573.64Z" transform="translate(-78.14 -63.72)"/><circle class="cls-7" cx="195.65" cy="533.09" r="23.17"/><line class="cls-3" x1="195.65" y1="556.27" x2="196.65" y2="610.39"/><path class="cls-4" d="M275,683.16a45,45,0,0,0-7.37-12.69l7.18,2.45,7.09-2.71C279.05,673.53,276.45,678.87,275,683.16Z" transform="translate(-78.14 -63.72)"/><path class="cls-3" d="M290.17,613.19c16.31,16.32,37.22.73,37.22-16.38,0-16.43-15.22-28.71-29.88-21.69" transform="translate(-78.14 -63.72)"/><path class="cls-4" d="M290.17,580.43c2.59-3.74,5.38-9,6.43-13.19l2,7.33,6.2,4.36A45.35,45.35,0,0,0,290.17,580.43Z" transform="translate(-78.14 -63.72)"/><path class="cls-3" d="M327.39,596.81c.4-30.32,2.86-102.16-22.22-115.47" transform="translate(-78.14 -63.72)"/><path class="cls-4" d="M296.37,479.19a45.63,45.63,0,0,0,14.24-3.55l-4.35,6.22.63,7.55A45.25,45.25,0,0,0,296.37,479.19Z" transform="translate(-78.14 -63.72)"/><circle class="cls-8" cx="301.92" cy="342.14" r="23.17"/><path class="cls-3" d="M273.2,355.84c59.41,0,96.8-.38,105.1,18" transform="translate(-78.14 -63.72)"/><path class="cls-4" d="M380.06,382.69c-2.47-3.82-6.25-8.39-9.76-11l7.53,1,6.4-4.07C382.15,372.44,380.67,378.18,380.06,382.69Z" transform="translate(-78.14 -63.72)"/><circle class="cls-8" cx="390.47" cy="342.21" r="23.17"/><path class="cls-3" d="M273.2,355.84c60.38,0,168.36-.34,191.12,18.94" transform="translate(-78.14 -63.72)"/><path class="cls-4" d="M468.61,382.75c-3.52-2.87-8.52-6.07-12.64-7.46l7.46-1.37,4.86-5.83A45.22,45.22,0,0,0,468.61,382.75Z" transform="translate(-78.14 -63.72)"/><circle class="cls-7" cx="197.99" cy="642.71" r="23.17"/><path class="cls-3" d="M291.35,723c16.3,16.32,37.22.72,37.22-16.38,0-16.43-15.23-28.72-29.89-21.7" transform="translate(-78.14 -63.72)"/><path class="cls-4" d="M291.35,690.27c2.58-3.74,5.37-9,6.42-13.19l2,7.32,6.2,4.37A45.27,45.27,0,0,0,291.35,690.27Z" transform="translate(-78.14 -63.72)"/><path class="cls-3" d="M380.06,429c0,32.51-32.75,104.28-65.5,61.7" transform="translate(-78.14 -63.72)"/><circle class="cls-9" cx="88.2" cy="417.53" r="23.17"/><line class="cls-3" x1="195.06" y1="45.28" x2="195.06" y2="63.21"/><path class="cls-4" d="M273.2,136c-1.58-4.26-4.28-9.55-7.14-12.82l7.14,2.58,7.13-2.58C277.47,126.43,274.78,131.72,273.2,136Z" transform="translate(-78.14 -63.72)"/><line class="cls-3" x1="88.2" y1="367.38" x2="88.2" y2="385.31"/><path class="cls-4" d="M166.33,458.08c-1.58-4.26-4.27-9.55-7.13-12.82l7.13,2.58,7.14-2.58C170.61,448.53,167.91,453.82,166.33,458.08Z" transform="translate(-78.14 -63.72)"/><path class="cls-3" d="M166.33,504.43c0,24.55,54,33.57,106.87,33.57" transform="translate(-78.14 -63.72)"/><path class="cls-3" d="M394.71,592.35C413.29,556,405.08,545,380.06,524.19,365.18,511.82,366,485.71,375.2,456" transform="translate(-78.14 -63.72)"/><path class="cls-3" d="M468.61,429.1c0,44.63-51,132.88-82,174.59-30.32,40.75-70.6,53-112.22,53" transform="translate(-78.14 -63.72)"/><path class="cls-7" d="M275,785.66a23.18,23.18,0,1,1-23.17,23.17A23.17,23.17,0,0,1,275,785.66" transform="translate(-78.14 -63.72)"/><path class="cls-3" d="M291.35,825.21c16.3,16.32,37.22.73,37.22-16.38,0-16.43-15.23-28.71-29.89-21.69" transform="translate(-78.14 -63.72)"/><path class="cls-4" d="M291.35,792.45c2.58-3.74,5.37-9,6.42-13.19l2,7.33,6.2,4.36A45.27,45.27,0,0,0,291.35,792.45Z" transform="translate(-78.14 -63.72)"/><line class="cls-3" x1="197.54" y1="667.37" x2="197.54" y2="712.4"/><path class="cls-4" d="M275.67,785.17a45.51,45.51,0,0,0-7.13-12.82l7.13,2.58,7.13-2.58A45.51,45.51,0,0,0,275.67,785.17Z" transform="translate(-78.14 -63.72)"/><path class="cls-10" d="M275,895.24a23.18,23.18,0,1,1-23.17,23.17A23.18,23.18,0,0,1,275,895.24" transform="translate(-78.14 -63.72)"/><line class="cls-3" x1="196.82" y1="768.29" x2="196.82" y2="822.47"/><path class="cls-4" d="M275,895.24c-1.58-4.26-4.27-9.55-7.13-12.82L275,885l7.14-2.58C279.23,885.69,276.53,891,275,895.24Z" transform="translate(-78.14 -63.72)"/><path class="cls-3" d="M368.53,623.72c-14.85,27.62-4.14,168.69-21.22,222.37-8.27,26-32.91,33.64-72.36,33.64" transform="translate(-78.14 -63.72)"/><path class="cls-3" d="M273.91,635c-60.29,0-83.68,29.77-83.68,64.39,0,29.71,16.05,56.49,68.37,59.23" transform="translate(-78.14 -63.72)"/><path class="cls-4" d="M267.65,758.8c-4.31,1.45-9.67,4-13,6.74l2.79-7-2.36-7.21A45.5,45.5,0,0,0,267.65,758.8Z" transform="translate(-78.14 -63.72)"/><circle class="cls-11" cx="197.54" cy="695.08" r="8.02"/><path class="cls-4" d="M276.43,753.27v5.06h4.87v1.29h-4.87v5.11h-1.38v-5.11h-4.87v-1.29h4.87v-5.06Z" transform="translate(-78.14 -63.72)"/><path class="cls-3" d="M275.67,742.37c26.14,0,66.33,8.75,66.09,58.17-.22,44.3-23.81,55.92-49.73,57.85" transform="translate(-78.14 -63.72)"/><path class="cls-4" d="M283,858.71c4.19-1.76,9.36-4.67,12.52-7.66l-2.29,7.24,2.87,7A45.2,45.2,0,0,0,283,858.71Z" transform="translate(-78.14 -63.72)"/><circle class="cls-11" cx="196.82" cy="794.99" r="8.02"/><path class="cls-4" d="M275.71,853.18v5.06h4.87v1.29h-4.87v5.11h-1.38v-5.11h-4.87v-1.29h4.87v-5.06Z" transform="translate(-78.14 -63.72)"/><circle class="cls-12" cx="923.99" cy="249.94" r="23.17"/><line class="cls-3" x1="923.99" y1="273.12" x2="923.99" y2="315.5"/><path class="cls-4" d="M1002.12,388.27A45.51,45.51,0,0,0,995,375.45l7.13,2.58,7.13-2.58A45.51,45.51,0,0,0,1002.12,388.27Z" transform="translate(-78.14 -63.72)"/><circle class="cls-12" cx="923.99" cy="347.73" r="23.17"/><line class="cls-3" x1="923.99" y1="370.9" x2="923.99" y2="411.43"/><path class="cls-4" d="M1002.12,484.21A45.57,45.57,0,0,0,995,471.38l7.13,2.59,7.13-2.59A45.57,45.57,0,0,0,1002.12,484.21Z" transform="translate(-78.14 -63.72)"/><circle class="cls-12" cx="923.99" cy="443.66" r="23.17"/><line class="cls-3" x1="923.99" y1="199.78" x2="923.99" y2="217.71"/><path class="cls-4" d="M1002.12,290.49c-1.58-4.26-4.28-9.55-7.13-12.82l7.13,2.58,7.13-2.58C1006.4,280.94,1003.7,286.23,1002.12,290.49Z" transform="translate(-78.14 -63.72)"/><path class="cls-3" d="M1001,361.24c-39.9,0-55.38,23.69-55.38,51.24,0,22.93,7.69,43.66,39.47,46.89" transform="translate(-78.14 -63.72)"/><path class="cls-4" d="M994.1,459.8c-4.35,1.33-9.79,3.7-13.23,6.36l3-7-2.15-7.27C984.82,455,989.94,458,994.1,459.8Z" transform="translate(-78.14 -63.72)"/><circle class="cls-11" cx="923.99" cy="396.09" r="8.02"/><path class="cls-4" d="M1002.88,454.27v5.07h4.87v1.29h-4.87v5.11h-1.38v-5.11h-4.87v-1.29h4.87v-5.07Z" transform="translate(-78.14 -63.72)"/><line class="cls-3" x1="923.99" y1="466.84" x2="923.99" y2="507.37"/><path class="cls-4" d="M1002.12,580.14c-1.58-4.26-4.28-9.55-7.13-12.82l7.13,2.58,7.13-2.58C1006.4,570.59,1003.7,575.88,1002.12,580.14Z" transform="translate(-78.14 -63.72)"/><path class="cls-3" d="M1002.48,445c39.89,0,55.37,24.37,55.37,52.7,0,23.58-7,44.9-38.66,48.22" transform="translate(-78.14 -63.72)"/><path class="cls-4" d="M1010.14,546.41c4.16-1.84,9.27-4.85,12.36-7.91l-2.13,7.28,3,7C1019.94,550.09,1014.49,547.73,1010.14,546.41Z" transform="translate(-78.14 -63.72)"/><circle class="cls-11" cx="923.99" cy="482.7" r="8.02"/><path class="cls-4" d="M1002.88,540.88V546h4.87v1.29h-4.87v5.11h-1.38v-5.11h-4.87V546h4.87v-5.07Z" transform="translate(-78.14 -63.72)"/><circle class="cls-10" cx="629.49" cy="251.64" r="23.17"/><line class="cls-3" x1="629.49" y1="274.82" x2="629.49" y2="292.75"/><path class="cls-4" d="M707.62,365.52c-1.58-4.26-4.27-9.54-7.13-12.82l7.13,2.58,7.14-2.58A45.29,45.29,0,0,0,707.62,365.52Z" transform="translate(-78.14 -63.72)"/><circle class="cls-10" cx="629.49" cy="324.98" r="23.17"/><path class="cls-3" d="M463.74,456c-5.23,15.85-33.86-32.27-52.28-46.39" transform="translate(-78.14 -63.72)"/><path class="cls-4" d="M403.23,405.86a45.52,45.52,0,0,0,14.65-.84l-5.43,5.3-.78,7.54C410,413.86,406.38,409.13,403.23,405.86Z" transform="translate(-78.14 -63.72)"/><line class="cls-3" x1="629.49" y1="347.82" x2="629.49" y2="365.75"/><path class="cls-4" d="M707.62,438.52c-1.58-4.26-4.27-9.54-7.13-12.82l7.13,2.58,7.14-2.58A45.29,45.29,0,0,0,707.62,438.52Z" transform="translate(-78.14 -63.72)"/><circle class="cls-10" cx="629.49" cy="398.31" r="23.17"/><line class="cls-3" x1="629.49" y1="421.48" x2="629.49" y2="439.41"/><path class="cls-4" d="M707.62,512.18c-1.58-4.26-4.27-9.54-7.13-12.82l7.13,2.58,7.14-2.58A45.29,45.29,0,0,0,707.62,512.18Z" transform="translate(-78.14 -63.72)"/><circle class="cls-10" cx="629.49" cy="471.64" r="23.17"/><line class="cls-3" x1="629.49" y1="494.48" x2="629.49" y2="512.41"/><path class="cls-4" d="M707.62,585.18c-1.58-4.26-4.27-9.54-7.13-12.82l7.13,2.58,7.14-2.58A45.29,45.29,0,0,0,707.62,585.18Z" transform="translate(-78.14 -63.72)"/><line class="cls-3" x1="629.49" y1="200.25" x2="629.49" y2="218.18"/><path class="cls-4" d="M707.62,291c-1.58-4.26-4.27-9.54-7.13-12.82l7.13,2.58,7.14-2.58A45.29,45.29,0,0,0,707.62,291Z" transform="translate(-78.14 -63.72)"/><path class="cls-3" d="M769.55,350.11H707.62" transform="translate(-78.14 -63.72)"/><circle class="cls-10" cx="631.55" cy="664.31" r="23.17"/><line class="cls-3" x1="631.55" y1="595.38" x2="631.55" y2="630.85"/><path class="cls-4" d="M709.69,703.62c-1.58-4.26-4.28-9.55-7.14-12.82l7.14,2.58,7.13-2.58C714,694.07,711.26,699.36,709.69,703.62Z" transform="translate(-78.14 -63.72)"/><circle class="cls-10" cx="711.03" cy="664.31" r="23.17"/><line class="cls-3" x1="711.03" y1="595.38" x2="711.03" y2="630.85"/><path class="cls-4" d="M789.17,703.62c-1.58-4.26-4.28-9.55-7.13-12.82l7.13,2.58,7.13-2.58C793.45,694.07,790.75,699.36,789.17,703.62Z" transform="translate(-78.14 -63.72)"/><circle class="cls-11" cx="671.77" cy="728.58" r="8.02"/><path class="cls-4" d="M750.66,786.77v5.06h4.87v1.29h-4.87v5.11h-1.37v-5.11h-4.87v-1.29h4.87v-5.06Z" transform="translate(-78.14 -63.72)"/><path class="cls-3" d="M709.69,751.2c0,25.23,11.51,36.31,23.23,39.8" transform="translate(-78.14 -63.72)"/><path class="cls-4" d="M741.88,792.3c-4.45.88-10.1,2.69-13.79,5l3.69-6.63-1.41-7.45A45.43,45.43,0,0,0,741.88,792.3Z" transform="translate(-78.14 -63.72)"/><path class="cls-3" d="M789.17,751.2c0,25-11,36.14-22.29,39.72" transform="translate(-78.14 -63.72)"/><path class="cls-4" d="M757.93,792.3c3.93-2.28,8.69-5.83,11.43-9.2L768,790.57l3.75,6.59A45.24,45.24,0,0,0,757.93,792.3Z" transform="translate(-78.14 -63.72)"/><path class="cls-3" d="M709.69,679.77c-49.57,0-44.31,90-44.31,119.33,0,28,4.51,102.89,67.45,109.2" transform="translate(-78.14 -63.72)"/><path class="cls-4" d="M741.88,908.73a45.44,45.44,0,0,0-13.21,6.38l3-7-2.16-7.27C732.6,903.91,737.72,906.9,741.88,908.73Z" transform="translate(-78.14 -63.72)"/><path class="cls-3" d="M749.91,800.32v29.15" transform="translate(-78.14 -63.72)"/><path class="cls-4" d="M749.91,838.53c-1.58-4.26-4.28-9.55-7.14-12.82l7.14,2.58,7.13-2.58C754.18,829,751.49,834.27,749.91,838.53Z" transform="translate(-78.14 -63.72)"/><line class="cls-3" x1="671.77" y1="819.73" x2="671.77" y2="871.15"/><path class="cls-4" d="M749.91,943.92c-1.58-4.26-4.28-9.55-7.14-12.82l7.14,2.58L757,931.1C754.18,934.37,751.49,939.66,749.91,943.92Z" transform="translate(-78.14 -63.72)"/><line class="cls-3" x1="196.82" y1="878.57" x2="196.82" y2="896.5"/><path class="cls-4" d="M275,969.27c-1.58-4.26-4.27-9.54-7.13-12.82L275,959l7.14-2.58A45.29,45.29,0,0,0,275,969.27Z" transform="translate(-78.14 -63.72)"/><path class="cls-3" d="M273.2,955.78c-.84,0-1.67,0-2.5,0" transform="translate(-78.14 -63.72)"/><path class="cls-13" d="M265.74,955.48C160,946.86,78.89,754.74,78.89,429c0-72.81,81.54-73.25,87.14-28.09" transform="translate(-78.14 -63.72)"/><path class="cls-3" d="M166.26,403.43c.05.82.07,1.65.07,2.5" transform="translate(-78.14 -63.72)"/><circle class="cls-14" cx="924.34" cy="538.69" r="23.17"/><line class="cls-3" x1="924.34" y1="561.87" x2="924.34" y2="582.51"/><path class="cls-4" d="M1002.48,655.28c-1.59-4.26-4.28-9.54-7.14-12.82l7.14,2.58,7.13-2.58A45,45,0,0,0,1002.48,655.28Z" transform="translate(-78.14 -63.72)"/><circle class="cls-8" cx="530.94" cy="205.43" r="23.17"/><circle class="cls-2" cx="821.76" cy="205.19" r="23.17"/><circle class="cls-6" cx="531.89" cy="615.64" r="23.17"/><circle class="cls-10" cx="671.77" cy="796.56" r="23.17"/><circle class="cls-11" cx="671.77" cy="845.01" r="8.02"/><path class="cls-4" d="M746.37,904.07l3.8,3.9,3.81-3.9.78.79-3.82,3.89,3.82,3.9-.78.78-3.81-3.9-3.8,3.9-.79-.78,3.81-3.9-3.81-3.89Z" transform="translate(-78.14 -63.72)"/><rect class="cls-15" x="37.31" y="0.5" width="321.37" height="282.94" rx="37.17"/><rect class="cls-16" x="37.31" y="381.14" width="321.37" height="575.57" rx="37.17"/><rect class="cls-17" x="486.51" y="161.06" width="261.93" height="392.51" rx="37.17"/><rect class="cls-18" x="777.88" y="161.26" width="227.14" height="472.1" rx="37.17"/><rect class="cls-19" x="486.51" y="569.55" width="261.93" height="343.42" rx="37.17"/><circle class="cls-10" cx="195.33" cy="242.1" r="23.17"/><circle class="cls-2" cx="106.52" cy="168.77" r="23.17"/><circle class="cls-5" cx="106.52" cy="95.43" r="23.17"/><circle class="cls-2" cx="278.75" cy="168.5" r="23.17"/><line class="cls-3" x1="106.52" y1="118.61" x2="106.52" y2="136.54"/><path class="cls-4" d="M184.66,209.31c-1.59-4.26-4.28-9.54-7.14-12.82l7.14,2.58,7.13-2.58A45,45,0,0,0,184.66,209.31Z" transform="translate(-78.14 -63.72)"/><line class="cls-3" x1="129.69" y1="168.77" x2="162.83" y2="168.77"/><path class="cls-4" d="M250,232.49c-4.26,1.58-9.54,4.27-12.82,7.13l2.58-7.13-2.58-7.14A45.29,45.29,0,0,0,250,232.49Z" transform="translate(-78.14 -63.72)"/><path class="cls-3" d="M356.88,255.39c0,21.86-12.58,46.72-51.19,50.05" transform="translate(-78.14 -63.72)"/><path class="cls-4" d="M296.64,305.82c4.18-1.8,9.32-4.76,12.44-7.78l-2.21,7.25,2.94,7C306.39,309.6,301,307.18,296.64,305.82Z" transform="translate(-78.14 -63.72)"/></g><g id="Layer_2" data-name="Layer 2"><path class="cls-4" d="M252.93,154.59a10.77,10.77,0,0,1,2-.17,3.31,3.31,0,0,1,2.34.66,2,2,0,0,1,.63,1.53,2.13,2.13,0,0,1-1.52,2.07v0a2.06,2.06,0,0,1,1.19,1.63,12.33,12.33,0,0,0,.62,2.22h-1.08a10.51,10.51,0,0,1-.54-1.93c-.24-1.11-.67-1.53-1.62-1.57h-1v3.5h-1Zm1,3.68H255c1.12,0,1.83-.61,1.83-1.54s-.76-1.49-1.86-1.51a4.09,4.09,0,0,0-1,.1Z" transform="translate(-78.14 -63.72)"/><path class="cls-4" d="M260,159.85a1.86,1.86,0,0,0,2,2,3.8,3.8,0,0,0,1.61-.3l.18.75a4.67,4.67,0,0,1-1.93.36,2.69,2.69,0,0,1-2.86-2.92c0-1.75,1-3.13,2.73-3.13a2.45,2.45,0,0,1,2.39,2.73,4.49,4.49,0,0,1,0,.49Zm3.09-.75a1.5,1.5,0,0,0-1.46-1.72A1.76,1.76,0,0,0,260,159.1Z" transform="translate(-78.14 -63.72)"/><path class="cls-4" d="M265.27,161.48a2.69,2.69,0,0,0,1.39.42c.77,0,1.13-.38,1.13-.86s-.3-.78-1.08-1.07c-1-.37-1.54-.94-1.54-1.64a1.79,1.79,0,0,1,2-1.7,2.79,2.79,0,0,1,1.42.36l-.26.76a2.32,2.32,0,0,0-1.19-.33c-.62,0-1,.36-1,.79s.35.7,1.1,1c1,.39,1.53.89,1.53,1.75,0,1-.79,1.74-2.17,1.74a3.27,3.27,0,0,1-1.63-.39Z" transform="translate(-78.14 -63.72)"/><path class="cls-4" d="M278.39,162.3a5.2,5.2,0,0,1-2.13.38,3.77,3.77,0,0,1-4-4.09,4,4,0,0,1,4.22-4.24,4.26,4.26,0,0,1,1.92.36l-.26.85a3.77,3.77,0,0,0-1.63-.34,3,3,0,0,0-3.15,3.34,2.94,2.94,0,0,0,3.11,3.25,4.08,4.08,0,0,0,1.7-.34Z" transform="translate(-78.14 -63.72)"/><path class="cls-4" d="M279.71,162.56v-8.08h1.13l2.6,4.09a23.83,23.83,0,0,1,1.45,2.63l0,0c-.1-1.07-.12-2.06-.12-3.32v-3.38h1v8.08h-1l-2.57-4.1a26.34,26.34,0,0,1-1.51-2.7l0,0c.07,1,.09,2,.09,3.33v3.45Z" transform="translate(-78.14 -63.72)"/><path class="cls-4" d="M287.6,162.56v-8.08h1.14l2.59,4.09a22.28,22.28,0,0,1,1.45,2.63l0,0c-.1-1.07-.12-2.06-.12-3.32v-3.38h1v8.08h-1.06l-2.56-4.1a23,23,0,0,1-1.51-2.7l0,0c.06,1,.08,2,.08,3.33v3.45Z" transform="translate(-78.14 -63.72)"/><path class="cls-4" d="M263.48,227.76a11.55,11.55,0,0,1,2-.16,3.31,3.31,0,0,1,2.26.67,2.16,2.16,0,0,1,.71,1.69,2.42,2.42,0,0,1-.62,1.73,3.35,3.35,0,0,1-2.47.89,3.52,3.52,0,0,1-.84-.08v3.24h-1Zm1,3.89a3.38,3.38,0,0,0,.86.09c1.26,0,2-.61,2-1.73s-.76-1.58-1.91-1.58a4.26,4.26,0,0,0-1,.08Z" transform="translate(-78.14 -63.72)"/><path class="cls-4" d="M274.78,232.79a2.84,2.84,0,0,1-2.89,3.09,2.76,2.76,0,0,1-2.78-3,2.83,2.83,0,0,1,2.88-3.08A2.74,2.74,0,0,1,274.78,232.79Zm-4.6.06c0,1.27.73,2.23,1.76,2.23s1.76-.94,1.76-2.25c0-1-.49-2.23-1.73-2.23S270.18,231.75,270.18,232.85Z" transform="translate(-78.14 -63.72)"/><path class="cls-4" d="M281.37,232.79a2.84,2.84,0,0,1-2.89,3.09,2.76,2.76,0,0,1-2.78-3,2.83,2.83,0,0,1,2.88-3.08A2.75,2.75,0,0,1,281.37,232.79Zm-4.6.06c0,1.27.73,2.23,1.76,2.23s1.76-.94,1.76-2.25c0-1-.49-2.23-1.74-2.23S276.77,231.75,276.77,232.85Z" transform="translate(-78.14 -63.72)"/><path class="cls-4" d="M282.71,227.23h1.05v8.51h-1.05Z" transform="translate(-78.14 -63.72)"/><path class="cls-20" d="M260.4,473.28l-.84,2.54h-1.08l2.75-8.08h1.26l2.75,8.08h-1.11l-.86-2.54Zm2.65-.82-.79-2.33c-.18-.52-.3-1-.42-1.47h0c-.12.48-.25,1-.4,1.46l-.8,2.34Z" transform="translate(-78.14 -63.72)"/><path class="cls-20" d="M267.55,468.35V470h1.51v.81h-1.51V474c0,.72.2,1.13.79,1.13A2.08,2.08,0,0,0,269,475l.05.8a2.67,2.67,0,0,1-.93.14,1.49,1.49,0,0,1-1.14-.44,2.18,2.18,0,0,1-.41-1.52v-3.16h-.9V470h.9v-1.39Z" transform="translate(-78.14 -63.72)"/><path class="cls-20" d="M271.52,468.35V470H273v.81h-1.51V474c0,.72.21,1.13.79,1.13a2.22,2.22,0,0,0,.62-.08l0,.8a2.63,2.63,0,0,1-.93.14,1.49,1.49,0,0,1-1.14-.44,2.18,2.18,0,0,1-.41-1.52v-3.16h-.9V470h.9v-1.39Z" transform="translate(-78.14 -63.72)"/><path class="cls-20" d="M274.74,473.11a1.85,1.85,0,0,0,2,2,3.8,3.8,0,0,0,1.61-.3l.18.76a4.67,4.67,0,0,1-1.93.36,2.7,2.7,0,0,1-2.86-2.93c0-1.75,1-3.13,2.72-3.13a2.46,2.46,0,0,1,2.4,2.74,4.88,4.88,0,0,1,0,.49Zm3.09-.76a1.49,1.49,0,0,0-1.46-1.71,1.74,1.74,0,0,0-1.62,1.71Z" transform="translate(-78.14 -63.72)"/><path class="cls-20" d="M280.16,471.59c0-.6,0-1.1,0-1.58h.93l.06,1h0a2.11,2.11,0,0,1,1.91-1.09c.81,0,2.05.48,2.05,2.47v3.47h-1.05v-3.35c0-.93-.35-1.71-1.34-1.71a1.5,1.5,0,0,0-1.42,1.08,1.45,1.45,0,0,0-.07.49v3.49h-1.06Z" transform="translate(-78.14 -63.72)"/><path class="cls-20" d="M289.27,472.19V473h-3v-.77Z" transform="translate(-78.14 -63.72)"/><path class="cls-20" d="M266,482.75v1.66h1.51v.81H266v3.13c0,.72.2,1.13.79,1.13a2.08,2.08,0,0,0,.61-.08l.05.79a2.44,2.44,0,0,1-.94.15,1.47,1.47,0,0,1-1.13-.44,2.18,2.18,0,0,1-.41-1.52v-3.16h-.9v-.81h.9V483Z" transform="translate(-78.14 -63.72)"/><path class="cls-20" d="M269.91,482.78a.62.62,0,0,1-.67.65.63.63,0,0,1-.63-.65.64.64,0,0,1,.66-.66A.62.62,0,0,1,269.91,482.78Zm-1.17,7.44v-5.81h1.05v5.81Z" transform="translate(-78.14 -63.72)"/><path class="cls-20" d="M276.8,487.27a2.83,2.83,0,0,1-2.89,3.08,2.76,2.76,0,0,1-2.78-3,2.83,2.83,0,0,1,2.88-3.08A2.75,2.75,0,0,1,276.8,487.27Zm-4.61.06c0,1.27.74,2.23,1.77,2.23s1.76-.95,1.76-2.26c0-1-.49-2.23-1.74-2.23S272.19,486.23,272.19,487.33Z" transform="translate(-78.14 -63.72)"/><path class="cls-20" d="M278.14,486c0-.6,0-1.1-.05-1.58H279l.06,1h0a2.13,2.13,0,0,1,1.92-1.09c.8,0,2.05.48,2.05,2.47v3.47H282v-3.35c0-.93-.35-1.71-1.34-1.71a1.5,1.5,0,0,0-1.42,1.08,1.45,1.45,0,0,0-.07.49v3.49h-1.05Z" transform="translate(-78.14 -63.72)"/><path class="cls-4" d="M374,398.27c-.06-1.13-.14-2.48-.12-3.49h0c-.28,1-.61,2-1,3.07l-1.43,3.92h-.79l-1.3-3.85c-.39-1.14-.71-2.18-.94-3.14h0c0,1-.09,2.36-.16,3.57l-.22,3.47h-1l.56-8.08h1.33l1.38,3.91c.34,1,.61,1.88.82,2.72h0c.21-.82.5-1.7.86-2.72l1.44-3.91h1.33l.5,8.08h-1Z" transform="translate(-78.14 -63.72)"/><path class="cls-4" d="M381.68,400.24c0,.6,0,1.12.05,1.58h-.94l-.06-.95h0a2.19,2.19,0,0,1-1.92,1.08c-.91,0-2-.5-2-2.54V396h1v3.22c0,1.1.34,1.85,1.3,1.85a1.54,1.54,0,0,0,1.39-1,1.57,1.57,0,0,0,.09-.54V396h1.06Z" transform="translate(-78.14 -63.72)"/><path class="cls-4" d="M383.43,393.3h1.06v8.52h-1.06Z" transform="translate(-78.14 -63.72)"/><path class="cls-4" d="M387.54,394.35V396h1.51v.81h-1.51V400c0,.72.2,1.13.79,1.13a2.13,2.13,0,0,0,.61-.08l.05.8a2.69,2.69,0,0,1-.94.14,1.5,1.5,0,0,1-1.14-.44,2.18,2.18,0,0,1-.4-1.52v-3.16h-.9V396h.9v-1.39Z" transform="translate(-78.14 -63.72)"/><path class="cls-4" d="M391.41,394.38a.65.65,0,1,1-1.3,0,.64.64,0,0,1,.66-.66A.62.62,0,0,1,391.41,394.38Zm-1.17,7.44V396h1.05v5.81Z" transform="translate(-78.14 -63.72)"/><path class="cls-4" d="M395.49,398.19V399h-3v-.77Z" transform="translate(-78.14 -63.72)"/><path class="cls-4" d="M366.23,408.24a15.93,15.93,0,0,1,2.22-.16,4.65,4.65,0,0,1,3.28,1,3.74,3.74,0,0,1,1.14,2.91,4.28,4.28,0,0,1-1.17,3.14,5,5,0,0,1-3.57,1.16,17,17,0,0,1-1.9-.09Zm1,7.15a6.25,6.25,0,0,0,1.05.06,3.11,3.11,0,0,0,3.44-3.43c0-1.91-1.06-3.12-3.27-3.12a5.82,5.82,0,0,0-1.22.11Z" transform="translate(-78.14 -63.72)"/><path class="cls-4" d="M374.82,413.51a1.86,1.86,0,0,0,2,2,3.75,3.75,0,0,0,1.6-.3l.18.76a4.67,4.67,0,0,1-1.93.36,2.69,2.69,0,0,1-2.85-2.93c0-1.75,1-3.13,2.72-3.13a2.47,2.47,0,0,1,2.4,2.74,4.35,4.35,0,0,1,0,.49Zm3.1-.76a1.5,1.5,0,0,0-1.46-1.71,1.74,1.74,0,0,0-1.62,1.71Z" transform="translate(-78.14 -63.72)"/><path class="cls-4" d="M380.25,412c0-.6,0-1.1-.05-1.58h.94l.06,1h0a2.14,2.14,0,0,1,1.92-1.09c.8,0,2.05.48,2.05,2.47v3.47h-1.06v-3.35c0-.93-.34-1.71-1.34-1.71a1.5,1.5,0,0,0-1.41,1.08,1.44,1.44,0,0,0-.08.49v3.49h-1.05Z" transform="translate(-78.14 -63.72)"/><path class="cls-4" d="M386.76,415.14a2.86,2.86,0,0,0,1.4.42c.76,0,1.12-.38,1.12-.86s-.3-.78-1.08-1.07c-1-.37-1.53-.95-1.53-1.64a1.79,1.79,0,0,1,2-1.71,2.91,2.91,0,0,1,1.43.36l-.27.77a2.24,2.24,0,0,0-1.18-.34c-.63,0-1,.36-1,.8s.34.69,1.1,1c1,.38,1.52.89,1.52,1.75,0,1-.79,1.74-2.17,1.74a3.33,3.33,0,0,1-1.63-.4Z" transform="translate(-78.14 -63.72)"/><path class="cls-4" d="M392.25,413.51a1.85,1.85,0,0,0,2,2,3.8,3.8,0,0,0,1.61-.3l.18.76a4.71,4.71,0,0,1-1.93.36,2.7,2.7,0,0,1-2.86-2.93c0-1.75,1-3.13,2.72-3.13a2.46,2.46,0,0,1,2.4,2.74,4.88,4.88,0,0,1,0,.49Zm3.09-.76a1.5,1.5,0,0,0-1.46-1.71,1.74,1.74,0,0,0-1.62,1.71Z" transform="translate(-78.14 -63.72)"/><path class="cls-4" d="M462.53,398.27c-.06-1.13-.13-2.48-.12-3.49h0c-.28,1-.61,2-1,3.07l-1.43,3.92h-.79l-1.31-3.85c-.38-1.14-.71-2.18-.93-3.14h0c0,1-.08,2.36-.15,3.57l-.22,3.47h-1l.56-8.08h1.33l1.38,3.91c.34,1,.61,1.88.82,2.72h0c.21-.82.49-1.71.85-2.72l1.44-3.91h1.33l.51,8.08h-1Z" transform="translate(-78.14 -63.72)"/><path class="cls-4" d="M470.23,400.24c0,.6,0,1.12,0,1.58h-.94l-.06-.95h0a2.19,2.19,0,0,1-1.92,1.08c-.92,0-2-.5-2-2.54V396h1.06v3.22c0,1.1.33,1.85,1.29,1.85a1.47,1.47,0,0,0,1.49-1.5V396h1.06Z" transform="translate(-78.14 -63.72)"/><path class="cls-4" d="M472,393.3H473v8.52H472Z" transform="translate(-78.14 -63.72)"/><path class="cls-4" d="M476.08,394.35V396h1.52v.81h-1.52V400c0,.72.21,1.13.8,1.13a2.13,2.13,0,0,0,.61-.08l.05.79a2.48,2.48,0,0,1-.94.15,1.49,1.49,0,0,1-1.14-.44,2.18,2.18,0,0,1-.41-1.52v-3.16h-.9V396h.9v-1.39Z" transform="translate(-78.14 -63.72)"/><path class="cls-4" d="M480,394.38a.62.62,0,0,1-.67.65.63.63,0,0,1-.64-.65.65.65,0,0,1,.66-.66A.63.63,0,0,1,480,394.38Zm-1.17,7.44V396h1v5.81Z" transform="translate(-78.14 -63.72)"/><path class="cls-4" d="M484,398.19V399h-3v-.77Z" transform="translate(-78.14 -63.72)"/><path class="cls-4" d="M454.78,408.24a15.93,15.93,0,0,1,2.22-.16,4.6,4.6,0,0,1,3.27,1,3.73,3.73,0,0,1,1.14,2.9,4.32,4.32,0,0,1-1.16,3.15,5,5,0,0,1-3.57,1.16,16.77,16.77,0,0,1-1.9-.1Zm1,7.15a6.45,6.45,0,0,0,1.06.06,3.11,3.11,0,0,0,3.44-3.43c0-1.91-1.07-3.12-3.27-3.12a6,6,0,0,0-1.23.11Z" transform="translate(-78.14 -63.72)"/><path class="cls-4" d="M463.37,413.51a1.86,1.86,0,0,0,2,2,3.8,3.8,0,0,0,1.61-.3l.18.76a4.67,4.67,0,0,1-1.93.36,2.69,2.69,0,0,1-2.85-2.93c0-1.75,1-3.13,2.72-3.13a2.47,2.47,0,0,1,2.4,2.74,4.35,4.35,0,0,1,0,.49Zm3.1-.76A1.5,1.5,0,0,0,465,411a1.76,1.76,0,0,0-1.62,1.71Z" transform="translate(-78.14 -63.72)"/><path class="cls-4" d="M468.8,412c0-.59,0-1.09-.05-1.57h.93l.06,1h0a2.14,2.14,0,0,1,1.92-1.09c.8,0,2.05.48,2.05,2.47v3.47h-1.06v-3.35c0-.93-.35-1.71-1.34-1.71a1.5,1.5,0,0,0-1.42,1.08,1.75,1.75,0,0,0-.07.49v3.49H468.8Z" transform="translate(-78.14 -63.72)"/><path class="cls-4" d="M475.31,415.14a2.82,2.82,0,0,0,1.39.42c.77,0,1.13-.38,1.13-.86s-.3-.78-1.08-1.07c-1-.37-1.53-.95-1.53-1.65a1.79,1.79,0,0,1,2-1.7,2.94,2.94,0,0,1,1.43.36l-.27.77a2.24,2.24,0,0,0-1.18-.34c-.63,0-1,.36-1,.8s.35.69,1.11,1c1,.38,1.52.89,1.52,1.75,0,1-.79,1.74-2.17,1.74a3.3,3.3,0,0,1-1.63-.4Z" transform="translate(-78.14 -63.72)"/><path class="cls-4" d="M480.8,413.51a1.85,1.85,0,0,0,2,2,3.75,3.75,0,0,0,1.6-.3l.18.76a4.63,4.63,0,0,1-1.93.36,2.7,2.7,0,0,1-2.85-2.93c0-1.75,1-3.13,2.72-3.13a2.46,2.46,0,0,1,2.4,2.74,2.81,2.81,0,0,1,0,.49Zm3.09-.76a1.5,1.5,0,0,0-1.46-1.71,1.74,1.74,0,0,0-1.62,1.71Z" transform="translate(-78.14 -63.72)"/><path class="cls-20" d="M270,600a7.5,7.5,0,0,1-2.48.44,3.79,3.79,0,0,1-4.15-4.07,4.06,4.06,0,0,1,4.38-4.18,5.15,5.15,0,0,1,2,.37l-.25.86a4.21,4.21,0,0,0-1.79-.35,3,3,0,0,0-3.25,3.25,3,3,0,0,0,3.12,3.26,3.62,3.62,0,0,0,1.39-.21V597h-1.64v-.84H270Z" transform="translate(-78.14 -63.72)"/><path class="cls-20" d="M271.59,592.39a10.66,10.66,0,0,1,2-.17,3.28,3.28,0,0,1,2.34.66,2,2,0,0,1,.64,1.53,2.13,2.13,0,0,1-1.53,2.07v0a2,2,0,0,1,1.19,1.63,13,13,0,0,0,.63,2.22h-1.08a9.25,9.25,0,0,1-.54-1.93c-.24-1.12-.67-1.53-1.62-1.57h-1v3.5h-1Zm1,3.68h1.07c1.12,0,1.83-.61,1.83-1.54s-.76-1.5-1.86-1.51a4.18,4.18,0,0,0-1,.1Z" transform="translate(-78.14 -63.72)"/><path class="cls-20" d="M279.09,592.28v4.78c0,1.81.8,2.58,1.88,2.58s2-.79,2-2.58v-4.78H284V597c0,2.48-1.31,3.5-3.06,3.5s-2.9-.94-2.9-3.45v-4.76Z" transform="translate(-78.14 -63.72)"/><path class="cls-20" d="M272.21,709.1a7.84,7.84,0,0,1-2.49.44,3.8,3.8,0,0,1-4.15-4.08,4.05,4.05,0,0,1,4.38-4.17,4.89,4.89,0,0,1,2,.37l-.25.85a4.19,4.19,0,0,0-1.78-.35,3,3,0,0,0-3.25,3.25,3,3,0,0,0,3.11,3.27,3.41,3.41,0,0,0,1.4-.22v-2.41h-1.65v-.84h2.67Z" transform="translate(-78.14 -63.72)"/><path class="cls-20" d="M273.8,701.48a10.77,10.77,0,0,1,2-.17,3.36,3.36,0,0,1,2.34.66,2,2,0,0,1,.63,1.54,2.13,2.13,0,0,1-1.52,2.06v0a2,2,0,0,1,1.19,1.63,12.4,12.4,0,0,0,.62,2.21H278a10.51,10.51,0,0,1-.54-1.93c-.24-1.11-.67-1.53-1.62-1.57h-1v3.5H273.8Zm1.05,3.68h1.07c1.11,0,1.82-.61,1.82-1.53s-.76-1.5-1.86-1.52a4.15,4.15,0,0,0-1,.1Z" transform="translate(-78.14 -63.72)"/><path class="cls-20" d="M281.3,701.37v4.79c0,1.81.81,2.57,1.89,2.57s2-.79,2-2.57v-4.79h1.06v4.71c0,2.49-1.31,3.51-3.06,3.51s-2.9-1-2.9-3.46v-4.76Z" transform="translate(-78.14 -63.72)"/><path class="cls-20" d="M271,811.6a7.45,7.45,0,0,1-2.48.45A3.8,3.8,0,0,1,264.4,808a4.06,4.06,0,0,1,4.38-4.18,4.93,4.93,0,0,1,2,.38l-.25.85a4.21,4.21,0,0,0-1.79-.35,3,3,0,0,0-3.25,3.25,3,3,0,0,0,3.12,3.26A3.4,3.4,0,0,0,270,811v-2.41h-1.64v-.84H271Z" transform="translate(-78.14 -63.72)"/><path class="cls-20" d="M272.63,804a10.66,10.66,0,0,1,2-.17,3.28,3.28,0,0,1,2.34.66,2,2,0,0,1,.64,1.53,2.13,2.13,0,0,1-1.52,2.07v0a2,2,0,0,1,1.18,1.63,13,13,0,0,0,.63,2.22h-1.08a10.79,10.79,0,0,1-.54-1.93c-.24-1.11-.67-1.53-1.62-1.57h-1V812h-1.05Zm1.05,3.68h1.06c1.12,0,1.83-.61,1.83-1.54s-.76-1.5-1.86-1.51a4,4,0,0,0-1,.1Z" transform="translate(-78.14 -63.72)"/><path class="cls-20" d="M280.13,803.88v4.78c0,1.82.81,2.58,1.88,2.58s2-.79,2-2.58v-4.78H285v4.71c0,2.48-1.31,3.5-3.06,3.5s-2.9-.94-2.9-3.45v-4.76Z" transform="translate(-78.14 -63.72)"/><path class="cls-4" d="M260.13,913.44a14.33,14.33,0,0,1,2.22-.17,4.62,4.62,0,0,1,3.27,1,3.71,3.71,0,0,1,1.14,2.9,4.28,4.28,0,0,1-1.16,3.14,5,5,0,0,1-3.58,1.17,16.72,16.72,0,0,1-1.89-.1Zm1,7.15a7.79,7.79,0,0,0,1.06.06,3.11,3.11,0,0,0,3.44-3.43c0-1.91-1.07-3.12-3.27-3.12a6,6,0,0,0-1.23.11Z" transform="translate(-78.14 -63.72)"/><path class="cls-4" d="M268.72,918.7a1.86,1.86,0,0,0,2,2,3.8,3.8,0,0,0,1.61-.3l.18.75a4.67,4.67,0,0,1-1.93.36,2.69,2.69,0,0,1-2.86-2.92c0-1.75,1-3.13,2.73-3.13a2.45,2.45,0,0,1,2.39,2.73,4.49,4.49,0,0,1,0,.49Zm3.09-.75a1.5,1.5,0,0,0-1.46-1.72,1.76,1.76,0,0,0-1.62,1.72Z" transform="translate(-78.14 -63.72)"/><path class="cls-4" d="M274.15,917.18c0-.6,0-1.09,0-1.57H275l.06,1h0a2.12,2.12,0,0,1,1.91-1.09c.81,0,2.06.48,2.06,2.47v3.46H278v-3.34c0-.94-.35-1.72-1.34-1.72a1.5,1.5,0,0,0-1.42,1.08,1.45,1.45,0,0,0-.07.49v3.49h-1.05Z" transform="translate(-78.14 -63.72)"/><path class="cls-4" d="M280.66,920.33a2.69,2.69,0,0,0,1.39.42c.77,0,1.13-.38,1.13-.86s-.3-.78-1.08-1.07c-1-.37-1.54-.94-1.54-1.64a1.79,1.79,0,0,1,2-1.7,2.87,2.87,0,0,1,1.42.36l-.26.76a2.32,2.32,0,0,0-1.19-.33c-.62,0-1,.36-1,.79s.35.7,1.11,1c1,.39,1.52.89,1.52,1.75,0,1-.79,1.74-2.17,1.74a3.3,3.3,0,0,1-1.63-.39Z" transform="translate(-78.14 -63.72)"/><path class="cls-4" d="M286.14,918.7a1.87,1.87,0,0,0,2,2,3.75,3.75,0,0,0,1.6-.3l.18.75a4.67,4.67,0,0,1-1.93.36,2.69,2.69,0,0,1-2.85-2.92c0-1.75,1-3.13,2.72-3.13a2.46,2.46,0,0,1,2.4,2.73,4,4,0,0,1,0,.49Zm3.1-.75a1.51,1.51,0,0,0-1.46-1.72,1.75,1.75,0,0,0-1.62,1.72Z" transform="translate(-78.14 -63.72)"/><path class="cls-20" d="M153.67,480.46h-3.14v2.92H154v.87h-4.54v-8.08h4.36v.88h-3.32v2.55h3.14Z" transform="translate(-78.14 -63.72)"/><path class="cls-20" d="M155.35,480c0-.6,0-1.09,0-1.57h.92l.05.93h0a2,2,0,0,1,1.83-1.06,1.71,1.71,0,0,1,1.64,1.16h0a2.46,2.46,0,0,1,.65-.76,2,2,0,0,1,1.28-.4c.77,0,1.91.5,1.91,2.52v3.41h-1V481c0-1.12-.41-1.79-1.26-1.79a1.36,1.36,0,0,0-1.25,1,2,2,0,0,0-.08.53v3.58h-1v-3.47c0-.93-.41-1.6-1.21-1.6a1.45,1.45,0,0,0-1.31,1.06,1.4,1.4,0,0,0-.09.51v3.5h-1Z" transform="translate(-78.14 -63.72)"/><path class="cls-20" d="M165.31,484.25c0-.39.05-1,.05-1.5v-7h1v3.64h0a2.17,2.17,0,0,1,2-1.06c1.44,0,2.46,1.2,2.44,3,0,2.07-1.3,3.11-2.6,3.11a2.06,2.06,0,0,1-1.94-1.1h0l0,1Zm1.09-2.32a2.32,2.32,0,0,0,0,.38,1.65,1.65,0,0,0,1.59,1.24c1.1,0,1.76-.9,1.76-2.24,0-1.16-.6-2.15-1.73-2.15a1.69,1.69,0,0,0-1.61,1.29,2.47,2.47,0,0,0-.06.43Z" transform="translate(-78.14 -63.72)"/><path class="cls-20" d="M172.78,481.54a1.86,1.86,0,0,0,2,2,3.83,3.83,0,0,0,1.61-.3l.18.75a4.72,4.72,0,0,1-1.94.36,2.69,2.69,0,0,1-2.85-2.92c0-1.75,1-3.13,2.72-3.13a2.45,2.45,0,0,1,2.4,2.73,2.63,2.63,0,0,1,0,.49Zm3.09-.75a1.5,1.5,0,0,0-1.46-1.72,1.75,1.75,0,0,0-1.62,1.72Z" transform="translate(-78.14 -63.72)"/><path class="cls-20" d="M183.21,475.74v7c0,.52,0,1.11,0,1.5h-.95l0-1h0a2.16,2.16,0,0,1-2,1.14c-1.4,0-2.48-1.19-2.48-2.95,0-1.94,1.19-3.12,2.6-3.12a2,2,0,0,1,1.76.88h0v-3.46Zm-1.05,5.07a1.65,1.65,0,0,0,0-.44,1.55,1.55,0,0,0-1.52-1.23c-1.09,0-1.74,1-1.74,2.25s.57,2.14,1.71,2.14a1.67,1.67,0,0,0,1.6-1.71Z" transform="translate(-78.14 -63.72)"/><path class="cls-4" d="M693.8,311.13A14.33,14.33,0,0,1,696,311a4.62,4.62,0,0,1,3.27,1,3.71,3.71,0,0,1,1.14,2.9,4.28,4.28,0,0,1-1.16,3.14,5,5,0,0,1-3.58,1.17,16.72,16.72,0,0,1-1.89-.1Zm1,7.15a7.79,7.79,0,0,0,1.06.06,3.11,3.11,0,0,0,3.44-3.43c0-1.91-1.07-3.12-3.27-3.12a6,6,0,0,0-1.23.11Z" transform="translate(-78.14 -63.72)"/><path class="cls-4" d="M702.39,316.39a1.86,1.86,0,0,0,2,2,3.8,3.8,0,0,0,1.61-.3l.18.75a4.67,4.67,0,0,1-1.93.36,2.69,2.69,0,0,1-2.86-2.92c0-1.75,1-3.13,2.73-3.13a2.45,2.45,0,0,1,2.39,2.73,4.49,4.49,0,0,1,0,.49Zm3.09-.75a1.5,1.5,0,0,0-1.46-1.72,1.76,1.76,0,0,0-1.62,1.72Z" transform="translate(-78.14 -63.72)"/><path class="cls-4" d="M707.81,314.87c0-.6,0-1.09,0-1.57h.93l.06,1h0a2.12,2.12,0,0,1,1.91-1.09c.81,0,2,.48,2,2.47v3.46h-1v-3.34c0-.94-.35-1.72-1.34-1.72a1.5,1.5,0,0,0-1.42,1.08,1.45,1.45,0,0,0-.07.49v3.49h-1.06Z" transform="translate(-78.14 -63.72)"/><path class="cls-4" d="M714.33,318a2.69,2.69,0,0,0,1.39.42c.77,0,1.13-.38,1.13-.86s-.3-.78-1.08-1.07c-1-.37-1.54-.94-1.54-1.64a1.79,1.79,0,0,1,2-1.7,2.87,2.87,0,0,1,1.42.36l-.26.76a2.32,2.32,0,0,0-1.19-.33c-.62,0-1,.36-1,.79s.35.7,1.1,1c1,.39,1.53.89,1.53,1.75,0,1-.79,1.74-2.17,1.74a3.27,3.27,0,0,1-1.63-.39Z" transform="translate(-78.14 -63.72)"/><path class="cls-4" d="M719.81,316.39a1.87,1.87,0,0,0,2,2,3.76,3.76,0,0,0,1.61-.3l.18.75a4.67,4.67,0,0,1-1.93.36,2.69,2.69,0,0,1-2.85-2.92c0-1.75,1-3.13,2.72-3.13a2.46,2.46,0,0,1,2.4,2.73,4,4,0,0,1,0,.49Zm3.1-.75a1.51,1.51,0,0,0-1.46-1.72,1.75,1.75,0,0,0-1.62,1.72Z" transform="translate(-78.14 -63.72)"/><path class="cls-4" d="M693.8,383.89a14.33,14.33,0,0,1,2.22-.17,4.62,4.62,0,0,1,3.27,1,3.71,3.71,0,0,1,1.14,2.9,4.28,4.28,0,0,1-1.16,3.14,5,5,0,0,1-3.58,1.16,17,17,0,0,1-1.89-.09Zm1,7.15a8,8,0,0,0,1.06,0,3.1,3.1,0,0,0,3.44-3.42c0-1.91-1.07-3.12-3.27-3.12a6.14,6.14,0,0,0-1.23.1Z" transform="translate(-78.14 -63.72)"/><path class="cls-4" d="M702.39,389.15a1.86,1.86,0,0,0,2,2,3.8,3.8,0,0,0,1.61-.3l.18.75a4.67,4.67,0,0,1-1.93.36,2.69,2.69,0,0,1-2.86-2.92c0-1.76,1-3.13,2.73-3.13a2.45,2.45,0,0,1,2.39,2.73,4.68,4.68,0,0,1,0,.49Zm3.09-.75a1.49,1.49,0,0,0-1.46-1.72,1.76,1.76,0,0,0-1.62,1.72Z" transform="translate(-78.14 -63.72)"/><path class="cls-4" d="M707.81,387.63c0-.6,0-1.09,0-1.57h.93l.06,1h0a2.1,2.1,0,0,1,1.91-1.09c.81,0,2,.48,2,2.47v3.46h-1v-3.34c0-.94-.35-1.72-1.34-1.72a1.5,1.5,0,0,0-1.42,1.08,1.45,1.45,0,0,0-.07.49v3.49h-1.06Z" transform="translate(-78.14 -63.72)"/><path class="cls-4" d="M714.33,390.78a2.69,2.69,0,0,0,1.39.42c.77,0,1.13-.38,1.13-.86s-.3-.78-1.08-1.07c-1-.37-1.54-.95-1.54-1.64a1.79,1.79,0,0,1,2-1.7,2.77,2.77,0,0,1,1.42.36l-.26.76a2.32,2.32,0,0,0-1.19-.33c-.62,0-1,.36-1,.79s.35.69,1.1,1c1,.39,1.53.89,1.53,1.75,0,1-.79,1.74-2.17,1.74a3.27,3.27,0,0,1-1.63-.39Z" transform="translate(-78.14 -63.72)"/><path class="cls-4" d="M719.81,389.15a1.87,1.87,0,0,0,2,2,3.76,3.76,0,0,0,1.61-.3l.18.75a4.67,4.67,0,0,1-1.93.36,2.69,2.69,0,0,1-2.85-2.92c0-1.76,1-3.13,2.72-3.13a2.46,2.46,0,0,1,2.4,2.73,4.15,4.15,0,0,1,0,.49Zm3.1-.75a1.51,1.51,0,0,0-1.46-1.72,1.75,1.75,0,0,0-1.62,1.72Z" transform="translate(-78.14 -63.72)"/><path class="cls-4" d="M692.8,457.05a15.69,15.69,0,0,1,2.22-.17,4.62,4.62,0,0,1,3.27,1,3.73,3.73,0,0,1,1.14,2.9,4.32,4.32,0,0,1-1.16,3.15,5,5,0,0,1-3.58,1.16,16.72,16.72,0,0,1-1.89-.1Zm1,7.15a6.45,6.45,0,0,0,1.06.06,3.11,3.11,0,0,0,3.44-3.43c0-1.91-1.07-3.12-3.27-3.12a6,6,0,0,0-1.23.11Z" transform="translate(-78.14 -63.72)"/><path class="cls-4" d="M701.39,462.32a1.86,1.86,0,0,0,2,2A3.8,3.8,0,0,0,705,464l.18.76a4.84,4.84,0,0,1-1.93.36,2.7,2.7,0,0,1-2.86-2.93c0-1.75,1-3.13,2.73-3.13a2.46,2.46,0,0,1,2.39,2.73,4.92,4.92,0,0,1,0,.5Zm3.09-.76a1.49,1.49,0,0,0-1.46-1.71,1.75,1.75,0,0,0-1.62,1.71Z" transform="translate(-78.14 -63.72)"/><path class="cls-4" d="M706.81,460.79c0-.6,0-1.09,0-1.57h.93l.06,1h0a2.12,2.12,0,0,1,1.91-1.09c.81,0,2,.48,2,2.47V465h-1v-3.35c0-.93-.35-1.71-1.34-1.71a1.5,1.5,0,0,0-1.42,1.08,1.45,1.45,0,0,0-.07.49V465h-1.06Z" transform="translate(-78.14 -63.72)"/><path class="cls-4" d="M713.33,464a2.79,2.79,0,0,0,1.39.42c.77,0,1.13-.39,1.13-.87s-.3-.78-1.08-1.06c-1-.38-1.54-.95-1.54-1.65a1.8,1.8,0,0,1,2-1.7,2.87,2.87,0,0,1,1.42.36l-.26.77a2.22,2.22,0,0,0-1.19-.34c-.62,0-1,.36-1,.79s.35.7,1.1,1c1,.38,1.53.88,1.53,1.75s-.79,1.74-2.17,1.74a3.27,3.27,0,0,1-1.63-.4Z" transform="translate(-78.14 -63.72)"/><path class="cls-4" d="M718.81,462.32a1.86,1.86,0,0,0,2,2,3.76,3.76,0,0,0,1.61-.3l.18.76a4.84,4.84,0,0,1-1.93.36,2.69,2.69,0,0,1-2.85-2.93c0-1.75,1-3.13,2.72-3.13a2.46,2.46,0,0,1,2.4,2.73,4.36,4.36,0,0,1,0,.5Zm3.1-.76a1.5,1.5,0,0,0-1.46-1.71,1.74,1.74,0,0,0-1.62,1.71Z" transform="translate(-78.14 -63.72)"/><path class="cls-4" d="M692.8,530.5a14.33,14.33,0,0,1,2.22-.17,4.62,4.62,0,0,1,3.27,1,3.71,3.71,0,0,1,1.14,2.9,4.28,4.28,0,0,1-1.16,3.14,5,5,0,0,1-3.58,1.17,16.72,16.72,0,0,1-1.89-.1Zm1,7.15a6.38,6.38,0,0,0,1.06.06,3.11,3.11,0,0,0,3.44-3.43c0-1.91-1.07-3.12-3.28-3.12a5.89,5.89,0,0,0-1.22.11Z" transform="translate(-78.14 -63.72)"/><path class="cls-4" d="M701.39,535.76a1.86,1.86,0,0,0,2,2,3.8,3.8,0,0,0,1.61-.3l.18.75a4.67,4.67,0,0,1-1.93.37,2.7,2.7,0,0,1-2.86-2.93c0-1.75,1-3.13,2.72-3.13a2.46,2.46,0,0,1,2.4,2.73,4.49,4.49,0,0,1,0,.49Zm3.09-.75a1.5,1.5,0,0,0-1.46-1.72A1.76,1.76,0,0,0,701.4,535Z" transform="translate(-78.14 -63.72)"/><path class="cls-4" d="M706.81,534.24c0-.6,0-1.09,0-1.57h.94l.06,1h0a2.14,2.14,0,0,1,1.92-1.09c.81,0,2,.48,2,2.47v3.47h-1v-3.35c0-.94-.35-1.72-1.34-1.72a1.51,1.51,0,0,0-1.42,1.08,1.53,1.53,0,0,0-.07.49v3.5h-1.06Z" transform="translate(-78.14 -63.72)"/><path class="cls-4" d="M713.33,537.4a2.79,2.79,0,0,0,1.39.42c.77,0,1.13-.39,1.13-.87s-.3-.78-1.08-1.07c-1-.37-1.54-.94-1.54-1.64a1.8,1.8,0,0,1,2-1.7,2.9,2.9,0,0,1,1.42.36l-.26.77a2.22,2.22,0,0,0-1.19-.34c-.62,0-1,.36-1,.79s.35.7,1.1,1c1,.38,1.53.88,1.53,1.75s-.79,1.74-2.17,1.74a3.27,3.27,0,0,1-1.63-.4Z" transform="translate(-78.14 -63.72)"/><path class="cls-4" d="M718.81,535.76a1.87,1.87,0,0,0,2,2,3.8,3.8,0,0,0,1.61-.3l.18.75a4.63,4.63,0,0,1-1.93.37,2.69,2.69,0,0,1-2.85-2.93c0-1.75,1-3.13,2.72-3.13a2.46,2.46,0,0,1,2.4,2.73,4,4,0,0,1,0,.49Zm3.1-.75a1.51,1.51,0,0,0-1.47-1.72,1.75,1.75,0,0,0-1.61,1.72Z" transform="translate(-78.14 -63.72)"/><path class="cls-4" d="M996.19,316.5a5.21,5.21,0,0,1-2.14.38,3.78,3.78,0,0,1-4-4.09,4,4,0,0,1,4.22-4.24,4.22,4.22,0,0,1,1.92.36l-.25.85a3.84,3.84,0,0,0-1.63-.34,3,3,0,0,0-3.16,3.34,2.94,2.94,0,0,0,3.11,3.25,4,4,0,0,0,1.7-.34Z" transform="translate(-78.14 -63.72)"/><path class="cls-4" d="M1002.59,313.81a2.84,2.84,0,0,1-2.89,3.09,2.77,2.77,0,0,1-2.79-3,2.83,2.83,0,0,1,2.88-3.08A2.75,2.75,0,0,1,1002.59,313.81Zm-4.61.06c0,1.27.73,2.23,1.76,2.23s1.77-.94,1.77-2.25c0-1-.5-2.23-1.74-2.23S998,312.77,998,313.87Z" transform="translate(-78.14 -63.72)"/><path class="cls-4" d="M1003.92,312.53c0-.6,0-1.09,0-1.57h.94l.06,1h0a2.14,2.14,0,0,1,1.92-1.09c.8,0,2.05.48,2.05,2.47v3.46h-1.05v-3.34c0-.94-.35-1.72-1.35-1.72a1.5,1.5,0,0,0-1.41,1.08,1.45,1.45,0,0,0-.07.49v3.49h-1.06Z" transform="translate(-78.14 -63.72)"/><path class="cls-4" d="M1010.83,311l1.14,3.26c.19.53.35,1,.47,1.49h0c.13-.48.3-1,.49-1.49l1.12-3.26h1.11l-2.28,5.8h-1l-2.2-5.8Z" transform="translate(-78.14 -63.72)"/><path class="cls-4" d="M995.83,414.18a5,5,0,0,1-2.13.39,3.77,3.77,0,0,1-4-4.09,4,4,0,0,1,4.22-4.25,4.4,4.4,0,0,1,1.92.36l-.26.85a3.78,3.78,0,0,0-1.63-.33,3,3,0,0,0-3.15,3.33,2.94,2.94,0,0,0,3.11,3.25,4.25,4.25,0,0,0,1.7-.33Z" transform="translate(-78.14 -63.72)"/><path class="cls-4" d="M1002.23,411.5a2.84,2.84,0,0,1-2.89,3.08,2.76,2.76,0,0,1-2.78-3,2.83,2.83,0,0,1,2.88-3.08A2.75,2.75,0,0,1,1002.23,411.5Zm-4.6.06c0,1.27.73,2.23,1.76,2.23s1.76-1,1.76-2.26c0-1-.49-2.23-1.74-2.23S997.63,410.45,997.63,411.56Z" transform="translate(-78.14 -63.72)"/><path class="cls-4" d="M1003.57,410.21c0-.6,0-1.09-.05-1.57h.93l.06,1h0a2.14,2.14,0,0,1,1.92-1.09c.8,0,2,.48,2,2.47v3.47h-1.06V411.1c0-.93-.35-1.71-1.34-1.71a1.5,1.5,0,0,0-1.42,1.08,1.75,1.75,0,0,0-.07.49v3.49h-1Z" transform="translate(-78.14 -63.72)"/><path class="cls-4" d="M1010.48,408.64l1.14,3.26a15.54,15.54,0,0,1,.46,1.49h0c.13-.48.3-1,.49-1.49l1.13-3.26h1.1l-2.28,5.81h-1l-2.21-5.81Z" transform="translate(-78.14 -63.72)"/><path class="cls-4" d="M995.83,510.12a5.2,5.2,0,0,1-2.13.38,3.77,3.77,0,0,1-4-4.09,4,4,0,0,1,4.22-4.25,4.4,4.4,0,0,1,1.92.36l-.26.86A3.63,3.63,0,0,0,994,503a3,3,0,0,0-3.15,3.33,2.94,2.94,0,0,0,3.11,3.25,4.25,4.25,0,0,0,1.7-.33Z" transform="translate(-78.14 -63.72)"/><path class="cls-4" d="M1002.23,507.43a2.83,2.83,0,0,1-2.89,3.08,2.76,2.76,0,0,1-2.78-3,2.84,2.84,0,0,1,2.88-3.09A2.75,2.75,0,0,1,1002.23,507.43Zm-4.6.06c0,1.27.73,2.23,1.76,2.23s1.76-1,1.76-2.25c0-1-.49-2.24-1.74-2.24S997.63,506.39,997.63,507.49Z" transform="translate(-78.14 -63.72)"/><path class="cls-4" d="M1003.57,506.15c0-.6,0-1.09-.05-1.57h.93l.06.95h0a2.14,2.14,0,0,1,1.92-1.09c.8,0,2,.48,2,2.47v3.47h-1.06V507c0-.93-.35-1.71-1.34-1.71a1.5,1.5,0,0,0-1.42,1.08,1.75,1.75,0,0,0-.07.49v3.49h-1Z" transform="translate(-78.14 -63.72)"/><path class="cls-4" d="M1010.48,504.58l1.14,3.26a15.39,15.39,0,0,1,.46,1.48h0c.13-.47.3-1,.49-1.48l1.13-3.26h1.1l-2.28,5.8h-1l-2.21-5.8Z" transform="translate(-78.14 -63.72)"/><path class="cls-4" d="M989.65,590.84a9.84,9.84,0,0,1,1.91-.17,3.33,3.33,0,0,1,2.22.59,1.69,1.69,0,0,1,.67,1.43,1.91,1.91,0,0,1-1.37,1.77v0a2.09,2.09,0,0,1,1.67,2,2.21,2.21,0,0,1-.68,1.62,4.06,4.06,0,0,1-2.8.76,11.75,11.75,0,0,1-1.62-.1Zm1.05,3.31h.94c1.11,0,1.76-.58,1.76-1.36,0-.94-.72-1.32-1.78-1.32a4,4,0,0,0-.92.08Zm0,3.87a5,5,0,0,0,.87.05c1.08,0,2.08-.4,2.08-1.57s-.95-1.56-2.09-1.56h-.86Z" transform="translate(-78.14 -63.72)"/><path class="cls-4" d="M999.34,598.81l-.09-.73h0a2.17,2.17,0,0,1-1.78.87,1.65,1.65,0,0,1-1.77-1.67c0-1.4,1.24-2.17,3.49-2.16V595a1.2,1.2,0,0,0-1.32-1.34,2.81,2.81,0,0,0-1.51.43l-.24-.7a3.6,3.6,0,0,1,1.9-.51c1.78,0,2.21,1.21,2.21,2.37v2.17a8.32,8.32,0,0,0,.09,1.39Zm-.16-3c-1.15,0-2.46.18-2.46,1.31a.94.94,0,0,0,1,1,1.44,1.44,0,0,0,1.4-1,.92.92,0,0,0,.06-.33Z" transform="translate(-78.14 -63.72)"/><path class="cls-4" d="M1003.13,591.34V593h1.51v.8h-1.51v3.13c0,.72.2,1.13.79,1.13a2.6,2.6,0,0,0,.61-.07l.05.79a2.69,2.69,0,0,1-.94.14,1.43,1.43,0,0,1-1.13-.44,2.15,2.15,0,0,1-.41-1.51v-3.17h-.9V593h.9v-1.39Z" transform="translate(-78.14 -63.72)"/><path class="cls-4" d="M1009.9,598.6a4,4,0,0,1-1.67.33,2.75,2.75,0,0,1-2.89-3,2.94,2.94,0,0,1,3.12-3.08,3.44,3.44,0,0,1,1.46.3l-.24.81a2.5,2.5,0,0,0-1.22-.27,2.19,2.19,0,0,0,0,4.36,3,3,0,0,0,1.29-.28Z" transform="translate(-78.14 -63.72)"/><path class="cls-4" d="M1011.13,590.3h1.06v3.62h0a1.93,1.93,0,0,1,.76-.74,2.16,2.16,0,0,1,1.08-.3c.78,0,2,.48,2,2.48v3.45H1015v-3.33c0-.94-.35-1.73-1.34-1.73a1.51,1.51,0,0,0-1.42,1.06,1.26,1.26,0,0,0-.07.5v3.5h-1.06Z" transform="translate(-78.14 -63.72)"/><path class="cls-4" d="M989.51,613.21v-8.08h1.14l2.59,4.09a22.28,22.28,0,0,1,1.45,2.63l0,0c-.09-1.07-.11-2.06-.11-3.32v-3.38h1v8.08h-1.06l-2.56-4.1a23,23,0,0,1-1.51-2.7l0,0c.06,1,.08,2,.08,3.33v3.45Z" transform="translate(-78.14 -63.72)"/><path class="cls-4" d="M1002.62,610.26a2.84,2.84,0,0,1-2.89,3.09,2.76,2.76,0,0,1-2.78-3,2.83,2.83,0,0,1,2.88-3.08A2.74,2.74,0,0,1,1002.62,610.26Zm-4.6.06c0,1.27.73,2.23,1.76,2.23s1.76-.94,1.76-2.25c0-1-.49-2.23-1.74-2.23S998,609.22,998,610.32Z" transform="translate(-78.14 -63.72)"/><path class="cls-4" d="M1004,609.22c0-.68,0-1.27-.05-1.81h.92l0,1.14h0a1.74,1.74,0,0,1,1.6-1.27,1.32,1.32,0,0,1,.3,0v1a1.23,1.23,0,0,0-.36,0,1.48,1.48,0,0,0-1.41,1.36,3.37,3.37,0,0,0,0,.49v3.09h-1Z" transform="translate(-78.14 -63.72)"/><path class="cls-4" d="M1007.93,609c0-.6,0-1.09,0-1.57h.93l0,.93h0a2,2,0,0,1,1.82-1.06,1.74,1.74,0,0,1,1.65,1.16h0a2.31,2.31,0,0,1,.65-.75,2,2,0,0,1,1.28-.41c.77,0,1.91.5,1.91,2.52v3.41h-1v-3.28c0-1.12-.41-1.79-1.26-1.79a1.36,1.36,0,0,0-1.25,1,1.69,1.69,0,0,0-.08.53v3.58h-1v-3.47c0-.93-.4-1.6-1.21-1.6a1.43,1.43,0,0,0-1.3,1.06,1.4,1.4,0,0,0-.09.51v3.5h-1Z" transform="translate(-78.14 -63.72)"/><path class="cls-4" d="M694.86,723.05a15.81,15.81,0,0,1,2.22-.17,4.6,4.6,0,0,1,3.27,1,3.73,3.73,0,0,1,1.14,2.9,4.32,4.32,0,0,1-1.16,3.15,5,5,0,0,1-3.58,1.16,16.72,16.72,0,0,1-1.89-.1Zm1,7.15a6.45,6.45,0,0,0,1.06.06,3.11,3.11,0,0,0,3.44-3.43c0-1.91-1.07-3.12-3.27-3.12a6,6,0,0,0-1.23.11Z" transform="translate(-78.14 -63.72)"/><path class="cls-4" d="M703.45,728.32a1.86,1.86,0,0,0,2,2,3.8,3.8,0,0,0,1.61-.3l.18.76a4.67,4.67,0,0,1-1.93.36,2.7,2.7,0,0,1-2.86-2.93c0-1.75,1-3.13,2.73-3.13a2.47,2.47,0,0,1,2.4,2.74,4.35,4.35,0,0,1,0,.49Zm3.1-.76a1.5,1.5,0,0,0-1.47-1.71,1.76,1.76,0,0,0-1.62,1.71Z" transform="translate(-78.14 -63.72)"/><path class="cls-4" d="M708.88,726.79c0-.6,0-1.09,0-1.57h.93l.06,1h0a2.13,2.13,0,0,1,1.92-1.09c.8,0,2.05.48,2.05,2.47V731h-1.06v-3.35c0-.93-.35-1.71-1.34-1.71a1.5,1.5,0,0,0-1.42,1.08,1.75,1.75,0,0,0-.07.49V731h-1Z" transform="translate(-78.14 -63.72)"/><path class="cls-4" d="M715.39,730a2.79,2.79,0,0,0,1.39.42c.77,0,1.13-.38,1.13-.86s-.3-.78-1.08-1.07c-1-.37-1.53-1-1.53-1.65a1.79,1.79,0,0,1,2-1.7,2.94,2.94,0,0,1,1.43.36l-.27.77a2.31,2.31,0,0,0-1.19-.34c-.62,0-1,.36-1,.8s.35.69,1.11,1c1,.38,1.52.89,1.52,1.75,0,1-.79,1.74-2.17,1.74a3.3,3.3,0,0,1-1.63-.4Z" transform="translate(-78.14 -63.72)"/><path class="cls-4" d="M720.88,728.32a1.85,1.85,0,0,0,2,2,3.75,3.75,0,0,0,1.6-.3l.18.76a4.63,4.63,0,0,1-1.93.36,2.7,2.7,0,0,1-2.85-2.93c0-1.75,1-3.13,2.72-3.13a2.46,2.46,0,0,1,2.4,2.74,4.35,4.35,0,0,1,0,.49Zm3.09-.76a1.5,1.5,0,0,0-1.46-1.71,1.74,1.74,0,0,0-1.62,1.71Z" transform="translate(-78.14 -63.72)"/><path class="cls-4" d="M775.34,723.05a15.93,15.93,0,0,1,2.22-.16,4.65,4.65,0,0,1,3.28,1A3.74,3.74,0,0,1,782,726.8a4.28,4.28,0,0,1-1.17,3.14,5,5,0,0,1-3.57,1.16,16.77,16.77,0,0,1-1.9-.1Zm1,7.15a6.25,6.25,0,0,0,1.05.06,3.11,3.11,0,0,0,3.44-3.43c0-1.91-1.06-3.12-3.27-3.12a5.82,5.82,0,0,0-1.22.11Z" transform="translate(-78.14 -63.72)"/><path class="cls-4" d="M783.93,728.32a1.86,1.86,0,0,0,2,2,3.75,3.75,0,0,0,1.6-.3l.18.76a4.63,4.63,0,0,1-1.93.36,2.7,2.7,0,0,1-2.85-2.93c0-1.75,1-3.13,2.72-3.13a2.47,2.47,0,0,1,2.4,2.74,4.35,4.35,0,0,1,0,.49Zm3.1-.76a1.5,1.5,0,0,0-1.46-1.71,1.74,1.74,0,0,0-1.62,1.71Z" transform="translate(-78.14 -63.72)"/><path class="cls-4" d="M789.36,726.8c0-.6,0-1.1-.05-1.58h.94l.06,1h0a2.14,2.14,0,0,1,1.92-1.09c.8,0,2,.48,2,2.47V731h-1v-3.35c0-.93-.35-1.71-1.35-1.71a1.5,1.5,0,0,0-1.41,1.08,1.44,1.44,0,0,0-.08.49V731h-1Z" transform="translate(-78.14 -63.72)"/><path class="cls-4" d="M795.88,730a2.79,2.79,0,0,0,1.39.42c.76,0,1.12-.38,1.12-.86s-.3-.78-1.08-1.07c-1-.37-1.53-1-1.53-1.64a1.79,1.79,0,0,1,2-1.71,2.91,2.91,0,0,1,1.43.36l-.26.77a2.31,2.31,0,0,0-1.19-.34c-.63,0-1,.36-1,.8s.34.69,1.1,1c1,.38,1.52.89,1.52,1.75,0,1-.79,1.74-2.17,1.74a3.33,3.33,0,0,1-1.63-.4Z" transform="translate(-78.14 -63.72)"/><path class="cls-4" d="M801.36,728.32a1.85,1.85,0,0,0,2,2A3.8,3.8,0,0,0,805,730l.18.76a4.71,4.71,0,0,1-1.93.36,2.7,2.7,0,0,1-2.86-2.93c0-1.75,1-3.13,2.72-3.13a2.46,2.46,0,0,1,2.4,2.74,4.88,4.88,0,0,1,0,.49Zm3.09-.76a1.5,1.5,0,0,0-1.46-1.71,1.75,1.75,0,0,0-1.62,1.71Z" transform="translate(-78.14 -63.72)"/><path class="cls-4" d="M603,261.56c-.06-1.13-.13-2.48-.12-3.49h0c-.27.95-.61,2-1,3.07l-1.43,3.92h-.79l-1.3-3.85c-.39-1.14-.71-2.18-.94-3.14h0c0,1-.09,2.36-.16,3.57l-.22,3.47h-1l.56-8.08h1.33l1.38,3.91c.34,1,.61,1.88.82,2.72h0c.21-.82.5-1.7.86-2.72L602.4,257h1.33l.5,8.08h-1Z" transform="translate(-78.14 -63.72)"/><path class="cls-4" d="M610.7,263.53c0,.6,0,1.13,0,1.58h-.94l-.06-.95h0a2.19,2.19,0,0,1-1.92,1.08c-.91,0-2-.5-2-2.54v-3.39h1.05v3.21c0,1.1.34,1.85,1.3,1.85a1.53,1.53,0,0,0,1.39-1,1.57,1.57,0,0,0,.09-.54v-3.56h1.06Z" transform="translate(-78.14 -63.72)"/><path class="cls-4" d="M612.46,256.6h1v8.51h-1Z" transform="translate(-78.14 -63.72)"/><path class="cls-4" d="M616.56,257.64v1.67h1.51v.8h-1.51v3.13c0,.72.2,1.13.79,1.13a2.68,2.68,0,0,0,.61-.07l0,.79a2.69,2.69,0,0,1-.94.14,1.5,1.5,0,0,1-1.14-.44,2.15,2.15,0,0,1-.4-1.51v-3.17h-.9v-.8h.9v-1.39Z" transform="translate(-78.14 -63.72)"/><path class="cls-4" d="M620.43,257.67a.62.62,0,0,1-.67.65.63.63,0,0,1-.63-.65.63.63,0,0,1,.66-.65A.62.62,0,0,1,620.43,257.67Zm-1.17,7.44v-5.8h1v5.8Z" transform="translate(-78.14 -63.72)"/><path class="cls-4" d="M624.51,261.48v.78h-3v-.78Z" transform="translate(-78.14 -63.72)"/><path class="cls-4" d="M595.25,271.54a14.44,14.44,0,0,1,2.22-.17,4.65,4.65,0,0,1,3.28,1,3.74,3.74,0,0,1,1.14,2.91,4.25,4.25,0,0,1-1.17,3.14,5,5,0,0,1-3.57,1.16,17,17,0,0,1-1.9-.09Zm1,7.14a6.25,6.25,0,0,0,1.05.06,3.1,3.1,0,0,0,3.44-3.43c0-1.9-1.06-3.12-3.27-3.12a5.82,5.82,0,0,0-1.22.11Z" transform="translate(-78.14 -63.72)"/><path class="cls-4" d="M603.84,276.8a1.86,1.86,0,0,0,2,2,3.93,3.93,0,0,0,1.6-.29l.18.75a4.63,4.63,0,0,1-1.93.36,2.69,2.69,0,0,1-2.85-2.93c0-1.75,1-3.13,2.72-3.13a2.46,2.46,0,0,1,2.4,2.74,4.35,4.35,0,0,1,0,.49Zm3.1-.76a1.5,1.5,0,0,0-1.46-1.71,1.74,1.74,0,0,0-1.62,1.71Z" transform="translate(-78.14 -63.72)"/><path class="cls-4" d="M609.27,275.28c0-.6,0-1.09,0-1.57h.94l.06,1h0a2.13,2.13,0,0,1,1.92-1.1c.8,0,2.05.48,2.05,2.47v3.47h-1.05v-3.35c0-.93-.35-1.71-1.35-1.71a1.5,1.5,0,0,0-1.41,1.08,1.44,1.44,0,0,0-.08.49v3.49h-1.05Z" transform="translate(-78.14 -63.72)"/><path class="cls-4" d="M615.79,278.43a2.69,2.69,0,0,0,1.39.42c.76,0,1.12-.38,1.12-.86s-.3-.78-1.08-1.07c-1-.37-1.53-.95-1.53-1.64a1.79,1.79,0,0,1,2-1.71,2.91,2.91,0,0,1,1.43.36l-.26.77a2.32,2.32,0,0,0-1.19-.33c-.63,0-1,.36-1,.79s.34.69,1.1,1c1,.38,1.52.89,1.52,1.75,0,1-.79,1.74-2.17,1.74a3.33,3.33,0,0,1-1.63-.4Z" transform="translate(-78.14 -63.72)"/><path class="cls-4" d="M621.27,276.8a1.85,1.85,0,0,0,2,2,4,4,0,0,0,1.61-.29l.18.75a4.71,4.71,0,0,1-1.93.36,2.7,2.7,0,0,1-2.86-2.93c0-1.75,1-3.13,2.72-3.13a2.46,2.46,0,0,1,2.4,2.74,4.88,4.88,0,0,1,0,.49Zm3.09-.76a1.49,1.49,0,0,0-1.46-1.71,1.75,1.75,0,0,0-1.62,1.71Z" transform="translate(-78.14 -63.72)"/><path class="cls-4" d="M879.63,264.4a10.74,10.74,0,0,1,2-.17,3.28,3.28,0,0,1,2.34.66,2,2,0,0,1,.64,1.53,2.13,2.13,0,0,1-1.52,2.07v0a2,2,0,0,1,1.18,1.63,13,13,0,0,0,.63,2.22h-1.08a10.79,10.79,0,0,1-.54-1.93c-.24-1.11-.67-1.53-1.62-1.57h-1v3.5h-1Zm1,3.68h1.06c1.12,0,1.83-.61,1.83-1.54s-.76-1.5-1.86-1.51a4,4,0,0,0-1,.1Z" transform="translate(-78.14 -63.72)"/><path class="cls-4" d="M886.69,269.66a1.86,1.86,0,0,0,2,2,4,4,0,0,0,1.61-.3l.18.75a4.71,4.71,0,0,1-1.93.36,2.7,2.7,0,0,1-2.86-2.93c0-1.75,1-3.12,2.72-3.12a2.45,2.45,0,0,1,2.4,2.73,4.68,4.68,0,0,1,0,.49Zm3.09-.75a1.5,1.5,0,0,0-1.46-1.72,1.74,1.74,0,0,0-1.62,1.72Z" transform="translate(-78.14 -63.72)"/><path class="cls-4" d="M892,271.29a2.69,2.69,0,0,0,1.39.42c.77,0,1.13-.38,1.13-.86s-.3-.78-1.08-1.07c-1-.37-1.54-.95-1.54-1.64a1.79,1.79,0,0,1,2-1.7,2.9,2.9,0,0,1,1.42.35l-.26.77a2.32,2.32,0,0,0-1.19-.33c-.62,0-1,.36-1,.79s.35.69,1.1,1c1,.39,1.53.89,1.53,1.75,0,1-.8,1.74-2.18,1.74a3.33,3.33,0,0,1-1.63-.39Z" transform="translate(-78.14 -63.72)"/><path class="cls-4" d="M905.09,272.11a5.2,5.2,0,0,1-2.13.38,3.78,3.78,0,0,1-4-4.09,4,4,0,0,1,4.23-4.24,4.2,4.2,0,0,1,1.91.36l-.25.85a3.8,3.8,0,0,0-1.63-.34,3,3,0,0,0-3.15,3.34,2.94,2.94,0,0,0,3.1,3.25,4.26,4.26,0,0,0,1.71-.34Z" transform="translate(-78.14 -63.72)"/><path class="cls-4" d="M906.4,272.37v-8.08h1.14l2.59,4.09a23,23,0,0,1,1.45,2.62h0c-.1-1.08-.12-2.06-.12-3.32v-3.38h1v8.08h-1.05l-2.57-4.1a26.34,26.34,0,0,1-1.51-2.7h0c.06,1,.09,2,.09,3.34v3.45Z" transform="translate(-78.14 -63.72)"/><path class="cls-4" d="M914.3,272.37v-8.08h1.14l2.59,4.09a23,23,0,0,1,1.45,2.62h0c-.09-1.08-.12-2.06-.12-3.32v-3.38h1v8.08h-1.06l-2.56-4.1a24.7,24.7,0,0,1-1.52-2.7h0c.06,1,.08,2,.08,3.34v3.45Z" transform="translate(-78.14 -63.72)"/><path class="cls-20" d="M597.23,673.44l-.84,2.55h-1.08l2.75-8.09h1.26l2.76,8.09H601l-.86-2.55Zm2.65-.81-.79-2.33c-.18-.53-.3-1-.42-1.47h0c-.12.48-.26,1-.41,1.46l-.79,2.34Z" transform="translate(-78.14 -63.72)"/><path class="cls-20" d="M604.38,668.51v1.67h1.51v.8h-1.51v3.13c0,.72.21,1.13.79,1.13a2.29,2.29,0,0,0,.62-.07l0,.79a2.39,2.39,0,0,1-.93.15,1.46,1.46,0,0,1-1.14-.45,2.15,2.15,0,0,1-.41-1.51V671h-.9v-.8h.9v-1.39Z" transform="translate(-78.14 -63.72)"/><path class="cls-20" d="M608.36,668.51v1.67h1.51v.8h-1.51v3.13c0,.72.2,1.13.79,1.13a2.21,2.21,0,0,0,.61-.07l0,.79a2.48,2.48,0,0,1-.94.15,1.46,1.46,0,0,1-1.14-.45,2.15,2.15,0,0,1-.41-1.51V671h-.9v-.8h.9v-1.39Z" transform="translate(-78.14 -63.72)"/><path class="cls-20" d="M611.57,673.28a1.86,1.86,0,0,0,2,2,3.8,3.8,0,0,0,1.61-.3l.18.76a4.84,4.84,0,0,1-1.93.36,2.7,2.7,0,0,1-2.86-2.93c0-1.75,1-3.13,2.73-3.13a2.46,2.46,0,0,1,2.4,2.73,4.36,4.36,0,0,1,0,.5Zm3.1-.76a1.5,1.5,0,0,0-1.47-1.71,1.75,1.75,0,0,0-1.62,1.71Z" transform="translate(-78.14 -63.72)"/><path class="cls-20" d="M617,671.75c0-.6,0-1.09,0-1.57h.93l.06,1h0a2.13,2.13,0,0,1,1.92-1.09c.8,0,2.05.48,2.05,2.47V676h-1.06v-3.35c0-.94-.35-1.71-1.34-1.71a1.5,1.5,0,0,0-1.42,1.07,1.89,1.89,0,0,0-.07.5V676h-1Z" transform="translate(-78.14 -63.72)"/><path class="cls-20" d="M626.1,672.35v.78h-3v-.78Z" transform="translate(-78.14 -63.72)"/><path class="cls-20" d="M602.87,682.91v1.67h1.51v.8h-1.51v3.14c0,.71.2,1.12.79,1.12a2.15,2.15,0,0,0,.61-.07l.05.79a2.42,2.42,0,0,1-.93.15,1.45,1.45,0,0,1-1.14-.45,2.15,2.15,0,0,1-.41-1.51v-3.17h-.9v-.8h.9v-1.39Z" transform="translate(-78.14 -63.72)"/><path class="cls-20" d="M606.75,683a.66.66,0,0,1-1.31,0,.64.64,0,0,1,.66-.66A.63.63,0,0,1,606.75,683Zm-1.18,7.44v-5.81h1.06v5.81Z" transform="translate(-78.14 -63.72)"/><path class="cls-20" d="M613.63,687.44a2.84,2.84,0,0,1-2.89,3.08,2.76,2.76,0,0,1-2.78-3,2.83,2.83,0,0,1,2.88-3.08A2.74,2.74,0,0,1,613.63,687.44Zm-4.6.06c0,1.27.73,2.23,1.76,2.23s1.76-1,1.76-2.26c0-1-.49-2.23-1.74-2.23S609,686.39,609,687.5Z" transform="translate(-78.14 -63.72)"/><path class="cls-20" d="M615,686.15c0-.6,0-1.09-.05-1.57h.94l0,1h0a2.14,2.14,0,0,1,1.92-1.09c.8,0,2,.48,2,2.47v3.47h-1.06V687c0-.94-.34-1.72-1.34-1.72a1.51,1.51,0,0,0-1.42,1.08,1.89,1.89,0,0,0-.07.5v3.49h-1Z" transform="translate(-78.14 -63.72)"/><path class="cls-4" d="M383.09,329h-4.82v-9.14h4.62v.84h-3.62v3.1h3.4v.82h-3.4v3.54h3.82Z" transform="translate(-78.14 -63.72)"/><path class="cls-4" d="M389.77,329h-1v-3.86c0-1.07-.38-2-1.52-2a1.79,1.79,0,0,0-1.72,1.86v4h-1v-4.86c0-.67,0-1.16-.05-1.69h.89l.06,1.07h0a2.32,2.32,0,0,1,2.1-1.21c.82,0,2.21.49,2.21,2.71Z" transform="translate(-78.14 -63.72)"/><path class="cls-4" d="M396.12,328.75a4.12,4.12,0,0,1-1.78.37,3,3,0,0,1-3.11-3.33,3.27,3.27,0,0,1,3.35-3.49,3.48,3.48,0,0,1,1.57.35l-.25.8a2.62,2.62,0,0,0-1.34-.34,2.36,2.36,0,0,0-2.31,2.62,2.31,2.31,0,0,0,2.27,2.58,3.13,3.13,0,0,0,1.41-.33Z" transform="translate(-78.14 -63.72)"/><path class="cls-4" d="M403.06,325.67c0,2.43-1.6,3.47-3.06,3.47-1.68,0-3-1.26-3-3.37s1.39-3.47,3.06-3.47S403.06,323.67,403.06,325.67Zm-3-2.59c-1.41,0-2,1.39-2,2.65,0,1.45.8,2.63,2,2.63s2-1.18,2-2.65C402,324.54,401.48,323.08,400.05,323.08Z" transform="translate(-78.14 -63.72)"/><path class="cls-4" d="M409.85,327.37c0,.53,0,1.18,0,1.62H409l0-1.11h0a2.32,2.32,0,0,1-2.13,1.26c-1.51,0-2.69-1.31-2.69-3.33,0-2.2,1.29-3.5,2.82-3.5a2.08,2.08,0,0,1,1.9,1h0V319.4h1Zm-1-2.3a1.81,1.81,0,0,0-1.76-2c-1.24,0-2,1.16-2,2.66s.65,2.55,1.93,2.55a1.88,1.88,0,0,0,1.8-2Z" transform="translate(-78.14 -63.72)"/><path class="cls-4" d="M416.45,328.72a4.74,4.74,0,0,1-2.05.4,3,3,0,0,1-3-3.29c0-2.06,1.15-3.53,2.91-3.53,2,0,2.53,1.85,2.53,3,0,.22,0,.39,0,.55h-4.45c0,1.81,1,2.49,2.22,2.49a4.28,4.28,0,0,0,1.71-.33Zm-.63-3.63c0-.88-.36-2-1.65-2s-1.72,1.14-1.82,2Z" transform="translate(-78.14 -63.72)"/><path class="cls-4" d="M421.28,323.29l-.36,0c-1.08,0-1.63,1.07-1.63,2.17V329h-1v-4.58c0-.7,0-1.33,0-2h.87l.05,1.26h0a2,2,0,0,1,1.78-1.4c.11,0,.19,0,.3,0Z" transform="translate(-78.14 -63.72)"/><path class="cls-4" d="M383,992.15a14.17,14.17,0,0,1,2.3-.2c3.67,0,4.72,2.17,4.72,4.42a5,5,0,0,1-1.24,3.58,5.22,5.22,0,0,1-3.8,1.29,16.41,16.41,0,0,1-2-.1Zm1,8.22a8,8,0,0,0,1.17.06c2.47,0,3.82-1.4,3.82-4,0-2.38-1.27-3.66-3.64-3.66a7.18,7.18,0,0,0-1.35.12Z" transform="translate(-78.14 -63.72)"/><path class="cls-4" d="M396.11,1000.89a4.7,4.7,0,0,1-2.05.41,3,3,0,0,1-3-3.3c0-2,1.15-3.53,2.91-3.53,2,0,2.53,1.85,2.53,3,0,.23,0,.4,0,.55H392c0,1.81,1,2.5,2.22,2.5a4.09,4.09,0,0,0,1.71-.34Zm-.63-3.62c0-.89-.36-2-1.65-2s-1.72,1.14-1.82,2Z" transform="translate(-78.14 -63.72)"/><path class="cls-4" d="M402.37,1000.93a4.28,4.28,0,0,1-1.78.37,3,3,0,0,1-3.11-3.34,3.28,3.28,0,0,1,3.35-3.49,3.62,3.62,0,0,1,1.57.35l-.25.8a2.74,2.74,0,0,0-1.34-.33,2.35,2.35,0,0,0-2.31,2.61,2.3,2.3,0,0,0,2.27,2.58,3.38,3.38,0,0,0,1.42-.32Z" transform="translate(-78.14 -63.72)"/><path class="cls-4" d="M409.31,997.84c0,2.44-1.6,3.47-3.06,3.47-1.67,0-3-1.26-3-3.37s1.39-3.47,3.06-3.47S409.31,995.84,409.31,997.84Zm-3-2.59c-1.41,0-2,1.39-2,2.65,0,1.45.8,2.63,2,2.63s2-1.18,2-2.65C408.29,996.71,407.73,995.25,406.3,995.25Z" transform="translate(-78.14 -63.72)"/><path class="cls-4" d="M416.11,999.55c0,.52,0,1.17,0,1.61h-.88l0-1.11h0a2.31,2.31,0,0,1-2.13,1.26c-1.51,0-2.69-1.31-2.69-3.32,0-2.21,1.3-3.51,2.82-3.51a2.1,2.1,0,0,1,1.91,1h0v-3.92h1Zm-1-2.31a1.81,1.81,0,0,0-1.76-2c-1.24,0-2,1.15-2,2.65s.65,2.55,1.93,2.55a1.88,1.88,0,0,0,1.8-2Z" transform="translate(-78.14 -63.72)"/><path class="cls-4" d="M422.71,1000.89a4.78,4.78,0,0,1-2,.41,3,3,0,0,1-3.05-3.3c0-2,1.15-3.53,2.91-3.53,2,0,2.53,1.85,2.53,3,0,.23,0,.4,0,.55h-4.45c0,1.81,1,2.5,2.22,2.5a4.05,4.05,0,0,0,1.71-.34Zm-.64-3.62c0-.89-.36-2-1.64-2s-1.73,1.14-1.83,2Z" transform="translate(-78.14 -63.72)"/><path class="cls-4" d="M427.53,995.47a3.48,3.48,0,0,0-.36,0c-1.08,0-1.63,1.07-1.63,2.17v3.55h-1v-4.58c0-.69,0-1.33,0-2h.87l.05,1.26h0a2,2,0,0,1,1.77-1.41c.11,0,.19,0,.3,0Z" transform="translate(-78.14 -63.72)"/><path class="cls-4" d="M248.38,98.22a7.46,7.46,0,0,1-2.49.45,4.14,4.14,0,0,1-3-1.07,4.18,4.18,0,0,1-1.13-3,4.06,4.06,0,0,1,4.38-4.17,5,5,0,0,1,2,.37l-.26.85a4.19,4.19,0,0,0-1.78-.35,3,3,0,0,0-3.25,3.25A3,3,0,0,0,246,97.8a3.43,3.43,0,0,0,1.39-.21V95.18h-1.65v-.84h2.67Z" transform="translate(-78.14 -63.72)"/><path class="cls-4" d="M249.94,90.07H251v8.51h-1.06Z" transform="translate(-78.14 -63.72)"/><path class="cls-4" d="M253.16,92.78l1.27,3.43c.13.38.27.84.37,1.19h0c.11-.35.23-.8.37-1.22l1.16-3.4h1.11l-1.58,4.14c-.76,2-1.27,3-2,3.63a2.73,2.73,0,0,1-1.3.68l-.26-.88a3,3,0,0,0,.92-.52,3.22,3.22,0,0,0,.89-1.18.64.64,0,0,0,.08-.25.81.81,0,0,0-.07-.27L252,92.78Z" transform="translate(-78.14 -63.72)"/><path class="cls-4" d="M258.42,94.67c0-.74,0-1.34,0-1.89h.94l.05,1h0a2.31,2.31,0,0,1,2.07-1.12c1.4,0,2.46,1.18,2.46,2.95,0,2.08-1.27,3.11-2.64,3.11a2,2,0,0,1-1.79-.91h0V101h-1.05Zm1.05,1.55a2.74,2.74,0,0,0,0,.43,1.65,1.65,0,0,0,1.59,1.24c1.11,0,1.76-.91,1.76-2.25,0-1.16-.61-2.15-1.73-2.15a1.67,1.67,0,0,0-1.59,1.3,1.56,1.56,0,0,0-.07.44Z" transform="translate(-78.14 -63.72)"/><path class="cls-4" d="M265.25,90.07h1.06v3.62h0a1.93,1.93,0,0,1,.76-.74,2.16,2.16,0,0,1,1.08-.3c.78,0,2,.48,2,2.48v3.45h-1.05V95.25c0-.94-.35-1.73-1.35-1.73a1.51,1.51,0,0,0-1.41,1.06,1.26,1.26,0,0,0-.07.5v3.5h-1.06Z" transform="translate(-78.14 -63.72)"/><path class="cls-4" d="M275.54,90.5v8.08h-1.05V90.5Z" transform="translate(-78.14 -63.72)"/><path class="cls-4" d="M277.44,94.35c0-.6,0-1.09-.05-1.57h.93l.05.93h0a2,2,0,0,1,1.83-1.06,1.71,1.71,0,0,1,1.64,1.16h0a2.46,2.46,0,0,1,.65-.76,2,2,0,0,1,1.28-.4c.77,0,1.91.5,1.91,2.52v3.41h-1V95.3c0-1.12-.41-1.79-1.26-1.79a1.36,1.36,0,0,0-1.25,1,1.69,1.69,0,0,0-.08.53v3.58h-1V95.11c0-.93-.41-1.6-1.21-1.6a1.45,1.45,0,0,0-1.31,1.06,1.4,1.4,0,0,0-.09.51v3.5h-1Z" transform="translate(-78.14 -63.72)"/><path class="cls-4" d="M290.67,98.58l-.09-.73h0a2.16,2.16,0,0,1-1.78.86A1.65,1.65,0,0,1,287,97.05c0-1.41,1.24-2.17,3.49-2.16v-.12a1.2,1.2,0,0,0-1.32-1.34,2.81,2.81,0,0,0-1.51.43l-.24-.7a3.6,3.6,0,0,1,1.9-.51c1.78,0,2.21,1.21,2.21,2.37v2.17a8.32,8.32,0,0,0,.09,1.39Zm-.16-3c-1.15,0-2.46.18-2.46,1.31a.94.94,0,0,0,1,1,1.44,1.44,0,0,0,1.4-1,.92.92,0,0,0,.06-.33Z" transform="translate(-78.14 -63.72)"/><path class="cls-4" d="M298.24,92.78c0,.42-.05.89-.05,1.59v3.37a3.35,3.35,0,0,1-.83,2.65,3.06,3.06,0,0,1-2.11.7,3.76,3.76,0,0,1-1.93-.48l.26-.8a3.32,3.32,0,0,0,1.71.45c1.08,0,1.87-.56,1.87-2v-.65h0a2.05,2.05,0,0,1-1.84,1,2.59,2.59,0,0,1-2.47-2.83,2.78,2.78,0,0,1,2.61-3.08,1.92,1.92,0,0,1,1.81,1h0l.05-.87Zm-1.1,2.29a1.44,1.44,0,0,0-.06-.48,1.52,1.52,0,0,0-1.47-1.12c-1,0-1.73.86-1.73,2.2,0,1.14.58,2.09,1.72,2.09a1.54,1.54,0,0,0,1.46-1.08,1.87,1.87,0,0,0,.08-.57Z" transform="translate(-78.14 -63.72)"/><path class="cls-4" d="M300.53,95.87a1.86,1.86,0,0,0,2,2,3.8,3.8,0,0,0,1.61-.3l.18.75a4.67,4.67,0,0,1-1.93.36,2.69,2.69,0,0,1-2.86-2.92c0-1.75,1-3.13,2.73-3.13a2.45,2.45,0,0,1,2.39,2.73,4.68,4.68,0,0,1,0,.49Zm3.09-.75a1.5,1.5,0,0,0-1.46-1.72,1.76,1.76,0,0,0-1.62,1.72Z" transform="translate(-78.14 -63.72)"/><path class="cls-4" d="M128.92,412a12.27,12.27,0,0,1,2.07-.17c2.95,0,3.19,1.89,3.19,2.61,0,2.15-1.71,2.91-3.33,2.91a3.92,3.92,0,0,1-.94-.08V421h-1Zm1,4.44a3.77,3.77,0,0,0,1,.1c1.44,0,2.32-.72,2.32-2s-.94-1.88-2.19-1.88a6.12,6.12,0,0,0-1.09.09Z" transform="translate(-78.14 -63.72)"/><path class="cls-4" d="M138.71,415.34a1.94,1.94,0,0,0-.36,0c-1.08,0-1.63,1.07-1.63,2.17V421h-1v-4.58c0-.69,0-1.33-.05-1.95h.88l0,1.26h0a2,2,0,0,1,1.78-1.41c.11,0,.19,0,.3,0Z" transform="translate(-78.14 -63.72)"/><path class="cls-4" d="M144.5,420.76a4.7,4.7,0,0,1-2.05.41,3,3,0,0,1-3-3.3c0-2.05,1.15-3.53,2.91-3.53,2,0,2.53,1.85,2.53,3,0,.23,0,.39,0,.55h-4.45c0,1.81,1,2.49,2.22,2.49a4.11,4.11,0,0,0,1.71-.33Zm-.63-3.62c0-.89-.36-2-1.65-2s-1.72,1.14-1.82,2Z" transform="translate(-78.14 -63.72)"/><path class="cls-4" d="M151.37,414.5,148.88,421H148l-2.41-6.54h1.07l1.3,3.8c.21.59.39,1.14.53,1.68h0c.14-.54.33-1.09.54-1.68l1.29-3.79Z" transform="translate(-78.14 -63.72)"/><path class="cls-4" d="M153,413.35a.68.68,0,0,1,0-1.36.64.64,0,0,1,.65.67A.64.64,0,0,1,153,413.35Zm.5,7.68h-1V414.5h1Z" transform="translate(-78.14 -63.72)"/><path class="cls-4" d="M161,417.71c0,2.44-1.61,3.47-3.06,3.47-1.68,0-3-1.26-3-3.37s1.39-3.47,3.06-3.47S161,415.71,161,417.71Zm-3-2.59c-1.42,0-2,1.39-2,2.65,0,1.45.81,2.63,2,2.63s2-1.18,2-2.65C160,416.58,159.44,415.12,158,415.12Z" transform="translate(-78.14 -63.72)"/><path class="cls-4" d="M167.66,419.29c0,.68,0,1.24.06,1.74h-.9l0-1h0a2.36,2.36,0,0,1-2.09,1.18c-1,0-2.15-.57-2.15-2.82V414.5h1v3.68c0,1.27.37,2.16,1.46,2.16a1.74,1.74,0,0,0,1.71-1.78V414.5h1Z" transform="translate(-78.14 -63.72)"/><path class="cls-4" d="M172.69,415.49a2.38,2.38,0,0,0-1.27-.38,1,1,0,0,0-1.1,1c0,.56.37.83,1.21,1.19,1.05.43,1.67,1,1.67,2,0,1.17-.89,1.94-2.32,1.94a3.36,3.36,0,0,1-1.71-.45l.27-.77a3,3,0,0,0,1.48.45c.87,0,1.3-.47,1.3-1.06s-.34-.94-1.21-1.29c-1.1-.45-1.67-1.06-1.67-1.85a1.94,1.94,0,0,1,2.14-1.86,2.87,2.87,0,0,1,1.5.4Z" transform="translate(-78.14 -63.72)"/><path class="cls-4" d="M183.55,420.76a5.69,5.69,0,0,1-2.28.41c-2.35,0-4.24-1.53-4.24-4.62s1.83-4.79,4.5-4.79a4.62,4.62,0,0,1,2,.37l-.26.84a4,4,0,0,0-1.73-.37c-2.08,0-3.49,1.39-3.49,3.91s1.29,3.82,3.43,3.82a4.43,4.43,0,0,0,1.83-.38Z" transform="translate(-78.14 -63.72)"/><path class="cls-4" d="M190.52,417.71c0,2.44-1.6,3.47-3.06,3.47-1.68,0-3-1.26-3-3.37s1.39-3.47,3.06-3.47S190.52,415.71,190.52,417.71Zm-3-2.59c-1.41,0-2,1.39-2,2.65,0,1.45.8,2.63,2,2.63s2-1.18,2-2.65C189.5,416.58,188.94,415.12,187.51,415.12Z" transform="translate(-78.14 -63.72)"/><path class="cls-4" d="M197.31,419.41c0,.53,0,1.18.05,1.62h-.89l0-1.11h0a2.33,2.33,0,0,1-2.14,1.26c-1.51,0-2.68-1.31-2.68-3.32,0-2.21,1.29-3.51,2.82-3.51a2.09,2.09,0,0,1,1.9,1h0v-3.92h1Zm-1-2.3a1.81,1.81,0,0,0-1.77-1.95c-1.23,0-2,1.15-2,2.65s.65,2.55,1.93,2.55a1.88,1.88,0,0,0,1.8-2Z" transform="translate(-78.14 -63.72)"/><path class="cls-4" d="M203.91,420.76a4.7,4.7,0,0,1-2,.41,3,3,0,0,1-3-3.3c0-2.05,1.15-3.53,2.91-3.53,2,0,2.53,1.85,2.53,3,0,.23,0,.39,0,.55h-4.45c0,1.81,1,2.49,2.22,2.49a4.11,4.11,0,0,0,1.71-.33Zm-.63-3.62c0-.89-.36-2-1.65-2s-1.72,1.14-1.82,2Z" transform="translate(-78.14 -63.72)"/><path class="cls-4" d="M254.52,986.08h-1l-2.91-4.81a27.59,27.59,0,0,1-1.64-3h-.05c.08,1.17.09,2.23.09,3.82v4h-.93v-9.14h1l2.95,4.81a28.9,28.9,0,0,1,1.6,3h0c-.09-1.27-.12-2.36-.12-3.8v-4h1Z" transform="translate(-78.14 -63.72)"/><path class="cls-4" d="M261.16,985.8a4.8,4.8,0,0,1-2.06.41,3,3,0,0,1-3-3.3c0-2,1.15-3.53,2.91-3.53,2,0,2.53,1.85,2.53,3,0,.23,0,.4,0,.55H257c0,1.81,1,2.5,2.22,2.5a4.05,4.05,0,0,0,1.71-.34Zm-.64-3.62c0-.89-.36-2-1.64-2s-1.73,1.14-1.83,2Z" transform="translate(-78.14 -63.72)"/><path class="cls-4" d="M267.68,979.54l-2.16,3.17,2.22,3.37H266.6l-1-1.53c-.24-.39-.46-.75-.7-1.17h0a11,11,0,0,1-.7,1.17l-.95,1.53h-1.11l2.25-3.34-2.14-3.2h1.12l.94,1.45c.24.37.45.71.66,1.09h0c.2-.38.43-.74.66-1.09l.92-1.45Z" transform="translate(-78.14 -63.72)"/><path class="cls-4" d="M269.16,978.35l1-.33v1.52h1.69v.78h-1.69v3.78c0,.83.25,1.28.88,1.28a1.92,1.92,0,0,0,.67-.09l.06.76a2.4,2.4,0,0,1-1,.16c-1.58,0-1.63-1.44-1.63-2.14v-3.75h-1v-.78h1Z" transform="translate(-78.14 -63.72)"/><path class="cls-4" d="M282,985.8a5.52,5.52,0,0,1-2.28.41c-2.35,0-4.25-1.52-4.25-4.62s1.84-4.78,4.51-4.78a4.51,4.51,0,0,1,2,.37l-.27.84a3.9,3.9,0,0,0-1.73-.37c-2.07,0-3.49,1.39-3.49,3.91s1.3,3.81,3.43,3.81a4.66,4.66,0,0,0,1.84-.37Z" transform="translate(-78.14 -63.72)"/><path class="cls-4" d="M289,982.75c0,2.44-1.61,3.47-3.06,3.47-1.68,0-3-1.26-3-3.37s1.4-3.47,3.06-3.47S289,980.75,289,982.75Zm-3-2.59c-1.42,0-2,1.4-2,2.65,0,1.46.81,2.63,2,2.63s2-1.17,2-2.65C287.93,981.63,287.36,980.16,285.94,980.16Z" transform="translate(-78.14 -63.72)"/><path class="cls-4" d="M295.74,984.46c0,.53,0,1.17.05,1.62h-.89l0-1.12h0a2.28,2.28,0,0,1-2.13,1.26c-1.51,0-2.69-1.31-2.69-3.32,0-2.21,1.3-3.5,2.82-3.5a2.1,2.1,0,0,1,1.91,1h0v-3.92h1Zm-1-2.31A1.81,1.81,0,0,0,293,980.2c-1.24,0-2,1.15-2,2.65s.65,2.55,1.93,2.55a1.88,1.88,0,0,0,1.8-2Z" transform="translate(-78.14 -63.72)"/><path class="cls-4" d="M302.34,985.8a4.74,4.74,0,0,1-2,.41,3,3,0,0,1-3.05-3.3c0-2,1.15-3.53,2.92-3.53,2,0,2.53,1.85,2.53,3,0,.23,0,.4,0,.55h-4.45c0,1.81,1.05,2.5,2.22,2.5a4.11,4.11,0,0,0,1.72-.34Zm-.64-3.62c0-.89-.36-2-1.64-2s-1.73,1.14-1.82,2Z" transform="translate(-78.14 -63.72)"/><path class="cls-4" d="M736.08,855.3a14.44,14.44,0,0,1,2.22-.17,4.65,4.65,0,0,1,3.28,1,3.74,3.74,0,0,1,1.13,2.9,4.24,4.24,0,0,1-1.16,3.14,4.94,4.94,0,0,1-3.57,1.17,16.77,16.77,0,0,1-1.9-.1Zm1,7.15a6.25,6.25,0,0,0,1,.06,3.11,3.11,0,0,0,3.44-3.43c0-1.91-1.06-3.12-3.27-3.12a5.82,5.82,0,0,0-1.22.11Z" transform="translate(-78.14 -63.72)"/><path class="cls-4" d="M744.67,860.56a1.87,1.87,0,0,0,2,2,3.75,3.75,0,0,0,1.6-.3l.18.75a4.63,4.63,0,0,1-1.93.37,2.69,2.69,0,0,1-2.85-2.93c0-1.75,1-3.13,2.72-3.13a2.46,2.46,0,0,1,2.4,2.73,4,4,0,0,1,0,.49Zm3.1-.75a1.51,1.51,0,0,0-1.46-1.72,1.75,1.75,0,0,0-1.62,1.72Z" transform="translate(-78.14 -63.72)"/><path class="cls-4" d="M750.1,859c0-.6,0-1.09-.05-1.57H751l.06,1h0a2.14,2.14,0,0,1,1.92-1.09c.8,0,2,.48,2,2.47v3.46H754v-3.34c0-.94-.34-1.72-1.34-1.72a1.51,1.51,0,0,0-1.41,1.08,1.53,1.53,0,0,0-.08.49v3.49h-1Z" transform="translate(-78.14 -63.72)"/><path class="cls-4" d="M756.61,862.2a2.86,2.86,0,0,0,1.4.42c.76,0,1.12-.39,1.12-.87s-.3-.78-1.08-1.07c-1-.37-1.53-.94-1.53-1.64a1.79,1.79,0,0,1,2-1.7,2.94,2.94,0,0,1,1.43.36l-.27.77a2.15,2.15,0,0,0-1.18-.34c-.63,0-1,.36-1,.79s.34.7,1.1,1c1,.39,1.52.89,1.52,1.76s-.79,1.74-2.17,1.74a3.33,3.33,0,0,1-1.63-.4Z" transform="translate(-78.14 -63.72)"/><path class="cls-4" d="M762.1,860.56a1.86,1.86,0,0,0,2,2,3.83,3.83,0,0,0,1.61-.3l.18.75a4.67,4.67,0,0,1-1.93.37,2.7,2.7,0,0,1-2.86-2.93c0-1.75,1-3.13,2.72-3.13a2.46,2.46,0,0,1,2.4,2.73,4.49,4.49,0,0,1,0,.49Zm3.09-.75a1.5,1.5,0,0,0-1.46-1.72,1.75,1.75,0,0,0-1.62,1.72Z" transform="translate(-78.14 -63.72)"/><path class="cls-4" d="M504,397.27c-.06-1.13-.13-2.48-.12-3.49h0c-.27,1-.61,2-1,3.07l-1.42,3.92h-.8l-1.3-3.85c-.39-1.14-.71-2.18-.94-3.14h0c0,1-.09,2.36-.16,3.57l-.21,3.47h-1l.56-8.08h1.33l1.38,3.91c.34,1,.62,1.88.82,2.72h0c.2-.82.49-1.7.85-2.72l1.44-3.91h1.33l.5,8.08h-1Z" transform="translate(-78.14 -63.72)"/><path class="cls-4" d="M511.71,399.24c0,.6,0,1.12.05,1.58h-.94l-.06-.95h0a2.19,2.19,0,0,1-1.92,1.08c-.91,0-2-.5-2-2.54V395h1.05v3.22c0,1.1.34,1.85,1.3,1.85a1.53,1.53,0,0,0,1.39-1,1.57,1.57,0,0,0,.1-.54V395h1Z" transform="translate(-78.14 -63.72)"/><path class="cls-4" d="M513.47,392.3h1v8.52h-1Z" transform="translate(-78.14 -63.72)"/><path class="cls-4" d="M517.57,393.35V395h1.51v.81h-1.51V399c0,.72.2,1.13.79,1.13A2.08,2.08,0,0,0,519,400l0,.8a2.69,2.69,0,0,1-.94.14,1.47,1.47,0,0,1-1.13-.44,2.18,2.18,0,0,1-.41-1.52v-3.16h-.9V395h.9v-1.39Z" transform="translate(-78.14 -63.72)"/><path class="cls-4" d="M521.44,393.38a.62.62,0,0,1-.67.65.63.63,0,0,1-.63-.65.64.64,0,0,1,.66-.66A.62.62,0,0,1,521.44,393.38Zm-1.17,7.44V395h1.05v5.81Z" transform="translate(-78.14 -63.72)"/><path class="cls-4" d="M525.52,397.19V398h-3v-.77Z" transform="translate(-78.14 -63.72)"/><path class="cls-4" d="M531.12,400.6a3.81,3.81,0,0,1-1.67.34,2.76,2.76,0,0,1-2.89-3,3,3,0,0,1,3.12-3.09,3.6,3.6,0,0,1,1.46.3l-.24.82a2.48,2.48,0,0,0-1.22-.28,2.19,2.19,0,0,0,0,4.37,3,3,0,0,0,1.29-.29Z" transform="translate(-78.14 -63.72)"/><path class="cls-4" d="M537.53,397.87a2.83,2.83,0,0,1-2.89,3.08,2.76,2.76,0,0,1-2.78-3,2.83,2.83,0,0,1,2.88-3.08A2.74,2.74,0,0,1,537.53,397.87Zm-4.6.06c0,1.27.73,2.23,1.76,2.23s1.76-1,1.76-2.26c0-1-.49-2.23-1.73-2.23S532.93,396.83,532.93,397.93Z" transform="translate(-78.14 -63.72)"/><path class="cls-4" d="M543.88,392.3v7c0,.52,0,1.1,0,1.5H543l-.05-1h0a2.14,2.14,0,0,1-2,1.14c-1.4,0-2.48-1.19-2.48-2.95,0-1.93,1.19-3.12,2.6-3.12a1.93,1.93,0,0,1,1.75.89h0V392.3Zm-1,5.08a2.38,2.38,0,0,0-.05-.45,1.56,1.56,0,0,0-1.53-1.22c-1.09,0-1.73,1-1.73,2.24s.57,2.15,1.71,2.15a1.59,1.59,0,0,0,1.55-1.26,2.16,2.16,0,0,0,.05-.46Z" transform="translate(-78.14 -63.72)"/><path class="cls-4" d="M546.22,398.11a1.86,1.86,0,0,0,2,2,3.76,3.76,0,0,0,1.61-.3l.18.76a4.67,4.67,0,0,1-1.93.36,2.69,2.69,0,0,1-2.85-2.93c0-1.75,1-3.13,2.72-3.13a2.47,2.47,0,0,1,2.4,2.74,4.35,4.35,0,0,1,0,.49Zm3.1-.76a1.5,1.5,0,0,0-1.46-1.71,1.74,1.74,0,0,0-1.62,1.71Z" transform="translate(-78.14 -63.72)"/><path class="cls-4" d="M514.79,415a5.25,5.25,0,0,1-2.14.38,3.77,3.77,0,0,1-4-4.09,4,4,0,0,1,4.22-4.25,4.4,4.4,0,0,1,1.92.36l-.25.85a3.85,3.85,0,0,0-1.63-.33,3,3,0,0,0-3.16,3.33,2.94,2.94,0,0,0,3.11,3.25,4.25,4.25,0,0,0,1.7-.33Z" transform="translate(-78.14 -63.72)"/><path class="cls-4" d="M521.18,412.27a2.83,2.83,0,0,1-2.89,3.08,2.76,2.76,0,0,1-2.78-3,2.83,2.83,0,0,1,2.88-3.08A2.74,2.74,0,0,1,521.18,412.27Zm-4.6.06c0,1.27.73,2.23,1.76,2.23s1.76-.95,1.76-2.26c0-1-.49-2.23-1.73-2.23S516.58,411.23,516.58,412.33Z" transform="translate(-78.14 -63.72)"/><path class="cls-4" d="M527.38,413.64c0,.6,0,1.12,0,1.58h-.93l-.06-1h0a2.19,2.19,0,0,1-1.92,1.08c-.92,0-2-.5-2-2.54v-3.4h1.06v3.22c0,1.1.33,1.85,1.29,1.85a1.53,1.53,0,0,0,1.39-1,1.37,1.37,0,0,0,.1-.54v-3.57h1.06Z" transform="translate(-78.14 -63.72)"/><path class="cls-4" d="M529.13,411c0-.6,0-1.1,0-1.58H530l.06,1h0a2.14,2.14,0,0,1,1.92-1.09c.81,0,2.05.48,2.05,2.47v3.47H533v-3.35c0-.93-.35-1.71-1.35-1.71a1.5,1.5,0,0,0-1.41,1.08,1.45,1.45,0,0,0-.07.49v3.49h-1.06Z" transform="translate(-78.14 -63.72)"/><path class="cls-4" d="M537,407.75v1.66h1.52v.81H537v3.13c0,.72.21,1.13.8,1.13a2.13,2.13,0,0,0,.61-.08l0,.8a2.63,2.63,0,0,1-.93.14,1.49,1.49,0,0,1-1.14-.44,2.18,2.18,0,0,1-.41-1.52v-3.16h-.9v-.81h.9V408Z" transform="translate(-78.14 -63.72)"/><path class="cls-4" d="M309.38,397.27c-.06-1.13-.13-2.48-.12-3.49h0c-.27,1-.61,2-1,3.07l-1.43,3.92H306l-1.31-3.85c-.39-1.14-.71-2.18-.94-3.14h0c0,1-.09,2.36-.16,3.57l-.21,3.47h-1l.57-8.08h1.33l1.38,3.91c.33,1,.61,1.88.81,2.72h0a28.1,28.1,0,0,1,.85-2.72l1.44-3.91h1.33l.5,8.08h-1Z" transform="translate(-78.14 -63.72)"/><path class="cls-4" d="M315.47,400.82l-.09-.73h0a2.19,2.19,0,0,1-1.78.86,1.65,1.65,0,0,1-1.77-1.67c0-1.4,1.24-2.17,3.49-2.15V397a1.2,1.2,0,0,0-1.32-1.34,2.9,2.9,0,0,0-1.51.43l-.24-.69a3.6,3.6,0,0,1,1.9-.52c1.78,0,2.21,1.21,2.21,2.38v2.17a8.47,8.47,0,0,0,.09,1.39Zm-.16-3c-1.15,0-2.46.18-2.46,1.3a.94.94,0,0,0,1,1,1.45,1.45,0,0,0,1.4-1,1,1,0,0,0,.06-.34Z" transform="translate(-78.14 -63.72)"/><path class="cls-4" d="M318.53,395l.82,1.25c.22.33.4.63.59.95h0c.19-.35.38-.65.57-1l.82-1.24h1.14l-2,2.81,2,3h-1.2l-.85-1.31c-.23-.33-.42-.66-.63-1h0c-.19.35-.4.66-.61,1l-.84,1.31h-1.16l2.06-3-2-2.85Z" transform="translate(-78.14 -63.72)"/><path class="cls-4" d="M331.82,400.56a5.2,5.2,0,0,1-2.13.38,3.78,3.78,0,0,1-4-4.09,4,4,0,0,1,4.22-4.25,4.37,4.37,0,0,1,1.92.36l-.25.85a3.85,3.85,0,0,0-1.63-.33,3,3,0,0,0-3.16,3.33,2.94,2.94,0,0,0,3.11,3.25,4.22,4.22,0,0,0,1.7-.33Z" transform="translate(-78.14 -63.72)"/><path class="cls-4" d="M338.22,397.87a2.83,2.83,0,0,1-2.89,3.08,2.76,2.76,0,0,1-2.79-3,2.83,2.83,0,0,1,2.88-3.08A2.75,2.75,0,0,1,338.22,397.87Zm-4.61.06c0,1.27.73,2.23,1.76,2.23s1.77-1,1.77-2.26c0-1-.49-2.23-1.74-2.23S333.61,396.83,333.61,397.93Z" transform="translate(-78.14 -63.72)"/><path class="cls-4" d="M344.56,392.3v7c0,.52,0,1.1.05,1.5h-.94l-.05-1h0a2.14,2.14,0,0,1-2,1.14c-1.4,0-2.48-1.19-2.48-2.95,0-1.93,1.19-3.12,2.6-3.12a2,2,0,0,1,1.76.89h0V392.3Zm-1.05,5.08a1.68,1.68,0,0,0-.05-.45,1.54,1.54,0,0,0-1.52-1.22c-1.09,0-1.74,1-1.74,2.24s.57,2.15,1.71,2.15a1.59,1.59,0,0,0,1.55-1.26,1.66,1.66,0,0,0,.05-.46Z" transform="translate(-78.14 -63.72)"/><path class="cls-4" d="M346.91,398.11a1.85,1.85,0,0,0,2,2,3.75,3.75,0,0,0,1.6-.3l.18.76a4.63,4.63,0,0,1-1.93.36A2.7,2.7,0,0,1,345.9,398c0-1.75,1-3.13,2.72-3.13a2.46,2.46,0,0,1,2.4,2.74,2.81,2.81,0,0,1,0,.49Zm3.09-.76a1.5,1.5,0,0,0-1.46-1.71,1.74,1.74,0,0,0-1.62,1.71Z" transform="translate(-78.14 -63.72)"/><path class="cls-4" d="M309.71,407.14h1.05v7.2h3.45v.88h-4.5Z" transform="translate(-78.14 -63.72)"/><path class="cls-4" d="M315.76,412.51a1.86,1.86,0,0,0,2,2,3.8,3.8,0,0,0,1.61-.3l.18.76a4.67,4.67,0,0,1-1.93.36,2.7,2.7,0,0,1-2.86-2.93c0-1.75,1-3.13,2.73-3.13a2.47,2.47,0,0,1,2.4,2.74,4.35,4.35,0,0,1,0,.49Zm3.1-.76a1.5,1.5,0,0,0-1.47-1.71,1.76,1.76,0,0,0-1.62,1.71Z" transform="translate(-78.14 -63.72)"/><path class="cls-4" d="M321.19,411c0-.59,0-1.09-.05-1.57h.93l.06,1h0a2.13,2.13,0,0,1,1.92-1.09c.8,0,2.05.48,2.05,2.47v3.47h-1.06v-3.35c0-.93-.35-1.71-1.34-1.71a1.5,1.5,0,0,0-1.42,1.08,1.45,1.45,0,0,0-.07.49v3.49h-1.05Z" transform="translate(-78.14 -63.72)"/><path class="cls-4" d="M332.85,409.41c0,.42-.05.89-.05,1.6v3.37A3.31,3.31,0,0,1,332,417a3.06,3.06,0,0,1-2.11.7,3.76,3.76,0,0,1-1.93-.48l.26-.81a3.31,3.31,0,0,0,1.71.46c1.08,0,1.87-.57,1.87-2v-.65h0a2.05,2.05,0,0,1-1.84,1,2.59,2.59,0,0,1-2.47-2.83,2.79,2.79,0,0,1,2.61-3.08,1.92,1.92,0,0,1,1.81,1h0l0-.88Zm-1.1,2.29a1.7,1.7,0,0,0-.05-.47,1.53,1.53,0,0,0-1.48-1.12c-1,0-1.73.85-1.73,2.19,0,1.14.58,2.09,1.72,2.09a1.54,1.54,0,0,0,1.46-1.08,1.81,1.81,0,0,0,.08-.56Z" transform="translate(-78.14 -63.72)"/><path class="cls-4" d="M335.82,407.75v1.66h1.52v.81h-1.52v3.13c0,.72.21,1.13.8,1.13a2.13,2.13,0,0,0,.61-.08l0,.79a2.48,2.48,0,0,1-.94.15,1.49,1.49,0,0,1-1.14-.44,2.18,2.18,0,0,1-.41-1.52v-3.16h-.9v-.81h.9V408Z" transform="translate(-78.14 -63.72)"/><path class="cls-4" d="M338.53,406.7h1.05v3.63h0a2,2,0,0,1,.76-.75,2.16,2.16,0,0,1,1.08-.3c.78,0,2,.48,2,2.48v3.46h-1.06v-3.34c0-.93-.35-1.72-1.34-1.72a1.52,1.52,0,0,0-1.42,1,1.31,1.31,0,0,0-.07.51v3.5h-1.05Z" transform="translate(-78.14 -63.72)"/><path class="cls-4" d="M259.64,301.58a15.81,15.81,0,0,1,2.22-.17,4.65,4.65,0,0,1,3.28,1,3.76,3.76,0,0,1,1.13,2.9,4.28,4.28,0,0,1-1.16,3.15,5,5,0,0,1-3.57,1.16,16.77,16.77,0,0,1-1.9-.1Zm1.05,7.15a6.25,6.25,0,0,0,1.05.06,3.11,3.11,0,0,0,3.44-3.43c0-1.91-1.06-3.12-3.27-3.12a5.82,5.82,0,0,0-1.22.11Z" transform="translate(-78.14 -63.72)"/><path class="cls-4" d="M268.23,306.85a1.87,1.87,0,0,0,2,2,3.75,3.75,0,0,0,1.6-.3l.18.76a4.67,4.67,0,0,1-1.93.36,2.69,2.69,0,0,1-2.85-2.93c0-1.75,1-3.13,2.72-3.13a2.47,2.47,0,0,1,2.4,2.74,4.35,4.35,0,0,1,0,.49Zm3.1-.76a1.5,1.5,0,0,0-1.46-1.71,1.74,1.74,0,0,0-1.62,1.71Z" transform="translate(-78.14 -63.72)"/><path class="cls-4" d="M273.66,305.32c0-.59,0-1.09-.05-1.57h.94l.06,1h0a2.14,2.14,0,0,1,1.92-1.09c.8,0,2.05.48,2.05,2.47v3.47h-1.06v-3.35c0-.93-.34-1.71-1.34-1.71a1.5,1.5,0,0,0-1.41,1.08,1.44,1.44,0,0,0-.08.49v3.49h-1Z" transform="translate(-78.14 -63.72)"/><path class="cls-4" d="M280.17,308.48a2.86,2.86,0,0,0,1.4.42c.76,0,1.12-.38,1.12-.87s-.3-.77-1.08-1.06c-1-.37-1.53-1-1.53-1.65a1.79,1.79,0,0,1,2-1.7,2.91,2.91,0,0,1,1.43.36l-.27.77a2.24,2.24,0,0,0-1.18-.34c-.63,0-1,.36-1,.79s.34.7,1.1,1c1,.38,1.52.89,1.52,1.75,0,1-.79,1.74-2.17,1.74a3.33,3.33,0,0,1-1.63-.4Z" transform="translate(-78.14 -63.72)"/><path class="cls-4" d="M285.66,306.85a1.85,1.85,0,0,0,2,2,3.83,3.83,0,0,0,1.61-.3l.18.76a4.71,4.71,0,0,1-1.93.36,2.7,2.7,0,0,1-2.86-2.93c0-1.75,1-3.13,2.72-3.13a2.46,2.46,0,0,1,2.4,2.74,4.88,4.88,0,0,1,0,.49Zm3.09-.76a1.5,1.5,0,0,0-1.46-1.71,1.74,1.74,0,0,0-1.62,1.71Z" transform="translate(-78.14 -63.72)"/><path class="cls-4" d="M336.62,227.71a10.66,10.66,0,0,1,2-.17,3.28,3.28,0,0,1,2.34.66,2,2,0,0,1,.64,1.53,2.13,2.13,0,0,1-1.52,2.07v0a2,2,0,0,1,1.18,1.63,13,13,0,0,0,.63,2.22h-1.08a9.72,9.72,0,0,1-.54-1.93c-.24-1.11-.67-1.53-1.62-1.57h-1v3.5h-1.05Zm1.05,3.68h1.06c1.12,0,1.83-.61,1.83-1.54s-.76-1.49-1.86-1.51a4,4,0,0,0-1,.1Z" transform="translate(-78.14 -63.72)"/><path class="cls-4" d="M343.68,233a1.86,1.86,0,0,0,2,2,3.83,3.83,0,0,0,1.61-.3l.18.75a4.72,4.72,0,0,1-1.94.36,2.69,2.69,0,0,1-2.85-2.92c0-1.75,1-3.13,2.72-3.13a2.45,2.45,0,0,1,2.4,2.73,2.72,2.72,0,0,1,0,.49Zm3.09-.75a1.5,1.5,0,0,0-1.46-1.72,1.75,1.75,0,0,0-1.62,1.72Z" transform="translate(-78.14 -63.72)"/><path class="cls-4" d="M349,234.6a2.69,2.69,0,0,0,1.39.42c.77,0,1.13-.38,1.13-.86s-.3-.78-1.08-1.07c-1-.37-1.54-.94-1.54-1.64a1.79,1.79,0,0,1,2-1.7,2.81,2.81,0,0,1,1.43.36l-.26.76a2.32,2.32,0,0,0-1.19-.33c-.62,0-1,.36-1,.79s.35.69,1.1,1c1,.39,1.53.89,1.53,1.75,0,1-.8,1.74-2.18,1.74a3.33,3.33,0,0,1-1.63-.39Z" transform="translate(-78.14 -63.72)"/><path class="cls-4" d="M362.08,235.42a5.2,5.2,0,0,1-2.13.38,3.78,3.78,0,0,1-4-4.09,4,4,0,0,1,4.22-4.24,4.22,4.22,0,0,1,1.92.36l-.25.85a3.8,3.8,0,0,0-1.63-.34,3,3,0,0,0-3.15,3.34,2.94,2.94,0,0,0,3.1,3.25,4.1,4.1,0,0,0,1.71-.34Z" transform="translate(-78.14 -63.72)"/><path class="cls-4" d="M363.39,235.68V227.6h1.14l2.59,4.09a22.28,22.28,0,0,1,1.45,2.63l0,0c-.1-1.08-.12-2.06-.12-3.32V227.6h1v8.08h-1l-2.57-4.1a26.34,26.34,0,0,1-1.51-2.7l0,0c.06,1,.09,2,.09,3.33v3.45Z" transform="translate(-78.14 -63.72)"/><path class="cls-4" d="M371.29,235.68V227.6h1.14l2.59,4.09a22.28,22.28,0,0,1,1.45,2.63l0,0c-.09-1.08-.12-2.06-.12-3.32V227.6h1v8.08H376.3l-2.56-4.1a24.7,24.7,0,0,1-1.52-2.7l0,0c.06,1,.08,2,.08,3.33v3.45Z" transform="translate(-78.14 -63.72)"/><path class="cls-4" d="M164.39,228a10.77,10.77,0,0,1,2-.17,3.26,3.26,0,0,1,2.33.66,2,2,0,0,1,.64,1.53,2.11,2.11,0,0,1-1.52,2.06v0a2,2,0,0,1,1.18,1.63,13,13,0,0,0,.63,2.22h-1.08A10.79,10.79,0,0,1,168,234c-.24-1.12-.67-1.54-1.62-1.57h-1V236h-1.05Zm1.05,3.68h1.06c1.12,0,1.83-.61,1.83-1.54s-.76-1.5-1.86-1.51a4,4,0,0,0-1,.1Z" transform="translate(-78.14 -63.72)"/><path class="cls-4" d="M171.45,233.24a1.85,1.85,0,0,0,2,2,4,4,0,0,0,1.61-.29l.18.75a4.71,4.71,0,0,1-1.93.36,2.7,2.7,0,0,1-2.86-2.93c0-1.75,1-3.13,2.72-3.13a2.46,2.46,0,0,1,2.4,2.74,4.88,4.88,0,0,1,0,.49Zm3.09-.76a1.5,1.5,0,0,0-1.46-1.71,1.74,1.74,0,0,0-1.62,1.71Z" transform="translate(-78.14 -63.72)"/><path class="cls-4" d="M176.73,234.87a2.69,2.69,0,0,0,1.39.42c.77,0,1.13-.38,1.13-.86s-.3-.78-1.08-1.07c-1-.37-1.54-1-1.54-1.64a1.8,1.8,0,0,1,2-1.71,2.9,2.9,0,0,1,1.42.36l-.26.77a2.32,2.32,0,0,0-1.19-.33c-.62,0-1,.36-1,.79s.35.69,1.1,1c1,.38,1.53.89,1.53,1.75,0,1-.79,1.74-2.17,1.74a3.34,3.34,0,0,1-1.64-.4Z" transform="translate(-78.14 -63.72)"/><path class="cls-4" d="M189.85,235.69a5.2,5.2,0,0,1-2.13.38,3.78,3.78,0,0,1-4-4.09,4,4,0,0,1,4.23-4.24,4.2,4.2,0,0,1,1.91.36l-.25.85a3.66,3.66,0,0,0-1.63-.34,3,3,0,0,0-3.15,3.33,2.94,2.94,0,0,0,3.1,3.26,4.26,4.26,0,0,0,1.71-.34Z" transform="translate(-78.14 -63.72)"/><path class="cls-4" d="M191.16,236v-8.08h1.14l2.59,4.09a23.94,23.94,0,0,1,1.46,2.62h0c-.1-1.08-.12-2.06-.12-3.32v-3.38h1V236h-1l-2.57-4.1a26.34,26.34,0,0,1-1.51-2.7h0c.06,1,.09,2,.09,3.34V236Z" transform="translate(-78.14 -63.72)"/><path class="cls-4" d="M199.06,236v-8.08h1.14l2.59,4.09a22.21,22.21,0,0,1,1.45,2.62h0c-.09-1.08-.11-2.06-.11-3.32v-3.38h1V236h-1.06l-2.56-4.1a24.7,24.7,0,0,1-1.52-2.7h0c.06,1,.08,2,.08,3.34V236Z" transform="translate(-78.14 -63.72)"/><path class="cls-4" d="M174.83,155.58a11.33,11.33,0,0,1,2-.16,3.34,3.34,0,0,1,2.27.67,2.19,2.19,0,0,1,.71,1.69,2.38,2.38,0,0,1-.63,1.73,3.34,3.34,0,0,1-2.47.89,3.61,3.61,0,0,1-.84-.07v3.23h-1Zm1,3.89a3.52,3.52,0,0,0,.87.09c1.26,0,2-.61,2-1.73s-.75-1.58-1.9-1.58a4.36,4.36,0,0,0-1,.08Z" transform="translate(-78.14 -63.72)"/><path class="cls-4" d="M186.13,160.61a2.84,2.84,0,0,1-2.89,3.09,2.76,2.76,0,0,1-2.78-3,2.83,2.83,0,0,1,2.88-3.08A2.75,2.75,0,0,1,186.13,160.61Zm-4.6.06c0,1.27.73,2.23,1.76,2.23s1.76-.94,1.76-2.25c0-1-.49-2.23-1.74-2.23S181.53,159.57,181.53,160.67Z" transform="translate(-78.14 -63.72)"/><path class="cls-4" d="M192.72,160.61a2.84,2.84,0,0,1-2.89,3.09,2.76,2.76,0,0,1-2.78-3,2.83,2.83,0,0,1,2.87-3.08A2.75,2.75,0,0,1,192.72,160.61Zm-4.61.06c0,1.27.74,2.23,1.77,2.23s1.76-.94,1.76-2.25c0-1-.49-2.23-1.74-2.23S188.11,159.57,188.11,160.67Z" transform="translate(-78.14 -63.72)"/><path class="cls-4" d="M194.05,155.05h1.06v8.51h-1.06Z" transform="translate(-78.14 -63.72)"/></g></svg>