<?xml version="1.0" encoding="utf-8"?>
<!-- Generator: Adobe Illustrator 23.0.1, SVG Export Plug-In . SVG Version: 6.00 Build 0)  -->
<svg version="1.1" xmlns="http://www.w3.org/2000/svg" xmlns:xlink="http://www.w3.org/1999/xlink" x="0px" y="0px"
	 viewBox="0 0 1170.15 1076.09" style="enable-background:new 0 0 1170.15 1076.09;" xml:space="preserve">
<style type="text/css">
	.st0{opacity:0.1;fill:#777777;}
	.st1{fill:#F2E13C;stroke:#000000;stroke-width:2;stroke-miterlimit:10;}
	.st2{fill:#F28F63;stroke:#000000;stroke-width:2;stroke-miterlimit:10;}
	.st3{fill:none;stroke:#000000;stroke-width:1.5;stroke-miterlimit:10;}
	.st4{fill:#CD3D49;stroke:#000000;stroke-width:2;stroke-miterlimit:10;}
	.st5{fill:#187ABA;stroke:#000000;stroke-width:2;stroke-miterlimit:10;}
	.st6{fill:#59BFC6;stroke:#000000;stroke-width:2;stroke-miterlimit:10;}
	.st7{fill:#9D63A6;stroke:#000000;stroke-width:2;stroke-miterlimit:10;}
	.st8{fill:#BDE2E9;stroke:#000000;stroke-width:2;stroke-miterlimit:10;}
	.st9{fill:#FFFFFF;stroke:#000000;stroke-width:1.5;stroke-miterlimit:10;}
	.st10{font-family:'MyriadPro-Regular';}
	.st11{font-size:21.542px;}
	.st12{fill:#F8F2AB;stroke:#000000;stroke-width:2;stroke-miterlimit:10;}
	.st13{fill:none;stroke:#000000;stroke-width:1.5;stroke-miterlimit:10;stroke-dasharray:4.9763,4.9763;}
	.st14{fill:#C8E3CE;stroke:#000000;stroke-width:2;stroke-miterlimit:10;}
	.st15{font-size:17.7928px;}
	.st16{fill:none;stroke:#000000;stroke-miterlimit:10;stroke-dasharray:5.0208,5.0208;}
	.st17{fill:none;stroke:#000000;stroke-miterlimit:10;stroke-dasharray:5,5;}
	.st18{fill:none;stroke:#000000;stroke-miterlimit:10;stroke-dasharray:4.98,4.98;}
	.st19{fill:none;stroke:#000000;stroke-miterlimit:10;stroke-dasharray:5.0173,5.0173;}
	.st20{fill:none;stroke:#000000;stroke-miterlimit:10;stroke-dasharray:4.9861,4.9861;}
	.st21{font-size:12px;}
	.st22{fill:#FFFFFF;}
	.st23{font-family:'KozGoPr6N-Regular-83pv-RKSJ-H';}
	.st24{display:none;}
	.st25{display:inline;}
	.st26{display:inline;fill:#FFFFFF;}
</style>
<g id="Layer_1">
	<path class="st0" d="M789.4,976.69H601.81c-20.53,0-37.17-16.64-37.17-37.17V670.44c0-20.53,16.64-37.17,37.17-37.17H789.4
		c20.53,0,37.17,16.64,37.17,37.17v269.08C826.57,960.05,809.93,976.69,789.4,976.69z"/>
	<path class="st0" d="M1045.98,696.87h-152.8c-20.53,0-37.17-16.64-37.17-37.17V261.95c0-20.53,16.64-37.17,37.17-37.17h152.8
		c20.53,0,37.17,16.64,37.17,37.17V659.7C1083.15,680.23,1066.51,696.87,1045.98,696.87z"/>
	<path class="st0" d="M789.4,617.29H601.81c-20.53,0-37.17-16.64-37.17-37.17V261.95c0-20.53,16.64-37.17,37.17-37.17H789.4
		c20.53,0,37.17,16.64,37.17,37.17v318.18C826.57,600.65,809.93,617.29,789.4,617.29z"/>
	<path class="st0" d="M399.64,1020.43H152.61c-20.53,0-37.17-16.64-37.17-37.17V482.03c0-20.53,16.64-37.17,37.17-37.17h247.03
		c20.53,0,37.17,16.64,37.17,37.17v501.23C436.81,1003.79,420.17,1020.43,399.64,1020.43z"/>
	<circle class="st1" cx="273.2" cy="159.15" r="23.17"/>
	<circle class="st2" cx="356.88" cy="232.05" r="23.17"/>
	<g>
		<g>
			<line class="st3" x1="296.37" y1="232.49" x2="324.66" y2="232.28"/>
			<g>
				<path d="M333.71,232.22c-4.25,1.61-9.51,4.35-12.77,7.23l2.53-7.15l-2.63-7.11C324.14,228.01,329.44,230.67,333.71,232.22z"/>
			</g>
		</g>
	</g>
	<g>
		<g>
			<line class="st3" x1="273.2" y1="328.99" x2="273.2" y2="446.96"/>
			<g>
				<path d="M273.2,456.02c-1.58-4.26-4.28-9.54-7.13-12.82l7.13,2.58l7.13-2.58C277.47,446.47,274.78,451.76,273.2,456.02z"/>
			</g>
		</g>
	</g>
	<circle class="st4" cx="273.2" cy="479.19" r="23.17"/>
	<g>
		<g>
			<line class="st3" x1="273.2" y1="502.37" x2="273.71" y2="564.58"/>
			<g>
				<path d="M273.78,573.64c-1.62-4.25-4.36-9.51-7.24-12.76l7.15,2.52l7.11-2.64C277.98,564.06,275.33,569.36,273.78,573.64z"/>
			</g>
		</g>
	</g>
	<circle class="st5" cx="273.78" cy="596.81" r="23.17"/>
	<g>
		<g>
			<line class="st3" x1="273.78" y1="619.99" x2="274.79" y2="674.11"/>
			<g>
				<path d="M274.95,683.16c-1.66-4.23-4.45-9.46-7.37-12.69l7.18,2.45l7.08-2.71C279.05,673.53,276.45,678.87,274.95,683.16z"/>
			</g>
		</g>
	</g>
	<g>
		<g>
			<path class="st3" d="M290.17,613.19c16.31,16.32,37.22,0.72,37.22-16.38c0-16.43-15.23-28.71-29.89-21.7"/>
			<g>
				<path d="M290.17,580.43c2.59-3.74,5.38-8.97,6.43-13.19l1.97,7.33l6.2,4.37C300.45,578.47,294.57,579.28,290.17,580.43z"/>
			</g>
		</g>
	</g>
	<g>
		<g>
			<path class="st3" d="M327.39,596.81c0.39-30.32,2.86-102.16-22.23-115.48"/>
			<g>
				<path d="M296.37,479.19c4.52-0.42,10.33-1.65,14.24-3.55l-4.35,6.22l0.64,7.56C304.47,485.8,300.07,481.82,296.37,479.19z"/>
			</g>
		</g>
	</g>
	<circle class="st6" cx="380.06" cy="405.86" r="23.17"/>
	<g>
		<g>
			<path class="st3" d="M273.2,355.84c59.42,0,96.81-0.38,105.11,17.97"/>
			<g>
				<path d="M380.06,382.69c-2.47-3.81-6.25-8.38-9.75-10.96l7.52,0.96l6.4-4.07C382.15,372.44,380.67,378.18,380.06,382.69z"/>
			</g>
		</g>
	</g>
	<circle class="st6" cx="468.61" cy="405.93" r="23.17"/>
	<g>
		<g>
			<path class="st3" d="M273.2,355.84c60.39,0,168.36-0.34,191.12,18.95"/>
			<g>
				<path d="M468.61,382.75c-3.52-2.88-8.51-6.08-12.63-7.46l7.46-1.38l4.85-5.83C467.48,372.36,467.82,378.28,468.61,382.75z"/>
			</g>
		</g>
	</g>
	<circle class="st5" cx="276.13" cy="706.43" r="23.17"/>
	<g>
		<g>
			<path class="st3" d="M291.35,723.03c16.31,16.32,37.22,0.72,37.22-16.38c0-16.43-15.23-28.71-29.89-21.7"/>
			<g>
				<path d="M291.35,690.27c2.59-3.74,5.38-8.97,6.43-13.19l1.97,7.33l6.2,4.37C301.62,688.31,295.74,689.12,291.35,690.27z"/>
			</g>
		</g>
	</g>
	<path class="st3" d="M380.06,429.03c0,32.51-32.75,104.28-65.5,61.69"/>
	<circle class="st7" cx="166.33" cy="481.25" r="23.17"/>
	<g>
		<g>
			<line class="st3" x1="273.2" y1="109" x2="273.2" y2="126.93"/>
			<g>
				<path d="M273.2,135.98c-1.58-4.26-4.28-9.54-7.13-12.82l7.13,2.58l7.13-2.58C277.47,126.43,274.78,131.72,273.2,135.98z"/>
			</g>
		</g>
	</g>
	<g>
		<g>
			<line class="st3" x1="166.33" y1="431.1" x2="166.33" y2="449.03"/>
			<g>
				<path d="M166.33,458.08c-1.58-4.26-4.28-9.54-7.13-12.82l7.13,2.58l7.13-2.58C170.61,448.53,167.91,453.82,166.33,458.08z"/>
			</g>
		</g>
	</g>
	<path class="st3" d="M166.33,504.43c0,24.55,54,33.57,106.86,33.57"/>
	<path class="st3" d="M394.71,592.35c18.58-36.33,10.37-47.37-14.65-68.17c-14.88-12.37-14.08-38.48-4.86-68.17"/>
	<path class="st3" d="M468.61,429.1c0,44.63-50.99,132.87-82.02,174.58c-30.32,40.75-70.59,52.98-112.22,52.98"/>
	<path class="st5" d="M274.95,785.66c12.8,0,23.17,10.38,23.17,23.17c0,12.8-10.38,23.17-23.17,23.17
		c-12.8,0-23.17-10.38-23.17-23.17C251.78,796.03,262.16,785.66,274.95,785.66"/>
	<g>
		<g>
			<path class="st3" d="M291.35,825.21c16.31,16.32,37.22,0.72,37.22-16.38c0-16.43-15.23-28.71-29.89-21.7"/>
			<g>
				<path d="M291.35,792.45c2.59-3.74,5.38-8.97,6.43-13.19l1.97,7.33l6.2,4.37C301.62,790.49,295.74,791.3,291.35,792.45z"/>
			</g>
		</g>
	</g>
	<g>
		<g>
			<line class="st3" x1="275.67" y1="731.09" x2="275.67" y2="776.12"/>
			<g>
				<path d="M275.67,785.17c-1.58-4.26-4.28-9.54-7.13-12.82l7.13,2.58l7.13-2.58C279.95,775.63,277.25,780.91,275.67,785.17z"/>
			</g>
		</g>
	</g>
	<path class="st8" d="M274.95,895.24c12.8,0,23.17,10.38,23.17,23.17c0,12.8-10.38,23.17-23.17,23.17
		c-12.8,0-23.17-10.38-23.17-23.17C251.78,905.62,262.16,895.24,274.95,895.24"/>
	<g>
		<g>
			<line class="st3" x1="274.95" y1="832.01" x2="274.95" y2="886.19"/>
			<g>
				<path d="M274.95,895.24c-1.58-4.26-4.28-9.54-7.13-12.82l7.13,2.58l7.13-2.58C279.23,885.69,276.53,890.98,274.95,895.24z"/>
			</g>
		</g>
	</g>
	<path class="st3" d="M368.53,623.72c-14.85,27.62-4.13,168.69-21.22,222.37c-8.27,25.97-32.9,33.64-72.35,33.64"/>
	<g>
		<g>
			<path class="st3" d="M273.91,634.95c-60.29,0-83.69,29.77-83.69,64.39c0,29.72,16.05,56.5,68.37,59.23"/>
			<g>
				<path d="M267.65,758.8c-4.31,1.45-9.67,3.99-13.03,6.74l2.79-7.05l-2.36-7.21C258.24,754.23,263.44,757.09,267.65,758.8z"/>
			</g>
		</g>
	</g>
	<g>
		<circle class="st9" cx="275.67" cy="758.8" r="8.02"/>
		<text transform="matrix(1 0 0 1 269.3181 764.7281)" class="st10 st11">+</text>
	</g>
	<g>
		<g>
			<path class="st3" d="M275.67,742.37c26.14,0,66.33,8.75,66.09,58.17c-0.22,44.3-23.81,55.92-49.73,57.85"/>
			<g>
				<path d="M282.98,858.71c4.19-1.75,9.36-4.66,12.52-7.65l-2.29,7.23l2.87,7.02C292.69,862.59,287.3,860.11,282.98,858.71z"/>
			</g>
		</g>
	</g>
	<g>
		<circle class="st9" cx="274.95" cy="858.71" r="8.02"/>
		<text transform="matrix(1 0 0 1 268.6004 864.6368)" class="st10 st11">+</text>
	</g>
	<circle class="st12" cx="1002.12" cy="313.66" r="23.17"/>
	<g>
		<g>
			<line class="st3" x1="1002.12" y1="336.84" x2="1002.12" y2="379.22"/>
			<g>
				<path d="M1002.12,388.27c-1.58-4.26-4.28-9.54-7.13-12.82l7.13,2.58l7.13-2.58C1006.4,378.73,1003.7,384.01,1002.12,388.27z"/>
			</g>
		</g>
	</g>
	<circle class="st12" cx="1002.12" cy="411.45" r="23.17"/>
	<g>
		<g>
			<line class="st3" x1="1002.12" y1="434.62" x2="1002.12" y2="475.15"/>
			<g>
				<path d="M1002.12,484.21c-1.58-4.26-4.28-9.54-7.13-12.82l7.13,2.58l7.13-2.58C1006.4,474.66,1003.7,479.95,1002.12,484.21z"/>
			</g>
		</g>
	</g>
	<circle class="st12" cx="1002.12" cy="507.38" r="23.17"/>
	<g>
		<g>
			<line class="st3" x1="1002.12" y1="263.5" x2="1002.12" y2="281.43"/>
			<g>
				<path d="M1002.12,290.49c-1.58-4.26-4.28-9.54-7.13-12.82l7.13,2.58l7.13-2.58C1006.4,280.94,1003.7,286.23,1002.12,290.49z"/>
			</g>
		</g>
	</g>
	<g>
		<g>
			<path class="st3" d="M1000.96,361.24c-39.89,0-55.38,23.69-55.38,51.24c0,22.93,7.69,43.66,39.47,46.89"/>
			<g>
				<path d="M994.1,459.8c-4.35,1.32-9.78,3.7-13.22,6.35l3-6.97l-2.15-7.27C984.82,454.97,989.94,457.97,994.1,459.8z"/>
			</g>
		</g>
	</g>
	<g>
		<circle class="st9" cx="1002.12" cy="459.8" r="8.02"/>
		<text transform="matrix(1 0 0 1 995.7662 465.7361)" class="st10 st11">+</text>
	</g>
	<g>
		<g>
			<line class="st3" x1="1002.12" y1="530.55" x2="1002.12" y2="571.09"/>
			<g>
				<path d="M1002.12,580.14c-1.58-4.26-4.28-9.54-7.13-12.82l7.13,2.58l7.13-2.58C1006.4,570.59,1003.7,575.88,1002.12,580.14z"/>
			</g>
		</g>
	</g>
	<g>
		<g>
			<path class="st3" d="M1002.48,445.04c39.89,0,55.38,24.37,55.38,52.7c0,23.58-7.01,44.9-38.66,48.22"/>
			<g>
				<path d="M1010.14,546.41c4.15-1.84,9.26-4.86,12.36-7.91l-2.14,7.28l3.02,6.96C1019.94,550.09,1014.49,547.73,1010.14,546.41z"
					/>
			</g>
		</g>
	</g>
	<g>
		<circle class="st9" cx="1002.12" cy="546.41" r="8.02"/>
		<text transform="matrix(1 0 0 1 995.7662 552.3459)" class="st10 st11">+</text>
	</g>
	<circle class="st8" cx="707.62" cy="315.36" r="23.17"/>
	<g>
		<g>
			<line class="st3" x1="707.62" y1="338.54" x2="707.62" y2="356.47"/>
			<g>
				<path d="M707.62,365.52c-1.58-4.26-4.28-9.54-7.13-12.82l7.13,2.58l7.13-2.58C711.9,355.98,709.2,361.26,707.62,365.52z"/>
			</g>
		</g>
	</g>
	<circle class="st8" cx="707.62" cy="388.69" r="23.17"/>
	<g>
		<g>
			<path class="st3" d="M463.74,456.02c-5.23,15.85-33.86-32.26-52.28-46.38"/>
			<g>
				<path d="M403.23,405.86c4.52,0.43,10.46,0.3,14.65-0.84l-5.43,5.3l-0.78,7.54C409.97,413.86,406.38,409.13,403.23,405.86z"/>
			</g>
		</g>
	</g>
	<g>
		<g>
			<line class="st3" x1="707.62" y1="411.54" x2="707.62" y2="429.47"/>
			<g>
				<path d="M707.62,438.52c-1.58-4.26-4.28-9.54-7.13-12.82l7.13,2.58l7.13-2.58C711.9,428.98,709.2,434.26,707.62,438.52z"/>
			</g>
		</g>
	</g>
	<circle class="st8" cx="707.62" cy="462.03" r="23.17"/>
	<g>
		<g>
			<line class="st3" x1="707.62" y1="485.2" x2="707.62" y2="503.13"/>
			<g>
				<path d="M707.62,512.18c-1.58-4.26-4.28-9.54-7.13-12.82l7.13,2.58l7.13-2.58C711.9,502.64,709.2,507.92,707.62,512.18z"/>
			</g>
		</g>
	</g>
	<circle class="st8" cx="707.62" cy="535.36" r="23.17"/>
	<g>
		<g>
			<line class="st3" x1="707.62" y1="558.2" x2="707.62" y2="576.13"/>
			<g>
				<path d="M707.62,585.18c-1.58-4.26-4.28-9.54-7.13-12.82l7.13,2.58l7.13-2.58C711.9,575.64,709.2,580.92,707.62,585.18z"/>
			</g>
		</g>
	</g>
	<g>
		<g>
			<line class="st3" x1="707.62" y1="263.97" x2="707.62" y2="281.9"/>
			<g>
				<path d="M707.62,290.95c-1.58-4.26-4.28-9.54-7.13-12.82l7.13,2.58l7.13-2.58C711.9,281.41,709.2,286.69,707.62,290.95z"/>
			</g>
		</g>
	</g>
	<path class="st3" d="M769.55,350.11c-15.84,0-43.88,0-61.93,0"/>
	<circle class="st8" cx="709.69" cy="728.03" r="23.17"/>
	<g>
		<g>
			<line class="st3" x1="709.69" y1="659.1" x2="709.69" y2="694.56"/>
			<g>
				<path d="M709.69,703.62c-1.58-4.26-4.28-9.54-7.13-12.82l7.13,2.58l7.13-2.58C713.96,694.07,711.26,699.36,709.69,703.62z"/>
			</g>
		</g>
	</g>
	<circle class="st8" cx="789.17" cy="728.03" r="23.17"/>
	<g>
		<g>
			<line class="st3" x1="789.17" y1="659.1" x2="789.17" y2="694.56"/>
			<g>
				<path d="M789.17,703.62c-1.58-4.26-4.28-9.54-7.13-12.82l7.13,2.58l7.13-2.58C793.45,694.07,790.75,699.36,789.17,703.62z"/>
			</g>
		</g>
	</g>
	<g>
		<circle class="st9" cx="749.91" cy="792.3" r="8.02"/>
		<text transform="matrix(1 0 0 1 743.5545 798.23)" class="st10 st11">+</text>
	</g>
	<g>
		<g>
			<path class="st3" d="M709.69,751.2c0,25.23,11.51,36.31,23.24,39.8"/>
			<g>
				<path d="M741.88,792.3c-4.46,0.88-10.11,2.7-13.8,4.99l3.69-6.63l-1.41-7.45C733.15,786.55,737.93,790.06,741.88,792.3z"/>
			</g>
		</g>
	</g>
	<g>
		<g>
			<path class="st3" d="M789.17,751.2c0,25.04-11,36.14-22.29,39.72"/>
			<g>
				<path d="M757.93,792.3c3.93-2.28,8.68-5.83,11.43-9.2l-1.34,7.47l3.75,6.59C768.06,794.9,762.4,793.13,757.93,792.3z"/>
			</g>
		</g>
	</g>
	<g>
		<g>
			<path class="st3" d="M709.69,679.77c-49.57,0-44.31,90.01-44.31,119.33c0,28.03,4.51,102.89,67.46,109.21"/>
			<g>
				<path d="M741.88,908.73c-4.34,1.33-9.78,3.72-13.21,6.38l2.99-6.97l-2.17-7.27C732.6,903.91,737.72,906.9,741.88,908.73z"/>
			</g>
		</g>
	</g>
	<g>
		<g>
			<path class="st3" d="M749.91,800.32c0,11.12,0,18.54,0,29.15"/>
			<g>
				<path d="M749.91,838.53c-1.58-4.26-4.28-9.54-7.13-12.82l7.13,2.58l7.13-2.58C754.18,828.98,751.49,834.27,749.91,838.53z"/>
			</g>
		</g>
	</g>
	<g>
		<g>
			<line class="st3" x1="749.91" y1="883.45" x2="749.91" y2="934.87"/>
			<g>
				<path d="M749.91,943.92c-1.58-4.26-4.28-9.54-7.13-12.82l7.13,2.58l7.13-2.58C754.18,934.37,751.49,939.66,749.91,943.92z"/>
			</g>
		</g>
	</g>
	<g>
		<g>
			<line class="st3" x1="274.95" y1="942.29" x2="274.95" y2="960.22"/>
			<g>
				<path d="M274.95,969.27c-1.58-4.26-4.28-9.54-7.13-12.82l7.13,2.58l7.13-2.58C279.23,959.73,276.53,965.01,274.95,969.27z"/>
			</g>
		</g>
	</g>
	<g>
		<g>
			<path class="st3" d="M273.2,955.78c-0.83,0-1.66-0.01-2.49-0.03"/>
			<path class="st13" d="M265.74,955.48C160.01,946.86,78.89,754.74,78.89,429.03c0-72.81,81.55-73.26,87.15-28.09"/>
			<path class="st3" d="M166.26,403.43c0.05,0.82,0.07,1.65,0.07,2.5"/>
		</g>
	</g>
	<circle class="st14" cx="1002.48" cy="602.41" r="23.17"/>
	<g>
		<g>
			<line class="st3" x1="1002.48" y1="625.58" x2="1002.48" y2="646.23"/>
			<g>
				<path d="M1002.48,655.28c-1.58-4.26-4.28-9.54-7.13-12.82l7.13,2.58l7.13-2.58C1006.75,645.74,1004.05,651.02,1002.48,655.28z"
					/>
			</g>
		</g>
	</g>
	<circle class="st6" cx="609.08" cy="269.15" r="23.17"/>
	<circle class="st1" cx="899.9" cy="268.91" r="23.17"/>
	<circle class="st4" cx="610.03" cy="679.36" r="23.17"/>
	<circle class="st8" cx="749.91" cy="860.28" r="23.17"/>
	<g>
		<circle class="st9" cx="749.91" cy="908.73" r="8.02"/>
		<text transform="matrix(1 0 0 1 744.871 913.4313)" class="st10 st15">×</text>
	</g>
	<g>
		<path class="st16" d="M399.64,347.16H152.61c-20.53,0-37.17-16.64-37.17-37.17V101.39c0-20.53,16.64-37.17,37.17-37.17h247.03
			c20.53,0,37.17,16.64,37.17,37.17v208.61C436.81,330.52,420.17,347.16,399.64,347.16z"/>
	</g>
	<g>
		<path class="st17" d="M399.64,1020.43H152.61c-20.53,0-37.17-16.64-37.17-37.17V482.03c0-20.53,16.64-37.17,37.17-37.17h247.03
			c20.53,0,37.17,16.64,37.17,37.17v501.23C436.81,1003.79,420.17,1020.43,399.64,1020.43z"/>
	</g>
	<g>
		<path class="st18" d="M789.4,617.29H601.81c-20.53,0-37.17-16.64-37.17-37.17V261.95c0-20.53,16.64-37.17,37.17-37.17H789.4
			c20.53,0,37.17,16.64,37.17,37.17v318.18C826.57,600.65,809.93,617.29,789.4,617.29z"/>
	</g>
	<g>
		<path class="st19" d="M1045.98,697.07h-152.8c-20.53,0-37.17-16.64-37.17-37.17V262.15c0-20.53,16.64-37.17,37.17-37.17h152.8
			c20.53,0,37.17,16.64,37.17,37.17V659.9C1083.15,680.43,1066.51,697.07,1045.98,697.07z"/>
	</g>
	<g>
		<path class="st20" d="M789.4,976.69H601.81c-20.53,0-37.17-16.64-37.17-37.17V670.44c0-20.53,16.64-37.17,37.17-37.17H789.4
			c20.53,0,37.17,16.64,37.17,37.17v269.08C826.57,960.05,809.93,976.69,789.4,976.69z"/>
	</g>
	<circle class="st1" cx="273.18" cy="232.45" r="23.17"/>
	<circle class="st2" cx="184.66" cy="232.49" r="23.17"/>
	<circle class="st1" cx="273.47" cy="305.75" r="23.17"/>
	<g>
		<g>
			<line class="st3" x1="207.83" y1="232.49" x2="240.97" y2="232.49"/>
			<g>
				<path d="M250.02,232.49c-4.26,1.58-9.54,4.28-12.82,7.13l2.58-7.13l-2.58-7.13C240.48,228.21,245.76,230.91,250.02,232.49z"/>
			</g>
		</g>
	</g>
	<g>
		<g>
			<path class="st3" d="M356.88,255.39c0,21.86-12.58,46.72-51.2,50.05"/>
			<g>
				<path d="M296.64,305.82c4.17-1.8,9.31-4.76,12.44-7.78l-2.21,7.26l2.94,6.99C306.39,309.6,300.98,307.18,296.64,305.82z"/>
			</g>
		</g>
	</g>
	<g>
		<g>
			<path class="st3" d="M250.02,159.15c-30.71,0-58.96,15.85-64.42,41.15"/>
			<g>
				<path d="M184.66,209.31c-1.07-4.41-3.14-9.98-5.59-13.56l6.78,3.39l7.38-1.73C190.01,200.33,186.72,205.26,184.66,209.31z"/>
			</g>
		</g>
	</g>
</g>
<g id="Layer_2">
	<text transform="matrix(1 0 0 1 252.0222 162.5635)" class="st10 st21">Res CNN</text>
	<text transform="matrix(1 0 0 1 346.2598 235.3095)" class="st10 st21">Pool</text>
	<text transform="matrix(1 0 0 1 258.0841 475.8192)"><tspan x="0" y="0" class="st22 st10 st21">Atten-</tspan><tspan x="5.81" y="14.4" class="st22 st10 st21">tion</tspan></text>
	<text transform="matrix(1 0 0 1 366.2816 401.8192)"><tspan x="0" y="0" class="st10 st21">Multi-</tspan><tspan x="-0.94" y="14.4" class="st10 st21">Dense</tspan></text>
	<text transform="matrix(1 0 0 1 454.8295 401.819)"><tspan x="0" y="0" class="st10 st21">Multi-</tspan><tspan x="-0.94" y="14.4" class="st10 st21">Dense</tspan></text>
	<text transform="matrix(1 0 0 1 262.9278 600.3605)" class="st22 st10 st21">GRU</text>
	<text transform="matrix(1 0 0 1 265.1405 709.4545)" class="st22 st10 st21">GRU</text>
	<text transform="matrix(1 0 0 1 263.9683 811.9623)" class="st22 st10 st21">GRU</text>
	<text transform="matrix(1 0 0 1 259.2408 921.4138)" class="st10 st21">Dense</text>
	<text transform="matrix(1 0 0 1 148.5741 484.2533)" class="st22 st10 st21">Embed</text>
	<text transform="matrix(1 0 0 1 692.9099 319.1034)" class="st10 st21">Dense</text>
	<text transform="matrix(1 0 0 1 692.9099 391.8625)" class="st10 st21">Dense</text>
	<text transform="matrix(1 0 0 1 691.9099 465.0266)" class="st10 st21">Dense</text>
	<text transform="matrix(1 0 0 1 691.9095 538.4755)" class="st10 st21">Dense</text>
	<text transform="matrix(1 0 0 1 989.4848 316.7638)" class="st10 st21">Conv</text>
	<text transform="matrix(1 0 0 1 989.13 414.4471)" class="st10 st21">Conv</text>
	<text transform="matrix(1 0 0 1 989.13 510.3803)" class="st10 st21">Conv</text>
	<text transform="matrix(1 0 0 1 988.6822 598.8138)"><tspan x="0" y="0" class="st10 st21">Batch</tspan><tspan x="-0.06" y="14.4" class="st10 st21">Norm</tspan></text>
	<text transform="matrix(1 0 0 1 693.9717 731.0284)" class="st10 st21">Dense</text>
	<text transform="matrix(1 0 0 1 774.4551 731.0287)" class="st10 st21">Dense</text>
	<text transform="matrix(1 0 0 1 595.3015 265.111)"><tspan x="0" y="0" class="st10 st21">Multi-</tspan><tspan x="-0.94" y="14.4" class="st10 st21">Dense</tspan></text>
	<text transform="matrix(1 0 0 1 878.7207 272.3715)" class="st10 st21">Res CNN</text>
	<text transform="matrix(1 0 0 1 594.916 675.9863)"><tspan x="0" y="0" class="st22 st10 st21">Atten-</tspan><tspan x="5.81" y="14.4" class="st22 st10 st21">tion</tspan></text>
	<text transform="matrix(1 0 0 1 377.2539 328.9914)" class="st23 st21">Encoder</text>
	<text transform="matrix(1 0 0 1 381.9567 1001.1646)" class="st23 st21">Decoder</text>
	<text transform="matrix(1 0 0 1 241.3732 98.5831)" class="st10 st21">Glyph Image</text>
	<text transform="matrix(1 0 0 1 127.8982 421.0339)" class="st23 st21">Previous Code</text>
	<text transform="matrix(1 0 0 1 247.0592 986.077)" class="st23 st21">Next Code</text>
	<text transform="matrix(1 0 0 1 735.1945 863.2753)" class="st10 st21">Dense</text>
	<text transform="matrix(1 0 0 1 496.3839 400.8192)"><tspan x="0" y="0" class="st10 st21">Multi-code</tspan><tspan x="11.75" y="14.4" class="st10 st21">Count</tspan></text>
	<text transform="matrix(1 0 0 1 301.626 400.819)"><tspan x="0" y="0" class="st10 st21">Max Code</tspan><tspan x="7.09" y="14.4" class="st10 st21">Length</tspan></text>
	<text transform="matrix(1 0 0 1 252.2941 309.2141)" class="st10 st21">Res CNN</text>
	<text transform="matrix(1 0 0 1 252.0036 235.9164)" class="st10 st21">Res CNN</text>
	<text transform="matrix(1 0 0 1 173.9183 236.8954)" class="st10 st21">Pool</text>
</g>
<g id="Layer_3" class="st24">
	<text transform="matrix(1 0 0 1 261.2943 156.0356)" class="st25"><tspan x="0" y="0" class="st23 st21">殘差</tspan><tspan x="0" y="14.4" class="st23 st21">捲積</tspan></text>
	<text transform="matrix(1 0 0 1 255.178 482.2913)" class="st26 st23 st21">注視層</text>
	<text transform="matrix(1 0 0 1 368.331 403.2913)" class="st25"><tspan x="0" y="0" class="st23 st21">多層</tspan><tspan x="0" y="14.4" class="st23 st21">全連</tspan></text>
	<text transform="matrix(1 0 0 1 262.1862 593.8326)" class="st25"><tspan x="0" y="0" class="st22 st23 st21">帶閘</tspan><tspan x="0" y="14.4" class="st22 st23 st21">遞歸</tspan></text>
	<text transform="matrix(1 0 0 1 148.6059 484.7254)" class="st26 st23 st21">嵌入層</text>
	<text transform="matrix(1 0 0 1 695.8959 319.5755)" class="st25 st23 st21">全連</text>
	<text transform="matrix(1 0 0 1 990.7471 317.2359)" class="st25 st23 st21">捲積</text>
	<text transform="matrix(1 0 0 1 985.1017 606.2858)" class="st25 st23 st21">歸一化</text>
	<text transform="matrix(1 0 0 1 592.0099 683.4584)" class="st26 st23 st21">注視層</text>
	<text transform="matrix(1 0 0 1 381.6295 329.4635)" class="st25 st23 st21">編碼器</text>
	<text transform="matrix(1 0 0 1 387.1067 1001.6367)" class="st25 st23 st21">解碼器</text>
	<text transform="matrix(1 0 0 1 249.4685 99.0552)" class="st25 st23 st21">漢字圖形</text>
	<text transform="matrix(1 0 0 1 147.6058 422.506)" class="st25 st23 st21">前一碼</text>
	<text transform="matrix(1 0 0 1 257.3987 986.5491)" class="st25 st23 st21">下一碼</text>
	<text transform="matrix(1 0 0 1 511.8054 401.2913)" class="st25"><tspan x="0" y="0" class="st23 st21">預測</tspan><tspan x="-12" y="14.4" class="st23 st21">一字多碼</tspan></text>
	<text transform="matrix(1 0 0 1 314.8277 401.2911)" class="st25"><tspan x="0" y="0" class="st23 st21">預測</tspan><tspan x="-12" y="14.4" class="st23 st21">最大碼長</tspan></text>
	<text transform="matrix(1 0 0 1 346.26 236.6454)" class="st25 st23 st21">池化</text>
	<text transform="matrix(1 0 0 1 888.4509 266.5832)" class="st25"><tspan x="0" y="0" class="st23 st21">殘差</tspan><tspan x="0" y="14.4" class="st23 st21">捲積</tspan></text>
	<text transform="matrix(1 0 0 1 990.1204 415.4469)" class="st25 st23 st21">捲積</text>
	<text transform="matrix(1 0 0 1 990.1017 511.1843)" class="st25 st23 st21">捲積</text>
	<text transform="matrix(1 0 0 1 456.6065 403.2915)" class="st25"><tspan x="0" y="0" class="st23 st21">多層</tspan><tspan x="0" y="14.4" class="st23 st21">全連</tspan></text>
	<text transform="matrix(1 0 0 1 597.0788 266.1514)" class="st25"><tspan x="0" y="0" class="st23 st21">多層</tspan><tspan x="0" y="14.4" class="st23 st21">全連</tspan></text>
	<text transform="matrix(1 0 0 1 695.8962 392.504)" class="st25 st23 st21">全連</text>
	<text transform="matrix(1 0 0 1 695.6245 465.7359)" class="st25 st23 st21">全連</text>
	<text transform="matrix(1 0 0 1 695.6245 538.3582)" class="st25 st23 st21">全連</text>
	<text transform="matrix(1 0 0 1 697.6854 732.6477)" class="st25 st23 st21">全連</text>
	<text transform="matrix(1 0 0 1 777.1688 732.6479)" class="st25 st23 st21">全連</text>
	<text transform="matrix(1 0 0 1 737.9083 863.6371)" class="st25 st23 st21">全連</text>
	<text transform="matrix(1 0 0 1 264.2268 703.5327)" class="st25"><tspan x="0" y="0" class="st22 st23 st21">帶閘</tspan><tspan x="0" y="14.4" class="st22 st23 st21">遞歸</tspan></text>
	<text transform="matrix(1 0 0 1 262.9548 805.8313)" class="st25"><tspan x="0" y="0" class="st22 st23 st21">帶閘</tspan><tspan x="0" y="14.4" class="st22 st23 st21">遞歸</tspan></text>
	<text transform="matrix(1 0 0 1 263.3985 922.1708)" class="st25 st23 st21">全連</text>
	<text transform="matrix(1 0 0 1 173.5916 236.6453)" class="st25 st23 st21">池化</text>
	<text transform="matrix(1 0 0 1 261.2762 230.1831)" class="st25"><tspan x="0" y="0" class="st23 st21">殘差</tspan><tspan x="0" y="14.4" class="st23 st21">捲積</tspan></text>
	<text transform="matrix(1 0 0 1 261.5667 303.4808)" class="st25"><tspan x="0" y="0" class="st23 st21">殘差</tspan><tspan x="0" y="14.4" class="st23 st21">捲積</tspan></text>
</g>
</svg>
