<svg viewBox="0 0 330 200" xmlns="http://www.w3.org/2000/svg"><g><g><g><g><g><line x1="58.59375" y1="177.828125" x2="53.59375" y2="177.828125" style="visibility: inherit;" fill="rgb(0, 0, 0)" stroke="rgb(204, 204, 204)" stroke-width="1px"></line><line x1="58.59375" y1="163.00911458333334" x2="53.59375" y2="163.00911458333334" style="visibility: inherit;" fill="rgb(0, 0, 0)" stroke="rgb(204, 204, 204)" stroke-width="1px"></line><line x1="58.59375" y1="148.19010416666666" x2="53.59375" y2="148.19010416666666" style="visibility: inherit;" fill="rgb(0, 0, 0)" stroke="rgb(204, 204, 204)" stroke-width="1px"></line><line x1="58.59375" y1="133.37109375" x2="53.59375" y2="133.37109375" style="visibility: inherit;" fill="rgb(0, 0, 0)" stroke="rgb(204, 204, 204)" stroke-width="1px"></line><line x1="58.59375" y1="118.55208333333334" x2="53.59375" y2="118.55208333333334" style="visibility: inherit;" fill="rgb(0, 0, 0)" stroke="rgb(204, 204, 204)" stroke-width="1px"></line><line x1="58.59375" y1="103.73307291666667" x2="53.59375" y2="103.73307291666667" style="visibility: inherit;" fill="rgb(0, 0, 0)" stroke="rgb(204, 204, 204)" stroke-width="1px"></line><line x1="58.59375" y1="88.91406250000001" x2="53.59375" y2="88.91406250000001" style="visibility: inherit;" fill="rgb(0, 0, 0)" stroke="rgb(204, 204, 204)" stroke-width="1px"></line><line x1="58.59375" y1="74.09505208333334" x2="53.59375" y2="74.09505208333334" style="visibility: inherit;" fill="rgb(0, 0, 0)" stroke="rgb(204, 204, 204)" stroke-width="1px"></line><line x1="58.59375" y1="59.2760416666667" x2="53.59375" y2="59.2760416666667" style="visibility: inherit;" fill="rgb(0, 0, 0)" stroke="rgb(204, 204, 204)" stroke-width="1px"></line><line x1="58.59375" y1="44.45703125000003" x2="53.59375" y2="44.45703125000003" style="visibility: inherit;" fill="rgb(0, 0, 0)" stroke="rgb(204, 204, 204)" stroke-width="1px"></line><line x1="58.59375" y1="29.638020833333343" x2="53.59375" y2="29.638020833333343" style="visibility: inherit;" fill="rgb(0, 0, 0)" stroke="rgb(204, 204, 204)" stroke-width="1px"></line><line x1="58.59375" y1="14.819010416666686" x2="53.59375" y2="14.819010416666686" style="visibility: inherit;" fill="rgb(0, 0, 0)" stroke="rgb(204, 204, 204)" stroke-width="1px"></line><line x1="58.59375" y1="0" x2="53.59375" y2="0" style="visibility: inherit;" fill="rgb(0, 0, 0)" stroke="rgb(204, 204, 204)" stroke-width="1px"></line></g><g transform="translate(48.59375, 0)"><text style="text-anchor: end; visibility: hidden; font-family: &quot;Helvetica Neue&quot;, sans-serif; font-size: 12px; font-weight: 200;" x="0" y="177.828125" dx="0em" dy="0.3em" fill="rgb(50, 49, 63)" stroke="none" stroke-width="1px">-0.05</text><text style="text-anchor: end; visibility: inherit; font-family: &quot;Helvetica Neue&quot;, sans-serif; font-size: 12px; font-weight: 200;" x="0" y="163.00911458333334" dx="0em" dy="0.3em" fill="rgb(50, 49, 63)" stroke="none" stroke-width="1px">0</text><text style="text-anchor: end; visibility: hidden; font-family: &quot;Helvetica Neue&quot;, sans-serif; font-size: 12px; font-weight: 200;" x="0" y="148.19010416666666" dx="0em" dy="0.3em" fill="rgb(50, 49, 63)" stroke="none" stroke-width="1px">0.05</text><text style="text-anchor: end; visibility: inherit; font-family: &quot;Helvetica Neue&quot;, sans-serif; font-size: 12px; font-weight: 200;" x="0" y="133.37109375" dx="0em" dy="0.3em" fill="rgb(50, 49, 63)" stroke="none" stroke-width="1px">0.1</text><text style="text-anchor: end; visibility: hidden; font-family: &quot;Helvetica Neue&quot;, sans-serif; font-size: 12px; font-weight: 200;" x="0" y="118.55208333333334" dx="0em" dy="0.3em" fill="rgb(50, 49, 63)" stroke="none" stroke-width="1px">0.15</text><text style="text-anchor: end; visibility: inherit; font-family: &quot;Helvetica Neue&quot;, sans-serif; font-size: 12px; font-weight: 200;" x="0" y="103.73307291666667" dx="0em" dy="0.3em" fill="rgb(50, 49, 63)" stroke="none" stroke-width="1px">0.2</text><text style="text-anchor: end; visibility: hidden; font-family: &quot;Helvetica Neue&quot;, sans-serif; font-size: 12px; font-weight: 200;" x="0" y="88.91406250000001" dx="0em" dy="0.3em" fill="rgb(50, 49, 63)" stroke="none" stroke-width="1px">0.25</text><text style="text-anchor: end; visibility: inherit; font-family: &quot;Helvetica Neue&quot;, sans-serif; font-size: 12px; font-weight: 200;" x="0" y="74.09505208333334" dx="0em" dy="0.3em" fill="rgb(50, 49, 63)" stroke="none" stroke-width="1px">0.3</text><text style="text-anchor: end; visibility: hidden; font-family: &quot;Helvetica Neue&quot;, sans-serif; font-size: 12px; font-weight: 200;" x="0" y="59.2760416666667" dx="0em" dy="0.3em" fill="rgb(50, 49, 63)" stroke="none" stroke-width="1px">0.35</text><text style="text-anchor: end; visibility: inherit; font-family: &quot;Helvetica Neue&quot;, sans-serif; font-size: 12px; font-weight: 200;" x="0" y="44.45703125000003" dx="0em" dy="0.3em" fill="rgb(50, 49, 63)" stroke="none" stroke-width="1px">0.4</text><text style="text-anchor: end; visibility: hidden; font-family: &quot;Helvetica Neue&quot;, sans-serif; font-size: 12px; font-weight: 200;" x="0" y="29.638020833333343" dx="0em" dy="0.3em" fill="rgb(50, 49, 63)" stroke="none" stroke-width="1px">0.45</text><text style="text-anchor: end; visibility: inherit; font-family: &quot;Helvetica Neue&quot;, sans-serif; font-size: 12px; font-weight: 200;" x="0" y="14.819010416666686" dx="0em" dy="0.3em" fill="rgb(50, 49, 63)" stroke="none" stroke-width="1px">0.5</text><text style="text-anchor: end; visibility: hidden; font-family: &quot;Helvetica Neue&quot;, sans-serif; font-size: 12px; font-weight: 200;" x="0" y="0" dx="0em" dy="0.3em" fill="rgb(50, 49, 63)" stroke="none" stroke-width="1px">0.55</text></g><line x1="58.59375" y1="0" x2="58.59375" y2="177.828125" fill="rgb(0, 0, 0)" stroke="rgb(204, 204, 204)" stroke-width="1px"></line></g></g><g transform="translate(58, 0)" clip-path="url(#clip_0)"><clipPath id="clip_0"><rect width="271" height="177"></rect></clipPath><g><g><g><line x1="0" y1="0" x2="0" y2="177.828125" fill="rgb(0, 0, 0)" stroke="rgb(60, 60, 60)" stroke-width="1px" opacity="0.25"></line><line x1="30.15625" y1="0" x2="30.15625" y2="177.828125" fill="rgb(0, 0, 0)" stroke="rgb(60, 60, 60)" stroke-width="1px" opacity="0.25"></line><line x1="60.3125" y1="0" x2="60.3125" y2="177.828125" fill="rgb(0, 0, 0)" stroke="rgb(60, 60, 60)" stroke-width="1px" opacity="0.25"></line><line x1="90.46875" y1="0" x2="90.46875" y2="177.828125" fill="rgb(0, 0, 0)" stroke="rgb(60, 60, 60)" stroke-width="1px" opacity="0.25"></line><line x1="120.625" y1="0" x2="120.625" y2="177.828125" fill="rgb(0, 0, 0)" stroke="rgb(60, 60, 60)" stroke-width="1px" opacity="0.25"></line><line x1="150.78125" y1="0" x2="150.78125" y2="177.828125" fill="rgb(0, 0, 0)" stroke="rgb(60, 60, 60)" stroke-width="1px" opacity="0.25"></line><line x1="180.9375" y1="0" x2="180.9375" y2="177.828125" fill="rgb(0, 0, 0)" stroke="rgb(60, 60, 60)" stroke-width="1px" opacity="0.25"></line><line x1="211.09375" y1="0" x2="211.09375" y2="177.828125" fill="rgb(0, 0, 0)" stroke="rgb(60, 60, 60)" stroke-width="1px" opacity="0.25"></line><line x1="241.25" y1="0" x2="241.25" y2="177.828125" fill="rgb(0, 0, 0)" stroke="rgb(60, 60, 60)" stroke-width="1px" opacity="0.25"></line><line x1="271.40625" y1="0" x2="271.40625" y2="177.828125" fill="rgb(0, 0, 0)" stroke="rgb(60, 60, 60)" stroke-width="1px" opacity="0.25"></line></g><g><line x1="0" y1="177.828125" x2="271.40625" y2="177.828125" fill="rgb(0, 0, 0)" stroke="rgb(60, 60, 60)" stroke-width="1px" opacity="0.25"></line><line x1="0" y1="163.00911458333334" x2="271.40625" y2="163.00911458333334" fill="rgb(0, 0, 0)" stroke="rgb(60, 60, 60)" stroke-width="1px" opacity="0.25"></line><line x1="0" y1="148.19010416666666" x2="271.40625" y2="148.19010416666666" fill="rgb(0, 0, 0)" stroke="rgb(60, 60, 60)" stroke-width="1px" opacity="0.25"></line><line x1="0" y1="133.37109375" x2="271.40625" y2="133.37109375" fill="rgb(0, 0, 0)" stroke="rgb(60, 60, 60)" stroke-width="1px" opacity="0.25"></line><line x1="0" y1="118.55208333333334" x2="271.40625" y2="118.55208333333334" fill="rgb(0, 0, 0)" stroke="rgb(60, 60, 60)" stroke-width="1px" opacity="0.25"></line><line x1="0" y1="103.73307291666667" x2="271.40625" y2="103.73307291666667" fill="rgb(0, 0, 0)" stroke="rgb(60, 60, 60)" stroke-width="1px" opacity="0.25"></line><line x1="0" y1="88.91406250000001" x2="271.40625" y2="88.91406250000001" fill="rgb(0, 0, 0)" stroke="rgb(60, 60, 60)" stroke-width="1px" opacity="0.25"></line><line x1="0" y1="74.09505208333334" x2="271.40625" y2="74.09505208333334" fill="rgb(0, 0, 0)" stroke="rgb(60, 60, 60)" stroke-width="1px" opacity="0.25"></line><line x1="0" y1="59.2760416666667" x2="271.40625" y2="59.2760416666667" fill="rgb(0, 0, 0)" stroke="rgb(60, 60, 60)" stroke-width="1px" opacity="0.25"></line><line x1="0" y1="44.45703125000003" x2="271.40625" y2="44.45703125000003" fill="rgb(0, 0, 0)" stroke="rgb(60, 60, 60)" stroke-width="1px" opacity="0.25"></line><line x1="0" y1="29.638020833333343" x2="271.40625" y2="29.638020833333343" fill="rgb(0, 0, 0)" stroke="rgb(60, 60, 60)" stroke-width="1px" opacity="0.25"></line><line x1="0" y1="14.819010416666686" x2="271.40625" y2="14.819010416666686" fill="rgb(0, 0, 0)" stroke="rgb(60, 60, 60)" stroke-width="1px" opacity="0.25"></line><line x1="0" y1="0" x2="271.40625" y2="0" fill="rgb(0, 0, 0)" stroke="rgb(60, 60, 60)" stroke-width="1px" opacity="0.25"></line></g></g></g><g><g><line x1="0" y1="163.00911458333334" x2="271.40625" y2="163.00911458333334" fill="rgb(0, 0, 0)" stroke="rgb(153, 153, 153)" stroke-width="1.5px"></line></g></g><g><g><line x1="30.15625" y1="0" x2="30.15625" y2="177.828125" fill="rgb(0, 0, 0)" stroke="rgb(153, 153, 153)" stroke-width="1.5px"></line></g></g><g><g><g><g><g><path style="fill: none;" stroke="rgb(204, 51, 17)" stroke-width="2px" d="M33.171875,-50.39633832140785L34.6796875,7.5991756011332825L36.1875,38.81966808226127L37.6953125,57.43901714680818L39.20312499999999,69.78104857597427L40.7109375,78.88174817735381L42.21875,85.73682958631233L43.7265625,90.90970999370381L45.234375,95.33465525978127L46.7421875,99.31192859039294L48.25,101.98471842228713L49.7578125,105.27640706253774L51.265625,108.08395930201341L52.7734375,110.0821478327141L54.28125,112.37318248410311L55.7890625,114.39047707553614L57.296875,116.70371544212225L58.8046875,118.01265007938602L60.3125,119.1204300746851L61.8203125,120.55383175204541L63.328125,121.90586278710859L64.8359375,122.89322717346056L66.34375,123.5808245207875L67.8515625,124.81637682678127L69.359375,126.36750984769668L70.8671875,126.65714706243833L72.375,127.38427362075147L73.8828125,128.22800391983273L75.390625,128.8469202368329L76.8984375,127.39275992270697L78.40624999999999,126.46381763794508L79.9140625,123.4820050599781L81.421875,121.78735688306506L82.9296875,123.54821672309609L84.4375,124.69086101304907L85.9453125,121.61436822979033L87.453125,122.22429289283704L88.9609375,123.37334665581216L90.46875,122.99803892432567L91.9765625,124.15028047423007L93.484375,126.31135112562177L94.9921875,122.76598193343898L96.5,120.91146828988076L98.0078125,124.89088735886654L99.515625,124.11863502187204L101.0234375,124.37569605033852L102.53125,124.86578214042265L104.0390625,127.70760521833563L105.546875,128.08624808408604L107.0546875,126.43036746992657L108.5625,125.07906067954347L110.0703125,125.5146933687887L111.578125,127.67771118058968L113.0859375,127.33004822167719L114.59375,128.2425848461647L116.1015625,128.65063563762538L117.609375,129.60416179173282L119.1171875,129.6720690257135L120.625,129.40304675727097L122.1328125,129.61631692265976L123.640625,129.0908952098149L125.14843750000001,126.26403318699619L126.65625,128.22165819918337L128.1640625,129.92733540431436L129.671875,128.73445235352995L131.1796875,129.95603562343229L132.6875,130.53992557941962L134.1953125,129.72433748551467L135.703125,129.47515180716778L137.2109375,130.1915027743132L138.71875,130.84046253778678L140.2265625,131.75703590096043L141.734375,132.31911122978414L143.2421875,131.27647385985676L144.75,132.05141351223307L146.2578125,131.0295438739577L147.765625,130.63259445598305L149.2734375,129.18779561860285L150.78125,131.14236130434847L152.2890625,131.84602110953L153.796875,132.00471636209704L155.3046875,132.204233559171L156.81249999999997,131.90761530270197L158.3203125,133.17121621164998L159.828125,132.78874102682636L161.3359375,133.70986187401996L162.84375,133.73902398798086L164.3515625,133.05744816365998L165.859375,133.51835073042986L167.3671875,133.280726502282L168.875,134.05227965162337L170.3828125,134.35449490972968L171.890625,134.8622226911492L173.3984375,135.39264127564198L174.90625,135.2842184698388L176.4140625,135.89664504987903L177.921875,133.40363361345146L179.4296875,134.73656940312037L180.9375,134.69881594515277L182.44531250000003,134.92047826234293L183.953125,135.77693328905775L185.4609375,137.46723867353768L186.96875,136.6143350206335L188.4765625,137.0539929499066L189.984375,137.66379217992662L191.4921875,138.1293595283409L193,138.13310882830064L194.5078125,138.22284310558905L196.015625,138.54209407620542L197.5234375,138.13758888371825L199.03125,137.75839215243357L200.5390625,138.58573864805467L202.046875,134.3928728383871L203.5546875,136.52970751904502L205.0625,138.2872662957286L206.5703125,139.51792572847546L208.078125,140.51113485429056L209.5859375,140.34112366903793L211.09375,139.9118392519103L212.6015625,137.77480128273962L214.109375,138.32583515604637L215.6171875,137.60258835601678L217.125,138.92516418891424L218.6328125,139.78480515264135L220.140625,140.06849679479626L221.6484375,141.09025306315448L223.15625,139.91247846231445L224.66406249999997,139.97751717289862L226.171875,141.37971007250044L227.6796875,140.62560535023L229.1875,140.47443361626384L230.6953125,139.46493466130704L232.203125,139.7583889403232L233.7109375,140.29983338570094L235.21875,141.3281489522275L236.7265625,141.3320309514677L238.234375,141.05034440959L239.7421875,138.1610384020466L241.25,138.38926408648865L242.7578125,140.45408910903856L244.265625,141.6728679961097L245.7734375,142.67613356554102L247.28125,143.31971914721433L248.7890625,142.78794987811153L250.29687500000003,142.35434309543353L251.8046875,141.45318654670385L253.3125,142.39531248166043L254.8203125,142.559215967118" fill="none"></path></g><g><path style="fill: none;" stroke="rgb(0, 119, 187)" stroke-width="2px" d="M33.171875,-14.923691364976321L34.6796875,6.6841324568337654L36.1875,-7.051482610016336L37.6953125,14.554706536476203L39.20312499999999,20.3228700235712L40.7109375,33.42769595882578L42.21875,37.76181489434583L43.7265625,40.577009213514884L45.234375,23.42589679222428L46.7421875,29.76666869753919L48.25,38.21713398350357L49.7578125,41.18619021738115L51.265625,49.212587765562404L52.7734375,52.88885540155809L54.28125,50.545580858177175L55.7890625,50.1313085300397L57.296875,46.452020912829084L58.8046875,52.20896281268158L60.3125,42.763649197808036L61.8203125,48.17732926434499L63.328125,35.112824541821425L64.8359375,39.95669545884698L66.34375,44.17287251633377L67.8515625,49.15547032639759L69.359375,39.83550262149177L70.8671875,43.812084583783246L72.375,40.576304573084684L73.8828125,48.861830813999916L75.390625,51.87088509619511L76.8984375,55.95554078982583L78.40624999999999,61.9463268267271L79.9140625,55.13174099299296L81.421875,65.70477664325841L82.9296875,72.95047438952885L84.4375,54.68975262704416L85.9453125,72.32898480468289L87.453125,73.7673336790869L88.9609375,79.15420449178644L90.46875,84.81657987703747L91.9765625,86.33888431577458L93.484375,90.32540523003593L94.9921875,85.30530482986492L96.5,87.23831106839523L98.0078125,89.2639948637255L99.515625,88.43433726420749L101.0234375,89.80571280221504L102.53125,89.38563847308812L104.0390625,92.48513064598599L105.546875,93.44681032502999L107.0546875,91.34125273809946L108.5625,92.23285809823383L110.0703125,94.61818225183741L111.578125,95.7340505364453L113.0859375,93.77595714159719L114.59375,93.07330158699841L116.1015625,93.28910925541103L117.609375,96.36454555419846L119.1171875,95.73202438975541L120.625,98.69611126760711L122.1328125,100.55602571878111L123.640625,82.99472591009922L125.14843750000001,92.47600915630908L126.65625,97.75611925115288L128.1640625,100.46087809308226L129.671875,101.90483532778278L131.1796875,98.7912310601764L132.6875,99.94841756746519L134.1953125,96.52769707326915L135.703125,97.8615464832062L137.2109375,97.74017956800334L138.71875,100.8948535542229L140.2265625,99.08633650425791L141.734375,101.52861007458891L143.2421875,101.52479841343086L144.75,98.3041539233344L146.2578125,99.20321644071224L147.765625,97.94394745387777L149.2734375,101.37372624837305L150.78125,100.8054685477092L152.2890625,100.49299943129232L153.796875,101.61031502786531L155.3046875,99.57059439913732L156.81249999999997,101.23966771323008L158.3203125,102.24828976432144L159.828125,100.29474071089106L161.3359375,100.9629244003051L162.84375,100.48389272399535L164.3515625,101.16188251924072L165.859375,99.99366643255884L167.3671875,102.77056206278255L168.875,103.87310579365021L170.3828125,103.11661833181752L171.890625,103.06182630404554L173.3984375,101.95716405007134L174.90625,102.77374525074505L176.4140625,102.2342386133862L177.921875,101.3221492910715L179.4296875,101.47426133217121L180.9375,101.45410036998175L182.44531250000003,97.75023279266182L183.953125,98.22815910506709L185.4609375,99.62980822804829L186.96875,99.47487178530724L188.4765625,100.07647948173692L189.984375,99.66970434467078L191.4921875,99.2036744186515L193,100.79355196833053L194.5078125,100.41893933826648L196.015625,100.45058485817746L197.5234375,98.63471184092995L199.03125,100.49664697751199L200.5390625,100.34673247850232L202.046875,98.08676685449934L203.5546875,97.75988781856853L205.0625,97.46390508458771L206.5703125,100.9046361496907L208.078125,99.68471324450346L209.5859375,101.09273242594493L211.09375,100.22951498680862L212.6015625,98.74235391456494L214.109375,97.82679987685886L215.6171875,99.28208474642092L217.125,98.1778237335457L218.6328125,97.97768719876477L220.140625,95.96958905965208L221.6484375,99.43605389699947L223.15625,100.16177894979772L224.66406249999997,99.87701538755209L226.171875,98.11995663280833L227.6796875,100.94026973711793L229.1875,100.9543601596579L230.6953125,99.6246490585465L232.203125,100.56292013101601L233.7109375,97.99378642495478L235.21875,99.10775401949785L236.7265625,97.22500656282118L238.234375,97.42212099756136L239.7421875,95.64938453975888L241.25,98.1401745533843L242.7578125,98.2324454005358L244.265625,99.13356376946037L245.7734375,98.59458198968906L247.28125,97.92862682687166L248.7890625,93.00797918267568L250.29687500000003,98.09156596261458L251.8046875,97.20680260992204L253.3125,98.91310714081327L254.8203125,98.5114419943222" fill="none"></path></g></g></g></g><g opacity="0.20000000298023224"><g><g><g><path style="fill: none;" stroke="rgb(204, 51, 17)" stroke-width="2px" d="M31.6640625,-47.89615626943606L33.171875,18.56035385482636L34.6796875,43.788376288798986L36.1875,59.100499998002036L37.6953125,69.7248084335588L39.20312499999999,77.97536755492912L40.7109375,84.93894085412225L42.21875,90.30388882818323L43.7265625,94.35739290559044L45.234375,98.28430944440578L46.7421875,101.96333293151112L48.25,103.76654841556837L49.7578125,107.47085142927246L51.265625,109.95565577068677L52.7734375,111.41427208948882L54.28125,113.90053826236789L55.7890625,115.73533990544578L57.296875,118.24587424720329L58.8046875,118.88527314690873L60.3125,119.85895006343102L61.8203125,121.50943286608285L63.328125,122.80721680889837L64.8359375,123.551470097232L66.34375,124.03922275220975L67.8515625,125.64007836401774L69.359375,127.40159852826037L70.8671875,126.85023853892926L72.375,127.86902465962339L73.8828125,128.7904907858853L75.390625,129.2595311148325L76.8984375,126.42331971329017L78.40624999999999,125.84452278143726L79.9140625,121.49413000800027L81.421875,120.65759143178974L82.9296875,124.72212328311677L84.4375,125.45262387301773L85.9453125,119.56337304095118L87.453125,122.63090933486819L88.9609375,124.13938249779555L90.46875,122.74783377000131L91.9765625,124.91844150749967L93.484375,127.75206489321621L94.9921875,120.4024024719838L96.5,119.67512586084194L98.0078125,127.54383340485705L99.515625,123.60380013054237L101.0234375,124.54707006931616L102.53125,125.19250620047873L104.0390625,129.6021539369443L105.546875,128.33867666125298L107.0546875,125.32644706048693L108.5625,124.17818948595475L110.0703125,125.80511516161884L111.578125,129.11972305512367L113.0859375,127.09827291573554L114.59375,128.85094259582306L116.1015625,128.92266949859913L117.609375,130.23984589447113L119.1171875,129.71734051503398L120.625,129.22369857830927L122.1328125,129.75849703291897L123.640625,128.74061406791833L125.14843750000001,124.37945850511703L126.65625,129.52674154064152L128.1640625,131.06445354106836L129.671875,127.9391969863403L131.1796875,130.77042447003382L132.6875,130.92918555007782L134.1953125,129.18061208957806L135.703125,129.3090280216032L137.2109375,130.66907008574344L138.71875,131.2731023801025L140.2265625,132.36808480974287L141.734375,132.6938281156666L143.2421875,130.5813822799052L144.75,132.5680399471506L146.2578125,130.34829744844077L147.765625,130.36796151066665L149.2734375,128.2245963936827L150.78125,132.44540509484554L152.2890625,132.3151276463177L153.796875,132.1105131971417L155.3046875,132.337245023887L156.81249999999997,131.70986979838926L158.3203125,134.01361681761531L159.828125,132.5337575702773L161.3359375,134.32394243881572L162.84375,133.7584653972881L164.3515625,132.60306428077942L165.859375,133.82561910827644L167.3671875,133.1223103501834L168.875,134.56664841785096L170.3828125,134.55597174846724L171.890625,135.20070787876224L173.3984375,135.7462536653038L174.90625,135.21193659930336L176.4140625,136.30492943657254L177.921875,131.7416259891664L179.4296875,135.62519326289961L180.9375,134.67364697317439L182.44531250000003,135.06825314046972L183.953125,136.34790330686764L185.4609375,138.5941089298576L186.96875,136.04573258536402L188.4765625,137.34709823608864L189.984375,138.07032499993997L191.4921875,138.4397377606171L193,138.13560836160713L194.5078125,138.28266595711466L196.015625,138.75492805661634L197.5234375,137.86791875539348L199.03125,137.50559433157713L200.5390625,139.13730297846877L202.046875,131.59762896527536L203.5546875,137.954263972817L205.0625,139.458972146851L206.5703125,140.33836535030667L208.078125,141.17327427150062L209.5859375,140.22778287886953L211.09375,139.62564964049187L212.6015625,136.35010930329253L214.109375,138.6931910715842L215.6171875,137.12042382266372L217.125,139.80688141084588L218.6328125,140.3578991284594L220.140625,140.25762455623288L221.6484375,141.77142390872663L223.15625,139.12729539508777L224.66406249999997,140.02087631328808L226.171875,142.31450533890165L227.6796875,140.12286886871638L229.1875,140.3736524602864L230.6953125,138.7919353580025L232.203125,139.954025126334L233.7109375,140.6607963492861L235.21875,142.01369266324522L236.7265625,141.33461895096116L238.234375,140.86255338167152L239.7421875,136.23483439701766L241.25,138.54141454278337L242.7578125,141.83063912407187L244.265625,142.4853872541571L245.7734375,143.3449772784952L247.28125,143.74877620166325L248.7890625,142.433437032043L250.29687500000003,142.06527190698156L251.8046875,140.8524155142174L253.3125,143.02339643829814L254.8203125,142.66848495742306" fill="none"></path></g><g><path style="fill: none;" stroke="rgb(0, 119, 187)" stroke-width="2px" d="M31.6640625,-19.17025820693621L33.171875,6.169313892101258L34.6796875,20.16741452164328L36.1875,-15.974138157442212L37.6953125,28.811334382897883L39.20312499999999,24.152561416539072L40.7109375,42.1499326177873L42.21875,40.64933391256881L43.7265625,42.45331343542787L45.234375,11.993020794354408L46.7421875,33.99367266691604L48.25,43.85068299062553L49.7578125,43.16554775663343L51.265625,54.56350510055201L52.7734375,55.33969786064701L54.28125,48.98339850020906L55.7890625,49.855127025395646L57.296875,43.99916266991448L58.8046875,56.04692397375284L60.3125,36.466773523793904L61.8203125,51.786449292829914L63.328125,26.403154742127924L64.8359375,43.18594273459169L66.34375,46.98365722053376L67.8515625,52.477202199399485L69.359375,33.62219081850105L70.8671875,46.46313922526318L72.375,38.41911789930117L73.8828125,54.38551497459413L75.390625,53.87692128432295L76.8984375,58.678644585578425L78.40624999999999,65.94018418466052L79.9140625,50.58868377050386L81.421875,72.75346707676849L82.9296875,77.78093955370909L84.4375,42.51593811872107L85.9453125,84.0884729231087L87.453125,74.72623292868958L88.9609375,82.7454517002528L90.46875,88.59149680053817L91.9765625,87.3537539415993L93.484375,92.9830858395435L94.9921875,81.95857122975094L96.5,88.52698189408211L98.0078125,90.614450727279L99.515625,87.88123219786213L101.0234375,90.71996316088675L102.53125,89.10558892033686L104.0390625,94.55145876125124L105.546875,94.08793011105931L107.0546875,89.93754768014577L108.5625,92.82726167165676L110.0703125,96.20839835423978L111.578125,96.47796272618388L113.0859375,92.47056154503179L114.59375,92.60486455059922L116.1015625,93.43298103435276L117.609375,98.41483642005673L119.1171875,95.31034361346005L120.625,100.67216918617488L122.1328125,101.7959686862305L123.640625,71.2871927043113L125.14843750000001,98.79686465378231L126.65625,101.27619264771542L128.1640625,102.26405065436849L129.671875,102.8674734842498L131.1796875,96.71549488177214L132.6875,100.71987523899105L134.1953125,94.24721674380515L135.703125,98.75077942316422L137.2109375,97.65926829120146L138.71875,102.99796954503594L140.2265625,97.88065847094794L141.734375,103.15679245480959L143.2421875,101.52225730599216L144.75,96.15705759660342L146.2578125,99.80259145229746L147.765625,97.10443479598811L149.2734375,103.66024544470324L150.78125,100.42663008059998L152.2890625,100.28468668701439L153.796875,102.35519209224732L155.3046875,98.210780646652L156.81249999999997,102.35238325595857L158.3203125,102.92070446504903L159.828125,98.99237467527081L161.3359375,101.40838019324778L162.84375,100.16453827312218L164.3515625,101.61387571607096L165.859375,99.21485570810427L167.3671875,104.62182581626502L168.875,104.60813494756198L170.3828125,102.6122933572624L171.890625,103.0252982855309L173.3984375,101.22072254742187L174.90625,103.31813271786088L176.4140625,101.87456752181365L177.921875,100.7140897428617L179.4296875,101.57566935957101L180.9375,101.44065972852212L182.44531250000003,95.28098774111521L183.953125,98.5467766466706L185.4609375,100.56424097670244L186.96875,99.37158082347986L188.4765625,100.47755127935672L189.984375,99.39852091996L191.4921875,98.89298780130534L193,101.85347033478321L194.5078125,100.16919758489047L196.015625,100.47168187145145L197.5234375,97.42412982943159L199.03125,101.7379370685667L200.5390625,100.24678947916256L202.046875,96.580123105164L203.5546875,97.54196846128133L205.0625,97.26658326193382L206.5703125,103.19845685975937L208.078125,98.87143130771196L209.5859375,102.03141188023923L211.09375,99.65403669405109L212.6015625,97.75091319973582L214.109375,97.21643051838814L215.6171875,100.25227465946229L217.125,97.4416497249622L218.6328125,97.84426284224418L220.140625,94.63085696691027L221.6484375,101.74703045523106L223.15625,100.64559565166323L224.66406249999997,99.68717301272167L226.171875,96.94858412964581L227.6796875,102.82047847332434L229.1875,100.96375377468456L230.6953125,98.73817499113892L232.203125,101.18843417932902L233.7109375,96.28103062091397L235.21875,99.85039908252658L236.7265625,95.96984159170341L238.234375,97.55353062072149L239.7421875,94.46756023455723L241.25,99.80070122913459L242.7578125,98.29395929863678L244.265625,99.73430934874342L245.7734375,98.23526080317487L247.28125,97.48465671832675L248.7890625,89.72754741987836L250.29687500000003,101.48062381590718L251.8046875,96.61696037479368L253.3125,100.05064349474077L254.8203125,98.24366522999482" fill="none"></path></g></g></g></g></g></g><g transform="translate(58, 177)" clip-path="url(#clip_1)"><clipPath id="clip_1"><rect width="271" height="22"></rect></clipPath><g><g><line x1="0" y1="0" x2="0" y2="5" style="visibility: inherit;" fill="rgb(0, 0, 0)" stroke="rgb(204, 204, 204)" stroke-width="1px"></line><line x1="30.15625" y1="0" x2="30.15625" y2="5" style="visibility: inherit;" fill="rgb(0, 0, 0)" stroke="rgb(204, 204, 204)" stroke-width="1px"></line><line x1="60.3125" y1="0" x2="60.3125" y2="5" style="visibility: inherit;" fill="rgb(0, 0, 0)" stroke="rgb(204, 204, 204)" stroke-width="1px"></line><line x1="90.46875" y1="0" x2="90.46875" y2="5" style="visibility: inherit;" fill="rgb(0, 0, 0)" stroke="rgb(204, 204, 204)" stroke-width="1px"></line><line x1="120.625" y1="0" x2="120.625" y2="5" style="visibility: inherit;" fill="rgb(0, 0, 0)" stroke="rgb(204, 204, 204)" stroke-width="1px"></line><line x1="150.78125" y1="0" x2="150.78125" y2="5" style="visibility: inherit;" fill="rgb(0, 0, 0)" stroke="rgb(204, 204, 204)" stroke-width="1px"></line><line x1="180.9375" y1="0" x2="180.9375" y2="5" style="visibility: inherit;" fill="rgb(0, 0, 0)" stroke="rgb(204, 204, 204)" stroke-width="1px"></line><line x1="211.09375" y1="0" x2="211.09375" y2="5" style="visibility: inherit;" fill="rgb(0, 0, 0)" stroke="rgb(204, 204, 204)" stroke-width="1px"></line><line x1="241.25" y1="0" x2="241.25" y2="5" style="visibility: inherit;" fill="rgb(0, 0, 0)" stroke="rgb(204, 204, 204)" stroke-width="1px"></line><line x1="271.40625" y1="0" x2="271.40625" y2="5" style="visibility: inherit;" fill="rgb(0, 0, 0)" stroke="rgb(204, 204, 204)" stroke-width="1px"></line></g><g transform="translate(0, 8)"><text style="text-anchor: middle; visibility: hidden; font-family: &quot;Helvetica Neue&quot;, sans-serif; font-size: 12px; font-weight: 200;" x="0" y="0" dx="0em" dy="0.95em" fill="rgb(50, 49, 63)" stroke="none" stroke-width="1px">-20</text><text style="text-anchor: middle; visibility: inherit; font-family: &quot;Helvetica Neue&quot;, sans-serif; font-size: 12px; font-weight: 200;" x="30.15625" y="0" dx="0em" dy="0.95em" fill="rgb(50, 49, 63)" stroke="none" stroke-width="1px">0</text><text style="text-anchor: middle; visibility: inherit; font-family: &quot;Helvetica Neue&quot;, sans-serif; font-size: 12px; font-weight: 200;" x="60.3125" y="0" dx="0em" dy="0.95em" fill="rgb(50, 49, 63)" stroke="none" stroke-width="1px">20</text><text style="text-anchor: middle; visibility: inherit; font-family: &quot;Helvetica Neue&quot;, sans-serif; font-size: 12px; font-weight: 200;" x="90.46875" y="0" dx="0em" dy="0.95em" fill="rgb(50, 49, 63)" stroke="none" stroke-width="1px">40</text><text style="text-anchor: middle; visibility: inherit; font-family: &quot;Helvetica Neue&quot;, sans-serif; font-size: 12px; font-weight: 200;" x="120.625" y="0" dx="0em" dy="0.95em" fill="rgb(50, 49, 63)" stroke="none" stroke-width="1px">60</text><text style="text-anchor: middle; visibility: inherit; font-family: &quot;Helvetica Neue&quot;, sans-serif; font-size: 12px; font-weight: 200;" x="150.78125" y="0" dx="0em" dy="0.95em" fill="rgb(50, 49, 63)" stroke="none" stroke-width="1px">80</text><text style="text-anchor: middle; visibility: inherit; font-family: &quot;Helvetica Neue&quot;, sans-serif; font-size: 12px; font-weight: 200;" x="180.9375" y="0" dx="0em" dy="0.95em" fill="rgb(50, 49, 63)" stroke="none" stroke-width="1px">100</text><text style="text-anchor: middle; visibility: inherit; font-family: &quot;Helvetica Neue&quot;, sans-serif; font-size: 12px; font-weight: 200;" x="211.09375" y="0" dx="0em" dy="0.95em" fill="rgb(50, 49, 63)" stroke="none" stroke-width="1px">120</text><text style="text-anchor: middle; visibility: inherit; font-family: &quot;Helvetica Neue&quot;, sans-serif; font-size: 12px; font-weight: 200;" x="241.25" y="0" dx="0em" dy="0.95em" fill="rgb(50, 49, 63)" stroke="none" stroke-width="1px">140</text><text style="text-anchor: middle; visibility: hidden; font-family: &quot;Helvetica Neue&quot;, sans-serif; font-size: 12px; font-weight: 200;" x="271.40625" y="0" dx="0em" dy="0.95em" fill="rgb(50, 49, 63)" stroke="none" stroke-width="1px">160</text></g><line x1="0" y1="0" x2="271.40625" y2="0" fill="rgb(0, 0, 0)" stroke="rgb(204, 204, 204)" stroke-width="1px"></line></g></g></g></g></svg>