<svg viewBox="0 0 330 200" xmlns="http://www.w3.org/2000/svg"><g><g><g><g><g><line x1="48.875" y1="177.51342649747224" x2="43.875" y2="177.51342649747224" style="visibility: inherit;" fill="rgb(0, 0, 0)" stroke="rgb(204, 204, 204)" stroke-width="1px"></line><line x1="48.875" y1="162.72888430314026" x2="43.875" y2="162.72888430314026" style="visibility: inherit;" fill="rgb(0, 0, 0)" stroke="rgb(204, 204, 204)" stroke-width="1px"></line><line x1="48.875" y1="151.26110245048073" x2="43.875" y2="151.26110245048073" style="visibility: inherit;" fill="rgb(0, 0, 0)" stroke="rgb(204, 204, 204)" stroke-width="1px"></line><line x1="48.875" y1="141.8912424297166" x2="43.875" y2="141.8912424297166" style="visibility: inherit;" fill="rgb(0, 0, 0)" stroke="rgb(204, 204, 204)" stroke-width="1px"></line><line x1="48.875" y1="133.9691386615958" x2="43.875" y2="133.9691386615958" style="visibility: inherit;" fill="rgb(0, 0, 0)" stroke="rgb(204, 204, 204)" stroke-width="1px"></line><line x1="48.875" y1="127.10670023538464" x2="43.875" y2="127.10670023538464" style="visibility: inherit;" fill="rgb(0, 0, 0)" stroke="rgb(204, 204, 204)" stroke-width="1px"></line><line x1="48.875" y1="121.05360055629296" x2="43.875" y2="121.05360055629296" style="visibility: inherit;" fill="rgb(0, 0, 0)" stroke="rgb(204, 204, 204)" stroke-width="1px"></line><line x1="48.875" y1="115.63891838272511" x2="43.875" y2="115.63891838272511" style="visibility: inherit;" fill="rgb(0, 0, 0)" stroke="rgb(204, 204, 204)" stroke-width="1px"></line><line x1="48.875" y1="80.01673431496948" x2="43.875" y2="80.01673431496948" style="visibility: inherit;" fill="rgb(0, 0, 0)" stroke="rgb(204, 204, 204)" stroke-width="1px"></line><line x1="48.875" y1="59.17909244154582" x2="43.875" y2="59.17909244154582" style="visibility: inherit;" fill="rgb(0, 0, 0)" stroke="rgb(204, 204, 204)" stroke-width="1px"></line><line x1="48.875" y1="44.394550247213886" x2="43.875" y2="44.394550247213886" style="visibility: inherit;" fill="rgb(0, 0, 0)" stroke="rgb(204, 204, 204)" stroke-width="1px"></line><line x1="48.875" y1="32.92676839455436" x2="43.875" y2="32.92676839455436" style="visibility: inherit;" fill="rgb(0, 0, 0)" stroke="rgb(204, 204, 204)" stroke-width="1px"></line><line x1="48.875" y1="23.55690837379018" x2="43.875" y2="23.55690837379018" style="visibility: inherit;" fill="rgb(0, 0, 0)" stroke="rgb(204, 204, 204)" stroke-width="1px"></line><line x1="48.875" y1="15.634804605669387" x2="43.875" y2="15.634804605669387" style="visibility: inherit;" fill="rgb(0, 0, 0)" stroke="rgb(204, 204, 204)" stroke-width="1px"></line><line x1="48.875" y1="8.772366179458231" x2="43.875" y2="8.772366179458231" style="visibility: inherit;" fill="rgb(0, 0, 0)" stroke="rgb(204, 204, 204)" stroke-width="1px"></line><line x1="48.875" y1="2.719266500366558" x2="43.875" y2="2.719266500366558" style="visibility: inherit;" fill="rgb(0, 0, 0)" stroke="rgb(204, 204, 204)" stroke-width="1px"></line></g><g transform="translate(38.875, 0)"><text style="text-anchor: end; visibility: hidden; font-family: &quot;Helvetica Neue&quot;, sans-serif; font-size: 12px; font-weight: 200;" x="0" y="177.51342649747224" dx="0em" dy="0.3em" fill="rgb(50, 49, 63)" stroke="none" stroke-width="1px">0.03</text><text style="text-anchor: end; visibility: inherit; font-family: &quot;Helvetica Neue&quot;, sans-serif; font-size: 12px; font-weight: 200;" x="0" y="162.72888430314026" dx="0em" dy="0.3em" fill="rgb(50, 49, 63)" stroke="none" stroke-width="1px">0.04</text><text style="text-anchor: end; visibility: hidden; font-family: &quot;Helvetica Neue&quot;, sans-serif; font-size: 12px; font-weight: 200;" x="0" y="151.26110245048073" dx="0em" dy="0.3em" fill="rgb(50, 49, 63)" stroke="none" stroke-width="1px">0.05</text><text style="text-anchor: end; visibility: hidden; font-family: &quot;Helvetica Neue&quot;, sans-serif; font-size: 12px; font-weight: 200;" x="0" y="141.8912424297166" dx="0em" dy="0.3em" fill="rgb(50, 49, 63)" stroke="none" stroke-width="1px">0.06</text><text style="text-anchor: end; visibility: hidden; font-family: &quot;Helvetica Neue&quot;, sans-serif; font-size: 12px; font-weight: 200;" x="0" y="133.9691386615958" dx="0em" dy="0.3em" fill="rgb(50, 49, 63)" stroke="none" stroke-width="1px">0.07</text><text style="text-anchor: end; visibility: inherit; font-family: &quot;Helvetica Neue&quot;, sans-serif; font-size: 12px; font-weight: 200;" x="0" y="127.10670023538464" dx="0em" dy="0.3em" fill="rgb(50, 49, 63)" stroke="none" stroke-width="1px">0.08</text><text style="text-anchor: end; visibility: hidden; font-family: &quot;Helvetica Neue&quot;, sans-serif; font-size: 12px; font-weight: 200;" x="0" y="121.05360055629296" dx="0em" dy="0.3em" fill="rgb(50, 49, 63)" stroke="none" stroke-width="1px">0.09</text><text style="text-anchor: end; visibility: hidden; font-family: &quot;Helvetica Neue&quot;, sans-serif; font-size: 12px; font-weight: 200;" x="0" y="115.63891838272511" dx="0em" dy="0.3em" fill="rgb(50, 49, 63)" stroke="none" stroke-width="1px">0.1</text><text style="text-anchor: end; visibility: hidden; font-family: &quot;Helvetica Neue&quot;, sans-serif; font-size: 12px; font-weight: 200;" x="0" y="80.01673431496948" dx="0em" dy="0.3em" fill="rgb(50, 49, 63)" stroke="none" stroke-width="1px">0.2</text><text style="text-anchor: end; visibility: inherit; font-family: &quot;Helvetica Neue&quot;, sans-serif; font-size: 12px; font-weight: 200;" x="0" y="59.17909244154582" dx="0em" dy="0.3em" fill="rgb(50, 49, 63)" stroke="none" stroke-width="1px">0.3</text><text style="text-anchor: end; visibility: hidden; font-family: &quot;Helvetica Neue&quot;, sans-serif; font-size: 12px; font-weight: 200;" x="0" y="44.394550247213886" dx="0em" dy="0.3em" fill="rgb(50, 49, 63)" stroke="none" stroke-width="1px">0.4</text><text style="text-anchor: end; visibility: hidden; font-family: &quot;Helvetica Neue&quot;, sans-serif; font-size: 12px; font-weight: 200;" x="0" y="32.92676839455436" dx="0em" dy="0.3em" fill="rgb(50, 49, 63)" stroke="none" stroke-width="1px">0.5</text><text style="text-anchor: end; visibility: hidden; font-family: &quot;Helvetica Neue&quot;, sans-serif; font-size: 12px; font-weight: 200;" x="0" y="23.55690837379018" dx="0em" dy="0.3em" fill="rgb(50, 49, 63)" stroke="none" stroke-width="1px">0.6</text><text style="text-anchor: end; visibility: inherit; font-family: &quot;Helvetica Neue&quot;, sans-serif; font-size: 12px; font-weight: 200;" x="0" y="15.634804605669387" dx="0em" dy="0.3em" fill="rgb(50, 49, 63)" stroke="none" stroke-width="1px">0.7</text><text style="text-anchor: end; visibility: hidden; font-family: &quot;Helvetica Neue&quot;, sans-serif; font-size: 12px; font-weight: 200;" x="0" y="8.772366179458231" dx="0em" dy="0.3em" fill="rgb(50, 49, 63)" stroke="none" stroke-width="1px">0.8</text><text style="text-anchor: end; visibility: hidden; font-family: &quot;Helvetica Neue&quot;, sans-serif; font-size: 12px; font-weight: 200;" x="0" y="2.719266500366558" dx="0em" dy="0.3em" fill="rgb(50, 49, 63)" stroke="none" stroke-width="1px">0.9</text></g><line x1="48.875" y1="0" x2="48.875" y2="177.828125" fill="rgb(0, 0, 0)" stroke="rgb(204, 204, 204)" stroke-width="1px"></line></g></g><g transform="translate(48, 0)" clip-path="url(#clip_0)"><clipPath id="clip_0"><rect width="281" height="177"></rect></clipPath><g><g><g><line x1="0" y1="0" x2="0" y2="177.828125" fill="rgb(0, 0, 0)" stroke="rgb(60, 60, 60)" stroke-width="1px" opacity="0.25"></line><line x1="31.23611111111111" y1="0" x2="31.23611111111111" y2="177.828125" fill="rgb(0, 0, 0)" stroke="rgb(60, 60, 60)" stroke-width="1px" opacity="0.25"></line><line x1="62.47222222222222" y1="0" x2="62.47222222222222" y2="177.828125" fill="rgb(0, 0, 0)" stroke="rgb(60, 60, 60)" stroke-width="1px" opacity="0.25"></line><line x1="93.70833333333333" y1="0" x2="93.70833333333333" y2="177.828125" fill="rgb(0, 0, 0)" stroke="rgb(60, 60, 60)" stroke-width="1px" opacity="0.25"></line><line x1="124.94444444444444" y1="0" x2="124.94444444444444" y2="177.828125" fill="rgb(0, 0, 0)" stroke="rgb(60, 60, 60)" stroke-width="1px" opacity="0.25"></line><line x1="156.18055555555557" y1="0" x2="156.18055555555557" y2="177.828125" fill="rgb(0, 0, 0)" stroke="rgb(60, 60, 60)" stroke-width="1px" opacity="0.25"></line><line x1="187.41666666666666" y1="0" x2="187.41666666666666" y2="177.828125" fill="rgb(0, 0, 0)" stroke="rgb(60, 60, 60)" stroke-width="1px" opacity="0.25"></line><line x1="218.65277777777777" y1="0" x2="218.65277777777777" y2="177.828125" fill="rgb(0, 0, 0)" stroke="rgb(60, 60, 60)" stroke-width="1px" opacity="0.25"></line><line x1="249.88888888888889" y1="0" x2="249.88888888888889" y2="177.828125" fill="rgb(0, 0, 0)" stroke="rgb(60, 60, 60)" stroke-width="1px" opacity="0.25"></line><line x1="281.125" y1="0" x2="281.125" y2="177.828125" fill="rgb(0, 0, 0)" stroke="rgb(60, 60, 60)" stroke-width="1px" opacity="0.25"></line></g><g><line x1="0" y1="177.51342649747224" x2="281.125" y2="177.51342649747224" fill="rgb(0, 0, 0)" stroke="rgb(60, 60, 60)" stroke-width="1px" opacity="0.25"></line><line x1="0" y1="162.72888430314026" x2="281.125" y2="162.72888430314026" fill="rgb(0, 0, 0)" stroke="rgb(60, 60, 60)" stroke-width="1px" opacity="0.25"></line><line x1="0" y1="151.26110245048073" x2="281.125" y2="151.26110245048073" fill="rgb(0, 0, 0)" stroke="rgb(60, 60, 60)" stroke-width="1px" opacity="0.25"></line><line x1="0" y1="141.8912424297166" x2="281.125" y2="141.8912424297166" fill="rgb(0, 0, 0)" stroke="rgb(60, 60, 60)" stroke-width="1px" opacity="0.25"></line><line x1="0" y1="133.9691386615958" x2="281.125" y2="133.9691386615958" fill="rgb(0, 0, 0)" stroke="rgb(60, 60, 60)" stroke-width="1px" opacity="0.25"></line><line x1="0" y1="127.10670023538464" x2="281.125" y2="127.10670023538464" fill="rgb(0, 0, 0)" stroke="rgb(60, 60, 60)" stroke-width="1px" opacity="0.25"></line><line x1="0" y1="121.05360055629296" x2="281.125" y2="121.05360055629296" fill="rgb(0, 0, 0)" stroke="rgb(60, 60, 60)" stroke-width="1px" opacity="0.25"></line><line x1="0" y1="115.63891838272511" x2="281.125" y2="115.63891838272511" fill="rgb(0, 0, 0)" stroke="rgb(60, 60, 60)" stroke-width="1px" opacity="0.25"></line><line x1="0" y1="80.01673431496948" x2="281.125" y2="80.01673431496948" fill="rgb(0, 0, 0)" stroke="rgb(60, 60, 60)" stroke-width="1px" opacity="0.25"></line><line x1="0" y1="59.17909244154582" x2="281.125" y2="59.17909244154582" fill="rgb(0, 0, 0)" stroke="rgb(60, 60, 60)" stroke-width="1px" opacity="0.25"></line><line x1="0" y1="44.394550247213886" x2="281.125" y2="44.394550247213886" fill="rgb(0, 0, 0)" stroke="rgb(60, 60, 60)" stroke-width="1px" opacity="0.25"></line><line x1="0" y1="32.92676839455436" x2="281.125" y2="32.92676839455436" fill="rgb(0, 0, 0)" stroke="rgb(60, 60, 60)" stroke-width="1px" opacity="0.25"></line><line x1="0" y1="23.55690837379018" x2="281.125" y2="23.55690837379018" fill="rgb(0, 0, 0)" stroke="rgb(60, 60, 60)" stroke-width="1px" opacity="0.25"></line><line x1="0" y1="15.634804605669387" x2="281.125" y2="15.634804605669387" fill="rgb(0, 0, 0)" stroke="rgb(60, 60, 60)" stroke-width="1px" opacity="0.25"></line><line x1="0" y1="8.772366179458231" x2="281.125" y2="8.772366179458231" fill="rgb(0, 0, 0)" stroke="rgb(60, 60, 60)" stroke-width="1px" opacity="0.25"></line><line x1="0" y1="2.719266500366558" x2="281.125" y2="2.719266500366558" fill="rgb(0, 0, 0)" stroke="rgb(60, 60, 60)" stroke-width="1px" opacity="0.25"></line></g></g></g><g><g><line x1="31.23611111111111" y1="0" x2="31.23611111111111" y2="177.828125" fill="rgb(0, 0, 0)" stroke="rgb(153, 153, 153)" stroke-width="1.5px"></line></g></g><g><g><g><g><g><path style="fill: none;" stroke="rgb(0, 153, 136)" stroke-width="2px" d="M31.23611111111111,9.55789567638007L32.797916666666666,33.17518366360693L34.359722222222224,47.38000107325209L35.921527777777776,57.7613307879805L37.483333333333334,66.10543406852538L39.04513888888889,73.17771492176257L40.60694444444444,79.11374329094515L42.168749999999996,84.22067194032859L43.730555555555554,89.02328463015131L45.29236111111111,92.97095733938916L46.854166666666664,96.5758202745835L48.41597222222222,100.01909474031555L49.97777777777778,103.08708645545546L51.53958333333333,105.84168847962746L53.101388888888884,108.42714047437262L54.66319444444444,111.07928275962344L56.225,113.35981752070154L57.78680555555555,115.40358506043857L59.34861111111111,117.34001814583412L60.91041666666667,119.52612949084907L62.47222222222222,121.33982933917608L64.03402777777778,122.60674828574005L65.59583333333333,123.84739977685618L67.1576388888889,125.5084308504231L68.71944444444445,127.01754683718589L70.28125,128.8411668612044L71.84305555555555,129.94830497845732L73.40486111111112,131.0894880837604L74.96666666666667,132.28906936413807L76.52847222222222,133.02813128163325L78.09027777777779,134.57225238198134L79.65208333333334,133.48913907268036L81.21388888888887,130.76634437383598L82.77569444444444,128.7256533576139L84.33749999999999,130.54976569799862L85.89930555555556,130.30953956217652L87.46111111111111,130.0981134190336L89.02291666666666,131.36522420152042L90.58472222222223,131.41295262824895L92.14652777777778,131.4345334502228L93.70833333333333,129.8511339081508L95.2701388888889,129.51210118923666L96.83194444444445,130.09298583888975L98.39375,130.66677124903498L99.95555555555556,128.2780803451385L101.51736111111111,130.3442532585236L103.07916666666667,131.37016158552302L104.64097222222223,132.6169516939471L106.20277777777777,132.2234802264301L107.76458333333333,132.39234920725457L109.32638888888889,132.19323166871268L110.88819444444444,132.9061995502007L112.45,131.96416751277826L114.01180555555555,131.61948200123626L115.5736111111111,130.7617146681413L117.13541666666667,132.1651423252819L118.69722222222222,132.4290906483979L120.25902777777777,132.71962861761713L121.82083333333334,133.54591110154993L123.38263888888889,134.0735004515377L124.94444444444444,133.61620018113302L126.50625000000001,134.00664144027942L128.06805555555556,134.33474963218313L129.62986111111113,134.58498802261616L131.19166666666666,132.82176045317607L132.75347222222223,133.89649313378143L134.3152777777778,132.97072861030043L135.87708333333333,134.04171337472852L137.4388888888889,134.6901487015167L139.00069444444446,135.8115345446239L140.5625,136.09728320539398L142.12430555555554,137.134653736891L143.6861111111111,136.6807393234539L145.24791666666667,137.0457015134488L146.80972222222223,137.61199195096782L148.37152777777777,138.11371126075204L149.93333333333334,137.88230458552002L151.49513888888887,135.9305010391471L153.05694444444444,136.47289303377877L154.61875,137.4764957040264L156.18055555555557,139.9012107029235L157.7423611111111,139.3386281152944L159.30416666666667,138.6398336002752L160.8659722222222,139.0212861441736L162.42777777777775,139.98660758749315L163.98958333333334,140.49742680521484L165.55138888888888,141.09591676302557L167.11319444444445,140.27975388011487L168.67499999999998,140.15396728427658L170.23680555555555,140.25293907952226L171.79861111111111,138.74422330134385L173.36041666666668,140.84742999131868L174.92222222222222,141.63011623836292L176.48402777777778,143.15314906740753L178.04583333333332,143.28411191984736L179.60763888888889,142.5668014516047L181.16944444444445,142.83783703616186L182.73125000000002,142.93717438390823L184.29305555555555,142.87131753813836L185.85486111111112,143.51401562332646L187.41666666666666,144.124721524795L188.97847222222225,143.11493919108634L190.5402777777778,144.16046991627672L192.10208333333333,145.0775888855955L193.6638888888889,145.7957809390851L195.22569444444443,145.56025357952902L196.7875,145.82537345515965L198.34930555555556,144.73206932059657L199.91111111111113,144.77286885030625L201.47291666666666,146.87856424051924L203.03472222222223,148.11209694241666L204.59652777777777,145.64964909843314L206.15833333333333,142.8105690837905L207.7201388888889,145.95594666610077L209.28194444444446,147.7232401746949L210.84375,149.554433455819L212.40555555555554,148.63140495561302L213.9673611111111,148.60782484323482L215.52916666666667,148.69377857978992L217.09097222222223,149.94835081407476L218.65277777777777,149.0932104383699L220.21458333333334,149.05690614162555L221.77638888888887,150.02536984867885L223.33819444444444,148.9990787250744L224.9,150.6068363370531L226.46180555555557,150.34280757929304L228.0236111111111,149.60760940502286L229.58541666666667,149.71239554603937L231.1472222222222,150.1645443140277L232.70902777777775,150.07067326831088L234.27083333333334,150.4960663892342L235.83263888888888,152.4924644533632L237.39444444444445,152.42410714285714L238.95624999999998,152.38606375039834L240.51805555555555,152.96625810773835L242.07986111111111,152.8063875236066L243.64166666666668,152.12655067399226L245.20347222222222,152.50425952398444L246.76527777777778,154.22961079657279L248.32708333333332,153.22298352060577L249.88888888888889,153.14709959820578L251.45069444444445,152.41636538341257L253.01250000000002,152.7175515705783L254.57430555555555,153.12145136393715L256.1361111111111,153.42694650599864L257.69791666666663,156.2388088822885L259.25972222222225,155.73163631495447L260.82152777777776,155.11048348611862L262.3833333333333,155.28283965620878L263.9451388888889,155.15242400831085" fill="none"></path></g><g><path style="fill: none;" stroke="rgb(238, 51, 119)" stroke-width="2px" d="M31.23611111111111,33.4404834013981L32.797916666666666,37.40398097889721L34.359722222222224,34.031850980028224L35.921527777777776,36.632374617344794L37.483333333333334,35.07026234398941L39.04513888888889,36.27852499963899L40.60694444444444,38.07047247995072L42.168749999999996,31.621536691491457L43.730555555555554,33.07865434440538L45.29236111111111,31.951329947806755L46.854166666666664,27.012957005390803L48.41597222222222,31.015856429073892L49.97777777777778,31.079812311443447L51.53958333333333,32.774736365578576L53.101388888888884,32.427734015784154L54.66319444444444,24.00795449234886L56.225,29.45399265969749L57.78680555555555,28.945359198888838L59.34861111111111,20.220593278921456L60.91041666666667,24.396784575420327L62.47222222222222,17.577519062195222L64.03402777777778,22.84228228933597L65.59583333333333,24.238325433890083L67.1576388888889,15.601953299335321L68.71944444444445,23.35675624634746L70.28125,25.3136396141675L71.84305555555555,25.404017857142833L73.40486111111112,20.203815694779735L74.96666666666667,20.362002397293224L76.52847222222222,12.109084921175253L78.09027777777779,12.499445792752397L79.65208333333334,20.21806922205451L81.21388888888887,26.596636290190247L82.77569444444444,34.62692997050186L84.33749999999999,34.91421742993006L85.89930555555556,37.616137488978666L87.46111111111111,40.321261238186906L89.02291666666666,44.470937760596286L90.58472222222223,48.014750968696916L92.14652777777778,44.46586825565939L93.70833333333333,46.427571322621816L95.2701388888889,51.39891612569504L96.83194444444445,51.11182291790037L98.39375,55.22697602157281L99.95555555555556,58.01410396010567L101.51736111111111,58.82197588962315L103.07916666666667,59.66567347323641L104.64097222222223,57.69334777372741L106.20277777777777,58.13310791635726L107.76458333333333,57.36559088799423L109.32638888888889,60.69735860559487L110.88819444444444,59.41562534639999L112.45,59.15390231405712L114.01180555555555,60.06706617147715L115.5736111111111,59.96119668897512L117.13541666666667,52.7313695387989L118.69722222222222,56.71042259767283L120.25902777777777,58.89215304574475L121.82083333333334,59.09558808168225L123.38263888888889,59.72881780586279L124.94444444444444,62.51881021452901L126.50625000000001,61.757023326029895L128.06805555555556,60.953851431628806L129.62986111111113,62.16135544610694L131.19166666666666,62.800516861453076L132.75347222222223,64.44819148772403L134.3152777777778,65.50966460613897L135.87708333333333,65.04053408473011L137.4388888888889,65.98897901315212L139.00069444444446,65.18393166497964L140.5625,66.46613302162841L142.12430555555554,65.88138852634144L143.6861111111111,63.976840113070594L145.24791666666667,63.17157041752763L146.80972222222223,65.37902098646111L148.37152777777777,66.65729059896702L149.93333333333334,65.84544971631898L151.49513888888887,67.63349791157046L153.05694444444444,62.93122273052015L154.61875,63.61421163520262L156.18055555555557,64.494767579357L157.7423611111111,66.56901808538426L159.30416666666667,65.24528158912463L160.8659722222222,64.25483403297399L162.42777777777775,63.75712046467068L163.98958333333334,66.34931172006647L165.55138888888888,50.382197321328746L167.11319444444445,56.39639229164456L168.67499999999998,60.09730729882688L170.23680555555555,61.4000468073603L171.79861111111111,58.94792744813867L173.36041666666668,57.870886056669164L174.92222222222222,62.003197766552375L176.48402777777778,62.70988634358305L178.04583333333332,61.204598163275506L179.60763888888889,64.04167320899052L181.16944444444445,64.87071050870584L182.73125000000002,65.17993547123282L184.29305555555555,64.74428499094628L185.85486111111112,65.85865562092002L187.41666666666666,63.758445077656575L188.97847222222225,64.86182159598286L190.5402777777778,66.21899842820827L192.10208333333333,66.23933700881076L193.6638888888889,63.01289575713224L195.22569444444443,64.7297623045779L196.7875,64.97788913179637L198.34930555555556,64.97844678946839L199.91111111111113,66.50422969596612L201.47291666666666,66.87575615763687L203.03472222222223,66.80806462646939L204.59652777777777,68.15112312649104L206.15833333333333,65.90984249723313L207.7201388888889,66.54170281194327L209.28194444444446,66.69991510232778L210.84375,65.13657911972074L212.40555555555554,65.07475046597804L213.9673611111111,66.2590281143076L215.52916666666667,65.28862351520785L217.09097222222223,66.10934641107796L218.65277777777777,65.148677280913L220.21458333333334,66.2619424454075L221.77638888888887,67.11177239961971L223.33819444444444,64.92614231083932L224.9,62.8807963099316L226.46180555555557,64.66930767070996L228.0236111111111,62.67392674891029L229.58541666666667,63.69025719878897L231.1472222222222,63.63684569112638L232.70902777777775,63.090439639527716L234.27083333333334,64.2155897222434L235.83263888888888,65.53996926819302L237.39444444444445,64.67404809841626L238.95624999999998,65.27562551758243L240.51805555555555,65.20846551141382L242.07986111111111,64.79907768598561L243.64166666666668,65.18522777801365L245.20347222222222,66.01871342527801L246.76527777777778,64.6620946103762L248.32708333333332,64.3019026444412L249.88888888888889,64.75745896495461L251.45069444444445,65.1057209276397L253.01250000000002,64.21096146245316L254.57430555555555,63.75742418021633L256.1361111111111,64.93752712808748L257.69791666666663,63.753798857077655L259.25972222222225,63.299709713256476L260.82152777777776,60.48156224007917L262.3833333333333,61.06113072813646L263.9451388888889,61.026694965443895" fill="none"></path></g></g></g></g><g opacity="0.20000000298023224"><g><g><g><path style="fill: none;" stroke="rgb(0, 153, 136)" stroke-width="2px" d="M31.23611111111111,9.55789567638007L32.797916666666666,55.31545699115982L34.359722222222224,66.12612957790901L35.921527777777776,73.46188737472589L37.483333333333334,79.5480975805782L39.04513888888889,84.9090080856446L40.60694444444444,89.00580253833938L42.168749999999996,92.71383433635327L43.730555555555554,97.04198638273378L45.29236111111111,99.4563319600686L46.854166666666664,102.4687079860369L48.41597222222222,105.63783909620273L49.97777777777778,108.05109428187484L51.53958333333333,110.26587122064026L53.101388888888884,112.56349358121014L54.66319444444444,115.33115097960271L56.225,116.98132332058731L57.78680555555555,118.62965119983633L59.34861111111111,120.38843414384198L60.91041666666667,122.9899911264431L62.47222222222222,124.186244778772L64.03402777777778,124.56764057808539L65.59583333333333,125.76638272390166L67.1576388888889,128.10517240042444L68.71944444444445,129.36770027434883L70.28125,131.70397777354478L71.84305555555555,131.6550566469253L73.40486111111112,132.85022867214923L74.96666666666667,134.1426329770942L76.52847222222222,134.15704229710133L78.09027777777779,136.97906973075646L79.65208333333334,131.90610362445494L81.21388888888887,126.93489931302418L82.77569444444444,125.8089505434222L84.33749999999999,133.41339388834348L85.89930555555556,129.95129279027077L87.46111111111111,129.78259620118394L89.02291666666666,133.32646673809668L90.58472222222223,131.484628482499L92.14652777777778,131.46692168453933L93.70833333333333,127.56391093621492L95.2701388888889,129.0077092011952L96.83194444444445,130.97681227276178L98.39375,131.53964288093403L99.95555555555556,124.8911377512067L101.51736111111111,133.60814228313336L103.07916666666667,132.9484763680202L104.64097222222223,134.54575370390955L106.20277777777777,131.6388644980297L107.76458333333333,132.64669767230606L109.32638888888889,131.89599445304373L110.88819444444444,133.99454739317306L112.45,130.5827259260369L114.01180555555555,131.10674998081362L115.5736111111111,129.50132442423472L117.13541666666667,134.34486978969755L118.69722222222222,132.82757248713065L120.25902777777777,133.15853870569933L121.82083333333334,134.81079115735562L123.38263888888889,134.87518104213092L124.94444444444444,132.93779014921114L126.50625000000001,134.5979221338362L128.06805555555556,134.83087339005252L129.62986111111113,134.962645168045L131.19166666666666,130.2854070691843L132.75347222222223,135.55194572553881L134.3152777777778,131.61261864606905L135.87708333333333,135.69123791403968L137.4388888888889,135.6784051484864L139.00069444444446,137.54087165163452L140.5625,136.52890749183138L142.12430555555554,138.73106072948798L143.6861111111111,136.00729747579146L145.24791666666667,137.59805091398243L146.80972222222223,138.47330230208695L148.37152777777777,138.8755954257279L149.93333333333334,137.5371366206081L151.49513888888887,133.13511653238106L153.05694444444444,137.2973677323247L154.61875,139.01963252138293L156.18055555555557,143.76728700713159L157.7423611111111,138.50613561101318L159.30416666666667,137.60914094038606L160.8659722222222,139.59882676548045L162.42777777777775,141.4694631623399L163.98958333333334,141.27330375256633L165.55138888888888,142.00692647796447L167.11319444444445,139.07930965484599L168.67499999999998,139.96586277797616L170.23680555555555,140.40175507170574L171.79861111111111,136.56107942940434L173.36041666666668,144.1729996376696L174.92222222222222,142.82696006923427L176.48402777777778,145.5258251302472L178.04583333333332,143.4811840849289L179.60763888888889,141.50926583106866L181.16944444444445,143.24708955486273L182.73125000000002,143.08654135992288L184.29305555555555,142.77269023662564L185.85486111111112,144.49338898764105L187.41666666666666,145.05460706196462L188.97847222222225,141.6365199724222L190.5402777777778,145.76976349087764L192.10208333333333,146.4847044233773L193.6638888888889,146.8922456289516L195.22569444444443,145.20897415495153L196.7875,146.22563547195816L198.34930555555556,143.13452372617985L199.91111111111113,144.83412894108073L201.47291666666666,150.20828312624823L203.03472222222223,150.01975236825098L204.59652777777777,142.16399730237418L206.15833333333333,138.8259831862128L207.7201388888889,151.06735245784705L209.28194444444446,150.4936366889192L210.84375,152.42969965906912L212.40555555555554,147.27722088937116L213.9673611111111,148.57247494833595L215.52916666666667,148.82297933494982L217.09097222222223,151.88957251053083L218.65277777777777,147.83660175967083L220.21458333333334,149.00249773766168L221.77638888888887,151.51316917582574L223.33819444444444,147.4970759000739L224.9,153.1169043736191L226.46180555555557,149.94929051563514L228.0236111111111,148.52416409100505L229.58541666666667,149.8699764526305L231.1472222222222,150.85031490843056L232.70902777777775,149.93018741036556L234.27083333333334,151.14083200976162L235.83263888888888,155.64046293250874L237.39444444444445,152.32174135639607L238.95624999999998,152.32905141338642L240.51805555555555,153.8490191863891L242.07986111111111,152.56751028540273L243.64166666666668,151.12336589788845L245.20347222222222,153.07607935931958L246.76527777777778,156.9313602581313L248.32708333333332,151.74907354948505L249.88888888888889,153.0334833920529L251.45069444444445,151.33938388542788L253.01250000000002,153.1726665435424L254.57430555555555,153.7333160223764L256.1361111111111,153.88862142633022L257.69791666666663,160.76796269152004L259.25972222222225,154.98014038255909L260.82152777777776,154.1926081154366L262.3833333333333,155.54246260860273L263.9451388888889,154.95741897866722" fill="none"></path></g><g><path style="fill: none;" stroke="rgb(238, 51, 119)" stroke-width="2px" d="M31.23611111111111,33.4404834013981L32.797916666666666,39.937627245419776L34.359722222222224,30.990333075774856L35.921527777777776,39.86910811571164L37.483333333333334,33.09971935189108L39.04513888888889,37.998245875260295L40.60694444444444,40.746671688817344L42.168749999999996,23.467446941047257L43.730555555555554,35.30594971231531L45.29236111111111,30.32172295567088L46.854166666666664,20.43271566345868L48.41597222222222,37.64764828070989L49.97777777777778,31.17568626921326L51.53958333333333,35.42322322277036L53.101388888888884,31.911986881979885L54.66319444444444,13.51261396703157L56.225,38.88370129435282L57.78680555555555,28.1918516530541L59.34861111111111,9.407096539533086L60.91041666666667,31.375303004807336L62.47222222222222,8.793854416155483L64.03402777777778,31.913392448592646L65.59583333333333,26.406149355059966L67.1576388888889,4.878356184243273L68.71944444444445,37.7529561982422L70.28125,28.396183559132282L71.84305555555555,25.53988370228302L73.40486111111112,13.274112201541442L74.96666666666667,20.600199016461147L76.52847222222222,1.783064809768291L78.09027777777779,13.09060344819045L79.65208333333334,34.53093163923285L81.21388888888887,37.95025612167788L82.77569444444444,49.66480373223061L84.33749999999999,35.348182435952054L85.89930555555556,41.95560918296016L87.46111111111111,44.66624462817356L89.02291666666666,51.400534411847744L90.58472222222223,53.835576274970734L92.14652777777778,39.5636141039906L93.70833333333333,49.518099680650096L95.2701388888889,59.89341249693912L96.83194444444445,50.68416801888392L98.39375,62.09239048085327L99.95555555555556,62.5004872716428L101.51736111111111,60.058106431582516L103.07916666666667,60.95777286090551L104.64097222222223,54.869909435267246L106.20277777777777,58.79988532051949L107.76458333333333,56.23538881525947L109.32638888888889,66.13873138414604L110.88819444444444,57.5510404628244L112.45,58.76380005878312L114.01180555555555,61.4679751865271L115.5736111111111,59.80280027426444L117.13541666666667,43.49662122957494L118.69722222222222,63.324009736692304L120.25902777777777,62.3488988491187L121.82083333333334,59.40225858468375L123.38263888888889,60.69353664775393L124.94444444444444,67.01014385914493L126.50625000000001,60.63510599114265L128.06805555555556,59.772149637939236L129.62986111111113,64.02753425593939L131.19166666666666,63.77441558997387L132.75347222222223,67.0231962764299L134.3152777777778,67.14414965140827L135.87708333333333,64.34477145744798L137.4388888888889,67.44529591365253L139.00069444444446,63.99952339127934L140.5625,68.45148818463292L142.12430555555554,65.01656057569713L143.6861111111111,61.246154452318706L145.24791666666667,61.9868412888337L146.80972222222223,68.87884956416418L148.37152777777777,68.63636161603375L149.93333333333334,64.65123966684995L151.49513888888887,70.43791841597066L153.05694444444444,56.59768748508347L154.61875,64.6560215541784L156.18055555555557,65.8445536514927L157.7423611111111,69.84635043028442L159.30416666666667,63.321491759063335L160.8659722222222,62.8040588891038L162.42777777777775,63.01947289323701L163.98958333333334,70.50056727169893L165.55138888888888,33.068520252488895L167.11319444444445,66.98667568752627L168.67499999999998,66.20210286520765L170.23680555555555,63.418248621938076L171.79861111111111,55.476078370485766L173.36041666666668,56.29649905914803L174.92222222222222,68.90049625920024L176.48402777777778,63.78848075785716L178.04583333333332,59.02623968065305L179.60763888888889,68.61448235077994L181.16944444444445,66.13989469366194L182.73125000000002,65.64728978579441L184.29305555555555,64.09765637472329L185.85486111111112,67.57687167494399L187.41666666666666,60.76078333431566L188.97847222222225,66.5626168342134L190.5402777777778,68.32442718029198L192.10208333333333,66.26985997970623L193.6638888888889,58.52391060267496L195.22569444444443,67.41764272656862L196.7875,65.35234016299064L198.34930555555556,64.97928328732257L199.91111111111113,68.88135604369275L201.47291666666666,67.43813091329427L203.03472222222223,66.70669421304736L204.59652777777777,70.23390645110146L206.15833333333333,62.721176644330285L207.7201388888889,67.50430273889374L209.28194444444446,66.93815054712272L210.84375,62.87728112006769L212.40555555555554,64.98214673362699L213.9673611111111,68.0882417498708L215.52916666666667,63.86653166764481L217.09097222222223,67.36554195660857L218.65277777777777,63.74052759360431L220.21458333333334,67.97840638881962L221.77638888888887,68.41346214761222L223.33819444444444,61.812678050198826L224.9,59.95775364229246L226.46180555555557,67.47448787474927L228.0236111111111,59.819003469647456L229.58541666666667,65.25346201360647L231.1472222222222,63.55683236767908L232.70902777777775,62.28157125794101L234.27083333333334,65.9508958083473L235.83263888888888,67.59281692653329L237.39444444444445,63.4019232228992L238.95624999999998,66.19140483534002L240.51805555555555,65.10788977724958L242.07986111111111,64.19104646444568L243.64166666666668,65.76994827264876L245.20347222222222,67.29484896473112L246.76527777777778,62.692037326500696L248.32708333333332,63.76630432356809L249.88888888888889,65.4484557643064L251.45069444444445,65.6325793071607L253.01250000000002,62.897370224636674L254.57430555555555,63.08453576011122L256.1361111111111,66.76010124197398L257.69791666666663,62.02780997746362L259.25972222222225,62.626011457934084L260.82152777777776,56.52448399932021L262.3833333333333,61.94292590922571L263.9451388888889,60.97508454668406" fill="none"></path></g></g></g></g></g></g><g transform="translate(48, 177)" clip-path="url(#clip_1)"><clipPath id="clip_1"><rect width="281" height="22"></rect></clipPath><g><g><line x1="0" y1="0" x2="0" y2="5" style="visibility: inherit;" fill="rgb(0, 0, 0)" stroke="rgb(204, 204, 204)" stroke-width="1px"></line><line x1="31.23611111111111" y1="0" x2="31.23611111111111" y2="5" style="visibility: inherit;" fill="rgb(0, 0, 0)" stroke="rgb(204, 204, 204)" stroke-width="1px"></line><line x1="62.47222222222222" y1="0" x2="62.47222222222222" y2="5" style="visibility: inherit;" fill="rgb(0, 0, 0)" stroke="rgb(204, 204, 204)" stroke-width="1px"></line><line x1="93.70833333333333" y1="0" x2="93.70833333333333" y2="5" style="visibility: inherit;" fill="rgb(0, 0, 0)" stroke="rgb(204, 204, 204)" stroke-width="1px"></line><line x1="124.94444444444444" y1="0" x2="124.94444444444444" y2="5" style="visibility: inherit;" fill="rgb(0, 0, 0)" stroke="rgb(204, 204, 204)" stroke-width="1px"></line><line x1="156.18055555555557" y1="0" x2="156.18055555555557" y2="5" style="visibility: inherit;" fill="rgb(0, 0, 0)" stroke="rgb(204, 204, 204)" stroke-width="1px"></line><line x1="187.41666666666666" y1="0" x2="187.41666666666666" y2="5" style="visibility: inherit;" fill="rgb(0, 0, 0)" stroke="rgb(204, 204, 204)" stroke-width="1px"></line><line x1="218.65277777777777" y1="0" x2="218.65277777777777" y2="5" style="visibility: inherit;" fill="rgb(0, 0, 0)" stroke="rgb(204, 204, 204)" stroke-width="1px"></line><line x1="249.88888888888889" y1="0" x2="249.88888888888889" y2="5" style="visibility: inherit;" fill="rgb(0, 0, 0)" stroke="rgb(204, 204, 204)" stroke-width="1px"></line><line x1="281.125" y1="0" x2="281.125" y2="5" style="visibility: inherit;" fill="rgb(0, 0, 0)" stroke="rgb(204, 204, 204)" stroke-width="1px"></line></g><g transform="translate(0, 8)"><text style="text-anchor: middle; visibility: hidden; font-family: &quot;Helvetica Neue&quot;, sans-serif; font-size: 12px; font-weight: 200;" x="0" y="0" dx="0em" dy="0.95em" fill="rgb(50, 49, 63)" stroke="none" stroke-width="1px">-20</text><text style="text-anchor: middle; visibility: inherit; font-family: &quot;Helvetica Neue&quot;, sans-serif; font-size: 12px; font-weight: 200;" x="31.23611111111111" y="0" dx="0em" dy="0.95em" fill="rgb(50, 49, 63)" stroke="none" stroke-width="1px">0</text><text style="text-anchor: middle; visibility: inherit; font-family: &quot;Helvetica Neue&quot;, sans-serif; font-size: 12px; font-weight: 200;" x="62.47222222222222" y="0" dx="0em" dy="0.95em" fill="rgb(50, 49, 63)" stroke="none" stroke-width="1px">20</text><text style="text-anchor: middle; visibility: inherit; font-family: &quot;Helvetica Neue&quot;, sans-serif; font-size: 12px; font-weight: 200;" x="93.70833333333333" y="0" dx="0em" dy="0.95em" fill="rgb(50, 49, 63)" stroke="none" stroke-width="1px">40</text><text style="text-anchor: middle; visibility: inherit; font-family: &quot;Helvetica Neue&quot;, sans-serif; font-size: 12px; font-weight: 200;" x="124.94444444444444" y="0" dx="0em" dy="0.95em" fill="rgb(50, 49, 63)" stroke="none" stroke-width="1px">60</text><text style="text-anchor: middle; visibility: inherit; font-family: &quot;Helvetica Neue&quot;, sans-serif; font-size: 12px; font-weight: 200;" x="156.18055555555557" y="0" dx="0em" dy="0.95em" fill="rgb(50, 49, 63)" stroke="none" stroke-width="1px">80</text><text style="text-anchor: middle; visibility: inherit; font-family: &quot;Helvetica Neue&quot;, sans-serif; font-size: 12px; font-weight: 200;" x="187.41666666666666" y="0" dx="0em" dy="0.95em" fill="rgb(50, 49, 63)" stroke="none" stroke-width="1px">100</text><text style="text-anchor: middle; visibility: inherit; font-family: &quot;Helvetica Neue&quot;, sans-serif; font-size: 12px; font-weight: 200;" x="218.65277777777777" y="0" dx="0em" dy="0.95em" fill="rgb(50, 49, 63)" stroke="none" stroke-width="1px">120</text><text style="text-anchor: middle; visibility: inherit; font-family: &quot;Helvetica Neue&quot;, sans-serif; font-size: 12px; font-weight: 200;" x="249.88888888888889" y="0" dx="0em" dy="0.95em" fill="rgb(50, 49, 63)" stroke="none" stroke-width="1px">140</text><text style="text-anchor: middle; visibility: hidden; font-family: &quot;Helvetica Neue&quot;, sans-serif; font-size: 12px; font-weight: 200;" x="281.125" y="0" dx="0em" dy="0.95em" fill="rgb(50, 49, 63)" stroke="none" stroke-width="1px">160</text></g><line x1="0" y1="0" x2="281.125" y2="0" fill="rgb(0, 0, 0)" stroke="rgb(204, 204, 204)" stroke-width="1px"></line></g></g></g></g></svg>