<svg viewBox="0 0 330 200" xmlns="http://www.w3.org/2000/svg"><g><g><g><g><g><line x1="58.59375" y1="177.828125" x2="53.59375" y2="177.828125" style="visibility: inherit;" fill="rgb(0, 0, 0)" stroke="rgb(204, 204, 204)" stroke-width="1px"></line><line x1="58.59375" y1="155.599609375" x2="53.59375" y2="155.599609375" style="visibility: inherit;" fill="rgb(0, 0, 0)" stroke="rgb(204, 204, 204)" stroke-width="1px"></line><line x1="58.59375" y1="133.37109375" x2="53.59375" y2="133.37109375" style="visibility: inherit;" fill="rgb(0, 0, 0)" stroke="rgb(204, 204, 204)" stroke-width="1px"></line><line x1="58.59375" y1="111.14257812499999" x2="53.59375" y2="111.14257812499999" style="visibility: inherit;" fill="rgb(0, 0, 0)" stroke="rgb(204, 204, 204)" stroke-width="1px"></line><line x1="58.59375" y1="88.91406249999999" x2="53.59375" y2="88.91406249999999" style="visibility: inherit;" fill="rgb(0, 0, 0)" stroke="rgb(204, 204, 204)" stroke-width="1px"></line><line x1="58.59375" y1="66.685546875" x2="53.59375" y2="66.685546875" style="visibility: inherit;" fill="rgb(0, 0, 0)" stroke="rgb(204, 204, 204)" stroke-width="1px"></line><line x1="58.59375" y1="44.45703125" x2="53.59375" y2="44.45703125" style="visibility: inherit;" fill="rgb(0, 0, 0)" stroke="rgb(204, 204, 204)" stroke-width="1px"></line><line x1="58.59375" y1="22.228515625" x2="53.59375" y2="22.228515625" style="visibility: inherit;" fill="rgb(0, 0, 0)" stroke="rgb(204, 204, 204)" stroke-width="1px"></line><line x1="58.59375" y1="0" x2="53.59375" y2="0" style="visibility: inherit;" fill="rgb(0, 0, 0)" stroke="rgb(204, 204, 204)" stroke-width="1px"></line></g><g transform="translate(48.59375, 0)"><text style="text-anchor: end; visibility: hidden; font-family: &quot;Helvetica Neue&quot;, sans-serif; font-size: 12px; font-weight: 200;" x="0" y="177.828125" dx="0em" dy="0.3em" fill="rgb(50, 49, 63)" stroke="none" stroke-width="1px">-0.05</text><text style="text-anchor: end; visibility: inherit; font-family: &quot;Helvetica Neue&quot;, sans-serif; font-size: 12px; font-weight: 200;" x="0" y="155.599609375" dx="0em" dy="0.3em" fill="rgb(50, 49, 63)" stroke="none" stroke-width="1px">0</text><text style="text-anchor: end; visibility: hidden; font-family: &quot;Helvetica Neue&quot;, sans-serif; font-size: 12px; font-weight: 200;" x="0" y="133.37109375" dx="0em" dy="0.3em" fill="rgb(50, 49, 63)" stroke="none" stroke-width="1px">0.05</text><text style="text-anchor: end; visibility: inherit; font-family: &quot;Helvetica Neue&quot;, sans-serif; font-size: 12px; font-weight: 200;" x="0" y="111.14257812499999" dx="0em" dy="0.3em" fill="rgb(50, 49, 63)" stroke="none" stroke-width="1px">0.1</text><text style="text-anchor: end; visibility: hidden; font-family: &quot;Helvetica Neue&quot;, sans-serif; font-size: 12px; font-weight: 200;" x="0" y="88.91406249999999" dx="0em" dy="0.3em" fill="rgb(50, 49, 63)" stroke="none" stroke-width="1px">0.15</text><text style="text-anchor: end; visibility: inherit; font-family: &quot;Helvetica Neue&quot;, sans-serif; font-size: 12px; font-weight: 200;" x="0" y="66.685546875" dx="0em" dy="0.3em" fill="rgb(50, 49, 63)" stroke="none" stroke-width="1px">0.2</text><text style="text-anchor: end; visibility: hidden; font-family: &quot;Helvetica Neue&quot;, sans-serif; font-size: 12px; font-weight: 200;" x="0" y="44.45703125" dx="0em" dy="0.3em" fill="rgb(50, 49, 63)" stroke="none" stroke-width="1px">0.25</text><text style="text-anchor: end; visibility: inherit; font-family: &quot;Helvetica Neue&quot;, sans-serif; font-size: 12px; font-weight: 200;" x="0" y="22.228515625" dx="0em" dy="0.3em" fill="rgb(50, 49, 63)" stroke="none" stroke-width="1px">0.3</text><text style="text-anchor: end; visibility: hidden; font-family: &quot;Helvetica Neue&quot;, sans-serif; font-size: 12px; font-weight: 200;" x="0" y="0" dx="0em" dy="0.3em" fill="rgb(50, 49, 63)" stroke="none" stroke-width="1px">0.35</text></g><line x1="58.59375" y1="0" x2="58.59375" y2="177.828125" fill="rgb(0, 0, 0)" stroke="rgb(204, 204, 204)" stroke-width="1px"></line></g></g><g transform="translate(58, 0)" clip-path="url(#clip_0)"><clipPath id="clip_0"><rect width="271" height="177"></rect></clipPath><g><g><g><line x1="0" y1="0" x2="0" y2="177.828125" fill="rgb(0, 0, 0)" stroke="rgb(60, 60, 60)" stroke-width="1px" opacity="0.25"></line><line x1="19.38616071428571" y1="0" x2="19.38616071428571" y2="177.828125" fill="rgb(0, 0, 0)" stroke="rgb(60, 60, 60)" stroke-width="1px" opacity="0.25"></line><line x1="38.77232142857142" y1="0" x2="38.77232142857142" y2="177.828125" fill="rgb(0, 0, 0)" stroke="rgb(60, 60, 60)" stroke-width="1px" opacity="0.25"></line><line x1="58.15848214285714" y1="0" x2="58.15848214285714" y2="177.828125" fill="rgb(0, 0, 0)" stroke="rgb(60, 60, 60)" stroke-width="1px" opacity="0.25"></line><line x1="77.54464285714285" y1="0" x2="77.54464285714285" y2="177.828125" fill="rgb(0, 0, 0)" stroke="rgb(60, 60, 60)" stroke-width="1px" opacity="0.25"></line><line x1="96.93080357142857" y1="0" x2="96.93080357142857" y2="177.828125" fill="rgb(0, 0, 0)" stroke="rgb(60, 60, 60)" stroke-width="1px" opacity="0.25"></line><line x1="116.31696428571428" y1="0" x2="116.31696428571428" y2="177.828125" fill="rgb(0, 0, 0)" stroke="rgb(60, 60, 60)" stroke-width="1px" opacity="0.25"></line><line x1="135.703125" y1="0" x2="135.703125" y2="177.828125" fill="rgb(0, 0, 0)" stroke="rgb(60, 60, 60)" stroke-width="1px" opacity="0.25"></line><line x1="155.0892857142857" y1="0" x2="155.0892857142857" y2="177.828125" fill="rgb(0, 0, 0)" stroke="rgb(60, 60, 60)" stroke-width="1px" opacity="0.25"></line><line x1="174.47544642857144" y1="0" x2="174.47544642857144" y2="177.828125" fill="rgb(0, 0, 0)" stroke="rgb(60, 60, 60)" stroke-width="1px" opacity="0.25"></line><line x1="193.86160714285714" y1="0" x2="193.86160714285714" y2="177.828125" fill="rgb(0, 0, 0)" stroke="rgb(60, 60, 60)" stroke-width="1px" opacity="0.25"></line><line x1="213.24776785714286" y1="0" x2="213.24776785714286" y2="177.828125" fill="rgb(0, 0, 0)" stroke="rgb(60, 60, 60)" stroke-width="1px" opacity="0.25"></line><line x1="232.63392857142856" y1="0" x2="232.63392857142856" y2="177.828125" fill="rgb(0, 0, 0)" stroke="rgb(60, 60, 60)" stroke-width="1px" opacity="0.25"></line><line x1="252.0200892857143" y1="0" x2="252.0200892857143" y2="177.828125" fill="rgb(0, 0, 0)" stroke="rgb(60, 60, 60)" stroke-width="1px" opacity="0.25"></line><line x1="271.40625" y1="0" x2="271.40625" y2="177.828125" fill="rgb(0, 0, 0)" stroke="rgb(60, 60, 60)" stroke-width="1px" opacity="0.25"></line></g><g><line x1="0" y1="177.828125" x2="271.40625" y2="177.828125" fill="rgb(0, 0, 0)" stroke="rgb(60, 60, 60)" stroke-width="1px" opacity="0.25"></line><line x1="0" y1="155.599609375" x2="271.40625" y2="155.599609375" fill="rgb(0, 0, 0)" stroke="rgb(60, 60, 60)" stroke-width="1px" opacity="0.25"></line><line x1="0" y1="133.37109375" x2="271.40625" y2="133.37109375" fill="rgb(0, 0, 0)" stroke="rgb(60, 60, 60)" stroke-width="1px" opacity="0.25"></line><line x1="0" y1="111.14257812499999" x2="271.40625" y2="111.14257812499999" fill="rgb(0, 0, 0)" stroke="rgb(60, 60, 60)" stroke-width="1px" opacity="0.25"></line><line x1="0" y1="88.91406249999999" x2="271.40625" y2="88.91406249999999" fill="rgb(0, 0, 0)" stroke="rgb(60, 60, 60)" stroke-width="1px" opacity="0.25"></line><line x1="0" y1="66.685546875" x2="271.40625" y2="66.685546875" fill="rgb(0, 0, 0)" stroke="rgb(60, 60, 60)" stroke-width="1px" opacity="0.25"></line><line x1="0" y1="44.45703125" x2="271.40625" y2="44.45703125" fill="rgb(0, 0, 0)" stroke="rgb(60, 60, 60)" stroke-width="1px" opacity="0.25"></line><line x1="0" y1="22.228515625" x2="271.40625" y2="22.228515625" fill="rgb(0, 0, 0)" stroke="rgb(60, 60, 60)" stroke-width="1px" opacity="0.25"></line><line x1="0" y1="0" x2="271.40625" y2="0" fill="rgb(0, 0, 0)" stroke="rgb(60, 60, 60)" stroke-width="1px" opacity="0.25"></line></g></g></g><g><g><line x1="0" y1="155.599609375" x2="271.40625" y2="155.599609375" fill="rgb(0, 0, 0)" stroke="rgb(153, 153, 153)" stroke-width="1.5px"></line></g></g><g><g><line x1="19.38616071428571" y1="0" x2="19.38616071428571" y2="177.828125" fill="rgb(0, 0, 0)" stroke="rgb(153, 153, 153)" stroke-width="1.5px"></line></g></g><g><g><g><g><g><path style="fill: none;" stroke="rgb(51, 187, 238)" stroke-width="2px" d="M29.07924107142857,-9.951127970893538L31.017857142857142,7.411862524613554L32.956473214285715,20.92848942870279L34.895089285714285,30.976560911953015L36.833705357142854,39.31577757465166L38.77232142857142,45.95805169542396L40.7109375,51.67802815705687L42.64955357142857,56.09066385241702L44.588169642857146,60.41095954310059L46.526785714285715,63.977125133536745L48.465401785714285,66.93682005076349L50.40401785714286,70.24063053917428L52.34263392857143,72.66448406921613L54.28125,74.7020615301857L56.21986607142858,76.96543918107184L58.15848214285714,79.13884382096168L60.09709821428571,81.19947910074387L62.035714285714285,82.89653544738579L63.974330357142854,84.86514818876833L65.91294642857143,86.02478775684752L67.8515625,87.28901257604703L69.79017857142857,88.38789789855859L71.72879464285714,89.85226519559227L73.66741071428571,91.5217714433933L75.60602678571429,92.72771433956589L77.54464285714285,93.99260897742907L79.48325892857143,94.80411859277079L81.421875,95.76883124478384L83.36049107142858,96.76872722686659L85.29910714285714,97.57997673523134L87.23772321428572,98.37712139335211L89.17633928571429,99.2729059269539L91.11495535714285,100.25728502245383L93.05357142857143,101.38208954443152L94.9921875,101.93126358269693L96.93080357142857,102.68062543439791L98.86941964285714,103.39672823821171L100.80803571428572,104.2834074584327L102.74665178571428,104.841437798683L104.68526785714286,105.55088851759066L106.62388392857143,106.0754379357949L108.5625,106.53755199649471L110.50111607142857,107.00189952912073L112.43973214285715,107.96463854958455L114.37834821428571,108.30776798035198L116.31696428571428,109.18921051394172L118.25558035714286,109.50239450495395L120.19419642857142,110.27096953089027L122.1328125,110.84485620037519L124.07142857142857,110.89573370587564L126.01004464285715,111.53065950714458L127.94866071428571,112.22228155590108L129.88727678571428,113.04657775302415L131.82589285714286,113.37194825843352L133.76450892857144,113.82414198426198L135.703125,114.29179057665158L137.64174107142856,114.6955313042737L139.58035714285714,114.53420956244688L141.51897321428572,115.3139549538614L143.45758928571428,115.80014309472199L145.39620535714286,116.21664118121161L147.33482142857142,116.7683017951116L149.2734375,117.10327558163029L151.21205357142858,117.51809179048203L153.15066964285714,117.40031046198398L155.0892857142857,117.5914225571511L157.0279017857143,117.9875087119286L158.96651785714286,118.49263184039131L160.90513392857142,118.97417281562682L162.84375,119.55602987738365L164.78236607142856,120.00539969610446L166.72098214285717,120.13015188097631L168.65959821428572,120.35247769644104L170.59821428571428,120.58761930551152L172.53683035714283,120.9825276770168L174.47544642857144,121.19192755537136L176.4140625,121.95749060986861L178.35267857142858,122.35226760545459L180.29129464285714,122.62694047426818L182.2299107142857,122.91314554475534L184.1685267857143,122.77864183528055L186.10714285714286,123.34691328457473L188.04575892857142,123.28752688825546L189.984375,123.54906860489089L191.92299107142858,123.99710301774554L193.86160714285714,124.2757519426234L195.80022321428572,124.65713493840899L197.73883928571428,124.84766651806778L199.67745535714286,125.06868017222948L201.61607142857144,125.06087172382173L203.5546875,125.50558721174934L205.49330357142856,125.82747102068821L207.43191964285714,126.21544577466466L209.37053571428572,126.27389728795914L211.30915178571428,126.22510058410666L213.24776785714286,126.66289626369931L215.18638392857142,126.93259046248568L217.125,127.07516247841122L219.06361607142858,127.27527441040088L221.00223214285714,127.67896447631261L222.9408482142857,127.69159125970795L224.8794642857143,127.84056772581232L226.81808035714286,127.80127114315103L228.75669642857142,127.82981764301363L230.6953125,128.03952439359443L232.63392857142856,128.47290210587192L234.57254464285717,128.3852557471389L236.51116071428572,128.60922767528905L238.44977678571428,128.91919556083405L240.38839285714283,129.0857794226954L242.32700892857144,129.24629527228834L244.265625,129.15632262688194L246.20424107142858,128.93488403714719L248.14285714285714,129.64640874369297L250.0814732142857,130.0342403330621" fill="none"></path></g><g><path style="fill: none;" stroke="rgb(204, 51, 17)" stroke-width="2px" d="M23.263392857142858,-5.161453589364612L25.20200892857143,9.432616908047606L27.140625,22.86457376333587L29.07924107142857,34.93263543181908L31.017857142857142,43.62787037821886L32.956473214285715,49.31258527377173L34.895089285714285,54.838419264179876L36.833705357142854,60.22388765675527L38.77232142857142,63.255531266929765L40.7109375,66.41107701427869L42.64955357142857,68.3246730796872L44.588169642857146,71.63145515309684L46.526785714285715,73.97683413152097L48.465401785714285,76.11378220268816L50.40401785714286,76.27395536206926L52.34263392857143,76.59211886610343L54.28125,78.45019521382862L56.21986607142858,78.78400401971135L58.15848214285714,80.67324795472857L60.09709821428571,81.64458980877183L62.035714285714285,82.42015922560293L63.974330357142854,82.0262380653715L65.91294642857143,83.34089857390016L67.8515625,84.92532587123274L69.79017857142857,86.1466015738916L71.72879464285714,86.06435534737963L73.66741071428571,86.10149068505456L75.60602678571429,87.14788441556765L77.54464285714285,87.44769608100745L79.48325892857143,88.76399856000803L81.421875,90.05649545391499L83.36049107142858,91.01663744419665L85.29910714285714,91.81477173258486L87.23772321428572,91.78505153506477L89.17633928571429,91.29316999348636L91.11495535714285,91.3360845190938L93.05357142857143,91.4685637138755L94.9921875,92.06669225258437L96.93080357142857,92.29285186054813L98.86941964285714,92.66058930091937L100.80803571428572,92.43784635733941L102.74665178571428,92.30341888679361L104.68526785714286,92.34521176760991L106.62388392857143,92.26184256673442L108.5625,92.3676346147228L110.50111607142857,92.97591543987531L112.43973214285715,93.20307606700078L114.37834821428571,93.92043587636344L116.31696428571428,94.62509487789178L118.25558035714286,94.1097628069713L120.19419642857142,94.46887316241815L122.1328125,94.26503046484055L124.07142857142857,94.45437318206785L126.01004464285715,94.77219975951523L127.94866071428571,95.92804365294505L129.88727678571428,95.62549159363736L131.82589285714286,95.48921972013943L133.76450892857144,96.05065890740006L135.703125,95.66710625875757L137.64174107142856,95.27313471888014L139.58035714285714,95.14037400539856L141.51897321428572,95.07677299152995L143.45758928571428,96.17156709965839L145.39620535714286,95.44472336379377L147.33482142857142,95.60565117452221L149.2734375,95.91751311202862L151.21205357142858,96.30725866446468L153.15066964285714,96.30617333882792L155.0892857142857,96.01247837331701L157.0279017857143,95.16804189076234L158.96651785714286,94.97404587769631L160.90513392857142,95.08904338313862L162.84375,95.49987461289935L164.78236607142856,96.43636398508725L166.72098214285717,97.03156351718614L168.65959821428572,95.28246674594394L170.59821428571428,94.56110991002572L172.53683035714283,95.55005984185571L174.47544642857144,95.16397003814761L176.4140625,95.7894431488171L178.35267857142858,95.83897620139932L180.29129464285714,95.90069026818486L182.2299107142857,95.85791065981789L184.1685267857143,96.17813518468398L186.10714285714286,95.65494144207116L188.04575892857142,96.05024311018514L189.984375,96.21945822240241L191.92299107142858,96.37866382809217L193.86160714285714,95.85180471667563L195.80022321428572,96.00804806869014L197.73883928571428,95.65198014701998L199.67745535714286,95.50486906637792L201.61607142857144,95.78762584312659L203.5546875,95.1017481233058L205.49330357142856,94.06661478793637L207.43191964285714,95.46484694238055L209.37053571428572,94.53927792829974L211.30915178571428,95.04415297580445L213.24776785714286,95.55160633350272L215.18638392857142,95.46240404318002L217.125,96.05116018424692L219.06361607142858,95.23638579666586L221.00223214285714,95.02691028009896L222.9408482142857,95.29615000220264L224.8794642857143,95.11861429850161L226.81808035714286,95.56244459937825L228.75669642857142,95.28097200637798L230.6953125,95.46994479314677L232.63392857142856,95.07694827925752L234.57254464285717,94.570500445584L236.51116071428572,94.70018887577625L238.44977678571428,94.46086576797282L240.38839285714283,95.42448866986054L242.32700892857144,95.23636152435657L244.265625,94.70725809659028L246.20424107142858,94.33451761179882L248.14285714285714,94.80679960929955L250.0814732142857,93.83005330283667" fill="none"></path></g><g><path style="fill: none;" stroke="rgb(0, 119, 187)" stroke-width="2px" d="M29.07924107142857,-12.439116525001651L31.017857142857142,3.2186314255075956L32.956473214285715,15.024361272115243L34.895089285714285,23.535107518007067L36.833705357142854,30.52179907877388L38.77232142857142,35.978921096790344L40.7109375,41.07174925683759L42.64955357142857,44.85291569844023L44.588169642857146,48.75713712323875L46.526785714285715,52.05724988127609L48.465401785714285,54.19027860287392L50.40401785714286,56.7308478263448L52.34263392857143,58.83262586526831L54.28125,60.703052386454274L56.21986607142858,62.60157838901321L58.15848214285714,64.5192045177112L60.09709821428571,67.04339564106938L62.035714285714285,68.73953209928615L63.974330357142854,70.1743831633582L65.91294642857143,71.54305694928493L67.8515625,72.88674821883578L69.79017857142857,74.36692392198677L71.72879464285714,75.3073390075449L73.66741071428571,76.77820618165994L75.60602678571429,77.41181019215726L77.54464285714285,78.62078071218896L79.48325892857143,79.22181890899117L81.421875,80.34427507986756L83.36049107142858,80.96467763978512L85.29910714285714,81.67183844955824L87.23772321428572,82.55419783445946L89.17633928571429,83.42834511924192L91.11495535714285,84.56550692963941L93.05357142857143,85.37786108317108L94.9921875,85.68321063531181L96.93080357142857,86.77510805477561L98.86941964285714,87.48358259725869L100.80803571428572,88.00600409934584L102.74665178571428,88.68102842660193L104.68526785714286,89.06938344387207L106.62388392857143,89.49668313034417L108.5625,90.28609262493177L110.50111607142857,91.12715265716108L112.43973214285715,90.97143656468363L114.37834821428571,91.87426669283403L116.31696428571428,92.68968056636852L118.25558035714286,93.35921113285052L120.19419642857142,93.9827215457279L122.1328125,94.40261447480586L124.07142857142857,95.00437489294309L126.01004464285715,95.25363415984178L127.94866071428571,95.77263913685499L129.88727678571428,94.97930031224166L131.82589285714286,94.63222260312742L133.76450892857144,95.9962326896691L135.703125,97.15643966994271L137.64174107142856,98.02338085214623L139.58035714285714,98.80495017566541L141.51897321428572,99.06319989981955L143.45758928571428,99.5234092924514L145.39620535714286,99.80759840805565L147.33482142857142,100.02659080185472L149.2734375,100.64295699691965L151.21205357142858,100.97983648385912L153.15066964285714,100.9406771892825L155.0892857142857,101.7782582002312L157.0279017857143,102.18655047547122L158.96651785714286,102.65119538731436L160.90513392857142,102.73955648327077L162.84375,102.79544159865836L164.78236607142856,103.35362088910055L166.72098214285717,103.9375132514447L168.65959821428572,104.34394192449118L170.59821428571428,104.50026678008675L172.53683035714283,104.37775082598641L174.47544642857144,104.45745532354087L176.4140625,105.05496330901363L178.35267857142858,105.62779820820226L180.29129464285714,106.02767984825877L182.2299107142857,106.41823665304521L184.1685267857143,105.93993319654619L186.10714285714286,105.8120756731728L188.04575892857142,106.78009986721273L189.984375,106.87395226591627L191.92299107142858,107.20358864956658L193.86160714285714,106.92376629161535L195.80022321428572,107.59016085089675L197.73883928571428,107.8679880977116L199.67745535714286,108.8247597467604L201.61607142857144,109.00286161453369L203.5546875,109.09434833128508L205.49330357142856,109.2154692762254L207.43191964285714,109.58829514894367L209.37053571428572,110.24783461968532L211.30915178571428,109.94617857346755L213.24776785714286,109.93420931925797L215.18638392857142,110.2567612984215L217.125,110.55633798012495L219.06361607142858,109.32932205637813L221.00223214285714,110.29934540542247L222.9408482142857,110.90817452694716L224.8794642857143,111.6786519342053L226.81808035714286,112.11780655178414L228.75669642857142,112.38927403253047L230.6953125,112.18160276835324L232.63392857142856,111.94654914740569L234.57254464285717,112.15631280392373L236.51116071428572,112.30912390190154L238.44977678571428,112.70297642414165L240.38839285714283,112.81576936168793L242.32700892857144,112.742456116671L244.265625,113.13075999880448L246.20424107142858,113.30840825319619L248.14285714285714,113.34487831766636L250.0814732142857,113.52298597583683" fill="none"></path></g><g><path style="fill: none;" stroke="rgb(255, 112, 67)" stroke-width="2px" d="M23.263392857142858,-1.4779849412746557L25.20200892857143,11.349317857026648L27.140625,23.344253522540754L29.07924107142857,31.054367601040525L31.017857142857142,38.2668139087707L32.956473214285715,40.973529175681875L34.895089285714285,47.12846931293848L36.833705357142854,50.44563587433085L38.77232142857142,52.88766048569241L40.7109375,55.70387253866366L42.64955357142857,57.979040611042194L44.588169642857146,59.33972946561791L46.526785714285715,61.88578805077542L48.465401785714285,63.00702593215408L50.40401785714286,63.65964127454248L52.34263392857143,65.04162014405313L54.28125,66.20195526339637L56.21986607142858,66.3051997098337L58.15848214285714,67.92389612985215L60.09709821428571,69.33600221110213L62.035714285714285,70.55309317953161L63.974330357142854,72.09112435574794L65.91294642857143,72.07281127447915L67.8515625,71.98636367843686L69.79017857142857,72.23790284181933L71.72879464285714,73.67918515977142L73.66741071428571,74.97483227938902L75.60602678571429,74.66463329449783L77.54464285714285,74.13951651073523L79.48325892857143,74.25865551201632L81.421875,74.65960746958307L83.36049107142858,75.11927846805173L85.29910714285714,75.97723093847398L87.23772321428572,76.7823804397833L89.17633928571429,77.10012772110879L91.11495535714285,77.22402912870214L93.05357142857143,76.50726123047473L94.9921875,77.20732252562183L96.93080357142857,77.49879409534996L98.86941964285714,77.01828808565307L100.80803571428572,78.66799142503125L102.74665178571428,78.92936823519531L104.68526785714286,78.99266537253077L106.62388392857143,79.38324800362795L108.5625,79.12287406689994L110.50111607142857,78.1603043521811L112.43973214285715,79.33339093911519L114.37834821428571,78.68498430679247L116.31696428571428,77.9855904159494L118.25558035714286,78.43151818259102L120.19419642857142,79.27432451451219L122.1328125,78.55847455998635L124.07142857142857,79.30100187581861L126.01004464285715,79.00034030582867L127.94866071428571,79.01724821404623L129.88727678571428,79.31220365896495L131.82589285714286,80.00396507181408L133.76450892857144,79.77996396661285L135.703125,80.35583850555038L137.64174107142856,80.64749186877113L139.58035714285714,81.91640372827621L141.51897321428572,82.16825708950108L143.45758928571428,81.29862739952195L145.39620535714286,80.14367428975686L147.33482142857142,79.73147210941396L149.2734375,80.28499507450532L151.21205357142858,81.44055100975393L153.15066964285714,82.50300805677374L155.0892857142857,82.28968842296877L157.0279017857143,81.88145427643515L158.96651785714286,81.49180572273325L160.90513392857142,81.2137959678832L162.84375,81.47304288275657L164.78236607142856,80.99746141667173L166.72098214285717,80.91349284969648L168.65959821428572,81.23039090287537L170.59821428571428,80.51229517066093L172.53683035714283,80.80934235587074L174.47544642857144,79.68773397715749L176.4140625,80.10679415193006L178.35267857142858,80.07914587305073L180.29129464285714,80.50735733081115L182.2299107142857,81.13377337002473L184.1685267857143,80.74338040351847L186.10714285714286,80.40254928645665L188.04575892857142,81.08084401316373L189.984375,80.92997536285998L191.92299107142858,81.59590823323036L193.86160714285714,80.81648012201417L195.80022321428572,80.97905722249554L197.73883928571428,81.56883084362339L199.67745535714286,81.75738705117051L201.61607142857144,80.41729777588385L203.5546875,80.22039537328966L205.49330357142856,80.557539795684L207.43191964285714,80.80463003777172L209.37053571428572,80.71579455164385L211.30915178571428,80.75628454340136L213.24776785714286,80.81681252658078L215.18638392857142,81.56676982240204L217.125,81.21452730659999L219.06361607142858,81.17904144725004L221.00223214285714,81.39769874637494L222.9408482142857,81.35486981868844L224.8794642857143,81.18610730053916L226.81808035714286,81.8826811885502L228.75669642857142,82.08689957823847L230.6953125,81.60212575843146L232.63392857142856,81.84442364152645L234.57254464285717,80.8267295103509L236.51116071428572,80.84877160753987L238.44977678571428,80.39876146523613L240.38839285714283,80.26728400580038L242.32700892857144,80.88571498743117L244.265625,81.2450347605991L246.20424107142858,81.23590382232652L248.14285714285714,81.51246952059125L250.0814732142857,81.32329518713098" fill="none"></path></g></g></g></g><g opacity="0.20000000298023224"><g><g><g><path style="fill: none;" stroke="rgb(51, 187, 238)" stroke-width="2px" d="M25.20200892857143,-3.39059398137033L27.140625,13.505589735228568L29.07924107142857,24.199399203294888L31.017857142857142,32.241216741036624L32.956473214285715,40.63586121448316L34.895089285714285,45.79551461234223L36.833705357142854,51.69854243309237L38.77232142857142,55.86121793917846L40.7109375,60.22686499019619L42.64955357142857,62.69520937430207L44.588169642857146,66.8829391701147L46.526785714285715,69.32218162540812L48.465401785714285,71.37427502044011L50.40401785714286,75.19494820991531L52.34263392857143,76.2996489481302L54.28125,77.75811731722206L56.21986607142858,80.36029877571855L58.15848214285714,82.39883158612065L60.09709821428571,84.29036421433557L62.035714285714285,85.44208646193147L63.974330357142854,87.81804398074746L65.91294642857143,87.76423886674456L67.8515625,89.18534441350494L69.79017857142857,90.03622307057958L71.72879464285714,92.04881389299408L73.66741071428571,94.02602927724365L75.60602678571429,94.53662801731844L77.54464285714285,95.88995051477104L79.48325892857143,96.02138285432011L81.421875,97.21590010763612L83.36049107142858,98.26857112837024L85.29910714285714,98.7968509629136L87.23772321428572,99.57283835997805L89.17633928571429,100.61658271349734L91.11495535714285,101.73385365656577L93.05357142857143,103.06929632113315L94.9921875,102.75502463825978L96.93080357142857,103.80466821044683L98.86941964285714,104.47088244307088L100.80803571428572,105.61342628812417L102.74665178571428,105.6784833088168L104.68526785714286,106.61506459576776L106.62388392857143,106.86226206301944L108.5625,107.23072308750125L110.50111607142857,107.6984208280337L112.43973214285715,109.40874708024785L114.37834821428571,108.82246212649625L116.31696428571428,110.51137431431562L118.25558035714286,109.97217049147002L120.19419642857142,111.42383206979139L122.1328125,111.70568620460108L124.07142857142857,110.9720499641262L126.01004464285715,112.48304820904741L127.94866071428571,113.25971462903544L129.88727678571428,114.28302204870852L131.82589285714286,113.86000401654746L133.76450892857144,114.50243257300463L135.703125,114.99326346523594L137.64174107142856,115.30114239570685L139.58035714285714,114.29222694970667L141.51897321428572,116.48357304098317L143.45758928571428,116.52942530601285L145.39620535714286,116.84138831094606L147.33482142857142,117.59579271596158L149.2734375,117.60573626140831L151.21205357142858,118.14031610375969L153.15066964285714,117.2236384692369L155.0892857142857,117.8780906999018L157.0279017857143,118.58163794409484L158.96651785714286,119.25031653308542L160.90513392857142,119.69648427848006L162.84375,120.42881547001889L164.78236607142856,120.67945442418568L166.72098214285717,120.31728015828412L168.65959821428572,120.68596641963813L170.59821428571428,120.94033171911724L172.53683035714283,121.57489023427479L174.47544642857144,121.50602737290319L176.4140625,123.10583519161446L178.35267857142858,122.94443309883354L180.29129464285714,123.0389497774886L182.2299107142857,123.34245315048611L184.1685267857143,122.57688627106836L186.10714285714286,124.19932045851601L188.04575892857142,123.19844729377655L189.984375,123.94138117984403L191.92299107142858,124.66915463702753L193.86160714285714,124.69372532994021L195.80022321428572,125.22920943208737L197.73883928571428,125.13346388755599L199.67745535714286,125.40020065347198L201.61607142857144,125.04915905121015L203.5546875,126.17266044364078L205.49330357142856,126.31029673409648L207.43191964285714,126.79740790562937L209.37053571428572,126.3615745579009L211.30915178571428,126.15190552832792L213.24776785714286,127.3195897830883L215.18638392857142,127.33713176066522L217.125,127.28902050229954L219.06361607142858,127.57544230838539L221.00223214285714,128.28449957518023L222.9408482142857,127.71053143480094L224.8794642857143,128.0640324249689L226.81808035714286,127.7423262691591L228.75669642857142,127.87263739280752L230.6953125,128.3540845194657L232.63392857142856,129.12296867428813L234.57254464285717,128.2537862090394L236.51116071428572,128.94518556751427L238.44977678571428,129.38414738915162L240.38839285714283,129.33565521548735L242.32700892857144,129.4870690466778L244.265625,129.02136365877232L246.20424107142858,128.60272615254507L248.14285714285714,130.71369580351165L250.0814732142857,130.6159877171158" fill="none"></path></g><g><path style="fill: none;" stroke="rgb(204, 51, 17)" stroke-width="2px" d="M21.324776785714285,-5.745352735742927L23.263392857142858,17.76782656344585L25.20200892857143,26.595243813004345L27.140625,40.401336633600295L29.07924107142857,51.62710922153201L31.017857142857142,56.062195475329645L32.956473214285715,57.600954164750874L34.895089285714285,62.98795106203761L36.833705357142854,68.22068057570141L38.77232142857142,67.77549989777617L40.7109375,71.12722329469398L42.64955357142857,71.18881895462982L44.588169642857146,76.58514993288554L46.526785714285715,77.4921456942102L48.465401785714285,79.31769716809504L50.40401785714286,76.51414732122794L52.34263392857143,77.06928334047552L54.28125,81.23702667618636L56.21986607142858,79.28468671708833L58.15848214285714,83.50701024662703L60.09709821428571,83.10157062741928L62.035714285714285,83.58349803858437L63.974330357142854,81.43536099139601L65.91294642857143,85.31287999264896L67.8515625,87.30196006037295L69.79017857142857,87.97851200297009L71.72879464285714,85.94098613387905L73.66741071428571,86.15719365736004L75.60602678571429,88.71747443301138L77.54464285714285,87.89741347974632L79.48325892857143,90.73845201660879L81.421875,91.99524064047728L83.36049107142858,92.45685036084615L85.29910714285714,93.01197313086595L87.23772321428572,91.74047123955097L89.17633928571429,90.55534768872894L91.11495535714285,91.40045630710665L93.05357142857143,91.66728250531014L94.9921875,92.96388505864888L96.93080357142857,92.63209127204027L98.86941964285714,93.21219546103384L100.80803571428572,92.10373194213025L102.74665178571428,92.10177768103313L104.68526785714286,92.40790108882356L106.62388392857143,92.13678876543418L108.5625,92.5263226866955L110.50111607142857,93.8883366775699L112.43973214285715,93.54381700768135L114.37834821428571,94.99647559039295L116.31696428571428,95.68208338017575L118.25558035714286,93.33676470059436L120.19419642857142,95.00753869558685L122.1328125,93.95926641847473L124.07142857142857,94.73838725790847L126.01004464285715,95.24893962568603L127.94866071428571,97.6618094930891L129.88727678571428,95.17166350467596L131.82589285714286,95.2848119098926L133.76450892857144,96.89281768829096L135.703125,95.0917772857938L137.64174107142856,94.68217740906402L139.58035714285714,94.94123293517623L141.51897321428572,94.98137147072703L143.45758928571428,97.81375826185104L145.39620535714286,94.35445775999688L147.33482142857142,95.84704289061483L149.2734375,96.38530601828825L151.21205357142858,96.89187699311879L153.15066964285714,96.30454535037279L155.0892857142857,95.57193592505064L157.0279017857143,93.90138716693036L158.96651785714286,94.68305185809731L160.90513392857142,95.26153964130208L162.84375,96.11612145754043L164.78236607142856,97.84109804336913L166.72098214285717,97.92436281533446L168.65959821428572,92.65882158908062L170.59821428571428,93.47907465614844L172.53683035714283,97.03348473960068L174.47544642857144,94.5848353325855L176.4140625,96.72765281482134L178.35267857142858,95.91327578027267L180.29129464285714,95.99326136836316L182.2299107142857,95.79374124726746L184.1685267857143,96.65847197198309L186.10714285714286,94.87015082815196L188.04575892857142,96.64319561235607L189.984375,96.47328089072835L191.92299107142858,96.61747223662678L193.86160714285714,95.06151604955085L195.80022321428572,96.24241309671197L197.73883928571428,95.11787826451473L199.67745535714286,95.28420244541485L201.61607142857144,96.2117610082496L203.5546875,94.07293154357467L205.49330357142856,92.51391478488222L207.43191964285714,97.56219517404679L209.37053571428572,93.15092440717854L211.30915178571428,95.80146554706153L213.24776785714286,96.31278637005016L215.18638392857142,95.32860060769599L217.125,96.93429439584725L219.06361607142858,94.01422421529423L221.00223214285714,94.71269700524863L222.9408482142857,95.7000095853582L224.8794642857143,94.85231074295007L226.81808035714286,96.22819005069323L228.75669642857142,94.85876311687753L230.6953125,95.75340397330001L232.63392857142856,94.48745350842364L234.57254464285717,93.81082869507372L236.51116071428572,94.89472152106464L238.44977678571428,94.10188110626768L240.38839285714283,96.86992302269209L242.32700892857144,94.95417080610059L244.265625,93.91360295494087L246.20424107142858,93.77540688461158L248.14285714285714,95.51522260555066L250.0814732142857,92.36493384314235" fill="none"></path></g><g><path style="fill: none;" stroke="rgb(0, 119, 187)" stroke-width="2px" d="M25.20200892857143,-5.112874349346384L27.140625,9.00856334157288L29.07924107142857,17.65682453312911L31.017857142857142,25.60946151870303L32.956473214285715,32.23722872347571L34.895089285714285,36.086805103346705L36.833705357142854,40.89622178953141L38.77232142857142,44.115108428755775L40.7109375,48.68327655096073L42.64955357142857,50.51231919636484L44.588169642857146,54.60582048422657L46.526785714285715,57.00353985966649L48.465401785714285,57.38831730815582L50.40401785714286,60.54062657780014L52.34263392857143,61.98475928243715L54.28125,63.50840722757857L56.21986607142858,65.44919386005495L58.15848214285714,67.39553854358383L60.09709821428571,70.82959926652256L62.035714285714285,71.2837032993557L63.974330357142854,72.32664276228752L65.91294642857143,73.5960579002276L67.8515625,74.90227939293254L69.79017857142857,76.58718368934933L71.72879464285714,76.71796019212343L73.66741071428571,78.98450558795594L75.60602678571429,78.36221585772L77.54464285714285,80.43423609132878L79.48325892857143,80.12337608460803L81.421875,82.02795920218341L83.36049107142858,81.8952814352233L85.29910714285714,82.73257963382639L87.23772321428572,83.87773688905872L89.17633928571429,84.73956603289116L91.11495535714285,86.2712496346794L93.05357142857143,86.5963923089439L94.9921875,86.1412349625025L96.93080357142857,88.41295418178197L98.86941964285714,88.54629441013094L100.80803571428572,88.78963635209948L102.74665178571428,89.69356491719373L104.68526785714286,89.65191596967634L106.62388392857143,90.13763265998568L108.5625,91.47020686673932L110.50111607142857,92.38874270545784L112.43973214285715,90.73786242597271L114.37834821428571,93.22851188504137L116.31696428571428,93.91280137666035L118.25558035714286,94.36350698256865L120.19419642857142,94.91798716504127L122.1328125,95.03245386842173L124.07142857142857,95.90701552014798L126.01004464285715,95.62752306018956L127.94866071428571,96.5511466023745L129.88727678571428,93.78929207532201L131.82589285714286,94.11160603945609L133.76450892857144,98.04224781948142L135.703125,98.8967501403531L137.64174107142856,99.32379262545146L139.58035714285714,99.97730416094419L141.51897321428572,99.45057448605075L143.45758928571428,100.21372338139918L145.39620535714286,100.23388208146207L147.33482142857142,100.35507939255331L149.2734375,101.56750628951704L151.21205357142858,101.48515571426833L153.15066964285714,100.88193824741757L155.0892857142857,103.03462971665431L157.0279017857143,102.79898888833122L158.96651785714286,103.3481627550791L160.90513392857142,102.87209812720539L162.84375,102.87926927173976L164.78236607142856,104.19088982476387L166.72098214285717,104.81335179496091L168.65959821428572,104.95358493406093L170.59821428571428,104.73475406348007L172.53683035714283,104.19397689483594L174.47544642857144,104.57701206987258L176.4140625,105.95122528722277L178.35267857142858,106.4870505569852L180.29129464285714,106.62750230834354L182.2299107142857,107.00407186022494L184.1685267857143,105.22247801179765L186.10714285714286,105.62028938811272L188.04575892857142,108.23213615827262L189.984375,107.01473086397164L191.92299107142858,107.69804322504206L193.86160714285714,106.50403275468852L195.80022321428572,108.58975268981885L197.73883928571428,108.28472896793392L199.67745535714286,110.25991722033359L201.61607142857144,109.27001441619359L203.5546875,109.23157840641215L205.49330357142856,109.39715069363592L207.43191964285714,110.14753395802109L209.37053571428572,111.23714382579783L211.30915178571428,109.49369450414088L213.24776785714286,109.91625543794362L215.18638392857142,110.7405892671668L217.125,111.0057030026801L219.06361607142858,107.48879817075795L221.00223214285714,111.75438042898895L222.9408482142857,111.82141820923425L224.8794642857143,112.83436804509256L226.81808035714286,112.77653847815236L228.75669642857142,112.79647525364999L230.6953125,111.8700958720874L232.63392857142856,111.59396871598437L234.57254464285717,112.47095828870079L236.51116071428572,112.53834054886829L238.44977678571428,113.29375520750182L240.38839285714283,112.98495876800735L242.32700892857144,112.63248624914559L244.265625,113.71321582200471L246.20424107142858,113.57488063478377L248.14285714285714,113.39958341437159L250.0814732142857,113.79014746309258" fill="none"></path></g><g><path style="fill: none;" stroke="rgb(255, 112, 67)" stroke-width="2px" d="M21.324776785714285,-5.631422626087442L23.263392857142858,18.075579626252875L25.20200892857143,26.434225947828963L27.140625,39.00484152743593L29.07924107142857,41.72023101267405L31.017857142857142,48.58072752796579L32.956473214285715,44.919946019304916L34.895089285714285,56.205810479819775L36.833705357142854,55.37124162213877L38.77232142857142,56.528548419242725L40.7109375,59.91286491649225L42.64955357142857,61.384363901102915L44.588169642857146,61.378097016364336L46.526785714285715,65.70188313222025L48.465401785714285,64.68809197039809L50.40401785714286,64.63828812318388L52.34263392857143,67.11423756403383L54.28125,67.9422811770346L56.21986607142858,66.46005694253836L58.15848214285714,70.35185198672116L60.09709821428571,71.45411486702505L62.035714285714285,72.37870560283773L63.974330357142854,74.39815290062688L65.91294642857143,72.04534178273752L67.8515625,71.85669265303295L69.79017857142857,72.61521094327327L71.72879464285714,75.84110642399173L73.66741071428571,76.91830176534131L75.60602678571429,74.19933498860337L77.54464285714285,73.35184150922578L79.48325892857143,74.43736399023328L81.421875,75.2610353580676L83.36049107142858,75.80878493282944L85.29910714285714,77.26415960723534L87.23772321428572,77.9901046709856L89.17633928571429,77.57674863818102L91.11495535714285,77.40988123894203L93.05357142857143,75.43210938712582L94.9921875,78.25741446600296L96.93080357142857,77.93600144935772L98.86941964285714,76.29752907168586L100.80803571428572,81.1425464329077L102.74665178571428,79.32143345032819L104.68526785714286,79.08761107851751L106.62388392857143,79.96912195021287L108.5625,78.73231316183228L110.50111607142857,76.71644978015684L112.43973214285715,81.0930208194768L114.37834821428571,77.71237435832154L116.31696428571428,76.93649957969319L118.25558035714286,79.10040983255021L120.19419642857142,80.5385340123903L122.1328125,77.48469962819945L124.07142857142857,80.41479284956586L126.01004464285715,78.5493479508441L127.94866071428571,79.04261007637251L129.88727678571428,79.7546368263429L131.82589285714286,81.04160719108768L133.76450892857144,79.44396230881102L135.703125,81.21965031395666L137.64174107142856,81.0849719136022L139.58035714285714,83.81977151753381L141.51897321428572,82.54603713133838L143.45758928571428,79.9941828645533L145.39620535714286,78.41124462510925L147.33482142857142,79.11316883889958L149.2734375,81.11527952214237L151.21205357142858,83.17388491262682L153.15066964285714,84.09669362730347L155.0892857142857,81.96970897226129L157.0279017857143,81.26910305663478L158.96651785714286,80.90733289218042L160.90513392857142,80.7967813356081L162.84375,81.86191325506661L164.78236607142856,80.28408921754453L166.72098214285717,80.78753999923356L168.65959821428572,81.70573798264377L170.59821428571428,79.43515157233924L172.53683035714283,81.25491313368548L174.47544642857144,78.00532140908763L176.4140625,80.73538441408891L178.35267857142858,80.0376734547317L180.29129464285714,81.14967451745179L182.2299107142857,82.07339742884506L184.1685267857143,80.1577909537591L186.10714285714286,79.89130261086393L188.04575892857142,82.09828610322438L189.984375,80.70367238740437L191.92299107142858,82.59480753878597L193.86160714285714,79.64733795518987L195.80022321428572,81.22292287321761L197.73883928571428,82.45349127531517L199.67745535714286,82.04022136249114L201.61607142857144,78.4071638629539L203.5546875,79.92504176939838L205.49330357142856,81.0632564292755L207.43191964285714,81.1752654009033L209.37053571428572,80.58254132245202L211.30915178571428,80.81701953103766L213.24776785714286,80.90760450134985L215.18638392857142,82.69170576613396L217.125,80.6861635328969L219.06361607142858,81.12581265822519L221.00223214285714,81.72568469506223L222.9408482142857,81.29062642715871L224.8794642857143,80.93296352331527L226.81808035714286,82.92754202056676L228.75669642857142,82.39322716277093L230.6953125,80.87496502872091L232.63392857142856,82.20787046616897L234.57254464285717,79.30018831358757L236.51116071428572,80.88183475332335L238.44977678571428,79.72374625178054L240.38839285714283,80.07006781664677L242.32700892857144,81.81336145987734L244.265625,81.78401442035101L246.20424107142858,81.22220741491765L248.14285714285714,81.92731806798838L250.0814732142857,81.03953368694056" fill="none"></path></g></g></g></g></g></g><g transform="translate(58, 177)" clip-path="url(#clip_1)"><clipPath id="clip_1"><rect width="271" height="22"></rect></clipPath><g><g><line x1="0" y1="0" x2="0" y2="5" style="visibility: inherit;" fill="rgb(0, 0, 0)" stroke="rgb(204, 204, 204)" stroke-width="1px"></line><line x1="19.38616071428571" y1="0" x2="19.38616071428571" y2="5" style="visibility: inherit;" fill="rgb(0, 0, 0)" stroke="rgb(204, 204, 204)" stroke-width="1px"></line><line x1="38.77232142857142" y1="0" x2="38.77232142857142" y2="5" style="visibility: inherit;" fill="rgb(0, 0, 0)" stroke="rgb(204, 204, 204)" stroke-width="1px"></line><line x1="58.15848214285714" y1="0" x2="58.15848214285714" y2="5" style="visibility: inherit;" fill="rgb(0, 0, 0)" stroke="rgb(204, 204, 204)" stroke-width="1px"></line><line x1="77.54464285714285" y1="0" x2="77.54464285714285" y2="5" style="visibility: inherit;" fill="rgb(0, 0, 0)" stroke="rgb(204, 204, 204)" stroke-width="1px"></line><line x1="96.93080357142857" y1="0" x2="96.93080357142857" y2="5" style="visibility: inherit;" fill="rgb(0, 0, 0)" stroke="rgb(204, 204, 204)" stroke-width="1px"></line><line x1="116.31696428571428" y1="0" x2="116.31696428571428" y2="5" style="visibility: inherit;" fill="rgb(0, 0, 0)" stroke="rgb(204, 204, 204)" stroke-width="1px"></line><line x1="135.703125" y1="0" x2="135.703125" y2="5" style="visibility: inherit;" fill="rgb(0, 0, 0)" stroke="rgb(204, 204, 204)" stroke-width="1px"></line><line x1="155.0892857142857" y1="0" x2="155.0892857142857" y2="5" style="visibility: inherit;" fill="rgb(0, 0, 0)" stroke="rgb(204, 204, 204)" stroke-width="1px"></line><line x1="174.47544642857144" y1="0" x2="174.47544642857144" y2="5" style="visibility: inherit;" fill="rgb(0, 0, 0)" stroke="rgb(204, 204, 204)" stroke-width="1px"></line><line x1="193.86160714285714" y1="0" x2="193.86160714285714" y2="5" style="visibility: inherit;" fill="rgb(0, 0, 0)" stroke="rgb(204, 204, 204)" stroke-width="1px"></line><line x1="213.24776785714286" y1="0" x2="213.24776785714286" y2="5" style="visibility: inherit;" fill="rgb(0, 0, 0)" stroke="rgb(204, 204, 204)" stroke-width="1px"></line><line x1="232.63392857142856" y1="0" x2="232.63392857142856" y2="5" style="visibility: inherit;" fill="rgb(0, 0, 0)" stroke="rgb(204, 204, 204)" stroke-width="1px"></line><line x1="252.0200892857143" y1="0" x2="252.0200892857143" y2="5" style="visibility: inherit;" fill="rgb(0, 0, 0)" stroke="rgb(204, 204, 204)" stroke-width="1px"></line><line x1="271.40625" y1="0" x2="271.40625" y2="5" style="visibility: inherit;" fill="rgb(0, 0, 0)" stroke="rgb(204, 204, 204)" stroke-width="1px"></line></g><g transform="translate(0, 8)"><text style="text-anchor: middle; visibility: hidden; font-family: &quot;Helvetica Neue&quot;, sans-serif; font-size: 12px; font-weight: 200;" x="0" y="0" dx="0em" dy="0.95em" fill="rgb(50, 49, 63)" stroke="none" stroke-width="1px">-10</text><text style="text-anchor: middle; visibility: inherit; font-family: &quot;Helvetica Neue&quot;, sans-serif; font-size: 12px; font-weight: 200;" x="19.38616071428571" y="0" dx="0em" dy="0.95em" fill="rgb(50, 49, 63)" stroke="none" stroke-width="1px">0</text><text style="text-anchor: middle; visibility: hidden; font-family: &quot;Helvetica Neue&quot;, sans-serif; font-size: 12px; font-weight: 200;" x="38.77232142857142" y="0" dx="0em" dy="0.95em" fill="rgb(50, 49, 63)" stroke="none" stroke-width="1px">10</text><text style="text-anchor: middle; visibility: inherit; font-family: &quot;Helvetica Neue&quot;, sans-serif; font-size: 12px; font-weight: 200;" x="58.15848214285714" y="0" dx="0em" dy="0.95em" fill="rgb(50, 49, 63)" stroke="none" stroke-width="1px">20</text><text style="text-anchor: middle; visibility: hidden; font-family: &quot;Helvetica Neue&quot;, sans-serif; font-size: 12px; font-weight: 200;" x="77.54464285714285" y="0" dx="0em" dy="0.95em" fill="rgb(50, 49, 63)" stroke="none" stroke-width="1px">30</text><text style="text-anchor: middle; visibility: inherit; font-family: &quot;Helvetica Neue&quot;, sans-serif; font-size: 12px; font-weight: 200;" x="96.93080357142857" y="0" dx="0em" dy="0.95em" fill="rgb(50, 49, 63)" stroke="none" stroke-width="1px">40</text><text style="text-anchor: middle; visibility: hidden; font-family: &quot;Helvetica Neue&quot;, sans-serif; font-size: 12px; font-weight: 200;" x="116.31696428571428" y="0" dx="0em" dy="0.95em" fill="rgb(50, 49, 63)" stroke="none" stroke-width="1px">50</text><text style="text-anchor: middle; visibility: inherit; font-family: &quot;Helvetica Neue&quot;, sans-serif; font-size: 12px; font-weight: 200;" x="135.703125" y="0" dx="0em" dy="0.95em" fill="rgb(50, 49, 63)" stroke="none" stroke-width="1px">60</text><text style="text-anchor: middle; visibility: hidden; font-family: &quot;Helvetica Neue&quot;, sans-serif; font-size: 12px; font-weight: 200;" x="155.0892857142857" y="0" dx="0em" dy="0.95em" fill="rgb(50, 49, 63)" stroke="none" stroke-width="1px">70</text><text style="text-anchor: middle; visibility: inherit; font-family: &quot;Helvetica Neue&quot;, sans-serif; font-size: 12px; font-weight: 200;" x="174.47544642857144" y="0" dx="0em" dy="0.95em" fill="rgb(50, 49, 63)" stroke="none" stroke-width="1px">80</text><text style="text-anchor: middle; visibility: hidden; font-family: &quot;Helvetica Neue&quot;, sans-serif; font-size: 12px; font-weight: 200;" x="193.86160714285714" y="0" dx="0em" dy="0.95em" fill="rgb(50, 49, 63)" stroke="none" stroke-width="1px">90</text><text style="text-anchor: middle; visibility: inherit; font-family: &quot;Helvetica Neue&quot;, sans-serif; font-size: 12px; font-weight: 200;" x="213.24776785714286" y="0" dx="0em" dy="0.95em" fill="rgb(50, 49, 63)" stroke="none" stroke-width="1px">100</text><text style="text-anchor: middle; visibility: hidden; font-family: &quot;Helvetica Neue&quot;, sans-serif; font-size: 12px; font-weight: 200;" x="232.63392857142856" y="0" dx="0em" dy="0.95em" fill="rgb(50, 49, 63)" stroke="none" stroke-width="1px">110</text><text style="text-anchor: middle; visibility: inherit; font-family: &quot;Helvetica Neue&quot;, sans-serif; font-size: 12px; font-weight: 200;" x="252.0200892857143" y="0" dx="0em" dy="0.95em" fill="rgb(50, 49, 63)" stroke="none" stroke-width="1px">120</text><text style="text-anchor: middle; visibility: hidden; font-family: &quot;Helvetica Neue&quot;, sans-serif; font-size: 12px; font-weight: 200;" x="271.40625" y="0" dx="0em" dy="0.95em" fill="rgb(50, 49, 63)" stroke="none" stroke-width="1px">130</text></g><line x1="0" y1="0" x2="271.40625" y2="0" fill="rgb(0, 0, 0)" stroke="rgb(204, 204, 204)" stroke-width="1px"></line></g></g></g></g></svg>