<svg viewBox="0 0 330 200" xmlns="http://www.w3.org/2000/svg"><g><g><g><g><g><line x1="48.875" y1="164.40530304166444" x2="43.875" y2="164.40530304166444" style="visibility: inherit;" fill="rgb(0, 0, 0)" stroke="rgb(204, 204, 204)" stroke-width="1px"></line><line x1="48.875" y1="152.49445324169704" x2="43.875" y2="152.49445324169704" style="visibility: inherit;" fill="rgb(0, 0, 0)" stroke="rgb(204, 204, 204)" stroke-width="1px"></line><line x1="48.875" y1="142.76258034875755" x2="43.875" y2="142.76258034875755" style="visibility: inherit;" fill="rgb(0, 0, 0)" stroke="rgb(204, 204, 204)" stroke-width="1px"></line><line x1="48.875" y1="134.53439905840978" x2="43.875" y2="134.53439905840978" style="visibility: inherit;" fill="rgb(0, 0, 0)" stroke="rgb(204, 204, 204)" stroke-width="1px"></line><line x1="48.875" y1="127.40682422255173" x2="43.875" y2="127.40682422255173" style="visibility: inherit;" fill="rgb(0, 0, 0)" stroke="rgb(204, 204, 204)" stroke-width="1px"></line><line x1="48.875" y1="121.11985765585067" x2="43.875" y2="121.11985765585067" style="visibility: inherit;" fill="rgb(0, 0, 0)" stroke="rgb(204, 204, 204)" stroke-width="1px"></line><line x1="48.875" y1="115.49597442258434" x2="43.875" y2="115.49597442258434" style="visibility: inherit;" fill="rgb(0, 0, 0)" stroke="rgb(204, 204, 204)" stroke-width="1px"></line><line x1="48.875" y1="78.49749560347163" x2="43.875" y2="78.49749560347163" style="visibility: inherit;" fill="rgb(0, 0, 0)" stroke="rgb(204, 204, 204)" stroke-width="1px"></line><line x1="48.875" y1="56.85477291056473" x2="43.875" y2="56.85477291056473" style="visibility: inherit;" fill="rgb(0, 0, 0)" stroke="rgb(204, 204, 204)" stroke-width="1px"></line><line x1="48.875" y1="41.49901678435893" x2="43.875" y2="41.49901678435893" style="visibility: inherit;" fill="rgb(0, 0, 0)" stroke="rgb(204, 204, 204)" stroke-width="1px"></line><line x1="48.875" y1="29.588166984391563" x2="43.875" y2="29.588166984391563" style="visibility: inherit;" fill="rgb(0, 0, 0)" stroke="rgb(204, 204, 204)" stroke-width="1px"></line><line x1="48.875" y1="19.856294091452042" x2="43.875" y2="19.856294091452042" style="visibility: inherit;" fill="rgb(0, 0, 0)" stroke="rgb(204, 204, 204)" stroke-width="1px"></line><line x1="48.875" y1="11.628112801104265" x2="43.875" y2="11.628112801104265" style="visibility: inherit;" fill="rgb(0, 0, 0)" stroke="rgb(204, 204, 204)" stroke-width="1px"></line><line x1="48.875" y1="4.500537965246224" x2="43.875" y2="4.500537965246224" style="visibility: inherit;" fill="rgb(0, 0, 0)" stroke="rgb(204, 204, 204)" stroke-width="1px"></line></g><g transform="translate(38.875, 0)"><text style="text-anchor: end; visibility: inherit; font-family: &quot;Helvetica Neue&quot;, sans-serif; font-size: 12px; font-weight: 200;" x="0" y="164.40530304166444" dx="0em" dy="0.3em" fill="rgb(50, 49, 63)" stroke="none" stroke-width="1px">0.04</text><text style="text-anchor: end; visibility: hidden; font-family: &quot;Helvetica Neue&quot;, sans-serif; font-size: 12px; font-weight: 200;" x="0" y="152.49445324169704" dx="0em" dy="0.3em" fill="rgb(50, 49, 63)" stroke="none" stroke-width="1px">0.05</text><text style="text-anchor: end; visibility: hidden; font-family: &quot;Helvetica Neue&quot;, sans-serif; font-size: 12px; font-weight: 200;" x="0" y="142.76258034875755" dx="0em" dy="0.3em" fill="rgb(50, 49, 63)" stroke="none" stroke-width="1px">0.06</text><text style="text-anchor: end; visibility: hidden; font-family: &quot;Helvetica Neue&quot;, sans-serif; font-size: 12px; font-weight: 200;" x="0" y="134.53439905840978" dx="0em" dy="0.3em" fill="rgb(50, 49, 63)" stroke="none" stroke-width="1px">0.07</text><text style="text-anchor: end; visibility: inherit; font-family: &quot;Helvetica Neue&quot;, sans-serif; font-size: 12px; font-weight: 200;" x="0" y="127.40682422255173" dx="0em" dy="0.3em" fill="rgb(50, 49, 63)" stroke="none" stroke-width="1px">0.08</text><text style="text-anchor: end; visibility: hidden; font-family: &quot;Helvetica Neue&quot;, sans-serif; font-size: 12px; font-weight: 200;" x="0" y="121.11985765585067" dx="0em" dy="0.3em" fill="rgb(50, 49, 63)" stroke="none" stroke-width="1px">0.09</text><text style="text-anchor: end; visibility: hidden; font-family: &quot;Helvetica Neue&quot;, sans-serif; font-size: 12px; font-weight: 200;" x="0" y="115.49597442258434" dx="0em" dy="0.3em" fill="rgb(50, 49, 63)" stroke="none" stroke-width="1px">0.1</text><text style="text-anchor: end; visibility: hidden; font-family: &quot;Helvetica Neue&quot;, sans-serif; font-size: 12px; font-weight: 200;" x="0" y="78.49749560347163" dx="0em" dy="0.3em" fill="rgb(50, 49, 63)" stroke="none" stroke-width="1px">0.2</text><text style="text-anchor: end; visibility: inherit; font-family: &quot;Helvetica Neue&quot;, sans-serif; font-size: 12px; font-weight: 200;" x="0" y="56.85477291056473" dx="0em" dy="0.3em" fill="rgb(50, 49, 63)" stroke="none" stroke-width="1px">0.3</text><text style="text-anchor: end; visibility: hidden; font-family: &quot;Helvetica Neue&quot;, sans-serif; font-size: 12px; font-weight: 200;" x="0" y="41.49901678435893" dx="0em" dy="0.3em" fill="rgb(50, 49, 63)" stroke="none" stroke-width="1px">0.4</text><text style="text-anchor: end; visibility: hidden; font-family: &quot;Helvetica Neue&quot;, sans-serif; font-size: 12px; font-weight: 200;" x="0" y="29.588166984391563" dx="0em" dy="0.3em" fill="rgb(50, 49, 63)" stroke="none" stroke-width="1px">0.5</text><text style="text-anchor: end; visibility: hidden; font-family: &quot;Helvetica Neue&quot;, sans-serif; font-size: 12px; font-weight: 200;" x="0" y="19.856294091452042" dx="0em" dy="0.3em" fill="rgb(50, 49, 63)" stroke="none" stroke-width="1px">0.6</text><text style="text-anchor: end; visibility: inherit; font-family: &quot;Helvetica Neue&quot;, sans-serif; font-size: 12px; font-weight: 200;" x="0" y="11.628112801104265" dx="0em" dy="0.3em" fill="rgb(50, 49, 63)" stroke="none" stroke-width="1px">0.7</text><text style="text-anchor: end; visibility: hidden; font-family: &quot;Helvetica Neue&quot;, sans-serif; font-size: 12px; font-weight: 200;" x="0" y="4.500537965246224" dx="0em" dy="0.3em" fill="rgb(50, 49, 63)" stroke="none" stroke-width="1px">0.8</text></g><line x1="48.875" y1="0" x2="48.875" y2="177.828125" fill="rgb(0, 0, 0)" stroke="rgb(204, 204, 204)" stroke-width="1px"></line></g></g><g transform="translate(48, 0)" clip-path="url(#clip_0)"><clipPath id="clip_0"><rect width="281" height="177"></rect></clipPath><g><g><g><line x1="0" y1="0" x2="0" y2="177.828125" fill="rgb(0, 0, 0)" stroke="rgb(60, 60, 60)" stroke-width="1px" opacity="0.25"></line><line x1="31.23611111111111" y1="0" x2="31.23611111111111" y2="177.828125" fill="rgb(0, 0, 0)" stroke="rgb(60, 60, 60)" stroke-width="1px" opacity="0.25"></line><line x1="62.47222222222222" y1="0" x2="62.47222222222222" y2="177.828125" fill="rgb(0, 0, 0)" stroke="rgb(60, 60, 60)" stroke-width="1px" opacity="0.25"></line><line x1="93.70833333333333" y1="0" x2="93.70833333333333" y2="177.828125" fill="rgb(0, 0, 0)" stroke="rgb(60, 60, 60)" stroke-width="1px" opacity="0.25"></line><line x1="124.94444444444444" y1="0" x2="124.94444444444444" y2="177.828125" fill="rgb(0, 0, 0)" stroke="rgb(60, 60, 60)" stroke-width="1px" opacity="0.25"></line><line x1="156.18055555555557" y1="0" x2="156.18055555555557" y2="177.828125" fill="rgb(0, 0, 0)" stroke="rgb(60, 60, 60)" stroke-width="1px" opacity="0.25"></line><line x1="187.41666666666666" y1="0" x2="187.41666666666666" y2="177.828125" fill="rgb(0, 0, 0)" stroke="rgb(60, 60, 60)" stroke-width="1px" opacity="0.25"></line><line x1="218.65277777777777" y1="0" x2="218.65277777777777" y2="177.828125" fill="rgb(0, 0, 0)" stroke="rgb(60, 60, 60)" stroke-width="1px" opacity="0.25"></line><line x1="249.88888888888889" y1="0" x2="249.88888888888889" y2="177.828125" fill="rgb(0, 0, 0)" stroke="rgb(60, 60, 60)" stroke-width="1px" opacity="0.25"></line><line x1="281.125" y1="0" x2="281.125" y2="177.828125" fill="rgb(0, 0, 0)" stroke="rgb(60, 60, 60)" stroke-width="1px" opacity="0.25"></line></g><g><line x1="0" y1="164.40530304166444" x2="281.125" y2="164.40530304166444" fill="rgb(0, 0, 0)" stroke="rgb(60, 60, 60)" stroke-width="1px" opacity="0.25"></line><line x1="0" y1="152.49445324169704" x2="281.125" y2="152.49445324169704" fill="rgb(0, 0, 0)" stroke="rgb(60, 60, 60)" stroke-width="1px" opacity="0.25"></line><line x1="0" y1="142.76258034875755" x2="281.125" y2="142.76258034875755" fill="rgb(0, 0, 0)" stroke="rgb(60, 60, 60)" stroke-width="1px" opacity="0.25"></line><line x1="0" y1="134.53439905840978" x2="281.125" y2="134.53439905840978" fill="rgb(0, 0, 0)" stroke="rgb(60, 60, 60)" stroke-width="1px" opacity="0.25"></line><line x1="0" y1="127.40682422255173" x2="281.125" y2="127.40682422255173" fill="rgb(0, 0, 0)" stroke="rgb(60, 60, 60)" stroke-width="1px" opacity="0.25"></line><line x1="0" y1="121.11985765585067" x2="281.125" y2="121.11985765585067" fill="rgb(0, 0, 0)" stroke="rgb(60, 60, 60)" stroke-width="1px" opacity="0.25"></line><line x1="0" y1="115.49597442258434" x2="281.125" y2="115.49597442258434" fill="rgb(0, 0, 0)" stroke="rgb(60, 60, 60)" stroke-width="1px" opacity="0.25"></line><line x1="0" y1="78.49749560347163" x2="281.125" y2="78.49749560347163" fill="rgb(0, 0, 0)" stroke="rgb(60, 60, 60)" stroke-width="1px" opacity="0.25"></line><line x1="0" y1="56.85477291056473" x2="281.125" y2="56.85477291056473" fill="rgb(0, 0, 0)" stroke="rgb(60, 60, 60)" stroke-width="1px" opacity="0.25"></line><line x1="0" y1="41.49901678435893" x2="281.125" y2="41.49901678435893" fill="rgb(0, 0, 0)" stroke="rgb(60, 60, 60)" stroke-width="1px" opacity="0.25"></line><line x1="0" y1="29.588166984391563" x2="281.125" y2="29.588166984391563" fill="rgb(0, 0, 0)" stroke="rgb(60, 60, 60)" stroke-width="1px" opacity="0.25"></line><line x1="0" y1="19.856294091452042" x2="281.125" y2="19.856294091452042" fill="rgb(0, 0, 0)" stroke="rgb(60, 60, 60)" stroke-width="1px" opacity="0.25"></line><line x1="0" y1="11.628112801104265" x2="281.125" y2="11.628112801104265" fill="rgb(0, 0, 0)" stroke="rgb(60, 60, 60)" stroke-width="1px" opacity="0.25"></line><line x1="0" y1="4.500537965246224" x2="281.125" y2="4.500537965246224" fill="rgb(0, 0, 0)" stroke="rgb(60, 60, 60)" stroke-width="1px" opacity="0.25"></line></g></g></g><g><g><line x1="31.23611111111111" y1="0" x2="31.23611111111111" y2="177.828125" fill="rgb(0, 0, 0)" stroke="rgb(153, 153, 153)" stroke-width="1.5px"></line></g></g><g><g><g><g><g><path style="fill: none;" stroke="rgb(0, 153, 136)" stroke-width="2px" d="M31.23611111111111,1.337609030630091L32.797916666666666,25.404017857142833L34.359722222222224,40.03006744992669L35.921527777777776,50.756440515495356L37.483333333333334,59.313934515743824L39.04513888888889,66.32488056942505L40.60694444444444,72.33220811372753L42.168749999999996,77.41048082682168L43.730555555555554,81.98785926970898L45.29236111111111,86.1279667215771L46.854166666666664,89.80534150902204L48.41597222222222,92.9751444580183L49.97777777777778,96.24316963858219L51.53958333333333,99.02317457940889L53.101388888888884,101.54686648464242L54.66319444444444,104.14360640161804L56.225,106.46572401306055L57.78680555555555,108.39716862728126L59.34861111111111,110.72627108740556L60.91041666666667,112.87202485932309L62.47222222222222,114.79789539827802L64.03402777777778,116.51665243689499L65.59583333333333,117.8779713744791L67.1576388888889,120.15768618715279L68.71944444444445,121.53719667000814L70.28125,123.00245621676885L71.84305555555555,124.74285465445877L73.40486111111112,126.029141668921L74.96666666666667,127.34914130666087L76.52847222222222,128.17305688342603L78.09027777777779,129.37458222304036L79.65208333333334,124.31564225261721L81.21388888888887,126.09005856606733L82.77569444444444,126.62185710270857L84.33749999999999,125.48704048932228L85.89930555555556,125.0151204047724L87.46111111111111,125.99266400327743L89.02291666666666,127.05972271969026L90.58472222222223,126.528489926401L92.14652777777778,125.52207106736469L93.70833333333333,125.51726137384435L95.2701388888889,123.96417652428966L96.83194444444445,126.29714506292127L98.39375,126.90853284450063L99.95555555555556,127.71772577564397L101.51736111111111,128.17849815469197L103.07916666666667,126.72659929508916L104.64097222222223,127.3324454386243L106.20277777777777,127.26098569986561L107.76458333333333,128.47113696086254L109.32638888888889,128.1030722707201L110.88819444444444,128.3616629748301L112.45,128.3599336168753L114.01180555555555,129.56576100486524L115.5736111111111,126.64716528435142L117.13541666666667,128.85891772624367L118.69722222222222,130.14572603282747L120.25902777777777,129.07447611386849L121.82083333333334,130.04237022360263L123.38263888888889,128.4354694444119L124.94444444444444,130.07309940973875L126.50625000000001,131.2388986896379L128.06805555555556,132.37560007774965L129.62986111111113,132.30673435462884L131.19166666666666,132.3219226603637L132.75347222222223,132.07055833992644L134.3152777777778,132.23263438382583L135.87708333333333,132.1283635383003L137.4388888888889,131.93169200865316L139.00069444444446,134.18343064620558L140.5625,134.26475224744516L142.12430555555554,134.27095003056291L143.6861111111111,133.82068380188954L145.24791666666667,134.44913967467906L146.80972222222223,135.14285382932223L148.37152777777777,135.8754833207862L149.93333333333334,135.06014966400443L151.49513888888887,135.97491889601L153.05694444444444,135.91551227862922L154.61875,134.53546198613506L156.18055555555557,135.7042304831706L157.7423611111111,137.59245583364898L159.30416666666667,137.34426777764014L160.8659722222222,136.6469830852501L162.42777777777775,137.70668657081228L163.98958333333334,138.89857231737489L165.55138888888888,138.27220917971252L167.11319444444445,138.10044747757524L168.67499999999998,138.5075352575173L170.23680555555555,136.76491841960893L171.79861111111111,136.7762083712275L173.36041666666668,138.14802836672766L174.92222222222222,138.9298078854099L176.48402777777778,140.40152348748225L178.04583333333332,140.76133196205905L179.60763888888889,140.9613395457459L181.16944444444445,142.05674643135407L182.73125000000002,142.74041277379183L184.29305555555555,141.49691457771968L185.85486111111112,141.42083570770487L187.41666666666666,143.76374748647132L188.97847222222225,144.95651228017488L190.5402777777778,142.36897452250918L192.10208333333333,142.8032494471865L193.6638888888889,143.60352257456879L195.22569444444443,144.5570389274106L196.7875,145.53876049453172L198.34930555555556,146.46300070104493L199.91111111111113,145.44474495580226L201.47291666666666,145.86521543569205L203.03472222222223,146.90068546504875L204.59652777777777,148.8660761659895L206.15833333333333,147.31570402534624L207.7201388888889,144.11036378083503L209.28194444444446,145.46689737730136L210.84375,147.36189097882422L212.40555555555554,147.71932407220808L213.9673611111111,146.23509999569748L215.52916666666667,148.24074135150678L217.09097222222223,147.78914884934022L218.65277777777777,148.12490123761646L220.21458333333334,148.09685342220143L221.77638888888887,148.90576605466956L223.33819444444444,148.5885857048323L224.9,149.04430913377206L226.46180555555557,150.41386073371376L228.0236111111111,150.97302176514415L229.58541666666667,149.4400064246299L231.1472222222222,149.361701446329L232.70902777777775,150.0650745123997L234.27083333333334,150.51114042977457L235.83263888888888,148.91529740808357L237.39444444444445,151.14057193702934L238.95624999999998,150.2153529226035L240.51805555555555,152.42410714285714L242.07986111111111,151.3045745617035L243.64166666666668,152.03417077442555L245.20347222222222,153.4131178371352L246.76527777777778,151.45887716679724L248.32708333333332,153.93640394653357L249.88888888888889,153.28068895553335L251.45069444444445,152.4588696104873L253.01250000000002,153.3064995769944L254.57430555555555,152.2580923634768L256.1361111111111,153.91566627991136L257.69791666666663,153.1323308871104L259.25972222222225,154.13959851201858L260.82152777777776,153.05839627420795L262.3833333333333,155.00707002571832L263.9451388888889,154.61571802756907" fill="none"></path></g><g><path style="fill: none;" stroke="rgb(238, 51, 119)" stroke-width="2px" d="M31.23611111111111,22.20603516415187L32.797916666666666,30.834039619836147L34.359722222222224,30.764764632788456L35.921527777777776,30.440379440018432L37.483333333333334,30.999467733101227L39.04513888888889,33.208529143296175L40.60694444444444,27.852503007242717L42.168749999999996,27.761840551373012L43.730555555555554,28.560886008237958L45.29236111111111,28.37342289941043L46.854166666666664,30.327592931092397L48.41597222222222,32.121204153943296L49.97777777777778,29.36871674869235L51.53958333333333,31.195050677145787L53.101388888888884,30.433572361310183L54.66319444444444,29.23088994394422L56.225,28.62120791830833L57.78680555555555,28.83993392575337L59.34861111111111,27.4250729814039L60.91041666666667,26.971902225235937L62.47222222222222,25.28395442529444L64.03402777777778,25.710792884637982L65.59583333333333,21.943205992974413L67.1576388888889,26.45512543220846L68.71944444444445,22.81846755524029L70.28125,23.616981352268482L71.84305555555555,28.393261274474327L73.40486111111112,22.040787370418684L74.96666666666667,14.888943480895534L76.52847222222222,12.176034861203107L78.09027777777779,20.09000486031408L79.65208333333334,18.015871676332125L81.21388888888887,22.434754092339148L82.77569444444444,26.051658908906973L84.33749999999999,31.95482266717906L85.89930555555556,32.61319286779661L87.46111111111111,40.104533501128316L89.02291666666666,45.87908601752278L90.58472222222223,45.34902115734366L92.14652777777778,41.16772958908422L93.70833333333333,29.111026087809933L95.2701388888889,32.507718985894286L96.83194444444445,39.602266648488666L98.39375,48.041711435409894L99.95555555555556,49.785616121252275L101.51736111111111,53.1023890287118L103.07916666666667,55.5296354126712L104.64097222222223,56.6846752790656L106.20277777777777,56.66038988421502L107.76458333333333,60.03251083574271L109.32638888888889,59.60847323924506L110.88819444444444,59.03163426849511L112.45,60.70817985753952L114.01180555555555,61.39576451607944L115.5736111111111,50.55210318818101L117.13541666666667,56.05241012198883L118.69722222222222,60.582607155157675L120.25902777777777,63.23135324724785L121.82083333333334,61.31200317451189L123.38263888888889,60.457678276624804L124.94444444444444,61.49704628506343L126.50625000000001,59.545873872378166L128.06805555555556,60.90347664885823L129.62986111111113,59.65571428708512L131.19166666666666,62.53743536977328L132.75347222222223,63.930650110711184L134.3152777777778,63.40367599154749L135.87708333333333,60.60195257777147L137.4388888888889,63.27304903669311L139.00069444444446,64.97388832420393L140.5625,59.252735594011654L142.12430555555554,59.6337327395066L143.6861111111111,62.527530770731275L145.24791666666667,62.15387943303689L146.80972222222223,64.29981117838584L148.37152777777777,62.56311326661681L149.93333333333334,62.5771034540746L151.49513888888887,64.70174339527398L153.05694444444444,64.34048195187954L154.61875,66.85295281719367L156.18055555555557,66.75375603692848L157.7423611111111,59.363435383937286L159.30416666666667,61.51385432937917L160.8659722222222,63.98146875867623L162.42777777777775,65.23593412318885L163.98958333333334,66.80375424271035L165.55138888888888,66.94282859761438L167.11319444444445,65.73247025166181L168.67499999999998,65.77344201197101L170.23680555555555,64.81239108331802L171.79861111111111,67.75016122928486L173.36041666666668,66.14332890543052L174.92222222222222,57.04052449566632L176.48402777777778,61.28963107209567L178.04583333333332,64.29143718032519L179.60763888888889,66.53394706499368L181.16944444444445,67.37326600118747L182.73125000000002,64.43412315846857L184.29305555555555,67.08817418222871L185.85486111111112,67.70933048397771L187.41666666666666,68.09546027798359L188.97847222222225,63.319021574327394L190.5402777777778,62.96138860898476L192.10208333333333,62.47526706005574L193.6638888888889,63.7393398100473L195.22569444444443,66.25804383966636L196.7875,65.87759282144113L198.34930555555556,67.78872666611008L199.91111111111113,68.18354599073942L201.47291666666666,69.5819199424822L203.03472222222223,65.84243088151797L204.59652777777777,61.19755923868574L206.15833333333333,63.576874571653065L207.7201388888889,65.77845156358941L209.28194444444446,64.7153818915441L210.84375,61.310003873841865L212.40555555555554,62.84170054778191L213.9673611111111,64.5215473884605L215.52916666666667,65.27178841200617L217.09097222222223,65.25904828088629L218.65277777777777,64.58140219459702L220.21458333333334,61.96708938321427L221.77638888888887,60.55152617022509L223.33819444444444,63.198924844433975L224.9,62.36077066775621L226.46180555555557,63.46258195552603L228.0236111111111,65.55186225960006L229.58541666666667,65.3630395458953L231.1472222222222,64.85344455993014L232.70902777777775,65.94649545524803L234.27083333333334,66.98937381476499L235.83263888888888,66.1197174227307L237.39444444444445,65.01739799506133L238.95624999999998,66.3643794022598L240.51805555555555,64.14350792240384L242.07986111111111,64.9424792077286L243.64166666666668,65.91699920282933L245.20347222222222,63.50788731531728L246.76527777777778,65.04222344555036L248.32708333333332,63.467533165786634L249.88888888888889,64.31799669336216L251.45069444444445,63.106000141410945L253.01250000000002,64.1515602198706L254.57430555555555,64.97417558935703L256.1361111111111,59.540979693179494L257.69791666666663,62.01664064409924L259.25972222222225,63.49898312325172L260.82152777777776,64.35549660360932L262.3833333333333,62.610487981248184L263.9451388888889,64.40586427539844" fill="none"></path></g></g></g></g><g opacity="0.20000000298023224"><g><g><g><path style="fill: none;" stroke="rgb(0, 153, 136)" stroke-width="2px" d="M31.23611111111111,1.337609030630091L32.797916666666666,47.72961193359686L34.359722222222224,59.268697722339155L35.921527777777776,66.95428011773352L37.483333333333334,73.05920295487985L39.04513888888889,77.84829882405224L40.60694444444444,82.30026741918522L42.168749999999996,85.80512762865125L43.730555555555554,89.54742052103086L45.29236111111111,92.93659199859283L46.854166666666664,95.8063666130323L48.41597222222222,98.09386404505881L49.97777777777778,101.54188363311918L51.53958333333333,103.47900464885072L53.101388888888884,105.56801598329014L54.66319444444444,108.29010514726586L56.225,110.14897842033785L57.78680555555555,111.43152648004083L59.34861111111111,114.42194011917482L60.91041666666667,116.26139195897014L62.47222222222222,117.82349290211806L64.03402777777778,119.20317466942052L65.59583333333333,119.9873187032203L67.1576388888889,123.7708831438469L68.71944444444445,123.67569542973419L70.28125,125.2786330698301L71.84305555555555,127.46470628263306L73.40486111111112,128.01862527164843L74.96666666666667,129.39243935737295L76.52847222222222,129.4332775452167L78.09027777777779,131.22915576871392L79.65208333333334,117.52641207025962L81.21388888888887,128.86743721076903L82.77569444444444,127.42962309430786L84.33749999999999,123.82880908392876L85.89930555555556,124.3149723666549L87.46111111111111,127.49338894204999L89.02291666666666,128.70140544524284L90.58472222222223,125.74142425815435L92.14652777777778,124.04715193114403L93.70833333333333,125.51004764607745L95.2701388888889,121.7161257700961L96.83194444444445,129.99969548098892L98.39375,127.83894883121583L99.95555555555556,128.9549917136053L101.51736111111111,128.87720155099566L103.07916666666667,124.62021676070972L104.64097222222223,128.25430649251328L106.20277777777777,127.15397514873746L107.76458333333333,130.33941509810592L109.32638888888889,127.55569065333869L110.88819444444444,128.7519132349132L112.45,128.35733968499264L114.01180555555555,131.4271690016948L115.5736111111111,122.54829145424254L117.13541666666667,132.35849470639144L118.69722222222222,132.13604314945775L120.25902777777777,127.50686445990485L121.82083333333334,131.52793659778916L123.38263888888889,126.11233413567027L124.94444444444444,132.62778552625363L126.50625000000001,133.0367749247554L128.06805555555556,134.1273700280189L129.62986111111113,132.20360207398L131.19166666666666,132.3447132253343L132.75347222222223,131.6957174934289L134.3152777777778,132.47667494467171L135.87708333333333,131.9723381948172L137.4388888888889,131.63803678228714L139.00069444444446,137.749827370196L140.5625,134.3869674251938L142.12430555555554,134.2802480547706L143.6861111111111,133.15232700477935L145.24791666666667,135.40591882034127L146.80972222222223,136.2006282639176L148.37152777777777,136.99363406633893L149.93333333333334,133.86003544996134L151.49513888888887,137.37715628263763L153.05694444444444,135.82652613772953L154.61875,132.53006547684154L156.18055555555557,137.50681516593605L157.7423611111111,140.55626821675065L159.30416666666667,136.97413610807675L160.8659722222222,135.6178431898754L162.42777777777775,139.3367641899565L163.98958333333334,140.73783844607166L165.55138888888888,137.34623395680688L167.11319444444445,137.8438368228933L168.67499999999998,139.12404808064758L170.23680555555555,134.25323275663953L171.79861111111111,136.79314777733012L173.36041666666668,140.2742181289284L174.92222222222222,140.12437462854194L176.48402777777778,142.6880958252518L178.04583333333332,141.3056335914134L179.60763888888889,141.2627631729478L181.16944444444445,143.74319563083012L182.73125000000002,143.78261647207938L184.29305555555555,139.68435249007968L185.85486111111112,141.306920332835L187.41666666666666,147.48300243662206L188.97847222222225,146.79717405392293L190.5402777777778,138.70866126827696L192.10208333333333,143.46135936295582L193.6638888888889,144.82688884918323L195.22569444444443,146.02003205044713L196.7875,147.04605089185807L198.34930555555556,147.8800781813393L199.91111111111113,143.95288154945314L201.47291666666666,146.50219746564096L203.03472222222223,148.4925565705268L204.59652777777777,151.95689379543404L206.15833333333333,145.0714428731287L207.7201388888889,139.63669073814964L209.28194444444446,147.5686136730235L210.84375,150.33682370100868L212.40555555555554,148.26000196798086L213.9673611111111,144.08338955882763L215.52916666666667,151.39800010289343L217.09097222222223,147.1188439596245L218.65277777777777,148.63252321223212L220.21458333333334,148.05480931355453L221.77638888888887,150.1425951150747L223.33819444444444,148.11632133262913L224.9,149.7352737210149L226.46180555555557,152.53641765125184L228.0236111111111,151.8229020055947L229.58541666666667,147.2200033295394L231.1472222222222,149.24445894653704L232.70902777777775,151.13782406518362L234.27083333333334,151.18730757032512L235.83263888888888,146.60757520415186L237.39444444444445,154.66273031572584L238.95624999999998,148.85691656983286L240.51805555555555,155.91867926900838L242.07986111111111,149.66810792053317L243.64166666666668,153.1476114154406L245.20347222222222,155.55072424019167L246.76527777777778,148.65545308019566L248.32708333333332,157.88263440345656L249.88888888888889,152.31197680923663L251.45069444444445,151.24938874001052L253.01250000000002,154.60372970936533L254.57430555555555,150.72310897153693L256.1361111111111,156.50272854319473L257.69791666666663,151.97846944404736L259.25972222222225,155.68706186602637L260.82152777777776,151.47657944007972L262.3833333333333,158.0703322432833L263.9451388888889,154.03401794425187" fill="none"></path></g><g><path style="fill: none;" stroke="rgb(238, 51, 119)" stroke-width="2px" d="M31.23611111111111,22.20603516415187L32.797916666666666,36.77098025349079L34.359722222222224,30.698345123218076L35.921527777777776,30.06140777020542L37.483333333333334,31.738339961399873L39.04513888888889,36.42347737525006L40.60694444444444,21.021405162968563L42.168749999999996,27.629929147418466L43.730555555555554,29.761591445377405L45.29236111111111,28.09627103784166L46.854166666666664,33.38079367171241L48.41597222222222,34.91949135447197L49.97777777777778,25.497246349647753L51.53958333333333,34.05350680267048L53.101388888888884,29.31221409612553L54.66319444444444,27.477009793128218L56.225,27.71979872425422L57.78680555555555,29.169656701092947L59.34861111111111,25.37091255540045L60.91041666666667,26.299320007642194L62.47222222222222,22.84816980055217L64.03402777777778,26.35750520010413L65.59583333333333,16.747967021562204L67.1576388888889,34.03017645609191L68.71944444444445,17.78968549031157L70.28125,24.83760326677489L71.84305555555555,36.46925278374633L73.40486111111112,13.737846730716285L74.96666666666667,5.689196956170775L76.52847222222222,8.348896548847165L78.09027777777779,34.719711594058566L79.65208333333334,15.048382056406808L81.21388888888887,29.835285855905795L82.77569444444444,31.982692140881028L84.33749999999999,42.24967861969901L85.89930555555556,33.61622908437491L87.46111111111111,53.77954839814167L89.02291666666666,55.913579329582774L90.58472222222223,44.56366469697855L92.14652777777778,35.45236031384957L93.70833333333333,14.97239046585355L95.2701388888889,38.04599683430834L96.83194444444445,52.402911181304674L98.39375,63.89369197111387L99.95555555555556,52.51319095265825L101.51736111111111,58.499236230925334L103.07916666666667,59.390907682159764L104.64097222222223,58.465495403893414L106.20277777777777,56.6239824966829L107.76458333333333,65.52724240229355L109.32638888888889,58.97866685170207L110.88819444444444,58.17789834258035L112.45,63.32606938723549L114.01180555555555,62.44403940023413L115.5736111111111,37.552150437809075L117.13541666666667,65.53798540671832L118.69722222222222,68.1921232187407L120.25902777777777,67.4685141925832L121.82083333333334,58.55648915850526L123.38263888888889,59.201294631380875L124.94444444444444,63.095059936200414L126.50625000000001,56.74665998843065L128.06805555555556,63.00690410486669L129.62986111111113,57.837112456564256L131.19166666666666,67.17454140410341L132.75347222222223,66.09112341399513L134.3152777777778,62.62284310764849L135.87708333333333,56.657181031092094L137.4388888888889,67.54837344335948L139.00069444444446,67.63129496691654L140.5625,51.678629236397455L142.12430555555554,60.210376515016165L143.6861111111111,67.1854988923743L145.24791666666667,61.598261405398475L146.80972222222223,67.68968765615931L148.37152777777777,60.059626915725175L149.93333333333334,62.59809561293757L151.49513888888887,68.05621085058434L153.05694444444444,63.80313326133799L154.61875,70.85835487105969L156.18055555555557,66.60530566354267L157.7423611111111,49.90158809476446L159.30416666666667,64.91119798017439L160.8659722222222,67.91093339307346L162.42777777777775,67.17470546029986L163.98958333333334,69.24536349987378L165.55138888888888,67.1521219172058L167.11319444444445,63.9668870552983L168.67499999999998,65.8349586802709L170.23680555555555,63.402499952939195L171.79861111111111,72.4841970381955L173.36041666666668,63.82028899119385L174.92222222222222,45.766245424362324L176.48402777777778,68.3738226917833L178.04583333333332,69.13655596849657L179.60763888888889,70.0849100225009L181.16944444444445,68.65752103358304L182.73125000000002,60.308237580607226L184.29305555555555,71.33438943295253L185.85486111111112,68.65483217884967L187.41666666666666,68.67994335178201L188.97847222222225,56.871179494429555L190.5402777777778,62.429392224637084L192.10208333333333,61.75428630865133L193.6638888888889,65.69341422836045L195.22569444444443,70.27401162126175L196.7875,65.31195288286858L198.34930555555556,70.79019310075965L199.91111111111113,68.78130527457601L201.47291666666666,71.75066586388732L203.03472222222223,60.682779974524635L204.59652777777777,54.910079390917446L206.15833333333333,67.357358315189L207.7201388888889,69.26104597523062L209.28194444444446,63.15945091285906L210.84375,56.577594071142684L212.40555555555554,65.2249494557315L213.9673611111111,67.14480409470389L215.52916666666667,66.41730002206103L217.09097222222223,65.23994378391268L218.65277777777777,63.58079554722504L220.21458333333334,58.27107079004752L221.77638888888887,58.4961739668113L223.33819444444444,67.43378644338786L224.9,61.12771128937571L226.46180555555557,65.15915326487675L228.0236111111111,68.84760838757849L229.58541666666667,65.08105202246848L231.1472222222222,64.09805963236235L232.70902777777775,67.62922181802277L234.27083333333334,68.59292016533182L235.83263888888888,64.84123592069507L237.39444444444445,63.40546137563429L238.95624999999998,68.45081193016081L240.51805555555555,60.976397245677106L242.07986111111111,66.16381732844074L243.64166666666668,67.41297355859845L245.20347222222222,60.086582279653044L246.76527777777778,67.42973311180957L248.32708333333332,61.18931649804034L249.88888888888889,65.61965173680899L251.45069444444445,61.33809297483296L253.01250000000002,65.75933388610201L254.57430555555555,66.23236881681576L256.1361111111111,52.305556611530534L257.69791666666663,65.95971458416281L259.25972222222225,65.80266302713137L260.82152777777776,65.66660131479522L262.3833333333333,60.09548966568035L263.9451388888889,67.21749952500802" fill="none"></path></g></g></g></g></g></g><g transform="translate(48, 177)" clip-path="url(#clip_1)"><clipPath id="clip_1"><rect width="281" height="22"></rect></clipPath><g><g><line x1="0" y1="0" x2="0" y2="5" style="visibility: inherit;" fill="rgb(0, 0, 0)" stroke="rgb(204, 204, 204)" stroke-width="1px"></line><line x1="31.23611111111111" y1="0" x2="31.23611111111111" y2="5" style="visibility: inherit;" fill="rgb(0, 0, 0)" stroke="rgb(204, 204, 204)" stroke-width="1px"></line><line x1="62.47222222222222" y1="0" x2="62.47222222222222" y2="5" style="visibility: inherit;" fill="rgb(0, 0, 0)" stroke="rgb(204, 204, 204)" stroke-width="1px"></line><line x1="93.70833333333333" y1="0" x2="93.70833333333333" y2="5" style="visibility: inherit;" fill="rgb(0, 0, 0)" stroke="rgb(204, 204, 204)" stroke-width="1px"></line><line x1="124.94444444444444" y1="0" x2="124.94444444444444" y2="5" style="visibility: inherit;" fill="rgb(0, 0, 0)" stroke="rgb(204, 204, 204)" stroke-width="1px"></line><line x1="156.18055555555557" y1="0" x2="156.18055555555557" y2="5" style="visibility: inherit;" fill="rgb(0, 0, 0)" stroke="rgb(204, 204, 204)" stroke-width="1px"></line><line x1="187.41666666666666" y1="0" x2="187.41666666666666" y2="5" style="visibility: inherit;" fill="rgb(0, 0, 0)" stroke="rgb(204, 204, 204)" stroke-width="1px"></line><line x1="218.65277777777777" y1="0" x2="218.65277777777777" y2="5" style="visibility: inherit;" fill="rgb(0, 0, 0)" stroke="rgb(204, 204, 204)" stroke-width="1px"></line><line x1="249.88888888888889" y1="0" x2="249.88888888888889" y2="5" style="visibility: inherit;" fill="rgb(0, 0, 0)" stroke="rgb(204, 204, 204)" stroke-width="1px"></line><line x1="281.125" y1="0" x2="281.125" y2="5" style="visibility: inherit;" fill="rgb(0, 0, 0)" stroke="rgb(204, 204, 204)" stroke-width="1px"></line></g><g transform="translate(0, 8)"><text style="text-anchor: middle; visibility: hidden; font-family: &quot;Helvetica Neue&quot;, sans-serif; font-size: 12px; font-weight: 200;" x="0" y="0" dx="0em" dy="0.95em" fill="rgb(50, 49, 63)" stroke="none" stroke-width="1px">-20</text><text style="text-anchor: middle; visibility: inherit; font-family: &quot;Helvetica Neue&quot;, sans-serif; font-size: 12px; font-weight: 200;" x="31.23611111111111" y="0" dx="0em" dy="0.95em" fill="rgb(50, 49, 63)" stroke="none" stroke-width="1px">0</text><text style="text-anchor: middle; visibility: inherit; font-family: &quot;Helvetica Neue&quot;, sans-serif; font-size: 12px; font-weight: 200;" x="62.47222222222222" y="0" dx="0em" dy="0.95em" fill="rgb(50, 49, 63)" stroke="none" stroke-width="1px">20</text><text style="text-anchor: middle; visibility: inherit; font-family: &quot;Helvetica Neue&quot;, sans-serif; font-size: 12px; font-weight: 200;" x="93.70833333333333" y="0" dx="0em" dy="0.95em" fill="rgb(50, 49, 63)" stroke="none" stroke-width="1px">40</text><text style="text-anchor: middle; visibility: inherit; font-family: &quot;Helvetica Neue&quot;, sans-serif; font-size: 12px; font-weight: 200;" x="124.94444444444444" y="0" dx="0em" dy="0.95em" fill="rgb(50, 49, 63)" stroke="none" stroke-width="1px">60</text><text style="text-anchor: middle; visibility: inherit; font-family: &quot;Helvetica Neue&quot;, sans-serif; font-size: 12px; font-weight: 200;" x="156.18055555555557" y="0" dx="0em" dy="0.95em" fill="rgb(50, 49, 63)" stroke="none" stroke-width="1px">80</text><text style="text-anchor: middle; visibility: inherit; font-family: &quot;Helvetica Neue&quot;, sans-serif; font-size: 12px; font-weight: 200;" x="187.41666666666666" y="0" dx="0em" dy="0.95em" fill="rgb(50, 49, 63)" stroke="none" stroke-width="1px">100</text><text style="text-anchor: middle; visibility: inherit; font-family: &quot;Helvetica Neue&quot;, sans-serif; font-size: 12px; font-weight: 200;" x="218.65277777777777" y="0" dx="0em" dy="0.95em" fill="rgb(50, 49, 63)" stroke="none" stroke-width="1px">120</text><text style="text-anchor: middle; visibility: inherit; font-family: &quot;Helvetica Neue&quot;, sans-serif; font-size: 12px; font-weight: 200;" x="249.88888888888889" y="0" dx="0em" dy="0.95em" fill="rgb(50, 49, 63)" stroke="none" stroke-width="1px">140</text><text style="text-anchor: middle; visibility: hidden; font-family: &quot;Helvetica Neue&quot;, sans-serif; font-size: 12px; font-weight: 200;" x="281.125" y="0" dx="0em" dy="0.95em" fill="rgb(50, 49, 63)" stroke="none" stroke-width="1px">160</text></g><line x1="0" y1="0" x2="281.125" y2="0" fill="rgb(0, 0, 0)" stroke="rgb(204, 204, 204)" stroke-width="1px"></line></g></g></g></g></svg>