<svg viewBox="0 0 330 200" xmlns="http://www.w3.org/2000/svg"><g><g><g><g><g><line x1="58.59375" y1="177.828125" x2="53.59375" y2="177.828125" style="visibility: inherit;" fill="rgb(0, 0, 0)" stroke="rgb(204, 204, 204)" stroke-width="1px"></line><line x1="58.59375" y1="161.6619318181818" x2="53.59375" y2="161.6619318181818" style="visibility: inherit;" fill="rgb(0, 0, 0)" stroke="rgb(204, 204, 204)" stroke-width="1px"></line><line x1="58.59375" y1="145.49573863636363" x2="53.59375" y2="145.49573863636363" style="visibility: inherit;" fill="rgb(0, 0, 0)" stroke="rgb(204, 204, 204)" stroke-width="1px"></line><line x1="58.59375" y1="129.32954545454544" x2="53.59375" y2="129.32954545454544" style="visibility: inherit;" fill="rgb(0, 0, 0)" stroke="rgb(204, 204, 204)" stroke-width="1px"></line><line x1="58.59375" y1="113.16335227272727" x2="53.59375" y2="113.16335227272727" style="visibility: inherit;" fill="rgb(0, 0, 0)" stroke="rgb(204, 204, 204)" stroke-width="1px"></line><line x1="58.59375" y1="96.9971590909091" x2="53.59375" y2="96.9971590909091" style="visibility: inherit;" fill="rgb(0, 0, 0)" stroke="rgb(204, 204, 204)" stroke-width="1px"></line><line x1="58.59375" y1="80.83096590909092" x2="53.59375" y2="80.83096590909092" style="visibility: inherit;" fill="rgb(0, 0, 0)" stroke="rgb(204, 204, 204)" stroke-width="1px"></line><line x1="58.59375" y1="64.66477272727275" x2="53.59375" y2="64.66477272727275" style="visibility: inherit;" fill="rgb(0, 0, 0)" stroke="rgb(204, 204, 204)" stroke-width="1px"></line><line x1="58.59375" y1="48.49857954545456" x2="53.59375" y2="48.49857954545456" style="visibility: inherit;" fill="rgb(0, 0, 0)" stroke="rgb(204, 204, 204)" stroke-width="1px"></line><line x1="58.59375" y1="32.332386363636374" x2="53.59375" y2="32.332386363636374" style="visibility: inherit;" fill="rgb(0, 0, 0)" stroke="rgb(204, 204, 204)" stroke-width="1px"></line><line x1="58.59375" y1="16.166193181818187" x2="53.59375" y2="16.166193181818187" style="visibility: inherit;" fill="rgb(0, 0, 0)" stroke="rgb(204, 204, 204)" stroke-width="1px"></line><line x1="58.59375" y1="0" x2="53.59375" y2="0" style="visibility: inherit;" fill="rgb(0, 0, 0)" stroke="rgb(204, 204, 204)" stroke-width="1px"></line></g><g transform="translate(48.59375, 0)"><text style="text-anchor: end; visibility: hidden; font-family: &quot;Helvetica Neue&quot;, sans-serif; font-size: 12px; font-weight: 200;" x="0" y="177.828125" dx="0em" dy="0.3em" fill="rgb(50, 49, 63)" stroke="none" stroke-width="1px">-0.05</text><text style="text-anchor: end; visibility: inherit; font-family: &quot;Helvetica Neue&quot;, sans-serif; font-size: 12px; font-weight: 200;" x="0" y="161.6619318181818" dx="0em" dy="0.3em" fill="rgb(50, 49, 63)" stroke="none" stroke-width="1px">0</text><text style="text-anchor: end; visibility: hidden; font-family: &quot;Helvetica Neue&quot;, sans-serif; font-size: 12px; font-weight: 200;" x="0" y="145.49573863636363" dx="0em" dy="0.3em" fill="rgb(50, 49, 63)" stroke="none" stroke-width="1px">0.05</text><text style="text-anchor: end; visibility: inherit; font-family: &quot;Helvetica Neue&quot;, sans-serif; font-size: 12px; font-weight: 200;" x="0" y="129.32954545454544" dx="0em" dy="0.3em" fill="rgb(50, 49, 63)" stroke="none" stroke-width="1px">0.1</text><text style="text-anchor: end; visibility: hidden; font-family: &quot;Helvetica Neue&quot;, sans-serif; font-size: 12px; font-weight: 200;" x="0" y="113.16335227272727" dx="0em" dy="0.3em" fill="rgb(50, 49, 63)" stroke="none" stroke-width="1px">0.15</text><text style="text-anchor: end; visibility: inherit; font-family: &quot;Helvetica Neue&quot;, sans-serif; font-size: 12px; font-weight: 200;" x="0" y="96.9971590909091" dx="0em" dy="0.3em" fill="rgb(50, 49, 63)" stroke="none" stroke-width="1px">0.2</text><text style="text-anchor: end; visibility: hidden; font-family: &quot;Helvetica Neue&quot;, sans-serif; font-size: 12px; font-weight: 200;" x="0" y="80.83096590909092" dx="0em" dy="0.3em" fill="rgb(50, 49, 63)" stroke="none" stroke-width="1px">0.25</text><text style="text-anchor: end; visibility: inherit; font-family: &quot;Helvetica Neue&quot;, sans-serif; font-size: 12px; font-weight: 200;" x="0" y="64.66477272727275" dx="0em" dy="0.3em" fill="rgb(50, 49, 63)" stroke="none" stroke-width="1px">0.3</text><text style="text-anchor: end; visibility: hidden; font-family: &quot;Helvetica Neue&quot;, sans-serif; font-size: 12px; font-weight: 200;" x="0" y="48.49857954545456" dx="0em" dy="0.3em" fill="rgb(50, 49, 63)" stroke="none" stroke-width="1px">0.35</text><text style="text-anchor: end; visibility: inherit; font-family: &quot;Helvetica Neue&quot;, sans-serif; font-size: 12px; font-weight: 200;" x="0" y="32.332386363636374" dx="0em" dy="0.3em" fill="rgb(50, 49, 63)" stroke="none" stroke-width="1px">0.4</text><text style="text-anchor: end; visibility: hidden; font-family: &quot;Helvetica Neue&quot;, sans-serif; font-size: 12px; font-weight: 200;" x="0" y="16.166193181818187" dx="0em" dy="0.3em" fill="rgb(50, 49, 63)" stroke="none" stroke-width="1px">0.45</text><text style="text-anchor: end; visibility: hidden; font-family: &quot;Helvetica Neue&quot;, sans-serif; font-size: 12px; font-weight: 200;" x="0" y="0" dx="0em" dy="0.3em" fill="rgb(50, 49, 63)" stroke="none" stroke-width="1px">0.5</text></g><line x1="58.59375" y1="0" x2="58.59375" y2="177.828125" fill="rgb(0, 0, 0)" stroke="rgb(204, 204, 204)" stroke-width="1px"></line></g></g><g transform="translate(58, 0)" clip-path="url(#clip_0)"><clipPath id="clip_0"><rect width="271" height="177"></rect></clipPath><g><g><g><line x1="0" y1="0" x2="0" y2="177.828125" fill="rgb(0, 0, 0)" stroke="rgb(60, 60, 60)" stroke-width="1px" opacity="0.25"></line><line x1="19.38616071428571" y1="0" x2="19.38616071428571" y2="177.828125" fill="rgb(0, 0, 0)" stroke="rgb(60, 60, 60)" stroke-width="1px" opacity="0.25"></line><line x1="38.77232142857142" y1="0" x2="38.77232142857142" y2="177.828125" fill="rgb(0, 0, 0)" stroke="rgb(60, 60, 60)" stroke-width="1px" opacity="0.25"></line><line x1="58.15848214285714" y1="0" x2="58.15848214285714" y2="177.828125" fill="rgb(0, 0, 0)" stroke="rgb(60, 60, 60)" stroke-width="1px" opacity="0.25"></line><line x1="77.54464285714285" y1="0" x2="77.54464285714285" y2="177.828125" fill="rgb(0, 0, 0)" stroke="rgb(60, 60, 60)" stroke-width="1px" opacity="0.25"></line><line x1="96.93080357142857" y1="0" x2="96.93080357142857" y2="177.828125" fill="rgb(0, 0, 0)" stroke="rgb(60, 60, 60)" stroke-width="1px" opacity="0.25"></line><line x1="116.31696428571428" y1="0" x2="116.31696428571428" y2="177.828125" fill="rgb(0, 0, 0)" stroke="rgb(60, 60, 60)" stroke-width="1px" opacity="0.25"></line><line x1="135.703125" y1="0" x2="135.703125" y2="177.828125" fill="rgb(0, 0, 0)" stroke="rgb(60, 60, 60)" stroke-width="1px" opacity="0.25"></line><line x1="155.0892857142857" y1="0" x2="155.0892857142857" y2="177.828125" fill="rgb(0, 0, 0)" stroke="rgb(60, 60, 60)" stroke-width="1px" opacity="0.25"></line><line x1="174.47544642857144" y1="0" x2="174.47544642857144" y2="177.828125" fill="rgb(0, 0, 0)" stroke="rgb(60, 60, 60)" stroke-width="1px" opacity="0.25"></line><line x1="193.86160714285714" y1="0" x2="193.86160714285714" y2="177.828125" fill="rgb(0, 0, 0)" stroke="rgb(60, 60, 60)" stroke-width="1px" opacity="0.25"></line><line x1="213.24776785714286" y1="0" x2="213.24776785714286" y2="177.828125" fill="rgb(0, 0, 0)" stroke="rgb(60, 60, 60)" stroke-width="1px" opacity="0.25"></line><line x1="232.63392857142856" y1="0" x2="232.63392857142856" y2="177.828125" fill="rgb(0, 0, 0)" stroke="rgb(60, 60, 60)" stroke-width="1px" opacity="0.25"></line><line x1="252.0200892857143" y1="0" x2="252.0200892857143" y2="177.828125" fill="rgb(0, 0, 0)" stroke="rgb(60, 60, 60)" stroke-width="1px" opacity="0.25"></line><line x1="271.40625" y1="0" x2="271.40625" y2="177.828125" fill="rgb(0, 0, 0)" stroke="rgb(60, 60, 60)" stroke-width="1px" opacity="0.25"></line></g><g><line x1="0" y1="177.828125" x2="271.40625" y2="177.828125" fill="rgb(0, 0, 0)" stroke="rgb(60, 60, 60)" stroke-width="1px" opacity="0.25"></line><line x1="0" y1="161.6619318181818" x2="271.40625" y2="161.6619318181818" fill="rgb(0, 0, 0)" stroke="rgb(60, 60, 60)" stroke-width="1px" opacity="0.25"></line><line x1="0" y1="145.49573863636363" x2="271.40625" y2="145.49573863636363" fill="rgb(0, 0, 0)" stroke="rgb(60, 60, 60)" stroke-width="1px" opacity="0.25"></line><line x1="0" y1="129.32954545454544" x2="271.40625" y2="129.32954545454544" fill="rgb(0, 0, 0)" stroke="rgb(60, 60, 60)" stroke-width="1px" opacity="0.25"></line><line x1="0" y1="113.16335227272727" x2="271.40625" y2="113.16335227272727" fill="rgb(0, 0, 0)" stroke="rgb(60, 60, 60)" stroke-width="1px" opacity="0.25"></line><line x1="0" y1="96.9971590909091" x2="271.40625" y2="96.9971590909091" fill="rgb(0, 0, 0)" stroke="rgb(60, 60, 60)" stroke-width="1px" opacity="0.25"></line><line x1="0" y1="80.83096590909092" x2="271.40625" y2="80.83096590909092" fill="rgb(0, 0, 0)" stroke="rgb(60, 60, 60)" stroke-width="1px" opacity="0.25"></line><line x1="0" y1="64.66477272727275" x2="271.40625" y2="64.66477272727275" fill="rgb(0, 0, 0)" stroke="rgb(60, 60, 60)" stroke-width="1px" opacity="0.25"></line><line x1="0" y1="48.49857954545456" x2="271.40625" y2="48.49857954545456" fill="rgb(0, 0, 0)" stroke="rgb(60, 60, 60)" stroke-width="1px" opacity="0.25"></line><line x1="0" y1="32.332386363636374" x2="271.40625" y2="32.332386363636374" fill="rgb(0, 0, 0)" stroke="rgb(60, 60, 60)" stroke-width="1px" opacity="0.25"></line><line x1="0" y1="16.166193181818187" x2="271.40625" y2="16.166193181818187" fill="rgb(0, 0, 0)" stroke="rgb(60, 60, 60)" stroke-width="1px" opacity="0.25"></line><line x1="0" y1="0" x2="271.40625" y2="0" fill="rgb(0, 0, 0)" stroke="rgb(60, 60, 60)" stroke-width="1px" opacity="0.25"></line></g></g></g><g><g><line x1="0" y1="161.6619318181818" x2="271.40625" y2="161.6619318181818" fill="rgb(0, 0, 0)" stroke="rgb(153, 153, 153)" stroke-width="1.5px"></line></g></g><g><g><line x1="19.38616071428571" y1="0" x2="19.38616071428571" y2="177.828125" fill="rgb(0, 0, 0)" stroke="rgb(153, 153, 153)" stroke-width="1.5px"></line></g></g><g><g><g><g><g><path style="fill: none;" stroke="rgb(51, 187, 238)" stroke-width="2px" d="M23.263392857142858,-34.32358752702865L25.20200892857143,5.367761462930588L27.140625,30.441357414122706L29.07924107142857,47.420096499871335L31.017857142857142,59.43553248807575L32.956473214285715,68.29400365214627L34.895089285714285,75.08776497472375L36.833705357142854,80.61370984532705L38.77232142857142,85.03160444012399L40.7109375,88.83823041652475L42.64955357142857,91.83867945983948L44.588169642857146,94.69986029931519L46.526785714285715,97.39504812161707L48.465401785714285,99.44964202691874L50.40401785714286,101.26607700950093L52.34263392857143,103.13991303458299L54.28125,104.76111852923601L56.21986607142858,106.22350145209393L58.15848214285714,107.5474375561287L60.09709821428571,108.67214845131137L62.035714285714285,110.06670972127817L63.974330357142854,111.07792343731543L65.91294642857143,112.03181211684208L67.8515625,112.79819740965323L69.79017857142857,114.10192444462469L71.72879464285714,115.10217574768157L73.66741071428571,116.02177428981759L75.60602678571429,116.57087564346207L77.54464285714285,117.72867435413718L79.48325892857143,118.07453356705767L81.421875,118.95417713473125L83.36049107142858,119.4077675707747L85.29910714285714,120.15193159413387L87.23772321428572,120.8335348994465L89.17633928571429,121.56424594536654L91.11495535714285,122.17144653376721L93.05357142857143,122.73647967830249L94.9921875,123.1802869841622L96.93080357142857,123.48933216595555L98.86941964285714,124.41073508843238L100.80803571428572,124.9144371420605L102.74665178571428,125.35033970990794L104.68526785714286,125.844377736045L106.62388392857143,126.10741442485434L108.5625,126.34407657025778L110.50111607142857,126.92566589070537L112.43973214285715,127.61758851141872L114.37834821428571,127.84095686191978L116.31696428571428,128.34483078830462L118.25558035714286,128.83543582485933L120.19419642857142,129.03480911048064L122.1328125,129.46223625083104L124.07142857142857,129.80317924715L126.01004464285715,130.21067407189656L127.94866071428571,130.63348630102047L129.88727678571428,130.970120549441L131.82589285714286,131.34616029901719L133.76450892857144,131.6177960669873L135.703125,104.5978793930981L137.64174107142856,102.52003599128507L139.58035714285714,104.84476673671345L141.51897321428572,107.13942142965777L143.45758928571428,109.27114271762221L145.39620535714286,110.11706931553903L147.33482142857142,111.8444445778911L149.2734375,113.18475402359844L151.21205357142858,113.38395007973314L153.15066964285714,114.48350586523625L155.0892857142857,115.37360823690494L157.0279017857143,116.07668740881333L158.96651785714286,117.11535536096792L160.90513392857142,116.97455266172064L162.84375,117.51353826741502L164.78236607142856,118.7070348445713L166.72098214285717,118.01266528998197L168.65959821428572,117.83153870426969L170.59821428571428,116.95183285546949L172.53683035714283,117.3414417651291L174.47544642857144,118.53528373528312L176.4140625,119.92913322713318L178.35267857142858,121.55498897677714L180.29129464285714,122.41710349049438L182.2299107142857,122.98206363724117L184.1685267857143,122.82254018002051L186.10714285714286,122.19721737359872L188.04575892857142,122.3816450543859L189.984375,122.85074193502959L191.92299107142858,123.03760057708715L193.86160714285714,123.76386709417174L195.80022321428572,124.62635524192748L197.73883928571428,125.22820861368345L199.67745535714286,125.3528378199887L201.61607142857144,125.16860016758059L203.5546875,125.17503235833439L205.49330357142856,125.64825255274775L207.43191964285714,125.39091565328226L209.37053571428572,125.4197459976497L211.30915178571428,126.12416168333442L213.24776785714286,126.10395059749882L215.18638392857142,126.65351797165218L217.125,126.56853347721515L219.06361607142858,126.69572514076111L221.00223214285714,127.07052163299232L222.9408482142857,127.66859317697487L224.8794642857143,128.04318100386462L226.81808035714286,128.5441940710644L228.75669642857142,128.52136272646933L230.6953125,129.05042070365764L232.63392857142856,128.63785001969674L234.57254464285717,128.6064001054146L236.51116071428572,127.13871890898515L238.44977678571428,127.94425509705431L240.38839285714283,128.24157114202782L242.32700892857144,129.19483535139062L244.265625,128.02764627849177L246.20424107142858,129.1109824213169L248.14285714285714,129.56583791734806L250.0814732142857,129.4951047896363" fill="none"></path></g><g><path style="fill: none;" stroke="rgb(204, 51, 17)" stroke-width="2px" d="M25.20200892857143,-2.237762298704496L27.140625,7.879475211183745L29.07924107142857,13.656294709671982L31.017857142857142,18.64132916355527L32.956473214285715,20.52929880268809L34.895089285714285,20.509811145877478L36.833705357142854,24.82968880725815L38.77232142857142,21.98147698658832L40.7109375,26.249651217659164L42.64955357142857,28.0714968177584L44.588169642857146,28.397848739148714L46.526785714285715,31.28046952457933L48.465401785714285,32.11194751581658L50.40401785714286,35.877218938640794L52.34263392857143,37.41833821454554L54.28125,38.37198066274601L56.21986607142858,40.32240351124912L58.15848214285714,38.15148581762102L60.09709821428571,37.408423855394744L62.035714285714285,35.50975305026782L63.974330357142854,32.739635129042995L65.91294642857143,33.31110022023523L67.8515625,35.42924288432954L69.79017857142857,28.754940609097304L71.72879464285714,31.633733850250195L73.66741071428571,30.69489689193705L75.60602678571429,31.154886504489895L77.54464285714285,31.786306447383822L79.48325892857143,32.644265891352006L81.421875,22.981001594068346L83.36049107142858,27.564263563784436L85.29910714285714,33.66895602697636L87.23772321428572,30.697895547839636L89.17633928571429,32.271420707173405L91.11495535714285,24.930873613900275L93.05357142857143,29.549317690713934L94.9921875,30.082176179762115L96.93080357142857,33.32828820279394L98.86941964285714,16.850837302456625L100.80803571428572,25.293281028879818L102.74665178571428,26.146525787295133L104.68526785714286,31.22141418546596L106.62388392857143,32.352861950192676L108.5625,32.73799667452403L110.50111607142857,31.295793508104907L112.43973214285715,25.9559019329553L114.37834821428571,29.09230159101776L116.31696428571428,25.36541083258578L118.25558035714286,28.685218152995503L120.19419642857142,28.106016181194377L122.1328125,29.12161024071358L124.07142857142857,25.603478589913692L126.01004464285715,31.25493190407292L127.94866071428571,27.066659747288014L129.88727678571428,26.654790792260826L131.82589285714286,20.449891573655464L133.76450892857144,24.561656928937566L135.703125,47.64482290897604L137.64174107142856,63.759243892616965L139.58035714285714,75.27347055104556L141.51897321428572,82.64713249107605L143.45758928571428,86.05758546780699L145.39620535714286,88.99440578515026L147.33482142857142,90.91418980276944L149.2734375,91.63263605701246L151.21205357142858,93.86680904398074L153.15066964285714,94.04743978408483L155.0892857142857,94.01580231615905L157.0279017857143,94.70607846034876L158.96651785714286,94.01070467021597L160.90513392857142,95.56725110161135L162.84375,94.38663111462574L164.78236607142856,94.99671049551026L166.72098214285717,95.13683903704688L168.65959821428572,95.48573305455618L170.59821428571428,95.37178059865832L172.53683035714283,95.5037278133077L174.47544642857144,95.5247594941915L176.4140625,96.3926677072759L178.35267857142858,96.64303588477387L180.29129464285714,96.26445553939249L182.2299107142857,96.55883740783972L184.1685267857143,94.42109142080012L186.10714285714286,93.93104828667137L188.04575892857142,94.11619542335187L189.984375,95.03312968259067L191.92299107142858,95.67436013018278L193.86160714285714,95.78507546090108L195.80022321428572,96.51463477284841L197.73883928571428,96.86489847644212L199.67745535714286,96.13709038555457L201.61607142857144,96.8141096013016L203.5546875,96.11431221196321L205.49330357142856,95.39308948747649L207.43191964285714,94.82911430211539L209.37053571428572,94.1807377312825L211.30915178571428,94.42302833835079L213.24776785714286,95.4573092932323L215.18638392857142,96.17455194066471L217.125,94.56027091707728L219.06361607142858,93.47398363681022L221.00223214285714,94.20130845247763L222.9408482142857,92.83903443070548L224.8794642857143,92.52894488781028L226.81808035714286,93.73745766246327L228.75669642857142,93.98510748285685L230.6953125,94.47232451115141L232.63392857142856,95.3635044063709L234.57254464285717,95.89301286473274L236.51116071428572,96.9089744059489L238.44977678571428,94.7613359605085L240.38839285714283,95.6169924994107L242.32700892857144,95.93249595667288L244.265625,95.30090285820529L246.20424107142858,95.31715171032218L248.14285714285714,95.2751586919068L250.0814732142857,95.9409327535693" fill="none"></path></g><g><path style="fill: none;" stroke="rgb(0, 119, 187)" stroke-width="2px" d="M25.20200892857143,-3.5103641239052195L27.140625,23.307466700837153L29.07924107142857,41.261395566622895L31.017857142857142,53.88902501790078L32.956473214285715,63.71929912996568L34.895089285714285,71.02698748142039L36.833705357142854,77.0918723270194L38.77232142857142,81.92261714212654L40.7109375,86.08260002331411L42.64955357142857,89.29178961993968L44.588169642857146,92.4338228495277L46.526785714285715,95.02739782439038L48.465401785714285,97.17990321873708L50.40401785714286,99.58267448303586L52.34263392857143,101.34547705033903L54.28125,102.82735156740779L56.21986607142858,104.4734444044159L58.15848214285714,106.05410232433577L60.09709821428571,107.55274616417738L62.035714285714285,108.78696896173513L63.974330357142854,110.21868731910426L65.91294642857143,111.06206155043456L67.8515625,111.98149778257967L69.79017857142857,112.78068710804261L71.72879464285714,113.8456815058853L73.66741071428571,115.05986786792242L75.60602678571429,115.93691724695702L77.54464285714285,116.85684061994843L79.48325892857143,117.44702943110605L81.421875,118.14863863257007L83.36049107142858,118.87583571044844L85.29910714285714,119.46583535289554L87.23772321428572,120.04557692243792L89.17633928571429,120.6970565832392L91.11495535714285,121.4129686526937L93.05357142857143,122.23100830504112L94.9921875,122.63040760559778L96.93080357142857,123.1753980431985L98.86941964285714,123.69620008233579L100.80803571428572,124.34105769704198L102.74665178571428,124.74689794449674L104.68526785714286,125.2628621037023L106.62388392857143,125.64435258966901L108.5625,125.98043554290527L110.50111607142857,126.31814283936055L112.43973214285715,127.01831667242513L114.37834821428571,127.26786534934692L116.31696428571428,127.9089144646849L118.25558035714286,128.13668463996652L120.19419642857142,128.69564829519294L122.1328125,129.1130204184547L124.07142857142857,129.15002224063684L126.01004464285715,129.61178645974152L127.94866071428571,130.11478431338261L129.88727678571428,130.71427245674485L131.82589285714286,130.95090555158802L133.76450892857144,131.2797737158269L135.703125,131.61988178301934L137.64174107142856,131.91351140310815L139.58035714285714,131.79618649996138L141.51897321428572,132.36327405735375L143.45758928571428,132.71686543252508L145.39620535714286,133.01977313179026L147.33482142857142,133.42098085099028L149.2734375,133.66459815027656L151.21205357142858,133.96628266580512L153.15066964285714,133.88062351780655L155.0892857142857,134.01961413247355L157.0279017857143,134.30767679049353L158.96651785714286,134.67503906573916L160.90513392857142,135.02525068409224L162.84375,135.44841945627903L164.78236607142856,135.77523386989415L166.72098214285717,135.86596273161913L168.65959821428572,136.0276542337753L170.59821428571428,136.1986663130993L172.53683035714283,136.4858724014668L174.47544642857144,136.63816322208828L176.4140625,137.19493635263171L178.35267857142858,137.48204689487608L180.29129464285714,137.68180898128597L182.2299107142857,137.88995812345843L184.1685267857143,137.79213724384041L186.10714285714286,138.2054255705998L188.04575892857142,138.1622354641858L189.984375,138.35244762173883L191.92299107142858,138.67829083108768L193.86160714285714,138.8809445946352L195.80022321428572,139.15831404611563L197.73883928571428,139.29688246768566L199.67745535714286,139.45761967071235L201.61607142857144,139.45194079914307L203.5546875,139.77537024490863L205.49330357142856,140.00946756050052L207.43191964285714,140.29163101793796L209.37053571428572,140.33414120942484L211.30915178571428,140.29865269753213L213.24776785714286,140.61704955541768L215.18638392857142,140.8131907908987L217.125,140.9168795297536L219.06361607142858,141.06241548029155L221.00223214285714,141.3560082555001L222.9408482142857,141.3651913706967L224.8794642857143,141.4735378914999L226.81808035714286,141.4449585586553L228.75669642857142,141.46571964946446L230.6953125,141.61823364988686L232.63392857142856,141.93341744063412L234.57254464285717,141.86967463428283L236.51116071428572,142.03256330930114L238.44977678571428,142.25799449878843L240.38839285714283,142.3791463983239L242.32700892857144,142.4958851980279L244.265625,142.43045054682324L246.20424107142858,142.26940429974343L248.14285714285714,142.7868768135949L250.0814732142857,143.0689361513179" fill="none"></path></g><g><path style="fill: none;" stroke="rgb(255, 112, 67)" stroke-width="2px" d="M19.38616071428571,-0.8692264285954536L21.324776785714285,27.37412833439356L23.263392857142858,44.74479511682577L25.20200892857143,55.35866456948918L27.140625,65.12736046424429L29.07924107142857,73.90413258677752L31.017857142857142,80.22793982052282L32.956473214285715,84.36227792637946L34.895089285714285,88.38106628303993L36.833705357142854,92.2977705685493L38.77232142857142,94.50260228503984L40.7109375,96.79754464674815L42.64955357142857,98.18925087613616L44.588169642857146,100.59418329316134L46.526785714285715,102.29991345928799L48.465401785714285,103.85405751104594L50.40401785714286,103.97054708150493L52.34263392857143,104.20193872080252L54.28125,105.55326697369355L56.21986607142858,105.79603701433552L58.15848214285714,107.17003260343897L60.09709821428571,107.87646304274317L62.035714285714285,108.44051352771123L63.974330357142854,108.15402541117928L65.91294642857143,109.11014214465467L67.8515625,110.2624529063511L69.79017857142857,111.15065341737571L71.72879464285714,111.09083797991248L73.66741071428571,111.11784549822151L75.60602678571429,111.87885912041284L77.54464285714285,112.09690396800544L79.48325892857143,113.05421486182402L81.421875,113.99421260284727L83.36049107142858,114.69249768668848L85.29910714285714,115.27295898733445L87.23772321428572,115.25134429822893L89.17633928571429,114.8936122679901L91.11495535714285,114.92482283206823L93.05357142857143,115.02117133736401L94.9921875,115.45617391097048L96.93080357142857,115.6206536258532L98.86941964285714,115.88809903703228L100.80803571428572,115.72610416897412L102.74665178571428,115.62833873584991L104.68526785714286,115.65873355826177L106.62388392857143,115.59810141217051L108.5625,115.67504108343478L110.50111607142857,116.11742713809113L112.43973214285715,116.28263486690966L114.37834821428571,116.80435109190068L116.31696428571428,117.31683036573949L118.25558035714286,116.94204340507005L120.19419642857142,117.20321457266775L122.1328125,117.05496533806587L124.07142857142857,117.19266913241299L126.01004464285715,117.42381573419291L127.94866071428571,118.26442947486913L129.88727678571428,118.04439161355445L131.82589285714286,117.94528479646506L133.76450892857144,118.35360420538188L135.703125,118.07465682455097L137.64174107142856,117.78813206827647L139.58035714285714,117.69157882210806L141.51897321428572,117.64532353929452L143.45758928571428,118.4415374361152L145.39620535714286,117.91292381003184L147.33482142857142,118.02996221783434L149.2734375,118.2567708996572L151.21205357142858,118.54022221051977L153.15066964285714,118.53943288278396L155.0892857142857,118.32583654423055L157.0279017857143,117.71170092055443L158.96651785714286,117.57061291105188L160.90513392857142,117.65424746046446L162.84375,117.95303380938134L164.78236607142856,118.63411698915438L166.72098214285717,119.06698937613538L168.65959821428572,117.79491899705013L170.59821428571428,117.27029584365508L172.53683035714283,117.98953215771326L174.47544642857144,117.70873957319827L176.4140625,118.16362910823062L178.35267857142858,118.19965314647223L180.29129464285714,118.24453610413445L182.2299107142857,118.21342366168575L184.1685267857143,118.44631422522473L186.10714285714286,118.06580968514268L188.04575892857142,118.35330180740738L189.984375,118.47636734356541L191.92299107142858,118.5921532386125L193.86160714285714,118.2089829757641L195.80022321428572,118.32261450450194L197.73883928571428,118.06365601601456L199.67745535714286,117.95666613918395L201.61607142857144,118.1623074313648L203.5546875,117.66348727149514L205.49330357142856,116.9106630275901L207.43191964285714,117.92755913991314L209.37053571428572,117.25441803876346L211.30915178571428,117.62159989149416L213.24776785714286,117.9906568789111L215.18638392857142,117.9257824859491L217.125,118.3539687703614L219.06361607142858,117.76140557939337L221.00223214285714,117.6090597491629L222.9408482142857,117.80487045614738L224.8794642857143,117.67575358072845L226.81808035714286,117.99853925409329L228.75669642857142,117.79383191372943L230.6953125,117.93126666774312L232.63392857142856,117.6454510212782L234.57254464285717,117.2771253240611L236.51116071428572,117.37144418238273L238.44977678571428,117.19739101307115L240.38839285714283,117.8982076689895L242.32700892857144,117.76138792680479L244.265625,117.37658543388386L246.20424107142858,117.1055014449446L248.14285714285714,117.44897926130878L250.0814732142857,116.73861831115394" fill="none"></path></g></g></g></g><g opacity="0.20000000298023224"><g><g><g><path style="fill: none;" stroke="rgb(51, 187, 238)" stroke-width="2px" d="M19.38616071428571,-292.428745793348L21.324776785714285,3.8776105413721496L23.263392857142858,35.67355060780591L25.20200892857143,52.044787875122665L27.140625,63.17744428799911L29.07924107142857,70.9078050015325L31.017857142857142,76.61779819818383L32.956473214285715,81.20973965068434L34.895089285714285,85.10724330532621L36.833705357142854,88.819093962454L38.77232142857142,91.6183763535016L40.7109375,94.52745389066298L42.64955357142857,96.3295560380952L44.588169642857146,98.98602620740846L46.526785714285715,101.43466176295823L48.465401785714285,102.53008382606575L50.40401785714286,103.98996082896537L52.34263392857143,105.9501913054423L54.28125,107.19267979687588L56.21986607142858,108.41694216878916L58.15848214285714,109.53326910437848L60.09709821428571,110.35917778499426L62.035714285714285,112.15852409304883L63.974330357142854,112.59473203258082L65.91294642857143,113.46263835629956L67.8515625,113.94777208058673L69.79017857142857,116.05751166120172L71.72879464285714,116.60255116664553L73.66741071428571,117.40117125594142L75.60602678571429,117.39452737044883L77.54464285714285,119.46537203621119L79.48325892857143,118.59332231762397L81.421875,120.27364238122988L83.36049107142858,120.08815319235015L85.29910714285714,121.26817759719086L87.23772321428572,121.8559398398396L89.17633928571429,122.66031250294128L91.11495535714285,123.08224741073155L93.05357142857143,123.5840293919583L94.9921875,123.8459979414686L96.93080357142857,123.95289993802595L98.86941964285714,125.79283947103912L100.80803571428572,125.66999022213912L102.74665178571428,126.0041935614903L104.68526785714286,126.5854347751222L106.62388392857143,126.50196945802733L108.5625,126.69906978834084L110.50111607142857,127.79804987134412L112.43973214285715,128.65547244246542L114.37834821428571,128.17600938766688L116.31696428571428,129.10064167787576L118.25558035714286,129.57134337968787L120.19419642857142,129.3338690389117L122.1328125,130.10337696135554L124.07142857142857,130.31459374162793L126.01004464285715,130.821916309016L127.94866071428571,131.2677046447061L129.88727678571428,131.47507192207163L131.82589285714286,131.91021992338145L133.76450892857144,132.02524971894243L135.703125,64.06800438226624L137.64174107142856,99.40327088856563L139.58035714285714,108.331862854856L141.51897321428572,110.58140346907419L143.45758928571428,112.46872464956886L145.39620535714286,111.38595921241425L147.33482142857142,114.43550747141921L149.2734375,115.19521819215947L151.21205357142858,113.68274416393517L153.15066964285714,116.13283954349095L155.0892857142857,116.70876179440793L157.0279017857143,117.13130616667596L158.96651785714286,118.6733572891998L160.90513392857142,116.76334861284968L162.84375,118.32201667595655L164.78236607142856,120.49727971030569L166.72098214285717,116.97111095809802L168.65959821428572,117.55984882570127L170.59821428571428,115.63227408226919L172.53683035714283,117.92585512961855L174.47544642857144,120.32604669051415L176.4140625,122.01990746490827L178.35267857142858,123.99377260124311L180.29129464285714,123.71027526107025L182.2299107142857,123.82950385736132L184.1685267857143,122.58325499418953L186.10714285714286,121.25923316396603L188.04575892857142,122.65828657556665L189.984375,123.55438725599512L191.92299107142858,123.31788854017347L193.86160714285714,124.85326686979866L195.80022321428572,125.92008746356112L197.73883928571428,126.13098867131737L199.67745535714286,125.53978162944657L201.61607142857144,124.89224368896845L203.5546875,125.18468064446512L205.49330357142856,126.35808284436777L207.43191964285714,125.00491030408409L209.37053571428572,125.46299151420087L211.30915178571428,127.18078521186149L213.24776785714286,126.07363396874544L215.18638392857142,127.47786903288215L217.125,126.44105673555964L219.06361607142858,126.88651263608006L221.00223214285714,127.63271637133917L222.9408482142857,128.56570049294865L224.8794642857143,128.60506274419922L226.81808035714286,129.2957136718641L228.75669642857142,128.48711570957676L230.6953125,129.84400766944006L232.63392857142856,128.01899399375543L234.57254464285717,128.55922523399138L236.51116071428572,124.93719711434096L238.44977678571428,129.15255937915805L240.38839285714283,128.68754520948806L242.32700892857144,130.62473166543484L244.265625,126.2768626691435L246.20424107142858,130.73598663555458L248.14285714285714,130.24812116139483L250.0814732142857,129.3890050980686" fill="none"></path></g><g><path style="fill: none;" stroke="rgb(204, 51, 17)" stroke-width="2px" d="M23.263392857142858,-16.026574264873148L25.20200892857143,15.55288787338543L27.140625,21.088540504093885L29.07924107142857,21.647715731100618L31.017857142857142,25.77000819315967L32.956473214285715,23.281976661052227L34.895089285714285,20.481070637364297L36.833705357142854,31.244203678586274L38.77232142857142,17.734992327168612L40.7109375,32.628685348582536L42.64955357142857,30.79831657592547L44.588169642857146,28.88673726384613L46.526785714285715,35.601012290201425L48.465401785714285,33.35857807997277L50.40401785714286,41.523532736199826L52.34263392857143,39.7296258383854L54.28125,39.802299057218164L56.21986607142858,43.24785950762984L58.15848214285714,34.895228335464566L60.09709821428571,36.29385536282578L62.035714285714285,32.661784328520326L63.974330357142854,28.584491061893374L65.91294642857143,34.1682937952944L67.8515625,38.60644784756008L69.79017857142857,18.74350427395919L71.72879464285714,35.95191929235378L73.66741071428571,29.28664231926882L75.60602678571429,31.844870669089943L77.54464285714285,32.73343615233901L79.48325892857143,33.93120488659903L81.421875,8.486106301742524L83.36049107142858,34.4391561900689L85.29910714285714,42.8259944594042L87.23772321428572,26.24130490574649L89.17633928571429,34.631708421829074L91.11495535714285,13.920053042132736L93.05357142857143,36.476983780210674L94.9921875,30.88146391155371L96.93080357142857,38.197456230832785L98.86941964285714,-7.865339028225691L100.80803571428572,37.95694661242041L102.74665178571428,27.426392924548566L104.68526785714286,38.83374678140339L106.62388392857143,34.05003359710631L108.5625,33.315698760984986L110.50111607142857,29.13248875855723L112.43973214285715,17.946064570410698L114.37834821428571,33.79690107804808L116.31696428571428,19.775074694983005L118.25558035714286,33.66492913358593L120.19419642857142,27.237213223495274L122.1328125,30.64500132998961L124.07142857142857,20.326281113719432L126.01004464285715,39.73211187530649L127.94866071428571,20.784251512112945L129.88727678571428,26.0369873597202L131.82589285714286,11.142542745748699L133.76450892857144,30.72930496186021L135.703125,82.269571879032L137.64174107142856,87.93087536807765L139.58035714285714,92.54481053868817L141.51897321428572,93.70762540112166L143.45758928571428,91.1732649329034L145.39620535714286,93.39963626116516L147.33482142857142,93.79386582919821L149.2734375,92.71030543837698L151.21205357142858,97.21806852443314L153.15066964285714,94.31838589424099L155.0892857142857,93.9683461142704L157.0279017857143,95.74149267663334L158.96651785714286,92.96764398501679L160.90513392857142,97.90207074870442L162.84375,92.6157011341473L164.78236607142856,95.91182956683704L166.72098214285717,95.34703184935181L168.65959821428572,96.00907408082013L170.59821428571428,95.20085191481155L172.53683035714283,95.70164863528177L174.47544642857144,95.55630701551722L176.4140625,97.69453002690254L178.35267857142858,97.01858815102077L180.29129464285714,95.6965850213204L182.2299107142857,97.00041021051055L184.1685267857143,91.21447244024075L186.10714285714286,93.19598358547823L188.04575892857142,94.39391612837262L189.984375,96.40853107144888L191.92299107142858,96.63620580157097L193.86160714285714,95.95114845697854L195.80022321428572,97.60897374076939L197.73883928571428,97.39029403183271L199.67745535714286,95.04537824922328L201.61607142857144,97.82963842492212L203.5546875,95.06461612795566L205.49330357142856,94.31125540074639L207.43191964285714,93.9831515240737L209.37053571428572,93.20817287503318L211.30915178571428,94.78646424895322L213.24776785714286,97.00873072555459L215.18638392857142,97.25041591181336L217.125,92.1388493816961L219.06361607142858,91.84455271640964L221.00223214285714,95.29229567597875L222.9408482142857,90.79562339804728L224.8794642857143,92.06381057346748L226.81808035714286,95.55022682444279L228.75669642857142,94.35658221344718L230.6953125,95.20315005359326L232.63392857142856,96.70027424920012L234.57254464285717,96.68727555227552L236.51116071428572,98.43291671777314L238.44977678571428,91.53987829234791L240.38839285714283,96.90047730776398L242.32700892857144,96.40575114256619L244.265625,94.3535132105039L246.20424107142858,95.34152498849754L248.14285714285714,95.21216916428372L250.0814732142857,96.93959384606306" fill="none"></path></g><g><path style="fill: none;" stroke="rgb(0, 119, 187)" stroke-width="2px" d="M21.324776785714285,-8.437300964512616L23.263392857142858,28.17109588364312L25.20200892857143,46.03269301354888L27.140625,58.32082662562078L29.07924107142857,66.0981426023963L31.017857142857142,71.94673717529936L32.956473214285715,78.05193315598775L34.895089285714285,81.80440835443072L36.833705357142854,86.09751949679446L38.77232142857142,89.12491986485706L40.7109375,92.29993590196088L42.64955357142857,94.09509545403787L44.588169642857146,97.1407171237198L46.526785714285715,98.91471163666046L48.465401785714285,100.40714319668372L50.40401785714286,103.18581460721114L52.34263392857143,103.98923332591288L54.28125,105.04993759434332L56.21986607142858,106.94243320052259L58.15848214285714,108.42500251717867L60.09709821428571,109.80066261042587L62.035714285714285,110.63827879049562L63.974330357142854,112.36624789508907L65.91294642857143,112.32711690308696L67.8515625,113.36064820982178L69.79017857142857,113.97946905133063L71.72879464285714,115.44317146763206L73.66741071428571,116.88114629254085L75.60602678571429,117.25249083077705L77.54464285714285,118.23672537437895L79.48325892857143,118.33231253041464L81.421875,119.20105235100809L83.36049107142858,119.96663127517837L85.29910714285714,120.3508347912099L87.23772321428572,120.91518926180223L89.17633928571429,121.67427606436172L91.11495535714285,122.48683675022966L93.05357142857143,123.45806777900594L94.9921875,123.22950655509803L96.93080357142857,123.9928836985068L98.86941964285714,124.47740314041519L100.80803571428572,125.30834411863577L102.74665178571428,125.35565831550312L104.68526785714286,126.03680834237656L106.62388392857143,126.21658831855962L108.5625,126.48455997272819L110.50111607142857,126.8247037840245L112.43973214285715,128.06857742199844L114.37834821428571,127.64218836472455L116.31696428571428,128.8704881376841L118.25558035714286,128.47833990288729L120.19419642857142,129.5340937780301L122.1328125,129.73907860334626L124.07142857142857,129.20552497390997L126.01004464285715,130.30443278839812L127.94866071428571,130.86928109384397L129.88727678571428,131.613504671788L131.82589285714286,131.30585519385272L133.76450892857144,131.7730759621852L135.703125,132.13004388380796L137.64174107142856,132.35395583324134L139.58035714285714,131.62019914524123L141.51897321428572,133.2139053934423L143.45758928571428,133.24725249528208L145.39620535714286,133.47413468068805L147.33482142857142,134.02279242979026L149.2734375,134.03002409920606L151.21205357142858,134.41880943909797L153.15066964285714,133.75213479580867L155.0892857142857,134.22810005447406L157.0279017857143,134.73977077752352L158.96651785714286,135.2260824786076L160.90513392857142,135.55056811162186L162.84375,136.0831726145592L164.78236607142856,136.26545549031687L166.72098214285717,136.00205602420664L168.65959821428572,136.27019148700955L170.59821428571428,136.45518443208528L172.53683035714283,136.91668153401804L174.47544642857144,136.8665994530205L176.4140625,138.0300960484469L178.35267857142858,137.91271270824257L180.29129464285714,137.9814521109008L182.2299107142857,138.20218183671716L184.1685267857143,137.64540592441335L186.10714285714286,138.82535806073892L188.04575892857142,138.09745030456477L189.984375,138.63776585806838L191.92299107142858,139.16705564511093L193.86160714285714,139.18492523995653L195.80022321428572,139.57436822333628L197.73883928571428,139.50473510004073L199.67745535714286,139.69872547525236L201.61607142857144,139.4434224917892L203.5546875,140.26051441355693L205.49330357142856,140.36061353388834L207.43191964285714,140.71487620409408L209.37053571428572,140.3979064966552L211.30915178571428,140.24541992969304L213.24776785714286,141.09464484224605L215.18638392857142,141.10740264412016L217.125,141.07241263803604L219.06361607142858,141.28071940609846L221.00223214285714,141.7963974183129L222.9408482142857,141.3789660434916L224.8794642857143,141.63605767270465L226.81808035714286,141.40208955938843L228.75669642857142,141.4968612856782L230.6953125,141.8470046505205L232.63392857142856,142.406193126755L234.57254464285717,141.77406042475593L236.51116071428572,142.27689632182856L238.44977678571428,142.59614128301936L240.38839285714283,142.56087424762717L242.32700892857144,142.67099339758386L244.265625,142.33229857001623L246.20424107142858,142.02783492912369L248.14285714285714,143.56308558437212L250.0814732142857,143.4920251579024" fill="none"></path></g><g><path style="fill: none;" stroke="rgb(255, 112, 67)" stroke-width="2px" d="M19.38616071428571,-0.8692264285954536L21.324776785714285,44.32014119218698L23.263392857142858,61.42063522796063L25.20200892857143,67.84057504582135L27.140625,77.88136982443659L29.07924107142857,86.0455680702051L31.017857142857142,89.27108534569429L32.956473214285715,90.39018257436429L34.895089285714285,94.30799849966373L36.833705357142854,98.11361996414648L38.77232142857142,97.78985219838268L40.7109375,100.22746921432291L42.64955357142857,100.2722660579126L44.588169642857146,104.19687040573494L46.526785714285715,104.85650368669833L48.465401785714285,106.1841774858873L50.40401785714286,104.14523214271124L52.34263392857143,104.54896742943676L54.28125,107.5800534917719L56.21986607142858,106.16016988515516L58.15848214285714,109.23095063391058L60.09709821428571,108.93608545630494L62.035714285714285,109.28657811897045L63.974330357142854,107.7242966301062L65.91294642857143,110.54431044919924L67.8515625,111.99091413481669L69.79017857142857,112.48295191125099L71.72879464285714,111.00111491554841L73.66741071428571,111.15835675080731L75.60602678571429,113.02037913309918L77.54464285714285,112.42397116708824L79.48325892857143,114.49018101207912L81.421875,115.40420910216531L83.36049107142858,115.73992526243356L85.29910714285714,116.14365091335708L87.23772321428572,115.21892226512799L89.17633928571429,114.35701422816652L91.11495535714285,114.97163867789575L93.05357142857143,115.16569409477103L94.9921875,116.10867776992646L96.93080357142857,115.86737319784748L98.86941964285714,116.28926715347916L100.80803571428572,115.48311186700383L102.74665178571428,115.48169058620593L104.68526785714286,115.7043257918717L106.62388392857143,115.50715319304305L108.5625,115.79045059032401L110.50111607142857,116.78100622005084L112.43973214285715,116.53044646013191L114.37834821428571,117.58692542937669L116.31696428571428,118.08554927649146L118.25558035714286,116.37986296406862L120.19419642857142,117.59497132406318L122.1328125,116.83259148616344L124.07142857142857,117.39922482393345L126.01004464285715,117.77053563686258L127.94866071428571,119.52535008588299L129.88727678571428,117.71433482158253L131.82589285714286,117.796624570831L133.76450892857144,118.96608331875706L135.703125,117.6562357533046L137.64174107142856,117.35834493386474L139.58035714285714,117.54674895285544L141.51897321428572,117.57594061507422L143.45758928571428,119.6358582813462L145.39620535714286,117.12000337090683L147.33482142857142,118.20551982953808L149.2734375,118.59698392239147L151.21205357142858,118.96539917681366L153.15066964285714,118.53824889118022L155.0892857142857,118.00544203640047L157.0279017857143,116.79049748504028L158.96651785714286,117.35898089679804L160.90513392857142,117.77969928458333L162.84375,118.4012133327567L164.78236607142856,119.65574175881392L166.72098214285717,119.7162979566069L168.65959821428572,115.88681342842227L170.59821428571428,116.48336111356252L172.53683035714283,119.06838662880051L174.47544642857144,117.28755069642582L176.4140625,118.84596341077918L178.35267857142858,118.25368920383468L180.29129464285714,118.31186054062778L182.2299107142857,118.16675499801272L184.1685267857143,118.79565007053316L186.10714285714286,117.49505287501961L188.04575892857142,118.78453999080443L189.984375,118.66096564780244L191.92299107142858,118.76583208118313L193.86160714285714,117.63422758149153L195.80022321428572,118.4930617976087L197.73883928571428,117.67521828328344L199.67745535714286,117.79618132393807L201.61607142857144,118.47076936963609L203.5546875,116.91525703169069L205.49330357142856,115.78142666173252L207.43191964285714,119.45290330839768L209.37053571428572,116.24470638703895L211.30915178571428,118.17237267059022L213.24776785714286,118.54424236003649L215.18638392857142,117.82847089650619L217.125,118.99624819697982L219.06361607142858,116.87256079294127L221.00223214285714,117.3805410038172L222.9408482142857,118.09858651662415L224.8794642857143,117.48207826760006L226.81808035714286,118.48271776414055L228.75669642857142,117.48677090318367L230.6953125,118.13741879876366L232.63392857142856,117.21672755158085L234.57254464285717,116.72463677823544L236.51116071428572,117.5129224698652L238.44977678571428,116.93631125910377L240.38839285714283,118.94943265286699L242.32700892857144,117.5561583135277L244.265625,116.79938169450247L246.20424107142858,116.69887546153569L248.14285714285714,117.96419598585504L250.0814732142857,115.67307688592172" fill="none"></path></g></g></g></g></g></g><g transform="translate(58, 177)" clip-path="url(#clip_1)"><clipPath id="clip_1"><rect width="271" height="22"></rect></clipPath><g><g><line x1="0" y1="0" x2="0" y2="5" style="visibility: inherit;" fill="rgb(0, 0, 0)" stroke="rgb(204, 204, 204)" stroke-width="1px"></line><line x1="19.38616071428571" y1="0" x2="19.38616071428571" y2="5" style="visibility: inherit;" fill="rgb(0, 0, 0)" stroke="rgb(204, 204, 204)" stroke-width="1px"></line><line x1="38.77232142857142" y1="0" x2="38.77232142857142" y2="5" style="visibility: inherit;" fill="rgb(0, 0, 0)" stroke="rgb(204, 204, 204)" stroke-width="1px"></line><line x1="58.15848214285714" y1="0" x2="58.15848214285714" y2="5" style="visibility: inherit;" fill="rgb(0, 0, 0)" stroke="rgb(204, 204, 204)" stroke-width="1px"></line><line x1="77.54464285714285" y1="0" x2="77.54464285714285" y2="5" style="visibility: inherit;" fill="rgb(0, 0, 0)" stroke="rgb(204, 204, 204)" stroke-width="1px"></line><line x1="96.93080357142857" y1="0" x2="96.93080357142857" y2="5" style="visibility: inherit;" fill="rgb(0, 0, 0)" stroke="rgb(204, 204, 204)" stroke-width="1px"></line><line x1="116.31696428571428" y1="0" x2="116.31696428571428" y2="5" style="visibility: inherit;" fill="rgb(0, 0, 0)" stroke="rgb(204, 204, 204)" stroke-width="1px"></line><line x1="135.703125" y1="0" x2="135.703125" y2="5" style="visibility: inherit;" fill="rgb(0, 0, 0)" stroke="rgb(204, 204, 204)" stroke-width="1px"></line><line x1="155.0892857142857" y1="0" x2="155.0892857142857" y2="5" style="visibility: inherit;" fill="rgb(0, 0, 0)" stroke="rgb(204, 204, 204)" stroke-width="1px"></line><line x1="174.47544642857144" y1="0" x2="174.47544642857144" y2="5" style="visibility: inherit;" fill="rgb(0, 0, 0)" stroke="rgb(204, 204, 204)" stroke-width="1px"></line><line x1="193.86160714285714" y1="0" x2="193.86160714285714" y2="5" style="visibility: inherit;" fill="rgb(0, 0, 0)" stroke="rgb(204, 204, 204)" stroke-width="1px"></line><line x1="213.24776785714286" y1="0" x2="213.24776785714286" y2="5" style="visibility: inherit;" fill="rgb(0, 0, 0)" stroke="rgb(204, 204, 204)" stroke-width="1px"></line><line x1="232.63392857142856" y1="0" x2="232.63392857142856" y2="5" style="visibility: inherit;" fill="rgb(0, 0, 0)" stroke="rgb(204, 204, 204)" stroke-width="1px"></line><line x1="252.0200892857143" y1="0" x2="252.0200892857143" y2="5" style="visibility: inherit;" fill="rgb(0, 0, 0)" stroke="rgb(204, 204, 204)" stroke-width="1px"></line><line x1="271.40625" y1="0" x2="271.40625" y2="5" style="visibility: inherit;" fill="rgb(0, 0, 0)" stroke="rgb(204, 204, 204)" stroke-width="1px"></line></g><g transform="translate(0, 8)"><text style="text-anchor: middle; visibility: hidden; font-family: &quot;Helvetica Neue&quot;, sans-serif; font-size: 12px; font-weight: 200;" x="0" y="0" dx="0em" dy="0.95em" fill="rgb(50, 49, 63)" stroke="none" stroke-width="1px">-10</text><text style="text-anchor: middle; visibility: inherit; font-family: &quot;Helvetica Neue&quot;, sans-serif; font-size: 12px; font-weight: 200;" x="19.38616071428571" y="0" dx="0em" dy="0.95em" fill="rgb(50, 49, 63)" stroke="none" stroke-width="1px">0</text><text style="text-anchor: middle; visibility: hidden; font-family: &quot;Helvetica Neue&quot;, sans-serif; font-size: 12px; font-weight: 200;" x="38.77232142857142" y="0" dx="0em" dy="0.95em" fill="rgb(50, 49, 63)" stroke="none" stroke-width="1px">10</text><text style="text-anchor: middle; visibility: inherit; font-family: &quot;Helvetica Neue&quot;, sans-serif; font-size: 12px; font-weight: 200;" x="58.15848214285714" y="0" dx="0em" dy="0.95em" fill="rgb(50, 49, 63)" stroke="none" stroke-width="1px">20</text><text style="text-anchor: middle; visibility: hidden; font-family: &quot;Helvetica Neue&quot;, sans-serif; font-size: 12px; font-weight: 200;" x="77.54464285714285" y="0" dx="0em" dy="0.95em" fill="rgb(50, 49, 63)" stroke="none" stroke-width="1px">30</text><text style="text-anchor: middle; visibility: inherit; font-family: &quot;Helvetica Neue&quot;, sans-serif; font-size: 12px; font-weight: 200;" x="96.93080357142857" y="0" dx="0em" dy="0.95em" fill="rgb(50, 49, 63)" stroke="none" stroke-width="1px">40</text><text style="text-anchor: middle; visibility: hidden; font-family: &quot;Helvetica Neue&quot;, sans-serif; font-size: 12px; font-weight: 200;" x="116.31696428571428" y="0" dx="0em" dy="0.95em" fill="rgb(50, 49, 63)" stroke="none" stroke-width="1px">50</text><text style="text-anchor: middle; visibility: inherit; font-family: &quot;Helvetica Neue&quot;, sans-serif; font-size: 12px; font-weight: 200;" x="135.703125" y="0" dx="0em" dy="0.95em" fill="rgb(50, 49, 63)" stroke="none" stroke-width="1px">60</text><text style="text-anchor: middle; visibility: hidden; font-family: &quot;Helvetica Neue&quot;, sans-serif; font-size: 12px; font-weight: 200;" x="155.0892857142857" y="0" dx="0em" dy="0.95em" fill="rgb(50, 49, 63)" stroke="none" stroke-width="1px">70</text><text style="text-anchor: middle; visibility: inherit; font-family: &quot;Helvetica Neue&quot;, sans-serif; font-size: 12px; font-weight: 200;" x="174.47544642857144" y="0" dx="0em" dy="0.95em" fill="rgb(50, 49, 63)" stroke="none" stroke-width="1px">80</text><text style="text-anchor: middle; visibility: hidden; font-family: &quot;Helvetica Neue&quot;, sans-serif; font-size: 12px; font-weight: 200;" x="193.86160714285714" y="0" dx="0em" dy="0.95em" fill="rgb(50, 49, 63)" stroke="none" stroke-width="1px">90</text><text style="text-anchor: middle; visibility: inherit; font-family: &quot;Helvetica Neue&quot;, sans-serif; font-size: 12px; font-weight: 200;" x="213.24776785714286" y="0" dx="0em" dy="0.95em" fill="rgb(50, 49, 63)" stroke="none" stroke-width="1px">100</text><text style="text-anchor: middle; visibility: hidden; font-family: &quot;Helvetica Neue&quot;, sans-serif; font-size: 12px; font-weight: 200;" x="232.63392857142856" y="0" dx="0em" dy="0.95em" fill="rgb(50, 49, 63)" stroke="none" stroke-width="1px">110</text><text style="text-anchor: middle; visibility: inherit; font-family: &quot;Helvetica Neue&quot;, sans-serif; font-size: 12px; font-weight: 200;" x="252.0200892857143" y="0" dx="0em" dy="0.95em" fill="rgb(50, 49, 63)" stroke="none" stroke-width="1px">120</text><text style="text-anchor: middle; visibility: hidden; font-family: &quot;Helvetica Neue&quot;, sans-serif; font-size: 12px; font-weight: 200;" x="271.40625" y="0" dx="0em" dy="0.95em" fill="rgb(50, 49, 63)" stroke="none" stroke-width="1px">130</text></g><line x1="0" y1="0" x2="271.40625" y2="0" fill="rgb(0, 0, 0)" stroke="rgb(204, 204, 204)" stroke-width="1px"></line></g></g></g></g></svg>