<svg viewBox="0 0 330 200" xmlns="http://www.w3.org/2000/svg"><g><g><g><g><g><line x1="58.59375" y1="177.828125" x2="53.59375" y2="177.828125" style="visibility: inherit;" fill="rgb(0, 0, 0)" stroke="rgb(204, 204, 204)" stroke-width="1px"></line><line x1="58.59375" y1="164.14903846153845" x2="53.59375" y2="164.14903846153845" style="visibility: inherit;" fill="rgb(0, 0, 0)" stroke="rgb(204, 204, 204)" stroke-width="1px"></line><line x1="58.59375" y1="150.4699519230769" x2="53.59375" y2="150.4699519230769" style="visibility: inherit;" fill="rgb(0, 0, 0)" stroke="rgb(204, 204, 204)" stroke-width="1px"></line><line x1="58.59375" y1="136.7908653846154" x2="53.59375" y2="136.7908653846154" style="visibility: inherit;" fill="rgb(0, 0, 0)" stroke="rgb(204, 204, 204)" stroke-width="1px"></line><line x1="58.59375" y1="123.11177884615384" x2="53.59375" y2="123.11177884615384" style="visibility: inherit;" fill="rgb(0, 0, 0)" stroke="rgb(204, 204, 204)" stroke-width="1px"></line><line x1="58.59375" y1="109.43269230769232" x2="53.59375" y2="109.43269230769232" style="visibility: inherit;" fill="rgb(0, 0, 0)" stroke="rgb(204, 204, 204)" stroke-width="1px"></line><line x1="58.59375" y1="95.75360576923077" x2="53.59375" y2="95.75360576923077" style="visibility: inherit;" fill="rgb(0, 0, 0)" stroke="rgb(204, 204, 204)" stroke-width="1px"></line><line x1="58.59375" y1="82.07451923076924" x2="53.59375" y2="82.07451923076924" style="visibility: inherit;" fill="rgb(0, 0, 0)" stroke="rgb(204, 204, 204)" stroke-width="1px"></line><line x1="58.59375" y1="68.39543269230771" x2="53.59375" y2="68.39543269230771" style="visibility: inherit;" fill="rgb(0, 0, 0)" stroke="rgb(204, 204, 204)" stroke-width="1px"></line><line x1="58.59375" y1="54.71634615384616" x2="53.59375" y2="54.71634615384616" style="visibility: inherit;" fill="rgb(0, 0, 0)" stroke="rgb(204, 204, 204)" stroke-width="1px"></line><line x1="58.59375" y1="41.03725961538464" x2="53.59375" y2="41.03725961538464" style="visibility: inherit;" fill="rgb(0, 0, 0)" stroke="rgb(204, 204, 204)" stroke-width="1px"></line><line x1="58.59375" y1="27.358173076923066" x2="53.59375" y2="27.358173076923066" style="visibility: inherit;" fill="rgb(0, 0, 0)" stroke="rgb(204, 204, 204)" stroke-width="1px"></line><line x1="58.59375" y1="13.679086538461519" x2="53.59375" y2="13.679086538461519" style="visibility: inherit;" fill="rgb(0, 0, 0)" stroke="rgb(204, 204, 204)" stroke-width="1px"></line><line x1="58.59375" y1="0" x2="53.59375" y2="0" style="visibility: inherit;" fill="rgb(0, 0, 0)" stroke="rgb(204, 204, 204)" stroke-width="1px"></line></g><g transform="translate(48.59375, 0)"><text style="text-anchor: end; visibility: hidden; font-family: &quot;Helvetica Neue&quot;, sans-serif; font-size: 12px; font-weight: 200;" x="0" y="177.828125" dx="0em" dy="0.3em" fill="rgb(50, 49, 63)" stroke="none" stroke-width="1px">-0.05</text><text style="text-anchor: end; visibility: inherit; font-family: &quot;Helvetica Neue&quot;, sans-serif; font-size: 12px; font-weight: 200;" x="0" y="164.14903846153845" dx="0em" dy="0.3em" fill="rgb(50, 49, 63)" stroke="none" stroke-width="1px">0</text><text style="text-anchor: end; visibility: hidden; font-family: &quot;Helvetica Neue&quot;, sans-serif; font-size: 12px; font-weight: 200;" x="0" y="150.4699519230769" dx="0em" dy="0.3em" fill="rgb(50, 49, 63)" stroke="none" stroke-width="1px">0.05</text><text style="text-anchor: end; visibility: inherit; font-family: &quot;Helvetica Neue&quot;, sans-serif; font-size: 12px; font-weight: 200;" x="0" y="136.7908653846154" dx="0em" dy="0.3em" fill="rgb(50, 49, 63)" stroke="none" stroke-width="1px">0.1</text><text style="text-anchor: end; visibility: hidden; font-family: &quot;Helvetica Neue&quot;, sans-serif; font-size: 12px; font-weight: 200;" x="0" y="123.11177884615384" dx="0em" dy="0.3em" fill="rgb(50, 49, 63)" stroke="none" stroke-width="1px">0.15</text><text style="text-anchor: end; visibility: inherit; font-family: &quot;Helvetica Neue&quot;, sans-serif; font-size: 12px; font-weight: 200;" x="0" y="109.43269230769232" dx="0em" dy="0.3em" fill="rgb(50, 49, 63)" stroke="none" stroke-width="1px">0.2</text><text style="text-anchor: end; visibility: hidden; font-family: &quot;Helvetica Neue&quot;, sans-serif; font-size: 12px; font-weight: 200;" x="0" y="95.75360576923077" dx="0em" dy="0.3em" fill="rgb(50, 49, 63)" stroke="none" stroke-width="1px">0.25</text><text style="text-anchor: end; visibility: inherit; font-family: &quot;Helvetica Neue&quot;, sans-serif; font-size: 12px; font-weight: 200;" x="0" y="82.07451923076924" dx="0em" dy="0.3em" fill="rgb(50, 49, 63)" stroke="none" stroke-width="1px">0.3</text><text style="text-anchor: end; visibility: hidden; font-family: &quot;Helvetica Neue&quot;, sans-serif; font-size: 12px; font-weight: 200;" x="0" y="68.39543269230771" dx="0em" dy="0.3em" fill="rgb(50, 49, 63)" stroke="none" stroke-width="1px">0.35</text><text style="text-anchor: end; visibility: inherit; font-family: &quot;Helvetica Neue&quot;, sans-serif; font-size: 12px; font-weight: 200;" x="0" y="54.71634615384616" dx="0em" dy="0.3em" fill="rgb(50, 49, 63)" stroke="none" stroke-width="1px">0.4</text><text style="text-anchor: end; visibility: hidden; font-family: &quot;Helvetica Neue&quot;, sans-serif; font-size: 12px; font-weight: 200;" x="0" y="41.03725961538464" dx="0em" dy="0.3em" fill="rgb(50, 49, 63)" stroke="none" stroke-width="1px">0.45</text><text style="text-anchor: end; visibility: inherit; font-family: &quot;Helvetica Neue&quot;, sans-serif; font-size: 12px; font-weight: 200;" x="0" y="27.358173076923066" dx="0em" dy="0.3em" fill="rgb(50, 49, 63)" stroke="none" stroke-width="1px">0.5</text><text style="text-anchor: end; visibility: hidden; font-family: &quot;Helvetica Neue&quot;, sans-serif; font-size: 12px; font-weight: 200;" x="0" y="13.679086538461519" dx="0em" dy="0.3em" fill="rgb(50, 49, 63)" stroke="none" stroke-width="1px">0.55</text><text style="text-anchor: end; visibility: hidden; font-family: &quot;Helvetica Neue&quot;, sans-serif; font-size: 12px; font-weight: 200;" x="0" y="0" dx="0em" dy="0.3em" fill="rgb(50, 49, 63)" stroke="none" stroke-width="1px">0.6</text></g><line x1="58.59375" y1="0" x2="58.59375" y2="177.828125" fill="rgb(0, 0, 0)" stroke="rgb(204, 204, 204)" stroke-width="1px"></line></g></g><g transform="translate(58, 0)" clip-path="url(#clip_0)"><clipPath id="clip_0"><rect width="271" height="177"></rect></clipPath><g><g><g><line x1="0" y1="0" x2="0" y2="177.828125" fill="rgb(0, 0, 0)" stroke="rgb(60, 60, 60)" stroke-width="1px" opacity="0.25"></line><line x1="30.15625" y1="0" x2="30.15625" y2="177.828125" fill="rgb(0, 0, 0)" stroke="rgb(60, 60, 60)" stroke-width="1px" opacity="0.25"></line><line x1="60.3125" y1="0" x2="60.3125" y2="177.828125" fill="rgb(0, 0, 0)" stroke="rgb(60, 60, 60)" stroke-width="1px" opacity="0.25"></line><line x1="90.46875" y1="0" x2="90.46875" y2="177.828125" fill="rgb(0, 0, 0)" stroke="rgb(60, 60, 60)" stroke-width="1px" opacity="0.25"></line><line x1="120.625" y1="0" x2="120.625" y2="177.828125" fill="rgb(0, 0, 0)" stroke="rgb(60, 60, 60)" stroke-width="1px" opacity="0.25"></line><line x1="150.78125" y1="0" x2="150.78125" y2="177.828125" fill="rgb(0, 0, 0)" stroke="rgb(60, 60, 60)" stroke-width="1px" opacity="0.25"></line><line x1="180.9375" y1="0" x2="180.9375" y2="177.828125" fill="rgb(0, 0, 0)" stroke="rgb(60, 60, 60)" stroke-width="1px" opacity="0.25"></line><line x1="211.09375" y1="0" x2="211.09375" y2="177.828125" fill="rgb(0, 0, 0)" stroke="rgb(60, 60, 60)" stroke-width="1px" opacity="0.25"></line><line x1="241.25" y1="0" x2="241.25" y2="177.828125" fill="rgb(0, 0, 0)" stroke="rgb(60, 60, 60)" stroke-width="1px" opacity="0.25"></line><line x1="271.40625" y1="0" x2="271.40625" y2="177.828125" fill="rgb(0, 0, 0)" stroke="rgb(60, 60, 60)" stroke-width="1px" opacity="0.25"></line></g><g><line x1="0" y1="177.828125" x2="271.40625" y2="177.828125" fill="rgb(0, 0, 0)" stroke="rgb(60, 60, 60)" stroke-width="1px" opacity="0.25"></line><line x1="0" y1="164.14903846153845" x2="271.40625" y2="164.14903846153845" fill="rgb(0, 0, 0)" stroke="rgb(60, 60, 60)" stroke-width="1px" opacity="0.25"></line><line x1="0" y1="150.4699519230769" x2="271.40625" y2="150.4699519230769" fill="rgb(0, 0, 0)" stroke="rgb(60, 60, 60)" stroke-width="1px" opacity="0.25"></line><line x1="0" y1="136.7908653846154" x2="271.40625" y2="136.7908653846154" fill="rgb(0, 0, 0)" stroke="rgb(60, 60, 60)" stroke-width="1px" opacity="0.25"></line><line x1="0" y1="123.11177884615384" x2="271.40625" y2="123.11177884615384" fill="rgb(0, 0, 0)" stroke="rgb(60, 60, 60)" stroke-width="1px" opacity="0.25"></line><line x1="0" y1="109.43269230769232" x2="271.40625" y2="109.43269230769232" fill="rgb(0, 0, 0)" stroke="rgb(60, 60, 60)" stroke-width="1px" opacity="0.25"></line><line x1="0" y1="95.75360576923077" x2="271.40625" y2="95.75360576923077" fill="rgb(0, 0, 0)" stroke="rgb(60, 60, 60)" stroke-width="1px" opacity="0.25"></line><line x1="0" y1="82.07451923076924" x2="271.40625" y2="82.07451923076924" fill="rgb(0, 0, 0)" stroke="rgb(60, 60, 60)" stroke-width="1px" opacity="0.25"></line><line x1="0" y1="68.39543269230771" x2="271.40625" y2="68.39543269230771" fill="rgb(0, 0, 0)" stroke="rgb(60, 60, 60)" stroke-width="1px" opacity="0.25"></line><line x1="0" y1="54.71634615384616" x2="271.40625" y2="54.71634615384616" fill="rgb(0, 0, 0)" stroke="rgb(60, 60, 60)" stroke-width="1px" opacity="0.25"></line><line x1="0" y1="41.03725961538464" x2="271.40625" y2="41.03725961538464" fill="rgb(0, 0, 0)" stroke="rgb(60, 60, 60)" stroke-width="1px" opacity="0.25"></line><line x1="0" y1="27.358173076923066" x2="271.40625" y2="27.358173076923066" fill="rgb(0, 0, 0)" stroke="rgb(60, 60, 60)" stroke-width="1px" opacity="0.25"></line><line x1="0" y1="13.679086538461519" x2="271.40625" y2="13.679086538461519" fill="rgb(0, 0, 0)" stroke="rgb(60, 60, 60)" stroke-width="1px" opacity="0.25"></line><line x1="0" y1="0" x2="271.40625" y2="0" fill="rgb(0, 0, 0)" stroke="rgb(60, 60, 60)" stroke-width="1px" opacity="0.25"></line></g></g></g><g><g><line x1="0" y1="164.14903846153845" x2="271.40625" y2="164.14903846153845" fill="rgb(0, 0, 0)" stroke="rgb(153, 153, 153)" stroke-width="1.5px"></line></g></g><g><g><line x1="30.15625" y1="0" x2="30.15625" y2="177.828125" fill="rgb(0, 0, 0)" stroke="rgb(153, 153, 153)" stroke-width="1.5px"></line></g></g><g><g><g><g><g><path style="fill: none;" stroke="rgb(0, 119, 187)" stroke-width="2px" d="M33.171875,-8.256304119650736L34.6796875,24.5417613773254L36.1875,45.922081595051566L37.6953125,60.659057850684476L39.20312499999999,71.2118265455919L40.7109375,79.20024221647719L42.21875,85.23453252601996L43.7265625,89.84254571247982L45.234375,93.56928608736905L46.7421875,97.11347960891496L48.25,99.79020273271387L49.7578125,102.12189417803967L51.265625,104.54247166492515L52.7734375,106.36338978975638L54.28125,108.12832989134449L55.7890625,109.50866520737581L57.296875,110.73535403795614L58.8046875,112.00822881748296L60.3125,113.37003080729848L61.8203125,114.71179040661175L63.328125,115.77088286279414L64.8359375,116.71279029713747L66.34375,117.69973143935599L67.8515625,118.60303075605853L69.359375,119.46528062093174L70.8671875,120.02327292347164L72.375,120.86065510099549L73.8828125,121.74712437295108L75.390625,122.41559436014931L76.8984375,118.84830804294197L78.40624999999999,118.2117377195624L79.9140625,117.50693672259163L81.421875,116.57172275878332L82.9296875,117.14957303326973L84.4375,117.36740448957872L85.9453125,118.00869354343256L87.453125,117.16448001759613L88.9609375,117.16832357267437L90.46875,117.18853450831612L91.9765625,117.95608393301737L93.484375,118.42179913152088L94.9921875,117.38741362516534L96.5,117.48106979743866L98.0078125,117.76552201229204L99.515625,117.73480018695034L101.0234375,118.57529699880871L102.53125,118.56186907662291L104.0390625,119.18023092059644L105.546875,119.53775582874619L107.0546875,119.3837384071563L108.5625,119.83499798981575L110.0703125,120.17556453207146L111.578125,119.7876175015725L113.0859375,119.82393987642112L114.59375,119.55204072670884L116.1015625,119.78306617091951L117.609375,120.32851018722758L119.1171875,121.24849894287235L120.625,121.00710234617802L122.1328125,121.51868575982542L123.640625,122.08469938557987L125.14843750000001,120.99695398420388L126.65625,121.56323896022202L128.1640625,121.52107996022715L129.671875,121.6677195852597L131.1796875,121.80082737640826L132.6875,122.0912153501106L134.1953125,122.56555415053462L135.703125,122.57678305654954L137.2109375,122.42827369476855L138.71875,122.28693106076304L140.2265625,122.88919863473471L141.734375,123.14191224999692L143.2421875,123.88452609700403L144.75,123.14296196570385L146.2578125,123.08428291249851L147.765625,123.36439894829991L149.2734375,122.55614479727237L150.78125,123.71768240355848L152.2890625,123.65907121852231L153.796875,124.20363527210516L155.3046875,124.46041941226582L156.81249999999997,123.97048121661695L158.3203125,123.7134775296976L159.828125,123.93608661687574L161.3359375,124.09139221745644L162.84375,123.38928599229472L164.3515625,124.15176778641377L165.859375,124.25063573412204L167.3671875,125.13621748310894L168.875,125.37151926435229L170.3828125,125.77844804416071L171.890625,126.19333037682777L173.3984375,125.73025198304505L174.90625,125.18050144065344L176.4140625,125.10396982762036L177.921875,125.15118192402291L179.4296875,125.48072242584067L180.9375,126.35222010262933L182.44531250000003,127.1503520515163L183.953125,126.18634058035698L185.4609375,125.93799356802253L186.96875,126.40993956869788L188.4765625,126.22712734382762L189.984375,126.99976519852345L191.4921875,127.23552152851934L193,127.60467940877439L194.5078125,128.31558511960955L196.015625,128.0603469294756L197.5234375,127.48824468032944L199.03125,127.87354246723243L200.5390625,128.00698015922245L202.046875,127.94050060784184L203.5546875,127.92462618510527L205.0625,127.8022360482183L206.5703125,128.48501081400775L208.078125,128.8294682740535L209.5859375,128.77457934898484L211.09375,129.0451992553796L212.6015625,129.7260864548052L214.109375,129.1735613736998L215.6171875,129.2764742354493L217.125,129.40630912254284L218.6328125,129.12502634344094L220.140625,128.61008411396753L221.6484375,127.48722645963716L223.15625,129.03345381758538L224.66406249999997,129.35025244047782L226.171875,129.34392016962263L227.6796875,129.5999222647456L229.1875,129.92865874494268L230.6953125,129.99588942606667L232.203125,129.9171796503124L233.7109375,129.71543272948355L235.21875,130.459859194883L236.7265625,130.18168284358853L238.234375,129.99343313836573L239.7421875,129.58109479567213L241.25,129.94955911000264L242.7578125,129.7424414095975L244.265625,130.48433844378104L245.7734375,131.19046199138765L247.28125,129.3822274668769L248.7890625,129.61017026235314L250.29687500000003,129.81399741561847L251.8046875,130.0413498921366L253.3125,130.13169320156356L254.8203125,130.42568493453578" fill="none"></path></g><g><path style="fill: none;" stroke="rgb(255, 112, 67)" stroke-width="2px" d="M30.15625,-25.16610342493422L31.6640625,3.0680213515431944L33.171875,14.516213166844693L34.6796875,25.62133723320872L36.1875,28.91992173366046L37.6953125,30.080507315182075L39.20312499999999,38.38596735072133L40.7109375,42.19450826218102L42.21875,44.7333556069085L43.7265625,44.80881699807804L45.234375,41.641694841627924L46.7421875,44.80163919299832L48.25,45.80057174159086L49.7578125,47.0349959230829L51.265625,47.42233301452595L52.7734375,45.97530388436846L54.28125,44.225505958726586L55.7890625,43.82440177410288L57.296875,41.565637392974736L58.8046875,40.64937233919434L60.3125,38.24753634101185L61.8203125,33.82490779576352L63.328125,33.58715580084635L64.8359375,15.46269911573117L66.34375,17.89248854867398L67.8515625,23.852715604747488L69.359375,26.802434246433023L70.8671875,33.21958016433945L72.375,26.242112845781065L73.8828125,25.01087297068912L75.390625,27.849434239564943L76.8984375,39.183832266793445L78.40624999999999,53.31195097815667L79.9140625,62.2116132047225L81.421875,70.71702844891958L82.9296875,74.96287226633947L84.4375,80.95904246998377L85.9453125,85.40318514500191L87.453125,87.51600466983376L88.9609375,88.77953163983868L90.46875,87.4393256261543L91.9765625,89.32123549692797L93.484375,90.57059798133162L94.9921875,91.9652319082481L96.5,92.84098211599114L98.0078125,94.53803250851598L99.515625,96.80294577418411L101.0234375,94.93097047654973L102.53125,97.25988178708569L104.0390625,98.15124341825458L105.546875,98.26887523539997L107.0546875,98.54920631580976L108.5625,100.45413167849954L110.0703125,99.53484010824583L111.578125,99.90211582684874L113.0859375,98.90500360254181L114.59375,97.34340896872729L116.1015625,98.2216175926694L117.609375,100.98583264492977L119.1171875,98.15130801262032L120.625,101.40251372136778L122.1328125,103.26300705177415L123.640625,104.21232201317149L125.14843750000001,104.49011652014327L126.65625,104.15161362224669L128.1640625,104.61835859576215L129.671875,104.70065045974991L131.1796875,104.89709282180571L132.6875,104.93089372330184L134.1953125,105.24119292987541L135.703125,105.26813548869171L137.2109375,105.38939634472092L138.71875,105.9934314007963L140.2265625,106.1516577819518L141.734375,106.14630225606336L143.2421875,106.01510710756295L144.75,106.80088867785796L146.2578125,106.3499635042706L147.765625,107.00075399237971L149.2734375,107.11349022687871L150.78125,107.67136481005099L152.2890625,108.42891685419399L153.796875,107.75062687567933L155.3046875,107.33247298633793L156.81249999999997,106.83815850197792L158.3203125,107.24863176993281L159.828125,106.44720267292297L161.3359375,107.15911000286668L162.84375,107.2884508965837L164.3515625,105.95731110981818L165.859375,106.89637801559032L167.3671875,107.52425424959058L168.875,107.90811418956305L170.3828125,108.36895693282334L171.890625,107.10214034572617L173.3984375,106.5958012345295L174.90625,106.28629693085044L176.4140625,107.42477516959983L177.921875,107.82100532442396L179.4296875,107.43498608031335L180.9375,108.39590939693613L182.44531250000003,107.25725504905262L183.953125,106.74860980540107L185.4609375,106.70234599879598L186.96875,106.99506248231727L188.4765625,107.74738029899986L189.984375,106.223065710975L191.4921875,105.77301037543086L193,106.71390930338198L194.5078125,106.55722918828195L196.015625,106.44309533839422L197.5234375,105.47001646011034L199.03125,106.6346350710605L200.5390625,105.97310109138805L202.046875,106.29308215020558L203.5546875,107.24194820983479L205.0625,106.95824260980349L206.5703125,107.01546894686886L208.078125,106.05751341495129L209.5859375,105.32355042022434L211.09375,106.39407216156243L212.6015625,105.69317441763505L214.109375,106.47637499671318L215.6171875,105.87614420955101L217.125,106.3083796773158L218.6328125,106.44395115643478L220.140625,107.06778184073205L221.6484375,106.8325896827757L223.15625,106.2299039057307L224.66406249999997,106.60309542736005L226.171875,106.20417433424876L227.6796875,105.90254296979566L229.1875,107.00208856272072L230.6953125,106.1693120158158L232.203125,105.81495220321302L233.7109375,105.68036896756749L235.21875,105.78941156424192L236.7265625,106.25740655104926L238.234375,107.45796738143287L239.7421875,107.2999526430411L241.25,107.62818471256429L242.7578125,107.73056115811877L244.265625,108.30777090177538L245.7734375,107.15728786545318L247.28125,105.68929038724428L248.7890625,106.01997845882046L250.29687500000003,106.80866437499581L251.8046875,102.5910296354079L253.3125,103.7817157768813L254.8203125,105.83402062196866" fill="none"></path></g></g></g></g><g opacity="0.20000000298023224"><g><g><g><path style="fill: none;" stroke="rgb(0, 119, 187)" stroke-width="2px" d="M30.15625,-194.8788456710485L31.6640625,12.637506446299625L33.171875,46.39152449928224L34.6796875,63.112286401769296L36.1875,73.83622767131489L37.6953125,81.0456013236768L39.20312499999999,86.30245462360865L40.7109375,90.84742895341837L42.21875,94.13393863204581L43.7265625,96.68490825808392L45.234375,99.12559538879074L46.7421875,102.41048254660116L48.25,103.79654745299084L49.7578125,105.6148633197523L51.265625,108.1704925972825L52.7734375,109.09348272446258L54.28125,110.77499318022568L55.7890625,111.57881771443554L57.296875,112.57520041012994L58.8046875,113.91742464097646L60.3125,115.41265910756417L61.8203125,116.7243856544105L63.328125,117.35950063713469L64.8359375,118.12564029086096L66.34375,119.18013613792853L67.8515625,119.95797587895336L69.359375,120.75865321198049L70.8671875,120.8602605206319L72.375,122.11672759593392L73.8828125,123.07682779094634L75.390625,123.41829911927478L76.8984375,113.4973792769015L78.40624999999999,117.25688231048676L79.9140625,116.44973527761893L81.421875,115.16890185326338L82.9296875,118.01634843009883L84.4375,117.694151670672L85.9453125,118.97062711826024L87.453125,115.89815973354362L88.9609375,117.1740889052789L90.46875,117.21885091173822L91.9765625,119.1074080691458L93.484375,119.12037192894005L94.9921875,115.83583536608003L96.5,117.6215540558243L98.0078125,118.19220033452774L99.515625,117.68871744894065L101.0234375,119.83604221654915L102.53125,118.54172719334468L104.0390625,120.10777368654425L105.546875,120.07404319096644L107.0546875,119.15271227477263L108.5625,120.51188736380294L110.0703125,120.68641434545414L111.578125,119.20569695582472L113.0859375,119.87842343869404L114.59375,119.14419200214056L116.1015625,120.12960433723549L117.609375,121.14667621168954L119.1171875,122.62848207633942L120.625,120.64500745113654L122.1328125,122.2860608802965L123.640625,122.93371982421154L125.14843750000001,119.3653358821399L126.65625,122.41266642424924L128.1640625,121.45784146023485L129.671875,121.8876790228085L131.1796875,122.00048906313114L132.6875,122.52679731066411L134.1953125,123.27706235117064L135.703125,122.59362641557192L137.2109375,122.20550965209708L138.71875,122.07491710975481L140.2265625,123.7925999956922L141.734375,123.52098267289023L143.2421875,124.9984468675147L144.75,122.03061576875356L146.2578125,122.99626433269049L147.765625,123.78457300200199L149.2734375,121.34376357073108L150.78125,125.45998881298763L152.2890625,123.57115444096809L153.796875,125.02048135247941L155.3046875,124.84559562250686L156.81249999999997,123.23557392314363L158.3203125,123.32797199931855L159.828125,124.27000024764297L161.3359375,124.32435061832749L162.84375,122.33612665455216L164.3515625,125.29549047759232L165.859375,124.39893765568448L167.3671875,126.4645901065893L168.875,125.7244719362173L170.3828125,126.38884121387338L171.890625,126.81565387582836L173.3984375,125.03563439237098L174.90625,124.35587562706608L176.4140625,124.98917240807071L177.921875,125.22200006862673L179.4296875,125.97503317856732L180.9375,127.65946661781234L182.44531250000003,128.34754997484674L183.953125,124.74032337361805L185.4609375,125.56547304952088L186.96875,127.11785856971088L188.4765625,125.95290900652225L189.984375,128.15872198056718L191.4921875,127.58915602351324L193,128.15841622915693L194.5078125,129.38194368586232L196.015625,127.67748964427469L197.5234375,126.63009130661018L199.03125,128.4514891475869L200.5390625,128.20713669720752L202.046875,127.8407812807709L203.5546875,127.90081455100042L205.0625,127.61865084288786L206.5703125,129.50917296269193L208.078125,129.3461544641222L209.5859375,128.69224596138184L211.09375,129.4511291149717L212.6015625,130.7474172539436L214.109375,128.34477375204173L215.6171875,129.43084352807358L217.125,129.60106145318312L218.6328125,128.70310217478814L220.140625,127.83767076975738L221.6484375,125.80293997814164L223.15625,131.35279485450772L224.66406249999997,129.82545037481648L226.171875,129.3344217633399L227.6796875,129.98392540743004L229.1875,130.4217634652383L230.6953125,130.09673544775265L232.203125,129.79911498668102L233.7109375,129.41281234824027L235.21875,131.57649889298213L236.7265625,129.76441831664684L238.234375,129.71105858053153L239.7421875,128.96258728163176L241.25,130.50225558149845L242.7578125,129.43176485898977L244.265625,131.59718399505633L245.7734375,132.2496473127976L247.28125,126.66987568011078L248.7890625,129.9520844555675L250.29687500000003,130.11973814551646L251.8046875,130.38237860691376L253.3125,130.26720816570406L254.8203125,130.86667253399412" fill="none"></path></g><g><path style="fill: none;" stroke="rgb(255, 112, 67)" stroke-width="2px" d="M30.15625,-25.16610342493422L31.6640625,20.008496217429638L33.171875,25.506477309534176L34.6796875,38.68096313525277L36.1875,33.22655365745035L37.6953125,31.68601498523583L39.20312499999999,50.26290808890302L40.7109375,47.747397473081946L42.21875,48.47766229467325L43.7265625,44.92086836939248L45.234375,36.91973717181153L46.7421875,49.524359442436946L48.25,47.29570887638974L49.7578125,48.884213829842906L51.265625,48.002883351479596L52.7734375,43.80578074618603L54.28125,41.60154952610344L55.7890625,43.22284733747634L57.296875,38.17783492130155L58.8046875,39.27505850877898L60.3125,34.64491406613243L61.8203125,27.19111050636721L63.328125,33.23053250246895L64.8359375,-11.72377121047333L66.34375,21.537155428184917L67.8515625,32.79303077121193L69.359375,31.227004661439707L70.8671875,42.845289189368486L72.375,15.77591829517712L73.8828125,23.16401383853875L75.390625,32.10727520158082L76.8984375,56.18542705247036L78.40624999999999,74.5041273585879L79.9140625,75.56110590710662L81.421875,83.4751509496799L82.9296875,81.33163788298576L84.4375,89.95329768267962L85.9453125,92.06939911627427L87.453125,90.68523394531356L88.9609375,90.67482209062348L90.46875,85.42901660831502L91.9765625,92.14410030082442L93.484375,92.44464170703522L94.9921875,94.05718279801883L96.5,94.15460742737812L98.0078125,97.08360809703859L99.515625,100.20031567247442L101.0234375,92.12300753020324L102.53125,100.75324875281122L104.0390625,99.48828586498992L105.546875,98.44532296111664L107.0546875,98.96970293642238L108.5625,103.3115197225259L110.0703125,98.15590275286769L111.578125,100.45302940475253L113.0859375,97.40933526608234L114.59375,95.00101701800641L116.1015625,99.5389305285823L117.609375,105.13215522331974L119.1171875,93.89952106415653L120.625,106.27932228448873L122.1328125,106.05374704738364L123.640625,105.6362944552675L125.14843750000001,104.90680828060096L126.65625,103.6438592754018L128.1640625,105.31847605603532L129.671875,104.82408825573154L131.1796875,105.19175636488946L132.6875,104.98159507554598L134.1953125,105.70664173973582L135.703125,105.30854932691616L137.2109375,105.57128762876472L138.71875,106.89948398490938L140.2265625,106.38899735368503L141.734375,106.13826896723074L143.2421875,105.81831438481235L144.75,107.97956103330048L146.2578125,105.67357574388959L147.765625,107.97693972454336L149.2734375,107.28259457862721L150.78125,108.50817668480941L152.2890625,109.5652449204085L153.796875,106.73319190790734L155.3046875,106.70524215232582L156.81249999999997,106.09668677543792L158.3203125,107.86434167186515L159.828125,105.24505902740819L161.3359375,108.22697099778229L162.84375,107.48246223715923L164.3515625,103.96060142966991L165.859375,108.30497837424852L167.3671875,108.46606860059099L168.875,108.48390409952172L170.3828125,109.06022104771378L171.890625,105.2019154650804L173.3984375,105.83629256773455L174.90625,105.82204047533182L176.4140625,109.13249252772388L177.921875,108.41535055666016L179.4296875,106.85595721414742L180.9375,109.83729437187029L182.44531250000003,105.54927352722736L183.953125,105.98564193992374L185.4609375,106.63295028888837L186.96875,107.43413720759922L188.4765625,108.87585702402374L189.984375,103.93659382893776L191.4921875,105.0979273721146L193,108.12525769530868L194.5078125,106.32220901563191L196.015625,106.2718945635626L197.5234375,104.01039814268455L199.03125,108.38156298748576L200.5390625,104.98080012187935L202.046875,106.77305373843187L203.5546875,108.66524729927859L205.0625,106.53268420975657L206.5703125,107.10130845246694L208.078125,104.62058011707492L209.5859375,104.22260592813389L211.09375,107.99985477356957L212.6015625,104.64182780174396L214.109375,107.65117586533037L215.6171875,104.9757980288078L217.125,106.95673287896297L218.6328125,106.64730837511328L220.140625,108.00352786717794L221.6484375,106.47980144584122L223.15625,105.32587524016317L224.66406249999997,107.16288270980407L226.171875,105.60579269458182L227.6796875,105.450095923116L229.1875,108.65140695210833L230.6953125,104.92014719545843L232.203125,105.28341248430885L233.7109375,105.47849411409922L235.21875,105.95297545925357L236.7265625,106.95939903126028L238.234375,109.25880862700825L239.7421875,107.06293053545345L241.25,108.12053281684908L242.7578125,107.8841258264505L244.265625,109.17358551726032L245.7734375,105.43156331096992L247.28125,103.48729416993089L248.7890625,106.51601056618473L250.29687500000003,107.99169324925886L251.8046875,96.26457752602605L253.3125,105.5677449890914L254.8203125,108.91247788959971" fill="none"></path></g></g></g></g></g></g><g transform="translate(58, 177)" clip-path="url(#clip_1)"><clipPath id="clip_1"><rect width="271" height="22"></rect></clipPath><g><g><line x1="0" y1="0" x2="0" y2="5" style="visibility: inherit;" fill="rgb(0, 0, 0)" stroke="rgb(204, 204, 204)" stroke-width="1px"></line><line x1="30.15625" y1="0" x2="30.15625" y2="5" style="visibility: inherit;" fill="rgb(0, 0, 0)" stroke="rgb(204, 204, 204)" stroke-width="1px"></line><line x1="60.3125" y1="0" x2="60.3125" y2="5" style="visibility: inherit;" fill="rgb(0, 0, 0)" stroke="rgb(204, 204, 204)" stroke-width="1px"></line><line x1="90.46875" y1="0" x2="90.46875" y2="5" style="visibility: inherit;" fill="rgb(0, 0, 0)" stroke="rgb(204, 204, 204)" stroke-width="1px"></line><line x1="120.625" y1="0" x2="120.625" y2="5" style="visibility: inherit;" fill="rgb(0, 0, 0)" stroke="rgb(204, 204, 204)" stroke-width="1px"></line><line x1="150.78125" y1="0" x2="150.78125" y2="5" style="visibility: inherit;" fill="rgb(0, 0, 0)" stroke="rgb(204, 204, 204)" stroke-width="1px"></line><line x1="180.9375" y1="0" x2="180.9375" y2="5" style="visibility: inherit;" fill="rgb(0, 0, 0)" stroke="rgb(204, 204, 204)" stroke-width="1px"></line><line x1="211.09375" y1="0" x2="211.09375" y2="5" style="visibility: inherit;" fill="rgb(0, 0, 0)" stroke="rgb(204, 204, 204)" stroke-width="1px"></line><line x1="241.25" y1="0" x2="241.25" y2="5" style="visibility: inherit;" fill="rgb(0, 0, 0)" stroke="rgb(204, 204, 204)" stroke-width="1px"></line><line x1="271.40625" y1="0" x2="271.40625" y2="5" style="visibility: inherit;" fill="rgb(0, 0, 0)" stroke="rgb(204, 204, 204)" stroke-width="1px"></line></g><g transform="translate(0, 8)"><text style="text-anchor: middle; visibility: hidden; font-family: &quot;Helvetica Neue&quot;, sans-serif; font-size: 12px; font-weight: 200;" x="0" y="0" dx="0em" dy="0.95em" fill="rgb(50, 49, 63)" stroke="none" stroke-width="1px">-20</text><text style="text-anchor: middle; visibility: inherit; font-family: &quot;Helvetica Neue&quot;, sans-serif; font-size: 12px; font-weight: 200;" x="30.15625" y="0" dx="0em" dy="0.95em" fill="rgb(50, 49, 63)" stroke="none" stroke-width="1px">0</text><text style="text-anchor: middle; visibility: inherit; font-family: &quot;Helvetica Neue&quot;, sans-serif; font-size: 12px; font-weight: 200;" x="60.3125" y="0" dx="0em" dy="0.95em" fill="rgb(50, 49, 63)" stroke="none" stroke-width="1px">20</text><text style="text-anchor: middle; visibility: inherit; font-family: &quot;Helvetica Neue&quot;, sans-serif; font-size: 12px; font-weight: 200;" x="90.46875" y="0" dx="0em" dy="0.95em" fill="rgb(50, 49, 63)" stroke="none" stroke-width="1px">40</text><text style="text-anchor: middle; visibility: inherit; font-family: &quot;Helvetica Neue&quot;, sans-serif; font-size: 12px; font-weight: 200;" x="120.625" y="0" dx="0em" dy="0.95em" fill="rgb(50, 49, 63)" stroke="none" stroke-width="1px">60</text><text style="text-anchor: middle; visibility: inherit; font-family: &quot;Helvetica Neue&quot;, sans-serif; font-size: 12px; font-weight: 200;" x="150.78125" y="0" dx="0em" dy="0.95em" fill="rgb(50, 49, 63)" stroke="none" stroke-width="1px">80</text><text style="text-anchor: middle; visibility: inherit; font-family: &quot;Helvetica Neue&quot;, sans-serif; font-size: 12px; font-weight: 200;" x="180.9375" y="0" dx="0em" dy="0.95em" fill="rgb(50, 49, 63)" stroke="none" stroke-width="1px">100</text><text style="text-anchor: middle; visibility: inherit; font-family: &quot;Helvetica Neue&quot;, sans-serif; font-size: 12px; font-weight: 200;" x="211.09375" y="0" dx="0em" dy="0.95em" fill="rgb(50, 49, 63)" stroke="none" stroke-width="1px">120</text><text style="text-anchor: middle; visibility: inherit; font-family: &quot;Helvetica Neue&quot;, sans-serif; font-size: 12px; font-weight: 200;" x="241.25" y="0" dx="0em" dy="0.95em" fill="rgb(50, 49, 63)" stroke="none" stroke-width="1px">140</text><text style="text-anchor: middle; visibility: hidden; font-family: &quot;Helvetica Neue&quot;, sans-serif; font-size: 12px; font-weight: 200;" x="271.40625" y="0" dx="0em" dy="0.95em" fill="rgb(50, 49, 63)" stroke="none" stroke-width="1px">160</text></g><line x1="0" y1="0" x2="271.40625" y2="0" fill="rgb(0, 0, 0)" stroke="rgb(204, 204, 204)" stroke-width="1px"></line></g></g></g></g></svg>