<svg viewBox="0 0 330 200" xmlns="http://www.w3.org/2000/svg"><g><g><g><g><g><line x1="48.875" y1="175.41680964454977" x2="43.875" y2="175.41680964454977" style="visibility: inherit;" fill="rgb(0, 0, 0)" stroke="rgb(204, 204, 204)" stroke-width="1px"></line><line x1="48.875" y1="163.62293665578974" x2="43.875" y2="163.62293665578974" style="visibility: inherit;" fill="rgb(0, 0, 0)" stroke="rgb(204, 204, 204)" stroke-width="1px"></line><line x1="48.875" y1="153.4066191773936" x2="43.875" y2="153.4066191773936" style="visibility: inherit;" fill="rgb(0, 0, 0)" stroke="rgb(204, 204, 204)" stroke-width="1px"></line><line x1="48.875" y1="144.39518851540348" x2="43.875" y2="144.39518851540348" style="visibility: inherit;" fill="rgb(0, 0, 0)" stroke="rgb(204, 204, 204)" stroke-width="1px"></line><line x1="48.875" y1="136.33418910177042" x2="43.875" y2="136.33418910177042" style="visibility: inherit;" fill="rgb(0, 0, 0)" stroke="rgb(204, 204, 204)" stroke-width="1px"></line><line x1="48.875" y1="83.30237750546793" x2="43.875" y2="83.30237750546793" style="visibility: inherit;" fill="rgb(0, 0, 0)" stroke="rgb(204, 204, 204)" stroke-width="1px"></line><line x1="48.875" y1="52.280756376321634" x2="43.875" y2="52.280756376321634" style="visibility: inherit;" fill="rgb(0, 0, 0)" stroke="rgb(204, 204, 204)" stroke-width="1px"></line><line x1="48.875" y1="30.270565909165498" x2="43.875" y2="30.270565909165498" style="visibility: inherit;" fill="rgb(0, 0, 0)" stroke="rgb(204, 204, 204)" stroke-width="1px"></line><line x1="48.875" y1="13.198135833542295" x2="43.875" y2="13.198135833542295" style="visibility: inherit;" fill="rgb(0, 0, 0)" stroke="rgb(204, 204, 204)" stroke-width="1px"></line></g><g transform="translate(38.875, 0)"><text style="text-anchor: end; visibility: hidden; font-family: &quot;Helvetica Neue&quot;, sans-serif; font-size: 12px; font-weight: 200;" x="0" y="175.41680964454977" dx="0em" dy="0.3em" fill="rgb(50, 49, 63)" stroke="none" stroke-width="1px">0.06</text><text style="text-anchor: end; visibility: inherit; font-family: &quot;Helvetica Neue&quot;, sans-serif; font-size: 12px; font-weight: 200;" x="0" y="163.62293665578974" dx="0em" dy="0.3em" fill="rgb(50, 49, 63)" stroke="none" stroke-width="1px">0.07</text><text style="text-anchor: end; visibility: hidden; font-family: &quot;Helvetica Neue&quot;, sans-serif; font-size: 12px; font-weight: 200;" x="0" y="153.4066191773936" dx="0em" dy="0.3em" fill="rgb(50, 49, 63)" stroke="none" stroke-width="1px">0.08</text><text style="text-anchor: end; visibility: hidden; font-family: &quot;Helvetica Neue&quot;, sans-serif; font-size: 12px; font-weight: 200;" x="0" y="144.39518851540348" dx="0em" dy="0.3em" fill="rgb(50, 49, 63)" stroke="none" stroke-width="1px">0.09</text><text style="text-anchor: end; visibility: inherit; font-family: &quot;Helvetica Neue&quot;, sans-serif; font-size: 12px; font-weight: 200;" x="0" y="136.33418910177042" dx="0em" dy="0.3em" fill="rgb(50, 49, 63)" stroke="none" stroke-width="1px">0.1</text><text style="text-anchor: end; visibility: hidden; font-family: &quot;Helvetica Neue&quot;, sans-serif; font-size: 12px; font-weight: 200;" x="0" y="83.30237750546793" dx="0em" dy="0.3em" fill="rgb(50, 49, 63)" stroke="none" stroke-width="1px">0.2</text><text style="text-anchor: end; visibility: hidden; font-family: &quot;Helvetica Neue&quot;, sans-serif; font-size: 12px; font-weight: 200;" x="0" y="52.280756376321634" dx="0em" dy="0.3em" fill="rgb(50, 49, 63)" stroke="none" stroke-width="1px">0.3</text><text style="text-anchor: end; visibility: inherit; font-family: &quot;Helvetica Neue&quot;, sans-serif; font-size: 12px; font-weight: 200;" x="0" y="30.270565909165498" dx="0em" dy="0.3em" fill="rgb(50, 49, 63)" stroke="none" stroke-width="1px">0.4</text><text style="text-anchor: end; visibility: hidden; font-family: &quot;Helvetica Neue&quot;, sans-serif; font-size: 12px; font-weight: 200;" x="0" y="13.198135833542295" dx="0em" dy="0.3em" fill="rgb(50, 49, 63)" stroke="none" stroke-width="1px">0.5</text></g><line x1="48.875" y1="0" x2="48.875" y2="177.828125" fill="rgb(0, 0, 0)" stroke="rgb(204, 204, 204)" stroke-width="1px"></line></g></g><g transform="translate(48, 0)" clip-path="url(#clip_0)"><clipPath id="clip_0"><rect width="281" height="177"></rect></clipPath><g><g><g><line x1="0" y1="0" x2="0" y2="177.828125" fill="rgb(0, 0, 0)" stroke="rgb(60, 60, 60)" stroke-width="1px" opacity="0.25"></line><line x1="31.23611111111111" y1="0" x2="31.23611111111111" y2="177.828125" fill="rgb(0, 0, 0)" stroke="rgb(60, 60, 60)" stroke-width="1px" opacity="0.25"></line><line x1="62.47222222222222" y1="0" x2="62.47222222222222" y2="177.828125" fill="rgb(0, 0, 0)" stroke="rgb(60, 60, 60)" stroke-width="1px" opacity="0.25"></line><line x1="93.70833333333333" y1="0" x2="93.70833333333333" y2="177.828125" fill="rgb(0, 0, 0)" stroke="rgb(60, 60, 60)" stroke-width="1px" opacity="0.25"></line><line x1="124.94444444444444" y1="0" x2="124.94444444444444" y2="177.828125" fill="rgb(0, 0, 0)" stroke="rgb(60, 60, 60)" stroke-width="1px" opacity="0.25"></line><line x1="156.18055555555557" y1="0" x2="156.18055555555557" y2="177.828125" fill="rgb(0, 0, 0)" stroke="rgb(60, 60, 60)" stroke-width="1px" opacity="0.25"></line><line x1="187.41666666666666" y1="0" x2="187.41666666666666" y2="177.828125" fill="rgb(0, 0, 0)" stroke="rgb(60, 60, 60)" stroke-width="1px" opacity="0.25"></line><line x1="218.65277777777777" y1="0" x2="218.65277777777777" y2="177.828125" fill="rgb(0, 0, 0)" stroke="rgb(60, 60, 60)" stroke-width="1px" opacity="0.25"></line><line x1="249.88888888888889" y1="0" x2="249.88888888888889" y2="177.828125" fill="rgb(0, 0, 0)" stroke="rgb(60, 60, 60)" stroke-width="1px" opacity="0.25"></line><line x1="281.125" y1="0" x2="281.125" y2="177.828125" fill="rgb(0, 0, 0)" stroke="rgb(60, 60, 60)" stroke-width="1px" opacity="0.25"></line></g><g><line x1="0" y1="175.41680964454977" x2="281.125" y2="175.41680964454977" fill="rgb(0, 0, 0)" stroke="rgb(60, 60, 60)" stroke-width="1px" opacity="0.25"></line><line x1="0" y1="163.62293665578974" x2="281.125" y2="163.62293665578974" fill="rgb(0, 0, 0)" stroke="rgb(60, 60, 60)" stroke-width="1px" opacity="0.25"></line><line x1="0" y1="153.4066191773936" x2="281.125" y2="153.4066191773936" fill="rgb(0, 0, 0)" stroke="rgb(60, 60, 60)" stroke-width="1px" opacity="0.25"></line><line x1="0" y1="144.39518851540348" x2="281.125" y2="144.39518851540348" fill="rgb(0, 0, 0)" stroke="rgb(60, 60, 60)" stroke-width="1px" opacity="0.25"></line><line x1="0" y1="136.33418910177042" x2="281.125" y2="136.33418910177042" fill="rgb(0, 0, 0)" stroke="rgb(60, 60, 60)" stroke-width="1px" opacity="0.25"></line><line x1="0" y1="83.30237750546793" x2="281.125" y2="83.30237750546793" fill="rgb(0, 0, 0)" stroke="rgb(60, 60, 60)" stroke-width="1px" opacity="0.25"></line><line x1="0" y1="52.280756376321634" x2="281.125" y2="52.280756376321634" fill="rgb(0, 0, 0)" stroke="rgb(60, 60, 60)" stroke-width="1px" opacity="0.25"></line><line x1="0" y1="30.270565909165498" x2="281.125" y2="30.270565909165498" fill="rgb(0, 0, 0)" stroke="rgb(60, 60, 60)" stroke-width="1px" opacity="0.25"></line><line x1="0" y1="13.198135833542295" x2="281.125" y2="13.198135833542295" fill="rgb(0, 0, 0)" stroke="rgb(60, 60, 60)" stroke-width="1px" opacity="0.25"></line></g></g></g><g><g><line x1="31.23611111111111" y1="0" x2="31.23611111111111" y2="177.828125" fill="rgb(0, 0, 0)" stroke="rgb(153, 153, 153)" stroke-width="1.5px"></line></g></g><g><g><g><g><g><path style="fill: none;" stroke="rgb(51, 187, 238)" stroke-width="2px" d="M34.359722222222224,-6.262757022221791L35.921527777777776,10.778706337302339L37.483333333333334,24.40583742231027L39.04513888888889,35.715407680395174L40.60694444444444,44.80213919188128L42.168749999999996,52.429222807419094L43.730555555555554,59.21308859916144L45.29236111111111,64.73682295165024L46.854166666666664,69.26381517935828L48.41597222222222,73.53890487066131L49.97777777777778,77.30491678102523L51.53958333333333,80.96392600157404L53.101388888888884,84.2754770402502L54.66319444444444,86.63068945849342L56.225,89.84710089498755L57.78680555555555,92.1549033999377L59.34861111111111,94.59128403082374L60.91041666666667,96.58804430873762L62.47222222222222,98.82520599236588L64.03402777777778,100.88099496922844L65.59583333333333,102.86850938654852L67.1576388888889,104.78338801658693L68.71944444444445,106.12336647871498L70.28125,107.69672822668925L71.84305555555555,108.94108073077075L73.40486111111112,111.00235024756745L74.96666666666667,112.86078443554263L76.52847222222222,114.49651201372123L78.09027777777779,115.89787173252073L79.65208333333334,106.95068050088639L81.21388888888887,103.64269308920395L82.77569444444444,103.45357885195685L84.33749999999999,106.65167105145412L85.89930555555556,108.98269710567651L87.46111111111111,105.41526722477025L89.02291666666666,106.77126448510631L90.58472222222223,107.67743516005642L92.14652777777778,107.63726355533157L93.70833333333333,109.26384579717326L95.2701388888889,109.35018378784493L96.83194444444445,110.01158594472962L98.39375,110.93751790159683L99.95555555555556,109.55879221924424L101.51736111111111,109.76782595665834L103.07916666666667,110.81878957412805L104.64097222222223,110.31378796503807L106.20277777777777,109.8118019399069L107.76458333333333,109.74801451187837L109.32638888888889,108.16589828888587L110.88819444444444,111.4259886758974L112.45,113.68394536131946L114.01180555555555,113.89974881577754L115.5736111111111,114.70757542708002L117.13541666666667,114.59509621083326L118.69722222222222,114.65435885412137L120.25902777777777,115.01903346611365L121.82083333333334,112.90214314868103L123.38263888888889,113.9222578220274L124.94444444444444,114.4608320400669L126.50625000000001,115.55047955775109L128.06805555555556,116.68081023278765L129.62986111111113,118.0194465389587L131.19166666666666,118.90584450460092L132.75347222222223,119.37674465669473L134.3152777777778,116.43220409352534L135.87708333333333,117.32897903337658L137.4388888888889,119.12576366666873L139.00069444444446,119.59389532911774L140.5625,120.20027614166801L142.12430555555554,120.8785946574348L143.6861111111111,121.94278790523228L145.24791666666667,122.91747501785358L146.80972222222223,123.18664634997494L148.37152777777777,123.88795686637025L149.93333333333334,124.04129339658749L151.49513888888887,121.79066845155477L153.05694444444444,123.08380771987815L154.61875,124.42668942037525L156.18055555555557,124.85427132669548L157.7423611111111,125.8356350240928L159.30416666666667,125.214277757073L160.8659722222222,125.80751011125554L162.42777777777775,125.51152980543662L163.98958333333334,126.88410119167037L165.55138888888888,125.37298993644433L167.11319444444445,126.91411716002685L168.67499999999998,127.38666901866915L170.23680555555555,128.10442759800088L171.79861111111111,130.13890599396433L173.36041666666668,130.92014019341468L174.92222222222222,131.5321146932663L176.48402777777778,131.23619936618763L178.04583333333332,132.4366671984712L179.60763888888889,132.10588616936272L181.16944444444445,131.49346406387346L182.73125000000002,133.5629067680306L184.29305555555555,134.7594337519164L185.85486111111112,133.0625289103077L187.41666666666666,133.1537105132111L188.97847222222225,135.56685352417162L190.5402777777778,135.33542754299526L192.10208333333333,137.60517729980444L193.6638888888889,138.47712721453001L195.22569444444443,138.32864756575196L196.7875,138.04595439037882L198.34930555555556,137.49486428803758L199.91111111111113,139.42428745312617L201.47291666666666,139.5147599170175L203.03472222222223,140.91379371491712L204.59652777777777,137.73985556522362L206.15833333333333,138.7155953959446L207.7201388888889,140.28379664197655L209.28194444444446,139.63550905715832L210.84375,141.10044201553248L212.40555555555554,141.75337810736445L213.9673611111111,143.72717070976398L215.52916666666667,142.8501246130656L217.09097222222223,143.1527197331376L218.65277777777777,145.29501349835294L220.21458333333334,146.84221084328257L221.77638888888887,144.73358570452922L223.33819444444444,145.8719344241726L224.9,145.11219653597357L226.46180555555557,148.13228561593684L228.0236111111111,148.1160345246495L229.58541666666667,146.31905673461728L231.1472222222222,144.80320865354156L232.70902777777775,144.17523055204106L234.27083333333334,145.17567572920834L235.83263888888888,147.4597560558139L237.39444444444445,148.09816722906834L238.95624999999998,149.51400082427133L240.51805555555555,147.34696228697203L242.07986111111111,149.06087147736716L243.64166666666668,149.85572648455715L245.20347222222222,150.50931041445418L246.76527777777778,140.7535972671398L248.32708333333332,145.67238729656913L249.88888888888889,152.12773240592963L251.45069444444445,151.37124072408025L253.01250000000002,152.66551611955717L254.57430555555555,150.18088912235464L256.1361111111111,152.34193173190363L257.69791666666663,152.85649855882326L259.25972222222225,151.7309082667521L260.82152777777776,152.42410714285714L262.3833333333333,152.69962532960184L263.9451388888889,152.13022951854998" fill="none"></path></g><g><path style="fill: none;" stroke="rgb(204, 51, 17)" stroke-width="2px" d="M32.797916666666666,-0.38910847547691674L34.359722222222224,11.622355588286553L35.921527777777776,18.488730927254863L37.483333333333334,18.708602630256422L39.04513888888889,23.559566530039774L40.60694444444444,27.90137818667364L42.168749999999996,31.544184312949284L43.730555555555554,33.84040692089485L45.29236111111111,34.548316443812666L46.854166666666664,35.58893509431044L48.41597222222222,35.91976865301734L49.97777777777778,36.82864188318729L51.53958333333333,37.31057041529837L53.101388888888884,38.27474556983316L54.66319444444444,37.88416360300323L56.225,38.54153451098537L57.78680555555555,36.04872213272549L59.34861111111111,33.48761801881247L60.91041666666667,34.25161387883486L62.47222222222222,34.958451903701246L64.03402777777778,35.12207797683223L65.59583333333333,30.3105854448049L67.1576388888889,32.62537822372121L68.71944444444445,32.315552324551305L70.28125,27.414655313326904L71.84305555555555,29.750812168977177L73.40486111111112,30.39908735272138L74.96666666666667,32.751099714722756L76.52847222222222,31.394600800619912L78.09027777777779,25.40401785714286L79.65208333333334,31.6633097949331L81.21388888888887,39.25277868470525L82.77569444444444,44.19194935533247L84.33749999999999,47.307607082530126L85.89930555555556,53.34094179884093L87.46111111111111,54.96165705203923L89.02291666666666,58.20541598417542L90.58472222222223,61.41767631604412L92.14652777777778,60.60450705305581L93.70833333333333,63.07329307671233L95.2701388888889,64.07186796059162L96.83194444444445,64.26903020488201L98.39375,66.15795761336474L99.95555555555556,68.34488844074714L101.51736111111111,69.4207567330099L103.07916666666667,68.81280204249843L104.64097222222223,68.99570482643561L106.20277777777777,70.96741289965777L107.76458333333333,72.37025681685442L109.32638888888889,74.41341086608895L110.88819444444444,75.28025155708033L112.45,75.86871594945791L114.01180555555555,73.80195436562956L115.5736111111111,74.36864282577487L117.13541666666667,75.40004169995531L118.69722222222222,76.32254576203998L120.25902777777777,77.62177601433875L121.82083333333334,78.35056343058173L123.38263888888889,77.49278132622142L124.94444444444444,77.4902693676L126.50625000000001,77.70543662770872L128.06805555555556,78.08825618431801L129.62986111111113,78.07320913248192L131.19166666666666,80.39737758788273L132.75347222222223,77.80845840598768L134.3152777777778,78.69198817597962L135.87708333333333,77.4232644056044L137.4388888888889,78.53100093792187L139.00069444444446,78.01963732525543L140.5625,80.02538845686357L142.12430555555554,81.60186365887192L143.6861111111111,81.02542794254393L145.24791666666667,81.68777910585439L146.80972222222223,82.09032522095904L148.37152777777777,80.26058067972212L149.93333333333334,81.54041600856866L151.49513888888887,80.04910627940694L153.05694444444444,78.67398207361964L154.61875,80.72888383047561L156.18055555555557,81.38838280965228L157.7423611111111,82.78086215036349L159.30416666666667,82.83098098690104L160.8659722222222,81.84188163064051L162.42777777777775,82.0361558075992L163.98958333333334,81.75699915228967L165.55138888888888,82.25405765596331L167.11319444444445,82.23980445490709L168.67499999999998,83.3853341397746L170.23680555555555,83.30391967591532L171.79861111111111,81.98812125228851L173.36041666666668,82.68325612987847L174.92222222222222,82.76203684528828L176.48402777777778,82.46379551605582L178.04583333333332,83.74825764002176L179.60763888888889,82.27512393730085L181.16944444444445,83.99254457372393L182.73125000000002,83.08364003076692L184.29305555555555,84.32646482588358L185.85486111111112,84.10027074743023L187.41666666666666,83.40315524628897L188.97847222222225,84.82897202909528L190.5402777777778,83.9345916822002L192.10208333333333,83.80383357823457L193.6638888888889,83.99358234472916L195.22569444444443,84.22142791467016L196.7875,82.16353436917689L198.34930555555556,82.2441818735045L199.91111111111113,82.44850469186025L201.47291666666666,81.62323630569603L203.03472222222223,81.10251686042923L204.59652777777777,80.96647401657992L206.15833333333333,81.74457093510772L207.7201388888889,83.25078570861842L209.28194444444446,83.4603128446442L210.84375,82.49327580335073L212.40555555555554,82.92518991404444L213.9673611111111,82.03108397112801L215.52916666666667,79.7075265493175L217.09097222222223,80.50931557025588L218.65277777777777,82.13202494350823L220.21458333333334,82.33101633867409L221.77638888888887,82.52023719145764L223.33819444444444,82.68950989299474L224.9,82.720187353348L226.46180555555557,82.73875138340473L228.0236111111111,81.37209278032584L229.58541666666667,81.12060679471668L231.1472222222222,79.07928602262703L232.70902777777775,79.71089409293305L234.27083333333334,81.10075959500787L235.83263888888888,80.92112606469274L237.39444444444445,81.76737070330066L238.95624999999998,81.67693174996495L240.51805555555555,80.85335238784867L242.07986111111111,81.27204138180073L243.64166666666668,80.35991327316879L245.20347222222222,79.29046329256784L246.76527777777778,78.77188836694762L248.32708333333332,79.50279499370342L249.88888888888889,79.98933651041303L251.45069444444445,80.26045640017118L253.01250000000002,79.45373126119225L254.57430555555555,79.25150524090847L256.1361111111111,79.65198479674721L257.69791666666663,79.54221130907376L259.25972222222225,80.77987903365788L260.82152777777776,81.05587249833445L262.3833333333333,80.10227749751591L263.9451388888889,80.00008920049885" fill="none"></path></g><g><path style="fill: none;" stroke="rgb(0, 119, 187)" stroke-width="2px" d="M35.921527777777776,-7.448314197802915L37.483333333333334,9.770836282903275L39.04513888888889,23.753126575244835L40.60694444444444,35.332658720654536L42.168749999999996,45.16482047879458L43.730555555555554,53.48183124811665L45.29236111111111,60.42825268245288L46.854166666666664,66.5071135618802L48.41597222222222,72.01015519714669L49.97777777777778,76.35077988203204L51.53958333333333,80.90750200747827L53.101388888888884,85.07777941257389L54.66319444444444,88.49422411298475L56.225,92.04504578273404L57.78680555555555,95.35813436593608L59.34861111111111,98.99183718438354L60.91041666666667,101.67633204723478L62.47222222222222,103.98933640275632L64.03402777777778,106.55762437237576L65.59583333333333,109.0736905299967L67.1576388888889,111.175162466041L68.71944444444445,112.83386783541442L70.28125,115.08869993801028L71.84305555555555,117.89028516013096L73.40486111111112,119.16559482878489L74.96666666666667,120.79494206076299L76.52847222222222,122.58029816355328L78.09027777777779,124.08340816328248L79.65208333333334,122.5150916147062L81.21388888888887,121.09799528202188L82.77569444444444,116.70325425103607L84.33749999999999,113.53876215651422L85.89930555555556,114.80477539179313L87.46111111111111,116.15178009246218L89.02291666666666,112.39005938140153L90.58472222222223,112.50400021097988L92.14652777777778,113.72282017414987L93.70833333333333,113.39146210138723L95.2701388888889,114.8678535927778L96.83194444444445,118.03713762591119L98.39375,114.10650247767798L99.95555555555556,111.29822661504001L101.51736111111111,115.62115140844006L103.07916666666667,115.18735516667283L104.64097222222223,115.66810915390403L106.20277777777777,116.4703662605647L107.76458333333333,120.5745205113318L109.32638888888889,122.056752089349L110.88819444444444,120.39213695769892L112.45,118.46595800195482L114.01180555555555,118.65494288471233L115.5736111111111,121.5385756081345L117.13541666666667,121.5815070246867L118.69722222222222,123.11491840537249L120.25902777777777,124.11304070814876L121.82083333333334,125.89574006527937L123.38263888888889,126.50965812701673L124.94444444444444,126.43123398381506L126.50625000000001,126.87063837455678L128.06805555555556,126.2091533433744L129.62986111111113,121.98758955114906L131.19166666666666,123.95451752322832L132.75347222222223,126.5438966871694L134.3152777777778,125.29491696361549L135.87708333333333,127.10347767083636L137.4388888888889,128.35705625633605L139.00069444444446,127.49352779262554L140.5625,127.09747977020633L142.12430555555554,128.11179637054053L143.6861111111111,129.29367535473534L145.24791666666667,131.0597869888769L146.80972222222223,132.4584338426255L148.37152777777777,131.24155402811652L149.93333333333334,132.44590536776377L151.49513888888887,131.0093287090492L153.05694444444444,130.17888728723432L154.61875,127.68238957115105L156.18055555555557,130.14001906492788L157.7423611111111,131.5269718718925L159.30416666666667,132.17102225751236L160.8659722222222,132.783245303156L162.42777777777775,132.5340262313724L163.98958333333334,134.67802510779921L165.55138888888888,134.48751159359125L167.11319444444445,136.19671422943946L168.67499999999998,136.6522808111386L170.23680555555555,135.73396019257692L171.79861111111111,136.44204308419006L173.36041666666668,136.14220933425565L174.92222222222222,137.46162329174894L176.48402777777778,138.25302810634798L178.04583333333332,139.42186489661643L179.60763888888889,140.72612138443122L181.16944444444445,140.9313378440106L182.73125000000002,142.2646739036168L184.29305555555555,138.0956406039206L185.85486111111112,139.78309544309263L187.41666666666666,139.77896791995758L188.97847222222225,140.20389499440142L190.5402777777778,141.8674003753383L192.10208333333333,145.45246313767188L193.6638888888889,144.69401433337083L195.22569444444443,145.74731819953274L196.7875,147.2427479006623L198.34930555555556,148.60071349179663L199.91111111111113,149.05546910626813L201.47291666666666,149.50979783002742L203.03472222222223,150.36728192172035L204.59652777777777,149.78658482906974L206.15833333333333,148.99752143349502L207.7201388888889,150.52989863020392L209.28194444444446,142.52037545898753L210.84375,145.1177168063276L212.40555555555554,148.520164005498L213.9673611111111,151.73931304222495L215.52916666666667,154.8279279279301L217.09097222222223,155.47852269756368L218.65277777777777,155.0731008374106L220.21458333333334,150.64050830141375L221.77638888888887,150.9741284204937L223.33819444444444,149.2283327727481L224.9,151.50956555375265L226.46180555555557,153.6215914518874L228.0236111111111,154.78547737990678L229.58541666666667,157.52711106112983L231.1472222222222,155.62411362775018L232.70902777777775,155.68370113350045L234.27083333333334,158.833280313435L235.83263888888888,157.73368728010527L237.39444444444445,157.42181205412487L238.95624999999998,155.11853308298774L240.51805555555555,155.29122676311837L242.07986111111111,156.3370688667343L243.64166666666668,158.82323315717102L245.20347222222222,159.40081121143047L246.76527777777778,159.09033939830152L248.32708333333332,152.7415711199827L249.88888888888889,152.0406770205154L251.45069444444445,155.88751130722275L253.01250000000002,159.1981775542332L254.57430555555555,162.4949369128458L256.1361111111111,165.14865270759597L257.69791666666663,164.79031038010407L259.25972222222225,164.02818306577143L260.82152777777776,161.8071340427859L262.3833333333333,163.64283056239339L263.9451388888889,164.23619425536646" fill="none"></path></g><g><path style="fill: none;" stroke="rgb(255, 112, 67)" stroke-width="2px" d="M34.359722222222224,-6.111830711370914L35.921527777777776,3.269179691090045L37.483333333333334,1.2778298637144303L39.04513888888889,8.867166510250684L40.60694444444444,12.561614996101952L42.168749999999996,18.756793218108783L43.730555555555554,22.302742289970098L45.29236111111111,24.923389910713325L46.854166666666664,19.360820114498807L48.41597222222222,21.10935582251267L49.97777777777778,24.50256565485708L51.53958333333333,26.44162859917887L53.101388888888884,30.526062170514564L54.66319444444444,33.29257023436594L56.225,33.27510704931592L57.78680555555555,33.499027646268416L59.34861111111111,32.07005905753033L60.91041666666667,34.441245803443906L62.47222222222222,30.64418419810795L64.03402777777778,32.41606091253519L65.59583333333333,26.952443744261586L67.1576388888889,27.94352209175989L68.71944444444445,29.50893044007583L70.28125,31.89886940134943L71.84305555555555,28.46182365414205L73.40486111111112,29.692445682495332L74.96666666666667,28.387103761009968L76.52847222222222,31.70276342251387L78.09027777777779,33.62609812500261L79.65208333333334,36.13037657831117L81.21388888888887,39.76659401255321L82.77569444444444,37.546927599137575L84.33749999999999,42.69630821268859L85.89930555555556,47.57099855990077L87.46111111111111,39.60699481685177L89.02291666666666,47.59643277215025L90.58472222222223,49.64549554405568L92.14652777777778,53.66184121168976L93.70833333333333,58.324042728972685L95.2701388888889,60.78652165762166L96.83194444444445,64.54423762661794L98.39375,62.43039651788709L99.95555555555556,63.77267125115732L101.51736111111111,65.43807348005302L103.07916666666667,65.33106676949437L104.64097222222223,66.43360065533702L106.20277777777777,66.43134792342883L107.76458333333333,68.71909934321437L109.32638888888889,69.92413643637187L110.88819444444444,68.86126472441649L112.45,69.4656334960311L114.01180555555555,71.30854841713462L115.5736111111111,72.55683001858654L117.13541666666667,71.52111327914722L118.69722222222222,70.9653372953564L120.25902777777777,70.99696231993373L121.82083333333334,73.23839696030045L123.38263888888889,73.1979067711508L124.94444444444444,75.63787338866905L126.50625000000001,77.6772856315554L128.06805555555556,65.33405327217811L129.62986111111113,69.85571893568799L131.19166666666666,73.82545400293363L132.75347222222223,76.7769764414232L134.3152777777778,78.89768421768589L135.87708333333333,77.20820142321197L137.4388888888889,78.1201595620599L139.00069444444446,75.59000929658654L140.5625,76.20136045299776L142.12430555555554,76.05619409953226L143.6861111111111,78.51551909134254L145.24791666666667,77.53956782102776L146.80972222222223,79.50921521858352L148.37152777777777,79.90429327307743L149.93333333333334,77.5295407122709L151.49513888888887,77.87269936482046L153.05694444444444,76.78917457225754L154.61875,79.29262593192908L156.18055555555557,79.2353296881216L157.7423611111111,79.13154548042479L159.30416666666667,80.08752667394235L160.8659722222222,78.6270796949281L162.42777777777775,79.77926020566098L163.98958333333334,80.76230075027448L165.55138888888888,79.40610223492895L167.11319444444445,79.78591565593398L168.67499999999998,79.40200241854443L170.23680555555555,79.88483627358244L171.79861111111111,78.99615769359612L173.36041666666668,81.13441098526349L174.92222222222222,82.43965886126287L176.48402777777778,82.2109935140499L178.04583333333332,82.2842434679133L179.60763888888889,81.41382045498811L181.16944444444445,81.95288542989421L182.73125000000002,81.54628445203686L184.29305555555555,80.72188345954086L185.85486111111112,80.65999343316538L187.41666666666666,80.55560812479665L188.97847222222225,77.48735788188205L190.5402777777778,77.24589988860234L192.10208333333333,78.06797228256774L193.6638888888889,77.98887887980659L195.22569444444443,78.47568180988519L196.7875,78.2460091243424L198.34930555555556,77.86505318219139L199.91111111111113,79.0700941669576L201.47291666666666,78.97612737754169L203.03472222222223,79.06741960795047L204.59652777777777,77.64681084259627L206.15833333333333,78.8806763594185L207.7201388888889,78.90037046499725L209.28194444444446,77.14526413990541L210.84375,76.5645875309617L212.40555555555554,76.08879039861701L213.9673611111111,78.63303306025298L215.52916666666667,78.0854821016233L217.09097222222223,79.29150287062967L218.65277777777777,78.8573609843051L220.21458333333334,77.67962392477317L221.77638888888887,76.72794194911569L223.33819444444444,77.60377210766916L224.9,76.78969944251061L226.46180555555557,76.49531460274197L228.0236111111111,74.81969548833864L229.58541666666667,77.14876642425271L231.1472222222222,78.04825263752345L232.70902777777775,78.12919088942981L234.27083333333334,76.86679332526268L235.83263888888888,78.9301578286405L237.39444444444445,79.2804634190399L238.95624999999998,78.4059492959113L240.51805555555555,79.07374884525439L242.07986111111111,77.10435004394513L243.64166666666668,77.63907335040003L245.20347222222222,76.11575838179323L246.76527777777778,75.9553100637102L248.32708333333332,74.42713889626933L249.88888888888889,75.9869845748468L251.45069444444445,76.22589290132012L253.01250000000002,77.05184359976579L254.57430555555555,76.83717445368245L256.1361111111111,76.3539567299358L257.69791666666663,72.50613294952028L259.25972222222225,75.58504144573611L260.82152777777776,75.20090827083087L262.3833333333333,76.5779725934966L263.9451388888889,76.5572687773425" fill="none"></path></g></g></g></g><g opacity="0.20000000298023224"><g><g><g><path style="fill: none;" stroke="rgb(51, 187, 238)" stroke-width="2px" d="M31.23611111111111,-64.24079267657984L32.797916666666666,4.122555818134799L34.359722222222224,24.597593537176778L35.921527777777776,37.350022080122585L37.483333333333334,46.88044767337837L39.04513888888889,54.76177104074638L40.60694444444444,60.016739050786356L42.168749999999996,65.11932983051675L43.730555555555554,70.46293184231429L45.29236111111111,73.75328586708534L46.854166666666664,76.55342039916775L48.41597222222222,80.40963150426064L49.97777777777778,83.31247804292533L51.53958333333333,86.79513499880929L53.101388888888884,89.52386379651598L54.66319444444444,90.30352393918538L56.225,94.93891546543699L57.78680555555555,95.75200036621841L59.34861111111111,98.39741173495172L60.91041666666667,99.68423890513597L62.47222222222222,102.30847040264584L64.03402777777778,104.07204370557402L65.59583333333333,105.9500340250762L67.1576388888889,107.7486569002711L68.71944444444445,108.17838241854699L70.28125,110.1191454860385L71.84305555555555,110.84639624169228L73.40486111111112,114.20227231311932L74.96666666666667,115.73591866376526L76.52847222222222,117.01760340924653L78.09027777777779,118.04924581364698L79.65208333333334,95.23029155233236L81.21388888888887,98.93434680395909L82.77569444444444,103.17078110475107L84.33749999999999,111.71434956002815L85.89930555555556,112.61806316967741L87.46111111111111,100.35785976834262L89.02291666666666,108.85141547278894L90.58472222222223,109.05713840910843L92.14652777777778,107.57704566908667L93.70833333333333,111.77045642948372L95.2701388888889,109.4798737303939L96.83194444444445,111.01453499963455L98.39375,112.3477721048728L99.95555555555556,107.53619818571619L101.51736111111111,110.08245131558131L103.07916666666667,112.42280958365063L104.64097222222223,109.56248101418558L106.20277777777777,109.06494491266608L107.76458333333333,109.65243297411618L109.32638888888889,105.85242565252048L110.88819444444444,116.59238005481136L112.45,117.20096620211503L114.01180555555555,114.22459962667571L115.5736111111111,115.9355369210785L117.13541666666667,114.42668683221999L118.69722222222222,114.74333897814627L120.25902777777777,115.56932537013171L121.82083333333334,109.83273541909612L123.38263888888889,115.478395106164L124.94444444444444,115.27586934043356L126.50625000000001,117.21461315865797L128.06805555555556,118.40824804669091L129.62986111111113,120.07236781457925L131.19166666666666,120.25499923975227L132.75347222222223,120.08857424287075L134.3152777777778,112.2175545915363L135.87708333333333,118.69416352203625L137.4388888888889,121.90262607540424L139.00069444444446,120.30150767849392L140.5625,121.11895487843239L142.12430555555554,121.90748355400493L143.6861111111111,123.56735762024249L145.24791666666667,124.40319073059064L146.80972222222223,123.59218733186452L148.37152777777777,124.95212540786292L149.93333333333334,124.2718759472113L151.49513888888887,118.53419893875734L153.05694444444444,125.06544455027338L154.61875,126.48626790342934L156.18055555555557,125.5001583745734L157.7423611111111,127.33169406188918L159.30416666666667,124.29160239031718L160.8659722222222,126.70607345424008L162.42777777777775,125.06969525538761L163.98958333333334,128.99026263373347L165.55138888888888,123.16085153061667L167.11319444444445,129.28562495464644L168.67499999999998,128.10101483076136L170.23680555555555,129.1938510568197L171.79861111111111,133.29580365299955L173.36041666666668,132.10715552051556L174.92222222222222,132.45935368045352L176.48402777777778,130.79446134893104L178.04583333333332,134.27344288811832L179.60763888888889,131.61238072651176L181.16944444444445,130.58392556277002L182.73125000000002,136.77596650611747L184.29305555555555,136.59005918875084L185.85486111111112,130.58571808720717L187.41666666666666,133.29068699523617L188.97847222222225,139.3355728000786L190.5402777777778,134.98959584689163L192.10208333333333,141.14127851611067L193.6638888888889,139.80397264177842L195.22569444444443,138.10646698504155L196.7875,137.6238635188021L198.34930555555556,136.67560118741426L199.91111111111113,142.4128397061329L201.47291666666666,139.6506695260682L203.03472222222223,143.06151371095484L204.59652777777777,133.2129548031627L206.15833333333333,140.20294182045203L207.7201388888889,142.6980658395098L209.28194444444446,138.67326247068803L210.84375,143.35181579402604L212.40555555555554,142.74335060417445L213.9673611111111,146.78674924832927L215.52916666666667,141.55312313692255L217.09097222222223,143.608868270482L218.65277777777777,148.62530687170505L220.21458333333334,149.22330254861356L221.77638888888887,141.67576468996492L223.33819444444444,147.6118587107676L224.9,143.98655059062094L226.46180555555557,152.8984378765385L228.0236111111111,148.09166435813682L229.58541666666667,143.70033054781103L231.1472222222222,142.5843030111827L232.70902777777775,143.24282338866334L234.27083333333334,146.7013083710829L235.83263888888888,151.0190535115022L237.39444444444445,149.0658847878543L238.95624999999998,151.68812366526197L240.51805555555555,144.20731761913322L242.07986111111111,151.70594775600952L243.64166666666668,151.06371019134247L245.20347222222222,151.50027577166827L246.76527777777778,128.1178881835415L248.32708333333332,153.69967323173753L249.88888888888889,162.96330218241044L251.45069444444445,150.2503458098908L253.01250000000002,154.64893170204635L254.57430555555555,146.59898594127398L256.1361111111111,155.70244335842932L257.69791666666663,153.6348965106698L259.25972222222225,150.07297587273385L260.82152777777776,153.4758258619103L262.3833333333333,153.114771923173L263.9451388888889,151.28400326689172" fill="none"></path></g><g><path style="fill: none;" stroke="rgb(204, 51, 17)" stroke-width="2px" d="M31.23611111111111,-13.734013890648868L32.797916666666666,8.900370673005455L34.359722222222224,25.252999505005846L35.921527777777776,27.44091820260755L37.483333333333334,18.996621452785064L39.04513888888889,30.821492477606427L40.60694444444444,34.572349808458966L42.168749999999996,37.18696818713275L43.730555555555554,37.35785121045549L45.29236111111111,35.61171362041469L46.854166666666664,37.16719099907809L48.41597222222222,36.41690080421017L49.97777777777778,38.209482348424984L51.53958333333333,38.03824715674699L53.101388888888884,39.743018251291716L54.66319444444444,37.30227672701329L56.225,39.53802108318354L57.78680555555555,32.456072439871235L59.34861111111111,29.800235761554518L60.91041666666667,35.41203419307121L62.47222222222222,36.03106654060042L64.03402777777778,35.368169694264765L65.59583333333333,23.617208402116546L67.1576388888889,36.23439768729284L68.71944444444445,31.853155512053235L70.28125,20.605983125244762L71.84305555555555,33.394493060972536L73.40486111111112,31.381916273622863L74.96666666666667,36.42050836191112L76.52847222222222,29.40390919916291L78.09027777777779,17.21522342869423L79.65208333333334,42.131582119892414L81.21388888888887,52.26753727892334L82.77569444444444,52.255455589916934L84.33749999999999,52.232733505979525L85.89930555555556,63.38922808673176L87.46111111111111,57.45897959827168L89.02291666666666,63.34446570689353L90.58472222222223,66.50403610357256L92.14652777777778,59.40073215773958L93.70833333333333,66.93258719743002L95.2701388888889,65.5946010787855L96.83194444444445,64.56572951660141L98.39375,69.08177793974744L99.95555555555556,71.74715694016615L101.51736111111111,71.0634689396362L103.07916666666667,67.9098331518737L104.64097222222223,69.27088146817329L106.20277777777777,74.02365213926893L107.76458333333333,74.52396355353662L109.32638888888889,77.58423771794669L110.88819444444444,76.59921037103518L112.45,76.75998710484038L114.01180555555555,70.80286687203412L115.5736111111111,75.22662417221125L117.13541666666667,76.97368823775201L118.69722222222222,77.72749899867827L120.25902777777777,79.61294985003077L121.82083333333334,79.4569286544672L123.38263888888889,76.22387498983036L124.94444444444444,77.48650158429876L126.50625000000001,78.02932638966472L128.06805555555556,78.66610117921672L129.62986111111113,78.05064410199694L131.19166666666666,84.0216243514444L132.75347222222223,74.08227678997378L134.3152777777778,80.0367132630986L135.87708333333333,75.55877519852825L137.4388888888889,80.22327096538815L139.00069444444446,77.2589437561405L140.5625,83.13619242156184L142.12430555555554,84.0292087437864L143.6861111111111,80.16883660195411L145.24791666666667,82.69218299967615L146.80972222222223,82.69814366772952L148.37152777777777,77.59548474728027L149.93333333333334,83.50122886512514L151.49513888888887,77.86526822135889L153.05694444444444,76.65655564671492L154.61875,83.91857877258161L156.18055555555557,82.38841440813957L157.7423611111111,84.91828509288261L159.30416666666667,82.90622085462249L160.8659722222222,80.38180264861856L162.42777777777775,82.32849517096014L163.98958333333334,81.34016472060307L165.55138888888888,83.00575324295446L167.11319444444445,82.2184296307765L168.67499999999998,85.13644415944631L170.23680555555555,83.18196019017009L171.79861111111111,80.05590421449453L173.36041666666668,83.73794593840016L174.92222222222222,82.88036022785607L176.48402777777778,82.01860210345079L178.04583333333332,85.71631152813009L179.60763888888889,80.11727873160282L181.16944444444445,86.64319715599068L182.73125000000002,81.74021345015488L184.29305555555555,86.22939581876207L185.85486111111112,83.76222857908098L187.41666666666666,82.3692488863522L188.97847222222225,87.01879168074485L190.5402777777778,82.61232431389091L192.10208333333333,83.60811448285311L193.6638888888889,84.27909078777351L195.22569444444443,84.56447359054339L196.7875,79.17689842862546L198.34930555555556,82.3653127484262L199.91111111111113,82.75601569078377L201.47291666666666,80.40178835117406L203.03472222222223,80.32802303130526L204.59652777777777,80.76286224550276L206.15833333333333,82.92675795784045L207.7201388888889,85.56720945492935L209.28194444444446,83.77568339047693L210.84375,81.06525902938692L212.40555555555554,83.57766755715966L213.9673611111111,80.70921645639845L215.52916666666667,76.3493722191612L217.09097222222223,81.72797739873626L218.65277777777777,84.63250421240545L220.21458333333334,82.63047722765413L221.77638888888887,82.80494883657977L223.33819444444444,82.94412322885464L224.9,82.76622661992066L226.46180555555557,82.76660587690648L228.0236111111111,79.36681562283043L229.58541666666667,80.74492100653067L231.1472222222222,76.1159291061755L232.70902777777775,80.66819168204245L234.27083333333334,83.23407682901772L235.83263888888888,80.6524640992495L237.39444444444445,83.05455096730297L238.95624999999998,81.54147345239781L240.51805555555555,79.6343711592491L242.07986111111111,81.90440256350708L243.64166666666668,79.01179185936904L245.20347222222222,77.71380565526519L246.76527777777778,78.00055742862244L248.32708333333332,80.61241631720473L249.88888888888889,80.72499980316262L251.45069444444445,80.6689462026824L253.01250000000002,78.25937203196463L254.57430555555555,78.94916491501293L256.1361111111111,80.2566623039437L257.69791666666663,79.37784582858923L259.25972222222225,82.67475042817644L260.82152777777776,81.47173847924748L262.3833333333333,78.69380658383758L263.9451388888889,79.84706221326546" fill="none"></path></g><g><path style="fill: none;" stroke="rgb(0, 119, 187)" stroke-width="2px" d="M32.797916666666666,-13.802801043495549L34.359722222222224,15.154547456396983L35.921527777777776,29.84025535082759L37.483333333333334,40.35752137193191L39.04513888888889,48.60974717220111L40.60694444444444,55.69473755153827L42.168749999999996,62.23165246438637L43.730555555555554,67.67867802153101L45.29236111111111,72.0677584118708L46.854166666666664,76.57425245654301L48.41597222222222,81.05157506426698L49.97777777777778,83.3455971833823L51.53958333333333,88.28562040302491L53.101388888888884,91.78758934046958L54.66319444444444,93.92052624882369L56.225,97.69914145797355L57.78680555555555,100.61244054626677L59.34861111111111,104.78740120607799L60.91041666666667,105.88813354267724L62.47222222222222,107.59535154052114L64.03402777777778,110.57922822501102L65.59583333333333,113.01002959237593L67.1576388888889,114.43970218084628L68.71944444444445,115.39135308939193L70.28125,118.60065649216742L71.84305555555555,122.29493508877744L73.40486111111112,121.11932399321566L74.96666666666667,123.30592903853444L76.52847222222222,125.33896422806454L78.09027777777779,126.39493588738169L79.65208333333334,120.22129552086717L81.21388888888887,119.02038172771881L82.77569444444444,110.5510211062622L84.33749999999999,109.02467573018856L85.89930555555556,116.74396303568255L87.46111111111111,118.21782474307722L89.02291666666666,107.07305638982561L90.58472222222223,112.67523025038659L92.14652777777778,115.58824765120494L93.70833333333333,112.89710037707185L95.2701388888889,117.13727413096612L96.83194444444445,123.05170133386746L98.39375,108.56505595842928L99.95555555555556,107.27010865543605L101.51736111111111,122.60116264556609L103.07916666666667,114.54123793640554L104.64097222222223,116.39495219969811L106.20277777777777,117.68974901208784L107.76458333333333,127.17561527829534L109.32638888888889,124.3353732257539L110.88819444444444,117.96121270326913L112.45,115.66467103797586L114.01180555555555,118.93929837679751L115.5736111111111,126.0786521900167L117.13541666666667,121.64594935236127L118.69722222222222,125.4742467446892L120.25902777777777,125.63507221661843L121.82083333333334,128.6501783817033L123.38263888888889,127.43987179787565L124.94444444444444,126.31374828989871L126.50625000000001,127.53451322284852L128.06805555555556,125.22752707426642L129.62986111111113,116.06226351113418L131.19166666666666,127.00310020259158L132.75347222222223,130.60008623848466L134.3152777777778,123.45886443016167L135.87708333333333,129.8990960831588L137.4388888888889,130.2767980205324L139.00069444444446,126.21623898645063L140.5625,126.50722542810722L142.12430555555554,129.65893957350056L143.6861111111111,131.10144761974703L145.24791666666667,133.78783097377982L146.80972222222223,134.60554588632988L148.37152777777777,129.4517721445138L149.93333333333334,134.28874261505842L151.49513888888887,128.90380783453048L153.05694444444444,128.94988523463599L154.61875,124.0840407101218L156.18055555555557,133.98113888288796L157.7423611111111,133.65571439089263L159.30416666666667,133.14737889179398L160.8659722222222,133.71086468696967L162.42777777777775,132.16171317800573L163.98958333333334,138.01106587690387L165.55138888888888,134.202627871411L167.11319444444445,138.83431736753496L168.67499999999998,137.3407576273271L170.23680555555555,134.37682130865986L171.79861111111111,137.51660849471193L173.36041666666668,135.69465044968928L174.92222222222222,139.484413849031L176.48402777777778,139.45569956136646L178.04583333333332,141.20929872158078L179.60763888888889,142.7251665545213L181.16944444444445,141.2401983221361L182.73125000000002,144.30928518820525L184.29305555555555,132.23937828705652L185.85486111111112,142.38618253360048L187.41666666666666,139.77277705273724L188.97847222222225,140.8457437036841L190.5402777777778,144.43250649786492L192.10208333333333,151.16617912562063L193.6638888888889,143.57025498552105L195.22569444444443,147.3549726783144L196.7875,149.54216830479749L198.34930555555556,150.6839527156117L199.91111111111113,149.74271116172434L201.47291666666666,150.19638992440738L203.03472222222223,151.67180133282898L204.59652777777777,148.9237204665183L206.15833333333333,147.82897822278497L207.7201388888889,152.88759475115683L209.28194444444446,131.8878393803381L210.84375,149.18693520350445L212.40555555555554,153.92554765821228L213.9673611111111,156.83719112317632L215.52916666666667,159.70801622317674L217.09097222222223,156.46490712008625L218.65277777777777,154.46896794691145L220.21458333333334,144.43883722941018L221.77638888888887,151.4773022486117L223.33819444444444,146.68213288223308L224.9,155.06425291147576L226.46180555555557,156.903141692294L228.0236111111111,156.5651929852682L229.58541666666667,161.83306197831772L231.1472222222222,152.85552734562782L232.70902777777775,155.77316949890508L234.27083333333334,163.8149611298237L235.83263888888888,156.11337316892045L237.39444444444445,156.95637003889058L238.95624999999998,151.78862833760547L240.51805555555555,155.5510003653385L242.07986111111111,157.93313601771618L243.64166666666668,162.71085086469466L245.20347222222222,160.27543695616723L246.76527777777778,158.6269812704208L248.32708333333332,144.1087227522621L249.88888888888889,151.00122989779757L251.45069444444445,162.0466826033595L253.01250000000002,164.4493406113696L254.57430555555555,167.72277527570088L256.1361111111111,169.31022128309704L257.69791666666663,164.25592429652895L259.25972222222225,162.89904035932358L260.82152777777776,158.59196644808785L262.3833333333333,166.48169727355716L263.9451388888889,165.1349584860064" fill="none"></path></g><g><path style="fill: none;" stroke="rgb(255, 112, 67)" stroke-width="2px" d="M32.797916666666666,-2.600598152886107L34.359722222222224,8.857874330828054L35.921527777777776,16.010513612517883L37.483333333333334,-1.246429933591287L39.04513888888889,20.786367753162324L40.60694444444444,18.175375291831557L42.168749999999996,28.795959825253362L43.730555555555554,27.851869289493834L45.29236111111111,28.988253555067757L46.854166666666664,11.75284952205027L48.41597222222222,23.79947910657819L49.97777777777778,29.8802505134729L51.53958333333333,29.44160170165307L53.101388888888884,37.087771897827196L54.66319444444444,37.637347556140696L56.225,33.24892712965638L57.78680555555555,33.83608496137697L59.34861111111111,29.97564515179687L60.91041666666667,38.141552592580496L62.47222222222222,25.280316155623666L64.03402777777778,35.153215460345194L65.59583333333333,19.42559166679365L67.1576388888889,29.45462306545994L68.71944444444445,31.91877505714953L70.28125,35.6298577034342L71.84305555555555,23.579499505854642L73.40486111111112,31.576306185359442L74.96666666666667,26.469923216865425L76.52847222222222,36.962302220361494L78.09027777777779,36.60491169238796L79.65208333333334,40.04753473575201L81.21388888888887,45.56703595865255L82.77569444444444,34.333691865295094L84.33749999999999,51.13497246519424L85.89930555555556,55.520001520758484L87.46111111111111,29.028007593776664L89.02291666666666,61.40270130514817L90.58472222222223,52.82581148840575L92.14652777777778,60.11167844087616L93.70833333333333,65.89759691250127L95.2701388888889,64.63554048525054L96.83194444444445,70.55129405523965L98.39375,59.365263036716755L99.95555555555556,65.83129788976375L101.51736111111111,68.00618665478235L103.07916666666667,65.17083679735326L104.64097222222223,68.11777652236805L106.20277777777777,66.42796894992989L107.76458333333333,72.28434086085187L109.32638888888889,71.76804412125429L110.88819444444444,67.2941400568721L112.45,70.38123351077833L114.01180555555555,74.15892631668649L115.5736111111111,74.46829056063059L117.13541666666667,69.993361794299L118.69722222222222,70.13917066842467L120.25902777777777,71.04442438080765L121.82083333333334,76.72869921695674L123.38263888888889,73.13721163724233L124.94444444444444,79.45023411425932L126.50625000000001,80.84210432250809L128.06805555555556,49.90201589133545L129.62986111111113,77.18253617280931L131.19166666666666,80.19519233825073L132.75347222222223,81.42939620824106L134.3152777777778,82.19321053782733L135.87708333333333,74.7419338441533L137.4388888888889,79.50880815752996L139.00069444444446,71.94507129793547L140.5625,77.12764543359721L142.12430555555554,75.83895970921866L143.6861111111111,82.35940047542428L145.24791666666667,76.09859365270013L146.80972222222223,82.5621536040352L148.37152777777777,80.50076211027326L149.93333333333334,74.10014689378637L151.49513888888887,78.39034060932258L153.05694444444444,75.19212700820245L154.61875,83.20843537867981L156.18055555555557,79.14946569522637L157.7423611111111,78.97613266133031L159.30416666666667,81.54427553835723L160.8659722222222,76.48738619161715L162.42777777777775,81.54073256014388L163.98958333333334,82.26095791126032L165.55138888888888,77.41584122136499L167.11319444444445,80.35919469763539L168.67499999999998,78.82972064486252L170.23680555555555,80.61484886277925L171.79861111111111,77.68219950009377L173.36041666666668,84.45819470020592L174.92222222222222,84.44025675116217L176.48402777777778,81.86927182756368L178.04583333333332,82.39425006051263L179.60763888888889,80.1264763059486L181.16944444444445,82.76867201141528L182.73125000000002,80.94040610323648L184.29305555555555,79.50170226861626L185.85486111111112,80.56725216351066L187.41666666666666,80.39929671295491L188.97847222222225,73.1040427375694L190.5402777777778,76.88513572067305L192.10208333333333,79.31788386426906L193.6638888888889,77.87039187477436L195.22569444444443,79.21174353871095L196.7875,77.90278767789371L198.34930555555556,77.2971524666981L199.91111111111113,80.91400792659232L201.47291666666666,78.83539323062544L203.03472222222223,79.20456252713004L204.59652777777777,75.5641640012122L206.15833333333333,80.76960646043634L207.7201388888889,78.92992113186253L209.28194444444446,74.58586207277767L210.84375,75.70175331968774L212.40555555555554,75.38059708104691L213.9673611111111,82.6154314165768L215.52916666666667,77.27143377658902L217.09097222222223,81.13694608253898L218.65277777777777,78.2107325567292L220.21458333333334,75.94632884894645L221.77638888888887,75.32225342046014L223.33819444444444,78.93660798621661L224.9,75.58460471729087L226.46180555555557,76.05585034521667L228.0236111111111,72.37312832220368L229.58541666666667,80.78096212781321L231.1472222222222,79.41762625732285L232.70902777777775,78.2507590395118L234.27083333333334,75.01141358649606L235.83263888888888,82.13344953762677L237.39444444444445,79.80894764141324L238.95624999999998,77.11263952756163L240.51805555555555,80.08650606597153L242.07986111111111,74.24215934411603L243.64166666666668,78.4482315509093L245.20347222222222,73.88618728329762L246.76527777777778,75.71526672801711L248.32708333333332,72.19063271969027L249.88888888888889,78.38805261107392L251.45069444444445,76.58566003278585L253.01250000000002,78.30773272231056L254.57430555555555,76.51629587941676L256.1361111111111,75.63480476870384L257.69791666666663,67.07457708437055L259.25972222222225,80.44897465950876L260.82152777777776,74.62830068950005L262.3833333333333,78.69118747590191L263.9451388888889,76.52622355420212" fill="none"></path></g></g></g></g></g></g><g transform="translate(48, 177)" clip-path="url(#clip_1)"><clipPath id="clip_1"><rect width="281" height="22"></rect></clipPath><g><g><line x1="0" y1="0" x2="0" y2="5" style="visibility: inherit;" fill="rgb(0, 0, 0)" stroke="rgb(204, 204, 204)" stroke-width="1px"></line><line x1="31.23611111111111" y1="0" x2="31.23611111111111" y2="5" style="visibility: inherit;" fill="rgb(0, 0, 0)" stroke="rgb(204, 204, 204)" stroke-width="1px"></line><line x1="62.47222222222222" y1="0" x2="62.47222222222222" y2="5" style="visibility: inherit;" fill="rgb(0, 0, 0)" stroke="rgb(204, 204, 204)" stroke-width="1px"></line><line x1="93.70833333333333" y1="0" x2="93.70833333333333" y2="5" style="visibility: inherit;" fill="rgb(0, 0, 0)" stroke="rgb(204, 204, 204)" stroke-width="1px"></line><line x1="124.94444444444444" y1="0" x2="124.94444444444444" y2="5" style="visibility: inherit;" fill="rgb(0, 0, 0)" stroke="rgb(204, 204, 204)" stroke-width="1px"></line><line x1="156.18055555555557" y1="0" x2="156.18055555555557" y2="5" style="visibility: inherit;" fill="rgb(0, 0, 0)" stroke="rgb(204, 204, 204)" stroke-width="1px"></line><line x1="187.41666666666666" y1="0" x2="187.41666666666666" y2="5" style="visibility: inherit;" fill="rgb(0, 0, 0)" stroke="rgb(204, 204, 204)" stroke-width="1px"></line><line x1="218.65277777777777" y1="0" x2="218.65277777777777" y2="5" style="visibility: inherit;" fill="rgb(0, 0, 0)" stroke="rgb(204, 204, 204)" stroke-width="1px"></line><line x1="249.88888888888889" y1="0" x2="249.88888888888889" y2="5" style="visibility: inherit;" fill="rgb(0, 0, 0)" stroke="rgb(204, 204, 204)" stroke-width="1px"></line><line x1="281.125" y1="0" x2="281.125" y2="5" style="visibility: inherit;" fill="rgb(0, 0, 0)" stroke="rgb(204, 204, 204)" stroke-width="1px"></line></g><g transform="translate(0, 8)"><text style="text-anchor: middle; visibility: hidden; font-family: &quot;Helvetica Neue&quot;, sans-serif; font-size: 12px; font-weight: 200;" x="0" y="0" dx="0em" dy="0.95em" fill="rgb(50, 49, 63)" stroke="none" stroke-width="1px">-20</text><text style="text-anchor: middle; visibility: inherit; font-family: &quot;Helvetica Neue&quot;, sans-serif; font-size: 12px; font-weight: 200;" x="31.23611111111111" y="0" dx="0em" dy="0.95em" fill="rgb(50, 49, 63)" stroke="none" stroke-width="1px">0</text><text style="text-anchor: middle; visibility: inherit; font-family: &quot;Helvetica Neue&quot;, sans-serif; font-size: 12px; font-weight: 200;" x="62.47222222222222" y="0" dx="0em" dy="0.95em" fill="rgb(50, 49, 63)" stroke="none" stroke-width="1px">20</text><text style="text-anchor: middle; visibility: inherit; font-family: &quot;Helvetica Neue&quot;, sans-serif; font-size: 12px; font-weight: 200;" x="93.70833333333333" y="0" dx="0em" dy="0.95em" fill="rgb(50, 49, 63)" stroke="none" stroke-width="1px">40</text><text style="text-anchor: middle; visibility: inherit; font-family: &quot;Helvetica Neue&quot;, sans-serif; font-size: 12px; font-weight: 200;" x="124.94444444444444" y="0" dx="0em" dy="0.95em" fill="rgb(50, 49, 63)" stroke="none" stroke-width="1px">60</text><text style="text-anchor: middle; visibility: inherit; font-family: &quot;Helvetica Neue&quot;, sans-serif; font-size: 12px; font-weight: 200;" x="156.18055555555557" y="0" dx="0em" dy="0.95em" fill="rgb(50, 49, 63)" stroke="none" stroke-width="1px">80</text><text style="text-anchor: middle; visibility: inherit; font-family: &quot;Helvetica Neue&quot;, sans-serif; font-size: 12px; font-weight: 200;" x="187.41666666666666" y="0" dx="0em" dy="0.95em" fill="rgb(50, 49, 63)" stroke="none" stroke-width="1px">100</text><text style="text-anchor: middle; visibility: inherit; font-family: &quot;Helvetica Neue&quot;, sans-serif; font-size: 12px; font-weight: 200;" x="218.65277777777777" y="0" dx="0em" dy="0.95em" fill="rgb(50, 49, 63)" stroke="none" stroke-width="1px">120</text><text style="text-anchor: middle; visibility: inherit; font-family: &quot;Helvetica Neue&quot;, sans-serif; font-size: 12px; font-weight: 200;" x="249.88888888888889" y="0" dx="0em" dy="0.95em" fill="rgb(50, 49, 63)" stroke="none" stroke-width="1px">140</text><text style="text-anchor: middle; visibility: hidden; font-family: &quot;Helvetica Neue&quot;, sans-serif; font-size: 12px; font-weight: 200;" x="281.125" y="0" dx="0em" dy="0.95em" fill="rgb(50, 49, 63)" stroke="none" stroke-width="1px">160</text></g><line x1="0" y1="0" x2="281.125" y2="0" fill="rgb(0, 0, 0)" stroke="rgb(204, 204, 204)" stroke-width="1px"></line></g></g></g></g></svg>