<svg viewBox="0 0 330 200" xmlns="http://www.w3.org/2000/svg"><g><g><g><g><g><line x1="51.5625" y1="165.74756957236346" x2="46.5625" y2="165.74756957236346" style="visibility: inherit;" fill="rgb(0, 0, 0)" stroke="rgb(204, 204, 204)" stroke-width="1px"></line><line x1="51.5625" y1="154.3786226770252" x2="46.5625" y2="154.3786226770252" style="visibility: inherit;" fill="rgb(0, 0, 0)" stroke="rgb(204, 204, 204)" stroke-width="1px"></line><line x1="51.5625" y1="144.5303929234493" x2="46.5625" y2="144.5303929234493" style="visibility: inherit;" fill="rgb(0, 0, 0)" stroke="rgb(204, 204, 204)" stroke-width="1px"></line><line x1="51.5625" y1="135.8436386447804" x2="46.5625" y2="135.8436386447804" style="visibility: inherit;" fill="rgb(0, 0, 0)" stroke="rgb(204, 204, 204)" stroke-width="1px"></line><line x1="51.5625" y1="128.07307215281566" x2="46.5625" y2="128.07307215281566" style="visibility: inherit;" fill="rgb(0, 0, 0)" stroke="rgb(204, 204, 204)" stroke-width="1px"></line><line x1="51.5625" y1="76.95196457631852" x2="46.5625" y2="76.95196457631852" style="visibility: inherit;" fill="rgb(0, 0, 0)" stroke="rgb(204, 204, 204)" stroke-width="1px"></line><line x1="51.5625" y1="47.04803364873549" x2="46.5625" y2="47.04803364873549" style="visibility: inherit;" fill="rgb(0, 0, 0)" stroke="rgb(204, 204, 204)" stroke-width="1px"></line><line x1="51.5625" y1="25.83085699982137" x2="46.5625" y2="25.83085699982137" style="visibility: inherit;" fill="rgb(0, 0, 0)" stroke="rgb(204, 204, 204)" stroke-width="1px"></line><line x1="51.5625" y1="9.373536229187744" x2="46.5625" y2="9.373536229187744" style="visibility: inherit;" fill="rgb(0, 0, 0)" stroke="rgb(204, 204, 204)" stroke-width="1px"></line></g><g transform="translate(41.5625, 0)"><text style="text-anchor: end; visibility: inherit; font-family: Roboto, sans-serif; font-size: 12px; font-weight: 200;" x="0" y="165.74756957236346" dx="0em" dy="0.3em" fill="rgb(50, 49, 63)" stroke="none" stroke-width="1px">0.06</text><text style="text-anchor: end; visibility: hidden; font-family: Roboto, sans-serif; font-size: 12px; font-weight: 200;" x="0" y="154.3786226770252" dx="0em" dy="0.3em" fill="rgb(50, 49, 63)" stroke="none" stroke-width="1px">0.07</text><text style="text-anchor: end; visibility: hidden; font-family: Roboto, sans-serif; font-size: 12px; font-weight: 200;" x="0" y="144.5303929234493" dx="0em" dy="0.3em" fill="rgb(50, 49, 63)" stroke="none" stroke-width="1px">0.08</text><text style="text-anchor: end; visibility: inherit; font-family: Roboto, sans-serif; font-size: 12px; font-weight: 200;" x="0" y="135.8436386447804" dx="0em" dy="0.3em" fill="rgb(50, 49, 63)" stroke="none" stroke-width="1px">0.09</text><text style="text-anchor: end; visibility: hidden; font-family: Roboto, sans-serif; font-size: 12px; font-weight: 200;" x="0" y="128.07307215281566" dx="0em" dy="0.3em" fill="rgb(50, 49, 63)" stroke="none" stroke-width="1px">0.1</text><text style="text-anchor: end; visibility: hidden; font-family: Roboto, sans-serif; font-size: 12px; font-weight: 200;" x="0" y="76.95196457631852" dx="0em" dy="0.3em" fill="rgb(50, 49, 63)" stroke="none" stroke-width="1px">0.2</text><text style="text-anchor: end; visibility: inherit; font-family: Roboto, sans-serif; font-size: 12px; font-weight: 200;" x="0" y="47.04803364873549" dx="0em" dy="0.3em" fill="rgb(50, 49, 63)" stroke="none" stroke-width="1px">0.3</text><text style="text-anchor: end; visibility: hidden; font-family: Roboto, sans-serif; font-size: 12px; font-weight: 200;" x="0" y="25.83085699982137" dx="0em" dy="0.3em" fill="rgb(50, 49, 63)" stroke="none" stroke-width="1px">0.4</text><text style="text-anchor: end; visibility: hidden; font-family: Roboto, sans-serif; font-size: 12px; font-weight: 200;" x="0" y="9.373536229187744" dx="0em" dy="0.3em" fill="rgb(50, 49, 63)" stroke="none" stroke-width="1px">0.5</text></g><line x1="51.5625" y1="0" x2="51.5625" y2="177.921875" fill="rgb(0, 0, 0)" stroke="rgb(204, 204, 204)" stroke-width="1px"></line></g></g><g transform="translate(51, 0)" clip-path="url(#clip_0)"><clipPath id="clip_0"><rect width="278" height="177"></rect></clipPath><g><g><g><line x1="0" y1="0" x2="0" y2="177.921875" fill="rgb(0, 0, 0)" stroke="rgb(60, 60, 60)" stroke-width="1px" opacity="0.25"></line><line x1="30.9375" y1="0" x2="30.9375" y2="177.921875" fill="rgb(0, 0, 0)" stroke="rgb(60, 60, 60)" stroke-width="1px" opacity="0.25"></line><line x1="61.875" y1="0" x2="61.875" y2="177.921875" fill="rgb(0, 0, 0)" stroke="rgb(60, 60, 60)" stroke-width="1px" opacity="0.25"></line><line x1="92.8125" y1="0" x2="92.8125" y2="177.921875" fill="rgb(0, 0, 0)" stroke="rgb(60, 60, 60)" stroke-width="1px" opacity="0.25"></line><line x1="123.75" y1="0" x2="123.75" y2="177.921875" fill="rgb(0, 0, 0)" stroke="rgb(60, 60, 60)" stroke-width="1px" opacity="0.25"></line><line x1="154.6875" y1="0" x2="154.6875" y2="177.921875" fill="rgb(0, 0, 0)" stroke="rgb(60, 60, 60)" stroke-width="1px" opacity="0.25"></line><line x1="185.625" y1="0" x2="185.625" y2="177.921875" fill="rgb(0, 0, 0)" stroke="rgb(60, 60, 60)" stroke-width="1px" opacity="0.25"></line><line x1="216.5625" y1="0" x2="216.5625" y2="177.921875" fill="rgb(0, 0, 0)" stroke="rgb(60, 60, 60)" stroke-width="1px" opacity="0.25"></line><line x1="247.5" y1="0" x2="247.5" y2="177.921875" fill="rgb(0, 0, 0)" stroke="rgb(60, 60, 60)" stroke-width="1px" opacity="0.25"></line><line x1="278.4375" y1="0" x2="278.4375" y2="177.921875" fill="rgb(0, 0, 0)" stroke="rgb(60, 60, 60)" stroke-width="1px" opacity="0.25"></line></g><g><line x1="0" y1="165.74756957236346" x2="278.4375" y2="165.74756957236346" fill="rgb(0, 0, 0)" stroke="rgb(60, 60, 60)" stroke-width="1px" opacity="0.25"></line><line x1="0" y1="154.3786226770252" x2="278.4375" y2="154.3786226770252" fill="rgb(0, 0, 0)" stroke="rgb(60, 60, 60)" stroke-width="1px" opacity="0.25"></line><line x1="0" y1="144.5303929234493" x2="278.4375" y2="144.5303929234493" fill="rgb(0, 0, 0)" stroke="rgb(60, 60, 60)" stroke-width="1px" opacity="0.25"></line><line x1="0" y1="135.8436386447804" x2="278.4375" y2="135.8436386447804" fill="rgb(0, 0, 0)" stroke="rgb(60, 60, 60)" stroke-width="1px" opacity="0.25"></line><line x1="0" y1="128.07307215281566" x2="278.4375" y2="128.07307215281566" fill="rgb(0, 0, 0)" stroke="rgb(60, 60, 60)" stroke-width="1px" opacity="0.25"></line><line x1="0" y1="76.95196457631852" x2="278.4375" y2="76.95196457631852" fill="rgb(0, 0, 0)" stroke="rgb(60, 60, 60)" stroke-width="1px" opacity="0.25"></line><line x1="0" y1="47.04803364873549" x2="278.4375" y2="47.04803364873549" fill="rgb(0, 0, 0)" stroke="rgb(60, 60, 60)" stroke-width="1px" opacity="0.25"></line><line x1="0" y1="25.83085699982137" x2="278.4375" y2="25.83085699982137" fill="rgb(0, 0, 0)" stroke="rgb(60, 60, 60)" stroke-width="1px" opacity="0.25"></line><line x1="0" y1="9.373536229187744" x2="278.4375" y2="9.373536229187744" fill="rgb(0, 0, 0)" stroke="rgb(60, 60, 60)" stroke-width="1px" opacity="0.25"></line></g></g></g><g><g><line x1="30.9375" y1="0" x2="30.9375" y2="177.921875" fill="rgb(0, 0, 0)" stroke="rgb(153, 153, 153)" stroke-width="1.5px"></line></g></g><g><g><g><g><g><path style="fill: none;" stroke="rgb(0, 153, 136)" stroke-width="2px" d="M32.484375,-11.28504492013945L34.03125,10.77243880683235L35.578125,27.529375605780405L37.125,40.88845933621051L38.671875,52.20487176371596L40.21874999999999,61.99835601953381L41.765625,70.56891931202654L43.3125,78.2019846385379L44.859375,85.20254300736029L46.40625,91.60105666527737L47.953125,97.09156405862505L49.5,101.9906836288816L51.04687499999999,106.73622973145423L52.59375,110.93290714016189L54.140625,114.98005183911343L55.6875,118.60761820290574L57.234375,122.07661660264242L58.78125,125.01896345774949L60.328125,127.6414488461786L61.875,130.4913857619837L63.421875,132.90059800873308L64.96875,134.89438742129244L66.515625,136.99335704361854L68.0625,139.2309733685959L69.609375,141.18435154887004L71.15625,142.43611613757017L72.703125,144.68564332639846L74.25,146.0837279944957L75.796875,147.76553457034572L77.34375,149.3555773480599L78.890625,145.65390094426328L80.43749999999999,142.8259168355059L81.984375,139.58816554575242L83.53125,137.6780470457538L85.078125,138.0556673235186L86.625,136.78867211784276L88.171875,137.45377001430725L89.71875,137.1589988346963L91.265625,135.93712168588064L92.8125,134.35318097702734L94.359375,134.881576477188L95.90625,132.81784562917304L97.453125,134.198895807729L99,134.58430494600682L100.546875,136.4237796768465L102.09374999999999,137.50393275967468L103.640625,135.96464052203044L105.1875,136.45743239203802L106.73437500000001,136.043623870704L108.28125,137.15374300300462L109.828125,134.67652609635286L111.375,134.05156134602223L112.921875,135.54225234964008L114.46875,136.04938013390947L116.015625,134.70488629621116L117.5625,136.87282610358284L119.109375,137.69510528735668L120.65625,134.47321202896464L122.203125,135.34419753099274L123.75,137.44997513043137L125.296875,137.8715792972778L126.84375,137.92394142157062L128.390625,139.21616850444616L129.9375,138.7589161831713L131.484375,139.02031389153288L133.03125,139.49461736244916L134.578125,139.4380586702736L136.125,140.20178889028338L137.671875,138.6477354530963L139.21875,140.12769483469415L140.765625,140.16489254420225L142.3125,139.66823839095701L143.85937500000003,140.13028957977554L145.40625,139.1460666797211L146.953125,136.91210831751047L148.5,137.47431981673492L150.046875,139.94860304644186L151.59375,142.25341926398175L153.140625,141.36362846597265L154.6875,139.2533473762228L156.234375,141.30026311126002L157.78125,141.6140636843675L159.328125,143.61515717059163L160.87499999999997,141.68811399960623L162.421875,142.6403318957716L163.96875,142.37374794711357L165.515625,141.8440024994617L167.0625,142.51998327141263L168.609375,138.10783472018935L170.15625,139.43574820650204L171.703125,141.1657335266671L173.25,141.85235382271512L174.796875,141.33816109695962L176.34375,142.87621320629788L177.890625,143.8208228359183L179.4375,146.03768956331348L180.984375,145.7236554544113L182.53125,146.4690461714879L184.078125,144.9681432664368L185.625,145.56469149843085L187.17187500000003,144.46213452767213L188.71875,146.30752773505665L190.265625,148.9551414911696L191.8125,149.16168061687668L193.359375,148.45304607629757L194.90625,148.51926032338798L196.453125,146.13614382877495L198,146.61072581254479L199.546875,149.32619668173146L201.09375,148.23604622045522L202.640625,147.86810626405926L204.18749999999997,149.12699891462577L205.734375,151.63964460593016L207.28125,151.6288906932542L208.828125,149.30946395751064L210.375,149.29815560758976L211.921875,147.70583873926282L213.46875000000003,146.67657599931638L215.015625,147.4234908429163L216.5625,149.06822290615776L218.109375,150.71414214641678L219.65625,149.1455181020581L221.203125,150.37999001881713L222.75,149.79012526020327L224.296875,151.61613164654986L225.84375,148.75887484023696L227.390625,150.55514134556367L228.9375,151.31129663804396L230.48437499999997,153.25051790410544L232.03125,153.009100482992L233.578125,153.3041747953132L235.125,151.57499504001197L236.671875,152.38525808311113L238.21875,152.48055647081733L239.765625,153.90142298315666L241.3125,153.9255077322824L242.859375,154.7919084276806L244.40625,152.06003222587847L245.953125,152.50446428571428L247.5,153.9787596291041L249.046875,154.66588129315375L250.59375,151.83946948737142L252.140625,154.12487262668162L253.6875,155.23251843879103L255.234375,155.52183915606844L256.78125,153.7210972220103L258.328125,154.21267171951735L259.875,156.34580468665055L261.421875,154.9278579290446" fill="none"></path></g><g><path style="fill: none;" stroke="rgb(238, 51, 119)" stroke-width="2px" d="M30.9375,11.512760240380565L32.484375,7.2134531711605225L34.03125,14.963825574197303L35.578125,20.655013004044793L37.125,24.769190711739572L38.671875,25.77956168726117L40.21874999999999,24.153141258343936L41.765625,28.257161057489515L43.3125,24.966186486308374L44.859375,29.286208636814568L46.40625,30.640671860941993L47.953125,28.385906305596652L49.5,30.33708968781914L51.04687499999999,25.45376477466979L52.59375,23.94424985914614L54.140625,24.86893136767852L55.6875,27.336165261945947L57.234375,25.964446460461456L58.78125,26.218895938333176L60.328125,25.576199897995227L61.875,26.169929586404145L63.421875,27.555957969868135L64.96875,28.29761807801788L66.515625,27.249386492012132L68.0625,26.722136279185225L69.609375,24.948758455919116L71.15625,25.503685718269143L72.703125,26.216877296763318L74.25,25.417410714285722L75.796875,24.66440562733489L77.34375,23.375382810549425L78.890625,25.478793692919194L80.43749999999999,29.356597614425418L81.984375,33.77328896782053L83.53125,37.878876317237925L85.078125,41.16233947487514L86.625,44.944071138892106L88.171875,45.01833954626568L89.71875,48.77925001408683L91.265625,52.45188384364182L92.8125,54.21346408843371L94.359375,56.56306470081958L95.90625,58.13164109337018L97.453125,59.037546150770574L99,61.47887293653759L100.546875,59.85712686367081L102.09374999999999,60.71151924590987L103.640625,62.82178402358677L105.1875,63.08521418051819L106.73437500000001,62.68827048852203L108.28125,64.873798497718L109.828125,66.00262324288202L111.375,67.0499646177887L112.921875,69.0133412436239L114.46875,69.63450463230284L116.015625,71.26386989435281L117.5625,71.5971558021666L119.109375,71.33181095699453L120.65625,72.02797155840979L122.203125,70.70161578054532L123.75,70.98764047237498L125.296875,71.90303907072965L126.84375,72.22360188161007L128.390625,71.56444449334977L129.9375,71.1303014832655L131.484375,72.99924273915012L133.03125,73.55904387790783L134.578125,72.09353773516567L136.125,70.82456457362406L137.671875,71.41804796884121L139.21875,71.26362365465694L140.765625,72.31529739835196L142.3125,71.59128875866188L143.85937500000003,71.76441978590246L145.40625,68.24148059544363L146.953125,70.22221961140788L148.5,71.32272248808137L150.046875,72.08878043262563L151.59375,73.36281665287699L153.140625,73.84028155310477L154.6875,74.46230470980139L156.234375,73.69633143946614L157.78125,74.982484624005L159.328125,72.77275406235853L160.87499999999997,73.22138242164434L162.421875,72.85209755499399L163.96875,73.05386748549381L165.515625,71.61735123617026L167.0625,72.68924718860873L168.609375,72.66894285647422L170.15625,74.81838755204798L171.703125,73.14089224722069L173.25,74.37176669518188L174.796875,75.65938445269033L176.34375,76.36061456505045L177.890625,76.63592103177267L179.4375,76.30822978042876L180.984375,76.25255509786345L182.53125,76.27348967818013L184.078125,76.97021620017185L185.625,75.93724094233741L187.17187500000003,75.22290842352201L188.71875,75.38803826235704L190.265625,75.9384131684713L191.8125,76.71109672969453L193.359375,76.55795427871723L194.90625,76.28154777865223L196.453125,74.97561208686001L198,75.48093351102351L199.546875,75.42785660789835L201.09375,75.89859517535014L202.640625,75.79035889781925L204.18749999999997,75.77757139336848L205.734375,75.43741745414562L207.28125,75.5804157742566L208.828125,75.2487787332858L210.375,73.84178954000572L211.921875,74.22025772709043L213.46875000000003,69.94130328160773L215.015625,71.44300149419657L216.5625,69.57990174511997L218.109375,70.27772778615882L219.65625,71.83551069081199L221.203125,72.32964938519392L222.75,73.24123908999181L224.296875,73.72014465974573L225.84375,73.78969765411846L227.390625,73.62701312759229L228.9375,74.38034520462712L230.48437499999997,74.63422166598586L232.03125,75.73815300853492L233.578125,75.07657675395855L235.125,73.89433314476686L236.671875,74.44288201377577L238.21875,74.61724729016983L239.765625,74.45659816169065L241.3125,75.41477679055814L242.859375,73.22338734991725L244.40625,74.5201264305692L245.953125,75.68270069589606L247.5,75.70204440466533L249.046875,73.5214180894588L250.59375,73.6802957864249L252.140625,73.41084081452075L253.6875,73.99916341772827L255.234375,73.95674698192451L256.78125,72.76966334732363L258.328125,72.78934668849799L259.875,72.60347077461111L261.421875,69.35970347754606" fill="none"></path></g></g></g></g><g opacity="0.20000000298023224"><g><g><g><path style="fill: none;" stroke="rgb(0, 153, 136)" stroke-width="2px" d="M30.9375,-47.29865025290105L32.484375,35.840452135584705L34.03125,55.884040869806825L35.578125,70.61151651264476L37.125,79.45799273618L38.671875,87.39527996931314L40.21874999999999,93.79264184932582L41.765625,99.04923290591249L43.3125,103.91727008446132L44.859375,109.05076776274639L46.40625,113.46847626674219L47.953125,115.61181652076506L49.5,118.4038865852186L51.04687499999999,122.70128572192628L52.59375,124.90006687893502L54.140625,128.45298062762103L55.6875,130.57039726449224L57.234375,133.4916698333021L58.78125,134.5657437518568L60.328125,136.08162766303658L61.875,139.7369253262362L63.421875,140.62039522620287L64.96875,141.2093234355823L66.515625,143.66504747211746L68.0625,146.37494674338615L69.609375,147.37065987816345L71.15625,146.32191346037087L72.703125,151.874552001821L74.25,150.44297341610385L75.796875,153.05277598970966L77.34375,154.34143083084095L78.890625,135.54932728597078L80.43749999999999,134.94038944045263L81.984375,130.64993389733863L83.53125,132.22800372145787L85.078125,139.20022051971975L86.625,133.11338436098947L88.171875,139.48577725796048L89.71875,136.2817044577665L91.265625,132.3884948246471L92.8125,129.79582099012464L94.359375,136.48985171945156L95.90625,126.95207770285528L97.453125,138.50432195952712L99,135.7527622698863L100.546875,142.23460225047717L102.09374999999999,140.842676341302L103.640625,131.53062586148596L105.1875,137.95587616339702L106.73437500000001,134.8159502493847L108.28125,140.58802102313632L109.828125,127.70812074546632L111.375,132.207828109923L112.921875,140.20410679639213L114.46875,137.59202741535415L116.015625,130.81249272463404L117.5625,143.78741814565L119.109375,140.21842319323994L120.65625,125.57469565610442L122.203125,138.02062477521912L123.75,144.1540310148424L125.296875,139.15104816848122L126.84375,138.0812512163135L128.390625,143.23451856017428L129.9375,137.40392645252533L131.484375,139.81011219729643L133.03125,140.93610868521216L134.578125,139.26864237040158L136.125,142.54161018681148L137.671875,134.17289201817198L139.21875,144.75456543773672L140.765625,140.27659837164333L142.3125,138.19803315405875L143.85937500000003,141.534069530678L145.40625,136.26983314133065L146.953125,130.5896294746019L148.5,139.1871353524392L150.046875,147.9122556163957L151.59375,149.63435813263155L153.140625,138.75690791878884L154.6875,133.26227852686338L156.234375,147.80567576221793L157.78125,142.5635567761904L159.328125,149.96641052293796L160.87499999999997,136.19184196747452L162.421875,145.57305019284428L163.96875,141.57972934640568L165.515625,140.27722081414714L167.0625,144.58591460940465L168.609375,126.26362149070722L170.15625,143.5692684438349L171.703125,146.61336655316975L173.25,143.9514225488763L174.796875,139.81674865002145L176.34375,147.69272505662585L177.890625,146.7294869589287L179.4375,153.1185415435258L180.984375,144.789497169308L182.53125,148.75151377960967L184.078125,140.64043514597924L185.625,147.38384565555205L187.17187500000003,141.25003896600214L188.71875,152.13806427197133L190.265625,157.52099727091792L191.8125,149.78479125057038L193.359375,146.36710163781575L194.90625,148.71826049408938L196.453125,139.41667952527808L198,148.05307467713126L199.546875,158.1295432354994L201.09375,145.05906654780634L202.640625,146.7751734602711L204.18749999999997,153.0379818079146L205.734375,159.73603537241505L207.28125,151.59663836029L208.828125,142.75915089300224L210.375,149.2642409574979L211.921875,143.1253184637333L213.46875000000003,143.67226409136418L215.015625,149.7107226570483L216.5625,154.234653597579L218.109375,155.88447908492137L219.65625,144.63040889762323L221.203125,154.21244573432648L222.75,148.04831970033828L224.296875,157.3821650127344L225.84375,140.79670645075703L227.390625,156.22236760163432L228.9375,153.62742150080064L230.48437499999997,159.3942765251738L232.03125,152.28955378851026L233.578125,154.1965479150336L235.125,146.61816415885173L236.671875,154.87086756471513L238.21875,152.76719270423106L239.765625,158.3360390335545L241.3125,153.99780920681533L242.859375,157.4539054843134L244.40625,144.42367717553216L245.953125,153.8540589557521L247.5,158.5871742704948L249.046875,156.76651204315283L250.59375,143.957270047429L252.140625,161.43943745429138L253.6875,158.65890746742755L255.234375,156.39667410358663L256.78125,148.5685411537303L258.328125,155.7073650770329L259.875,163.14241456529743L261.421875,150.83059638666776" fill="none"></path></g><g><path style="fill: none;" stroke="rgb(238, 51, 119)" stroke-width="2px" d="M30.9375,11.512760240380565L32.484375,4.145846759247065L34.03125,26.55483707056167L35.578125,31.704354854741425L37.125,34.0006091121997L38.671875,28.144810084925265L40.21874999999999,20.289194077551763L41.765625,40.135350346248835L43.3125,16.751885801545647L44.859375,42.79639735233259L46.40625,34.61589813695442L47.953125,22.266382774313225L49.5,36.31686090970499L51.04687499999999,12.770850834061303L52.59375,19.66800569940737L54.140625,27.675878453840408L55.6875,35.1914944970288L57.234375,22.025076821372735L58.78125,26.983198350535666L60.328125,23.688958991665405L61.875,27.974535218016772L63.421875,31.8669520803365L64.96875,30.56431246655986L66.515625,24.19523115726217L68.0625,25.16417936518905L69.609375,19.874653273843858L71.15625,27.193003487709312L72.703125,28.39785233855436L74.25,23.070462348466947L75.796875,22.45096802146668L77.34375,19.63886745375088L78.890625,32.17391053793314L80.43749999999999,42.386130365402984L81.984375,48.87243694687217L83.53125,51.77480016777141L85.078125,51.99250895638713L86.625,57.613235995622794L88.171875,45.241589225107724L89.71875,61.37058789105122L91.265625,64.71365659981979L92.8125,59.76560869485915L94.359375,64.09735832500076L95.90625,63.048025216531784L97.453125,61.823990133441484L99,69.32871180516318L100.546875,55.19547922628237L102.09374999999999,63.33573396365471L103.640625,69.54100223088378L105.1875,63.88119690513154L106.73437500000001,61.510099956332965L108.28125,71.84809799310646L109.828125,69.49661682138547L111.375,70.28429726692781L112.921875,75.23801559115586L114.46875,71.53001496997284L116.015625,76.37976180347356L117.5625,72.60614655645688L119.109375,70.54145677324637L120.65625,74.15677070675034L122.203125,66.85992992167981L123.75,71.85243090565365L125.296875,74.71944582580551L126.84375,73.19373598579315L128.390625,69.62159915604421L129.9375,69.84299856482897L131.484375,78.90822629024161L133.03125,75.26440228932321L134.578125,67.86403969398138L136.125,67.14361390706131L137.671875,73.22770227409401L139.21875,70.80228131338133L140.765625,75.56340677202476L142.3125,69.46095496028025L143.85937500000003,72.28626482603433L145.40625,58.58219218567929L146.953125,76.505128514499L148.5,74.72632862476667L150.046875,74.43588551255921L151.59375,77.32255023712618L153.140625,75.29150761556421L154.6875,76.36048429273657L156.234375,71.44501672091182L157.78125,78.98125598665392L159.328125,66.51503600123671L160.87499999999997,74.5838774658332L162.421875,71.75520929567914L163.96875,73.66251056352743L165.515625,67.46841977340713L167.0625,76.0017020960224L168.609375,72.60806337783242L170.15625,81.67025799728016L171.703125,68.32586251963926L173.25,78.1926636678353L174.796875,79.66287613189762L176.34375,78.5052184442512L177.890625,77.46806074851149L179.4375,75.33380236485561L180.984375,76.08578277601836L182.53125,76.33632909649185L184.078125,79.10077955212286L185.625,72.92238526579207L187.17187500000003,73.12050811870172L188.71875,75.88565777342603L190.265625,77.61461851543777L191.8125,79.07893949121174L193.359375,76.10042568430477L194.90625,75.45848990659027L196.453125,71.19107062086724L198,77.01800954656946L199.546875,75.26885470013826L201.09375,77.32911143124709L202.640625,75.46659987825267L204.18749999999997,75.73922217758954L205.734375,74.42626852733373L207.28125,76.01108185842112L208.828125,74.2627223353086L210.375,69.77504070297502L211.921875,75.36745664393037L213.46875000000003,58.41861757329508L215.015625,76.14076302751276L216.5625,64.25737145631767L218.109375,72.41171870566197L219.65625,76.71657804318221L221.203125,73.83224588331272L222.75,76.04562746345336L224.296875,75.17580742330928L225.84375,73.99875106282173L227.390625,73.14110165293675L228.9375,76.68764084834703L230.48437499999997,75.40113704824529L232.03125,79.15269332370512L233.578125,73.1267267913012L235.125,70.457227289901L236.671875,76.1134416292734L238.21875,75.14283026052858L239.765625,73.97673974904038L241.3125,78.36634766194913L242.859375,67.01474702197478L244.40625,78.55302503229093L245.953125,79.28459733862506L247.5,75.76010599040724L249.046875,67.34159896257124L250.59375,74.15899279376237L252.140625,72.60833277293746L253.6875,75.79282485902301L255.234375,73.82964384593888L256.78125,69.31892067106611L258.328125,72.84842825078366L259.875,72.04863736480546L261.421875,60.40553855456372" fill="none"></path></g></g></g></g></g></g><g transform="translate(51, 177)" clip-path="url(#clip_1)"><clipPath id="clip_1"><rect width="278" height="22"></rect></clipPath><g><g><line x1="0" y1="0" x2="0" y2="5" style="visibility: inherit;" fill="rgb(0, 0, 0)" stroke="rgb(204, 204, 204)" stroke-width="1px"></line><line x1="30.9375" y1="0" x2="30.9375" y2="5" style="visibility: inherit;" fill="rgb(0, 0, 0)" stroke="rgb(204, 204, 204)" stroke-width="1px"></line><line x1="61.875" y1="0" x2="61.875" y2="5" style="visibility: inherit;" fill="rgb(0, 0, 0)" stroke="rgb(204, 204, 204)" stroke-width="1px"></line><line x1="92.8125" y1="0" x2="92.8125" y2="5" style="visibility: inherit;" fill="rgb(0, 0, 0)" stroke="rgb(204, 204, 204)" stroke-width="1px"></line><line x1="123.75" y1="0" x2="123.75" y2="5" style="visibility: inherit;" fill="rgb(0, 0, 0)" stroke="rgb(204, 204, 204)" stroke-width="1px"></line><line x1="154.6875" y1="0" x2="154.6875" y2="5" style="visibility: inherit;" fill="rgb(0, 0, 0)" stroke="rgb(204, 204, 204)" stroke-width="1px"></line><line x1="185.625" y1="0" x2="185.625" y2="5" style="visibility: inherit;" fill="rgb(0, 0, 0)" stroke="rgb(204, 204, 204)" stroke-width="1px"></line><line x1="216.5625" y1="0" x2="216.5625" y2="5" style="visibility: inherit;" fill="rgb(0, 0, 0)" stroke="rgb(204, 204, 204)" stroke-width="1px"></line><line x1="247.5" y1="0" x2="247.5" y2="5" style="visibility: inherit;" fill="rgb(0, 0, 0)" stroke="rgb(204, 204, 204)" stroke-width="1px"></line><line x1="278.4375" y1="0" x2="278.4375" y2="5" style="visibility: inherit;" fill="rgb(0, 0, 0)" stroke="rgb(204, 204, 204)" stroke-width="1px"></line></g><g transform="translate(0, 8)"><text style="text-anchor: middle; visibility: hidden; font-family: Roboto, sans-serif; font-size: 12px; font-weight: 200;" x="0" y="0" dx="0em" dy="0.95em" fill="rgb(50, 49, 63)" stroke="none" stroke-width="1px">-20</text><text style="text-anchor: middle; visibility: inherit; font-family: Roboto, sans-serif; font-size: 12px; font-weight: 200;" x="30.9375" y="0" dx="0em" dy="0.95em" fill="rgb(50, 49, 63)" stroke="none" stroke-width="1px">0</text><text style="text-anchor: middle; visibility: inherit; font-family: Roboto, sans-serif; font-size: 12px; font-weight: 200;" x="61.875" y="0" dx="0em" dy="0.95em" fill="rgb(50, 49, 63)" stroke="none" stroke-width="1px">20</text><text style="text-anchor: middle; visibility: inherit; font-family: Roboto, sans-serif; font-size: 12px; font-weight: 200;" x="92.8125" y="0" dx="0em" dy="0.95em" fill="rgb(50, 49, 63)" stroke="none" stroke-width="1px">40</text><text style="text-anchor: middle; visibility: inherit; font-family: Roboto, sans-serif; font-size: 12px; font-weight: 200;" x="123.75" y="0" dx="0em" dy="0.95em" fill="rgb(50, 49, 63)" stroke="none" stroke-width="1px">60</text><text style="text-anchor: middle; visibility: inherit; font-family: Roboto, sans-serif; font-size: 12px; font-weight: 200;" x="154.6875" y="0" dx="0em" dy="0.95em" fill="rgb(50, 49, 63)" stroke="none" stroke-width="1px">80</text><text style="text-anchor: middle; visibility: inherit; font-family: Roboto, sans-serif; font-size: 12px; font-weight: 200;" x="185.625" y="0" dx="0em" dy="0.95em" fill="rgb(50, 49, 63)" stroke="none" stroke-width="1px">100</text><text style="text-anchor: middle; visibility: inherit; font-family: Roboto, sans-serif; font-size: 12px; font-weight: 200;" x="216.5625" y="0" dx="0em" dy="0.95em" fill="rgb(50, 49, 63)" stroke="none" stroke-width="1px">120</text><text style="text-anchor: middle; visibility: inherit; font-family: Roboto, sans-serif; font-size: 12px; font-weight: 200;" x="247.5" y="0" dx="0em" dy="0.95em" fill="rgb(50, 49, 63)" stroke="none" stroke-width="1px">140</text><text style="text-anchor: middle; visibility: hidden; font-family: Roboto, sans-serif; font-size: 12px; font-weight: 200;" x="278.4375" y="0" dx="0em" dy="0.95em" fill="rgb(50, 49, 63)" stroke="none" stroke-width="1px">160</text></g><line x1="0" y1="0" x2="278.4375" y2="0" fill="rgb(0, 0, 0)" stroke="rgb(204, 204, 204)" stroke-width="1px"></line></g></g></g></g></svg>